<svg version="1.1" id="Layer_1" xmlns="http://www.w3.org/2000/svg" xmlns:xlink="http://www.w3.org/1999/xlink" x="0px" y="0px"
	 width="100%" viewBox="0 0 512 512" enable-background="new 0 0 512 512" xml:space="preserve">
<path fill="#4CAF50" opacity="1.000000" stroke="none" 
	d="
M192.468628,513.000000 
	C191.041092,512.010132 190.258102,510.673798 189.096130,510.083740 
	C176.974716,503.928406 171.337967,493.562103 171.113113,480.533051 
	C170.710663,457.214172 170.944534,433.883118 171.058975,410.557892 
	C171.076035,407.080414 170.245712,405.700134 166.500534,404.560181 
	C145.179504,398.070465 128.764771,377.360504 128.893524,354.603210 
	C129.215897,297.623413 129.150681,240.639709 128.815842,183.660065 
	C128.772217,176.237381 134.348038,170.882431 141.719162,170.898285 
	C218.527359,171.063644 295.336182,171.062683 372.144379,170.896576 
	C379.269318,170.881165 385.236359,175.693619 385.185455,184.026001 
	C384.833466,241.671921 385.072876,299.321167 384.947083,356.968964 
	C384.916840,370.825714 378.761261,382.061188 368.974152,391.666534 
	C362.198944,398.315979 354.361908,402.658783 345.303131,405.268036 
	C344.138672,405.603455 343.109344,408.625031 343.097687,410.409363 
	C342.950134,433.067749 343.014038,455.727417 342.995300,478.386780 
	C342.983276,492.931244 337.349640,504.148285 323.795746,510.663483 
	C322.946442,511.071716 322.251099,511.800232 321.742065,512.689880 
	C314.645752,513.000000 307.291504,513.000000 299.672363,512.658386 
	C299.081360,511.946777 298.822632,511.366638 298.419373,511.237457 
	C286.881256,507.539703 277.524231,493.208374 277.833893,481.008636 
	C278.412262,458.220154 278.000183,435.406555 278.000214,412.603394 
	C278.000214,410.847687 278.000214,409.091949 278.000214,407.277893 
	C263.679260,407.277893 250.105652,407.277893 235.999741,407.277893 
	C235.999741,409.333221 235.999741,411.117432 235.999741,412.901642 
	C235.999756,435.039032 235.836777,457.178009 236.056122,479.313232 
	C236.206604,494.498901 229.611816,505.041046 215.779068,511.187469 
	C215.338013,511.383453 215.251694,512.377808 215.000000,513.000000 
	C207.645752,513.000000 200.291504,513.000000 192.468628,513.000000 
z"/>
<path fill="#4CAF50" opacity="1.000000" stroke="none" 
	d="
M359.536804,1.000001 
	C361.333008,4.423133 363.538818,7.799232 363.726654,11.284077 
	C363.880646,14.141541 362.337006,17.783907 360.326355,19.942278 
	C352.413452,28.436556 344.018829,36.482067 335.629700,44.867355 
	C339.509705,48.120861 343.010773,51.033360 346.486908,53.975307 
	C367.725311,71.949669 380.004730,94.900848 383.936707,122.300301 
	C384.871460,128.814194 384.844177,135.488312 384.936005,142.093231 
	C384.997437,146.510986 380.275330,150.454819 374.858978,150.971115 
	C373.703064,151.081284 372.528442,150.998947 371.362457,150.998947 
	C295.071716,150.999527 218.780930,151.010925 142.490234,150.950363 
	C139.904556,150.948318 136.733566,151.012756 134.877914,149.638504 
	C132.387146,147.793915 129.466095,144.696793 129.235611,141.928726 
	C127.638878,122.753372 132.124527,104.631058 140.830353,87.641167 
	C149.599167,70.528374 161.691895,56.142914 178.710159,45.240883 
	C174.307083,40.826836 170.244293,36.748981 166.175858,32.676754 
	C162.290817,28.788071 158.397568,24.907578 154.512100,21.019314 
	C148.392273,14.895069 148.349030,9.489751 154.348022,3.130828 
	C154.801773,2.649866 155.171646,2.089792 155.290253,1.283246 
	C158.692902,1.000000 162.385818,1.000000 166.278549,1.296260 
	C176.883575,12.790805 187.288773,23.989090 197.188019,34.642864 
	C215.075867,26.947102 231.500336,23.164263 248.404663,22.105600 
	C270.222473,20.739223 291.382874,24.574547 311.736755,32.459118 
	C314.277283,33.443260 315.435577,33.143379 317.138245,31.413397 
	C325.554871,22.861767 334.091980,14.428816 342.554657,5.922219 
	C344.112061,4.356713 345.522003,2.644505 347.000000,1.000005 
	C351.024536,1.000000 355.049103,1.000000 359.536804,1.000001 
M197.128082,105.478882 
	C198.154449,106.015793 199.132996,106.690773 200.215500,107.065559 
	C204.743958,108.633400 209.399368,107.166977 212.207611,103.385544 
	C214.896515,99.764778 214.895950,94.401970 212.206314,90.782974 
	C209.457947,87.085014 204.553070,85.538010 200.144943,87.078133 
	C192.926941,89.599983 190.231171,99.298416 197.128082,105.478882 
M311.965759,86.677025 
	C305.326660,86.576889 301.038910,89.475433 299.989166,94.773239 
	C298.989197,99.819885 301.441925,104.784531 305.932953,106.804253 
	C311.404785,109.265076 317.705994,106.763954 320.082550,101.187897 
	C322.650757,95.162163 319.725739,89.458557 311.965759,86.677025 
z"/>
<path fill="#4CAF50" opacity="1.000000" stroke="none" 
	d="
M61.532284,174.266342 
	C72.015320,170.176758 82.109772,169.682465 91.702644,175.386673 
	C101.778732,181.378235 107.917717,190.206863 107.947632,202.218399 
	C108.072105,252.194168 107.561790,302.176422 108.244080,352.143188 
	C108.474678,369.031036 93.132217,386.050018 75.307846,385.396179 
	C62.133801,384.912872 48.035213,375.676453 44.893078,362.513489 
	C44.024708,358.875732 43.089920,355.128876 43.080772,351.429871 
	C42.960510,302.786743 43.004276,254.143265 42.998444,205.499878 
	C42.996777,191.588013 49.023014,181.217239 61.532284,174.266342 
z"/>
<path fill="#4CAF50" opacity="1.000000" stroke="none" 
	d="
M406.000000,331.000000 
	C406.000000,287.872223 405.995239,245.244431 406.002655,202.616653 
	C406.005249,187.606949 417.295166,174.588547 432.013153,171.934769 
	C454.148743,167.943542 471.074097,184.571152 471.031586,205.283218 
	C470.931427,254.071854 471.033295,302.860870 470.969849,351.649628 
	C470.957642,361.040771 467.971588,369.550110 461.217499,376.176056 
	C450.588165,386.603638 437.696686,387.630249 424.565033,382.577057 
	C414.968231,378.884125 405.354126,366.870422 405.942688,353.477356 
	C406.264038,346.164856 406.000031,338.826630 406.000000,331.000000 
z"/>
<path fill="#F6F8F6" opacity="1.000000" stroke="none" 
	d="
M196.839600,105.233246 
	C190.231171,99.298416 192.926941,89.599983 200.144943,87.078133 
	C204.553070,85.538010 209.457947,87.085014 212.206314,90.782974 
	C214.895950,94.401970 214.896515,99.764778 212.207611,103.385544 
	C209.399368,107.166977 204.743958,108.633400 200.215500,107.065559 
	C199.132996,106.690773 198.154449,106.015793 196.839600,105.233246 
z"/>
<path fill="#F6F8F6" opacity="1.000000" stroke="none" 
	d="
M312.338135,86.744965 
	C319.725739,89.458557 322.650757,95.162163 320.082550,101.187897 
	C317.705994,106.763954 311.404785,109.265076 305.932953,106.804253 
	C301.441925,104.784531 298.989197,99.819885 299.989166,94.773239 
	C301.038910,89.475433 305.326660,86.576889 312.338135,86.744965 
z"/>
</svg>