<svg version="1.1" id="Layer_1" xmlns="http://www.w3.org/2000/svg" xmlns:xlink="http://www.w3.org/1999/xlink" x="0px" y="0px"
	 width="100%" viewBox="0 0 512 512" enable-background="new 0 0 512 512" xml:space="preserve">
<path fill="#C77550" opacity="1.000000" stroke="none" 
	d="
M341.063141,201.912827 
	C365.654877,202.194901 388.377686,209.011826 408.014771,223.705032 
	C427.802704,238.511108 441.666046,258.114563 448.888794,281.969604 
	C453.621185,297.599640 453.918549,313.569885 452.093658,329.746460 
	C450.005432,348.256775 442.598053,364.547974 432.558807,379.877258 
	C431.933350,380.832367 430.954529,381.556061 429.713837,382.869080 
	C420.488556,391.234863 411.689514,399.118988 402.631378,407.086609 
	C401.910370,407.457397 401.448425,407.744659 400.989044,408.008606 
	C400.991608,407.985352 401.035004,408.002991 400.754211,408.078400 
	C399.980133,408.450562 399.486877,408.747314 399.002075,409.019775 
	C399.010529,408.995483 399.047516,409.033020 398.637909,409.030273 
	C384.141083,412.412872 370.039001,414.940247 355.358826,414.154816 
	C333.592896,412.990356 313.979004,406.234802 296.365112,393.557343 
	C268.758118,373.687500 253.103882,346.385376 250.354355,312.888123 
	C247.304367,275.730530 259.749390,243.815414 288.332306,218.904480 
	C289.503052,217.884125 290.096130,216.200958 290.987549,214.868958 
	C291.016754,214.911301 290.940887,214.980957 291.225464,214.906494 
	C292.013519,214.536133 292.516998,214.240234 293.012085,213.976807 
	C293.003662,214.009262 292.940796,213.985794 293.227112,213.892731 
	C294.013885,213.468445 294.514313,213.137238 295.259888,212.571030 
	C297.429718,211.502533 299.354462,210.669052 301.626648,209.758026 
	C308.375244,207.815765 314.776367,205.951035 321.603333,204.083939 
	C328.373779,203.358658 334.718475,202.635742 341.063141,201.912827 
M345.363800,233.943192 
	C341.201752,234.024887 337.002625,233.776169 332.883392,234.238983 
	C287.952026,239.287094 256.874451,278.981812 262.073242,324.546265 
	C266.970093,367.464508 307.666748,398.611298 351.729218,393.163574 
	C392.409943,388.133972 422.688934,352.558868 421.355560,311.358948 
	C420.012604,269.863708 387.322815,236.155441 345.363800,233.943192 
z"/>
<path fill="#5B5E8B" opacity="1.000000" stroke="none" 
	d="
M341.026581,426.164062 
	C341.017731,435.157471 340.869110,444.153320 341.028656,453.143738 
	C341.378906,472.881256 324.259216,489.239807 304.948486,489.140350 
	C235.334198,488.781799 165.716965,489.005096 96.100838,488.985992 
	C91.439980,488.984711 86.779160,488.795319 81.508659,488.382141 
	C79.007889,487.090790 77.117157,486.110016 75.225639,485.130707 
	C62.897324,478.747803 56.116379,468.586029 55.099617,454.797150 
	C54.687222,449.204407 55.052422,443.554321 55.354458,438.101593 
	C59.819511,442.773376 65.126846,443.925934 71.043732,443.921722 
	C147.779480,443.867218 224.515274,443.889923 301.251068,443.882111 
	C314.901398,443.880707 320.946075,437.867554 321.587708,424.118347 
	C328.339905,424.787109 334.683228,425.475586 341.026581,426.164062 
M152.025208,475.892761 
	C174.496948,475.901917 196.968781,475.945312 219.440399,475.897980 
	C225.681625,475.884827 229.796936,472.428253 229.835098,467.502075 
	C229.873138,462.592285 225.735641,459.051910 219.523941,459.034851 
	C197.385178,458.974091 175.246033,458.970215 153.107300,459.038788 
	C146.826523,459.058258 143.507355,461.653748 143.011307,466.459900 
	C142.497482,471.438232 144.958450,474.274567 152.025208,475.892761 
z"/>
<path fill="#312E4C" opacity="1.000000" stroke="none" 
	d="
M55.063789,437.930328 
	C55.052422,443.554321 54.687222,449.204407 55.099617,454.797150 
	C56.116379,468.586029 62.897324,478.747803 75.225639,485.130707 
	C77.117157,486.110016 79.007889,487.090790 81.052773,488.371704 
	C69.620071,489.282166 57.893787,490.750244 47.569801,483.376343 
	C38.154160,476.651184 31.995243,467.889893 31.988874,455.983307 
	C31.917921,323.351532 31.955025,190.719727 31.930286,58.087933 
	C31.927179,41.421108 48.173515,24.918167 64.789986,24.945139 
	C69.953018,24.953520 75.115845,25.081423 80.579849,25.560629 
	C78.665390,27.090343 76.369179,28.080599 74.249123,29.362249 
	C67.330788,33.544632 60.905079,38.211437 58.638092,46.982128 
	C53.160717,51.603252 51.260952,57.237778 51.265148,64.005737 
	C51.339638,184.086960 51.278137,304.168304 51.477364,424.249237 
	C51.484936,428.811584 53.815639,433.370056 55.063789,437.930328 
z"/>
<path fill="#5C5F8B" opacity="1.000000" stroke="none" 
	d="
M58.874294,46.738628 
	C60.905079,38.211437 67.330788,33.544632 74.249123,29.362249 
	C76.369179,28.080599 78.665390,27.090343 81.049347,25.678658 
	C88.880768,25.261248 96.543732,25.022825 104.206795,25.019487 
	C171.870880,24.990019 239.535065,24.945080 307.199005,25.044783 
	C322.987396,25.068047 337.185455,37.409351 339.979431,53.186638 
	C340.608307,56.737827 340.950562,60.388432 340.956024,63.993984 
	C341.025330,109.658775 341.008850,155.323700 341.038696,201.450714 
	C334.718475,202.635742 328.373779,203.358658 321.591064,203.607788 
	C321.150116,178.486557 321.146454,153.839111 321.144409,129.191666 
	C321.142578,107.042221 321.174896,84.892708 321.128021,62.743359 
	C321.104126,51.458401 314.887512,44.953945 303.816345,44.456219 
	C302.320190,44.388954 300.819153,44.422234 299.320374,44.422207 
	C223.879028,44.420891 148.437607,44.379536 72.996529,44.520252 
	C68.287758,44.529034 63.581646,45.966080 58.874294,46.738628 
z"/>
<path fill="#AC614C" opacity="1.000000" stroke="none" 
	d="
M341.486328,426.109222 
	C334.683228,425.475586 328.339905,424.787109 321.208160,423.979553 
	C313.616821,421.910858 306.813873,419.961334 299.722870,417.810760 
	C284.077423,411.034912 270.530945,401.874634 259.164185,389.556793 
	C249.679855,379.278961 242.833923,367.345917 237.025696,354.351929 
	C235.014969,347.240448 233.040176,340.499512 231.087769,333.334717 
	C230.952423,321.998322 230.223709,311.056305 230.785995,300.181030 
	C231.442444,287.484131 236.193451,275.710297 241.412918,263.898315 
	C248.098373,254.548538 254.516632,245.412796 261.209625,236.073456 
	C263.384735,233.941071 265.285126,232.012299 267.486816,229.943054 
	C275.511536,224.810593 283.234955,219.818588 290.958344,214.826599 
	C290.096130,216.200958 289.503052,217.884125 288.332306,218.904480 
	C259.749390,243.815414 247.304367,275.730530 250.354355,312.888123 
	C253.103882,346.385376 268.758118,373.687500 296.365112,393.557343 
	C313.979004,406.234802 333.592896,412.990356 355.358826,414.154816 
	C370.039001,414.940247 384.141083,412.412872 398.438751,409.306885 
	C393.405212,412.424133 388.161194,415.262115 382.917175,418.100037 
	C374.002502,420.408997 365.145874,422.989288 356.149048,424.914246 
	C351.544220,425.899536 346.688416,425.711914 341.486328,426.109222 
z"/>
<path fill="#E83D62" opacity="1.000000" stroke="none" 
	d="
M439.030273,392.883484 
	C451.498474,405.897522 465.079529,418.041840 476.121796,432.170349 
	C487.157013,446.289734 484.166382,470.542206 467.066833,481.875854 
	C461.760742,481.850861 457.102753,482.224579 452.485352,481.940094 
	C442.502075,481.324951 434.113800,477.025543 428.157104,469.060120 
	C412.474854,448.089661 414.809845,418.825012 433.220520,400.184723 
	C435.393585,397.984589 437.104889,395.328308 439.030273,392.883484 
z"/>
<path fill="#CF2A55" opacity="1.000000" stroke="none" 
	d="
M438.902679,392.578369 
	C437.104889,395.328308 435.393585,397.984589 433.220520,400.184723 
	C414.809845,418.825012 412.474854,448.089661 428.157104,469.060120 
	C434.113800,477.025543 442.502075,481.324951 452.485352,481.940094 
	C457.102753,482.224579 461.760742,481.850861 466.719086,481.929443 
	C462.135406,484.386810 457.400635,488.140900 452.300018,488.730530 
	C434.804474,490.753021 422.443878,485.674683 413.001984,469.846039 
	C402.898712,452.908661 393.131775,435.770630 383.067596,418.410126 
	C388.161194,415.262115 393.405212,412.424133 398.848358,409.309601 
	C399.047516,409.033020 399.010529,408.995483 399.289062,408.960236 
	C400.056732,408.617645 400.545868,408.310333 401.035004,408.002991 
	C401.035004,408.002991 400.991608,407.985352 401.255157,407.933868 
	C401.975952,407.589294 402.433197,407.296204 402.890442,407.003113 
	C411.689514,399.118988 420.488556,391.234863 429.568298,383.184937 
	C432.824341,386.103821 435.799713,389.188538 438.902679,392.578369 
z"/>
<path fill="#DCDBFD" opacity="1.000000" stroke="none" 
	d="
M260.934906,236.277039 
	C254.516632,245.412796 248.098373,254.548538 240.945099,263.845154 
	C236.462509,264.009583 232.714920,264.013153 228.504883,263.956055 
	C223.046631,263.877747 218.047211,263.731476 213.055847,263.871735 
	C205.016129,264.097656 199.622101,268.801544 199.424347,276.802429 
	C199.062332,291.448486 199.121704,306.114655 199.433685,320.763275 
	C199.572403,327.276733 203.414764,332.200836 209.264816,332.955078 
	C215.254745,333.727356 221.424881,333.101868 227.686127,333.366180 
	C228.925888,333.682312 229.995621,333.720459 231.065369,333.758606 
	C233.040176,340.499512 235.014969,347.240448 236.574066,354.389954 
	C233.769150,354.833313 231.379959,354.868073 228.524780,354.904846 
	C223.562943,354.919312 219.059937,355.099518 214.572647,354.909393 
	C205.150162,354.510101 199.396622,359.570892 199.275269,369.104675 
	C199.101425,382.761993 199.104553,396.424683 199.274002,410.082092 
	C199.388412,419.304382 204.718948,424.475098 214.024414,424.719208 
	C218.681442,424.841370 223.346741,424.648956 228.422409,424.687408 
	C232.496796,424.654755 236.156815,424.438263 239.817383,424.428833 
	C255.481079,424.388367 271.145111,424.366638 286.808655,424.430115 
	C292.322815,424.452454 297.007507,423.028046 300.010925,418.011780 
	C306.813873,419.961334 313.616821,421.910858 320.799316,423.999207 
	C320.946075,437.867554 314.901398,443.880707 301.251068,443.882111 
	C224.515274,443.889923 147.779480,443.867218 71.043732,443.921722 
	C65.126846,443.925934 59.819511,442.773376 55.354458,438.101593 
	C53.815639,433.370056 51.484936,428.811584 51.477364,424.249237 
	C51.278137,304.168304 51.339638,184.086960 51.265148,64.005737 
	C51.260952,57.237778 53.160717,51.603252 58.638092,46.982128 
	C63.581646,45.966080 68.287758,44.529034 72.996529,44.520252 
	C148.437607,44.379536 223.879028,44.420891 299.320374,44.422207 
	C300.819153,44.422234 302.320190,44.388954 303.816345,44.456219 
	C314.887512,44.953945 321.104126,51.458401 321.128021,62.743359 
	C321.174896,84.892708 321.142578,107.042221 321.144409,129.191666 
	C321.146454,153.839111 321.150116,178.486557 321.165283,203.610153 
	C314.776367,205.951035 308.375244,207.815765 301.668579,209.364899 
	C303.979004,191.417908 294.234955,176.182648 276.707581,170.913239 
	C257.519989,166.438156 239.251038,177.637466 235.222885,195.917252 
	C231.182022,214.254745 242.514603,232.043350 260.934906,236.277039 
M113.805771,171.341293 
	C112.712296,170.951157 111.648209,170.397797 110.521034,170.194946 
	C86.969292,165.956207 66.687447,186.612411 71.257729,210.150925 
	C75.046036,229.662003 97.066330,242.460785 114.948196,235.098740 
	C128.211884,230.832809 137.405640,218.771576 137.954697,204.916687 
	C138.565613,189.500000 127.878548,174.500961 113.805771,171.341293 
M193.268707,170.574966 
	C189.147720,170.379318 184.952682,169.591980 180.919388,170.096848 
	C167.810196,171.737839 158.434830,178.883682 153.642776,191.167999 
	C148.607498,204.075790 150.930786,216.156357 160.379990,226.261871 
	C169.484177,235.998413 180.907074,239.146149 194.701889,235.923447 
	C196.126480,235.474808 197.589340,235.120895 198.969711,234.562866 
	C212.603958,229.051010 221.305649,214.743011 219.832153,200.321869 
	C218.336029,185.679230 207.607605,173.509079 193.268707,170.574966 
M99.095680,354.693787 
	C94.263206,354.676147 89.424171,354.489868 84.599693,354.677673 
	C75.846024,355.018372 70.858002,359.696259 70.700928,368.324188 
	C70.443115,382.485596 70.449364,396.658051 70.690613,410.819946 
	C70.837326,419.432526 75.898659,424.342987 84.492989,424.703522 
	C89.311157,424.905701 94.149178,424.634796 99.809105,424.761505 
	C103.632004,424.648132 107.454674,424.446625 111.277840,424.436798 
	C127.089386,424.396179 142.901840,424.505615 158.712402,424.373657 
	C167.577606,424.299683 172.906403,419.385803 172.991409,411.162750 
	C173.141037,396.684235 173.145264,382.201691 172.977997,367.723511 
	C172.892624,360.333984 167.758560,355.017487 160.396484,354.951447 
	C140.270309,354.770782 120.141388,354.895020 99.095680,354.693787 
M99.079910,263.863251 
	C94.267715,263.848846 89.452805,263.724792 84.643921,263.844025 
	C75.949692,264.059570 70.887650,268.694427 70.728661,277.304749 
	C70.465233,291.571381 70.467049,305.849518 70.715622,320.116547 
	C70.863327,328.594330 76.083733,333.519012 84.602486,333.813110 
	C89.406303,333.978943 94.222832,333.777069 99.953690,333.906830 
	C111.093872,333.826324 122.233955,333.724915 133.374268,333.672089 
	C141.855637,333.631866 150.341324,333.814392 158.817703,333.602173 
	C167.385330,333.387665 172.855270,328.474731 172.959167,320.684265 
	C173.154327,306.052246 173.138535,291.414154 172.956680,276.781769 
	C172.864838,269.392334 167.670837,264.076752 160.350891,264.020630 
	C140.238007,263.866394 120.122917,263.997375 99.079910,263.863251 
M99.058121,63.874184 
	C94.075020,63.865726 89.088440,63.734818 84.109619,63.876640 
	C76.024284,64.106949 70.892029,68.743988 70.758507,76.846298 
	C70.479378,93.784142 70.478264,110.733353 70.769791,127.670883 
	C70.909508,135.787857 76.382507,140.646194 84.623535,140.853668 
	C89.435387,140.974792 94.254425,140.810059 99.988846,140.919037 
	C103.318153,140.834549 106.647453,140.677307 109.976776,140.676437 
	C168.281601,140.661285 226.586411,140.670868 284.891235,140.660690 
	C297.500977,140.658493 301.931732,136.160767 301.936646,123.441727 
	C301.942139,109.281982 301.942780,95.122238 301.936310,80.962494 
	C301.930511,68.225105 297.600250,63.883945 284.869019,63.882832 
	C226.231018,63.877697 167.593033,63.878426 108.955040,63.886387 
	C105.964195,63.886791 102.973373,63.973766 99.058121,63.874184 
z"/>
<path fill="#DEDDFE" opacity="1.000000" stroke="none" 
	d="
M345.840668,233.963135 
	C387.322815,236.155441 420.012604,269.863708 421.355560,311.358948 
	C422.688934,352.558868 392.409943,388.133972 351.729218,393.163574 
	C307.666748,398.611298 266.970093,367.464508 262.073242,324.546265 
	C256.874451,278.981812 287.952026,239.287094 332.883392,234.238983 
	C337.002625,233.776169 341.201752,234.024887 345.840668,233.963135 
M328.605072,340.992401 
	C331.710205,340.334412 335.797546,340.711853 337.760498,338.849792 
	C350.179932,327.068481 362.227325,314.887054 374.174255,302.620239 
	C377.840149,298.856201 377.419617,293.538849 373.980591,290.017273 
	C370.340668,286.289948 365.087952,285.982269 361.002350,289.758942 
	C355.755829,294.608826 350.784760,299.760468 345.768799,304.854767 
	C341.141296,309.554535 336.611298,314.350281 331.324585,319.845764 
	C327.062653,315.208038 323.677368,311.068146 319.807922,307.445374 
	C316.133759,304.005432 311.134430,304.260468 307.565155,307.424133 
	C304.062378,310.528870 302.979370,316.130005 306.211761,319.545746 
	C313.159027,326.887115 320.641357,333.722168 328.605072,340.992401 
z"/>
<path fill="#FCB73F" opacity="1.000000" stroke="none" 
	d="
M277.093964,171.103455 
	C294.234955,176.182648 303.979004,191.417908 301.321106,209.442444 
	C299.354462,210.669052 297.429718,211.502533 294.962952,212.657776 
	C293.927582,213.314972 293.434204,213.650391 292.940796,213.985809 
	C292.940796,213.985794 293.003662,214.009262 292.705048,213.994019 
	C291.917908,214.312851 291.429382,214.646896 290.940887,214.980957 
	C290.940887,214.980957 291.016754,214.911301 290.987549,214.868958 
	C283.234955,219.818588 275.511536,224.810593 267.291168,229.652481 
	C266.015198,228.645844 265.245178,227.780945 264.455872,226.933990 
	C250.844833,212.328369 251.748535,190.890488 266.747833,177.869492 
	C269.830933,175.192993 273.626678,173.337418 277.093964,171.103455 
z"/>
<path fill="#AC614C" opacity="1.000000" stroke="none" 
	d="
M400.754211,408.078400 
	C400.545868,408.310333 400.056732,408.617645 399.280609,408.984528 
	C399.486877,408.747314 399.980133,408.450562 400.754211,408.078400 
z"/>
<path fill="#AC614C" opacity="1.000000" stroke="none" 
	d="
M402.631409,407.086639 
	C402.433197,407.296204 401.975952,407.589294 401.252594,407.957153 
	C401.448425,407.744659 401.910370,407.457397 402.631409,407.086639 
z"/>
<path fill="#AC614C" opacity="1.000000" stroke="none" 
	d="
M293.227112,213.892731 
	C293.434204,213.650391 293.927582,213.314972 294.717865,212.892792 
	C294.514313,213.137238 294.013885,213.468445 293.227112,213.892731 
z"/>
<path fill="#AC614C" opacity="1.000000" stroke="none" 
	d="
M291.225464,214.906494 
	C291.429382,214.646896 291.917908,214.312851 292.713440,213.961563 
	C292.516998,214.240234 292.013519,214.536133 291.225464,214.906494 
z"/>
<path fill="#322F4C" opacity="1.000000" stroke="none" 
	d="
M151.588577,475.867493 
	C144.958450,474.274567 142.497482,471.438232 143.011307,466.459900 
	C143.507355,461.653748 146.826523,459.058258 153.107300,459.038788 
	C175.246033,458.970215 197.385178,458.974091 219.523941,459.034851 
	C225.735641,459.051910 229.873138,462.592285 229.835098,467.502075 
	C229.796936,472.428253 225.681625,475.884827 219.440399,475.897980 
	C196.968781,475.945312 174.496948,475.901917 151.588577,475.867493 
z"/>
<path fill="#FCB73E" opacity="1.000000" stroke="none" 
	d="
M299.722870,417.810760 
	C297.007507,423.028046 292.322815,424.452454 286.808655,424.430115 
	C271.145111,424.366638 255.481079,424.388367 239.817383,424.428833 
	C236.156815,424.438263 232.496796,424.654755 228.252075,424.424225 
	C221.084656,419.537048 219.444275,413.203522 219.798309,405.464233 
	C220.313980,394.191040 220.234085,382.865814 219.826111,371.583832 
	C219.548752,363.914490 222.076065,358.346100 228.990753,354.902802 
	C231.379959,354.868073 233.769150,354.833313 236.610001,354.760529 
	C242.833923,367.345917 249.679855,379.278961 259.164185,389.556793 
	C270.530945,401.874634 284.077423,411.034912 299.722870,417.810760 
z"/>
<path fill="#E88023" opacity="1.000000" stroke="none" 
	d="
M276.707581,170.913239 
	C273.626678,173.337418 269.830933,175.192993 266.747833,177.869492 
	C251.748535,190.890488 250.844833,212.328369 264.455872,226.933990 
	C265.245178,227.780945 266.015198,228.645844 266.989868,229.792953 
	C265.285126,232.012299 263.384735,233.941071 261.209625,236.073456 
	C242.514603,232.043350 231.182022,214.254745 235.222885,195.917252 
	C239.251038,177.637466 257.519989,166.438156 276.707581,170.913239 
z"/>
<path fill="#65B8FE" opacity="1.000000" stroke="none" 
	d="
M231.087769,333.334717 
	C229.995621,333.720459 228.925888,333.682312 227.443390,333.094452 
	C221.625610,328.806580 219.605637,323.749329 219.815292,317.127197 
	C220.194061,305.162964 220.246552,293.166168 219.806412,281.206116 
	C219.518936,273.394623 221.790451,267.554565 228.967346,264.016724 
	C232.714920,264.013153 236.462509,264.009583 240.677902,264.059204 
	C236.193451,275.710297 231.442444,287.484131 230.785995,300.181030 
	C230.223709,311.056305 230.952423,321.998322 231.087769,333.334717 
z"/>
<path fill="#47CC6C" opacity="1.000000" stroke="none" 
	d="
M99.982536,64.020432 
	C102.973373,63.973766 105.964195,63.886791 108.955040,63.886387 
	C167.593033,63.878426 226.231018,63.877697 284.869019,63.882832 
	C297.600250,63.883945 301.930511,68.225105 301.936310,80.962494 
	C301.942780,95.122238 301.942139,109.281982 301.936646,123.441727 
	C301.931732,136.160767 297.500977,140.658493 284.891235,140.660690 
	C226.586411,140.670868 168.281601,140.661285 109.976776,140.676437 
	C106.647453,140.677307 103.318153,140.834549 99.360291,140.568268 
	C92.278839,135.603745 90.593918,129.279648 90.865585,121.553207 
	C91.337509,108.130943 91.309761,94.670044 90.877190,81.245132 
	C90.625900,73.446136 92.906906,67.631599 99.982536,64.020432 
z"/>
<path fill="#47CC6C" opacity="1.000000" stroke="none" 
	d="
M100.008698,264.015442 
	C120.122917,263.997375 140.238007,263.866394 160.350891,264.020630 
	C167.670837,264.076752 172.864838,269.392334 172.956680,276.781769 
	C173.138535,291.414154 173.154327,306.052246 172.959167,320.684265 
	C172.855270,328.474731 167.385330,333.387665 158.817703,333.602173 
	C150.341324,333.814392 141.855637,333.631866 133.374268,333.672089 
	C122.233955,333.724915 111.093872,333.826324 99.331573,333.545044 
	C92.067909,328.440247 90.529526,321.866180 90.875320,314.029968 
	C91.357216,303.109619 91.342537,292.137512 90.880348,281.215485 
	C90.549469,273.396454 92.974022,267.634674 100.008698,264.015442 
z"/>
<path fill="#E83D62" opacity="1.000000" stroke="none" 
	d="
M100.013557,354.898499 
	C120.141388,354.895020 140.270309,354.770782 160.396484,354.951447 
	C167.758560,355.017487 172.892624,360.333984 172.977997,367.723511 
	C173.145264,382.201691 173.141037,396.684235 172.991409,411.162750 
	C172.906403,419.385803 167.577606,424.299683 158.712402,424.373657 
	C142.901840,424.505615 127.089386,424.396179 111.277840,424.436798 
	C107.454674,424.446625 103.632004,424.648132 99.232513,424.404602 
	C92.219574,419.424866 90.534195,413.080811 90.878799,405.390503 
	C91.360115,394.649323 91.361000,383.854309 90.881752,373.112946 
	C90.522209,365.054626 92.643524,358.807312 100.013557,354.898499 
z"/>
<path fill="#E83E63" opacity="1.000000" stroke="none" 
	d="
M193.987381,171.003998 
	C207.607605,173.509079 218.336029,185.679230 219.832153,200.321869 
	C221.305649,214.743011 212.603958,229.051010 198.969711,234.562866 
	C197.589340,235.120895 196.126480,235.474808 194.078873,235.687469 
	C192.300659,234.792633 191.165146,234.096130 189.987335,233.480576 
	C169.685547,222.870178 166.703278,197.947006 178.241272,183.589706 
	C182.349350,178.477829 188.674347,175.147537 193.987381,171.003998 
z"/>
<path fill="#65B9FF" opacity="1.000000" stroke="none" 
	d="
M114.417130,171.882309 
	C127.878548,174.500961 138.565613,189.500000 137.954697,204.916687 
	C137.405640,218.771576 128.211884,230.832809 114.212639,235.038239 
	C105.594131,232.277649 99.608139,227.313126 95.386780,220.112900 
	C84.616844,201.742996 94.787552,175.902695 114.417130,171.882309 
z"/>
<path fill="#189C5F" opacity="1.000000" stroke="none" 
	d="
M99.520325,63.947308 
	C92.906906,67.631599 90.625900,73.446136 90.877190,81.245132 
	C91.309761,94.670044 91.337509,108.130943 90.865585,121.553207 
	C90.593918,129.279648 92.278839,135.603745 98.900986,140.495728 
	C94.254425,140.810059 89.435387,140.974792 84.623535,140.853668 
	C76.382507,140.646194 70.909508,135.787857 70.769791,127.670883 
	C70.478264,110.733353 70.479378,93.784142 70.758507,76.846298 
	C70.892029,68.743988 76.024284,64.106949 84.109619,63.876640 
	C89.088440,63.734818 94.075020,63.865726 99.520325,63.947308 
z"/>
<path fill="#E88124" opacity="1.000000" stroke="none" 
	d="
M228.524780,354.904846 
	C222.076065,358.346100 219.548752,363.914490 219.826111,371.583832 
	C220.234085,382.865814 220.313980,394.191040 219.798309,405.464233 
	C219.444275,413.203522 221.084656,419.537048 227.837967,424.335632 
	C223.346741,424.648956 218.681442,424.841370 214.024414,424.719208 
	C204.718948,424.475098 199.388412,419.304382 199.274002,410.082092 
	C199.104553,396.424683 199.101425,382.761993 199.275269,369.104675 
	C199.396622,359.570892 205.150162,354.510101 214.572647,354.909393 
	C219.059937,355.099518 223.562943,354.919312 228.524780,354.904846 
z"/>
<path fill="#4181FF" opacity="1.000000" stroke="none" 
	d="
M228.504883,263.956055 
	C221.790451,267.554565 219.518936,273.394623 219.806412,281.206116 
	C220.246552,293.166168 220.194061,305.162964 219.815292,317.127197 
	C219.605637,323.749329 221.625610,328.806580 227.273392,332.816467 
	C221.424881,333.101868 215.254745,333.727356 209.264816,332.955078 
	C203.414764,332.200836 199.572403,327.276733 199.433685,320.763275 
	C199.121704,306.114655 199.062332,291.448486 199.424347,276.802429 
	C199.622101,268.801544 205.016129,264.097656 213.055847,263.871735 
	C218.047211,263.731476 223.046631,263.877747 228.504883,263.956055 
z"/>
<path fill="#189C5F" opacity="1.000000" stroke="none" 
	d="
M99.544304,263.939331 
	C92.974022,267.634674 90.549469,273.396454 90.880348,281.215485 
	C91.342537,292.137512 91.357216,303.109619 90.875320,314.029968 
	C90.529526,321.866180 92.067909,328.440247 98.871552,333.462036 
	C94.222832,333.777069 89.406303,333.978943 84.602486,333.813110 
	C76.083733,333.519012 70.863327,328.594330 70.715622,320.116547 
	C70.467049,305.849518 70.465233,291.571381 70.728661,277.304749 
	C70.887650,268.694427 75.949692,264.059570 84.643921,263.844025 
	C89.452805,263.724792 94.267715,263.848846 99.544304,263.939331 
z"/>
<path fill="#CE2A55" opacity="1.000000" stroke="none" 
	d="
M99.554619,354.796143 
	C92.643524,358.807312 90.522209,365.054626 90.881752,373.112946 
	C91.361000,383.854309 91.360115,394.649323 90.878799,405.390503 
	C90.534195,413.080811 92.219574,419.424866 98.817093,424.312378 
	C94.149178,424.634796 89.311157,424.905701 84.492989,424.703522 
	C75.898659,424.342987 70.837326,419.432526 70.690613,410.819946 
	C70.449364,396.658051 70.443115,382.485596 70.700928,368.324188 
	C70.858002,359.696259 75.846024,355.018372 84.599693,354.677673 
	C89.424171,354.489868 94.263206,354.676147 99.554619,354.796143 
z"/>
<path fill="#CE2B57" opacity="1.000000" stroke="none" 
	d="
M193.628052,170.789490 
	C188.674347,175.147537 182.349350,178.477829 178.241272,183.589706 
	C166.703278,197.947006 169.685547,222.870178 189.987335,233.480576 
	C191.165146,234.096130 192.300659,234.792633 193.704437,235.672363 
	C180.907074,239.146149 169.484177,235.998413 160.379990,226.261871 
	C150.930786,216.156357 148.607498,204.075790 153.642776,191.167999 
	C158.434830,178.883682 167.810196,171.737839 180.919388,170.096848 
	C184.952682,169.591980 189.147720,170.379318 193.628052,170.789490 
z"/>
<path fill="#3F80FF" opacity="1.000000" stroke="none" 
	d="
M114.111450,171.611801 
	C94.787552,175.902695 84.616844,201.742996 95.386780,220.112900 
	C99.608139,227.313126 105.594131,232.277649 113.847946,235.049408 
	C97.066330,242.460785 75.046036,229.662003 71.257729,210.150925 
	C66.687447,186.612411 86.969292,165.956207 110.521034,170.194946 
	C111.648209,170.397797 112.712296,170.951157 114.111450,171.611801 
z"/>
<path fill="#5E618D" opacity="1.000000" stroke="none" 
	d="
M328.254852,340.878418 
	C320.641357,333.722168 313.159027,326.887115 306.211761,319.545746 
	C302.979370,316.130005 304.062378,310.528870 307.565155,307.424133 
	C311.134430,304.260468 316.133759,304.005432 319.807922,307.445374 
	C323.677368,311.068146 327.062653,315.208038 331.324585,319.845764 
	C336.611298,314.350281 341.141296,309.554535 345.768799,304.854767 
	C350.784760,299.760468 355.755829,294.608826 361.002350,289.758942 
	C365.087952,285.982269 370.340668,286.289948 373.980591,290.017273 
	C377.419617,293.538849 377.840149,298.856201 374.174255,302.620239 
	C362.227325,314.887054 350.179932,327.068481 337.760498,338.849792 
	C335.797546,340.711853 331.710205,340.334412 328.254852,340.878418 
z"/>
</svg>