<svg version="1.1" id="Layer_1" xmlns="http://www.w3.org/2000/svg" xmlns:xlink="http://www.w3.org/1999/xlink" x="0px" y="0px"
	 width="100%" viewBox="0 0 512 512" enable-background="new 0 0 512 512" xml:space="preserve">
<path fill="#FDFDFD" opacity="1.000000" stroke="none" 
	d="
M513.000000,255.000000 
	C513.000000,256.389008 513.000000,257.777985 512.722656,259.297333 
	C511.330109,260.414917 510.159180,261.346497 509.107788,262.397675 
	C488.379211,283.121735 467.704865,303.900360 446.887970,324.535187 
	C444.672363,326.731445 443.937927,328.876343 443.945709,331.883698 
	C444.036499,367.025818 444.003845,402.168304 444.003845,437.310669 
	C444.003845,439.092773 444.003845,440.874878 444.003845,443.003845 
	C441.952850,443.003845 440.321808,443.003845 438.690796,443.003845 
	C402.882233,443.003845 367.073425,442.958160 331.265594,443.117493 
	C329.122101,443.127014 326.477661,444.250153 324.928986,445.747375 
	C314.992950,455.353088 305.361115,465.272308 295.507446,474.964630 
	C283.798523,486.481720 271.948425,497.855225 260.222412,509.355103 
	C259.237488,510.321136 258.729553,511.773560 258.000000,513.000000 
	C257.555664,513.000000 257.111328,513.000000 256.619629,512.722717 
	C256.169739,511.921356 255.822998,511.340637 255.356689,510.881287 
	C232.992416,488.848846 210.649353,466.794495 188.162018,444.888245 
	C186.876495,443.635956 184.403839,443.086395 182.481079,443.080627 
	C147.520462,442.975403 112.559441,443.003845 77.598511,443.003845 
	C75.825584,443.003845 74.052658,443.003845 71.996117,443.003845 
	C71.996117,440.871490 71.996101,439.237976 71.996101,437.604462 
	C71.996109,402.643524 72.022400,367.682526 71.926071,332.721832 
	C71.920708,330.774017 71.511551,328.217407 70.264008,326.973480 
	C47.915874,304.689880 25.412930,282.561462 2.905144,260.438507 
	C2.509063,260.049194 1.645452,260.135590 1.000000,260.000000 
	C1.000000,258.610992 1.000000,257.222015 1.277313,255.702637 
	C2.078968,255.169434 2.652853,254.816910 3.120516,254.356491 
	C25.147528,232.671280 47.208408,211.019928 69.095772,189.194565 
	C70.706871,187.588013 71.864494,184.722580 71.875542,182.435852 
	C72.047806,146.794403 71.996117,111.151894 71.996109,75.509628 
	C71.996109,73.744621 71.996117,71.979607 71.996117,69.996117 
	C74.200050,69.996117 75.844513,69.996109 77.488968,69.996109 
	C113.797447,69.996109 150.106094,70.037697 186.413986,69.892906 
	C188.594818,69.884209 191.355606,68.980324 192.859116,67.494087 
	C214.059067,46.537693 235.096405,25.416641 256.126556,4.289139 
	C256.985535,3.426188 257.385956,2.106753 258.000000,0.999999 
	C258.444336,1.000000 258.888672,1.000000 259.380341,1.277308 
	C267.862457,10.445581 276.167969,19.463766 284.762085,28.197964 
	C297.965790,41.616924 311.300903,54.909344 324.772522,68.058456 
	C326.413574,69.660233 329.237061,70.862984 331.519196,70.874008 
	C367.508026,71.047890 403.497955,70.996109 439.487610,70.996109 
	C441.253418,70.996109 443.019196,70.996117 445.003845,70.996117 
	C445.003845,73.200233 445.003845,74.845314 445.003845,76.490387 
	C445.003845,112.480064 444.961365,148.469910 445.108673,184.458984 
	C445.117554,186.635223 446.051727,189.383545 447.541595,190.891006 
	C468.152802,211.746078 488.927979,232.439255 509.709686,253.125183 
	C510.573059,253.984589 511.892822,254.385498 513.000000,255.000000 
M33.821404,273.677246 
	C46.348820,286.022003 58.876236,298.366730 72.335953,311.630188 
	C72.335953,298.329620 72.335953,286.288483 72.335953,273.762238 
	C74.873390,273.762238 76.838356,273.762207 78.803314,273.762207 
	C120.967789,273.762207 163.132309,273.785004 205.296600,273.697144 
	C207.477890,273.692596 210.264481,273.420624 211.727951,272.110229 
	C216.909088,267.470978 221.637634,262.326324 226.701935,257.207214 
	C221.751816,252.223206 216.715179,247.387863 211.973969,242.278397 
	C209.623428,239.745255 207.134918,238.880402 203.693588,238.890060 
	C161.862762,239.007462 120.031487,238.966248 78.200333,238.966232 
	C76.415848,238.966232 74.631371,238.966232 72.073761,238.966232 
	C72.073761,227.020966 72.073761,215.567322 72.073761,204.113693 
	C71.577698,203.892197 71.081635,203.670685 70.585571,203.449173 
	C53.125607,221.669052 35.665642,239.888947 18.486807,257.815460 
	C23.140133,262.635040 28.230154,267.906921 33.821404,273.677246 
M241.212418,187.499802 
	C241.212479,193.496094 241.155045,199.493347 241.254684,205.487976 
	C241.278412,206.914886 241.356354,208.778839 242.211609,209.682495 
	C247.533630,215.305710 253.083923,220.712891 258.744476,226.377838 
	C263.362671,221.733093 267.433563,217.328949 271.850800,213.305023 
	C274.797333,210.620850 275.906281,207.727127 275.893250,203.716980 
	C275.757812,161.910538 275.809784,120.103470 275.809784,78.296577 
	C275.809784,76.347740 275.809784,74.398911 275.809784,71.924072 
	C287.702362,71.924072 299.068268,71.924072 311.315063,71.924072 
	C292.959900,54.153961 275.328613,37.084660 258.629456,20.917797 
	C242.376434,36.906235 225.149170,53.853054 207.588745,71.127594 
	C218.777939,71.127594 229.829208,71.127594 241.212631,71.127594 
	C241.212631,109.929726 241.212631,148.214813 241.212418,187.499802 
M441.388062,273.703125 
	C441.940369,275.354462 442.948486,276.999603 442.970917,278.658112 
	C443.115601,289.361298 443.044922,300.067383 443.044922,310.276276 
	C461.070496,292.650513 478.992523,275.126068 496.337982,258.165375 
	C478.628143,240.720169 461.086670,223.440781 443.697754,206.311676 
	C443.697754,216.972626 443.697754,228.371063 443.697754,239.923721 
	C441.437347,239.923721 439.615387,239.923737 437.793427,239.923737 
	C395.995300,239.923737 354.197113,239.903519 312.399139,239.985718 
	C310.393280,239.989655 307.868164,240.291672 306.475494,241.489975 
	C300.813080,246.362137 295.498230,251.638214 289.384521,257.397156 
	C294.527435,262.282227 299.034912,266.236298 303.128357,270.580536 
	C305.413849,273.006042 307.809143,273.737335 311.014526,273.731293 
	C354.144714,273.649963 397.275116,273.678497 441.388062,273.703125 
M275.071716,406.500000 
	C275.071716,374.694550 275.091553,342.889099 275.021729,311.083801 
	C275.017609,309.203705 274.897400,306.797943 273.798553,305.536316 
	C268.786896,299.782593 263.406036,294.350433 256.803345,287.370789 
	C252.322327,292.510254 248.818771,296.968201 244.832703,300.942169 
	C242.278473,303.488586 241.146408,306.006134 241.157089,309.667603 
	C241.280579,351.963501 241.239212,394.259888 241.225220,436.556152 
	C241.224594,438.469299 241.067596,440.382385 240.954498,442.953094 
	C228.457764,442.953094 216.504456,442.953094 206.841736,442.953094 
	C223.052292,459.937256 240.026031,477.721008 257.531067,496.061401 
	C274.885315,477.900116 291.830200,460.167206 308.671967,442.542236 
	C298.174164,442.542236 286.804352,442.542236 275.071777,442.542236 
	C275.071777,430.435242 275.071777,418.967621 275.071716,406.500000 
M84.118141,82.854866 
	C84.012207,83.842010 83.814262,84.829102 83.813713,85.816307 
	C83.797623,114.640701 83.799271,143.465103 83.812759,172.289505 
	C83.813103,173.021011 83.978317,173.752457 84.156898,175.231583 
	C97.141106,162.503464 109.544464,150.344757 122.038132,138.097504 
	C123.676460,139.633926 124.786392,140.631042 125.848228,141.677002 
	C153.860046,169.270355 181.856995,196.878845 209.904800,224.435577 
	C211.264847,225.771805 212.995285,227.461990 214.672394,227.606720 
	C219.590408,228.031097 224.568619,227.757843 229.724777,227.757843 
	C230.481857,219.584183 230.216721,213.156876 223.630173,206.776642 
	C196.468887,180.466110 170.088303,153.350052 143.359222,126.591553 
	C142.089661,125.320602 140.232559,124.636566 137.610291,123.051155 
	C152.245193,108.725037 165.385803,95.861687 179.268936,82.271484 
	C147.016663,82.271484 115.939461,82.271484 84.118141,82.854866 
M432.869781,105.500061 
	C432.869781,98.085251 432.869781,90.670448 432.869781,83.385086 
	C401.345215,83.385086 370.648102,83.385086 339.951019,83.385086 
	C339.604584,83.831734 339.258148,84.278374 338.911713,84.725021 
	C351.799652,97.308304 364.687622,109.891586 377.650909,122.548409 
	C376.294739,123.966835 375.282135,125.062897 374.230652,126.120331 
	C347.098846,153.406235 320.239807,180.973419 292.630280,207.767212 
	C285.849884,214.347275 287.149841,221.011093 287.239502,228.694550 
	C290.242889,228.694550 292.758606,228.420456 295.192688,228.749786 
	C300.805878,229.509262 304.714539,227.354996 308.680359,223.314178 
	C335.516083,195.970947 362.629089,168.899963 389.616608,141.705414 
	C390.889893,140.422333 391.823669,138.802368 393.623871,136.390259 
	C407.241547,149.957138 419.970947,162.639023 432.869720,175.489670 
	C432.869720,152.415222 432.869720,129.457626 432.869781,105.500061 
M329.339233,344.161682 
	C345.168488,360.578217 360.997711,376.994781 377.498383,394.107697 
	C365.871246,405.808502 353.300537,418.458893 341.045654,430.791443 
	C370.867188,430.791443 401.222534,430.791443 431.466553,430.791443 
	C431.466553,400.418488 431.466553,370.466583 431.466553,339.036774 
	C418.152527,352.274750 405.795807,364.560883 392.855194,377.427612 
	C391.797577,376.101349 390.777100,374.544464 389.491821,373.250641 
	C361.317413,344.887909 333.124298,316.543732 304.882263,288.248383 
	C303.549438,286.913025 301.808350,285.299286 300.126251,285.131714 
	C295.721100,284.692871 291.243317,284.983704 286.272522,284.983704 
	C286.272522,288.626556 286.541687,291.781311 286.210693,294.871765 
	C285.688507,299.747620 287.421295,303.220764 290.984802,306.614197 
	C303.769257,318.788605 316.244873,331.287323 329.339233,344.161682 
M103.941895,358.558380 
	C97.525322,352.246887 91.108757,345.935364 84.122353,339.063354 
	C84.122353,370.483185 84.122353,400.685669 84.122353,430.810791 
	C114.444061,430.810791 144.429901,430.810791 174.178619,430.810791 
	C161.691391,417.861633 149.268738,404.979462 136.178940,391.405457 
	C137.259125,390.608582 138.746689,389.763855 139.925201,388.604828 
	C167.825119,361.166321 195.416656,333.404907 223.759506,306.432739 
	C230.771179,299.760162 230.358612,292.955139 229.619461,284.966187 
	C227.144714,284.966187 224.955750,285.200317 222.834518,284.920685 
	C217.286240,284.189331 213.322220,286.183075 209.330490,290.235596 
	C192.388428,307.435608 175.058121,324.253448 157.855133,341.196198 
	C146.019058,352.853210 134.159149,364.485992 121.280586,377.141083 
	C115.521469,370.955627 109.982300,365.006409 103.941895,358.558380 
M155.094818,395.245300 
	C166.368484,406.336334 177.623764,417.446198 188.944397,428.489044 
	C190.069366,429.586426 191.580811,431.016296 192.933105,431.038086 
	C205.184479,431.235596 217.440353,431.153809 229.671143,431.153809 
	C229.671143,392.643738 229.671143,354.684540 229.671143,316.086548 
	C203.577805,341.783600 177.990707,366.982086 152.336731,392.246460 
	C153.244476,393.263062 153.902298,393.999786 155.094818,395.245300 
M413.872101,341.372437 
	C419.045258,336.177551 424.248901,331.012421 429.365326,325.762238 
	C430.367462,324.733948 431.726685,323.386292 431.744171,322.168976 
	C431.920593,309.902191 431.851654,297.631927 431.851654,285.307068 
	C393.756958,285.307068 356.252563,285.307068 318.138977,285.307068 
	C343.851532,310.628357 369.086884,335.479736 394.525848,360.531586 
	C400.398071,354.719116 406.886230,348.296936 413.872101,341.372437 
M185.561676,298.062042 
	C189.809372,294.036957 194.057068,290.011871 199.032211,285.297485 
	C159.679016,285.297485 121.837189,285.297485 83.793678,285.297485 
	C83.793678,297.264404 83.687210,308.904999 83.911972,320.539215 
	C83.944542,322.225220 85.234215,324.206390 86.505257,325.495941 
	C93.513527,332.606415 100.762314,339.479370 107.796516,346.564941 
	C112.448570,351.250946 116.878662,356.157318 121.554436,361.120361 
	C143.348083,339.651031 164.203903,319.105560 185.561676,298.062042 
M296.126160,327.372253 
	C293.541748,324.179138 290.957367,320.986023 288.372986,317.792877 
	C287.787659,318.271271 287.202362,318.749664 286.617035,319.228058 
	C286.617035,356.414459 286.617035,393.600861 286.617035,431.213531 
	C293.083862,431.213531 299.324677,430.517883 305.351196,431.358521 
	C317.862274,433.103729 327.169495,429.030151 335.238403,419.267975 
	C343.241150,409.585876 352.598907,401.023773 361.577087,391.748596 
	C340.098083,370.622375 318.364288,349.245605 296.126160,327.372253 
M380.946960,166.447113 
	C360.624481,186.868896 340.302002,207.290695 319.364502,228.330505 
	C357.904724,228.330505 395.229523,228.330505 432.872620,228.330505 
	C432.872620,217.664398 433.070038,207.356842 432.729614,197.067078 
	C432.647644,194.588974 431.353271,191.632965 429.641144,189.815536 
	C421.769836,181.460144 413.511871,173.470490 405.478180,165.265869 
	C401.663513,161.370056 398.040009,157.287048 394.081116,153.020752 
	C389.346985,157.863419 385.396362,161.904633 380.946960,166.447113 
M230.027740,84.772713 
	C230.261169,81.431404 227.797867,82.144676 225.942032,82.136948 
	C216.953949,82.099518 207.959488,81.941620 198.981735,82.248573 
	C196.802444,82.323082 194.175781,83.483231 192.608246,85.016609 
	C181.067703,96.305679 169.737823,107.810287 158.361923,119.267189 
	C157.366608,120.269585 156.516800,121.416451 155.456299,122.664650 
	C180.477005,147.308685 205.190811,171.650452 230.032898,196.118561 
	C230.032898,159.476852 230.032898,122.601501 230.027740,84.772713 
M286.996826,89.601776 
	C286.996826,125.285545 286.996826,160.969315 286.996826,196.286285 
	C312.021637,171.658524 336.899475,147.175430 362.513519,121.967804 
	C349.591248,109.303329 336.888458,96.835495 324.140930,84.413559 
	C323.483398,83.772827 322.445953,83.156052 321.580811,83.149712 
	C310.159576,83.066002 298.737549,83.093933 286.996826,83.093933 
	C286.996826,85.354019 286.996826,86.993942 286.996826,89.601776 
M91.471359,183.978470 
	C88.923332,186.957581 84.425354,189.783829 84.177650,192.943283 
	C83.285728,204.319443 83.827278,215.808014 83.827278,227.295044 
	C121.499870,227.295044 158.594879,227.295044 196.700760,227.295044 
	C171.403305,202.394897 146.864883,178.241882 121.220650,153.000397 
	C111.315842,163.323105 101.645615,173.401337 91.471359,183.978470 
M284.538422,269.029938 
	C280.887726,265.450684 277.237000,261.871460 272.378052,257.107605 
	C278.466797,251.245621 284.104034,245.818298 290.215424,239.934509 
	C284.898407,239.934509 280.027039,239.934509 274.767303,239.934509 
	C274.767303,235.393585 274.767303,231.361145 274.767303,226.161896 
	C268.845154,232.339722 263.718445,237.687790 257.864594,243.794357 
	C252.490982,238.235382 247.355713,232.922974 241.943207,227.323776 
	C241.943207,231.228317 241.943207,234.956635 241.943207,239.065369 
	C236.528152,239.065369 231.480118,239.065369 225.859253,239.065369 
	C232.303986,245.453232 238.251755,251.348526 244.783203,257.822357 
	C239.426941,262.980103 234.446930,267.775574 228.876389,273.139648 
	C233.617218,273.139648 237.786346,273.139648 242.146881,273.139648 
	C242.146881,277.977905 242.146881,282.240814 242.146881,287.748688 
	C247.508545,282.221161 252.161026,277.424744 257.145233,272.286346 
	C263.200684,278.014679 268.859009,283.367371 275.140137,289.309174 
	C275.140137,283.375977 275.140137,278.305847 275.140137,272.847168 
	C279.543488,272.847168 283.583099,272.847168 287.622711,272.847168 
	C287.797302,272.526672 287.971893,272.206146 288.146515,271.885651 
	C287.110138,271.111115 286.073761,270.336578 284.538422,269.029938 
z"/>
<path fill="#94247A" opacity="1.000000" stroke="none" 
	d="
M33.570789,273.428009 
	C28.230154,267.906921 23.140133,262.635040 18.486807,257.815460 
	C35.665642,239.888947 53.125607,221.669052 70.585571,203.449173 
	C71.081635,203.670685 71.577698,203.892197 72.073761,204.113693 
	C72.073761,215.567322 72.073761,227.020966 72.073761,238.966232 
	C74.631371,238.966232 76.415848,238.966232 78.200333,238.966232 
	C120.031487,238.966248 161.862762,239.007462 203.693588,238.890060 
	C207.134918,238.880402 209.623428,239.745255 211.973969,242.278397 
	C216.715179,247.387863 221.751816,252.223206 226.701935,257.207214 
	C221.637634,262.326324 216.909088,267.470978 211.727951,272.110229 
	C210.264481,273.420624 207.477890,273.692596 205.296600,273.697144 
	C163.132309,273.785004 120.967789,273.762207 78.803314,273.762207 
	C76.838356,273.762207 74.873390,273.762238 72.335953,273.762238 
	C72.335953,286.288483 72.335953,298.329620 72.335953,311.630188 
	C58.876236,298.366730 46.348820,286.022003 33.570789,273.428009 
z"/>
<path fill="#EFA827" opacity="1.000000" stroke="none" 
	d="
M241.212524,186.999847 
	C241.212631,148.214813 241.212631,109.929726 241.212631,71.127594 
	C229.829208,71.127594 218.777939,71.127594 207.588745,71.127594 
	C225.149170,53.853054 242.376434,36.906235 258.629456,20.917797 
	C275.328613,37.084660 292.959900,54.153961 311.315063,71.924072 
	C299.068268,71.924072 287.702362,71.924072 275.809784,71.924072 
	C275.809784,74.398911 275.809784,76.347740 275.809784,78.296577 
	C275.809784,120.103470 275.757812,161.910538 275.893250,203.716980 
	C275.906281,207.727127 274.797333,210.620850 271.850800,213.305023 
	C267.433563,217.328949 263.362671,221.733093 258.744476,226.377838 
	C253.083923,220.712891 247.533630,215.305710 242.211609,209.682495 
	C241.356354,208.778839 241.278412,206.914886 241.254684,205.487976 
	C241.155045,199.493347 241.212479,193.496094 241.212524,186.999847 
z"/>
<path fill="#282778" opacity="1.000000" stroke="none" 
	d="
M440.896759,273.691467 
	C397.275116,273.678497 354.144714,273.649963 311.014526,273.731293 
	C307.809143,273.737335 305.413849,273.006042 303.128357,270.580536 
	C299.034912,266.236298 294.527435,262.282227 289.384521,257.397156 
	C295.498230,251.638214 300.813080,246.362137 306.475494,241.489975 
	C307.868164,240.291672 310.393280,239.989655 312.399139,239.985718 
	C354.197113,239.903519 395.995300,239.923737 437.793427,239.923737 
	C439.615387,239.923737 441.437347,239.923721 443.697754,239.923721 
	C443.697754,228.371063 443.697754,216.972626 443.697754,206.311676 
	C461.086670,223.440781 478.628143,240.720169 496.337982,258.165375 
	C478.992523,275.126068 461.070496,292.650513 443.044922,310.276276 
	C443.044922,300.067383 443.115601,289.361298 442.970917,278.658112 
	C442.948486,276.999603 441.940369,275.354462 440.896759,273.691467 
z"/>
<path fill="#9DCD2C" opacity="1.000000" stroke="none" 
	d="
M275.071747,407.000000 
	C275.071777,418.967621 275.071777,430.435242 275.071777,442.542236 
	C286.804352,442.542236 298.174164,442.542236 308.671967,442.542236 
	C291.830200,460.167206 274.885315,477.900116 257.531067,496.061401 
	C240.026031,477.721008 223.052292,459.937256 206.841736,442.953094 
	C216.504456,442.953094 228.457764,442.953094 240.954498,442.953094 
	C241.067596,440.382385 241.224594,438.469299 241.225220,436.556152 
	C241.239212,394.259888 241.280579,351.963501 241.157089,309.667603 
	C241.146408,306.006134 242.278473,303.488586 244.832703,300.942169 
	C248.818771,296.968201 252.322327,292.510254 256.803345,287.370789 
	C263.406036,294.350433 268.786896,299.782593 273.798553,305.536316 
	C274.897400,306.797943 275.017609,309.203705 275.021729,311.083801 
	C275.091553,342.889099 275.071716,374.694550 275.071747,407.000000 
z"/>
<path fill="#9DCD2B" opacity="1.000000" stroke="none" 
	d="
M84.490204,82.563171 
	C115.939461,82.271484 147.016663,82.271484 179.268936,82.271484 
	C165.385803,95.861687 152.245193,108.725037 137.610291,123.051155 
	C140.232559,124.636566 142.089661,125.320602 143.359222,126.591553 
	C170.088303,153.350052 196.468887,180.466110 223.630173,206.776642 
	C230.216721,213.156876 230.481857,219.584183 229.724777,227.757843 
	C224.568619,227.757843 219.590408,228.031097 214.672394,227.606720 
	C212.995285,227.461990 211.264847,225.771805 209.904800,224.435577 
	C181.856995,196.878845 153.860046,169.270355 125.848228,141.677002 
	C124.786392,140.631042 123.676460,139.633926 122.038132,138.097504 
	C109.544464,150.344757 97.141106,162.503464 84.156898,175.231583 
	C83.978317,173.752457 83.813103,173.021011 83.812759,172.289505 
	C83.799271,143.465103 83.797623,114.640701 83.813713,85.816307 
	C83.814262,84.829102 84.012207,83.842010 84.490204,82.563171 
z"/>
<path fill="#94247A" opacity="1.000000" stroke="none" 
	d="
M432.869751,106.000053 
	C432.869720,129.457626 432.869720,152.415222 432.869720,175.489670 
	C419.970947,162.639023 407.241547,149.957138 393.623871,136.390259 
	C391.823669,138.802368 390.889893,140.422333 389.616608,141.705414 
	C362.629089,168.899963 335.516083,195.970947 308.680359,223.314178 
	C304.714539,227.354996 300.805878,229.509262 295.192688,228.749786 
	C292.758606,228.420456 290.242889,228.694550 287.239502,228.694550 
	C287.149841,221.011093 285.849884,214.347275 292.630280,207.767212 
	C320.239807,180.973419 347.098846,153.406235 374.230652,126.120331 
	C375.282135,125.062897 376.294739,123.966835 377.650909,122.548409 
	C364.687622,109.891586 351.799652,97.308304 338.911713,84.725021 
	C339.258148,84.278374 339.604584,83.831734 339.951019,83.385086 
	C370.648102,83.385086 401.345215,83.385086 432.869781,83.385086 
	C432.869781,90.670448 432.869781,98.085251 432.869751,106.000053 
z"/>
<path fill="#EFA826" opacity="1.000000" stroke="none" 
	d="
M329.088257,343.912567 
	C316.244873,331.287323 303.769257,318.788605 290.984802,306.614197 
	C287.421295,303.220764 285.688507,299.747620 286.210693,294.871765 
	C286.541687,291.781311 286.272522,288.626556 286.272522,284.983704 
	C291.243317,284.983704 295.721100,284.692871 300.126251,285.131714 
	C301.808350,285.299286 303.549438,286.913025 304.882263,288.248383 
	C333.124298,316.543732 361.317413,344.887909 389.491821,373.250641 
	C390.777100,374.544464 391.797577,376.101349 392.855194,377.427612 
	C405.795807,364.560883 418.152527,352.274750 431.466553,339.036774 
	C431.466553,370.466583 431.466553,400.418488 431.466553,430.791443 
	C401.222534,430.791443 370.867188,430.791443 341.045654,430.791443 
	C353.300537,418.458893 365.871246,405.808502 377.498383,394.107697 
	C360.997711,376.994781 345.168488,360.578217 329.088257,343.912567 
z"/>
<path fill="#272678" opacity="1.000000" stroke="none" 
	d="
M104.192513,358.807800 
	C109.982300,365.006409 115.521469,370.955627 121.280586,377.141083 
	C134.159149,364.485992 146.019058,352.853210 157.855133,341.196198 
	C175.058121,324.253448 192.388428,307.435608 209.330490,290.235596 
	C213.322220,286.183075 217.286240,284.189331 222.834518,284.920685 
	C224.955750,285.200317 227.144714,284.966187 229.619461,284.966187 
	C230.358612,292.955139 230.771179,299.760162 223.759506,306.432739 
	C195.416656,333.404907 167.825119,361.166321 139.925201,388.604828 
	C138.746689,389.763855 137.259125,390.608582 136.178940,391.405457 
	C149.268738,404.979462 161.691391,417.861633 174.178619,430.810791 
	C144.429901,430.810791 114.444061,430.810791 84.122353,430.810791 
	C84.122353,400.685669 84.122353,370.483185 84.122353,339.063354 
	C91.108757,345.935364 97.525322,352.246887 104.192513,358.807800 
z"/>
<path fill="#272678" opacity="1.000000" stroke="none" 
	d="
M154.827484,394.990906 
	C153.902298,393.999786 153.244476,393.263062 152.336731,392.246460 
	C177.990707,366.982086 203.577805,341.783600 229.671143,316.086548 
	C229.671143,354.684540 229.671143,392.643738 229.671143,431.153809 
	C217.440353,431.153809 205.184479,431.235596 192.933105,431.038086 
	C191.580811,431.016296 190.069366,429.586426 188.944397,428.489044 
	C177.623764,417.446198 166.368484,406.336334 154.827484,394.990906 
z"/>
<path fill="#EFA725" opacity="1.000000" stroke="none" 
	d="
M413.623230,341.623596 
	C406.886230,348.296936 400.398071,354.719116 394.525848,360.531586 
	C369.086884,335.479736 343.851532,310.628357 318.138977,285.307068 
	C356.252563,285.307068 393.756958,285.307068 431.851654,285.307068 
	C431.851654,297.631927 431.920593,309.902191 431.744171,322.168976 
	C431.726685,323.386292 430.367462,324.733948 429.365326,325.762238 
	C424.248901,331.012421 419.045258,336.177551 413.623230,341.623596 
z"/>
<path fill="#272677" opacity="1.000000" stroke="none" 
	d="
M185.310699,298.311066 
	C164.203903,319.105560 143.348083,339.651031 121.554436,361.120361 
	C116.878662,356.157318 112.448570,351.250946 107.796516,346.564941 
	C100.762314,339.479370 93.513527,332.606415 86.505257,325.495941 
	C85.234215,324.206390 83.944542,322.225220 83.911972,320.539215 
	C83.687210,308.904999 83.793678,297.264404 83.793678,285.297485 
	C121.837189,285.297485 159.679016,285.297485 199.032211,285.297485 
	C194.057068,290.011871 189.809372,294.036957 185.310699,298.311066 
z"/>
<path fill="#EFA827" opacity="1.000000" stroke="none" 
	d="
M296.378326,327.620544 
	C318.364288,349.245605 340.098083,370.622375 361.577087,391.748596 
	C352.598907,401.023773 343.241150,409.585876 335.238403,419.267975 
	C327.169495,429.030151 317.862274,433.103729 305.351196,431.358521 
	C299.324677,430.517883 293.083862,431.213531 286.617035,431.213531 
	C286.617035,393.600861 286.617035,356.414459 286.617035,319.228058 
	C287.202362,318.749664 287.787659,318.271271 288.372986,317.792877 
	C290.957367,320.986023 293.541748,324.179138 296.378326,327.620544 
z"/>
<path fill="#95257B" opacity="1.000000" stroke="none" 
	d="
M381.196350,166.196472 
	C385.396362,161.904633 389.346985,157.863419 394.081116,153.020752 
	C398.040009,157.287048 401.663513,161.370056 405.478180,165.265869 
	C413.511871,173.470490 421.769836,181.460144 429.641144,189.815536 
	C431.353271,191.632965 432.647644,194.588974 432.729614,197.067078 
	C433.070038,207.356842 432.872620,217.664398 432.872620,228.330505 
	C395.229523,228.330505 357.904724,228.330505 319.364502,228.330505 
	C340.302002,207.290695 360.624481,186.868896 381.196350,166.196472 
z"/>
<path fill="#9DCD2B" opacity="1.000000" stroke="none" 
	d="
M230.030319,85.249428 
	C230.032898,122.601501 230.032898,159.476852 230.032898,196.118561 
	C205.190811,171.650452 180.477005,147.308685 155.456299,122.664650 
	C156.516800,121.416451 157.366608,120.269585 158.361923,119.267189 
	C169.737823,107.810287 181.067703,96.305679 192.608246,85.016609 
	C194.175781,83.483231 196.802444,82.323082 198.981735,82.248573 
	C207.959488,81.941620 216.953949,82.099518 225.942032,82.136948 
	C227.797867,82.144676 230.261169,81.431404 230.030319,85.249428 
z"/>
<path fill="#932279" opacity="1.000000" stroke="none" 
	d="
M286.996826,89.117813 
	C286.996826,86.993942 286.996826,85.354019 286.996826,83.093933 
	C298.737549,83.093933 310.159576,83.066002 321.580811,83.149712 
	C322.445953,83.156052 323.483398,83.772827 324.140930,84.413559 
	C336.888458,96.835495 349.591248,109.303329 362.513519,121.967804 
	C336.899475,147.175430 312.021637,171.658524 286.996826,196.286285 
	C286.996826,160.969315 286.996826,125.285545 286.996826,89.117813 
z"/>
<path fill="#9DCE2C" opacity="1.000000" stroke="none" 
	d="
M91.723373,183.729019 
	C101.645615,173.401337 111.315842,163.323105 121.220650,153.000397 
	C146.864883,178.241882 171.403305,202.394897 196.700760,227.295044 
	C158.594879,227.295044 121.499870,227.295044 83.827278,227.295044 
	C83.827278,215.808014 83.285728,204.319443 84.177650,192.943283 
	C84.425354,189.783829 88.923332,186.957581 91.723373,183.729019 
z"/>
</svg>