<svg version="1.1" id="Layer_1" xmlns="http://www.w3.org/2000/svg" xmlns:xlink="http://www.w3.org/1999/xlink" x="0px" y="0px"
	 width="100%" viewBox="0 0 512 512" enable-background="new 0 0 512 512" xml:space="preserve">
<path fill="transparent" opacity="1.000000" stroke="none" 
	d="
M28.000000,513.000000 
	C19.014713,513.000000 10.029427,513.000000 1.000000,513.000000 
	C1.000000,432.979126 1.000000,352.958221 1.468657,272.468658 
	C16.529562,272.000000 31.121809,272.000000 45.698647,272.000000 
	C45.698647,261.704315 45.698647,251.977020 45.698647,242.000000 
	C30.599144,242.000000 15.799572,242.000000 1.000000,242.000000 
	C1.000000,161.739624 1.000000,81.479263 1.000000,1.000000 
	C81.020760,1.000000 161.041718,1.000000 241.531342,1.468657 
	C242.000000,16.525875 242.000000,31.114433 242.000000,45.693005 
	C252.297653,45.693005 262.021362,45.693005 272.000000,45.693005 
	C272.000000,30.591663 272.000000,15.795832 272.000000,1.000000 
	C352.260376,1.000000 432.520752,1.000000 513.000000,1.000000 
	C513.000000,81.020760 513.000000,161.041718 512.531372,241.531342 
	C497.474121,242.000000 482.885559,242.000000 468.307007,242.000000 
	C468.307007,252.297668 468.307007,262.021393 468.307007,272.000000 
	C483.408325,272.000000 498.204163,272.000000 513.000000,272.000000 
	C513.000000,352.333344 513.000000,432.666687 513.000000,513.000000 
	C504.242340,513.000000 495.589813,513.000000 486.468658,512.531372 
	C485.999969,489.607208 486.193512,467.148956 485.866821,444.698212 
	C485.782806,438.926483 484.403320,433.094879 483.023041,427.436127 
	C479.466827,412.856995 471.454346,400.967163 460.439423,390.886658 
	C448.357056,379.829315 434.047974,373.955872 418.200928,371.509979 
	C442.856415,366.690216 457.427429,343.896118 452.422760,319.131622 
	C448.009521,297.293549 430.731415,284.685913 410.030701,283.451538 
	C409.653381,279.100006 409.695770,275.095306 408.878052,271.274719 
	C403.478088,246.045151 389.956970,226.671295 366.444336,215.378510 
	C359.152161,211.876190 350.858765,210.458511 343.365417,207.923111 
	C347.749359,206.073166 352.082062,204.864471 355.782715,202.615692 
	C370.373779,193.749146 376.806885,180.595078 377.158875,163.487488 
	C377.625916,140.788864 355.287659,118.317368 332.516388,121.092148 
	C328.023376,121.533905 323.801971,121.467010 319.955261,122.634521 
	C297.268921,129.519974 284.338409,152.944778 290.467926,175.908585 
	C292.968506,185.276871 297.397491,193.706863 305.761749,199.106750 
	C311.179901,202.604675 317.208527,205.156967 322.763794,208.481201 
	C321.076111,208.900803 319.536774,208.748215 318.108185,209.076935 
	C294.280396,214.559784 276.135895,227.772385 264.989380,249.626495 
	C261.398407,256.667023 259.611542,264.627777 256.657990,271.947052 
	C252.239105,247.722351 239.566177,229.486282 218.273529,217.992783 
	C209.863846,213.453339 200.129898,211.367203 191.339172,207.994812 
	C199.597214,205.147629 207.348022,201.870651 212.898422,195.467834 
	C222.660675,184.206314 226.631577,171.322754 224.166428,156.117340 
	C220.872604,135.800751 199.464752,118.972122 180.525467,121.092705 
	C165.830185,120.564339 154.854050,126.600525 145.928848,137.475052 
	C132.996780,153.231613 133.685699,179.962448 148.951660,195.538452 
	C155.181000,201.894287 162.870773,205.321579 170.778656,208.501770 
	C169.232742,208.894745 167.865219,208.760422 166.588028,209.039459 
	C148.951218,212.892838 133.988037,221.026123 122.186661,235.130875 
	C110.275360,249.367020 104.748833,265.666718 103.531303,283.938232 
	C88.610832,284.832764 77.045204,290.884979 68.516853,302.838959 
	C61.928955,312.073059 60.212109,322.346313 61.008297,333.300262 
	C61.861584,345.039764 66.925621,354.932556 76.208420,361.818634 
	C82.054573,366.155334 89.317856,368.581665 95.524147,371.924988 
	C91.456100,372.664734 87.735992,373.079529 84.173935,374.065369 
	C49.628574,383.626373 26.726522,415.710815 27.881088,451.621155 
	C28.538252,472.060913 27.999960,492.539124 28.000000,513.000000 
M127.508476,52.005001 
	C125.338501,48.975521 123.283157,45.852512 120.931908,42.970955 
	C120.181969,42.051876 118.082954,40.959049 117.555069,41.324291 
	C109.477112,46.913456 101.557274,52.731136 93.521309,58.553024 
	C102.841957,71.394691 111.708641,83.610909 120.721397,96.028374 
	C129.234650,89.824188 137.585724,83.738190 145.997482,77.607971 
	C139.910172,69.116417 133.966248,60.824860 127.508476,52.005001 
M374.000153,69.500916 
	C372.050751,72.213997 370.101379,74.927078 368.103149,77.708130 
	C376.717804,83.897171 385.165222,89.966057 393.545227,95.986504 
	C402.747284,83.222488 411.536957,71.030472 420.546082,58.534046 
	C412.417389,52.670410 404.814240,47.110775 397.075195,41.747200 
	C396.462341,41.322449 394.412628,41.887245 393.864441,42.617813 
	C387.322357,51.335796 380.938385,60.172432 374.000153,69.500916 
M81.466164,109.974251 
	C73.892471,104.577805 66.318779,99.181358 58.478310,93.594826 
	C52.704010,101.584923 47.127232,109.145058 41.814930,116.886673 
	C41.263214,117.690697 41.798176,120.237633 42.645168,120.853714 
	C54.233032,129.282364 65.964645,137.513367 77.760750,145.863693 
	C83.910980,137.358414 89.961151,128.991531 95.944885,120.716515 
	C90.851799,116.982880 86.422340,113.735741 81.466164,109.974251 
M458.478394,130.016251 
	C462.758759,126.769928 467.083923,123.579605 471.278503,120.225975 
	C472.039764,119.617363 472.939667,117.869850 472.640228,117.441292 
	C467.069061,109.467293 461.325806,101.613525 455.413879,93.451698 
	C442.706543,102.692612 430.455200,111.601891 418.031250,120.636703 
	C424.107117,128.996613 429.990021,137.091003 436.302185,145.776047 
	C443.718811,140.565842 450.847595,135.557846 458.478394,130.016251 
M186.991898,58.509583 
	C193.658752,56.309109 200.325607,54.108631 206.727356,51.995655 
	C201.896011,37.020336 197.210632,22.497454 192.504333,7.909720 
	C183.725845,10.905989 175.292709,14.149961 166.630081,16.573753 
	C162.789444,17.648354 163.074173,19.293613 164.025726,22.032919 
	C167.360016,31.631485 170.975525,41.148937 173.864075,50.881260 
	C176.988312,61.407703 176.685074,61.497704 186.991898,58.509583 
M32.003529,167.504639 
	C28.323034,166.324402 24.535257,165.394455 20.998692,163.878448 
	C18.524246,162.817734 17.735548,163.094498 16.906042,165.748978 
	C14.126545,174.643524 11.011268,183.433151 7.939549,192.514221 
	C22.529182,197.223709 37.038452,201.907257 51.825367,206.680420 
	C54.807240,197.993164 57.991081,189.066162 60.806736,180.024506 
	C61.119774,179.019272 59.621403,176.530701 58.479141,176.138092 
	C49.952103,173.207245 41.303078,170.631271 32.003529,167.504639 
M486.415863,198.994034 
	C492.839294,196.868851 499.262726,194.743668 505.831451,192.570419 
	C502.579681,182.612961 499.351135,172.726669 496.123169,162.842041 
	C482.371887,167.370819 469.411377,171.816818 456.312469,175.808701 
	C453.571716,176.643951 452.359131,177.788284 453.122162,180.172653 
	C455.961456,189.044998 459.064941,197.832779 462.105560,206.758759 
	C470.061646,204.132217 477.825775,201.569046 486.415863,198.994034 
M340.056519,50.761269 
	C343.436646,40.673584 346.666931,30.531513 350.295441,20.533972 
	C351.282288,17.814974 350.244873,17.581049 348.209656,16.935356 
	C339.248779,14.092479 330.339966,11.085491 321.384186,8.128695 
	C316.632019,22.913809 312.020569,37.261200 307.341553,51.818790 
	C314.265900,54.217960 321.085693,56.648136 327.950623,58.943275 
	C337.524963,62.144241 337.539398,62.101040 340.056519,50.761269 
z"/>
<path fill="#FFDA44" opacity="1.000000" stroke="none" 
	d="
M28.468658,513.000000 
	C27.999960,492.539124 28.538252,472.060913 27.881088,451.621155 
	C26.726522,415.710815 49.628574,383.626373 84.173935,374.065369 
	C87.735992,373.079529 91.456100,372.664734 95.973106,371.971100 
	C99.564178,372.036285 102.285004,372.115356 104.999298,372.650818 
	C104.995171,419.738190 104.997589,466.369080 105.000000,513.000000 
	C79.645775,513.000000 54.291542,513.000000 28.468658,513.000000 
z"/>
<path fill="#6A4DFF" opacity="1.000000" stroke="none" 
	d="
M418.004059,371.836365 
	C434.047974,373.955872 448.357056,379.829315 460.439423,390.886658 
	C471.454346,400.967163 479.466827,412.856995 483.023041,427.436127 
	C484.403320,433.094879 485.782806,438.926483 485.866821,444.698212 
	C486.193512,467.148956 485.999969,489.607208 486.000000,512.531372 
	C460.645782,513.000000 435.291534,513.000000 409.480774,512.531494 
	C409.026123,465.407043 409.028046,418.751190 409.471985,372.029663 
	C412.610718,371.921478 415.307404,371.878937 418.004059,371.836365 
z"/>
<path fill="#5C6699" opacity="1.000000" stroke="none" 
	d="
M257.000000,513.000000 
	C231.979111,513.000000 206.958206,513.000000 181.450500,512.531616 
	C180.697922,487.727814 180.432144,463.392426 180.378906,438.935150 
	C180.857437,438.597260 181.019135,438.320343 181.291199,437.673401 
	C188.185120,400.392120 213.488358,376.690491 251.870148,371.778442 
	C253.843048,371.847717 255.429474,371.954529 257.011597,372.526154 
	C257.004852,419.660645 257.002411,466.330322 257.000000,513.000000 
z"/>
<path fill="#404A80" opacity="1.000000" stroke="none" 
	d="
M257.468658,513.000000 
	C257.002411,466.330322 257.004852,419.660645 257.011322,372.428864 
	C257.015381,371.866760 256.914825,371.700256 257.337646,371.780731 
	C259.202850,371.859436 260.645233,371.857697 262.498108,371.939178 
	C299.739716,376.052460 325.813477,400.391205 332.393372,437.265472 
	C332.593842,438.829041 332.816040,440.030853 333.082855,441.685059 
	C333.084991,465.758270 333.042480,489.379150 333.000000,513.000000 
	C307.979095,513.000000 282.958221,513.000000 257.468658,513.000000 
z"/>
<path fill="#6680FF" opacity="1.000000" stroke="none" 
	d="
M333.468628,513.000000 
	C333.042480,489.379150 333.084991,465.758270 333.275330,441.322845 
	C337.123840,405.268585 364.409393,375.577179 404.397888,371.889984 
	C406.220428,371.845062 407.621735,371.766296 409.039734,371.789215 
	C409.056427,371.890900 409.029938,372.095306 409.029938,372.095306 
	C409.028046,418.751190 409.026123,465.407043 409.012115,512.531494 
	C383.979095,513.000000 358.958221,513.000000 333.468628,513.000000 
z"/>
<path fill="#FFB655" opacity="1.000000" stroke="none" 
	d="
M180.166382,439.057007 
	C180.432144,463.392426 180.697922,487.727814 180.981842,512.531616 
	C155.979111,513.000000 130.958206,513.000000 105.468658,513.000000 
	C104.997589,466.369080 104.995171,419.738190 105.242920,372.570374 
	C105.655853,371.980316 105.818634,371.927124 106.399155,371.917389 
	C107.931679,371.927063 109.046486,371.893250 110.564743,371.913696 
	C113.272232,372.319916 115.577118,372.666443 117.880173,373.024689 
	C150.125061,378.040222 177.495453,407.057648 180.166382,439.057007 
z"/>
<path fill="#FFDA44" opacity="1.000000" stroke="none" 
	d="
M1.000000,242.468658 
	C15.799572,242.000000 30.599144,242.000000 45.698647,242.000000 
	C45.698647,251.977020 45.698647,261.704315 45.698647,272.000000 
	C31.121809,272.000000 16.529562,272.000000 1.468657,272.000000 
	C1.000000,262.312439 1.000000,252.624878 1.000000,242.468658 
z"/>
<path fill="#FFB655" opacity="1.000000" stroke="none" 
	d="
M513.000000,271.531342 
	C498.204163,272.000000 483.408325,272.000000 468.307007,272.000000 
	C468.307007,262.021393 468.307007,252.297668 468.307007,242.000000 
	C482.885559,242.000000 497.474121,242.000000 512.531372,242.000000 
	C513.000000,251.687561 513.000000,261.375122 513.000000,271.531342 
z"/>
<path fill="#FFB655" opacity="1.000000" stroke="none" 
	d="
M271.531342,1.000000 
	C272.000000,15.795832 272.000000,30.591663 272.000000,45.693005 
	C262.021362,45.693005 252.297653,45.693005 242.000000,45.693005 
	C242.000000,31.114433 242.000000,16.525875 242.000000,1.468657 
	C251.687561,1.000000 261.375122,1.000000 271.531342,1.000000 
z"/>
<path fill="#E62F6B" opacity="1.000000" stroke="none" 
	d="
M403.976685,371.856140 
	C364.409393,375.577179 337.123840,405.268585 333.230652,440.870483 
	C332.816040,440.030853 332.593842,438.829041 332.544006,436.891541 
	C332.817566,434.667023 333.007141,433.178131 333.007294,431.689270 
	C333.015503,357.269440 333.007538,282.849579 333.447845,208.335083 
	C336.937531,208.189102 339.980652,208.137756 343.023773,208.086426 
	C350.858765,210.458511 359.152161,211.876190 366.444336,215.378510 
	C389.956970,226.671295 403.478088,246.045151 408.878052,271.274719 
	C409.695770,275.095306 409.653381,279.100006 409.837433,283.572144 
	C409.382446,284.255188 409.152496,284.449249 408.527405,284.718445 
	C390.287933,285.446564 377.237305,293.933716 369.860931,309.892059 
	C362.491821,325.834778 364.495392,341.352142 375.255005,355.408417 
	C382.488251,364.857788 392.587006,369.542480 403.976685,371.856140 
z"/>
<path fill="#2EE6A8" opacity="1.000000" stroke="none" 
	d="
M180.378891,438.935150 
	C177.495453,407.057648 150.125061,378.040222 117.880173,373.024689 
	C115.577118,372.666443 113.272232,372.319916 110.832291,371.666779 
	C134.265549,367.808472 149.712723,348.165222 148.054001,323.860107 
	C146.577881,302.230621 127.894012,285.235474 104.898895,284.557465 
	C104.501587,284.196808 104.237450,284.036865 103.960999,283.897247 
	C104.748833,265.666718 110.275360,249.367020 122.186661,235.130875 
	C133.988037,221.026123 148.951218,212.892838 166.588028,209.039459 
	C167.865219,208.760422 169.232742,208.894745 171.230331,208.439133 
	C174.941757,208.208252 177.981094,208.375137 181.014954,208.976654 
	C181.002701,243.015457 180.981583,276.619629 180.992767,310.223785 
	C181.006943,352.810028 181.047394,395.396240 181.076508,437.982483 
	C181.019135,438.320343 180.857437,438.597260 180.378891,438.935150 
z"/>
<path fill="#FF6666" opacity="1.000000" stroke="none" 
	d="
M333.001282,208.429749 
	C333.007538,282.849579 333.015503,357.269440 333.007294,431.689270 
	C333.007141,433.178131 332.817566,434.667023 332.565704,436.529816 
	C325.813477,400.391205 299.739716,376.052460 262.811188,371.748291 
	C285.372162,368.380890 301.873627,348.815887 300.619690,326.187347 
	C299.284088,302.085205 280.571075,284.769714 257.163269,284.741028 
	C257.132324,284.622375 256.958008,284.449860 256.971191,284.023010 
	C256.989380,279.786621 256.994354,275.977081 256.999359,272.167542 
	C259.611542,264.627777 261.398407,256.667023 264.989380,249.626495 
	C276.135895,227.772385 294.280396,214.559784 318.108185,209.076935 
	C319.536774,208.748215 321.076111,208.900803 323.215179,208.437134 
	C326.890442,208.048645 329.914429,208.052460 332.952271,208.149963 
	C332.966064,208.243652 333.001282,208.429749 333.001282,208.429749 
z"/>
<path fill="#24B3B3" opacity="1.000000" stroke="none" 
	d="
M256.657990,271.947052 
	C256.994354,275.977081 256.989380,279.786621 256.528015,284.093445 
	C224.692719,285.108063 203.185623,318.432587 218.195282,348.107208 
	C225.076157,361.710907 236.818939,368.921570 251.483658,371.815948 
	C213.488358,376.690491 188.185120,400.392120 181.291199,437.673401 
	C181.047394,395.396240 181.006943,352.810028 180.992767,310.223785 
	C180.981583,276.619629 181.002701,243.015457 181.044724,208.865372 
	C181.079987,208.319443 181.050613,208.090912 181.497620,208.160141 
	C184.962723,208.207581 187.980820,208.185776 190.998917,208.163986 
	C200.129898,211.367203 209.863846,213.453339 218.273529,217.992783 
	C239.566177,229.486282 252.239105,247.722351 256.657990,271.947052 
z"/>
<path fill="#A6756B" opacity="1.000000" stroke="none" 
	d="
M103.531303,283.938232 
	C104.237450,284.036865 104.501587,284.196808 104.881851,285.045715 
	C104.996536,312.498169 104.961807,339.281982 105.012764,366.065674 
	C105.016449,368.002350 105.643959,369.937866 105.981422,371.873901 
	C105.818634,371.927124 105.655853,371.980316 105.249451,372.113953 
	C102.285004,372.115356 99.564178,372.036285 96.394386,371.911102 
	C89.317856,368.581665 82.054573,366.155334 76.208420,361.818634 
	C66.925621,354.932556 61.861584,345.039764 61.008297,333.300262 
	C60.212109,322.346313 61.928955,312.073059 68.516853,302.838959 
	C77.045204,290.884979 88.610832,284.832764 103.531303,283.938232 
z"/>
<path fill="#DBAD5D" opacity="1.000000" stroke="none" 
	d="
M408.976166,284.706940 
	C409.152496,284.449249 409.382446,284.255188 409.859314,284.004150 
	C430.731415,284.685913 448.009521,297.293549 452.422760,319.131622 
	C457.427429,343.896118 442.856415,366.690216 418.200928,371.510010 
	C415.307404,371.878937 412.610718,371.921478 409.471985,372.029663 
	C409.029938,372.095306 409.056427,371.890900 409.054260,371.341888 
	C409.026794,342.097565 409.001465,313.402252 408.976166,284.706940 
z"/>
<path fill="#E7C994" opacity="1.000000" stroke="none" 
	d="
M181.050217,208.430725 
	C177.981094,208.375137 174.941757,208.208252 171.450745,208.104019 
	C162.870773,205.321579 155.181000,201.894287 148.951660,195.538452 
	C133.685699,179.962448 132.996780,153.231613 145.928848,137.475052 
	C154.854050,126.600525 165.830185,120.564339 180.530304,121.550751 
	C181.006058,150.751373 181.028336,179.421143 181.050613,208.090912 
	C181.050613,208.090912 181.079987,208.319443 181.050217,208.430725 
z"/>
<path fill="#8C574D" opacity="1.000000" stroke="none" 
	d="
M343.365417,207.923111 
	C339.980652,208.137756 336.937531,208.189102 333.447845,208.335083 
	C333.001282,208.429749 332.966064,208.243652 332.974670,207.676300 
	C332.975891,178.457214 332.968506,149.805511 332.961121,121.153793 
	C355.287659,118.317368 377.625916,140.788864 377.158875,163.487488 
	C376.806885,180.595078 370.373779,193.749146 355.782715,202.615692 
	C352.082062,204.864471 347.749359,206.073166 343.365417,207.923111 
z"/>
<path fill="#DBAD5C" opacity="1.000000" stroke="none" 
	d="
M181.497620,208.160141 
	C181.028336,179.421143 181.006058,150.751373 180.978943,121.623566 
	C199.464752,118.972122 220.872604,135.800751 224.166428,156.117340 
	C226.631577,171.322754 222.660675,184.206314 212.898422,195.467834 
	C207.348022,201.870651 199.597214,205.147629 191.339172,207.994812 
	C187.980820,208.185776 184.962723,208.207581 181.497620,208.160141 
z"/>
<path fill="#A6756B" opacity="1.000000" stroke="none" 
	d="
M332.516388,121.092148 
	C332.968506,149.805511 332.975891,178.457214 332.960876,207.582611 
	C329.914429,208.052460 326.890442,208.048645 323.415039,208.088898 
	C317.208527,205.156967 311.179901,202.604675 305.761749,199.106750 
	C297.397491,193.706863 292.968506,185.276871 290.467926,175.908585 
	C284.338409,152.944778 297.268921,129.519974 319.955261,122.634521 
	C323.801971,121.467010 328.023376,121.533905 332.516388,121.092148 
z"/>
<path fill="#FFDA44" opacity="1.000000" stroke="none" 
	d="
M127.765396,52.269150 
	C133.966248,60.824860 139.910172,69.116417 145.997482,77.607971 
	C137.585724,83.738190 129.234650,89.824188 120.721397,96.028374 
	C111.708641,83.610909 102.841957,71.394691 93.521309,58.553024 
	C101.557274,52.731136 109.477112,46.913456 117.555069,41.324291 
	C118.082954,40.959049 120.181969,42.051876 120.931908,42.970955 
	C123.283157,45.852512 125.338501,48.975521 127.765396,52.269150 
z"/>
<path fill="#FFB655" opacity="1.000000" stroke="none" 
	d="
M374.256592,69.239456 
	C380.938385,60.172432 387.322357,51.335796 393.864441,42.617813 
	C394.412628,41.887245 396.462341,41.322449 397.075195,41.747200 
	C404.814240,47.110775 412.417389,52.670410 420.546082,58.534046 
	C411.536957,71.030472 402.747284,83.222488 393.545227,95.986504 
	C385.165222,89.966057 376.717804,83.897171 368.103149,77.708130 
	C370.101379,74.927078 372.050751,72.213997 374.256592,69.239456 
z"/>
<path fill="#FFDA44" opacity="1.000000" stroke="none" 
	d="
M81.729523,110.231430 
	C86.422340,113.735741 90.851799,116.982880 95.944885,120.716515 
	C89.961151,128.991531 83.910980,137.358414 77.760750,145.863693 
	C65.964645,137.513367 54.233032,129.282364 42.645168,120.853714 
	C41.798176,120.237633 41.263214,117.690697 41.814930,116.886673 
	C47.127232,109.145058 52.704010,101.584923 58.478310,93.594826 
	C66.318779,99.181358 73.892471,104.577805 81.729523,110.231430 
z"/>
<path fill="#FFB655" opacity="1.000000" stroke="none" 
	d="
M458.227386,130.283051 
	C450.847595,135.557846 443.718811,140.565842 436.302185,145.776047 
	C429.990021,137.091003 424.107117,128.996613 418.031250,120.636703 
	C430.455200,111.601891 442.706543,102.692612 455.413879,93.451698 
	C461.325806,101.613525 467.069061,109.467293 472.640228,117.441292 
	C472.939667,117.869850 472.039764,119.617363 471.278503,120.225975 
	C467.083923,123.579605 462.758759,126.769928 458.227386,130.283051 
z"/>
<path fill="#FFDA44" opacity="1.000000" stroke="none" 
	d="
M186.645294,58.727085 
	C176.685074,61.497704 176.988312,61.407703 173.864075,50.881260 
	C170.975525,41.148937 167.360016,31.631485 164.025726,22.032919 
	C163.074173,19.293613 162.789444,17.648354 166.630081,16.573753 
	C175.292709,14.149961 183.725845,10.905989 192.504333,7.909720 
	C197.210632,22.497454 201.896011,37.020336 206.727356,51.995655 
	C200.325607,54.108631 193.658752,56.309109 186.645294,58.727085 
z"/>
<path fill="#FFDA44" opacity="1.000000" stroke="none" 
	d="
M32.347908,167.724350 
	C41.303078,170.631271 49.952103,173.207245 58.479141,176.138092 
	C59.621403,176.530701 61.119774,179.019272 60.806736,180.024506 
	C57.991081,189.066162 54.807240,197.993164 51.825367,206.680420 
	C37.038452,201.907257 22.529182,197.223709 7.939549,192.514221 
	C11.011268,183.433151 14.126545,174.643524 16.906042,165.748978 
	C17.735548,163.094498 18.524246,162.817734 20.998692,163.878448 
	C24.535257,165.394455 28.323034,166.324402 32.347908,167.724350 
z"/>
<path fill="#FFB655" opacity="1.000000" stroke="none" 
	d="
M486.002899,198.999954 
	C477.825775,201.569046 470.061646,204.132217 462.105560,206.758759 
	C459.064941,197.832779 455.961456,189.044998 453.122162,180.172653 
	C452.359131,177.788284 453.571716,176.643951 456.312469,175.808701 
	C469.411377,171.816818 482.371887,167.370819 496.123169,162.842041 
	C499.351135,172.726669 502.579681,182.612961 505.831451,192.570419 
	C499.262726,194.743668 492.839294,196.868851 486.002899,198.999954 
z"/>
<path fill="#FFB655" opacity="1.000000" stroke="none" 
	d="
M340.031372,51.173645 
	C337.539398,62.101040 337.524963,62.144241 327.950623,58.943275 
	C321.085693,56.648136 314.265900,54.217960 307.341553,51.818790 
	C312.020569,37.261200 316.632019,22.913809 321.384186,8.128695 
	C330.339966,11.085491 339.248779,14.092479 348.209656,16.935356 
	C350.244873,17.581049 351.282288,17.814974 350.295441,20.533972 
	C346.666931,30.531513 343.436646,40.673584 340.031372,51.173645 
z"/>
<path fill="#FEDECF" opacity="1.000000" stroke="none" 
	d="
M251.870148,371.778442 
	C236.818939,368.921570 225.076157,361.710907 218.195282,348.107208 
	C203.185623,318.432587 224.692719,285.108063 256.514832,284.520264 
	C256.958008,284.449860 257.132324,284.622375 257.106659,285.220215 
	C257.025604,314.445435 256.970215,343.072845 256.914825,371.700256 
	C256.914825,371.700256 257.015381,371.866760 257.015625,371.964050 
	C255.429474,371.954529 253.843048,371.847717 251.870148,371.778442 
z"/>
<path fill="#FFCCBD" opacity="1.000000" stroke="none" 
	d="
M257.337646,371.780731 
	C256.970215,343.072845 257.025604,314.445435 257.137604,285.338867 
	C280.571075,284.769714 299.284088,302.085205 300.619690,326.187347 
	C301.873627,348.815887 285.372162,368.380890 262.400635,371.665039 
	C260.645233,371.857697 259.202850,371.859436 257.337646,371.780731 
z"/>
<path fill="#E7C894" opacity="1.000000" stroke="none" 
	d="
M408.527405,284.718445 
	C409.001465,313.402252 409.026794,342.097565 409.037598,371.240204 
	C407.621735,371.766296 406.220428,371.845062 404.397888,371.889984 
	C392.587006,369.542480 382.488251,364.857788 375.255005,355.408417 
	C364.495392,341.352142 362.491821,325.834778 369.860931,309.892059 
	C377.237305,293.933716 390.287933,285.446564 408.527405,284.718445 
z"/>
<path fill="#8C584D" opacity="1.000000" stroke="none" 
	d="
M106.399155,371.917389 
	C105.643959,369.937866 105.016449,368.002350 105.012764,366.065674 
	C104.961807,339.281982 104.996536,312.498169 105.027336,285.226074 
	C127.894012,285.235474 146.577881,302.230621 148.054001,323.860107 
	C149.712723,348.165222 134.265549,367.808472 110.428841,371.612488 
	C109.046486,371.893250 107.931679,371.927063 106.399155,371.917389 
z"/>
</svg>