<svg version="1.1" id="Layer_1" xmlns="http://www.w3.org/2000/svg" xmlns:xlink="http://www.w3.org/1999/xlink" x="0px" y="0px"
	 width="100%" viewBox="0 0 256 256" enable-background="new 0 0 256 256" xml:space="preserve">
    <style>
        .icon-mid-white-color-change{
            fill: #444647;
        }
        @media (prefers-color-scheme: dark) {
            .icon-mid-white-color-change{
                fill: #afafaf;
            }
        }
    </style>
<path class="icon-mid-white-color-change" opacity="1.000000" stroke="none" 
	d="
M204.979523,193.184723 
	C205.354797,199.040222 202.386353,202.609970 197.779221,204.395630 
	C193.291351,206.135040 189.207001,204.846573 185.600098,201.193848 
	C168.392960,183.768112 151.015915,166.510132 133.691254,149.200546 
	C132.294876,147.805389 130.837631,146.471100 129.071442,144.786972 
	C127.416634,146.310654 125.937630,147.579498 124.562691,148.952545 
	C107.233612,166.257706 89.975540,183.634781 72.524124,200.815521 
	C70.550117,202.758911 67.643639,204.280334 64.932098,204.833557 
	C60.155666,205.808075 56.034061,204.183868 53.803402,199.381409 
	C51.824623,195.121262 52.831558,189.698746 56.409508,186.111237 
	C73.821106,168.653030 91.251152,151.213104 108.736397,133.828796 
	C110.143433,132.429871 112.017578,131.500793 114.082130,130.071243 
	C111.756973,127.515778 110.510887,126.030731 109.146278,124.664040 
	C91.842262,107.333801 74.432388,90.107414 57.314194,72.595795 
	C55.114513,70.345558 53.813274,66.759644 53.153183,63.573429 
	C52.255013,59.238014 54.374271,55.590519 58.521347,53.930538 
	C62.850155,52.197819 67.299721,52.104240 71.081718,55.611633 
	C72.058334,56.517349 72.981117,57.481354 73.923515,58.423702 
	C90.769859,75.269218 107.612160,92.118774 124.467178,108.955597 
	C125.849419,110.336342 127.317062,111.631584 129.021286,113.224823 
	C130.749664,111.592072 132.209442,110.278618 133.596741,108.892593 
	C151.039749,91.465752 168.511276,74.067101 185.876724,56.563248 
	C189.651367,52.758530 193.908417,51.859875 198.563263,53.951416 
	C203.294006,56.077065 205.570496,60.273144 204.802429,65.304970 
	C204.415146,67.842178 202.764282,70.564110 200.912979,72.441406 
	C183.834442,89.759880 166.602234,106.927086 149.360748,124.084038 
	C147.951157,125.486710 146.143494,126.489334 144.049026,128.023346 
	C146.196060,130.409988 147.413437,131.891968 148.762085,133.242844 
	C166.065048,150.574127 183.440079,167.834152 200.630554,185.276123 
	C202.593781,187.268036 203.550079,190.252380 204.979523,193.184723 
z"/>
</svg>