<svg version="1.1" id="Layer_1" xmlns="http://www.w3.org/2000/svg" xmlns:xlink="http://www.w3.org/1999/xlink" x="0px" y="0px"
	 width="100%" viewBox="0 0 512 512" enable-background="new 0 0 512 512" xml:space="preserve">
<path fill="#F3BA2F" opacity="1.000000" stroke="none" 
	d="
M52.468666,513.000000 
	C51.567661,512.301270 51.301979,511.339996 50.677681,510.943726 
	C42.731651,505.900726 37.894859,499.361969 37.921055,489.331299 
	C38.079391,428.691467 38.066227,368.050873 37.944199,307.410858 
	C37.919605,295.189484 49.158527,285.016815 60.458702,285.011597 
	C116.101128,284.985901 171.743576,284.997620 227.386017,285.003021 
	C234.291000,285.003693 236.995483,287.648651 236.996155,294.433258 
	C237.003143,365.069153 237.013718,435.705109 236.931976,506.340881 
	C236.929672,508.332611 235.913330,510.323151 235.684906,512.657104 
	C174.979111,513.000000 113.958214,513.000000 52.468666,513.000000 
z"/>
<path fill="#F3BA2F" opacity="1.000000" stroke="none" 
	d="
M278.468658,513.000000 
	C277.666504,508.921875 277.045807,504.843964 277.042267,500.765564 
	C276.982452,432.307983 276.999084,363.850342 277.000488,295.392731 
	C277.000641,287.451569 279.392609,285.001282 287.150879,285.001007 
	C342.449982,284.999115 397.749115,285.033630 453.048157,284.972260 
	C464.465302,284.959595 476.056000,295.019531 476.037537,308.128967 
	C475.952484,368.424866 475.902008,428.721222 476.095062,489.016632 
	C476.127838,499.258545 471.345215,505.939331 463.151764,510.979980 
	C462.483673,511.390991 461.931366,511.990265 461.662628,512.751038 
	C400.979095,513.000000 339.958221,513.000000 278.468658,513.000000 
z"/>
<path fill="#F3BA2F" opacity="1.000000" stroke="none" 
	d="
M146.531342,1.000001 
	C147.624023,1.665158 148.146347,2.757629 148.886749,2.933874 
	C178.353699,9.948126 204.256088,24.002863 227.472855,43.124077 
	C233.393036,47.999897 239.127090,53.444206 243.680450,59.568710 
	C254.488083,74.105576 250.441879,90.840904 235.117752,100.975357 
	C224.375153,108.079872 212.148849,111.144951 199.827972,114.015907 
	C180.021622,118.631088 159.822800,119.121498 139.802734,117.725090 
	C118.341515,116.228165 97.545967,111.316536 81.936348,94.434982 
	C74.840675,86.761131 71.248322,77.714249 69.871719,67.334831 
	C68.044945,53.561150 70.898239,40.856834 76.805862,28.627230 
	C82.778381,16.263292 92.086815,7.663127 105.490288,3.792274 
	C106.974426,3.363662 108.283142,2.327573 109.336609,1.286609 
	C121.354225,1.000000 133.708450,1.000000 146.531342,1.000001 
M177.639450,56.962997 
	C166.803192,49.955620 155.037689,44.977608 142.516586,42.134449 
	C136.192017,40.698330 129.556778,40.267071 123.046432,40.132046 
	C118.180161,40.031116 113.471031,41.862976 111.664124,46.961685 
	C110.277206,50.875305 109.691040,55.104469 109.037788,59.238972 
	C108.027817,65.631226 111.591896,69.373825 116.889343,71.985298 
	C126.230232,76.590057 136.335587,78.675285 146.517151,78.803093 
	C158.995743,78.959740 171.518387,77.956604 183.969925,76.862381 
	C189.627838,76.365166 195.160568,74.443298 200.750076,73.167679 
	C200.865952,72.712929 200.981827,72.258171 201.097717,71.803421 
	C193.526398,66.889923 185.955093,61.976425 177.639450,56.962997 
z"/>
<path fill="#F3BA2F" opacity="1.000000" stroke="none" 
	d="
M404.531342,1.000003 
	C405.282349,1.642115 405.450745,2.759099 405.863464,2.858170 
	C425.665710,7.611444 436.703979,21.110353 442.253845,39.752785 
	C446.209015,53.038342 446.863464,66.644707 441.867249,79.740952 
	C437.566833,91.013298 429.686951,99.683899 418.958130,105.543991 
	C406.838806,112.163597 393.908447,116.231537 380.122253,116.933640 
	C367.052277,117.599274 353.883270,118.661819 340.881134,117.764168 
	C321.917725,116.454987 303.075165,113.088150 285.751160,104.782600 
	C276.755371,100.469795 268.952820,94.190407 265.964996,83.676514 
	C263.807831,76.085747 265.084625,69.131294 269.005829,62.556568 
	C277.807343,47.798916 291.654541,38.316223 305.536163,29.294439 
	C321.979340,18.607862 339.578217,9.950804 358.655518,4.713878 
	C362.026428,3.788512 365.340820,2.657222 368.340668,1.310516 
	C380.020905,1.000000 392.041779,1.000000 404.531342,1.000003 
M347.769470,78.999008 
	C363.840454,79.119186 379.859528,79.421059 395.215302,73.099617 
	C409.356781,67.278061 407.473389,55.035732 401.481018,45.164955 
	C400.349426,43.300991 397.866516,41.716892 395.698486,41.114559 
	C385.351746,38.239964 375.308960,40.659920 365.510376,43.900494 
	C346.378326,50.227798 329.077484,59.971867 312.845673,73.000969 
	C317.569824,74.076195 321.762299,75.235428 326.028931,75.954872 
	C332.934082,77.119232 339.887909,77.994698 347.769470,78.999008 
z"/>
<path fill="#F3BA2F" opacity="1.000000" stroke="none" 
	d="
M237.000336,189.000000 
	C237.000305,209.827835 237.007278,230.155655 236.996292,250.483490 
	C236.992706,257.124908 235.135895,258.996887 228.575592,258.997314 
	C164.259659,259.001526 99.943665,259.048767 35.627850,258.962708 
	C20.920950,258.943024 10.826308,248.683273 10.941938,234.554794 
	C11.147839,209.396622 11.259540,184.231750 10.891923,159.077271 
	C10.703822,146.206345 21.435686,135.116486 34.483330,135.080444 
	C98.798767,134.902786 163.114960,134.986588 227.430878,135.017960 
	C234.367996,135.021347 236.990417,137.728729 236.996323,144.511948 
	C237.009094,159.174622 237.000305,173.837311 237.000336,189.000000 
z"/>
<path fill="#F3BA2F" opacity="1.000000" stroke="none" 
	d="
M379.000000,258.999725 
	C347.840088,258.999786 317.180176,259.002533 286.520264,258.997833 
	C279.668884,258.996796 277.000488,256.364349 277.000244,249.638107 
	C276.999054,214.312546 276.997711,178.987000 277.001801,143.661438 
	C277.002502,137.884506 279.834534,135.013031 285.744019,135.011276 
	C350.229828,134.992142 414.715973,134.887512 479.201111,135.094437 
	C492.024780,135.135590 503.252930,145.509140 503.088959,158.908524 
	C502.781158,184.065872 502.726929,209.233826 503.107666,234.389175 
	C503.319611,248.393234 492.540100,258.946625 478.478271,258.976929 
	C445.485657,259.048065 412.492767,258.999725 379.000000,258.999725 
z"/>
</svg>