<svg version="1.1" id="Layer_1" xmlns="http://www.w3.org/2000/svg" xmlns:xlink="http://www.w3.org/1999/xlink" x="0px" y="0px"
	 width="100%" viewBox="0 0 512 512" enable-background="new 0 0 512 512" xml:space="preserve">
<path fill="#FF4E19" opacity="1.000000" stroke="none" 
	d="
M513.000000,241.666672 
	C508.735291,247.115982 504.325348,252.118774 500.233856,257.369751 
	C489.097656,271.661804 478.099487,286.061401 467.038727,300.412292 
	C464.496338,303.710938 461.922302,306.985199 459.267792,310.392639 
	C450.600616,303.610260 442.645905,297.385376 434.213104,290.756287 
	C419.498138,279.241150 405.319763,268.054230 391.009369,257.038818 
	C373.678467,243.698410 356.194794,230.556564 338.851105,217.232651 
	C311.529144,196.243134 284.268768,175.173416 256.969788,154.119095 
	C256.957214,154.100525 256.927094,154.067322 256.950623,153.595001 
	C256.997955,116.473511 257.021729,79.824356 257.045502,43.175205 
	C262.298889,46.906712 267.648224,50.511158 272.787628,54.393570 
	C288.153717,66.001419 303.458405,77.690933 318.746857,89.401054 
	C330.546631,98.439034 342.308350,107.527084 354.038727,116.654930 
	C357.822906,119.599525 361.453583,122.741386 366.046692,126.528679 
	C366.046692,114.643684 366.046692,103.780769 366.288086,92.361298 
	C366.744507,91.643456 366.898315,91.436653 366.990936,91.184341 
	C391.019775,91.138634 415.048615,91.092918 439.633759,91.288727 
	C440.350739,91.746704 440.557465,91.901840 440.810181,91.995659 
	C440.861938,120.795059 440.963715,149.594559 440.904205,178.393738 
	C440.896484,182.128815 441.673706,184.554840 445.091461,186.923019 
	C454.006256,193.100113 462.419708,200.001053 471.029388,206.618164 
	C479.570953,213.182922 488.189941,219.650604 496.617340,226.358871 
	C502.005127,230.647598 507.106812,235.295792 512.668335,239.891418 
	C513.000000,240.444443 513.000000,240.888901 513.000000,241.666672 
z"/>
<path fill="#FF7D3C" opacity="1.000000" stroke="none" 
	d="
M256.690399,43.112812 
	C257.021729,79.824356 256.997955,116.473511 256.657196,153.735382 
	C253.623764,156.527710 250.948822,158.761505 248.184235,160.878220 
	C227.653488,176.597702 207.076813,192.257309 186.568787,208.006332 
	C157.779129,230.115189 129.005859,252.245712 100.295586,274.457428 
	C93.374252,279.812103 86.727760,285.522034 79.954872,291.068573 
	C71.653488,297.380005 63.352108,303.691406 54.500439,310.421204 
	C48.950291,303.232544 43.487968,296.147125 38.014355,289.070404 
	C27.114958,274.978699 16.211096,260.890411 5.303809,246.804810 
	C4.105214,245.256943 2.872199,243.735733 1.327579,242.101074 
	C1.000000,241.250000 1.000000,240.500000 1.000002,239.375000 
	C21.280428,223.531509 41.624390,208.145416 61.824379,192.572571 
	C84.508575,175.084595 107.016571,157.368134 129.689056,139.864853 
	C145.739914,127.473511 161.979828,115.327339 178.057068,102.969872 
	C196.480637,88.808937 214.787582,74.496330 233.206650,60.329506 
	C240.834030,54.462997 248.620941,48.803864 256.690399,43.112812 
z"/>
<path fill="#FF5921" opacity="1.000000" stroke="none" 
	d="
M366.735229,91.148163 
	C366.898315,91.436653 366.744507,91.643456 366.356903,91.896454 
	C366.282715,91.696098 366.381134,91.404037 366.735229,91.148163 
z"/>
<path fill="#FF5E25" opacity="1.000000" stroke="none" 
	d="
M440.848450,91.739059 
	C440.557465,91.901840 440.350739,91.746704 440.098328,91.357040 
	C440.299957,91.283371 440.593323,91.382912 440.848450,91.739059 
z"/>
<path fill="#FFB74F" opacity="1.000000" stroke="none" 
	d="
M79.972809,291.532623 
	C86.727760,285.522034 93.374252,279.812103 100.295586,274.457428 
	C129.005859,252.245712 157.779129,230.115189 186.568787,208.006332 
	C207.076813,192.257309 227.653488,176.597702 248.184235,160.878220 
	C250.948822,158.761505 253.623764,156.527710 256.633667,154.207718 
	C256.927094,154.067322 256.957214,154.100525 256.972595,154.572296 
	C257.013458,215.978546 257.038971,276.913055 257.064453,337.847534 
	C245.931992,337.847534 234.799545,337.847534 223.064056,337.847534 
	C223.064056,382.749634 223.064056,427.120941 223.064056,471.999969 
	C220.843246,471.999969 219.222763,471.999939 217.602280,471.999939 
	C173.779175,471.999969 129.955811,471.932709 86.133301,472.096649 
	C81.377106,472.114441 79.884338,470.846710 79.897507,465.955811 
	C80.053665,407.969757 79.993835,349.983154 79.972809,291.532623 
z"/>
<path fill="#FF9A00" opacity="1.000000" stroke="none" 
	d="
M257.524933,337.911987 
	C257.038971,276.913055 257.013458,215.978546 256.985168,154.590851 
	C284.268768,175.173416 311.529144,196.243134 338.851105,217.232651 
	C356.194794,230.556564 373.678467,243.698410 391.009369,257.038818 
	C405.319763,268.054230 419.498138,279.241150 433.888245,290.650635 
	C433.999695,325.099030 433.946838,359.248871 433.919952,393.398682 
	C433.900665,417.888062 433.836029,442.377930 433.997009,466.866272 
	C434.023041,470.830109 432.852692,472.005585 428.877228,471.993195 
	C385.563171,471.858337 342.248535,471.897491 298.385071,471.656189 
	C297.676422,471.211639 297.469696,471.067932 297.215820,470.992004 
	C297.163574,428.847076 297.111237,386.702179 297.059387,344.557251 
	C297.056976,342.581665 297.059113,340.606079 297.059113,337.976410 
	C283.841309,337.976410 270.913361,337.976410 257.524933,337.911987 
z"/>
<path fill="#FFA622" opacity="1.000000" stroke="none" 
	d="
M297.178223,471.244385 
	C297.469696,471.067932 297.676422,471.211639 297.920532,471.594879 
	C297.716888,471.676636 297.428772,471.586700 297.178223,471.244385 
z"/>
</svg>