<svg version="1.1" id="Layer_1" xmlns="http://www.w3.org/2000/svg" xmlns:xlink="http://www.w3.org/1999/xlink" x="0px" y="0px"
	 width="100%" viewBox="0 0 512 512" enable-background="new 0 0 512 512" xml:space="preserve">
<path fill="#F35244" opacity="1.000000" stroke="none" 
	d="
M325.750000,156.750000 
	C310.803253,171.719543 296.106506,186.439087 281.417694,201.150681 
	C254.714874,174.438431 228.263885,147.978088 202.022278,121.727196 
	C169.688187,154.064499 137.929306,185.826553 106.698959,217.060013 
	C97.933289,208.309509 89.895020,200.285156 82.152580,192.556107 
	C121.298630,153.410416 161.202148,113.507256 201.239334,73.470444 
	C227.273575,99.513977 253.806198,126.056068 280.063965,152.323212 
	C312.179321,120.204758 343.603577,88.777512 375.167084,57.210968 
	C365.530273,57.210968 355.538452,57.210968 345.279968,57.210968 
	C345.279968,46.345661 345.279968,36.077145 345.279968,25.403351 
	C374.188721,25.403351 403.236206,25.403351 432.642639,25.403351 
	C432.642639,54.282120 432.642639,83.328941 432.642639,112.688614 
	C422.288330,112.688614 411.903412,112.688614 401.154114,112.688614 
	C401.154114,102.645050 401.154114,92.718956 401.154114,81.345940 
	C375.501495,106.998566 350.750732,131.749283 325.750000,156.750000 
z"/>
<path fill="#69A709" opacity="1.000000" stroke="none" 
	d="
M458.958618,361.151611 
	C466.087067,361.151611 473.215546,361.151611 480.669678,361.151611 
	C480.669678,382.352875 480.669678,403.269104 480.669678,424.839783 
	C470.355408,424.839783 459.975433,424.839783 449.133667,424.839783 
	C449.133667,446.403992 449.133667,467.323914 449.133667,488.961823 
	C422.416016,488.961823 396.165375,488.961823 369.453278,488.443329 
	C369.057770,481.991516 369.123718,476.058167 369.554871,470.076233 
	C393.375488,461.218597 411.447449,445.664276 426.471252,426.290588 
	C426.246521,425.840729 426.021820,425.390839 425.797119,424.940979 
	C417.509064,424.940979 409.221039,424.940979 400.955811,424.476929 
	C401.050140,418.047516 401.121613,412.082184 401.560822,406.077759 
	C411.484680,400.770782 421.519684,396.201019 430.475983,390.058502 
	C441.716644,382.349182 451.330994,372.626984 458.958618,361.151611 
z"/>
<path fill="#4DB7E5" opacity="1.000000" stroke="none" 
	d="
M433.000000,246.000000 
	C433.000000,255.129730 433.000000,263.759460 433.000000,272.693542 
	C422.334869,272.693542 411.951263,272.693542 401.282349,272.693542 
	C401.282349,230.315430 401.282349,187.964722 401.282349,145.306702 
	C411.664551,145.306702 422.048187,145.306702 433.000000,145.306702 
	C433.000000,178.720901 433.000000,212.110443 433.000000,246.000000 
z"/>
<path fill="#4DB7E5" opacity="1.000000" stroke="none" 
	d="
M164.195892,209.001068 
	C173.959885,209.000229 183.239838,209.000229 192.757156,209.000229 
	C192.757156,251.767242 192.757156,294.120850 192.757156,336.737366 
	C182.243454,336.737366 171.859741,336.737366 161.000992,336.737366 
	C161.000992,335.630798 161.000977,334.681732 161.000977,333.732666 
	C161.000671,293.619263 160.988495,253.505859 161.038208,213.392517 
	C161.040482,211.555450 159.841629,208.633316 164.195892,209.001068 
z"/>
<path fill="#80C326" opacity="1.000000" stroke="none" 
	d="
M265.152466,425.032196 
	C275.423859,425.016754 285.695221,425.001343 296.902405,424.974976 
	C310.921051,425.004883 324.003876,425.045776 337.058472,425.549133 
	C336.969482,444.001373 336.908752,461.991119 336.406250,479.984070 
	C312.362732,480.336395 288.761017,480.685608 265.108826,480.566437 
	C264.985382,472.397217 264.912415,464.696350 264.893066,456.529572 
	C264.900482,445.691376 264.854218,435.319092 264.908844,424.908508 
	C265.009766,424.870148 265.152466,425.032196 265.152466,425.032196 
z"/>
<path fill="#80C326" opacity="1.000000" stroke="none" 
	d="
M265.162994,352.968262 
	C265.162994,334.524414 265.162994,316.080597 265.162994,297.031158 
	C288.934540,297.031158 312.505981,297.031158 336.540863,297.555969 
	C336.952240,316.047485 336.900146,334.014191 336.405945,351.983826 
	C312.363586,352.313904 288.763275,352.641083 265.162994,352.968262 
z"/>
<path fill="#80C326" opacity="1.000000" stroke="none" 
	d="
M297.162994,416.968262 
	C297.103546,398.634369 297.044098,380.300476 297.425171,361.491302 
	C310.933319,360.991028 324.000977,360.966064 337.532623,360.960236 
	C348.345367,360.994629 358.694122,361.009827 369.011475,361.022491 
	C368.980042,361.019958 368.974976,360.957123 368.983093,361.428650 
	C368.943359,379.927246 368.895508,397.954315 368.404053,415.981720 
	C344.361267,416.310760 320.762146,416.639496 297.162994,416.968262 
z"/>
<path fill="#69A709" opacity="1.000000" stroke="none" 
	d="
M426.958618,297.151611 
	C434.073029,297.151611 441.187439,297.151611 449.025757,297.151611 
	C449.025757,318.261108 449.025757,339.130371 448.593079,360.481415 
	C432.410919,361.004364 416.661469,361.045502 400.449554,361.055908 
	C389.649750,361.002502 379.312347,360.979828 368.974976,360.957123 
	C368.974976,360.957123 368.980042,361.019958 368.996704,360.552795 
	C369.072144,354.098633 369.130890,348.111603 369.555176,342.076691 
	C379.478729,336.764679 389.516510,332.200317 398.473572,326.059570 
	C409.716278,318.351776 419.330353,308.627594 426.958618,297.151611 
z"/>
<path fill="#4DB7E5" opacity="1.000000" stroke="none" 
	d="
M113.000000,281.000000 
	C112.999992,298.984833 113.064934,316.470245 112.906685,333.953644 
	C112.889511,335.852020 112.081734,338.221130 110.794014,339.553772 
	C101.308807,349.369781 91.608330,358.977753 81.423798,369.205383 
	C81.423798,328.921448 81.423798,289.315277 81.423798,249.354004 
	C91.570816,249.354004 101.960136,249.354004 113.000000,249.354004 
	C113.000000,259.659424 113.000000,270.079712 113.000000,281.000000 
z"/>
<path fill="#FCA713" opacity="1.000000" stroke="none" 
	d="
M336.848022,479.980896 
	C336.908752,461.991119 336.969482,444.001373 337.520996,425.518311 
	C348.354065,425.030273 358.696411,425.035492 369.022247,425.023590 
	C369.005768,425.006470 368.972534,424.972534 368.981506,425.442932 
	C369.056854,440.650513 369.123260,455.387665 369.189636,470.124847 
	C369.123718,476.058167 369.057770,481.991516 368.987091,488.381958 
	C358.635712,488.885620 348.289093,488.932129 337.475220,488.469543 
	C336.954651,485.300629 336.901337,482.640747 336.848022,479.980896 
z"/>
<path fill="#F4C067" opacity="1.000000" stroke="none" 
	d="
M120.971962,392.875275 
	C120.971962,382.425537 120.971962,371.975800 120.971962,361.019531 
	C142.248199,361.019531 163.156509,361.019531 184.529938,361.550995 
	C184.994873,372.390137 184.994690,382.697784 184.997635,393.002441 
	C185.000748,392.999420 185.007385,392.992584 184.537979,392.995117 
	C176.386200,393.045624 168.703842,393.093597 160.553040,393.101318 
	C147.047073,392.999084 134.009521,392.937195 120.971962,392.875275 
z"/>
<path fill="#4DB7E5" opacity="1.000000" stroke="none" 
	d="
M344.938934,209.000000 
	C347.737488,209.000000 350.045593,209.000000 352.675842,209.000000 
	C352.675842,230.274612 352.675842,251.301071 352.675842,272.664520 
	C342.401611,272.664520 332.023376,272.664520 321.321014,272.664520 
	C321.321014,251.719696 321.321014,230.693100 321.321014,209.000000 
	C328.960541,209.000000 336.704498,209.000000 344.938934,209.000000 
z"/>
<path fill="#FCA713" opacity="1.000000" stroke="none" 
	d="
M369.189636,342.124573 
	C369.130890,348.111603 369.072144,354.098633 369.028137,360.555359 
	C358.694122,361.009827 348.345367,360.994629 337.509430,360.516296 
	C336.964172,357.362457 336.906097,354.671661 336.848022,351.980896 
	C336.900146,334.014191 336.952240,316.047485 337.005737,297.622986 
	C347.360229,297.117401 357.713287,297.069611 368.531128,297.551331 
	C369.060425,312.762054 369.125031,327.443329 369.189636,342.124573 
z"/>
<path fill="#F4C067" opacity="1.000000" stroke="none" 
	d="
M209.093185,392.928528 
	C219.417068,392.958862 229.740936,392.989197 240.529938,393.550995 
	C240.979797,404.364777 240.964554,414.647095 240.964188,424.963867 
	C240.979080,424.998322 241.031006,425.052551 240.559692,425.035828 
	C221.745834,424.997955 203.403305,424.976776 185.042633,424.490051 
	C185.018784,413.680511 185.013092,403.336548 185.007385,392.992584 
	C185.007385,392.992584 185.000748,392.999420 185.466736,393.000885 
	C193.652893,392.977753 201.373032,392.953156 209.093185,392.928528 
z"/>
<path fill="#F4C067" opacity="1.000000" stroke="none" 
	d="
M80.990677,488.833679 
	C62.538090,488.833679 44.085503,488.833679 25.316635,488.833679 
	C25.316635,478.378754 25.316635,467.990234 25.316635,456.984253 
	C30.186970,456.984253 35.115929,456.984253 40.973454,456.966797 
	C54.911167,456.997620 67.920311,457.045898 80.950882,457.553406 
	C80.978424,468.286285 80.984550,478.559998 80.990677,488.833679 
z"/>
<path fill="#FCA713" opacity="1.000000" stroke="none" 
	d="
M80.929459,457.094177 
	C67.920311,457.045898 54.911167,456.997620 41.435734,456.907745 
	C40.978226,446.594849 40.987003,436.323578 41.448380,425.551147 
	C54.910484,425.001923 67.919998,424.953857 81.402206,424.933533 
	C86.925095,424.999329 91.975296,425.037323 97.017761,425.536621 
	C97.015190,436.306854 97.020340,446.615784 96.557312,456.943665 
	C91.035904,457.006531 85.982681,457.050385 80.929459,457.094177 
z"/>
<path fill="#FCA713" opacity="1.000000" stroke="none" 
	d="
M160.980515,488.834717 
	C142.628754,488.882477 124.276978,488.930237 105.461891,488.447632 
	C104.985771,477.630463 104.972969,467.343628 105.431015,457.039215 
	C110.955116,456.999390 116.008377,456.977142 121.525124,456.969635 
	C134.999191,457.036041 148.009781,457.087708 161.015213,457.599243 
	C161.000214,468.317657 160.990372,478.576172 160.980515,488.834717 
z"/>
<path fill="#F4C067" opacity="1.000000" stroke="none" 
	d="
M240.990845,488.833679 
	C222.639404,488.882660 204.287964,488.931610 185.471344,488.449646 
	C185.024353,477.627289 185.042542,467.335876 185.524109,457.029724 
	C204.335342,456.992493 222.683182,456.969971 241.005066,456.974548 
	C240.979080,457.001678 240.949295,457.070587 240.962036,457.534668 
	C240.980148,468.277039 240.985504,478.555359 240.990845,488.833679 
z"/>
<path fill="#FCA713" opacity="1.000000" stroke="none" 
	d="
M120.507347,392.929504 
	C134.009521,392.937195 147.047073,392.999084 160.546936,393.557190 
	C161.012970,404.322510 161.016678,414.591583 160.551636,424.904633 
	C147.075821,424.980774 134.068726,425.012970 120.590988,425.034119 
	C115.066956,424.996460 110.013565,424.969849 104.970367,424.478210 
	C104.986214,413.731018 104.991867,403.448822 104.997513,393.166626 
	C110.012589,393.105682 115.027664,393.044708 120.507347,392.929504 
z"/>
<path fill="#F4C067" opacity="1.000000" stroke="none" 
	d="
M80.929504,424.905762 
	C67.919998,424.953857 54.910484,425.001923 41.434448,425.090942 
	C35.836918,425.131866 30.705914,425.131866 25.289207,425.131866 
	C25.289207,414.325348 25.289207,403.937439 25.289207,393.019531 
	C43.568851,393.019531 61.816795,393.019531 80.529877,393.550995 
	C80.973183,404.356903 80.951347,414.631317 80.929504,424.905762 
z"/>
<path fill="#80C326" opacity="1.000000" stroke="none" 
	d="
M369.555176,342.076691 
	C369.125031,327.443329 369.060425,312.762054 368.994507,297.622986 
	C388.006317,297.119629 407.019501,297.074066 426.495667,297.090057 
	C419.330353,308.627594 409.716278,318.351776 398.473572,326.059570 
	C389.516510,332.200317 379.478729,336.764679 369.555176,342.076691 
z"/>
<path fill="#80C326" opacity="1.000000" stroke="none" 
	d="
M400.911987,361.086639 
	C416.661469,361.045502 432.410919,361.004364 448.635315,360.943604 
	C452.096191,360.958954 455.082123,360.993958 458.513367,361.090271 
	C451.330994,372.626984 441.716644,382.349182 430.475983,390.058502 
	C421.519684,396.201019 411.484680,400.770782 401.497650,405.600128 
	C401.015167,390.469910 400.963562,375.778259 400.911987,361.086639 
z"/>
<path fill="#4DB7E5" opacity="1.000000" stroke="none" 
	d="
M256.002594,233.000000 
	C261.795227,233.000000 267.088806,233.000000 272.689178,233.000000 
	C272.689178,246.303940 272.689178,259.335266 272.689178,272.684509 
	C262.367157,272.684509 251.996094,272.684509 241.311050,272.684509 
	C241.311050,259.696533 241.311050,246.665161 241.311050,233.000000 
	C246.004303,233.000000 250.753937,233.000000 256.002594,233.000000 
z"/>
<path fill="#ED8515" opacity="1.000000" stroke="none" 
	d="
M185.060730,457.044434 
	C185.042542,467.335876 185.024353,477.627289 185.008392,488.376678 
	C177.310730,488.881256 169.610840,488.927856 161.445740,488.904572 
	C160.990372,478.576172 161.000214,468.317657 161.478622,457.553925 
	C166.937195,457.008331 171.927200,456.967926 177.368500,456.944885 
	C180.233429,456.989624 182.647079,457.017029 185.060730,457.044434 
z"/>
<path fill="#F5B142" opacity="1.000000" stroke="none" 
	d="
M104.960175,457.056793 
	C104.972969,467.343628 104.985771,477.630463 104.998016,488.375336 
	C97.304657,488.881836 89.611847,488.930267 81.454857,488.906189 
	C80.984550,478.559998 80.978424,468.286285 80.950882,457.553406 
	C85.982681,457.050385 91.035904,457.006531 96.997353,456.967651 
	C100.257111,457.000702 102.608643,457.028748 104.960175,457.056793 
z"/>
<path fill="#F5B142" opacity="1.000000" stroke="none" 
	d="
M241.455017,488.906189 
	C240.985504,478.555359 240.980148,468.277039 241.435013,457.513428 
	C249.543304,457.017273 257.191376,457.006409 264.839417,456.995544 
	C264.912415,464.696350 264.985382,472.397217 265.053375,480.998413 
	C265.026306,484.212219 265.004211,486.525635 264.982117,488.839081 
	C257.294495,488.885620 249.606842,488.932159 241.455017,488.906189 
z"/>
<path fill="#F5B142" opacity="1.000000" stroke="none" 
	d="
M81.402206,424.933533 
	C80.951347,414.631317 80.973183,404.356903 80.992859,393.624390 
	C88.683907,393.118011 96.377136,393.069672 104.533936,393.093994 
	C104.991867,403.448822 104.986214,413.731018 104.531136,424.496338 
	C101.729637,425.011444 99.377563,425.043365 97.025490,425.075317 
	C91.975296,425.037323 86.925095,424.999329 81.402206,424.933533 
z"/>
<path fill="#F5B142" opacity="1.000000" stroke="none" 
	d="
M240.949295,424.929413 
	C240.964554,414.647095 240.979797,404.364777 240.992905,393.624390 
	C248.744583,393.166321 256.498383,393.166321 265.019501,393.166321 
	C265.019501,403.451324 265.019501,413.774017 265.085999,424.564453 
	C265.152466,425.032196 265.009766,424.870148 264.454407,424.924561 
	C256.249146,424.962433 248.599228,424.945923 240.949295,424.929413 
z"/>
<path fill="#F5B142" opacity="1.000000" stroke="none" 
	d="
M209.052582,392.466919 
	C201.373032,392.953156 193.652893,392.977753 185.463623,393.003906 
	C184.994690,382.697784 184.994873,372.390137 184.992905,361.624390 
	C192.786026,361.166321 200.581299,361.166321 209.011993,361.166321 
	C209.011993,371.505676 209.011993,381.755463 209.052582,392.466919 
z"/>
<path fill="#69A709" opacity="1.000000" stroke="none" 
	d="
M369.038757,425.040710 
	C358.696411,425.035492 348.354065,425.030273 337.549255,425.055847 
	C324.003876,425.045776 310.921051,425.004883 297.363159,424.944580 
	C296.938507,422.565857 296.988892,420.206543 297.101135,417.407745 
	C320.762146,416.639496 344.361267,416.310760 368.456573,416.433411 
	C368.981384,419.603455 369.010071,422.322113 369.038757,425.040710 
z"/>
<path fill="#69A709" opacity="1.000000" stroke="none" 
	d="
M336.405945,351.983826 
	C336.906097,354.671661 336.964172,357.362457 337.045441,360.497131 
	C324.000977,360.966064 310.933319,360.991028 297.392212,361.025940 
	C286.508331,361.035828 276.097961,361.035828 265.039276,361.035828 
	C265.039276,358.361237 265.039276,356.113007 265.101135,353.416504 
	C288.763275,352.641083 312.363586,352.313904 336.405945,351.983826 
z"/>
<path fill="#69A709" opacity="1.000000" stroke="none" 
	d="
M265.446716,488.900818 
	C265.004211,486.525635 265.026306,484.212219 265.103821,481.466797 
	C288.761017,480.685608 312.362732,480.336395 336.406250,479.984070 
	C336.901337,482.640747 336.954651,485.300629 337.012238,488.399475 
	C313.314758,488.879791 289.613007,488.921173 265.446716,488.900818 
z"/>
<path fill="#FCA713" opacity="1.000000" stroke="none" 
	d="
M369.022278,425.023621 
	C369.010071,422.322113 368.981384,419.603455 368.900208,416.433105 
	C368.895508,397.954315 368.943359,379.927246 368.983093,361.428650 
	C379.312347,360.979828 389.649750,361.002502 400.449554,361.055908 
	C400.963562,375.778259 401.015167,390.469910 401.129913,405.639160 
	C401.121613,412.082184 401.050140,418.047516 400.491669,424.497620 
	C389.660614,424.979126 379.316589,424.975830 368.972534,424.972534 
	C368.972534,424.972534 369.005768,425.006470 369.022278,425.023621 
z"/>
<path fill="#80C326" opacity="1.000000" stroke="none" 
	d="
M368.981506,425.442932 
	C379.316589,424.975830 389.660614,424.979126 400.468811,424.961670 
	C409.221039,424.940979 417.509064,424.940979 425.797119,424.940979 
	C426.021820,425.390839 426.246521,425.840729 426.471252,426.290588 
	C411.447449,445.664276 393.375488,461.218597 369.554871,470.076233 
	C369.123260,455.387665 369.056854,440.650513 368.981506,425.442932 
z"/>
<path fill="#ED8515" opacity="1.000000" stroke="none" 
	d="
M240.964188,424.963867 
	C248.599228,424.945923 256.249146,424.962433 264.353516,424.962891 
	C264.854218,435.319092 264.900482,445.691376 264.893097,456.529602 
	C257.191376,457.006409 249.543304,457.017273 241.422272,457.049377 
	C240.949295,457.070587 240.979080,457.001678 240.995865,456.510803 
	C241.018768,445.697479 241.024887,435.375031 241.031006,425.052551 
	C241.031006,425.052551 240.979080,424.998322 240.964188,424.963867 
z"/>
<path fill="#ED8515" opacity="1.000000" stroke="none" 
	d="
M161.020386,424.860687 
	C161.016678,414.591583 161.012970,404.322510 161.015366,393.597504 
	C168.703842,393.093597 176.386200,393.045624 184.537994,392.995117 
	C185.013092,403.336548 185.018784,413.680511 184.589478,424.503387 
	C181.742050,425.012360 179.329636,425.042419 176.457748,425.048370 
	C171.005661,424.969757 166.013016,424.915222 161.020386,424.860687 
z"/>
<path fill="#FCA713" opacity="1.000000" stroke="none" 
	d="
M176.917206,425.072449 
	C179.329636,425.042419 181.742050,425.012360 184.607635,424.968933 
	C203.403305,424.976776 221.745834,424.997955 240.559677,425.035828 
	C241.024887,435.375031 241.018768,445.697479 241.021851,456.483704 
	C222.683182,456.969971 204.335342,456.992493 185.524109,457.029724 
	C182.647079,457.017029 180.233429,456.989624 177.394348,456.483704 
	C176.951675,445.694244 176.934433,435.383362 176.917206,425.072449 
z"/>
<path fill="#ED8515" opacity="1.000000" stroke="none" 
	d="
M97.017761,425.536621 
	C99.377563,425.043365 101.729637,425.011444 104.520943,424.961365 
	C110.013565,424.969849 115.066956,424.996460 120.571136,425.497803 
	C121.035172,436.299988 121.048409,446.627411 121.061638,456.954895 
	C116.008377,456.977142 110.955116,456.999390 105.431015,457.039215 
	C102.608643,457.028748 100.257111,457.000702 97.465530,456.948669 
	C97.020340,446.615784 97.015190,436.306854 97.017761,425.536621 
z"/>
<path fill="#F4C067" opacity="1.000000" stroke="none" 
	d="
M121.525124,456.969604 
	C121.048409,446.627411 121.035172,436.299988 121.041786,425.508850 
	C134.068726,425.012970 147.075821,424.980774 160.551651,424.904633 
	C166.013016,424.915222 171.005661,424.969757 176.457733,425.048370 
	C176.934433,435.383362 176.951675,445.694244 176.943054,456.466370 
	C171.927200,456.967926 166.937195,457.008331 161.483780,457.094055 
	C148.009781,457.087708 134.999191,457.036041 121.525124,456.969604 
z"/>
</svg>