<svg version="1.1" id="Layer_1" xmlns="http://www.w3.org/2000/svg" xmlns:xlink="http://www.w3.org/1999/xlink" x="0px" y="0px"
	 width="100%" viewBox="0 0 512 512" enable-background="new 0 0 512 512" xml:space="preserve">
    <style>
        .icon-mid-white-color-change{
            fill: #6F7781;
        }
        @media (prefers-color-scheme: dark) {
            .icon-mid-white-color-change{
                fill: #afafaf;
            }
        }
    </style>
<path class="icon-mid-white-color-change" opacity="1.000000" stroke="none" 
	d="
M211.000000,471.000366 
	C196.001205,471.000336 181.498932,471.203094 167.004425,470.953888 
	C143.773026,470.554504 121.199852,466.949280 100.417435,455.752899 
	C75.081398,442.103302 58.325623,421.244080 50.233669,393.820190 
	C47.103977,383.213562 44.483940,372.034882 44.264526,361.064117 
	C43.312668,313.471893 43.303150,265.860413 43.015675,218.255539 
	C42.915039,201.590881 42.816338,184.922577 43.043819,168.260406 
	C43.372406,144.192581 46.955265,120.891510 58.822483,99.345215 
	C68.152008,82.406387 81.056770,69.182343 97.759377,59.733906 
	C114.878929,50.049614 133.384155,44.448071 153.083893,44.087250 
	C188.351364,43.441284 223.628128,43.230522 258.902100,43.031864 
	C287.232178,42.872311 315.564209,42.912037 343.894684,43.029648 
	C363.568573,43.111320 382.890076,45.399761 401.400055,52.700081 
	C429.000427,63.585629 448.764221,82.407639 460.054535,109.945572 
	C466.215088,124.971672 469.906586,140.528275 470.003387,156.848312 
	C470.329224,211.783432 470.749054,266.718170 470.940247,321.653748 
	C470.989349,335.759857 471.164978,349.948273 469.824951,363.959473 
	C466.920837,394.323975 456.595642,421.647186 433.027985,442.363892 
	C416.983063,456.467865 398.022949,465.044220 376.914886,467.845917 
	C362.553406,469.752167 347.979614,470.723846 333.488708,470.863647 
	C292.829163,471.255859 252.163345,471.000366 211.000000,471.000366 
M186.500000,177.000000 
	C243.126862,177.000000 299.753754,177.019974 356.380524,176.954926 
	C360.144318,176.950607 364.022644,176.762177 367.647827,175.858063 
	C376.336212,173.691269 381.450043,162.745377 377.763397,155.129486 
	C373.813507,146.969696 366.949036,145.062073 359.119659,145.051422 
	C292.999603,144.961563 226.879333,144.980865 160.759201,145.042999 
	C156.329880,145.047150 151.872650,145.455353 147.478256,146.046310 
	C139.041931,147.180878 132.900208,156.696198 135.408371,164.803238 
	C137.905487,172.874527 143.644531,176.648315 154.023895,176.935364 
	C164.508514,177.225311 175.007370,176.999741 186.500000,177.000000 
M157.603333,273.000000 
	C224.060928,273.000000 290.518524,273.016449 356.976105,272.954987 
	C360.573456,272.951660 364.294189,272.764374 367.742859,271.851654 
	C376.386200,269.564056 381.464661,258.721191 377.716034,251.044006 
	C373.724762,242.869827 366.838470,241.060135 359.019714,241.049866 
	C292.728729,240.962814 226.437561,240.982468 160.146530,241.042435 
	C156.050003,241.046143 151.923721,241.449631 147.863693,242.032364 
	C136.996262,243.592133 131.523758,255.643631 137.283951,264.853851 
	C141.861816,272.173584 149.066132,272.951111 157.603333,273.000000 
M151.037216,368.918152 
	C219.669205,368.945435 288.301208,368.988678 356.933167,368.954956 
	C360.530945,368.953186 364.245697,368.751343 367.702911,367.857300 
	C376.370575,365.615784 381.461761,354.701019 377.736450,347.074890 
	C373.752563,338.919525 366.897034,337.065582 359.053833,337.046967 
	C317.241333,336.947571 275.428497,336.999969 233.615753,337.000031 
	C207.128799,337.000092 180.641495,336.920776 154.155045,337.035217 
	C141.447983,337.090118 134.772736,344.515015 134.993546,353.488342 
	C135.190292,361.483307 140.120499,366.431519 151.037216,368.918152 
z"/>
</svg>