<svg version="1.1" id="Layer_1" xmlns="http://www.w3.org/2000/svg" xmlns:xlink="http://www.w3.org/1999/xlink" x="0px" y="0px"
	 width="100%" viewBox="0 0 512 512" enable-background="new 0 0 512 512" xml:space="preserve">
<path fill="#DBF1D0" opacity="1.000000" stroke="none" 
	d="
M417.531342,1.000000 
	C417.995972,88.619476 417.991974,176.238953 417.640381,264.266663 
	C405.838074,257.479950 394.383362,250.285004 382.942871,242.616302 
	C382.963562,176.698578 382.979675,111.254601 382.965149,45.810631 
	C382.963196,36.909084 382.015350,36.016201 373.318726,36.015560 
	C301.546814,36.010254 229.774918,36.006344 158.002777,35.533226 
	C158.002304,32.256161 157.921371,29.445133 158.016907,26.640114 
	C158.308060,18.092165 158.667282,9.546534 159.000000,1.000000 
	C245.020889,1.000000 331.041779,1.000000 417.531342,1.000000 
z"/>
<path fill="#E8B801" opacity="1.000000" stroke="none" 
	d="
M346.454102,513.000000 
	C342.908691,509.771912 340.040283,506.287354 336.680939,503.367706 
	C329.054413,496.739441 321.181091,490.395386 313.418610,483.923187 
	C309.286224,480.477661 305.175934,477.005646 300.787354,472.927124 
	C291.057281,464.182037 281.703369,455.925568 272.109436,447.958099 
	C256.325256,434.849792 246.247833,418.342224 241.801117,397.997009 
	C241.152405,392.868927 240.504517,388.094269 239.927185,382.835602 
	C239.949188,375.673035 239.900650,368.994507 239.927582,361.830444 
	C239.950394,356.668304 239.897720,351.991699 239.917877,346.831635 
	C239.943665,339.644989 239.896606,332.941803 239.926010,325.759613 
	C239.950424,320.601135 239.898392,315.921631 239.918671,310.763855 
	C240.000916,306.820648 239.679428,303.313293 240.116043,299.903076 
	C240.534225,296.636780 241.739777,293.471313 242.958771,290.130188 
	C251.118423,285.093994 258.918579,280.189148 267.046570,275.172119 
	C268.584442,274.431091 269.794464,273.802246 271.005188,273.631165 
	C271.335938,306.700256 271.532379,339.313629 272.044952,371.922028 
	C272.364716,392.266174 279.969421,409.923676 294.088196,424.372559 
	C302.649963,433.134521 312.220978,440.926910 321.505432,448.962097 
	C334.545990,460.248016 347.832703,471.250519 360.822571,482.593628 
	C365.504364,486.681946 369.632233,491.404633 374.012878,495.837830 
	C367.806305,501.382446 361.599701,506.927063 355.696564,512.735840 
	C352.969391,513.000000 349.938812,513.000000 346.454102,513.000000 
z"/>
<path fill="#C1E9AF" opacity="1.000000" stroke="none" 
	d="
M158.531342,1.000000 
	C158.667282,9.546534 158.308060,18.092165 158.016907,26.640114 
	C157.921371,29.445133 158.002304,32.256161 157.534149,35.553757 
	C145.745987,36.157993 134.426224,36.272915 123.039192,36.269066 
	C122.971924,36.150295 122.944710,35.878658 122.944710,35.878658 
	C122.961365,26.138048 122.954460,16.397284 123.018074,6.656981 
	C123.028587,5.047393 123.347809,3.439820 123.262184,1.415658 
	C134.687561,1.000000 146.375122,1.000000 158.531342,1.000000 
z"/>
<path fill="#FAC600" opacity="1.000000" stroke="none" 
	d="
M374.346924,495.816101 
	C369.632233,491.404633 365.504364,486.681946 360.822571,482.593628 
	C347.832703,471.250519 334.545990,460.248016 321.505432,448.962097 
	C312.220978,440.926910 302.649963,433.134521 294.088196,424.372559 
	C279.969421,409.923676 272.364716,392.266174 272.044952,371.922028 
	C271.532379,339.313629 271.335938,306.700256 271.288147,273.427887 
	C296.708008,257.109863 321.845612,241.452911 347.353882,225.690491 
	C350.515533,226.007263 353.718323,225.692612 356.024994,226.981613 
	C365.145386,232.078171 373.984955,237.677292 382.928650,243.090057 
	C394.383362,250.285004 405.838074,257.479950 417.623779,264.720367 
	C428.324860,271.035156 438.312805,278.093262 449.171722,283.353607 
	C460.199615,288.695770 462.707916,296.474976 462.275970,308.042267 
	C461.369720,332.309204 462.104919,356.634125 461.971008,380.934143 
	C461.841248,404.476471 453.819244,425.068542 436.841492,441.421631 
	C425.064819,452.764893 412.178040,462.953308 399.826050,473.702301 
	C391.409637,481.026398 383.060272,488.427612 374.346924,495.816101 
M365.182709,293.076141 
	C356.496704,290.973633 347.745514,290.635651 338.997192,292.491364 
	C303.547607,300.010956 282.190735,332.290436 289.038757,367.896576 
	C295.601410,402.018890 333.022705,425.311462 366.741394,415.813049 
	C369.242920,414.909668 371.771240,414.073822 374.241760,413.092316 
	C397.633270,403.799469 413.690918,380.565002 413.930664,355.709320 
	C414.215759,326.147400 395.799255,302.171204 365.182709,293.076141 
z"/>
<path fill="#DEF6FD" opacity="1.000000" stroke="none" 
	d="
M346.983215,225.795959 
	C321.845612,241.452911 296.708008,257.109863 271.287445,272.970093 
	C269.794464,273.802246 268.584442,274.431091 266.597717,275.140503 
	C261.660309,275.199005 257.499603,275.159515 253.338882,275.157959 
	C235.362274,275.151093 217.385620,275.131348 199.409088,275.168915 
	C193.337677,275.181610 190.098038,277.706024 189.892197,282.362183 
	C189.676804,287.234375 192.812103,290.124756 198.660095,290.158600 
	C213.306213,290.243408 227.952850,290.233459 242.599274,290.261536 
	C241.739777,293.471313 240.534225,296.636780 240.116043,299.903076 
	C239.679428,303.313293 240.000916,306.820648 239.459702,310.754456 
	C198.164673,311.220581 157.400925,311.210754 116.637177,311.221954 
	C110.039986,311.223785 106.366325,313.952332 106.308136,318.765198 
	C106.250298,323.549286 109.868240,326.187439 116.560028,326.236023 
	C117.724648,326.244476 118.889374,326.237701 120.054054,326.237732 
	C159.985886,326.238068 199.917725,326.238312 239.849564,326.238617 
	C239.896606,332.941803 239.943665,339.644989 239.458878,346.819031 
	C198.330658,347.285461 157.734268,347.276917 117.137894,347.280518 
	C110.123871,347.281158 106.359703,349.927002 106.306877,354.821381 
	C106.254059,359.716187 109.920799,362.268768 117.064697,362.307068 
	C118.229309,362.313293 119.393990,362.308105 120.558640,362.308197 
	C160.323135,362.310791 200.087616,362.313385 239.852112,362.315979 
	C239.900650,368.994507 239.949188,375.673035 239.467422,382.821136 
	C198.437683,383.285767 157.938248,383.276245 117.438820,383.280273 
	C110.286850,383.280975 106.566391,385.752350 106.307686,390.591705 
	C106.046745,395.472961 109.624763,398.324005 116.808578,398.334686 
	C158.472961,398.396759 200.137482,398.356262 241.801956,398.350464 
	C246.247833,418.342224 256.325256,434.849792 272.109436,447.958099 
	C281.703369,455.925568 291.057281,464.182037 300.606323,472.613831 
	C230.433075,472.941559 160.172546,472.964203 89.243668,472.593964 
	C88.050011,470.010712 87.066208,467.820587 87.064964,465.629913 
	C86.991600,336.651611 86.994003,207.673294 87.043182,78.694984 
	C87.044044,76.422646 87.700584,74.150543 88.514603,71.902603 
	C99.965904,71.912483 110.953789,71.898087 122.415123,71.917702 
	C195.294464,71.962860 267.700348,71.972527 340.106232,71.987541 
	C346.986877,71.988968 347.000977,72.004486 347.000641,78.986694 
	C346.998352,127.923119 346.989777,176.859543 346.983215,225.795959 
M155.500000,239.112869 
	C143.007690,239.112900 130.515366,239.110046 118.023056,239.113953 
	C110.100067,239.116425 106.237488,241.656464 106.327225,246.790436 
	C106.415253,251.826065 109.972923,254.122650 117.726967,254.122986 
	C172.526398,254.125397 227.325836,254.124954 282.125275,254.121094 
	C283.623688,254.120987 285.139069,254.206635 286.617188,254.019882 
	C290.385773,253.543732 292.673798,251.381805 293.104919,247.578491 
	C293.563141,243.535889 291.686249,240.741226 287.849792,239.612640 
	C285.986267,239.064438 283.905121,239.132233 281.922424,239.131088 
	C240.114944,239.107010 198.307480,239.112915 155.500000,239.112869 
M182.500000,182.035126 
	C215.644577,182.035095 248.789139,182.035767 281.933716,182.032822 
	C283.432343,182.032684 284.949799,182.144913 286.425995,181.953888 
	C290.386475,181.441437 292.807251,179.203659 293.124115,175.149597 
	C293.464508,170.794647 291.097076,168.259399 287.064240,167.256851 
	C285.641937,166.903290 284.084778,167.041367 282.589172,167.041138 
	C227.459244,167.032410 172.329315,167.031784 117.199387,167.043716 
	C115.539497,167.044067 113.803795,166.905930 112.234795,167.324600 
	C108.408760,168.345505 106.187752,171.038956 106.429329,174.996872 
	C106.668602,178.917145 109.045486,181.400375 113.050865,181.949402 
	C114.524330,182.151398 116.044022,182.032227 117.542625,182.032471 
	C138.861755,182.036102 160.180878,182.035065 182.500000,182.035126 
M136.500000,218.077118 
	C184.800552,218.077118 233.101089,218.077637 281.401642,218.074860 
	C283.066803,218.074753 284.749115,218.187607 286.393768,217.994843 
	C290.372620,217.528458 292.793030,215.274521 293.123077,211.231140 
	C293.477173,206.893478 291.146667,204.300705 287.096954,203.315445 
	C285.513733,202.930283 283.786926,203.079971 282.125488,203.079468 
	C246.982666,203.068726 211.839859,203.071106 176.697037,203.071396 
	C156.377502,203.071564 136.057907,203.048355 115.738441,203.088547 
	C109.956078,203.099991 106.388847,206.005066 106.311325,210.525284 
	C106.232735,215.107697 109.737053,218.023315 115.513641,218.063843 
	C122.175468,218.110580 128.837860,218.076279 136.500000,218.077118 
M177.500122,114.427132 
	C173.670288,114.427040 169.840393,114.415718 166.010620,114.429512 
	C160.350128,114.449905 154.679596,114.290466 149.032425,114.580032 
	C144.339600,114.820656 141.256241,118.121750 141.326157,122.141487 
	C141.396027,126.159454 144.592819,129.204178 149.225113,129.613800 
	C150.217163,129.701523 151.222092,129.651489 152.221100,129.651535 
	C183.858856,129.653152 215.496643,129.662933 247.134354,129.629944 
	C249.114883,129.627884 251.178223,129.580261 253.057297,129.043579 
	C256.487213,128.063950 258.196808,125.543045 258.157440,121.941521 
	C258.117981,118.330437 256.325287,115.859459 252.874146,114.984818 
	C250.813980,114.462708 248.589188,114.451614 246.438049,114.448349 
	C223.792114,114.413940 201.146133,114.427475 177.500122,114.427132 
M170.238892,290.175598 
	C176.687210,289.961517 179.996338,287.438232 179.983154,282.745422 
	C179.971054,278.436035 176.763367,275.235840 171.761627,275.208862 
	C152.624008,275.105560 133.484970,275.096527 114.347633,275.226135 
	C109.480614,275.259064 106.154709,278.805389 106.333061,283.005005 
	C106.509132,287.150696 109.606216,289.918854 114.382034,290.151764 
	C115.710457,290.216553 117.044220,290.176636 118.375526,290.176697 
	C135.350296,290.177612 152.325073,290.177063 170.238892,290.175598 
z"/>
<path fill="#C8EFFE" opacity="1.000000" stroke="none" 
	d="
M88.051178,71.878334 
	C87.700584,74.150543 87.044044,76.422646 87.043182,78.694984 
	C86.994003,207.673294 86.991600,336.651611 87.064964,465.629913 
	C87.066208,467.820587 88.050011,470.010712 88.779335,472.518555 
	C78.325645,472.892426 67.667496,472.908630 57.010498,473.027710 
	C53.425968,473.067780 51.829201,471.424713 51.991512,467.908752 
	C52.029881,467.077545 51.997375,466.243103 51.997375,465.410126 
	C51.997383,336.466095 52.021027,207.522018 51.929497,78.578041 
	C51.924782,71.935432 53.097984,70.745598 59.520218,70.932129 
	C68.342201,71.188347 77.177338,70.991257 86.684731,71.068970 
	C87.592140,71.392456 87.821655,71.635399 88.051178,71.878334 
z"/>
<path fill="#FEE6C3" opacity="1.000000" stroke="none" 
	d="
M88.514603,71.902603 
	C87.821655,71.635399 87.592140,71.392456 87.146591,71.018349 
	C86.948624,61.243923 87.119659,51.597466 86.917900,41.958813 
	C86.822136,37.383965 88.664093,35.845066 93.089455,35.935398 
	C102.729042,36.132172 112.375557,35.989887 122.481979,35.932411 
	C122.944710,35.878658 122.971924,36.150295 122.919716,36.641388 
	C122.578926,39.081013 122.061691,41.027054 122.040421,42.978500 
	C121.935410,52.612782 121.961700,62.248486 121.941673,71.883690 
	C110.953789,71.898087 99.965904,71.912483 88.514603,71.902603 
z"/>
<path fill="#FEF3DE" opacity="1.000000" stroke="none" 
	d="
M122.415123,71.917702 
	C121.961700,62.248486 121.935410,52.612782 122.040421,42.978500 
	C122.061691,41.027054 122.578926,39.081013 122.986984,36.760155 
	C134.426224,36.272915 145.745987,36.157993 157.534393,36.022541 
	C229.774918,36.006344 301.546814,36.010254 373.318726,36.015560 
	C382.015350,36.016201 382.963196,36.909084 382.965149,45.810631 
	C382.979675,111.254601 382.963562,176.698578 382.942871,242.616302 
	C373.984955,237.677292 365.145386,232.078171 356.024994,226.981613 
	C353.718323,225.692612 350.515533,226.007263 347.353882,225.690491 
	C346.989777,176.859543 346.998352,127.923119 347.000641,78.986694 
	C347.000977,72.004486 346.986877,71.988968 340.106232,71.987541 
	C267.700348,71.972527 195.294464,71.962860 122.415123,71.917702 
z"/>
<path fill="#07C1FA" opacity="1.000000" stroke="none" 
	d="
M241.801117,397.997009 
	C200.137482,398.356262 158.472961,398.396759 116.808578,398.334686 
	C109.624763,398.324005 106.046745,395.472961 106.307686,390.591705 
	C106.566391,385.752350 110.286850,383.280975 117.438820,383.280273 
	C157.938248,383.276245 198.437683,383.285767 239.396851,383.305176 
	C240.504517,388.094269 241.152405,392.868927 241.801117,397.997009 
z"/>
<path fill="#06C1FA" opacity="1.000000" stroke="none" 
	d="
M239.926010,325.759613 
	C199.917725,326.238312 159.985886,326.238068 120.054054,326.237732 
	C118.889374,326.237701 117.724648,326.244476 116.560028,326.236023 
	C109.868240,326.187439 106.250298,323.549286 106.308136,318.765198 
	C106.366325,313.952332 110.039986,311.223785 116.637177,311.221954 
	C157.400925,311.210754 198.164673,311.220581 239.387390,311.232788 
	C239.898392,315.921631 239.950424,320.601135 239.926010,325.759613 
z"/>
<path fill="#07C1FA" opacity="1.000000" stroke="none" 
	d="
M239.927582,361.830444 
	C200.087616,362.313385 160.323135,362.310791 120.558640,362.308197 
	C119.393990,362.308105 118.229309,362.313293 117.064697,362.307068 
	C109.920799,362.268768 106.254059,359.716187 106.306877,354.821381 
	C106.359703,349.927002 110.123871,347.281158 117.137894,347.280518 
	C157.734268,347.276917 198.330658,347.285461 239.386032,347.302490 
	C239.897720,351.991699 239.950394,356.668304 239.927582,361.830444 
z"/>
<path fill="#07C1F9" opacity="1.000000" stroke="none" 
	d="
M242.958786,290.130188 
	C227.952850,290.233459 213.306213,290.243408 198.660095,290.158600 
	C192.812103,290.124756 189.676804,287.234375 189.892197,282.362183 
	C190.098038,277.706024 193.337677,275.181610 199.409088,275.168915 
	C217.385620,275.131348 235.362274,275.151093 253.338882,275.157959 
	C257.499603,275.159515 261.660309,275.199005 266.269897,275.252686 
	C258.918579,280.189148 251.118423,285.093994 242.958786,290.130188 
z"/>
<path fill="#50C124" opacity="1.000000" stroke="none" 
	d="
M365.990509,293.296692 
	C395.799255,302.171204 414.215759,326.147400 413.930664,355.709320 
	C413.690918,380.565002 397.633270,403.799469 374.241760,413.092316 
	C371.771240,414.073822 369.242920,414.909668 366.278748,415.482361 
	C364.699554,414.506409 363.633484,413.745209 362.458618,413.234100 
	C352.447296,408.878937 343.601685,402.989655 336.775269,394.292511 
	C328.123413,383.269684 322.701385,371.104218 323.382690,356.964661 
	C329.897156,363.363831 336.057678,369.657959 342.358063,375.808838 
	C345.968719,379.333771 349.984741,379.620697 353.406799,376.283600 
	C363.161377,366.771149 372.788422,357.124512 382.312317,347.380798 
	C385.364685,344.257965 385.183075,339.895752 382.446136,337.038696 
	C379.600494,334.068176 375.171722,334.010681 371.707367,336.966217 
	C370.573059,337.933868 369.555847,339.040771 368.503876,340.102631 
	C361.858734,346.810181 355.218933,353.523010 348.067627,360.749084 
	C343.937927,356.495667 340.193939,352.533234 336.332520,348.688782 
	C331.318970,343.697327 328.628174,343.629333 323.047791,347.711548 
	C326.568817,322.935303 339.810852,306.015228 362.194794,296.042206 
	C363.590698,295.420288 364.731201,294.225159 365.990509,293.296692 
z"/>
<path fill="#48A920" opacity="1.000000" stroke="none" 
	d="
M365.586609,293.186401 
	C364.731201,294.225159 363.590698,295.420288 362.194794,296.042206 
	C339.810852,306.015228 326.568817,322.935303 322.978271,348.081848 
	C322.980652,351.515411 323.033997,354.157471 323.087341,356.799561 
	C322.701385,371.104218 328.123413,383.269684 336.775269,394.292511 
	C343.601685,402.989655 352.447296,408.878937 362.458618,413.234100 
	C363.633484,413.745209 364.699554,414.506409 365.909912,415.477234 
	C333.022705,425.311462 295.601410,402.018890 289.038757,367.896576 
	C282.190735,332.290436 303.547607,300.010956 338.997192,292.491364 
	C347.745514,290.635651 356.496704,290.973633 365.586609,293.186401 
z"/>
<path fill="#04D1FB" opacity="1.000000" stroke="none" 
	d="
M156.000000,239.112915 
	C198.307480,239.112915 240.114944,239.107010 281.922424,239.131088 
	C283.905121,239.132233 285.986267,239.064438 287.849792,239.612640 
	C291.686249,240.741226 293.563141,243.535889 293.104919,247.578491 
	C292.673798,251.381805 290.385773,253.543732 286.617188,254.019882 
	C285.139069,254.206635 283.623688,254.120987 282.125275,254.121094 
	C227.325836,254.124954 172.526398,254.125397 117.726967,254.122986 
	C109.972923,254.122650 106.415253,251.826065 106.327225,246.790436 
	C106.237488,241.656464 110.100067,239.116425 118.023056,239.113953 
	C130.515366,239.110046 143.007690,239.112900 156.000000,239.112915 
z"/>
<path fill="#02D0FB" opacity="1.000000" stroke="none" 
	d="
M182.000000,182.035126 
	C160.180878,182.035065 138.861755,182.036102 117.542625,182.032471 
	C116.044022,182.032227 114.524330,182.151398 113.050865,181.949402 
	C109.045486,181.400375 106.668602,178.917145 106.429329,174.996872 
	C106.187752,171.038956 108.408760,168.345505 112.234795,167.324600 
	C113.803795,166.905930 115.539497,167.044067 117.199387,167.043716 
	C172.329315,167.031784 227.459244,167.032410 282.589172,167.041138 
	C284.084778,167.041367 285.641937,166.903290 287.064240,167.256851 
	C291.097076,168.259399 293.464508,170.794647 293.124115,175.149597 
	C292.807251,179.203659 290.386475,181.441437 286.425995,181.953888 
	C284.949799,182.144913 283.432343,182.032684 281.933716,182.032822 
	C248.789139,182.035767 215.644577,182.035095 182.000000,182.035126 
z"/>
<path fill="#03D0FB" opacity="1.000000" stroke="none" 
	d="
M136.000000,218.077148 
	C128.837860,218.076279 122.175468,218.110580 115.513641,218.063843 
	C109.737053,218.023315 106.232735,215.107697 106.311325,210.525284 
	C106.388847,206.005066 109.956078,203.099991 115.738441,203.088547 
	C136.057907,203.048355 156.377502,203.071564 176.697037,203.071396 
	C211.839859,203.071106 246.982666,203.068726 282.125488,203.079468 
	C283.786926,203.079971 285.513733,202.930283 287.096954,203.315445 
	C291.146667,204.300705 293.477173,206.893478 293.123077,211.231140 
	C292.793030,215.274521 290.372620,217.528458 286.393768,217.994843 
	C284.749115,218.187607 283.066803,218.074753 281.401642,218.074860 
	C233.101089,218.077637 184.800552,218.077118 136.000000,218.077148 
z"/>
<path fill="#08D1FB" opacity="1.000000" stroke="none" 
	d="
M178.000137,114.427444 
	C201.146133,114.427475 223.792114,114.413940 246.438049,114.448349 
	C248.589188,114.451614 250.813980,114.462708 252.874146,114.984818 
	C256.325287,115.859459 258.117981,118.330437 258.157440,121.941521 
	C258.196808,125.543045 256.487213,128.063950 253.057297,129.043579 
	C251.178223,129.580261 249.114883,129.627884 247.134354,129.629944 
	C215.496643,129.662933 183.858856,129.653152 152.221100,129.651535 
	C151.222092,129.651489 150.217163,129.701523 149.225113,129.613800 
	C144.592819,129.204178 141.396027,126.159454 141.326157,122.141487 
	C141.256241,118.121750 144.339600,114.820656 149.032425,114.580032 
	C154.679596,114.290466 160.350128,114.449905 166.010620,114.429512 
	C169.840393,114.415718 173.670288,114.427040 178.000137,114.427444 
z"/>
<path fill="#05C1FA" opacity="1.000000" stroke="none" 
	d="
M169.769379,290.176270 
	C152.325073,290.177063 135.350296,290.177612 118.375526,290.176697 
	C117.044220,290.176636 115.710457,290.216553 114.382034,290.151764 
	C109.606216,289.918854 106.509132,287.150696 106.333061,283.005005 
	C106.154709,278.805389 109.480614,275.259064 114.347633,275.226135 
	C133.484970,275.096527 152.624008,275.105560 171.761627,275.208862 
	C176.763367,275.235840 179.971054,278.436035 179.983154,282.745422 
	C179.996338,287.438232 176.687210,289.961517 169.769379,290.176270 
z"/>
<path fill="#FDFEFC" opacity="1.000000" stroke="none" 
	d="
M323.382660,356.964661 
	C323.033997,354.157471 322.980652,351.515411 322.996887,348.503021 
	C328.628174,343.629333 331.318970,343.697327 336.332520,348.688782 
	C340.193939,352.533234 343.937927,356.495667 348.067627,360.749084 
	C355.218933,353.523010 361.858734,346.810181 368.503876,340.102631 
	C369.555847,339.040771 370.573059,337.933868 371.707367,336.966217 
	C375.171722,334.010681 379.600494,334.068176 382.446136,337.038696 
	C385.183075,339.895752 385.364685,344.257965 382.312317,347.380798 
	C372.788422,357.124512 363.161377,366.771149 353.406799,376.283600 
	C349.984741,379.620697 345.968719,379.333771 342.358063,375.808838 
	C336.057678,369.657959 329.897156,363.363831 323.382660,356.964661 
z"/>
</svg>