<svg version="1.1" id="Layer_1" xmlns="http://www.w3.org/2000/svg" xmlns:xlink="http://www.w3.org/1999/xlink" x="0px" y="0px"
	 width="100%" viewBox="0 0 512 512" enable-background="new 0 0 512 512" xml:space="preserve">
<path fill="#FFDD40" opacity="1.000000" stroke="none" 
	d="
M225.468658,513.000000 
	C224.356384,512.335388 223.777710,511.171448 223.059784,511.078064 
	C193.131744,507.185516 165.010025,497.770752 138.680161,483.141083 
	C130.253845,478.459229 122.333641,472.866455 114.325623,467.141663 
	C116.305954,461.109924 118.539383,455.723785 119.904518,450.125916 
	C123.952621,433.526123 132.450653,420.932922 148.793762,413.955078 
	C162.825989,407.963867 176.467880,401.045380 190.197891,394.363342 
	C202.466873,388.392365 202.169418,388.564667 212.172882,397.469574 
	C218.007950,402.663818 223.094421,410.152252 233.024734,408.343689 
	C235.507675,416.045990 237.803360,423.441315 240.070496,431.314758 
	C240.106018,446.926636 240.170105,462.060394 240.187347,477.636841 
	C240.140945,481.399719 239.938751,484.735779 240.197311,488.035736 
	C240.470062,491.516602 242.111008,494.053101 246.107529,494.055969 
	C253.080917,494.060974 260.054810,494.100677 267.027435,494.026398 
	C270.205353,493.992523 271.961792,492.229156 272.001709,489.037598 
	C272.051483,485.055298 271.953552,481.071136 271.943604,476.614197 
	C271.980286,464.379608 271.891663,452.617401 272.033936,440.857941 
	C272.173553,429.322113 274.070770,418.160187 280.398804,408.006958 
	C285.206116,409.372955 288.869751,408.003235 292.110535,404.948853 
	C294.401245,402.789948 296.653839,400.572632 299.098511,398.598175 
	C310.825836,389.126648 319.931915,377.354950 328.411621,365.077362 
	C336.489624,353.381348 341.906891,340.394012 346.444885,326.901428 
	C370.742462,336.379761 394.711060,345.673218 418.545227,355.299591 
	C430.242584,360.024017 439.914917,367.860748 446.488159,378.522797 
	C451.842346,387.207428 455.609985,396.870117 459.912781,406.398987 
	C455.056671,412.741150 450.351440,418.769989 445.684570,424.828369 
	C431.928040,442.686584 414.994171,457.107574 396.695190,470.030884 
	C382.892731,479.778595 368.024811,487.574097 352.490265,494.205017 
	C332.886200,502.573029 312.571533,508.206177 291.460327,511.071930 
	C290.569397,511.192871 289.816956,512.334106 289.000000,513.000000 
	C267.979095,513.000000 246.958206,513.000000 225.468658,513.000000 
z"/>
<path fill="#C8CDFB" opacity="1.000000" stroke="none" 
	d="
M166.626648,40.099075 
	C184.640244,20.255016 206.529785,7.355153 233.155289,2.897518 
	C233.703842,2.805682 234.147980,2.090257 234.320419,1.332874 
	C240.687637,1.000000 247.375290,1.000000 254.369080,1.309988 
	C249.460220,7.863793 250.020111,14.305282 253.748993,20.964375 
	C253.310837,21.148800 253.140182,21.233252 252.558395,21.268263 
	C250.165756,21.431002 248.186447,21.666826 246.202423,21.851810 
	C217.413635,24.535965 194.138031,37.514587 176.080109,59.864094 
	C161.008255,78.517853 154.583527,100.294571 153.453033,123.998505 
	C147.362274,124.661469 141.732483,125.320427 136.062485,125.514435 
	C135.473663,107.918594 138.386581,91.434578 144.765549,75.489731 
	C150.007294,62.387470 157.817307,50.954769 166.626648,40.099075 
z"/>
<path fill="#E2E6FB" opacity="1.000000" stroke="none" 
	d="
M254.016510,20.864399 
	C250.020111,14.305282 249.460220,7.863793 254.837616,1.309988 
	C262.354248,1.000000 269.708496,1.000000 277.531372,0.999999 
	C278.302185,1.650402 278.517822,2.809839 278.918976,2.878022 
	C296.796143,5.916639 312.628693,13.631962 327.551880,24.322126 
	C321.663574,28.649296 315.594177,32.533699 309.171204,36.217487 
	C292.013062,25.676775 273.625000,21.063650 254.016510,20.864399 
z"/>
<path fill="#FF4155" opacity="1.000000" stroke="none" 
	d="
M166.266541,40.050911 
	C157.817307,50.954769 150.007294,62.387470 144.765549,75.489731 
	C138.386581,91.434578 135.473663,107.918594 135.835510,125.836670 
	C135.150681,128.505325 134.249908,130.381088 134.223145,132.269241 
	C134.096695,141.187790 134.209381,150.109726 134.154083,159.490814 
	C134.055313,174.433044 133.980820,188.915176 134.045319,203.396698 
	C134.083603,211.995773 137.866028,218.584869 145.801208,222.046173 
	C150.295227,224.006439 155.250778,224.908676 160.222534,226.511215 
	C165.537918,235.002029 169.303482,236.434296 178.919647,234.144653 
	C182.662491,248.281555 189.077591,260.664154 197.479202,272.086884 
	C199.313065,274.580200 200.831009,277.305908 202.356339,280.367432 
	C200.795624,288.834717 199.373032,296.859161 197.624023,304.770447 
	C195.484131,305.024139 193.313858,304.876099 191.916824,305.844025 
	C184.545334,310.951233 177.285416,316.231964 170.191360,321.717072 
	C168.681885,322.884186 168.022568,325.150787 166.586517,326.958435 
	C165.560089,327.170502 164.891235,327.266144 164.281265,327.509369 
	C142.070786,336.367310 119.694496,344.842438 97.752136,354.321899 
	C89.985687,357.677124 82.721008,362.824493 76.210968,368.319153 
	C64.536522,378.172791 58.747669,391.940765 53.776409,406.005737 
	C37.217434,381.731659 25.534674,355.210114 18.496405,326.772736 
	C15.727077,315.583588 14.053918,303.999298 13.179437,292.496307 
	C12.086877,278.124603 11.396633,263.598145 12.210601,249.233551 
	C13.580616,225.056046 19.169115,201.598724 28.028307,179.015839 
	C34.588791,162.292557 42.855556,146.440567 52.837250,131.470566 
	C63.569290,115.375244 75.815781,100.518188 90.095871,87.531479 
	C109.904495,69.516991 131.992493,54.763142 156.536392,43.855957 
	C159.621292,42.485039 162.781265,41.283020 166.266541,40.050911 
z"/>
<path fill="#FFC839" opacity="1.000000" stroke="none" 
	d="
M53.958450,406.314972 
	C58.747669,391.940765 64.536522,378.172791 76.210968,368.319153 
	C82.721008,362.824493 89.985687,357.677124 97.752136,354.321899 
	C119.694496,344.842438 142.070786,336.367310 164.281265,327.509369 
	C164.891235,327.266144 165.560089,327.170502 166.645477,327.338287 
	C173.417038,350.774353 186.068268,370.105988 202.102371,387.549500 
	C205.579163,380.333923 208.291229,373.311523 212.198044,367.032532 
	C215.401520,361.883881 219.589951,356.888275 227.310776,358.143402 
	C229.729416,359.835968 231.857925,361.372864 234.274536,363.099121 
	C236.343582,364.498505 238.049957,365.841431 239.920975,366.890839 
	C243.851685,369.095490 247.837524,371.177338 249.060501,376.492767 
	C249.701538,381.496399 248.056595,385.284851 245.462997,388.982086 
	C241.088913,395.217468 237.029327,401.673492 232.837479,408.036713 
	C223.094421,410.152252 218.007950,402.663818 212.172882,397.469574 
	C202.169418,388.564667 202.466873,388.392365 190.197891,394.363342 
	C176.467880,401.045380 162.825989,407.963867 148.793762,413.955078 
	C132.450653,420.932922 123.952621,433.526123 119.904518,450.125916 
	C118.539383,455.723785 116.305954,461.109924 114.187630,466.820892 
	C107.867271,462.466736 101.676514,458.070038 95.819145,453.266785 
	C79.513969,439.895905 66.296059,423.725067 53.958450,406.314972 
z"/>
<path fill="#FF4155" opacity="1.000000" stroke="none" 
	d="
M465.828857,138.869690 
	C472.226929,151.484650 479.542542,163.733276 484.766052,176.817154 
	C490.031250,190.005447 493.634033,203.917114 497.159882,217.717575 
	C499.246338,225.884048 500.183380,234.414566 500.892181,242.844040 
	C501.695953,252.402191 501.719635,262.028900 501.989319,271.628418 
	C502.588318,292.952667 499.039886,313.716980 493.391266,334.186096 
	C486.719421,358.363251 476.713684,381.026917 462.681152,401.868927 
	C461.871368,403.071686 461.367584,404.480499 460.401276,405.946259 
	C455.609985,396.870117 451.842346,387.207428 446.488159,378.522797 
	C439.914917,367.860748 430.242584,360.024017 418.545227,355.299591 
	C394.711060,345.673218 370.742462,336.379761 346.370026,326.566528 
	C344.437134,324.483032 343.191193,322.488708 341.447571,321.135651 
	C335.988068,316.899139 330.340881,312.904419 325.020081,308.563171 
	C332.476593,305.274902 339.692719,302.270630 346.878662,299.195801 
	C354.860992,295.780273 360.106812,289.786133 362.801636,281.622040 
	C366.763702,269.618683 370.527679,257.550079 374.455536,245.535278 
	C376.911835,238.021698 376.217743,230.792801 372.982819,223.674332 
	C372.174469,221.895493 371.666718,219.980042 371.335815,217.970276 
	C373.433655,213.994949 376.610870,210.228165 376.753998,206.349396 
	C377.323364,190.925140 376.946075,175.465927 376.993225,159.597458 
	C377.079193,157.195190 377.091339,155.215134 377.562164,153.175751 
	C385.161743,153.103134 392.306183,153.221848 399.442200,153.028397 
	C403.913666,152.907166 405.837128,154.786652 405.761292,159.215454 
	C405.650391,165.690353 405.671936,172.169434 405.756622,178.645157 
	C405.828217,184.118027 408.317413,185.742844 412.377350,182.320602 
	C418.144531,177.459305 425.040131,172.648239 428.148468,166.218018 
	C433.017517,156.145309 439.469604,150.116394 450.197052,147.229858 
	C455.755066,145.734314 460.639893,141.736847 465.828857,138.869690 
z"/>
<path fill="#FFC839" opacity="1.000000" stroke="none" 
	d="
M324.766418,308.816040 
	C330.340881,312.904419 335.988068,316.899139 341.447571,321.135651 
	C343.191193,322.488708 344.437134,324.483032 345.985657,326.518829 
	C341.906891,340.394012 336.489624,353.381348 328.411621,365.077362 
	C319.931915,377.354950 310.825836,389.126648 299.098511,398.598175 
	C296.653839,400.572632 294.401245,402.789948 292.110535,404.948853 
	C288.869751,408.003235 285.206116,409.372955 280.254578,407.696259 
	C275.468750,401.073181 270.920105,394.933319 267.082947,388.377075 
	C265.072845,384.942596 264.311096,380.777496 263.128052,376.632385 
	C265.655243,373.663910 267.576416,370.218140 270.509583,368.491028 
	C280.224457,362.770813 288.758514,355.716888 296.139160,347.311554 
	C304.820740,337.424683 311.060974,326.214264 313.341766,312.759766 
	C317.336304,311.300964 321.051361,310.058502 324.766418,308.816040 
z"/>
<path fill="#FFB332" opacity="1.000000" stroke="none" 
	d="
M262.985596,376.942352 
	C264.311096,380.777496 265.072845,384.942596 267.082947,388.377075 
	C270.920105,394.933319 275.468750,401.073181 279.866241,407.696533 
	C274.070770,418.160187 272.173553,429.322113 272.033936,440.857941 
	C271.891663,452.617401 271.980286,464.379608 271.483398,476.597076 
	C260.744049,477.100403 250.489120,477.147278 240.234192,477.194153 
	C240.170105,462.060394 240.106018,446.926636 240.316635,431.027405 
	C240.899445,427.820007 241.143570,425.368042 241.526215,422.937897 
	C243.690826,409.190948 248.934402,396.618011 256.391571,384.617920 
	C258.751404,381.935394 260.868500,379.438873 262.985596,376.942352 
M251.434662,453.088776 
	C248.420425,456.885468 250.399536,459.494080 253.571075,461.716034 
	C256.726196,463.926544 259.232422,462.450623 261.324768,459.983215 
	C263.723969,457.153931 263.004395,454.404053 260.493591,452.118927 
	C257.608765,449.493408 254.646698,449.178009 251.434662,453.088776 
M252.048584,423.904877 
	C253.087097,426.285919 253.711945,429.031921 255.347748,430.885986 
	C256.106537,431.746033 259.466675,431.571686 260.520111,430.619263 
	C262.151978,429.143982 263.902191,426.424377 263.598358,424.558685 
	C263.275635,422.576782 260.668823,419.612335 258.964783,419.546997 
	C256.751434,419.462219 254.444672,421.815369 252.048584,423.904877 
z"/>
<path fill="#FF9201" opacity="1.000000" stroke="none" 
	d="
M240.187347,477.636841 
	C250.489120,477.147278 260.744049,477.100403 271.459167,477.070679 
	C271.953552,481.071136 272.051483,485.055298 272.001709,489.037598 
	C271.961792,492.229156 270.205353,493.992523 267.027435,494.026398 
	C260.054810,494.100677 253.080917,494.060974 246.107529,494.055969 
	C242.111008,494.053101 240.470062,491.516602 240.197311,488.035736 
	C239.938751,484.735779 240.140945,481.399719 240.187347,477.636841 
z"/>
<path fill="#FF9302" opacity="1.000000" stroke="none" 
	d="
M256.148834,384.803955 
	C248.934402,396.618011 243.690826,409.190948 241.526215,422.937897 
	C241.143570,425.368042 240.899445,427.820007 240.345184,430.549286 
	C237.803360,423.441315 235.507675,416.045990 233.024734,408.343689 
	C237.029327,401.673492 241.088913,395.217468 245.462997,388.982086 
	C248.056595,385.284851 249.701538,381.496399 249.351166,376.640503 
	C251.806122,379.170990 253.977478,381.987457 256.148834,384.803955 
z"/>
<path fill="#49DAFC" opacity="1.000000" stroke="none" 
	d="
M465.995972,138.567719 
	C460.639893,141.736847 455.755066,145.734314 450.197052,147.229858 
	C439.469604,150.116394 433.017517,156.145309 428.148468,166.218018 
	C425.040131,172.648239 418.144531,177.459305 412.377350,182.320602 
	C408.317413,185.742844 405.828217,184.118027 405.756622,178.645157 
	C405.671936,172.169434 405.650391,165.690353 405.761292,159.215454 
	C405.837128,154.786652 403.913666,152.907166 399.442200,153.028397 
	C392.306183,153.221848 385.161743,153.103134 377.214966,153.118317 
	C375.941162,153.074219 375.473236,153.028244 374.956909,152.640198 
	C374.700867,151.849167 374.596893,151.298325 374.270447,150.966034 
	C364.270905,140.786713 361.798035,128.454468 365.107239,115.114922 
	C366.796173,108.306740 370.254639,101.937531 373.157043,95.171234 
	C377.029572,92.739143 378.733673,89.492813 377.841034,85.312843 
	C376.848511,80.665268 373.439178,78.562920 368.804565,77.604721 
	C358.309418,64.843384 354.796387,50.880764 360.468842,35.446468 
	C362.564178,29.745209 366.098511,24.572813 368.976532,19.159206 
	C389.117432,19.106270 409.352631,17.808496 429.374603,19.325399 
	C452.749451,21.096317 470.868286,32.956215 482.483459,53.916008 
	C488.555817,64.873756 491.650085,76.593056 490.891266,89.000999 
	C489.960754,104.216133 485.339294,118.244972 474.731506,129.729080 
	C471.998260,132.688156 469.025726,135.426178 465.995972,138.567719 
M435.013092,80.471893 
	C431.844086,83.678169 430.512817,87.736038 433.352448,91.233627 
	C435.262634,93.586395 439.149384,95.876953 441.877563,95.589767 
	C444.613434,95.301788 447.792389,92.237228 449.353577,89.559555 
	C451.266815,86.278175 449.592468,82.692719 446.640228,80.263107 
	C443.118927,77.365234 439.351746,77.382011 435.013092,80.471893 
M396.476654,89.693497 
	C399.642059,95.728111 404.503937,97.678375 409.400391,94.877632 
	C413.217010,92.694542 414.939453,88.168808 413.479034,84.160927 
	C411.986755,80.065643 407.712433,77.490494 403.614532,78.217873 
	C398.729492,79.084961 396.095581,82.914253 396.476654,89.693497 
z"/>
<path fill="#27C6F7" opacity="1.000000" stroke="none" 
	d="
M368.515625,19.084087 
	C366.098511,24.572813 362.564178,29.745209 360.468842,35.446468 
	C354.796387,50.880764 358.309418,64.843384 368.451172,77.699760 
	C361.929932,80.176155 359.092346,84.182022 360.401398,89.181328 
	C361.814789,94.579018 366.256775,96.776100 372.913269,95.369904 
	C370.254639,101.937531 366.796173,108.306740 365.107239,115.114922 
	C361.798035,128.454468 364.270905,140.786713 374.270447,150.966034 
	C374.596893,151.298325 374.700867,151.849167 374.489258,152.685516 
	C366.369415,153.102158 358.668915,153.131439 350.536743,153.098358 
	C342.431030,151.180405 334.756958,149.324829 326.817261,147.279694 
	C298.015656,132.263092 284.343384,106.329712 288.644592,74.615501 
	C290.159424,69.684196 290.728638,64.600883 293.108948,60.593231 
	C298.073914,52.233753 303.995972,44.442703 309.524780,36.418106 
	C315.594177,32.533699 321.663574,28.649296 327.885559,24.461918 
	C340.902924,18.758699 354.445770,18.627081 368.515625,19.084087 
M342.018768,88.244072 
	C341.707733,81.078598 336.824158,76.720589 330.929291,78.465485 
	C326.582581,79.752144 324.166595,82.878059 324.258575,87.324326 
	C324.350952,91.788948 326.952301,94.790848 331.339264,95.849976 
	C335.973358,96.968773 339.541656,94.572403 342.018768,88.244072 
z"/>
<path fill="#36365F" opacity="1.000000" stroke="none" 
	d="
M153.914032,123.994507 
	C154.583527,100.294571 161.008255,78.517853 176.080109,59.864094 
	C194.138031,37.514587 217.413635,24.535965 246.202423,21.851810 
	C248.186447,21.666826 250.165756,21.431002 252.492126,21.587193 
	C249.264374,25.568451 245.172241,28.802698 242.213196,32.862766 
	C231.925537,46.978386 233.040176,61.912567 239.575729,77.026611 
	C230.648666,76.025955 222.126633,74.199471 213.604980,74.201172 
	C197.173111,74.204453 185.715302,83.366661 182.302536,99.380478 
	C180.526947,107.712074 180.754440,116.468918 180.051468,125.031570 
	C179.783539,128.295029 179.443817,131.552582 178.764862,134.712341 
	C170.230408,131.662247 167.502716,132.657669 159.791107,141.052490 
	C158.612000,138.964096 157.531784,137.175522 156.930466,135.238281 
	C155.780960,131.535065 154.904068,127.747223 153.914032,123.994507 
z"/>
<path fill="#42426C" opacity="1.000000" stroke="none" 
	d="
M239.980942,77.026695 
	C233.040176,61.912567 231.925537,46.978386 242.213196,32.862766 
	C245.172241,28.802698 249.264374,25.568451 252.903259,21.636635 
	C253.140182,21.233252 253.310837,21.148800 253.748993,20.964375 
	C273.625000,21.063650 292.013062,25.676775 309.171204,36.217491 
	C303.995972,44.442703 298.073914,52.233753 293.108948,60.593231 
	C290.728638,64.600883 290.159424,69.684196 288.184570,74.528839 
	C283.180878,75.545036 278.540985,75.698746 274.386932,77.198288 
	C262.981018,81.315636 251.691681,81.984726 240.167770,77.622208 
	C240.114197,77.421074 239.980942,77.026695 239.980942,77.026695 
z"/>
<path fill="#B8C0F4" opacity="1.000000" stroke="none" 
	d="
M153.453033,123.998505 
	C154.904068,127.747223 155.780960,131.535065 156.930466,135.238281 
	C157.531784,137.175522 158.612000,138.964096 159.787445,141.501846 
	C160.064682,153.457840 160.030380,164.731812 159.571747,176.007019 
	C147.451233,175.326813 138.846481,170.109528 134.236816,159.030457 
	C134.209381,150.109726 134.096695,141.187790 134.223145,132.269241 
	C134.249908,130.381088 135.150681,128.505325 135.875732,126.301620 
	C141.732483,125.320427 147.362274,124.661469 153.453033,123.998505 
z"/>
<path fill="#FCA870" opacity="1.000000" stroke="none" 
	d="
M239.575729,77.026611 
	C239.980942,77.026695 240.114197,77.421074 239.859680,77.797211 
	C236.670059,82.505798 232.885086,86.495087 230.969406,91.239204 
	C226.398010,102.560059 227.107605,114.682320 226.869690,126.659302 
	C226.769791,131.687683 225.163300,136.685318 224.250504,141.698547 
	C222.829956,149.500458 220.627777,157.263504 220.227203,165.118011 
	C219.842575,172.659271 221.363831,180.293015 221.984085,187.891296 
	C222.995544,200.282257 223.452042,212.742233 225.037506,225.057892 
	C228.812531,254.381943 239.214127,280.644836 261.687561,300.836761 
	C258.245270,302.973724 255.165909,305.005615 251.666656,307.025146 
	C238.153885,305.307953 226.262360,300.862000 216.290619,291.898743 
	C211.762619,287.828705 207.097427,283.911255 202.494461,279.924591 
	C200.831009,277.305908 199.313065,274.580200 197.479202,272.086884 
	C189.077591,260.664154 182.662491,248.281555 179.116440,233.875397 
	C181.147125,229.827271 184.536789,226.502121 184.654648,223.064758 
	C185.179520,207.758881 184.768494,192.420898 184.747681,176.620712 
	C184.800034,166.720673 184.717545,157.293411 184.833267,147.868607 
	C184.898102,142.589127 183.512482,138.085373 179.136826,134.812836 
	C179.443817,131.552582 179.783539,128.295029 180.051468,125.031570 
	C180.754440,116.468918 180.526947,107.712074 182.302536,99.380478 
	C185.715302,83.366661 197.173111,74.204453 213.604980,74.201172 
	C222.126633,74.199471 230.648666,76.025955 239.575729,77.026611 
z"/>
<path fill="#F9955F" opacity="1.000000" stroke="none" 
	d="
M202.356339,280.367432 
	C207.097427,283.911255 211.762619,287.828705 216.290619,291.898743 
	C226.262360,300.862000 238.153885,305.307953 251.585236,307.393951 
	C249.481659,312.179962 249.884567,316.592682 251.543793,321.110809 
	C250.076706,324.266266 249.067169,327.368774 247.808548,330.366699 
	C243.246368,341.233368 238.600647,352.064911 233.986450,362.909729 
	C231.857925,361.372864 229.729416,359.835968 227.150681,357.852051 
	C210.932495,343.283325 200.560501,326.207886 197.950424,304.883636 
	C199.373032,296.859161 200.795624,288.834717 202.356339,280.367432 
z"/>
<path fill="#FFB332" opacity="1.000000" stroke="none" 
	d="
M197.624023,304.770447 
	C200.560501,326.207886 210.932495,343.283325 226.860550,357.696350 
	C219.589951,356.888275 215.401520,361.883881 212.198044,367.032532 
	C208.291229,373.311523 205.579163,380.333923 202.102371,387.549500 
	C186.068268,370.105988 173.417038,350.774353 167.030518,327.290710 
	C168.022568,325.150787 168.681885,322.884186 170.191360,321.717072 
	C177.285416,316.231964 184.545334,310.951233 191.916824,305.844025 
	C193.313858,304.876099 195.484131,305.024139 197.624023,304.770447 
z"/>
<path fill="#A6AFE9" opacity="1.000000" stroke="none" 
	d="
M134.154083,159.490814 
	C138.846481,170.109528 147.451233,175.326813 159.596924,176.370361 
	C160.089050,177.458084 160.131653,178.183701 160.125275,179.381317 
	C160.050339,195.331360 160.024399,210.809402 159.998444,226.287445 
	C155.250778,224.908676 150.295227,224.006439 145.801208,222.046173 
	C137.866028,218.584869 134.083603,211.995773 134.045319,203.396698 
	C133.980820,188.915176 134.055313,174.433044 134.154083,159.490814 
z"/>
<path fill="#C9CEFB" opacity="1.000000" stroke="none" 
	d="
M160.222534,226.511215 
	C160.024399,210.809402 160.050339,195.331360 160.449615,179.459641 
	C163.957260,181.035004 166.862625,183.936020 170.274719,184.774200 
	C176.872391,186.394897 181.628708,182.946304 184.695724,177.094528 
	C184.768494,192.420898 185.179520,207.758881 184.654648,223.064758 
	C184.536789,226.502121 181.147125,229.827271 179.066895,233.473312 
	C169.303482,236.434296 165.537918,235.002029 160.222534,226.511215 
z"/>
<path fill="#FCA870" opacity="1.000000" stroke="none" 
	d="
M234.274536,363.099121 
	C238.600647,352.064911 243.246368,341.233368 247.808548,330.366699 
	C249.067169,327.368774 250.076706,324.266266 251.749084,321.385101 
	C255.537186,323.664917 258.776825,327.539581 262.016235,327.539398 
	C270.987457,327.538910 279.958618,325.922974 289.338989,324.963318 
	C291.696014,324.600006 293.637878,324.184998 295.592682,323.843903 
	C302.426422,322.651428 308.299835,320.112030 311.325500,313.009155 
	C312.135895,312.990448 312.599091,312.983307 313.062286,312.976166 
	C311.060974,326.214264 304.820740,337.424683 296.139160,347.311554 
	C288.758514,355.716888 280.224457,362.770813 270.509583,368.491028 
	C267.576416,370.218140 265.655243,373.663910 263.128052,376.632385 
	C260.868500,379.438873 258.751404,381.935394 256.391571,384.617920 
	C253.977478,381.987457 251.806122,379.170990 249.344101,376.206787 
	C247.837524,371.177338 243.851685,369.095490 239.920975,366.890839 
	C238.049957,365.841431 236.343582,364.498505 234.274536,363.099121 
z"/>
<path fill="#E3E5FA" opacity="1.000000" stroke="none" 
	d="
M313.341766,312.759766 
	C312.599091,312.983307 312.135895,312.990448 311.318024,312.569641 
	C311.765045,307.090546 310.199341,302.780670 307.140991,298.806030 
	C309.022125,297.960602 310.618866,297.336365 312.563080,296.679077 
	C321.555817,293.196014 330.175476,289.679932 338.855713,286.320404 
	C344.235809,284.238190 347.457397,280.538300 349.126923,274.983643 
	C352.189941,264.792938 355.351501,254.613373 359.011658,244.626999 
	C361.525330,237.768768 361.031311,231.645126 356.984070,225.286896 
	C356.576691,221.150436 357.090668,217.463058 361.018127,216.200684 
	C363.174042,215.507675 365.908569,216.481781 368.352386,216.885101 
	C369.284821,217.038986 370.133789,217.698349 371.020813,218.127350 
	C371.666718,219.980042 372.174469,221.895493 372.982819,223.674332 
	C376.217743,230.792801 376.911835,238.021698 374.455536,245.535278 
	C370.527679,257.550079 366.763702,269.618683 362.801636,281.622040 
	C360.106812,289.786133 354.860992,295.780273 346.878662,299.195801 
	C339.692719,302.270630 332.476593,305.274902 325.020081,308.563171 
	C321.051361,310.058502 317.336304,311.300964 313.341766,312.759766 
z"/>
<path fill="#B8C0F4" opacity="1.000000" stroke="none" 
	d="
M371.335815,217.970276 
	C370.133789,217.698349 369.284821,217.038986 368.352386,216.885101 
	C365.908569,216.481781 363.174042,215.507675 361.018127,216.200684 
	C357.090668,217.463058 356.576691,221.150436 356.568726,225.339386 
	C354.489899,226.017288 352.826324,226.236038 351.119812,225.952759 
	C351.021088,209.937988 350.965363,194.425293 350.918213,178.594513 
	C350.953735,177.853134 350.980743,177.429840 351.431915,177.006927 
	C363.409546,176.064575 372.623810,171.670624 376.919373,160.019669 
	C376.946075,175.465927 377.323364,190.925140 376.753998,206.349396 
	C376.610870,210.228165 373.433655,213.994949 371.335815,217.970276 
z"/>
<path fill="#C6CEFC" opacity="1.000000" stroke="none" 
	d="
M376.993225,159.597458 
	C372.623810,171.670624 363.409546,176.064575 351.427551,176.537582 
	C350.988831,168.432144 350.978607,160.796432 350.968384,153.160721 
	C358.668915,153.131439 366.369415,153.102158 374.537598,153.027573 
	C375.473236,153.028244 375.941162,153.074219 376.756287,153.177643 
	C377.091339,155.215134 377.079193,157.195190 376.993225,159.597458 
z"/>
<path fill="#FFC739" opacity="1.000000" stroke="none" 
	d="
M251.698914,452.814209 
	C254.646698,449.178009 257.608765,449.493408 260.493591,452.118927 
	C263.004395,454.404053 263.723969,457.153931 261.324768,459.983215 
	C259.232422,462.450623 256.726196,463.926544 253.571075,461.716034 
	C250.399536,459.494080 248.420425,456.885468 251.698914,452.814209 
z"/>
<path fill="#FFC739" opacity="1.000000" stroke="none" 
	d="
M252.113342,423.512024 
	C254.444672,421.815369 256.751434,419.462219 258.964783,419.546997 
	C260.668823,419.612335 263.275635,422.576782 263.598358,424.558685 
	C263.902191,426.424377 262.151978,429.143982 260.520111,430.619263 
	C259.466675,431.571686 256.106537,431.746033 255.347748,430.885986 
	C253.711945,429.031921 253.087097,426.285919 252.113342,423.512024 
z"/>
<path fill="#F9FEFF" opacity="1.000000" stroke="none" 
	d="
M373.157043,95.171227 
	C366.256775,96.776100 361.814789,94.579018 360.401398,89.181328 
	C359.092346,84.182022 361.929932,80.176155 368.619507,77.983612 
	C373.439178,78.562920 376.848511,80.665268 377.841034,85.312843 
	C378.733673,89.492813 377.029572,92.739143 373.157043,95.171227 
z"/>
<path fill="#FAFEFF" opacity="1.000000" stroke="none" 
	d="
M435.308716,80.227783 
	C439.351746,77.382011 443.118927,77.365234 446.640228,80.263107 
	C449.592468,82.692719 451.266815,86.278175 449.353577,89.559555 
	C447.792389,92.237228 444.613434,95.301788 441.877563,95.589767 
	C439.149384,95.876953 435.262634,93.586395 433.352448,91.233627 
	C430.512817,87.736038 431.844086,83.678169 435.308716,80.227783 
z"/>
<path fill="#FAFEFF" opacity="1.000000" stroke="none" 
	d="
M396.357727,89.317230 
	C396.095581,82.914253 398.729492,79.084961 403.614532,78.217873 
	C407.712433,77.490494 411.986755,80.065643 413.479034,84.160927 
	C414.939453,88.168808 413.217010,92.694542 409.400391,94.877632 
	C404.503937,97.678375 399.642059,95.728111 396.357727,89.317230 
z"/>
<path fill="#F9BD91" opacity="1.000000" stroke="none" 
	d="
M262.050507,300.731659 
	C239.214127,280.644836 228.812531,254.381943 225.037506,225.057892 
	C223.452042,212.742233 222.995544,200.282257 221.984085,187.891296 
	C221.363831,180.293015 219.842575,172.659271 220.227203,165.118011 
	C220.627777,157.263504 222.829956,149.500458 224.250504,141.698547 
	C225.163300,136.685318 226.769791,131.687683 226.869690,126.659302 
	C227.107605,114.682320 226.398010,102.560059 230.969406,91.239204 
	C232.885086,86.495087 236.670059,82.505798 239.913269,77.998337 
	C251.691681,81.984726 262.981018,81.315636 274.386932,77.198288 
	C278.540985,75.698746 283.180878,75.545036 288.059113,74.863968 
	C284.343384,106.329712 298.015656,132.263092 326.768188,147.790497 
	C326.971130,158.312881 326.957520,168.134903 326.906860,178.429321 
	C326.859863,192.673462 327.077972,206.450882 326.734528,220.214279 
	C326.584229,226.237213 328.206787,230.903122 333.212463,234.708130 
	C332.720703,236.895752 332.326874,238.672440 331.763947,240.393845 
	C327.073669,254.735794 319.169189,267.260406 309.593628,279.163269 
	C305.932587,282.675171 302.514435,285.983093 299.167114,289.361145 
	C297.040192,291.507629 295.018494,293.758392 292.687927,296.029388 
	C292.069183,296.134705 291.712097,296.173035 291.088226,296.242493 
	C290.547058,296.491547 290.272644,296.709442 289.634583,297.032654 
	C286.821808,297.793121 284.372650,298.448242 281.498840,299.069641 
	C274.732941,299.601135 268.391724,300.166382 262.050507,300.731659 
z"/>
<path fill="#E2E7FC" opacity="1.000000" stroke="none" 
	d="
M326.943909,177.956909 
	C326.957520,168.134903 326.971130,158.312881 327.033813,147.980072 
	C334.756958,149.324829 342.431030,151.180405 350.536743,153.098358 
	C350.978607,160.796432 350.988831,168.432144 351.003387,176.537201 
	C350.980743,177.429840 350.953735,177.853134 350.597473,178.691299 
	C343.144806,188.231628 332.591461,186.838821 326.943909,177.956909 
z"/>
<path fill="#F9FEFF" opacity="1.000000" stroke="none" 
	d="
M341.975342,88.642136 
	C339.541656,94.572403 335.973358,96.968773 331.339264,95.849976 
	C326.952301,94.790848 324.350952,91.788948 324.258575,87.324326 
	C324.166595,82.878059 326.582581,79.752144 330.929291,78.465485 
	C336.824158,76.720589 341.707733,81.078598 341.975342,88.642136 
z"/>
<path fill="#E3E6FA" opacity="1.000000" stroke="none" 
	d="
M184.747681,176.620712 
	C181.628708,182.946304 176.872391,186.394897 170.274719,184.774200 
	C166.862625,183.936020 163.957260,181.035004 160.498611,178.987640 
	C160.131653,178.183701 160.089050,177.458084 160.021271,176.369110 
	C160.030380,164.731812 160.064682,153.457840 160.102631,141.734497 
	C167.502716,132.657669 170.230408,131.662247 178.764862,134.712341 
	C183.512482,138.085373 184.898102,142.589127 184.833267,147.868607 
	C184.717545,157.293411 184.800034,166.720673 184.747681,176.620712 
z"/>
<path fill="#E90354" opacity="1.000000" stroke="none" 
	d="
M261.687561,300.836761 
	C268.391724,300.166382 274.732941,299.601135 281.341187,299.371063 
	C274.533386,310.007721 277.126709,318.947571 288.929779,324.945557 
	C279.958618,325.922974 270.987457,327.538910 262.016235,327.539398 
	C258.776825,327.539581 255.537186,323.664917 252.092346,321.284149 
	C249.884567,316.592682 249.481659,312.179962 252.005096,307.406281 
	C255.165909,305.005615 258.245270,302.973724 261.687561,300.836761 
z"/>
<path fill="#FF4256" opacity="1.000000" stroke="none" 
	d="
M289.338989,324.963318 
	C277.126709,318.947571 274.533386,310.007721 281.765869,299.404785 
	C284.372650,298.448242 286.821808,297.793121 289.894104,296.987274 
	C290.796539,296.628143 291.075775,296.419739 291.355011,296.211365 
	C291.712097,296.173035 292.069183,296.134705 293.137573,296.062012 
	C298.184814,297.027557 302.520721,298.027435 306.856628,299.027283 
	C310.199341,302.780670 311.765045,307.090546 310.970825,312.581238 
	C308.299835,320.112030 302.426422,322.651428 295.592682,323.843903 
	C293.637878,324.184998 291.696014,324.600006 289.338989,324.963318 
z"/>
<path fill="#FF4357" opacity="1.000000" stroke="none" 
	d="
M309.866516,278.988953 
	C319.169189,267.260406 327.073669,254.735794 331.763947,240.393845 
	C332.326874,238.672440 332.720703,236.895752 333.646118,234.733551 
	C342.583191,236.091614 345.652130,234.676590 351.162781,226.454803 
	C352.826324,226.236038 354.489899,226.017288 356.568787,225.746033 
	C361.031311,231.645126 361.525330,237.768768 359.011658,244.626999 
	C355.351501,254.613373 352.189941,264.792938 349.126923,274.983643 
	C347.457397,280.538300 344.235809,284.238190 338.855713,286.320404 
	C330.175476,289.679932 321.555817,293.196014 312.520203,296.272095 
	C311.375397,290.261810 310.620972,284.625366 309.866516,278.988953 
z"/>
<path fill="#FCA671" opacity="1.000000" stroke="none" 
	d="
M309.593658,279.163269 
	C310.620972,284.625366 311.375397,290.261810 312.172729,296.305176 
	C310.618866,297.336365 309.022125,297.960602 307.140991,298.806030 
	C302.520721,298.027435 298.184814,297.027557 293.399261,295.995056 
	C295.018494,293.758392 297.040192,291.507629 299.167114,289.361145 
	C302.514435,285.983093 305.932587,282.675171 309.593658,279.163269 
z"/>
<path fill="#C8CEFC" opacity="1.000000" stroke="none" 
	d="
M351.119812,225.952744 
	C345.652130,234.676590 342.583191,236.091614 333.665649,234.297012 
	C328.206787,230.903122 326.584229,226.237213 326.734528,220.214279 
	C327.077972,206.450882 326.859863,192.673462 326.906860,178.429321 
	C332.591461,186.838821 343.144806,188.231628 350.588928,179.009369 
	C350.965363,194.425293 351.021088,209.937988 351.119812,225.952744 
z"/>
<path fill="#FCA671" opacity="1.000000" stroke="none" 
	d="
M291.088226,296.242493 
	C291.075775,296.419739 290.796539,296.628143 290.257782,296.881958 
	C290.272644,296.709442 290.547058,296.491547 291.088226,296.242493 
z"/>
</svg>