<svg version="1.1" id="Layer_1" xmlns="http://www.w3.org/2000/svg" xmlns:xlink="http://www.w3.org/1999/xlink" x="0px" y="0px"
	 width="100%" viewBox="0 0 512 512" enable-background="new 0 0 512 512" xml:space="preserve">
<path fill="#FF5722" opacity="1.000000" stroke="none" 
	d="
M513.000000,228.550018 
	C512.526123,229.002716 511.722565,228.839981 511.626099,229.032135 
	C508.589539,235.082886 503.519379,236.174255 497.179901,236.112976 
	C469.863312,235.848801 442.542664,236.001801 415.223511,235.998871 
	C407.830414,235.998062 403.832642,233.077744 402.079468,226.166077 
	C398.218048,210.942871 390.165894,198.120605 379.956512,186.395828 
	C365.197906,169.446564 346.623291,158.943802 325.051636,153.573914 
	C310.155701,149.865829 295.109894,150.153259 280.056824,152.987518 
	C265.803741,155.671188 265.869354,154.423553 259.032196,142.868423 
	C245.600021,120.167389 232.340729,97.361778 219.258926,74.457214 
	C215.702576,68.230499 217.589630,59.659393 225.431915,56.903103 
	C241.918808,51.108543 258.600159,46.363056 276.089508,45.013889 
	C286.437439,44.215622 296.796936,43.453022 307.165802,43.089935 
	C312.242645,42.912159 317.379486,43.461292 322.441254,44.076080 
	C329.761963,44.965229 333.799805,49.903358 333.973297,58.107204 
	C334.391479,77.877960 342.622467,94.437050 356.505829,107.671745 
	C371.384064,121.854828 389.439697,129.098877 410.612396,128.153610 
	C424.086273,127.552071 436.316132,123.716270 447.481354,116.690048 
	C454.617859,112.199089 460.509827,113.824142 464.706360,119.388489 
	C471.957520,129.003036 479.120728,138.761642 485.369659,149.038193 
	C498.521973,170.667572 506.925201,194.178391 511.138031,219.167374 
	C511.231537,219.722046 511.938934,220.173233 512.679932,220.336365 
	C513.000000,222.700012 513.000000,225.400024 513.000000,228.550018 
z"/>
<path fill="#FF5722" opacity="1.000000" stroke="none" 
	d="
M513.000000,293.550049 
	C512.337158,294.635132 511.210114,295.186371 511.078033,295.917389 
	C504.848206,330.392609 490.573669,361.258881 469.417603,389.041595 
	C467.427979,391.654449 465.316376,394.225281 462.948669,396.488464 
	C458.417419,400.819794 453.631073,401.101410 448.252472,397.772308 
	C436.988861,390.800598 424.954132,386.597717 411.528534,385.896179 
	C387.950104,384.664185 368.192291,392.934631 352.691071,410.118866 
	C340.998169,423.081268 333.985382,438.597595 333.917755,456.699097 
	C333.886780,464.995453 329.848206,469.196381 321.914429,469.904724 
	C313.688049,470.639191 305.378937,471.194763 297.140259,470.893005 
	C278.158447,470.197693 259.337372,468.050903 241.160599,462.062775 
	C236.238632,460.441254 231.443085,458.176361 226.397858,457.245941 
	C217.538666,455.612122 216.164093,445.964935 219.403473,440.146301 
	C224.232681,431.471985 229.254517,422.904846 234.199036,414.294800 
	C242.142792,400.462036 250.091583,386.632172 258.035187,372.799316 
	C259.494720,370.257690 260.801178,367.615479 262.421326,365.181458 
	C265.506805,360.545959 271.020447,358.682800 277.278046,360.162659 
	C310.397827,367.995300 340.403931,360.583862 366.957703,340.228790 
	C384.607422,326.699188 396.160736,308.306763 402.967010,287.042419 
	C405.379791,279.504364 407.575439,278.001617 415.394104,278.000885 
	C442.048767,277.998505 468.707306,278.251526 495.355530,277.837463 
	C502.769318,277.722229 508.608826,279.089569 512.766602,285.338501 
	C513.000000,287.700012 513.000000,290.400024 513.000000,293.550049 
z"/>
<path fill="#FF5722" opacity="1.000000" stroke="none" 
	d="
M1.000001,249.466858 
	C1.662898,248.366928 2.811690,247.806152 2.918195,247.090302 
	C6.287291,224.445633 26.446562,207.080734 48.104427,203.694107 
	C74.218582,199.610626 101.304222,218.031052 107.087830,241.511398 
	C111.938187,261.202911 109.020699,279.053223 94.351936,294.264160 
	C83.180984,305.848022 69.592979,311.512115 53.860790,310.861053 
	C28.352169,309.805359 7.156059,292.361450 2.948456,266.828186 
	C2.803452,265.948242 2.087262,265.162476 1.318649,264.666382 
	C1.000000,259.977905 1.000000,254.955811 1.000001,249.466858 
z"/>
<path fill="#FF5722" opacity="1.000000" stroke="none" 
	d="
M393.468658,513.000000 
	C391.639069,512.013428 390.414276,510.659698 388.896240,510.096649 
	C372.667206,504.077362 361.416138,492.830872 356.412506,476.487000 
	C350.278839,456.452026 354.002716,437.496155 368.606873,422.310852 
	C381.526306,408.877289 397.962952,403.417755 416.902679,406.880341 
	C438.362427,410.803619 452.599243,423.142273 458.894287,443.755981 
	C467.256531,471.138977 453.598602,501.036865 425.495972,510.195099 
	C424.015930,510.677399 422.707153,511.685303 421.659332,512.724243 
	C412.645782,513.000000 403.291534,513.000000 393.468658,513.000000 
z"/>
<path fill="#FF5722" opacity="1.000000" stroke="none" 
	d="
M421.531342,0.999998 
	C422.444000,1.663073 422.756470,2.740530 423.351044,2.929269 
	C443.740234,9.401400 456.334808,23.385244 460.299713,44.039555 
	C463.292542,59.629917 460.303589,74.537125 450.040222,87.593559 
	C441.073975,98.999855 429.358124,105.609795 415.434631,107.599884 
	C400.136444,109.786461 385.865204,106.291771 373.637604,96.160049 
	C362.908905,87.270271 356.052551,75.956635 354.312958,62.249577 
	C352.489655,47.882427 355.325348,34.291679 364.171448,22.254154 
	C371.242371,12.632299 380.576660,6.532218 391.778564,2.939909 
	C392.488281,2.712314 393.050537,2.024884 393.340698,1.275686 
	C402.354218,1.000000 411.708466,1.000000 421.531342,0.999998 
z"/>
<path fill="#FF5722" opacity="1.000000" stroke="none" 
	d="
M129.000305,383.980286 
	C115.730469,366.013092 105.664543,346.798157 98.837769,325.840576 
	C97.408798,321.453766 98.372086,318.173920 101.322563,315.202179 
	C108.516167,307.956665 116.065125,301.057404 120.806122,291.739807 
	C124.808670,283.873505 127.687294,275.758911 129.114883,266.973877 
	C130.734344,257.008179 129.756592,247.433914 127.064392,237.850632 
	C123.880547,226.517227 118.600243,216.425598 110.418137,207.844208 
	C106.369751,203.598267 102.491623,199.140961 99.026566,194.419601 
	C98.063187,193.106949 98.343307,190.350723 98.912415,188.524612 
	C106.519150,164.116592 118.344810,141.866714 135.128128,122.620010 
	C144.822845,111.502350 155.562439,101.217628 166.496506,91.290176 
	C172.431274,85.901764 179.697067,88.304085 183.791870,95.378525 
	C196.757965,117.779579 209.815506,140.127701 222.831589,162.499863 
	C224.139282,164.747559 225.472763,166.984207 226.677032,169.287292 
	C229.191437,174.095978 228.319305,180.119064 224.213348,184.237350 
	C208.683441,199.813873 199.463562,218.813400 196.242157,240.212265 
	C191.675034,270.550323 198.468353,298.407654 218.088776,322.597076 
	C220.870224,326.026276 223.823120,329.335052 226.369690,332.931122 
	C229.274155,337.032623 228.369308,341.350067 226.045898,345.392120 
	C212.739456,368.541290 199.348679,391.642059 186.065155,414.804352 
	C182.821930,420.459534 179.910278,426.838165 171.805115,424.827545 
	C168.226501,423.939789 164.793121,421.584900 161.838562,419.216522 
	C149.283524,409.152405 138.955139,396.940338 129.000305,383.980286 
z"/>
</svg>