<svg version="1.1" id="Layer_1" xmlns="http://www.w3.org/2000/svg" xmlns:xlink="http://www.w3.org/1999/xlink" x="0px" y="0px"
	 width="100%" viewBox="0 0 512 512" enable-background="new 0 0 512 512" xml:space="preserve">
<path fill="#00BCD4" opacity="1.000000" stroke="none" 
	d="
M513.000000,240.531342 
	C427.880249,241.000000 342.760529,241.000000 257.320557,241.000000 
	C257.320557,176.661255 257.320557,112.615440 257.320557,48.360565 
	C269.660431,46.905472 281.998688,45.543404 294.310242,43.972179 
	C306.143066,42.462055 317.939606,40.669544 329.768372,39.125599 
	C338.539490,37.980747 347.343231,37.087936 356.120422,35.986885 
	C366.014923,34.745667 375.889923,33.348949 385.784637,32.109249 
	C394.562317,31.009499 403.362305,30.087406 412.139801,28.986181 
	C422.033936,27.744862 431.907654,26.340759 441.802002,25.100958 
	C450.580017,24.001036 459.381287,23.086439 468.159210,21.985615 
	C478.053223,20.744816 487.922668,19.304731 497.822632,18.116301 
	C502.558167,17.547827 507.339386,17.360151 512.549927,17.000000 
	C513.000000,91.354225 513.000000,165.708450 513.000000,240.531342 
z"/>
<path fill="#00BCD4" opacity="1.000000" stroke="none" 
	d="
M513.000000,496.531342 
	C502.109741,495.717621 491.219604,494.434235 480.329193,493.153198 
	C471.381683,492.100708 462.426971,491.105896 453.488007,489.985443 
	C443.756012,488.765594 434.044922,487.378998 424.312805,486.160431 
	C415.373383,485.041107 406.410950,484.105408 397.471710,482.984833 
	C387.740051,481.764954 378.030029,480.372101 368.298218,479.153503 
	C359.358521,478.034058 350.394958,477.104919 341.455414,475.984222 
	C331.724060,474.764282 322.012177,473.389709 312.284454,472.139587 
	C303.840454,471.054382 295.391113,470.007263 286.935272,469.019073 
	C277.172211,467.878021 267.399475,466.820007 257.314392,465.690491 
	C257.314392,401.695160 257.314392,337.644501 257.314392,273.000000 
	C342.247742,273.000000 427.155212,273.000000 512.531372,273.000000 
	C513.000000,347.354218 513.000000,421.708466 513.000000,496.531342 
z"/>
<path fill="#00BCD4" opacity="1.000000" stroke="none" 
	d="
M1.000000,80.468658 
	C11.892427,78.716515 22.784637,77.431183 33.677349,76.150093 
	C42.626987,75.097527 51.584305,74.106461 60.525280,72.984993 
	C70.258972,71.764084 79.971024,70.370590 89.704979,69.151955 
	C98.646759,68.032494 107.612663,67.105621 116.554146,65.983955 
	C126.287300,64.762955 135.996429,63.349812 145.731125,62.141953 
	C154.838867,61.011887 163.973206,60.097164 173.083221,58.984406 
	C182.500214,57.834145 191.896484,56.514515 201.312225,55.353458 
	C208.952911,54.411278 216.609009,53.594196 224.652512,52.676655 
	C224.652512,115.572189 224.652512,177.968155 224.652512,241.000000 
	C150.447174,241.000000 76.192245,241.000000 1.468657,241.000000 
	C1.000000,187.645767 1.000000,134.291550 1.000000,80.468658 
z"/>
<path fill="#00BCD4" opacity="1.000000" stroke="none" 
	d="
M1.000000,273.468658 
	C75.466972,273.000000 149.933945,273.000000 224.700211,273.000000 
	C224.700211,335.725952 224.700211,398.117035 224.700211,461.199127 
	C216.902374,460.403442 209.274139,459.749268 201.679779,458.818634 
	C192.270142,457.665588 182.890823,456.266602 173.494263,455.004822 
	C163.770416,453.699066 154.048004,452.379211 144.313065,451.160645 
	C135.371078,450.041321 126.406006,449.106354 117.464355,447.984558 
	C107.730347,446.763336 98.018494,445.365417 88.284180,444.146759 
	C79.341660,443.027191 70.374359,442.105438 61.432167,440.983429 
	C51.698742,439.762177 41.995594,438.291962 32.253632,437.148529 
	C22.151772,435.962830 12.019221,435.038605 1.450047,434.000000 
	C1.000000,380.645782 1.000000,327.291534 1.000000,273.468658 
z"/>
</svg>