<svg version="1.1" id="Layer_1" xmlns="http://www.w3.org/2000/svg" xmlns:xlink="http://www.w3.org/1999/xlink" x="0px" y="0px"
	 width="100%" viewBox="0 0 256 256" enable-background="new 0 0 154 154" xml:space="preserve">
    <style>
      .icon-mid-white-color-change{
          fill: #666467;
      }
      @media (prefers-color-scheme: dark) {
          .icon-mid-white-color-change{
              fill: #afafaf;
          }
      }
    </style>
    <path
        class="icon-mid-white-color-change"
        d="M23.314 83.288c5.797-9.58 10.505-19.54 17.203-27.908 8.738-10.917 19.497-19.907 32.012-26.752 13.328-7.29 27.24-11.973 42.365-13.767 17.554-2.083 34.55-.425 51.283 5.074 24.63 8.093 43.868 23.634 58.39 44.532 10.484 15.085 16.612 32.203 18.65 50.875 2.532 23.192-.667 45.283-11.538 65.712-5.577 10.48-12.576 20.704-20.875 29.13-16.453 16.707-36.506 27.71-59.98 31.882-20.942 3.722-41.397 2.409-61.43-4.869-16.68-6.058-30.918-15.657-43.284-28.428-14.966-15.455-24.844-33.484-29.45-54.423-5.333-24.24-3.312-47.848 6.654-71.058M169.252 119h-29.486c-.4-1.017-.618-1.316-.62-1.617-.062-10.151-.076-20.303-.157-30.455-.047-5.783-4.754-10.864-9.97-10.881-5.202-.017-9.963 5.08-10.005 10.844-.054 7.324-.014 14.649-.015 21.973V119H89.784c-8.268.002-13.86 4.123-13.738 10.121.122 6.011 5.594 9.88 13.98 9.88 7.99.002 15.98-.014 23.97.016 1.584.006 3.166.187 5.006.304 0 11.075.089 21.554-.04 32.03-.058 4.623 2.42 7.646 6.065 9.465 6.49 3.239 13.881-1.893 13.948-9.493.092-10.595.023-21.192.023-32.321 10.777 0 20.916-.432 30.994.161 6.065.358 11.654-4.568 11.917-10.08.261-5.486-5.11-9.946-12.657-10.083z"
        opacity="1"
      ></path>
</svg>