<svg version="1.1" id="Layer_1" xmlns="http://www.w3.org/2000/svg" xmlns:xlink="http://www.w3.org/1999/xlink" x="0px" y="0px"
	 width="100%" viewBox="0 0 256 256" enable-background="new 0 0 154 154" xml:space="preserve">
    <style>
      .icon-mid-white-color-change{
          fill: #666467;
      }
      @media (prefers-color-scheme: dark) {
          .icon-mid-white-color-change{
              fill: #afafaf;
          }
      }
    </style>
    <path
      class="icon-mid-white-color-change"
      d="M118.004 88.598c-.003-15.271-.012-30.086-.001-44.9.01-12.56 9.006-21.677 21.427-21.693 14.481-.02 28.963-.021 43.444 0 11.822.019 21.075 9.214 21.123 20.955.017 4.456.002 8.911.002 14.041 10.942 0 21.37-.026 31.797.01 5.61.02 8.394 3 8.2 8.622-.15 4.337-3.097 7.313-7.523 7.345-8.822.065-17.644.021-26.466.022H204c0 4.98.009 9.421-.001 13.862-.027 11.807-9.228 21.114-20.932 21.132-14.315.023-28.647-.423-42.939.15-10.286.412-21.154-7.958-22.123-19.546zM139.497 220.04c-3.313 10.33-10.83 15.953-21.141 15.958-14.315.007-28.63.01-42.944 0-12.396-.01-21.391-9.114-21.41-21.648-.007-4.15-.002-8.3-.002-13.35h-6.02c-8.156 0-16.312.005-24.468-.002-6.585-.006-9.479-2.411-9.51-7.879-.03-5.644 2.774-8.096 9.285-8.119 9.653-.033 19.306-.063 28.958-.11.312-.002.623-.18 1.756-.527 0-4.32-.018-8.903.003-13.487.053-11.49 9.302-20.83 20.749-20.864 14.814-.044 29.628-.037 44.442-.003 11.442.026 20.803 9.34 20.788 20.772-.021 16.304-.155 32.608-.486 49.258zM26.128 57c20.452.001 40.422-.028 60.392.025 4.998.013 8.107 2.616 8.328 7.282.184 3.885-1.349 7.189-5.452 8.419-1.388.416-2.967.263-4.458.264-20.47.014-40.94.013-61.41.008-6.606-.002-9.49-2.375-9.527-7.803-.039-5.822 2.73-8.173 9.65-8.194.665-.002 1.331 0 2.477 0zM237.41 200.988c-22.256.007-44.07-.035-65.884.042-4.804.017-7.622-2.36-8.276-6.8-.566-3.843.811-7.265 4.874-8.718 1.352-.484 2.922-.49 4.393-.491 20.981-.03 41.963.057 62.944-.081 4.469-.03 7.485 1.751 8.43 5.888 1.203 5.265-.734 8.056-6.48 10.16z"
    />
</svg>