<svg version="1.1" id="Layer_1" xmlns="http://www.w3.org/2000/svg" xmlns:xlink="http://www.w3.org/1999/xlink" x="0px" y="0px"
	 width="100%" viewBox="0 0 512 250" enable-background="new 0 0 154 154" xml:space="preserve">
    <path
        fill="#E31836"
        d="M296.921 150.938c10.42-6.658 20.6-13.737 31.326-19.861 11.657-6.656 23.766-12.536 35.781-18.546 10.026-5.014 20.191-9.75 30.326-14.545 1.162-.55 2.523-.678 4.518-.968 2.826-.279 5.109-.168 6.992-.982 5.868-2.536 11.396-3.11 16.895.954 1.06.784 2.825.611 4.265.88.809.67 1.617 1.34 2.889 2.418 3.728 3.376 6.883 6.574 11.907 5.817 0 0 .157.409.082.948a42.012 42.012 0 01-5.811 4.912c-2.898 2.041-5.867 3.98-8.806 5.962-7.286 3.955-14.266 8.7-21.934 11.664-9.543 3.688-17.265 10.276-26.31 14.631-4.833 2.328-9.724 4.549-14.474 7.038-1.5.786-2.63 2.284-4.411 3.494-5.142-.16-14.539 6.043-16.128 10.367-7.132 4.375-14.385 8.567-21.35 13.194-4.208 2.796-7.889 6.375-11.95 9.41-7.275 5.438-14.737 10.625-21.975 16.11-9.383 7.11-19.164 13.834-27.705 21.86-4.592 4.316-7.139 2.899-10.952-.633-2.226-6.378-7.197-8.656-12.14-10.966-3.257-1.842-6.669-3.46-9.732-5.582-3.916-2.713-3.94-6.097-.403-8.797 6.093-4.649 12.12-9.391 18.33-13.878 6.074-4.389 12.415-8.408 18.507-12.774 5.313-3.809 10.442-7.875 15.958-11.648.29.612.274 1.045.254 1.52-.005.043.232.185.552.054 4.091-2.533 7.973-4.783 11.583-7.407 1.59-1.157 2.628-3.074 3.916-4.646z"
        opacity="1"
    ></path>
    <path
        fill="#E31736"
        d="M242.067 148.105c-1.122.888-2.243 1.777-3.963 2.737-2.435.651-4.538.84-6.061 1.88a309.515 309.515 0 00-16.03 11.722c-1.324 1.034-2 2.9-2.974 4.384-5.228 4.14-10.55 8.171-15.64 12.475-2.188 1.849-3.585 1.982-5.903.04-5.126-4.294-10.581-8.198-15.948-12.2-1.589-1.184-3.232-2.376-5.019-3.198-5.674-2.61-5.857-3.381-.655-7.21 9.403-6.92 18.897-13.719 28.395-20.51 4.262-3.047 8.626-5.953 13.587-9.038 8.44-1.678 14.886-5.299 19.13-12.267 0 0 .002.077.23-.043.733-.413 1.238-.707 1.743-1 4.309-2.731 8.498-5.677 12.951-8.148 9.912-5.498 19.78-11.127 29.996-16.012 9.979-4.772 20.388-8.638 30.561-13.012 2.334-1.003 4.475-2.455 7.426-3.673 7.607.216 13.484-2.197 18.49-6.86 0 0-.273.279-.205.31.96-.414 1.85-.86 2.743-1.307 3.403-1.06 6.806-2.118 10.881-3.152 1.489.119 2.346.419 3.117.272 6.13-1.169 12.047-1.264 17.624 2.263.76.48 2.353-.358 3.56-.585 1.862.874 3.724 1.749 5.906 3.18 1.577 2.22 2.833 3.884 4.122 5.592-14.732 6.047-29.447 12.087-44.466 18.23-1.11.4-1.914.694-3.05 1.117-5.423 3.004-10.515 5.88-15.608 8.756-4.401 2.707-8.803 5.414-13.88 8.074-7.58 3.399-14.49 6.833-21.355 10.357-.159.082.195 1.164.31 1.779-3.115 1.89-6.23 3.781-9.859 5.649-5.106-.283-9.009 2.422-9.35 6.1-2.37 1.393-4.741 2.787-7.716 4.201-4.216 1.907-7.907 3.661-11.387 5.766-.907.55-1.153 2.191-1.703 3.33z"
        opacity="1"
    ></path>
    <path
        fill="#001F68"
        d="M205.966 78.192c3.484 1.555 6.968 3.109 10.884 5.15 2.997 2.83 5.56 5.174 8.123 7.518-4.853 2.798-9.715 5.582-14.559 8.397-7.354 4.273-14.82 8.37-21.998 12.923-4.625 2.933-8.819 6.546-13.856 9.826-6.725 3.892-12.803 7.807-18.842 11.78-.108.071.243.84.38 1.283-5.25 3.879-10.384 7.936-15.85 11.482-1.061.688-3.595-.27-5.129-1.079-2.284-1.203-4.283-2.95-6.751-4.82-2.254-2.04-3.93-4.164-6.12-5.304-3.205-1.67-4.847-3.78-4.284-7.41 9.17-6.078 18.351-12.142 27.507-18.244 3.397-2.263 6.586-4.883 10.134-6.869 7.599-4.253 15.37-8.2 23.673-12.574 6.659-3.277 12.714-6.25 18.937-9.386.386-.38.59-.613.781-.862.004-.003.013-.007.41-.006 2.451-.6 4.506-1.203 6.56-1.805z"
        opacity="1"
    ></path>
    <path
        fill="#011F68"
        d="M109.112 108.06c-1.09.66-2.221 1.262-3.262 1.993-2.568 1.8-5.326 3.417-7.583 5.556-3.072 2.912-10.666 5.456-15.328 1.945-4.672-3.518-10.638-5.319-16.762-8.216 2.988-2.026 6.16-4.372 9.515-6.415 9.36-5.7 18.704-11.437 28.234-16.841 6.61-3.75 13.539-6.935 20.286-10.447 3.406-1.772 6.725-3.71 10.403-5.4.319.35.32.527.314.73-.006.027.135.104.499.039 3.377-1.436 6.436-2.721 9.356-4.268.447-.237.254-1.68.357-2.565 1.411-.672 2.822-1.343 4.81-1.821 3.444.33 6.31.466 9.178.603.716.034 1.433.07 2.707.415 4.421 1.764 8.285 3.217 11.888 4.883-6.313 3.497-12.447 6.644-18.366 10.152-1.747 1.035-2.889 3.09-4.308 4.677-5.788 3.493-11.557 7.02-17.373 10.466-2.628 1.557-5.35 2.953-8.379 4.309-.711-.373-1.262-.939-1.41-.848a685.74 685.74 0 00-14.904 9.354c-.229.148.073 1.114.128 1.7z"
        opacity="1"
    ></path>
    <path
        fill="#E31736"
        d="M193.961 44.158c1.622-.734 3.262-1.431 4.863-2.207 10.396-5.035 19.955-1.58 29.548 2.675 3.713 1.647 7.72 2.636 11.598 3.91 7.858 2.58 15.731 5.114 23.574 7.738 4.639 1.552 9.268 3.148 13.817 4.938 1.02.401 2.403 1.753 2.34 2.568-.082 1.044-1.259 2.405-2.308 2.904-5.906 2.808-11.702 6.225-17.947 7.84-6.881 1.778-13.26-1.584-19.193-5.11-.931-.553-1.831-1.202-2.83-1.59-7.294-2.84-14.515-5.914-21.947-8.342-7.237-2.364-14.696-4.049-22.177-6.423-.408-1.15-.482-2.275-1.026-2.59-1.268-.737-2.762-1.085-4.493-1.708l6.181-4.603z"
        opacity="1"
    ></path>
    <path
        fill="#E21736"
        d="M245.887 26.18c1.432-.383 2.864-.766 5.116-1.193 3.207-.03 5.594-.017 7.99.004.007.007.021.022.331.207 8.009 2.566 15.696 4.985 23.43 7.244.57.167 1.479-.82 2.23-1.27 11.119 3.88 22.237 7.76 33.8 12.068 1.733.851 3.023 1.275 4.313 1.699 0 0-.07.078.202.17 1.13.354 1.987.618 2.845.882 0 0 .396.043.586.362-.813 2.04-1.816 3.761-2.82 5.483-.41.06-.822.121-1.672.096-1.034.241-1.627.57-2.22.897-1.407.4-2.814.799-4.942 1.096a4419.25 4419.25 0 00-17.157-1.881c-9.37-3.322-18.726-6.685-28.119-9.944-3.409-1.183-6.903-2.122-10.36-3.165-5.258-1.585-10.517-3.165-15.954-5.043-.898-1.516-1.616-2.734-2.36-3.997l4.761-3.715z"
        opacity="1"
    ></path>
    <path
        fill="#DF0C26"
        d="M317.394 102.904c4.706-2.932 9.798-5.808 15.462-8.775 1.418-.48 2.266-.869 3.113-1.258l44.162-18.126c-1.289-1.708-2.545-3.372-3.875-5.346 3.213 1.34 6.5 2.99 10.152 4.821-.856 1.194-1.167 2.143-1.763 2.383a18768.246 18768.246 0 01-64.017 25.655c-.9.359-1.896.474-3.234.646z"
        opacity="1"
    ></path>
    <path
        fill="#EB878F"
        d="M281.57 219.03c3.563 2.041 5.338 4.522 2.704 8.089-2.308 3.127-5.961 3.64-8.455.965-1.048-1.124-1.834-3.354-1.472-4.753.835-3.222 3.338-4.8 7.224-4.3z"
        opacity="1"
    ></path>
    <path
        fill="#DF0B27"
        d="M258.985 24.983c-2.388-.013-4.775-.026-7.61-.044 2-3.85 5.962-2.233 8.715-1.567 8.198 1.984 16.171 4.897 24.563 7.624-.42.627-1.329 1.613-1.9 1.446-7.733-2.259-15.42-4.678-23.414-7.258-.295-.2-.354-.2-.354-.2z"
        opacity="1"
    ></path>
    <path
        fill="#031462"
        d="M151.398 83.006c1.071-1.514 2.213-3.568 3.96-4.603 5.92-3.508 12.053-6.655 18.38-10.445.283-.7.292-.895.3-1.09 3.073 2.226 1.643 3.737-.83 5.016a1796.28 1796.28 0 01-21.81 11.122z"
        opacity="1"
    ></path>
    <path
        fill="#DF0D27"
        d="M213.369 168.757c.644-1.413 1.32-3.279 2.644-4.313a309.515 309.515 0 0116.03-11.723c1.523-1.039 3.626-1.228 5.774-1.744-7.832 5.945-15.975 11.827-24.448 17.78zM426.866 97.572c-1.282.03-3.047.202-4.107-.582-5.499-4.064-11.027-3.49-16.895-.954-1.883.814-4.166.703-6.605.957 8.007-6.872 17.339-6.757 27.607.58z"
        opacity="1"
    ></path>
    <path
        fill="#DE0C29"
        d="M427.353 118.003c2.87-2.058 5.84-3.997 8.738-6.038 1.964-1.384 3.827-2.91 5.861-4.7 1.783.313 3.44.952 5.098 1.59l-.047 1.517c-6.527 2.57-13.055 5.138-19.65 7.631zM369.891 65.678c-.995.522-2.588 1.36-3.348.88-5.577-3.527-11.495-3.432-17.624-2.263-.771.147-1.628-.153-2.73-.303 3.354-1.323 6.923-3.21 10.658-3.632 2.39-.27 5.048 1.563 7.542 2.565 1.801.725 3.529 1.632 5.502 2.753z"
        opacity="1"
    ></path>
    <path
        fill="#DF0923"
        d="M282.393 122.903c-.426-.46-.78-1.542-.62-1.624 6.864-3.524 13.773-6.958 20.996-10.32-6.476 3.987-13.27 7.888-20.376 11.944zM193.667 44.024c-1.533 1.495-3.36 2.855-5.887 4.737 1.731.623 3.225.97 4.493 1.707.544.316.618 1.442.732 2.324-4.129-.9-8.084-1.926-12.039-2.952l-.035-1.843c4.148-1.37 8.295-2.738 12.736-3.973zM245.488 26.121c-1.25 1.346-2.899 2.632-4.362 3.774.744 1.263 1.462 2.481 2.03 3.818-3.75-.643-7.35-1.404-12.237-2.436 4.705-4.061 9.522-4.429 14.569-5.156z"
        opacity="1"
    ></path>
    <path
        fill="#02105D"
        d="M156.438 134.994c-.477-.368-.828-1.137-.72-1.208 6.04-3.973 12.117-7.888 18.508-11.758.317.05.155.198.081.237-.133.246-.16.458-.153.673-5.791 3.994-11.583 7.987-17.716 12.056z"
        opacity="1"
    ></path>
    <path
        fill="#031462"
        d="M117.667 128.09c-.266 3.477 1.376 5.589 4.582 7.258 2.188 1.14 3.865 3.264 5.775 5.207-4.979-2.363-9.962-4.985-15.897-8.109 2.35-1.884 3.797-3.044 5.54-4.355z"
        opacity="1"
    ></path>
    <path
        fill="#DF0923"
        d="M230.666 117.064c-3.924 6.824-10.37 10.445-18.502 11.977 5.839-3.964 12.01-7.899 18.502-11.977z"
        opacity="1"
    ></path>
    <path
        fill="#02105D"
        d="M109.454 107.98c-.397-.505-.699-1.471-.47-1.62a685.74 685.74 0 0114.904-9.353c.148-.091.699.475 1.107.921-5.037 3.448-10.118 6.71-15.541 10.051z"
        opacity="1"
    ></path>
    <path
        fill="#DF0923"
        d="M296.569 150.984c-.936 1.526-1.974 3.443-3.564 4.6-3.61 2.624-7.492 4.874-11.64 7.351-.378.075-.49-.04-.49-.04.015-.433.03-.866.051-1.623 5.1-3.63 10.195-6.936 15.643-10.288z"
        opacity="1"
    ></path>
    <path
        fill="#021160"
        d="M198.048 81.026c-6.056 2.974-12.111 5.948-18.54 8.96a233.987 233.987 0 0115.645-9.733c1.066-.012 1.475.01 1.893.073.008.041-.159.14.131.28l.871.42z"
        opacity="1"
    ></path>
    <path
        fill="#DF0C26"
        d="M344.378 165.053c1.24-4.256 10.636-10.46 15.485-10.101-4.918 3.45-10.027 6.741-15.485 10.1z"
        opacity="1"
    ></path>
    <path
        fill="#DF0923"
        d="M332.087 68.118c-4.71 4.717-10.587 7.13-17.823 6.882 5.608-2.352 11.568-4.645 17.823-6.882z"
        opacity="1"
    ></path>
    <path
        fill="#DE091F"
        d="M297.99 52.406c5.407.23 10.886.824 16.714 1.554-5.616 3.567-11.288 3.217-16.714-1.554z"
        opacity="1"
    ></path>
    <path
        fill="#DF0B27"
        d="M242.418 148.04c.199-1.075.445-2.717 1.352-3.266 3.48-2.105 7.171-3.86 11.036-5.718-3.844 2.991-7.94 5.956-12.388 8.984z"
        opacity="1"
    ></path>
    <path
        fill="#02105D"
        d="M225.333 90.895c-2.923-2.38-5.486-4.723-8.166-7.374 3.83 1.41 7.777 3.127 11.724 4.844l-.097 1.534c-1.034.344-2.068.688-3.461.996z"
        opacity="1"
    ></path>
    <path
        fill="#DF0C26"
        d="M237.997 214.44c4.902 1.966 9.873 4.244 11.918 10.331-3.914-3.09-7.896-6.538-11.918-10.33z"
        opacity="1"
    ></path>
    <path
        fill="#021160"
        d="M134.934 70.939v-.796c3.17-2.12 6.339-3.975 9.857-5.901.247.814.44 2.257-.007 2.494-2.92 1.547-5.979 2.832-9.39 4.236-.396.033-.46-.033-.46-.033zM173.827 66.583c.203.48.194.675.172 1.162-3.878-1.16-7.742-2.613-11.806-4.339 3.674.782 7.548 1.836 11.634 3.177z"
        opacity="1"
    ></path>
    <path
        fill="#DE091F"
        d="M263.22 134.764c-.006-3.635 3.897-6.34 8.69-5.915-2.646 2.067-5.494 3.97-8.69 5.915z"
        opacity="1"
    ></path>
    <path
        fill="#DF0C26"
        d="M441.734 105.763c-4.938 1.1-8.093-2.099-11.536-5.336a121.13 121.13 0 0111.536 5.336z"
        opacity="1"
    ></path>
    <path
        fill="#021160"
        d="M159.02 62.613c-2.758.203-5.625.066-8.729-.248 2.734-1.981 5.703-3.739 8.73.248z"
        opacity="1"
    ></path>
    <path
        fill="#DE0C29"
        d="M324.264 51.789c.65-1.675 1.653-3.396 2.656-5.377 1.168.954 4.91-.516 3.237 3.27-.747-.066-.982.062-1.11.42-1.476.546-2.953 1.093-4.783 1.687z"
        opacity="1"
    ></path>
    <path
        fill="#021160"
        d="M205.638 78.115a30.896 30.896 0 01-6.04 1.668c.328-.766.86-1.317 1.393-1.868 1.44.041 2.88.082 4.647.2z"
        opacity="1"
    ></path>
    <path
        fill="#DE0C29"
        d="M322.916 44.66c-1.109-.145-2.4-.569-3.805-1.242 1.13.155 2.377.558 3.805 1.241zM320.313 52.877c.298-.376.891-.704 1.615-.906-.353.402-.836.677-1.615.906z"
        opacity="1"
    ></path>
    <path
        fill="#001F68"
        d="M200.64 77.953c-.181.513-.714 1.064-1.439 1.829-.192.214-.201.218-.761.346-.932.213-1.302.298-1.68.337-.007-.045.172-.146-.086-.245l-.773-.298c1.462-.643 2.924-1.287 4.738-1.969z"
        opacity="1"
    ></path>
    <path
        fill="#DF0923"
        d="M334.63 67.126c-.601.496-1.493.942-2.59 1.22.629-.535 1.465-.902 2.59-1.22z"
        opacity="1"
    ></path>
    <path
        fill="#DE0C29"
        d="M325.937 45.7c-.65.027-1.508-.237-2.677-.627.616.028 1.543.181 2.677.626z"
        opacity="1"
    ></path>
    <path
        fill="#DF0923"
        d="M232.656 115.942c-.202.228-.707.522-1.479.936.214-.21.695-.54 1.48-.936z"
        opacity="1"
    ></path>
    <path
        fill="#E21736"
        d="M329.261 50.045c-.086-.301.15-.43.56-.273.067.053-.345.216-.56.273z"
        opacity="1"
    ></path>
    <path
        fill="#001F68"
        d="M174.263 122.727c-.116-.004-.09-.216-.03-.543 0-.12.138.333.03.543zM197.038 80.285c-.41-.022-.82-.044-1.533-.091-.305-.026.039-.168.218-.22.35.015.522.08.962.21.27.063.353.1.353.1z"
        opacity="1"
    ></path>
    <path
        fill="#DF0923"
        d="M281.045 163.066c.057.056-.18-.086-.175-.129.004-.042.117.073.175.129zM335.665 92.975c-.543.285-1.39.674-2.479 1.026.565-.332 1.37-.627 2.479-1.026z"
        opacity="1"
    ></path>
    <path
        fill="#021160"
        d="M196.767 80.51a502 502 0 011.669-.38c.368.122.165.355-.221.735-.36.068-.554-.025-1.047-.211-.3-.092-.401-.143-.401-.143zM135.031 71.037c.033.032-.108-.045-.102-.072.005-.026.069.04.102.072z"
        opacity="1"
    ></path>
    <path
        fill="#E21736"
        d="M258.992 24.99c-.007-.007.052-.006.037.008-.015.015-.03 0-.037-.007z"
        opacity="1"
    ></path>
</svg>