<svg version="1.1" id="Layer_1" xmlns="http://www.w3.org/2000/svg" xmlns:xlink="http://www.w3.org/1999/xlink" x="0px" y="0px"
	 width="100%" viewBox="0 0 256 256" enable-background="new 0 0 154 154" xml:space="preserve">
    <style>
        .icon-mid-white-color-change{
            fill: #666467;
        }
        @media (prefers-color-scheme: dark) {
            .icon-mid-white-color-change{
                fill: #fafafa;
            }
        }
    </style>
    <path
        class="icon-mid-white-color-change"
        d="M147 118c29.488 0 58.475.005 87.463-.004 4.52-.001 8.335.944 10.73 5.472 4.304 8.134-.48 16.518-9.735 16.521-59.475.02-118.95.01-178.425.011H49.82c1.962 2.11 3.087 3.398 4.293 4.606 16.486 16.498 32.989 32.98 49.471 49.481 3.612 3.616 5.681 7.828 3.81 12.972-2.933 8.066-11.908 10.184-18.37 4.46-.622-.552-1.18-1.176-1.769-1.765-23.678-23.678-47.36-47.353-71.032-71.036-7.048-7.052-7.029-12.405.067-19.504 23.908-23.92 47.822-47.833 71.737-71.746 5.46-5.46 11.78-5.983 16.541-1.39 4.995 4.82 4.892 11.497-.283 17.123-.788.858-1.642 1.655-2.467 2.48-15.784 15.786-31.57 31.57-47.35 47.363-1.272 1.273-2.493 2.597-4.75 4.956H147z"
        opacity="1"
    ></path>
</svg>