<svg version="1.1" id="Layer_1" xmlns="http://www.w3.org/2000/svg" xmlns:xlink="http://www.w3.org/1999/xlink" x="0px" y="0px"
	 width="100%" viewBox="0 0 512 512" enable-background="new 0 0 154 154" xml:space="preserve">
    <path
        fill="#DE8B00"
        d="M238.468 513c-1.189-.66-1.807-1.69-2.645-1.922-15.226-4.194-28.893-11.346-39.86-22.719-13.719-14.224-22.587-30.992-23.996-51.139-.193-2.766-.667-5.513-.579-8.723 28.82-.478 57.208-.502 85.61-.52.013.005.045.003.035.473-.017 28.497-.025 56.523-.033 84.55h-18.532z"
        opacity="1"
    ></path>
    <path
        fill="#FFA000"
        d="M257.468 513c-.46-28.027-.452-56.053.03-84.55 28.85-.441 57.226-.413 85.602-.384-.599 19.053-5.966 36.632-17.59 51.791-12.174 15.875-28.274 26.23-47.754 31.181-.872.222-1.626.904-2.095 1.667-5.682.295-11.703.295-18.193.295zM265.55 1c1.032.766 1.455 1.792 2.22 2.257 7.268 4.418 10.977 10.92 11.193 19.322.184 7.139.046 14.287-.35 21.908-7.46.165-14.52-.15-21.602-.715-.035-.42-.048-.587-.05-1.225.021-14.162.03-27.855.039-41.547h8.55z"
        opacity="1"
    ></path>
    <path
        fill="#DF8B00"
        d="M256.55 1c.441 13.692.432 27.385.009 41.632-7.506 1.134-14.597 1.714-21.689 2.294.036-5.154.447-10.34.031-15.457-.989-12.167 2.488-21.924 13.428-28.213C250.7 1 253.4 1 256.55 1z"
        opacity="1"
    ></path>
    <path
        fill="#FFC107"
        d="M257.033 44.024c7.06.314 14.12.628 21.624.926 14.668 1.794 28.097 6.154 41.191 11.958 20.336 9.015 37.08 22.749 51.584 39.203 11.878 13.474 20.5 29.08 26.546 46.047 4.322 12.127 7.686 24.518 7.954 37.436.558 26.894.167 53.819 1.243 80.688.907 22.667 7.546 43.925 19.159 63.632 7.211 12.238 15.543 23.543 26.18 32.862 6.243 5.468 11.817 11.074 15.348 18.697 5.723 12.358 2.745 29.533-5.937 39.233-8.374 9.355-18.546 13.44-30.97 13.357-28.976-.194-57.953-.058-87.392-.026-28.84 0-57.216-.028-86.056-.057-.464 0-.496.002-.504-.469.005-128.143.017-255.815.03-383.487z"
        opacity="1"
    ></path>
    <path
        fill="#DEA806"
        d="M257.011 43.772c.01 127.924-.003 255.596-.022 383.733-28.393.49-56.78.514-85.644.553-31.106-.002-61.736.146-92.363-.104-16.596-.135-32.238-13.486-35.068-30.274-2.758-16.36 3.501-28.286 15.595-39.043 18.975-16.88 32.675-37.65 40.444-62.044 4.635-14.556 7.27-29.395 7.087-44.775-.26-21.97-.053-43.945.198-66.611.403-1.237.562-1.781.72-2.326.528-25.116 9.032-47.72 21.666-69.048 8.122-13.712 18.83-25.317 30.78-35.535C178.575 62.76 199.61 52.342 223.018 47c3.636-.83 7.34-1.362 11.433-2.053a2544.14 2544.14 0 0022.097-1.847c.416.084.43.252.464.671z"
        opacity="1"
    ></path>
    <path
        fill="#EBB205"
        d="M107.663 183.01c.137.416-.022.96-.355 1.73-.096-.382-.018-.992.355-1.73z"
        opacity="1"
    ></path>
</svg>