<svg version="1.1" id="Layer_1" xmlns="http://www.w3.org/2000/svg" xmlns:xlink="http://www.w3.org/1999/xlink" x="0px" y="0px"
	 width="100%" viewBox="0 0 800 600" enable-background="new 0 0 154 154" xml:space="preserve">
    <path
        fill="#FFE77B"
        d="M469 601H1V1h800v600H469M218.797 416.817c.317.187.633.373.938.461 0 0-.083.054.128.63 1.053.944 2.106 1.888 3.504 3.427 1.265 1.304 2.534 2.604 3.795 3.91 8.374 8.67 17.692 15.854 30.143 19.336 1.513.385 3.026.771 5.189 1.452 1.113.379 2.227.757 3.483 1.796 8.436 8.699 16.78 17.49 25.347 26.058 4.296 4.297 9 8.185 13.67 12.212 0 0-.14.071-.059.73 1.657 1.75 3.315 3.5 5.009 5.256 0 0-.017-.032.194.435.289.166.578.332 1.432.84 3.553 3.257 6.818 6.914 10.704 9.707 31.993 23.002 67.085 29.337 105.09 18.849 23.499-6.486 42.55-19.951 59.172-38.287 8.834-8.771 17.689-17.523 26.472-26.345.879-.882 1.328-2.191 2.659-3.273.452-.025.905-.051 1.818.085 0 0 .487-.033 1.023.458 24.306 8.742 52.09 1.97 69.033-16.896.627-.742 1.254-1.484 1.567-2.598 0 0 .334.353.919.057 4.354-4.645 8.709-9.289 13.678-14.21 6.12-6.24 12.241-12.479 18.934-18.853.412-.366.824-.733 1.77-1.255.185-.308.37-.617 1.167-1.169 6.505-6.817 13.01-13.634 20.175-20.635 7.182-8.165 14.363-16.33 22.075-24.974 2.328-6.35 4.655-12.698 7.28-19.83.272-5.061.546-10.124.949-16.042-1.055-4.714-2.109-9.428-3.002-14.905-2.62-5.449-5.24-10.898-8.015-17.025-6.32-6.502-12.639-13.003-19.24-20.086-5.926-6.076-11.853-12.153-18.066-18.823-5.572-5.463-11.144-10.926-17.033-16.962-3.824-3.535-7.649-7.069-11.579-10.462 0 0 .147-.099.093-.676-.387-.412-.775-.824-1.45-1.84-4.242-4.138-8.483-8.276-13.052-12.99-4.503-4.3-9.006-8.6-13.666-13.53-9.25-9.54-18.547-19.035-27.714-28.653-2.391-2.509-4.099-1.853-6.19.288-6.385 6.536-12.873 12.97-19.864 19.09-1.416-1.144-2.94-2.177-4.231-3.449-8.626-8.5-17.21-17.043-25.791-25.589a52930.652 52930.652 0 01-45.117-44.97c-14.55-14.524-29.013-29.134-43.653-43.565-4.776-4.708-5.11-4.509-9.94-.02-.854.793-1.667 1.631-2.492 2.456-13.409 13.414-26.777 26.87-40.28 40.188-1.538 1.518-3.828 2.274-5.838 2.473-.15-3.013-.3-6.027-.25-9.724-.065-.466-.131-.933-.06-1.873 0 0-.108-.481.118-1.394-.021-10.99-.043-21.98.122-33.619l-.973-1.89c-.662.777-1.324 1.555-2.488 2.759-2.461 2.438-4.917 4.882-7.385 7.314-7.964 7.853-15.933 15.701-24.318 23.73-.263.21-.368.48-.728 1.345-4.002 4.072-8.004 8.143-12.406 12.48-.252.206-.455.451-1.131.976-.453.354-.906.707-1.74 1.183-.246.165-.357.395-.746 1.14-.29.285-.58.57-1.255.917-.25.138-.383.35-.848 1.128-1.566 1.563-3.133 3.126-5.126 4.836-.273.189-.401.449-.798 1.308-5.609 5.528-11.218 11.056-17.228 16.687-.254.157-.395.384-.67 1.072 0 0-.184.424-.772.722-5.083 5.255-10.165 10.511-15.85 16.063-6.798 6.915-13.596 13.83-20.987 21.048-6.487 6.552-12.974 13.105-20.05 19.968-4.794 4.895-9.589 9.79-14.987 14.973-8.822 8.9-17.645 17.8-27.057 27.003-7.177 7.56-14.354 15.12-22.073 23.047-2.876 5.16-5.752 10.321-9.102 16.034a4943.945 4943.945 0 01-3.898 21.564c1.134 6.866 2.268 13.732 3.522 21.305 3.227 5.995 6.454 11.99 9.944 18.645 4.147 4.472 8.157 9.08 12.466 13.391 15.225 15.234 30.553 30.366 45.99 45.842 0 0 .316.119.51.754.75.768 1.501 1.535 2.531 2.89 1.239.814 2.478 1.63 3.859 2.88.178.275.43.432.867 1.167 2.697 2.648 5.394 5.296 8.246 8.277 0 0 .344.129.597.731.948.865 1.896 1.73 2.946 2.522 0 0-.125-.01.07.517m452.215-287.158c-.055.428-.109.857-.799 1.48l-3.14 4.888 1.316 1.4c1.194-.826 2.39-1.65 3.948-3.046 7.242-6.628 9.323-20.274 4.427-30.01-.963-2.132-1.927-4.265-3.11-6.774-.18-.234-.395-.429-.719-1.135a8.864 8.864 0 00-.347-.909c-.148-.244-.334-.453-.517-1.39-.526-1.557-.755-3.308-1.625-4.64-7.508-11.511-17.16-20.79-29.593-26.786-9.865-4.758-19.945-3.294-26.825 3.275 0 0 .001-.05-.475-.013 0 0-.475.045-1.18.126-.991 1.369-2.508 2.617-2.856 4.134-.57 2.488-.38 5.15-.547 8.578-.326 4.057-.652 8.113-1.381 12.694 1.417 4.835 2.834 9.67 3.548 14.538-.416 1.548-1.692 3.66-1.107 4.551 3.25 4.948 6.295 10.345 10.651 14.179 6.868 6.045 14.55 11.23 22.211 16.29 6.214 4.103 17.718 1.281 21.026-4.416 1.586-2.73.625-3.593-1.903-4.42.968-1.757 1.935-3.513 3.009-5.74 0 0 .095-.473.756-.717-.183-1.951-.366-3.903-.626-6.645-.024-1.058-.049-2.117.367-3.641 1.412-4.229 3.423-1.179 5.368.402.066 1.69.133 3.38-.332 5.643.166 2.486.332 4.971.455 8.104m-502.63 330.265a99.665 99.665 0 01-4.047-.044c-1.444.053-2.888.105-5.14.085-1.08-.034-2.16-.068-3.8-.544-5.151-1.15-10.707-4.63-14.401 2.573 0 0-.06-.012-.44.255-.178.398-.357.795-1.103 1.648-2.15 3.927-5.296 7.627-6.248 11.826-2.041 8.998 1.112 17.34 5.349 25.282 7.169 13.437 16.994 24.069 31.587 30.715 6.513 4.596 13.927 4.888 21.37 3.95 5.774-.726 9.312-4.356 9.634-9.257 2.582-3.324 6.7-6.359 7.396-10.04 1.132-5.992.98-12.614-.324-18.602-3.213-14.75-13.83-24.355-25.17-33.219-1.622-1.268-3.16-2.711-4.48-4.289-2.77-3.31-7.547-3.522-10.183-.34z"
        opacity="1"
    ></path>
    <path
        fill="#FFDD51"
        d="M340.004 110.01c1.941-1.11 4.23-1.866 5.77-3.384 13.502-13.319 26.87-26.774 40.28-40.188.824-.825 1.637-1.663 2.491-2.457 4.83-4.488 5.164-4.687 9.94.021 14.64 14.431 29.104 29.041 43.653 43.564a52930.652 52930.652 0 0045.117 44.971c8.58 8.546 17.165 17.089 25.791 25.59 1.29 1.27 2.815 2.304 4.542 3.967.32.98.329 1.439-.005 1.899-1.74.678-3.139 1.356-4.936 2.03-1.062.04-1.851-.13-2.367.169-2.5 1.453-4.852 4.083-7.4 4.264-2.41.171-4.946-2.313-7.535-3.363-1.004-.408-2.304-.092-3.47-.092-13.65-.002-27.316-.378-40.95.13-9.244.344-18.379-1.218-27.846 2.341-8.23 3.094-17.23 4.358-27.05 3.136-14.265-1.774-29.032.496-43.587 1-.77.027-1.55-.34-2.33-.504-3.361-.706-6.725-1.405-10.103-2.56-.326-4.823-.637-9.192-.782-13.94.358-1.348.716-2.314.718-3.28.03-18.698.034-37.396-.027-56.093-.003-1.078-.603-2.154-.884-3.584.35-1.447.66-2.542.97-3.638z"
        opacity="1"
    ></path>
    <path
        fill="#F79636"
        d="M485.919 483.876c-16.005 18.089-35.056 31.554-58.556 38.04-38.004 10.488-73.096 4.153-105.09-18.849-3.885-2.793-7.15-6.45-11.122-10.083-.64-.63-.908-.815-1.224-.93 0 0 .017.031.012-.367-.461-3.332-.813-6.37-5.086-5.517 0 0 .141-.07.063-.418-1.072-2.506-2.065-4.665-3.058-6.825l1.337-1.008c1.17.72 2.292 1.926 3.523 2.051 2 .203 4.139-.055 6.096-.578 1.81-.484 3.46-1.571 5.486-2.25 6.644 4.727 12.531 10.193 19.416 13.705 13.221 6.745 27.795 6.755 42.72 6.125 12.822-1.59 25.112-3.591 36.936-8.973 1.125-.004 1.875-.007 2.968-.018 1.115-.66 1.887-1.312 2.989-1.972.77-.014 1.21-.019 2.024-.076a116.602 116.602 0 007.87-4.174c1.072-.414 1.913-.594 3.156-.773 3.057-.819 5.665-1.972 8.384-2.374 3.404-.505 7.58-1.68 10.216-.284 5.74 3.038 11.21 2.956 17.21 1.944 4.962-.838 9.93-.536 13.73 3.604z"
        opacity="1"
    ></path>
    <path
        fill="#F89D39"
        d="M486.227 483.753c-4.109-4.017-9.076-4.319-14.039-3.481-6 1.012-11.469 1.094-17.21-1.944-2.635-1.395-6.811-.22-10.215.284-2.719.402-5.327 1.555-8.302 2.048 1.295-1.442 2.909-2.556 4.826-3.829 7.669-4.657 15.244-8.853 22.324-13.763 4.512-3.129 8.289-7.316 12.738-11.09 4.257-3.335 8.13-6.659 12.104-9.86 1.498-1.207 3.225-2.13 5.169-3.112 7.335 5.039 14.349 10.007 21.363 14.976-.649 1.111-1.098 2.42-1.977 3.302a2357.205 2357.205 0 01-26.78 26.469z"
        opacity="1"
    ></path>
    <path
        fill="#BB6A19"
        d="M265.834 447.169c-1.113-.379-2.227-.757-3.663-1.614-1.601-1.848-2.88-3.218-4.35-4.793-.713-.737-1.235-1.267-1.847-2.121-2.046-2.101-4.002-3.878-5.966-5.647-.007.006.002-.01-.129-.3-1.047-1.083-1.963-1.877-3.094-2.904-1.417-1.416-2.62-2.598-3.975-4.026-.67-.465-1.187-.684-1.735-.848-.03.055.066-.025.042-.314-.392-.714-.76-1.138-1.28-1.842-1.396-1.728-2.638-3.177-3.877-4.952-.677-.785-1.358-1.242-2.287-1.71-.25-.011-.746-.068-.878-.367-.8-1.412-1.468-2.526-1.709-3.668 2.988-.512 5.545-1.39 8.109-1.41 14.87-.111 29.74-.02 44.69.398.727 5.605 1.025 10.89 2.11 16.007 1.355 6.388 3.358 12.638 4.638 18.926-8.561.38-16.68.783-24.799 1.185z"
        opacity="1"
    ></path>
    <path
        fill="#6A4B0F"
        d="M199.023 396.774c-15.289-15.17-30.617-30.303-45.842-45.537-4.309-4.31-8.319-8.919-12.095-13.765 10.962-.738 21.555-1.056 32.143-1.488 4.44-.18 8.693-.43 10.558 5.002.319.929 2.093 1.358 3.223 2.397.952 2.831 1.878 5.284 2.826 8.117 3.298 12.448 8.923 23.377 16.224 33.87 1.073 2.081 2.012 3.853 2.604 5.57-4.628-4.762-8.94-9.445-13.177-14.192-1.806-2.023-9.97-2.855-11.415-.782-.567.813-.325 2.98.39 3.765 3.774 4.141 7.91 7.952 11.713 12.068 1.264 1.367 1.916 3.3 2.848 4.975zM667.296 354.5c-7.182 8.165-14.363 16.33-22.01 24.27-.137-5.06-3.277-5.77-7.038-5.768-12.799.006-25.599-.068-38.397.038-4.898.04-9.518.956-12.23 5.869-.497.901-1.706 1.41-2.546 1.746 2.38-5.1 4.72-9.846 7.287-14.856 1.666-3.453 3.105-6.643 4.891-9.904 2.348-2.228 4.07-4.614 7.787-3.486 2.16.655 4.589.563 6.897.569 16.451.042 32.903-.028 49.353.09 2.005.014 4.004.932 6.006 1.432z"
        opacity="1"
    ></path>
    <path
        fill="#342413"
        d="M586.989 437.865c-16.39 18.66-44.175 25.431-68.735 16.123-.248-.993-.242-1.42-.039-2.023.619-.49 1.041-.804 1.832-1.12 2.183-2.046 3.997-4.091 5.959-6.387a30.436 30.436 0 013.008-2.667c.471-.426.68-.738.98-1.24.259-.43.482-.595 1.136-.659 1.099-.703 1.822-1.432 2.558-2.182.013-.021.052-.052.411.01 1.872-1.529 3.385-3.118 5.172-4.862 1.421-1.063 2.568-1.971 4.107-2.858 2.335.189 4.805 1.194 6.12.365 3.596-2.267 5.444-.854 6.385 1.254 6.364-.584 12.039-1.08 17.706-1.642 1.307-.13 2.638-.35 3.878-.765 6.267-2.098 10.163-.11 11.975 6.2 0 0-.334-.352-.527-.226-.77.977-1.348 1.828-1.926 2.679z"
        opacity="1"
    ></path>
    <path
        fill="#76540D"
        d="M667.561 354.26c-2.267-.26-4.266-1.178-6.271-1.193-16.45-.117-32.902-.047-49.353-.09-2.308-.005-4.737.087-6.897-.568-3.716-1.128-5.439 1.258-7.766 3.09.788-5.631 1.903-10.937 3.191-16.436.343-.496.513-.799.984-1.29 2.681-1.05 5.053-2.633 7.44-2.658 19.535-.202 39.072-.113 58.609-.116 2.437 0 4.873-.016 7.31-.025-2.327 6.349-4.654 12.698-7.247 19.286z"
        opacity="1"
    ></path>
    <path
        fill="#825D0C"
        d="M130.65 318.494c-1.133-6.866-2.267-13.732-2.909-21.044 4.603-.78 8.711-1.355 12.825-1.404 11.283-.134 22.58.245 33.849-.168 5.695-.208 9.642.885 10.578 7.454-.039.775-.069 1.217-.397 1.74-.096 1.033.107 1.984.334 3.384.05 3.147.073 5.845.061 8.948-.128 1.48-.22 2.556-.667 3.61-3.16-1.24-5.989-3.544-8.773-3.493-13.97.258-27.926 1.595-41.888-.357-.924-.129-2.005.86-3.012 1.33z"
        opacity="1"
    ></path>
    <path
        fill="#B56318"
        d="M528.752 441.906c-.866.767-1.732 1.534-3.063 2.675-2.314 2.338-4.162 4.302-6.01 6.266-.423.314-.845.628-1.711 1.24-.61.815-.777 1.331-.944 1.847-.452.026-.905.052-1.698.063-7.355-4.984-14.369-9.952-21.71-15.32.89-1.935 2.066-3.506 3.334-4.998a2196.646 2196.646 0 0113.445-15.654c2.308-2.539 4.366-4.847 6.658-6.93.161 2.64 1.052 4.32 3.716 4.296 2.93-.026 5.878-.065 8.786-.387 7.288-.807 13.93 1.44 20.475 4.343-.12.719-.193 1.129-.533 1.703-1.712 1.672-3.156 3.18-4.836 4.85-.428.488-.62.813-.99 1.233-.4.254-.586.446-1.063.766-1.858 1.705-3.39 3.317-5.193 5.106-1.405 1.67-2.54 3.161-3.675 4.653 0 0-.04.03-.36.075-1.088.74-1.857 1.437-2.626 2.133-.278.09-.501.255-1.005.823-.556.624-.777.92-.997 1.217z"
        opacity="1"
    ></path>
    <path
        fill="#9C710C"
        d="M140.79 259.93c7.178-7.56 14.355-15.12 22.173-22.681 7.047.167 13.454.391 19.862.452 1.095.01 2.507-.366 3.243-1.096 3.852-3.826 8.62-3.716 13.495-3.633 6.478.111 12.96.033 19.401.315-.055.654-.072 1.029-.545 1.475-9.368.071-18.28.071-27.122.071v12.345c5.445 0 10.57 0 15.675.296-.051.69-.082 1.085-.368 1.685-1.412 2.07-2.57 3.936-3.988 5.988-1.325 1.745-2.389 3.303-3.9 4.915-2.827.098-5.208.143-7.776-.051-7.194.503-14.206 1.884-21.208 1.833-9.651-.071-19.294-1.225-28.941-1.914z"
        opacity="1"
    ></path>
    <path
        fill="#5A4010"
        d="M585.035 381.008c.88-.69 2.09-1.198 2.587-2.1 2.711-4.912 7.331-5.828 12.23-5.868 12.797-.106 25.597-.032 38.396-.038 3.76-.001 6.901.708 6.708 5.86-6.37 7.134-12.875 13.951-19.682 20.503-.155-1.726-.01-3.185.185-5.134-11.649 0-23.201-1.026-34.41.488-4.72.637-6.23-1.664-7.95-2.817-4.355 2.617-8.057 4.842-11.931 7.06-.173-.007-.512-.036-.352-.24.232-.36.304-.518.57-.77.43-.277.593-.51.962-.98 2.659-2.815 5.037-5.445 7.661-8.166.464-.358.68-.626.854-.9-.042-.005-.04-.09.315-.106 1.456-2.047 2.557-4.078 3.685-6.286.027-.177.172-.506.172-.506z"
        opacity="1"
    ></path>
    <path
        fill="#825D0C"
        d="M674.957 334.583c-2.586.4-5.022.416-7.46.416-19.536.003-39.073-.086-58.608.116-2.387.025-4.759 1.608-7.528 2.692-.391.223-.567.297-.486-.125.758-5.176 1.435-9.93 2.468-14.74 4.55-3.649 9.52-4.04 14.796-4 19.261.148 38.524.062 57.786.063-.273 5.062-.547 10.125-.968 15.578z"
        opacity="1"
    ></path>
    <path
        fill="#8B640C"
        d="M675.99 318.577c-19.327.427-38.59.513-57.85.366-5.278-.04-10.246.35-14.822 3.55-.656-4.084-.932-7.774-1.2-11.866.049-1.464.09-2.528.444-3.693 2.4-3.314 4.686-5.9 8.896-3.087.362.242.978.138 1.475.138 13.157 0 26.41.94 39.432-.392 7.052-.72 13.7-.976 20.527.414 1.054 4.714 2.108 9.428 3.098 14.57z"
        opacity="1"
    ></path>
    <path
        fill="#D39A05"
        d="M263.096 136.299c5.609-5.528 11.218-11.056 17.26-16.885.431-.301.88-.407 1.26-.381 2.034.667 3.68 1.828 5.349 1.862 8.37.172 16.816.71 25.098-.174 7.02-.749 14.456 1.172 20.895-2.383-4.763 5.224-9.198 10.305-13.949 15.072-3.437 3.45-7.292 6.484-11.276 9.425-2.113-.464-3.91-.797-5.707-.81-8.147-.058-16.294.024-24.44-.051-3.11-.03-6.686-1.413-9.222-.298-4.74 2.083-6.071.462-6.523-3.778 0 0 .185-.424.478-.712.51-.443.67-.643.777-.887z"
        opacity="1"
    ></path>
    <path
        fill="#A2750A"
        d="M646.08 266.714c6.319 6.502 12.638 13.003 18.64 20.02-2.435.765-4.552 1.223-6.67 1.232-14.39.065-28.782-.115-43.168.114-5.148.082-10.552.078-14.859 3.553-1.08-3.808-2.102-7.231-3.164-11.005-.979-2.777-1.916-5.203-2.556-7.877 2.303-.749 4.295-1.625 6.314-1.69 13.769-.447 27.547-.63 41.31-1.194 1.425-.058 2.77-2.056 4.153-3.153z"
        opacity="1"
    ></path>
    <path
        fill="#4D3611"
        d="M571.34 398.97l11.758-7.068c1.722 1.153 3.231 3.454 7.95 2.817 11.21-1.514 22.762-.488 34.411-.488-.194 1.949-.34 3.408-.491 5.255-.19.696-.374 1.005-1.112 1.444-.965.507-1.377.883-1.79 1.26-6.12 6.238-12.24 12.478-18.791 18.558-.301-1.672-.171-3.186.026-5.49-4.326-.65-8.63-1.745-12.958-1.847-7.646-.18-15.391-.37-22.925.674-3.825.529-6.676.643-9.249-2.38 3.023-3.11 5.914-5.916 9.174-8.726 1.425-1.076 2.481-2.146 3.62-3.434.083-.216.377-.575.377-.575z"
        opacity="1"
    ></path>
    <path
        fill="#CA9205"
        d="M261.547 138.047c.746 4.09 2.077 5.712 6.817 3.629 2.536-1.115 6.112.269 9.221.298 8.147.075 16.294-.007 24.44.051 1.799.013 3.595.346 5.55 1.1-5.995 6.709-12.15 12.848-18.777 18.96-15.31-.029-30.148-.029-45.368-.029l2.576-8.093c5.082-5.256 10.164-10.512 15.54-15.916z"
        opacity="1"
    ></path>
    <path
        fill="#976C0B"
        d="M600.081 292.018c4.25-3.86 9.653-3.856 14.801-3.938 14.386-.229 28.778-.05 43.168-.114 2.118-.01 4.235-.467 6.748-.894 3.016 5.274 5.636 10.723 8.175 16.554-6.908-1.01-13.556-.754-20.608-.033-13.021 1.332-26.275.392-39.432.392-.497 0-1.113.104-1.475-.138-4.21-2.813-6.496-.227-8.971 2.654-1.061-5.049-1.733-9.766-2.406-14.483z"
        opacity="1"
    ></path>
    <path
        fill="#8B640C"
        d="M185.003 303c-.946-6.237-4.893-7.33-10.588-7.122-11.27.413-22.566.034-33.85.168-4.113.049-8.22.624-12.729.97a170.106 170.106 0 013.818-20.762c3.298.862 6.069 2.536 8.883 2.613 11.32.312 22.654.194 33.98.086 2.959-.029 6.021-.214 8.84-1.016 3.39-.966 4.686-.087 4.703 3.344.005.91.622 1.816.93 3.128-.462 3.1-.895 5.795-1.524 8.808-.95 3.473-1.707 6.628-2.463 9.783z"
        opacity="1"
    ></path>
    <path
        fill="#976C0B"
        d="M189.018 284.004c-.336-.907-.953-1.813-.958-2.723-.017-3.43-1.313-4.31-4.703-3.344-2.819.802-5.881.987-8.84 1.016-11.326.108-22.66.226-33.98-.086-2.814-.077-5.585-1.751-8.646-2.89 2.606-5.358 5.482-10.518 8.629-15.863 9.918.505 19.56 1.659 29.212 1.73 7.002.051 14.014-1.33 21.174-1.43 2.2 1.35 4.246 2.059 6.219 3.128-2.752 7.06-5.43 13.762-8.107 20.462z"
        opacity="1"
    ></path>
    <path
        fill="#E6A805"
        d="M517.926 183.992a36.87 36.87 0 00-.066-1.72c6.408-6.817 12.896-13.251 19.28-19.787 2.092-2.141 3.8-2.797 6.19-.288 9.168 9.618 18.466 19.112 27.643 29.324-1.495 1.305-2.92 2.466-4.341 2.464-2.956-.005-5.908-.888-8.868-.93-4.185-.06-8.387.6-12.562.434-5.783-.23-11.547-.944-17.646-1.515-3.428-2.704-6.53-5.343-9.63-7.982z"
        opacity="1"
    ></path>
    <path
        fill="#A87909"
        d="M219.003 233.007c-6.48-.002-12.962.076-19.44-.035-4.874-.083-9.643-.193-13.495 3.633-.736.73-2.148 1.107-3.243 1.096-6.408-.06-12.815-.285-19.568-.604 8.477-9.05 17.3-17.95 26.576-26.666 1.781 4.448 4.54 5.915 9.072 5.676 7.428-.393 14.952.464 22.318-.314 4.818-.509 8.48-.414 10.712 4.501-1.091 1.41-2.021 2.548-3.286 3.751-2.447 2.367-4.558 4.666-6.934 7.107-1.08.712-1.897 1.284-2.712 1.855z"
        opacity="1"
    ></path>
    <path
        fill="#AF7E08"
        d="M232.097 220.02c-2.394-4.641-6.056-4.736-10.874-4.227-7.366.778-14.89-.08-22.318.314-4.532.24-7.291-1.228-8.77-5.82 4.642-5.223 9.437-10.117 14.877-14.999 2.189.569 3.728 1.59 5.277 1.604 11.425.109 22.863.296 34.27-.18 3.492-.146 5.724.493 7.24 3.577a8694.165 8694.165 0 01-19.702 19.731m-26.603-22.478s-.026-.057 0 0z"
        opacity="1"
    ></path>
    <path
        fill="#DDA004"
        d="M333.15 118.061c-6.63 3.832-14.066 1.911-21.087 2.66-8.282.883-16.728.346-25.098.174-1.669-.034-3.315-1.195-5.38-2.048a.783.783 0 01-.437-.588 542.367 542.367 0 015.079-5.02c.579-.469.737-.644.852-.858.29-.285.58-.57 1.226-1.184.54-.499.68-.7.772-.934.453-.353.906-.706 1.857-1.266.677-.483.855-.759 1.033-1.036 4.002-4.07 8.004-8.142 12.365-12.474.359-.26.667-.208.672.173 1.3 2.006 2.581 5.023 3.895 5.037 10.192.114 20.39-.352 30.585-.638.15 3.013.3 6.027.486 9.495-.276 1.55-.586 2.646-1.23 4.244-2.085 1.757-3.837 3.01-5.59 4.263z"
        opacity="1"
    ></path>
    <path
        fill="#AF7E08"
        d="M645.939 266.424c-1.241 1.387-2.587 3.385-4.011 3.443-13.764.564-27.542.747-41.311 1.194-2.019.065-4.011.941-6.574 1.457-2.738-5.134-4.919-10.282-7.068-15.836.372-4.07 3.133-3.607 5.597-3.685 10.391-.329 20.781-.72 31.175-.973 2.864-.07 4.375-1.16 4.272-4.12 5.926 6.076 11.853 12.153 17.92 18.52z"
        opacity="1"
    ></path>
    <path
        fill="#76540D"
        d="M130.711 318.848c.947-.823 2.028-1.813 2.952-1.684 13.962 1.952 27.918.615 41.888.357 2.784-.051 5.612 2.253 8.848 3.925.447 2.496.465 4.539.287 6.796-.016 1.065.165 1.915.493 3.124.7 4.118 1.252 7.878 1.804 11.638-1.103-.66-2.877-1.09-3.196-2.018-1.865-5.432-6.118-5.183-10.558-5.002-10.588.432-21.181.75-32.275 1.158-3.73-5.95-6.956-11.946-10.243-18.294z"
        opacity="1"
    ></path>
    <path
        fill="#BB8707"
        d="M252.012 200.034c-1.73-2.829-3.96-3.468-7.454-3.322-11.406.476-22.844.289-34.269.18-1.549-.015-3.088-1.035-4.983-1.758 6.136-6.722 12.623-13.275 19.653-19.689 1.243 2.188 1.028 4.724 4.558 4.605 12.53-.423 25.068-.651 37.604-.776 1.294-.013 2.6 1.16 3.765 2.049-.721 1.066-1.307 1.867-2.23 2.73-5.46 5.338-10.582 10.613-15.939 15.915a28.25 28.25 0 01-.705.066z"
        opacity="1"
    ></path>
    <path
        fill="#C18C07"
        d="M271.02 181.057c-1.3-.623-2.605-1.796-3.899-1.783-12.536.125-25.074.353-37.604.776-3.53.119-3.315-2.417-4.262-4.757 6.552-7.205 13.35-14.12 20.45-21.182-.573 2.599-1.448 5.346-2.275 7.945 15.22 0 30.057 0 45.178.315-5.673 6.438-11.63 12.562-17.587 18.686z"
        opacity="1"
    ></path>
    <path
        fill="#F9BF2A"
        d="M607.991 91.007c.327-4.057.653-8.113 1.317-12.607.764-.451 1.191-.465 1.777-.167 1.631 2.064 2.798 4.276 4.627 5.495 13.22 8.808 26.539 17.47 39.918 26.033 2.264 1.449 4.97 2.206 7.618 3.545.709 1.065 1.27 1.867 1.833 2.67.024 1.058.049 2.117.04 4.002-.023 2.572-.013 4.317-.002 6.062 0 0-.095.473-.478.767-2.662 2.09-4.621 1.658-7.013.067-11.6-7.713-23.489-15.002-34.964-22.893-5.356-3.683-12.48-5.625-14.673-12.974z"
        opacity="1"
    ></path>
    <path
        fill="#412D13"
        d="M558.039 412.008c2.703 2.72 5.554 2.606 9.379 2.077 7.534-1.043 15.28-.854 22.925-.674 4.328.102 8.632 1.197 12.958 1.846-.197 2.305-.327 3.82-.334 5.63-4.231 4.941-8.586 9.585-13.232 14.378-2.105-6.162-6.001-8.15-12.268-6.053-1.24.416-2.571.635-3.878.765-5.667.562-11.342 1.058-17.706 1.642-.941-2.108-2.789-3.521-6.386-1.254-1.314.829-3.784-.176-6.12-.727-.41-.866-.427-1.35-.444-1.833.152-.226.338-.418.978-.831.608-.582.797-.91.986-1.236 1.444-1.508 2.888-3.016 4.973-4.7 1.798-1.803 2.956-3.43 4.26-5.341 1.4-1.419 2.654-2.554 3.909-3.689m-2.58 4.483s.055-.024 0 0z"
        opacity="1"
    ></path>
    <path
        fill="#E6A805"
        d="M339.585 99.717c-10.297.628-20.494 1.094-30.686.98-1.314-.014-2.595-3.03-3.858-5.302.047-.82.062-.996.077-1.172 7.968-7.85 15.937-15.698 23.901-23.55 2.468-2.433 4.924-4.877 7.986-7.5 1.292-.136 1.982-.086 2.673-.036.022 10.99.044 21.98-.204 33.463-.175.788-.08 1.082.014 1.376.066.466.132.933.097 1.74z"
        opacity="1"
    ></path>
    <path
        fill="#F89D39"
        d="M265.906 447.499c8.047-.732 16.166-1.135 24.983-1.306 7.046 11.37 14.972 21.052 26.156 28.077.34 1.124.644 1.927.948 2.73-1.72.821-3.369 1.908-5.179 2.392-1.957.523-4.095.781-6.096.578-1.23-.125-2.352-1.33-3.523-2.05l-1.337 1.007c.993 2.16 1.986 4.32 2.983 6.848-4.517-3.703-9.22-7.591-13.517-11.888-8.567-8.567-16.91-17.359-25.418-26.388z"
        opacity="1"
    ></path>
    <path
        fill="#FDD337"
        d="M607.79 91.269c2.393 7.087 9.518 9.029 14.874 12.712 11.475 7.891 23.363 15.18 34.964 22.893 2.392 1.59 4.351 2.022 6.96.168-.638 1.698-1.605 3.454-2.986 5.613-2.136 1.103-3.859 1.805-5.912 2.463-1.123.249-1.916.54-3.164.832-7.466.97-13.598-1.372-19.473-5.327-.746-.743-1.4-1.184-2.336-1.802-6.48-7.713-12.68-15.249-18.878-22.785-1.416-4.835-2.833-9.67-4.049-14.767z"
        opacity="1"
    ></path>
    <path
        fill="#BB8707"
        d="M627.875 247.607c.247 3.257-1.264 4.348-4.128 4.417-10.394.253-20.784.644-31.175.973-2.464.078-5.225-.385-5.844 3.533-1.018-.368-1.758-.99-2.573-1.96-3.444-5.405-6.812-10.462-9.964-15.85 2.06-.795 3.89-1.582 5.75-1.657 5.61-.228 11.232-.183 16.849-.238 2.243-.022 4.485-.033 6.728-.039 2.714-.006 5.429-.001 8.35-.001l-.852-5.864c5.572 5.463 11.144 10.926 16.86 16.686z"
        opacity="1"
    ></path>
    <path
        fill="#DDA004"
        d="M527.883 192.038c5.772.507 11.536 1.22 17.32 1.451 4.174.167 8.376-.494 12.56-.434 2.961.042 5.913.925 8.869.93 1.422.002 2.846-1.16 4.419-2.15a145.274 145.274 0 0113.576 13.099c-1.206 1.664-2.3 3.703-3.456 3.74-9.853.315-19.723.118-29.575.457-1.883.065-3.708 1.817-5.864 2.656-6.152-6.673-12-13.21-17.849-19.749z"
        opacity="1"
    ></path>
    <path
        fill="#F6B423"
        d="M155.953 459.863c1.081.034 2.162.068 3.696.49 2.081 3.628 3.912 6.786 5.3 10.128 6.078 14.634 11.938 29.36 18.085 43.964 1.573 3.737-.238 4.376-3.526 4.633-4.11-2.272-7.855-4.526-11.574-7.232-.389-3.036-.33-5.815-1.303-8.167-3.13-7.56-6.763-14.912-9.965-22.444-2.414-5.679-4.465-11.511-6.515-17.578 2.043-1.466 3.923-2.63 5.802-3.794z"
        opacity="1"
    ></path>
    <path
        fill="#F9BF2A"
        d="M179.873 519.097c2.923-.276 4.734-.915 3.161-4.652-6.147-14.604-12.007-29.33-18.085-43.964-1.388-3.342-3.219-6.5-4.896-10.093 1.394-.403 2.838-.455 4.859-.227 2.747 1.124 4.916 1.966 7.252 3.117 1.974 4.01 3.963 7.633 5.556 11.423 5.447 12.957 10.585 26.046 16.233 38.913 1.463 3.333 2.14 6.066-.329 9.186-.767.094-1.21.117-1.855-.067-1.05-.063-1.896.081-3.135.241-1.43-.017-2.47-.049-3.705-.35-1.816-1.355-3.436-2.441-5.056-3.527z"
        opacity="1"
    ></path>
    <path
        fill="#CA9205"
        d="M546.036 211.922c1.852-.974 3.677-2.726 5.56-2.79 9.852-.34 19.722-.143 29.575-.458 1.157-.037 2.25-2.076 3.62-3.452 4.489 3.872 8.73 8.01 12.92 12.649.485.972 1.02 1.444 1.556 1.916 0 0-.147.1-.163.442-.046 2.877-.931 3.474-3.725 3.227-8.897-.79-17.842-1.156-26.776-1.363-2.996-.07-6.54-.159-7.955 3.883-1.833-1.502-3.3-2.968-4.829-4.365-2.836-2.59-5.71-5.141-8.72-7.957l-1.063-1.732z"
        opacity="1"
    ></path>
    <path
        fill="#C18C07"
        d="M560.987 226.042c1.077-4.108 4.62-4.019 7.616-3.95 8.934.208 17.879.574 26.776 1.364 2.794.247 3.679-.35 3.777-3.297 3.894 3.12 7.719 6.654 11.701 10.475.394 1.901.628 3.515 1.012 6.15-2.922 0-5.637-.004-8.35.002-2.244.006-4.486.017-6.73.04-5.616.054-11.238.009-16.848.237-1.86.075-3.69.862-6.034 1.485-2.893-1.768-5.286-3.698-7.873-5.905-1.811-2.385-3.429-4.493-5.047-6.601z"
        opacity="1"
    ></path>
    <path
        fill="#F2AF24"
        d="M613.979 66.016c6.929-6.573 17.01-8.037 26.874-3.28 12.433 5.997 22.085 15.276 29.593 26.786.87 1.333 1.1 3.084 1.68 5.224.192.84.388 1.04.64 1.186.057.177.113.354.307 1.003.307.721.528.91.8 1.038.964 2.133 1.928 4.266 2.737 6.979-.838 5.275-4.524 2.138-6.805 2.756-1.41-3.026-2.554-5.796-3.939-8.439-6.132-11.703-14.71-21.211-25.73-28.53-8.058-5.353-16.79-6.74-26.157-4.723zM169.827 531.096c-14.281-6.022-24.106-16.654-31.275-30.091-4.237-7.943-7.39-16.284-5.35-25.282.953-4.199 4.098-7.9 6.55-11.578-2.703 10.86-1.05 20.614 4.294 30.353 6.656 12.13 15.891 21.54 27.066 29.731.12 2.645 5.375 5.96-1.285 6.867z"
        opacity="1"
    ></path>
    <path
        fill="#FFE15E"
        d="M171.085 523.856c-11.148-7.818-20.383-17.228-27.039-29.358-5.343-9.739-6.997-19.493-4.011-30.58.162-.874.34-1.271.775-1.703.256-.034.536-.013.536-.013l-.364-.269c3.706-7.142 9.262-3.662 14.692-2.29-1.6 1.384-3.48 2.548-5.825 4.185-4.73 3.727-6.36 8.608-5.605 13.298 2.449 15.205 10.846 26.762 23.665 35.172 3.744 2.254 7.489 4.508 11.599 6.78 1.985 1.105 3.605 2.19 5.039 3.593-1.301 1.64-2.416 2.966-3.904 4.279-3.435-1.04-6.497-2.067-9.558-3.094z"
        opacity="1"
    ></path>
    <path
        fill="#4D3611"
        d="M242.962 426.01c1.203 1.182 2.406 2.364 3.875 4.11 1.235 1.33 2.204 2.098 3.173 2.864 0 0-.01.016.044.351 2.038 2.1 4.024 3.865 6.01 5.63.522.53 1.044 1.06 1.743 2.15-.208 1.37-.593 2.179-.979 2.989-11.974-3.005-21.292-10.19-29.666-18.859-1.261-1.306-2.53-2.606-3.984-4.561-1.301-1.552-2.414-2.452-3.526-3.352 0 0 .083-.054.005-.282-.403-.405-.729-.583-1.055-.76 0 0 .125.01.132-.338-1.063-1.157-2.135-1.967-3.206-2.776 0 0-.344-.13-.437-.64-2.816-3.161-5.54-5.813-8.263-8.464-.327-.037-.579-.194-.83-1.071-.755-2.746-1.44-4.891-2.31-7.623 10.45 3.166 16.52 10.4 23.198 16.888 1.663 1.616 4.009 2.528 6.041 3.764 0 0 .496.057.884.325.974.772 1.56 1.276 2.145 1.78 1.243 1.448 2.485 2.897 3.922 4.911.551.993.907 1.419 1.263 1.845 0 0-.096.08.082.275.699.411 1.219.628 1.74.845z"
        opacity="1"
    ></path>
    <path
        fill="#FFE15E"
        d="M614.003 66.014c9.343-2.014 18.075-.628 26.132 4.724 11.02 7.32 19.599 16.828 25.731 28.531 1.385 2.643 2.53 5.413 3.94 8.839.422 2.8.69 4.885.959 6.97-1.821-.747-3.832-3.797-5.464.665-.782-.57-1.344-1.372-2.061-2.842-4.119-18.421-14.922-31.094-30.428-39.668-8.513-4.707-17.74-2.131-21.885 4.687-.428.015-.855.029-1.602.06-.189-2.57-.378-5.233.192-7.721.348-1.517 1.865-2.765 3.313-4.06.457.075.884.102.884.102l.315-.339s-.001.05-.026.052z"
        opacity="1"
    ></path>
    <path
        fill="#FEEA89"
        d="M169.007 459.987c2.011-3.246 6.788-3.034 9.558.276 1.32 1.578 2.858 3.02 4.48 4.29 11.34 8.863 21.957 18.467 25.17 33.218 1.304 5.988 1.456 12.61.324 18.602-.696 3.681-4.814 6.716-7.748 10.411-.735.371-1.117.372-1.9.309-1.235-1.416-2.067-2.768-2.654-4.327 1.757-1.726 3.269-3.245 5.097-4.834.73-.759 1.142-1.446 1.57-2.509.665-3.041 1.313-5.707 2.214-8.603-.142-1.433-.536-2.636-.978-4.233-.099-1.451-.15-2.508-.002-3.743-.218-.739-.635-1.299-1.103-2.203a70.204 70.204 0 01-.171-2.754c-.618-.851-1.222-1.372-1.994-2.198-3.304-5.105-5.978-10.303-9.685-14.61-5.347-6.215-10.573-12.903-19.37-15.342-1.06-.742-1.934-1.246-2.808-1.75z"
        opacity="1"
    ></path>
    <path
        fill="#5A4010"
        d="M232.795 415.73c-1.9-.936-4.246-1.848-5.91-3.464-6.677-6.488-12.746-13.722-23.198-16.888.872 2.732 1.556 4.877 2.241 7.405-1.238-.43-2.477-1.246-3.864-2.736-.958-1.4-1.768-2.124-2.577-2.85 0 0-.317-.118-.39-.27-1.006-1.828-1.658-3.76-2.922-5.128-3.804-4.116-7.939-7.927-11.713-12.068-.715-.784-.957-2.952-.39-3.765 1.445-2.073 9.609-1.241 11.415.782 4.238 4.747 8.55 9.43 13.478 14.345 1.183 1.18 1.517 2.367 2.288 3.09 6.423 6.018 12.926 11.95 19.406 17.91a156.5 156.5 0 012.136 3.638z"
        opacity="1"
    ></path>
    <path
        fill="#FEEA89"
        d="M656.02 135.16a191.837 191.837 0 015.506-2.17c3.017.09 3.978.953 2.392 3.683-3.308 5.697-14.812 8.519-21.026 4.415-7.661-5.058-15.343-10.244-22.21-16.289-4.357-3.834-7.401-9.231-10.652-14.179-.585-.89.69-3.003 1.458-4.568 6.55 7.52 12.748 15.056 19.297 23.084 1.02.925 1.69 1.357 2.36 1.789 5.783 3.653 11.915 5.995 19.59 5.252 1.538-.188 2.412-.602 3.285-1.016z"
        opacity="1"
    ></path>
    <path
        fill="#F9BF2A"
        d="M199.292 527.156c.382 0 .764 0 1.431-.035.098 4.193-3.44 7.823-9.214 8.55-7.443.937-14.857.645-21.526-4.263 6.504-1.22 1.249-4.534 1.129-7.179 3.034.654 6.096 1.681 9.889 2.886 3.427.775 6.134 1.893 8.816 1.835 3.17-.068 6.318-1.15 9.475-1.794zM670.827 115.495c-.33-2.502-.6-4.587-.868-7.072 2.127-1.333 5.813 1.804 6.67-3.114 5.03 8.798 2.95 22.444-4.77 29.293-.655-1.072-.833-2.365-1.01-3.658.054-.428.108-.857.426-1.907.114-3.1-.036-5.578-.187-8.056-.066-1.69-.133-3.38-.261-5.486z"
        opacity="1"
    ></path>
    <path
        fill="#5A4010"
        d="M206.883 404.421c2.668 2.302 5.392 4.954 8.13 7.949-2.681-2.304-5.378-4.952-8.13-7.949z"
        opacity="1"
    ></path>
    <path
        fill="#FFE15E"
        d="M670.53 131.042c.496 1.195.674 2.488 1.147 3.845-.899.89-2.094 1.714-3.288 2.54l-1.316-1.4c1.047-1.63 2.094-3.259 3.458-4.985z"
        opacity="1"
    ></path>
    <path
        fill="#F89D39"
        d="M304.894 486.5c4.232-1.183 4.584 1.855 5.027 5.185-1.671-1.356-3.329-3.106-5.027-5.186z"
        opacity="1"
    ></path>
    <path
        fill="#FFE15E"
        d="M670.823 121.268c.416 2.191.566 4.67.474 7.446-.408-2.188-.574-4.673-.474-7.446z"
        opacity="1"
    ></path>
    <path
        fill="#5A4010"
        d="M257.067 444.342c.147-1.048.532-1.858.931-3.021 1.293 1.016 2.572 2.386 3.848 4.086-1.515-.055-3.028-.44-4.78-1.065z"
        opacity="1"
    ></path>
    <path
        fill="#FFE15E"
        d="M168.695 459.955c1.186.536 2.06 1.04 3.118 2.03.186.487.184.984.184.984-2.17-.842-4.338-1.684-6.745-2.777.886-.256 2.008-.262 3.443-.237zM665.45 125.918c-.342-1.623-.352-3.368-.291-5.544.255 1.52.438 3.47.29 5.544z"
        opacity="1"
    ></path>
    <path
        fill="#EBC12A"
        d="M339.771 62.813c-.784.274-1.474.224-2.515.146.312-.805.974-1.583 1.636-2.36.324.63.649 1.26.88 2.214z"
        opacity="1"
    ></path>
    <path
        fill="#5A4010"
        d="M219.758 417.62c1.006.612 2.119 1.512 3.248 2.766-1.037-.59-2.09-1.534-3.248-2.766zM215.654 413.477c.945.508 2.017 1.318 3.03 2.511-1.007-.48-1.955-1.345-3.03-2.511z"
        opacity="1"
    ></path>
    <path
        fill="#412D13"
        d="M587.265 437.761c.302-.747.88-1.598 1.807-2.39-.277.803-.904 1.545-1.807 2.39z"
        opacity="1"
    ></path>
    <path
        fill="#6A4B0F"
        d="M199.583 397.516c.713.407 1.523 1.132 2.341 2.238-.742-.386-1.493-1.153-2.34-2.238z"
        opacity="1"
    ></path>
    <path
        fill="#C18C07"
        d="M599.24 219.499c-.509-.184-1.044-.656-1.385-1.326.583.213.97.625 1.385 1.326z"
        opacity="1"
    ></path>
    <path
        fill="#DDA004"
        d="M339.557 97.74c-.164-.058-.258-.352-.197-.683.157-.036.266.445.197.682z"
        opacity="1"
    ></path>
    <path
        fill="#412D13"
        d="M517.255 454.015c-.064-.597.102-1.113.516-1.752.241.305.235.732.215 1.48-.014.32-.5.353-.731.272z"
        opacity="1"
    ></path>
    <path
        fill="#5A4010"
        d="M622.353 402.121c.126-.308.538-.684 1.236-1.113-.126.313-.538.68-1.236 1.113z"
        opacity="1"
    ></path>
    <path
        fill="#F9BF2A"
        d="M672.677 95.743c-.163.044-.359-.157-.573-.616.15-.027.336.182.573.616z"
        opacity="1"
    ></path>
    <path
        fill="#EBC12A"
        d="M304.91 94.312c.193.087.178.263.126.703-.037.264-.345.213-.499.206-.204-.338-.099-.61.372-.909z"
        opacity="1"
    ></path>
    <path
        fill="#F2AF24"
        d="M613.791 65.98c.238-.018-.077.321-.077.321s-.427-.027-.532-.142c-.104-.115.371-.16.61-.179z"
        opacity="1"
    ></path>
    <path
        fill="#F89D39"
        d="M310.032 492.287c.211-.118.48.066.836.526-.152.04-.441-.127-.836-.526z"
        opacity="1"
    ></path>
    <path
        fill="#F9BF2A"
        d="M673.764 97.785c-.163.06-.384-.129-.656-.574.151-.043.367.152.656.574z"
        opacity="1"
    ></path>
    <path
        fill="#EBC12A"
        d="M291.767 108.094c.022.144-.156.42-.572.784-.083-.2.12-.445.572-.784zM288.886 110.325c.099.172-.04.373-.375.646-.172-.19-.06-.42.375-.646zM286.887 112.412c.077.183-.081.358-.437.58-.138-.2-.005-.41.437-.58zM280.934 118.333c.214-.073.243.302.273.488.03.186-.42.292-.646.329-.241-.294-.113-.554.373-.817z"
        opacity="1"
    ></path>
    <path
        fill="#5A4010"
        d="M218.7 416.553c.228-.086.554.092.963.546-.233.091-.55-.095-.963-.546z"
        opacity="1"
    ></path>
    <path
        fill="#EBC12A"
        d="M262.896 136.35c.094.193-.067.393-.453.64-.143-.204-.002-.431.453-.64z"
        opacity="1"
    ></path>
    <path
        fill="#FED64E"
        d="M340.024 190.997c3.363.702 6.727 1.401 10.089 2.107.78.164 1.56.53 2.329.504 14.555-.504 29.322-2.774 43.588-1 9.82 1.222 18.82-.042 27.049-3.136 9.467-3.559 18.602-1.997 27.847-2.341 13.633-.508 27.298-.132 40.95-.13 1.165 0 2.465-.316 3.469.092 2.589 1.05 5.125 3.534 7.534 3.363 2.55-.18 4.901-2.81 7.401-4.264.516-.3 1.305-.128 2.202.12-4.731 5.332-9.764 10.305-14.635 15.432-2.451 2.58-4.609 5.438-7.23 8.25-3.063 3.325-5.795 6.57-8.938 9.731-9.834.047-19.258.177-28.92.072-1.428.224-2.62.683-4.157 1.164-1.439.343-2.534.665-4.04.987-4.254.893-8.16 1.582-11.928 2.721-6.58 1.988-13.077 4.253-19.62 6-.06-4.599-3.371-4.514-6.044-4.588-7.396-.205-14.8-.08-22.201-.097-2.323-.005-4.658-.207-6.968-.04-5.99.435-11.96 1.203-17.956 1.506-6.615.335-13.297 2.24-19.865-.876-.069-2.137-.124-3.847-.137-6.025.017-8.151-.009-15.836.004-23.95.085-2.153.131-3.877.177-5.602z"
        opacity="1"
    ></path>
    <path
        fill="#EBC12A"
        d="M270.886 181.323c6.092-6.39 12.049-12.514 18.195-18.924 6.345-6.426 12.5-12.565 18.81-18.995 3.826-3.51 7.681-6.544 11.118-9.994 4.75-4.767 9.186-9.848 13.95-15.072 1.944-1.53 3.696-2.783 5.742-4.187.614.926 1.214 2.002 1.217 3.08.06 18.697.057 37.395.027 56.092-.002.967-.36 1.933-1.124 3.3-3.145 1.048-5.694 2.12-8.296 2.271a2330.705 2330.705 0 01-42.643 2.07c-6.094.243-12.357-.69-17.628 3.574-.165.133-.83-.351-1.261-.548.586-.8 1.172-1.6 1.893-2.667z"
        opacity="1"
    ></path>
    <path
        fill="#E7B928"
        d="M268.656 184.054c.768.133 1.433.617 1.598.484 5.271-4.264 11.534-3.33 17.628-3.574 14.22-.566 28.437-1.243 42.643-2.07 2.602-.151 5.15-1.223 8.13-1.89.717 4.348 1.028 8.717 1.354 13.54-.03 2.178-.077 3.902-.61 6.048-22.735 1.083-44.984 1.768-67.234 2.392-4.593.129-9.194-.05-13.787.084-1.816.052-3.618.568-5.426.872 5.122-5.274 10.244-10.549 15.704-15.886z"
        opacity="1"
    ></path>
    <path
        fill="#F1BD26"
        d="M490.948 209.914c2.29-2.732 4.448-5.59 6.899-8.17 4.87-5.127 9.904-10.1 15.034-15.427 1.563-.968 2.962-1.646 4.702-2.324 3.444 2.638 6.545 5.277 9.973 7.981 6.176 6.602 12.024 13.14 18.176 19.813.608.63.912 1.124.933 1.883-8.618.3-16.955.358-25.292.365-5.764.005-11.589.44-17.272-.254-4.475-.546-8.775-2.524-13.153-3.867z"
        opacity="1"
    ></path>
    <path
        fill="#F4A418"
        d="M318.3 477.142c-.611-.945-.915-1.748-.94-2.708 9.222 4.41 18.548 7.705 29.123 8.453 7.814.097 15.164.14 22.77.414 2.247.394 4.42 1.145 6.188.594 3.53-1.1 4.762 1.08 5.02 3.446.346 3.152-.259 6.409-.456 9.621-14.494.64-29.068.63-42.29-6.115-6.884-3.512-12.771-8.978-19.415-13.705z"
        opacity="1"
    ></path>
    <path
        fill="#F2AF24"
        d="M380.437 496.972c-.235-3.222.37-6.479.025-9.631-.259-2.366-1.49-4.547-5.021-3.446-1.768.551-3.941-.2-5.881-.849 4.909-1.557 9.768-2.628 15.027-3.768 2.013-.375 3.668-.544 5.233-1.013 7.054-2.118 14.082-4.322 21.134-6.036-.886 6.71 1.347 11.725 6.043 15.772-11.45 5.38-23.74 7.38-36.56 8.971z"
        opacity="1"
    ></path>
    <path
        fill="#F6B423"
        d="M417.372 487.999c-5.07-4.045-7.304-9.06-6.218-16.029 2.163-2.08 4.14-3.444 6.406-4.826.671-.086 1.053-.152 1.808-.25 4.19-2.286 8.006-4.541 12.163-6.858 1.647-.43 2.953-.798 4.65-1.132 4.841 1.184 6.893 4.15 6.228 8.4-.503 3.224-.952 6.457-1.426 9.685-1.613 1.115-3.227 2.229-4.923 3.67-.924.506-1.765.686-3.202 1.158a1266.49 1266.49 0 00-7.878 4.168c-.44.005-.88.01-1.966.06-1.436.678-2.226 1.312-3.017 1.945l-2.625.009z"
        opacity="1"
    ></path>
    <path
        fill="#F89D39"
        d="M425.353 485.933c2.055-1.24 4.482-2.533 7.276-3.883-2.058 1.238-4.48 2.534-7.276 3.883zM420.34 487.98c.448-.623 1.238-1.257 2.344-1.926-.457.615-1.229 1.266-2.344 1.927z"
        opacity="1"
    ></path>
    <path
        fill="#FBCA31"
        d="M510.146 418.256c-4.401 5.139-8.815 10.267-13.196 15.423a47.066 47.066 0 00-3.656 4.927c-1.616 1.382-3.343 2.305-4.841 3.512-3.973 3.201-7.847 6.525-12.108 9.463-1.975-5.272-3.602-10.206-5.228-15.14-2.47.527-4.819 1.027-7.01 1.233 1.887-2.053 3.622-3.805 5.342-5.573 4.555-4.68 9.103-9.367 13.902-14.166.723-.384 1.197-.653 2.01-.975 3.053-3.083 5.767-6.113 8.51-9.35.029-.207.13-.611.447-.648 1.109-.679 1.901-1.32 3.066-1.975 1.606-.404 2.852-.765 4.074-1.194 2.46-.866 3.459-.094 2.922 2.513-1.121 5.449 2.279 8.722 5.766 11.95z"
        opacity="1"
    ></path>
    <path
        fill="#F9BF2A"
        d="M463.95 437.969l7.167-1.527c1.626 4.933 3.253 9.867 4.885 15.2-4.102 4.11-7.88 8.297-12.39 11.426-7.08 4.91-14.656 9.106-22.325 13.763.17-3.07.619-6.303 1.122-9.527.665-4.25-1.387-7.216-6.103-8.714 1.44-1.625 3.163-2.88 4.848-4.182 4.008-3.1 7.997-6.224 12.206-9.36.212-.023.631-.118.96-.15 1.163-.966 1.995-1.898 3.162-2.89 2.379-1.388 4.423-2.713 6.467-4.04z"
        opacity="1"
    ></path>
    <path
        fill="#C0741B"
        d="M231.086 412.063c-6.907-5.93-13.41-11.862-19.833-17.88-.77-.723-1.105-1.91-1.942-3.035-1.24-1.925-2.178-3.697-3.027-6.015-.1-3.158.81-4.184 3.72-4.206 25.753-.194 51.505-.57 77.23-.52-.166 1.108-.306 1.843-.706 2.644-.28.723-.298 1.379-.343 2.466-.811 8.667-1.595 16.903-2.38 25.139-14.87-.023-29.74-.114-44.61-.003-2.564.02-5.12.898-8.109 1.41z"
        opacity="1"
    ></path>
    <path
        fill="#FEDD55"
        d="M283.885 411.05a799.77 799.77 0 012.497-25.742c.285-1.201.346-1.762.407-2.324.14-.734.279-1.47.65-2.875 1.74-5.557 3.249-10.444 5.086-15.283 2.048.913 3.767 1.78 5.477 3.07-.36 2.279-.71 4.134-1.286 6.24-.396 1.12-.567 1.987-.983 3.166-2.286 12.877-4.728 25.293-2.93 38.267 3.04 21.919 16.436 42.226 39.445 47.709 2.1.783 3.936 1.337 5.764 2.266-1.029 6.13 2.867 9.776 5.765 13.856.79 1.113 1.496 2.286 2.241 3.431-10.11-.692-19.436-3.988-28.694-8.718-11.463-6.868-19.389-16.55-25.992-27.898-1.979-6.519-3.982-12.77-5.336-19.157-1.086-5.118-1.384-10.402-2.111-16.007z"
        opacity="1"
    ></path>
    <path
        fill="#5A4010"
        d="M255.974 438.64c-1.896-1.44-3.882-3.205-5.913-5.311 1.91 1.434 3.867 3.21 5.913 5.312zM249.88 432.695c-.839-.477-1.808-1.244-2.828-2.341.864.463 1.78 1.257 2.827 2.34z"
        opacity="1"
    ></path>
    <path
        fill="#C0741B"
        d="M235.96 417.808c-.59-.177-1.175-.681-1.9-1.442.542.2 1.223.657 1.9 1.442z"
        opacity="1"
    ></path>
    <path
        fill="#5A4010"
        d="M242.81 425.764c-.368.03-.888-.187-1.557-.653.37-.03.887.188 1.557.653zM241.117 424.602c-.332-.137-.688-.563-1.086-1.276.326.138.694.562 1.086 1.276z"
        opacity="1"
    ></path>
    <path
        fill="#CC8920"
        d="M184.883 328.027a215.928 215.928 0 00-.13-6.559c.017-1.508.11-2.584.704-4.064 28.684-.07 56.867.262 85.05.597 4.88.058 9.965-1.346 14.274 2.306-5.854 9.526-7.088 19.22-3.71 29.505-6.792-.575-13.171-1.81-19.525-1.69-16.016.3-32.019 1.277-48.032 1.844-5.967.211-11.95-.055-17.922.086-1.933.046-3.853.694-5.779 1.067-.925-2.452-1.85-4.905-2.803-7.736-.58-4.139-1.131-7.899-1.81-12.391a60.759 60.759 0 01-.317-2.965z"
        opacity="1"
    ></path>
    <path
        fill="#C77E1E"
        d="M189.836 351.5c1.903-.754 3.823-1.402 5.756-1.448 5.972-.141 11.955.125 17.922-.086 16.013-.567 32.016-1.544 48.032-1.845 6.354-.12 12.733 1.116 19.692 1.988 2.056 2.554 3.414 4.93 5.01 7.136 1.876 2.589 3.957 5.029 5.949 7.534-1.51 4.886-3.018 9.773-4.732 14.957-25.956.62-51.708.997-77.461 1.19-2.91.023-3.82 1.049-3.855 3.898-7.39-9.947-13.015-20.876-16.313-33.324z"
        opacity="1"
    ></path>
    <path
        fill="#C3781B"
        d="M579.763 388.897c-2.378 2.63-4.756 5.26-7.62 7.736-4.417-.8-8.327-1.733-12.285-2.018-4.58-.33-9.203-.186-13.802-.067-3.223.084-6.437.488-9.657.717-2.832.2-5.667.356-8.503.169 1.398-3.615 2.8-6.866 4.446-10.363a39.204 39.204 0 001.743-4.041c-.027-.03-.02.05.267-.146 3.332-5.788 6.377-11.38 9.867-16.95 6.371.355 12.294.865 18.224.98 7.158.137 14.375.43 21.46-.337 3.197-.346 5.832-1.128 8.23 1.485-2.339 4.747-4.679 9.493-7.058 14.593-.04.353-.185.682-.517 1.013-1.467 2.27-2.6 4.209-3.734 6.148 0 0-.003.085-.205.182-.42.364-.638.632-.856.9z"
        opacity="1"
    ></path>
    <path
        fill="#CB831D"
        d="M592.362 365.799c-2.627-2.35-5.262-1.568-8.46-1.222-7.084.767-14.301.474-21.46.336-5.93-.114-11.852-.624-18.165-1.356 2.351-8.779 5.09-17.159 8.234-25.619 2.53-.366 4.67-.973 6.782-.886 13.568.559 27.13 1.269 40.77 1.999l.228.206c-1.114 5.305-2.23 10.611-3.365 16.313a171.617 171.617 0 01-4.564 10.229z"
        opacity="1"
    ></path>
    <path
        fill="#412D13"
        d="M520.047 450.846c1.48-1.963 3.328-3.927 5.493-6.015a52.241 52.241 0 01-5.493 6.015zM534.099 437.72c.776-1.554 1.91-3.046 3.643-4.66.817-.099 1.036-.073 1.255-.048-1.513 1.59-3.026 3.18-4.898 4.707z"
        opacity="1"
    ></path>
    <path
        fill="#4D3611"
        d="M539.27 432.858c-.492.129-.711.103-1.257.024 1.204-1.666 2.737-3.278 4.595-4.983.342.39.359.873.377 1.718-1.146 1.27-2.293 2.178-3.714 3.24z"
        opacity="1"
    ></path>
    <path
        fill="#412D13"
        d="M531.13 439.892c.393-.722 1.162-1.418 2.238-2.137-.416.705-1.14 1.434-2.238 2.137zM529.014 441.791c-.042-.182.179-.478.644-.912.036.174-.173.486-.644.912z"
        opacity="1"
    ></path>
    <path
        fill="#CB831D"
        d="M601.058 337.996c-.08.268-.25.57-.593 1.067-.174.194-.327.057-.3-.187.184-.47.385-.646.629-.772 0 0 .176-.074.264-.108z"
        opacity="1"
    ></path>
    <path
        fill="#D19322"
        d="M284.902 319.987c-4.43-3.332-9.515-1.928-14.396-1.986-28.182-.335-56.365-.668-85.013-1.001-.49-2.699-.514-5.397-.519-8.92-.014-1.58-.047-2.334-.08-3.089.03-.442.06-.884.1-1.659.765-3.487 1.522-6.642 2.933-10.086 7.693-.942 14.72-1.94 21.77-2.14 6.101-.174 12.23.886 18.342.828 14.024-.132 28.045-.606 42.066-.973.983-.025 1.953-.386 2.939-.461 7.832-.599 15.667-1.166 23.672-1.393.9 3.534 1.585 6.729 2.365 9.9 2.105 8.567 2.12 8.562-5.554 13.078-1.11.653-2.216 1.31-3.565 2.076-.474.372-.707.634-.95.869-.009-.028.046-.006-.167.118-.48.328-.683.583-.833.87-.012-.018.026.005-.186.137-.475.346-.668.613-.864 1.146-.231.498-.468.676-1.049.932-.465.562-.666.94-.843 1.446.023.128-.168.308-.168.308z"
        opacity="1"
    ></path>
    <path
        fill="#8B640C"
        d="M184.596 305.072c.331.674.364 1.429.353 2.56-.246-.576-.45-1.527-.353-2.56z"
        opacity="1"
    ></path>
    <path
        fill="#FDD337"
        d="M532.096 385.316c-1.4 3.252-2.802 6.503-4.538 10.207-3.803 5.417-7.271 10.382-10.74 15.348-2.057 2.307-4.115 4.615-6.423 7.154-3.736-2.997-7.136-6.27-6.015-11.72.537-2.606-.462-3.378-2.922-2.512-1.222.43-2.468.79-4.102.9-.429-.478-.46-.673-.49-1.087-.001-.22.022-.66.336-.79 1.489-2.021 2.663-3.911 4.04-5.924.457-.327.643-.58 1.042-1.033.775-1.046 1.27-1.943 2.013-3.036 1.064-1.425 1.88-2.654 2.976-4.022.77-1.027 1.258-1.913 1.901-3.07.733-1.377 1.311-2.484 2.186-3.687.728-.747 1.16-1.397 1.633-2.258.043-.212.072-.642.366-.746.716-.758 1.138-1.411 1.811-2.29.817-1.708 1.383-3.19 2.208-4.846.72-1.07 1.18-1.969 1.901-3.002.774-.721 1.286-1.308 2.137-1.957.776-.289 1.312-.419 1.632-.755 4.007-4.214 4.847-4.287 7.209 1.318 1.81 4.296 2.577 9.031 3.808 13.571 0 0-.007-.08-.349.03-.768 1.475-1.194 2.841-1.62 4.207m-27.833 13.074l1.696.792.456-1.292c-.661-.017-1.323-.034-2.152.5z"
        opacity="1"
    ></path>
    <path
        fill="#BB6A19"
        d="M517.053 411.096c3.234-5.19 6.702-10.156 10.507-15.21 3.172-.265 6.007-.42 8.839-.621 3.22-.229 6.434-.633 9.657-.717 4.6-.119 9.223-.263 13.802.067 3.958.285 7.868 1.218 12.004 2.204.117.624-.046.856-.631 1.18-.648.327-.723.589-.575.927 0 0 .34.029.512.036.172.008-.122.367-.513.689-1.487 1.325-2.584 2.329-3.68 3.332-2.892 2.806-5.783 5.611-8.806 8.721-1.385 1.44-2.639 2.574-4.328 4.115a319.237 319.237 0 01-3.762 3.22c-6.594-2.595-13.236-4.842-20.524-4.035-2.908.322-5.856.361-8.786.387-2.664.023-3.555-1.656-3.716-4.295z"
        opacity="1"
    ></path>
    <path
        fill="#4D3611"
        d="M550.03 419.347c1.158-1.247 2.267-2.185 3.665-3.245a26.224 26.224 0 01-3.557 4.772c-.3-.398-.229-.808-.108-1.527zM544.661 425.9c.047.165-.142.492-.572.978-.049-.165.144-.49.572-.977z"
        opacity="1"
    ></path>
    <path
        fill="#DCA524"
        d="M202.878 254.96c1.157-1.865 2.314-3.73 4.21-5.786 8.475-.186 16.213-.155 23.951-.185 7.018-.027 7.89-.931 8.357-8.005 3.254-.672 6.11-1.886 8.971-1.898 30.478-.132 60.956-.073 91.481.398.007 6.493-.033 12.522-.444 18.57-4.843.663-9.296 1.637-13.788 1.88-10.205.55-20.429.742-30.972 1.073-.764-.017-1.2-.028-1.802-.193-.384-.364-.597-.577-.937-1.175-1.977-.795-3.82-1.57-5.666-1.575-25.588-.08-51.176-.086-76.763-.008-2.831.01-5.284-.165-6.598-3.095z"
        opacity="1"
    ></path>
    <path
        fill="#F4DAA6"
        d="M292.037 260.017c.208.22.421.433.811 1.165.745 2.332 1.319 4.14 1.924 6.26.139.712.247 1.114.343 1.88.544 2.178 1.098 3.991 1.678 6.124.134.732.242 1.145.332 1.863.246.838.509 1.372.785 2.199.119.668.224 1.044.29 1.724.206.846.45 1.387.712 2.334 1.763 7.608 3.434 14.83 5.34 21.99.258.968 1.627 2.201 2.603 2.321 4.724.581 9.49.824 14.526 1.338 1.955 1.039 3.625 1.926 5.478 3.115 2.841 3.205 5.66 5.981 8.128 9.04 5.648 6.998 4.922 15.44 4.936 24.022-3.994 13.916-13.589 20.916-27.35 23.541-2.47-.088-4.506-.108-6.794-.217-.587 0-.922.088-1.435-.067-.554-.353-.93-.461-1.616-.676-.953-.115-1.596-.124-2.447-.349-.728-.068-1.248.08-1.874.105-.105-.12-.395-.257-.395-.257-1.72-.867-3.439-1.733-5.487-2.646-2.32-2.552-4.401-4.992-6.276-7.581-1.597-2.205-2.955-4.582-4.587-7.18-3.969-10.538-2.735-20.232 3.119-29.758.12-.32.312-.5.566-.8.447-.687.64-1.072.832-1.458.315-.072.552-.25 1.012-.859.484-.606.666-.886.847-1.167 0 0-.038-.023.208-.101.434-.352.623-.625.812-.898 0 0-.055-.022.209-.086.488-.338.712-.613.937-.887 1.107-.656 2.214-1.313 3.323-1.966 7.674-4.516 7.659-4.511 5.554-13.078-.78-3.171-1.466-6.366-2.517-10.262-1.982-7.477-3.817-14.206-5.226-21.023-.71-3.427-2.302-4.686-5.755-4.673-29.462.11-58.923.104-88.385.133-2.046-.71-4.093-1.419-6.104-2.53 2.414-.447 4.795-.492 8.072-.553 31.555-.039 62.213-.06 92.871-.082m2.197 100.102c1.816.683 3.631 1.366 5.78 2.735 4.279.62 8.557 1.24 13.607 1.928 12.942-3.036 20.964-11.46 22.918-24.286 1.091-9.817-4.607-20.927-13.047-24.993-1.858-.54-3.716-1.082-5.708-2.346-1.61-.68-3.17-1.782-4.836-1.975-15.524-1.804-29.345 9.693-30.672 25.362-.782 9.246 4.67 19.862 11.958 23.575z"
        opacity="1"
    ></path>
    <path
        fill="#F5F0E3"
        d="M206.992 247.178h-15.695v-12.345c8.842 0 17.754 0 27.587.037 4.75.069 8.595.336 12.402.068 4.125-.29 5.779 1.226 5.52 5.389-.228 3.637.094 6.96-5.359 6.76-8.14-.297-16.302.03-24.455.09z"
        opacity="1"
    ></path>
    <path
        fill="#D1A33B"
        d="M291.905 259.639c-30.526.4-61.184.421-92.292.406.614-1.595 1.678-3.153 3.003-4.898 1.576 2.744 4.029 2.918 6.86 2.91 25.587-.08 51.175-.073 76.763.007 1.846.005 3.69.78 5.666 1.575zM206.972 247.474c8.173-.357 16.336-.684 24.475-.386 5.453.2 5.131-3.124 5.358-6.761.26-4.163-1.394-5.679-5.519-5.389-3.807.268-7.652.001-11.946-.139-.448-.483-.431-.858-.376-1.512.854-.851 1.67-1.423 2.971-1.81 3.293.634 6.091 1.4 8.907 1.47 7.628.187 8.076.506 8.159 8.054-.073 7.057-.944 7.961-7.962 7.988-7.738.03-15.476 0-23.696-.02-.453-.41-.422-.805-.371-1.495z"
        opacity="1"
    ></path>
    <path
        fill="#6A4B0F"
        d="M581.178 387.8c.78-1.923 1.913-3.862 3.353-5.955a31.67 31.67 0 01-3.353 5.955z"
        opacity="1"
    ></path>
    <path
        fill="#C3781B"
        d="M570.816 398.722c-.308-.134-.233-.396.221-.628.083.11.011.267-.22.628z"
        opacity="1"
    ></path>
    <path
        fill="#6A4B0F"
        d="M580.01 388.806c-.03-.176.189-.444.651-.802.028.176-.188.444-.652.802z"
        opacity="1"
    ></path>
    <path
        fill="#D18D1E"
        d="M600.875 337.682c-.325.548-.526.724-.786 1.124-13.667-.485-27.228-1.195-40.796-1.754-2.112-.087-4.252.52-6.795.485.886-8.393 2.19-16.466 3.877-24.6 2.429-.681 4.468-1.815 6.52-1.84 13.07-.159 26.143-.074 39.215-.07.276 3.692.552 7.382.853 11.522-.653 5.203-1.33 9.957-2.088 15.133z"
        opacity="1"
    ></path>
    <path
        fill="#D99820"
        d="M602.118 310.627c-13.08.396-26.153.311-39.223.47-2.052.025-4.091 1.159-6.542 1.377-1.395-10.427-2.384-20.452-2.916-30.476 14.792-.34 29.127-.68 43.462-1.02 1.022 3.424 2.044 6.847 3.124 10.655.73 5.102 1.403 9.82 2.15 14.97.034 1.496-.006 2.56-.055 4.024z"
        opacity="1"
    ></path>
    <path
        fill="#E0A421"
        d="M596.859 280.628c-14.295.69-28.63 1.03-43.587 1.054-5.52-9.413-10.416-18.508-15.087-27.822 1.743.16 3.256.843 4.78.87 10.034.169 20.07.211 30.104.263 3.72.02 7.441-.047 11.161-.075.74.622 1.48 1.244 2.467 2.017 2.427 5.3 4.608 10.449 7.048 15.83 1.198 2.66 2.135 5.086 3.114 7.863z"
        opacity="1"
    ></path>
    <path
        fill="#5A4010"
        d="M567.343 402.979c.728-1 1.825-2.003 3.23-3.112-.749.966-1.805 2.036-3.23 3.112z"
        opacity="1"
    ></path>
    <path
        fill="#D69D24"
        d="M197.125 263.542c29.535-.389 58.996-.382 88.458-.493 3.453-.013 5.046 1.246 5.755 4.673 1.41 6.817 3.244 13.546 5.054 20.673-7.681.939-15.516 1.506-23.348 2.105-.986.075-1.956.436-2.939.461-14.021.367-28.042.84-42.066.973-6.112.058-12.24-1.002-18.341-.829-7.05.2-14.078 1.2-21.576 1.823-.027-2.724.406-5.42.868-8.52 2.706-7.104 5.383-13.805 8.135-20.866z"
        opacity="1"
    ></path>
    <path
        fill="#E2B127"
        d="M252.717 199.968c2.043-.332 3.845-.848 5.66-.9 4.594-.133 9.195.045 13.788-.084 22.25-.624 44.5-1.309 67.196-1.963.473 7.692.499 15.377.103 23.527-1.899.654-3.378 1.019-4.852 1-11.063-.14-22.125-.557-33.185-.49-10.453.063-20.9.7-31.353.912-7.653.155-15.312.01-22.967.047-1.484.007-2.965.303-4.451.344-2.25.061-4.502.016-6.753.016l.088-.49-7.007 2.091c.93-1.136 1.86-2.273 2.951-3.684 6.659-6.766 13.156-13.258 19.865-20.005.212-.255.683-.293.917-.321z"
        opacity="1"
    ></path>
    <path
        fill="#DFAC26"
        d="M228.649 224.045c2.67-.764 5.006-1.46 7.342-2.157l-.088.489c2.251 0 4.503.045 6.753-.016 1.486-.04 2.967-.337 4.45-.344 7.656-.036 15.315.108 22.968-.047 10.453-.212 20.9-.849 31.353-.912 11.06-.067 22.122.35 33.185.49 1.474.019 2.953-.346 4.81-.532.434 1.71.489 3.42.543 6.018-.056 4.588-.11 8.286-.164 11.985-30.478-.006-60.956-.065-91.434.067-2.86.012-5.717 1.226-8.971 1.898-.478-7.53-.926-7.85-8.554-8.037-2.816-.07-5.614-.836-8.641-1.61 1.89-2.626 4.001-4.925 6.448-7.292z"
        opacity="1"
    ></path>
    <path
        fill="#BB8707"
        d="M205.48 197.513c-.012-.028.014.029 0 0z"
        opacity="1"
    ></path>
    <path
        fill="#825D0C"
        d="M184.686 328.242c.26.53.325 1.273.367 2.391-.202-.476-.383-1.326-.367-2.391z"
        opacity="1"
    ></path>
    <path
        fill="#F6B423"
        d="M611.085 78.233c3.986-7.131 13.214-9.707 21.727-5 15.506 8.574 26.309 21.247 30.28 39.406-2.493-.672-5.198-1.429-7.462-2.878-13.379-8.564-26.698-17.225-39.918-26.033-1.829-1.219-2.996-3.43-4.627-5.495z"
        opacity="1"
    ></path>
    <path
        fill="#4D3611"
        d="M555.487 416.479c.027-.012-.028.012 0 0z"
        opacity="1"
    ></path>
    <path
        fill="#FFE77B"
        d="M655.69 135.118c-.543.457-1.417.871-2.5 1.059.584-.519 1.377-.81 2.5-1.059zM633.053 130.623c-.578-.13-1.248-.562-1.985-1.31.586.126 1.24.567 1.985 1.31z"
        opacity="1"
    ></path>
    <path
        fill="#E6AD23"
        d="M584.155 254.57c-3.645.376-7.366.442-11.086.423-10.035-.052-20.07-.094-30.104-.264-1.524-.026-3.037-.71-5.066-1.044-2.676-1.508-4.842-3.06-7.17-4.897-2.377-2.388-4.59-4.492-6.925-6.84-.407-.458-.693-.674-1.078-1.175-.989-1.075-1.878-1.864-2.917-2.94-1.127-1.108-2.105-1.928-3.145-3.006-.306-.723-.55-1.189-.402-1.686 6.473.266 12.558.862 18.634.792 10.447-.119 20.888-.652 31.332-1.012 2.393 1.93 4.786 3.859 7.463 5.96a436.502 436.502 0 0110.464 15.689z"
        opacity="1"
    ></path>
    <path
        fill="#F5AA1C"
        d="M167.934 511.846c-12.844-7.958-21.241-19.515-23.69-34.72-.755-4.69.875-9.571 5.442-12.996 2.515 5.594 4.566 11.426 6.98 17.105 3.202 7.532 6.835 14.883 9.965 22.444.973 2.352.914 5.131 1.303 8.167z"
        opacity="1"
    ></path>
    <path
        fill="#FDD337"
        d="M172.164 463.278c-.167-.31-.165-.806-.164-1.055 8.612 1.953 13.838 8.641 19.185 14.855 3.707 4.308 6.381 9.506 9.727 14.921.796 1.15 1.38 1.684 1.966 2.218.035.694.07 1.387.165 2.714.338 1.12.617 1.605.896 2.091.051 1.057.102 2.114.143 3.921.254 1.87.519 2.988.783 4.107-.648 2.666-1.296 5.332-2.256 8.482l-1.592 2.47c-1.511 1.52-3.023 3.038-5.123 4.743-1.04.118-1.492.05-1.944-.017 2.143-3.048 1.466-5.781.003-9.114-5.648-12.867-10.786-25.956-16.233-38.913-1.593-3.79-3.582-7.414-5.556-11.423z"
        opacity="1"
    ></path>
    <path
        fill="#FFE77B"
        d="M193.624 522.8c.778-.004 1.23.063 2.025.152 1.175 1.373 2.007 2.725 3.241 4.14-2.755.707-5.904 1.79-9.073 1.858-2.682.058-5.389-1.06-8.443-1.823.757-1.49 1.872-2.815 3.369-4.187 1.421-.015 2.46.017 4.091.246 1.44.05 2.289-.099 3.138-.247.442-.022.885-.045 1.652-.139z"
        opacity="1"
    ></path>
    <path
        fill="#FDD337"
        d="M191.769 522.733c-.646.354-1.495.502-2.543.438.647-.357 1.493-.5 2.543-.438z"
        opacity="1"
    ></path>
    <path
        fill="#ECB525"
        d="M566.034 232.643c-10.25.638-20.691 1.171-31.138 1.29-6.076.07-12.16-.526-18.622-.809-.38.015-.35.003-.37-.328-1.025-.757-2.028-1.184-3.318-1.657-.673-.088-1.058-.13-1.576-.376-.36-.452-.638-.602-1.16-.731-.187-.081-.593-.137-.74-.45-8.042-6.484-17.731-7.56-27.02-9.774 2.732-3.245 5.464-6.49 8.527-9.814 4.709 1.263 9.01 3.24 13.484 3.787 5.683.695 11.508.26 17.272.254 8.337-.007 16.674-.064 25.445-.116 3.292 2.55 6.165 5.101 9.001 7.692 1.53 1.397 2.996 2.863 4.83 4.365 1.956 2.174 3.574 4.282 5.385 6.667z"
        opacity="1"
    ></path>
    <path
        fill="#F2AF24"
        d="M140.988 461.963c-.006-.03.358.239.358.239s-.28-.021-.346-.12c-.067-.1-.006-.088-.012-.119z"
        opacity="1"
    ></path>
    <path
        fill="#FFE77B"
        d="M205.118 506.82c-.517-.889-.782-2.007-.988-3.483.452.847.846 2.05.988 3.483zM204.138 498.844c-.478-.308-.757-.794-1.044-1.57.409.271.826.831 1.044 1.57zM202.864 493.887c-.571-.204-1.156-.738-1.784-1.583.562.21 1.166.732 1.784 1.583zM201.334 517.932c.11-.592.537-1.254 1.259-2.025-.117.579-.53 1.266-1.259 2.025z"
        opacity="1"
    ></path>
    <path
        fill="#FDCE4B"
        d="M339.848 239.484c.007-4.164.061-7.862.13-12.022 6.57 2.228 13.252.323 19.867-.012 5.996-.303 11.966-1.07 17.956-1.506 2.31-.167 4.645.035 6.968.04 7.4.017 14.805-.108 22.2.097 2.674.074 5.985-.01 5.815 4.833-2.744 1.819-5.267 2.992-7.998 4.265-.466.288-.651.53-.776.829-.012 0 .004.02-.348.06-2.102 1.014-3.853 1.987-5.868 3.077-.776.388-1.288.659-2.008 1.03-.467.287-.65.53-1.052.884-.761.38-1.232.705-2.05 1.066-12.455 9.327-24.563 18.62-36.977 27.967-.772.673-1.237 1.291-1.959 2.044-.754.71-1.252 1.286-2.09 1.918-4.383 3.705-8.426 7.354-12.539 10.743-.112-.434-.154-.609-.162-1.251.296-8.816.557-17.164.818-25.512.04-6.028.08-12.057.073-18.55z"
        opacity="1"
    ></path>
    <path
        fill="#FEEC95"
        d="M481.68 219.725c9.699 2.296 19.388 3.373 27.02 9.838-2.347-.21-5.045-.064-6.398-1.342-3.99-3.768-8.236-1.79-12.752-1.935 1 1.913 1.727 3.306 2.09 4.71-.849.05-1.334.091-2.17.114-1.041-.114-1.734-.21-2.538-.635-5.287-3.615-10.896-4.639-17.375-3.526-4.501.1-8.538.18-12.993.206-4.466.307-8.514.667-12.558.627.325-2.21.646-4.023.968-5.834 1.094-.322 2.189-.644 3.994-.965 1.816-.317 2.922-.634 4.028-.951 9.425-.13 18.849-.26 28.683-.307z"
        opacity="1"
    ></path>
    <path
        fill="#FFE880"
        d="M444.563 221.948c.09 1.811-.232 3.623-.82 6.062-4.018 1.462-7.769 2.297-11.885 3.098-1.198.597-2.03 1.227-3.224 1.941-3.017.765-5.673 1.444-8.666 2.121-.883.586-1.43 1.174-2.26 1.915-1.09.41-1.897.667-2.92.715-1.41.582-2.606 1.374-3.992 2.384-.734.397-1.277.574-2.01.576-.73.274-1.27.724-2.05 1.416-1.32.495-2.404.748-3.858 1.002-4.189 1.691-8.005 3.382-11.82 5.074l-.66-1.168 2.634-4.995c.47-.325.941-.65 1.896-1.15.727-.363.921-.593 1.066-.865.512-.27 1.024-.54 2.168-.948 2.373-1.124 4.112-2.111 5.852-3.098 0 0-.016-.02.19-.14.45-.307.645-.537.79-.81 2.523-1.172 5.046-2.345 7.8-3.763 6.763-2.393 13.26-4.658 19.84-6.646 3.769-1.139 7.674-1.828 11.929-2.72z"
        opacity="1"
    ></path>
    <path
        fill="#FEE574"
        d="M452.76 219.797c-.87.552-1.976.869-3.447 1.164.826-.481 2.018-.94 3.447-1.164z"
        opacity="1"
    ></path>
    <path
        fill="#FFE15E"
        d="M346.483 482.887c-1.21-1.2-1.916-2.374-2.706-3.487-2.898-4.08-6.794-7.725-5.365-13.893 2.501-.177 4.594.056 7.14.358 5.439.063 10.426.056 15.585.248.74-.163 1.308-.526 2.28-.941 2.465-.443 4.529-.833 6.835-1.22.242.002.72-.08 1.087-.106 2.466-.63 4.566-1.234 6.924-1.777.427.114.595.167.687.549-2.289 4.647-4.5 8.966-6.858 13.57 4.378 1.143 8.237 2.15 12.096 3.159-4.86 1.07-9.719 2.142-14.885 3.467-7.656.212-15.006.17-22.82.073z"
        opacity="1"
    ></path>
    <path
        fill="#FEE36A"
        d="M384.587 479.278c-4.258-.94-8.117-1.947-12.495-3.09 2.357-4.604 4.57-8.923 7.182-13.658.846-.447 1.29-.477 1.916-.326.73-.226 1.278-.634 2.199-1.147 8.12-3.425 15.866-6.746 23.97-10.112 3.425-1.408 6.495-2.77 9.534-3.775-1.025 1.376-2.114 2.32-2.996 3.427-2.532 3.178-5.597 6.142-7.225 9.745-.95 2.102.451 5.267.729 7.44l9.87-.619c-1.977 1.363-3.954 2.726-6.131 4.348-7.238 2.432-14.266 4.636-21.32 6.754-1.565.47-3.22.638-5.233 1.013z"
        opacity="1"
    ></path>
    <path
        fill="#FEE574"
        d="M417.56 467.144c-3.774.238-7.259.456-10.16.638-.277-2.173-1.678-5.338-.728-7.44 1.628-3.603 4.693-6.567 7.225-9.745.882-1.108 1.971-2.051 3.23-3.656 9.134-7.044 18.003-13.503 27.15-20.09 1.108-.996 1.94-1.865 3.112-2.768 1.02-.109 1.697-.186 2.382.09-1.067 1.517-2.44 2.526-3.148 3.88-1.073 2.053-1.684 4.347-2.492 6.538l-.65 12.019 9.667-1.54c-3.997 3.114-7.986 6.238-11.994 9.338-1.685 1.303-3.408 2.557-5.238 4.147-1.432.683-2.738 1.052-4.792 1.453-4.541 2.328-8.335 4.623-12.13 6.917-.381.067-.763.133-1.434.219z"
        opacity="1"
    ></path>
    <path
        fill="#FEE36A"
        d="M419.368 466.894a148.28 148.28 0 0111.416-6.824c-3.41 2.283-7.227 4.538-11.416 6.824z"
        opacity="1"
    ></path>
    <path
        fill="#FEEA89"
        d="M496.888 402.947s-.023.439-.336.76c-1.058 1.312-1.804 2.302-2.55 3.292 0 0-.102.404-.455.702a902.856 902.856 0 00-8.524 9.312c-.475.269-.95.538-2.066.904-1.964-.411-4.12-.589-4.47-1.478-1.996-5.056-6.392-7.51-10.225-10.699 1.071-1.737 1.967-3.204 3.169-4.75 1.388-1.383 2.469-2.685 3.824-4.125 1.053-1.048 1.832-1.96 2.84-3.087 1.13-1.065 2.032-1.915 3.24-2.832.749-.713 1.19-1.36 1.696-2.346 2.017-2.767 3.968-5.194 6.242-7.68.764-.74 1.204-1.419 1.647-2.306.002-.207.071-.615.402-.692.78-1.027 1.229-1.976 1.885-3.14.732-1.072 1.257-1.928 2.113-2.86.779-1.03 1.226-1.983 1.723-3.18.048-.244.167-.729.49-.8 2.338-3.426 4.354-6.781 6.427-10.478.768-2.042 1.48-3.741 2.498-5.447.718-.01 1.129-.014 1.78.25-.09 2.087.209 4.53-.865 5.611-4.237 4.268-3.97 8.683-1.99 12.78l11.736 1.419c-.566 1.482-1.132 2.965-2.254 4.752-.97.975-1.385 1.645-1.8 2.315 0 0-.03.43-.38.713-.775.95-1.199 1.617-1.622 2.284-.578 1.106-1.156 2.213-2.217 3.665-.941 1.275-1.398 2.205-1.854 3.134-.815 1.23-1.63 2.458-3.031 3.952-1.042 1.216-1.5 2.167-1.957 3.117-.119.303-.305.556-1.09.945-1.697 2.121-2.862 4.057-4.026 5.993z"
        opacity="1"
    ></path>
    <path
        fill="#FFE880"
        d="M468.087 406.01c4.008 2.92 8.404 5.373 10.4 10.429.35.89 2.506 1.067 4.222 1.592-4.157 4.703-8.705 9.39-13.26 14.07-1.72 1.768-3.455 3.52-5.342 5.573-2.202 1.62-4.246 2.946-6.972 4.356-1.502 1.022-2.323 1.961-3.144 2.9 0 0-.419.095-.63.118-3.406.531-6.6 1.04-9.88 1.562l.65-12.019c.808-2.19 1.419-4.485 2.492-6.537.709-1.355 2.081-2.364 3.176-3.865.02-.339.07-.311.426-.32 2.171-2.231 3.985-4.453 6.084-6.859 4.116-3.79 7.947-7.394 11.778-11z"
        opacity="1"
    ></path>
    <path
        fill="#FED64E"
        d="M485.362 416.96c2.385-2.952 5.11-5.957 8.157-9.053-2.391 2.94-5.105 5.97-8.157 9.053zM494.318 406.962c.43-.953 1.176-1.943 2.235-3.035.344.093.374.288.432.777-.766.937-1.558 1.58-2.667 2.258z"
        opacity="1"
    ></path>
    <path
        fill="#FEE574"
        d="M454.32 444.897c.492-.906 1.313-1.845 2.48-2.806-.485.91-1.317 1.841-2.48 2.806z"
        opacity="1"
    ></path>
    <path
        fill="#C77E1E"
        d="M286.528 383.051c.2.495.14 1.056-.119 1.826-.179-.447-.16-1.103.12-1.826z"
        opacity="1"
    ></path>
    <path
        fill="#F3A014"
        d="M300.488 367.84c.644.009 1.287.018 2.441.339.871.445 1.232.58 1.592.714.336-.089.671-.177 1.257.212 1.344 2.013 2.454 3.537 3.527 5.087.905 1.308 2.161 2.533 2.579 3.99 1.437 5.008 2.526 10.114 3.846 15.158a70.853 70.853 0 002.236 7.047c2.658 7.046 5.653 13.976 8.044 21.109 2.614 7.797 4.675 15.78 7.028 23.667 1.171 3.924 2.6 7.78 3.591 11.746.238.951-.584 2.397-1.31 3.3-.899 1.119-2.206 1.908-3.337 2.84-22.743-5.254-36.14-25.561-39.179-47.48-1.798-12.974.644-25.39 3.171-38.503.648-1.425.808-2.303.967-3.18.35-1.856.7-3.711 1.06-5.99.01-.424.301-.288.902-.16.929.12 1.257.112 1.585.103z"
        opacity="1"
    ></path>
    <path
        fill="#F4A418"
        d="M332.248 463.278c.865-1.16 2.172-1.95 3.07-3.068.727-.904 1.549-2.35 1.311-3.301-.991-3.967-2.42-7.822-3.591-11.746-2.353-7.887-4.414-15.87-7.028-23.667-2.39-7.133-5.386-14.063-8.044-21.109a70.853 70.853 0 01-2.236-7.047c-1.32-5.044-2.41-10.15-3.846-15.158-.418-1.457-1.674-2.682-2.58-3.99-1.072-1.55-2.182-3.074-3.274-4.999 2.037-.368 4.074-.348 6.68.044a469.221 469.221 0 0112.403 12.088c2.16 2.935 3.965 6.163 8.154 2.727.563 3.881.761 7.724 4.718 10.255.182.714.29 1.121.134 1.74.756 3.413 1.628 6.67 2.835 9.798 1.885 4.883 4.303 9.579 5.915 14.542a56.294 56.294 0 012.535 12.578c.715 8.52 5.338 15.453 8.524 22.989 2.194 5.188-.262 8.63-6.01 9.05-2.28.167-4.546.522-6.819.792-2.093-.233-4.186-.466-6.68-.663a47.271 47.271 0 01-6.171-1.855zM296.716 374.137c.066.626-.094 1.504-.496 2.617-.07-.63.1-1.499.496-2.617z"
        opacity="1"
    ></path>
    <path
        fill="#FEDA3D"
        d="M530.891 249.074c2.166 1.551 4.332 3.103 6.783 4.83 5.182 9.27 10.078 18.365 15.14 27.777 1.155 10.341 2.144 20.366 3.155 30.854-1.282 8.536-2.585 16.609-3.875 25.082-2.727 8.781-5.466 17.161-8.262 25.918a451.888 451.888 0 01-9.48 17.349c-1.518-4.345-2.285-9.08-4.095-13.376-2.362-5.605-3.202-5.532-7.21-1.318-.319.336-.855.466-1.607.414.264-1.725.844-3.173 1.592-4.911.472-1.354.775-2.416 1.4-3.62 2.088-4.447 3.857-8.753 5.861-13.298.44-1.334.645-2.429 1.166-3.685.733-1.47 1.147-2.78 1.608-4.424.063-1.016.08-1.695.392-2.52.77-1.83 1.242-3.513 1.73-5.438.013-.242-.066-.72-.06-.948.006-.229-.016-.686-.069-.683-.052.003.052.025.395-.077 1.365-4.076 2.388-8.048 3.453-12.348.066-.767.088-1.207.356-1.904.369-1.43.494-2.603.65-4.106.032-.775.032-1.218.297-1.98.096-8.763-.073-17.207-.239-25.982-.03-.771-.065-1.212-.053-2.08-1.49-6.583-2.897-12.774-4.657-18.862-.438-1.517-2.021-2.702-3.078-4.325-.061-.662-.123-1.037-.226-1.774-.384-1.762-.725-3.164-1.067-4.565zM532.342 385.071c.18-1.121.606-2.487 1.4-3.933-.139 1.177-.647 2.432-1.4 3.933z"
        opacity="1"
    ></path>
    <path
        fill="#CC8920"
        d="M285.913 318.233c.073.202-.119.587-.589 1.145-.077-.206.124-.583.59-1.145zM287.826 316.155c.03.149-.15.429-.56.82-.108-.207.085-.474.56-.82zM288.845 315.148c.024.15-.165.422-.588.793-.095-.21.108-.465.588-.793zM289.962 314.16c.017.165-.207.44-.685.806-.022-.17.21-.433.685-.805z"
        opacity="1"
    ></path>
    <path
        fill="#FEEC95"
        d="M533.162 334.292c-.016.679-.032 1.358-.45 2.47-.79 1.786-1.18 3.137-1.57 4.489-.204 1.095-.409 2.19-1.159 3.691-2.321 4.695-4.097 8.984-5.873 13.272-.303 1.063-.606 2.125-1.422 3.549-3.936 1.583-3.767 4.445-3.67 7.274-.46.898-.92 1.796-1.64 2.867-3.964-.275-7.668-.723-11.996-1.246-1.98-4.097-2.246-8.512 1.991-12.78 1.074-1.08.774-3.524.922-5.967.727-3.126 1.637-5.628 2.567-8.474.122-1.027.224-1.71.623-2.483.657-.78 1.017-1.47 1.383-2.458.06-.695.113-1.09.502-1.576 1.858-3.503 3.405-6.905 4.894-10.332.946-2.178 1.807-4.393 3.074-6.645 1.884.02 4.671-.101 4.717.198.362 2.36.201 4.801.201 7.227l2.894-.963c1.915 1.819 3.37 3.201 4.693 4.9a52.227 52.227 0 00-.68 2.987z"
        opacity="1"
    ></path>
    <path
        fill="#FEEA89"
        d="M519.28 368.902c-.36-2.694-.528-5.556 3.24-6.848-.236 1.377-.816 2.825-1.42 4.613-.535.927-1.047 1.514-1.82 2.235z"
        opacity="1"
    ></path>
    <path
        fill="#FFE880"
        d="M497.202 402.816c.85-1.805 2.015-3.74 3.508-5.739-.845 1.828-2.02 3.718-3.508 5.739z"
        opacity="1"
    ></path>
    <path
        fill="#FBCA31"
        d="M504.347 398.115c.745-.259 1.407-.242 2.068-.225l-.456 1.292c-.565-.264-1.13-.528-1.612-1.067z"
        opacity="1"
    ></path>
    <path
        fill="#FFE880"
        d="M507.273 388.8c.175-.79.632-1.72 1.417-2.724-.159.812-.647 1.698-1.417 2.725zM502.284 395.86c.177-.801.635-1.752 1.428-2.772-.159.828-.653 1.725-1.428 2.771zM511.36 382.044c.126-.57.55-1.237 1.281-1.975-.122.578-.553 1.228-1.28 1.975zM513.36 379.04c.12-.566.535-1.236 1.254-1.985-.117.574-.539 1.227-1.255 1.985z"
        opacity="1"
    ></path>
    <path
        fill="#D69D24"
        d="M339.404 258.054c.11 8.328-.15 16.676-.908 25.488-8.945.463-17.395.467-25.845.457-4.737-.006-9.708 1.024-13.774-3.017a31.188 31.188 0 00-.638-.055c-.105-.375-.21-.75-.314-1.728-.26-1.133-.521-1.664-.783-2.194-.107-.414-.215-.827-.077-1.804-.482-2.457-1.21-4.35-1.938-6.243-.108-.402-.216-.804-.096-1.751.132-2.429.036-4.311-.06-6.194 10.216-.337 20.44-.528 30.645-1.08 4.492-.242 8.945-1.216 13.788-1.879z"
        opacity="1"
    ></path>
    <path
        fill="#D1A33B"
        d="M294.644 261.007c.423 1.889.52 3.771.356 5.889-.833-1.574-1.407-3.382-1.987-5.559.43-.358.867-.347 1.631-.33z"
        opacity="1"
    ></path>
    <path
        fill="#F6B423"
        d="M340.009 345.037c-.1-8.227.626-16.67-5.022-23.667-2.468-3.059-5.287-5.835-7.83-9.233a1701.945 1701.945 0 0134.442-38.011c6.99 6.115 7.01 15.13 10.24 22.714.741 1.743.134 4.06-.014 6.409-6.034 6.35-11.906 12.405-17.827 18.51 5.572 5.726 10.772 11.07 16.061 16.728 2.964 5.022 5.606 2.156 8.534.253 1.564-1.016 3.608-1.293 5.436-1.904.287 2.77.892 5.562.714 8.302-.077 1.192-1.954 2.18-2.622 3.465-.275.528.482 1.593.965 2.686 2.109 2.4 4.023 4.53 5.932 7.049 1.24 2.79 2.975 5.064 3.637 7.616 2.044 7.872 5.747 15.485 4.162 24.285-2.485 1.979-3.768 5.944-7.97 3.48-1.38-1.42-2.62-2.554-3.994-3.95-.72-.757-1.307-1.254-2.034-2.046-2.04-2.09-3.94-3.884-5.988-5.961-1.396-1.437-2.644-2.59-4.034-4.041-2.99-3.004-5.498-6.41-8.866-8.054-1.269-.62-4.529 2.839-6.95 4.06-1.061-3.561-2.055-6.744-2.99-10.245 1.397-3.492-.379-5.22-2.943-6.949-3.732-4.053-7.386-7.774-11.04-11.496z"
        opacity="1"
    ></path>
    <path
        fill="#F5AA1C"
        d="M323.982 316.012c7.95 3.557 13.648 14.667 11.993 24.807-8.085 8.18-15.606 16.036-23.126 23.894-4.278-.62-8.556-1.24-12.785-2.526 6.075-16.848 14.6-31.72 23.918-46.175z"
        opacity="1"
    ></path>
    <path
        fill="#CC8920"
        d="M294.076 359.522c-7.13-3.116-12.582-13.732-11.8-22.978 1.327-15.669 15.148-27.166 30.672-25.362 1.666.193 3.227 1.295 4.615 2.519-9.96 14.617-18.211 29.454-23.487 45.82z"
        opacity="1"
    ></path>
    <path
        fill="#D19322"
        d="M299.09 281.005c3.853 4.018 8.824 2.988 13.561 2.994 8.45.01 16.9.006 25.81.011.504.178.546.353.482 1.08-6.02 8.36-11.934 16.167-17.847 23.974-4.75-.363-9.517-.606-14.241-1.187-.976-.12-2.345-1.353-2.603-2.32-1.906-7.16-3.577-14.383-5.29-22.35.063-1.243.095-1.723.127-2.202z"
        opacity="1"
    ></path>
    <path
        fill="#FEDD55"
        d="M339.923 345.392a107.654 107.654 0 0111.039 11.494c-5.527 6.282-10.899 12.038-16.628 17.413-2.788 2.615-6.243 4.517-9.397 6.742-3.886-3.811-7.771-7.622-11.794-11.737 13.191-2.996 22.786-9.996 26.78-23.912z"
        opacity="1"
    ></path>
    <path
        fill="#FFE15E"
        d="M294.155 359.82c5.197-16.665 13.448-31.502 23.475-45.757 2.146.358 4.004.9 6.107 1.695-9.074 14.71-17.598 29.58-23.84 46.086-2.032-.359-3.847-1.042-5.742-2.024z"
        opacity="1"
    ></path>
    <path
        fill="#FEE36A"
        d="M321.38 309.215c5.63-7.958 11.542-15.765 17.632-23.865 4.22-3.942 8.263-7.59 12.74-10.96 1.819.42 3.267.878 4.575.62 1.686-.333 3.259-1.24 4.876-1.658-.005.241.083.717.083.717-11.338 12.525-22.675 25.05-34.31 37.767-1.97-.695-3.64-1.582-5.595-2.62z"
        opacity="1"
    ></path>
    <path
        fill="#FEDD55"
        d="M313.235 364.747c7.134-7.892 14.655-15.749 22.526-23.596-1.176 12.171-9.198 20.595-22.526 23.596z"
        opacity="1"
    ></path>
    <path
        fill="#D1A33B"
        d="M295.115 269.322a24.715 24.715 0 011.924 5.56c-.826-1.569-1.38-3.382-1.924-5.56zM297.125 277.309c.279.226.54.757.787 1.597-.278-.225-.541-.759-.787-1.597zM298.877 280.982c.18.502.148.982.066 1.82-.293-.183-.537-.724-.742-1.57.038-.305.464-.272.676-.25z"
        opacity="1"
    ></path>
    <path
        fill="#F4A418"
        d="M300.28 367.624c-.12.224-.448.232-1.272.233.025-.154.545-.3 1.273-.233zM304.344 368.649c-.183.11-.544-.025-1.106-.365.175-.096.552.012 1.106.365z"
        opacity="1"
    ></path>
    <path
        fill="#FEED9B"
        d="M533.976 330.99l-4.826-4.585-2.894.963c0-2.426.161-4.867-.201-7.227-.046-.3-2.833-.178-4.71-.628.096-3.284.733-6.177.97-9.103.39-4.786.52-9.593.742-14.789.011-1.46.04-2.522.412-3.718 1.951-2.901 2.793-5.6-.386-8.308-.024-1.119-.024-1.864.208-2.888-.225-2.103-.681-3.927-1.166-6.08-.044-.764-.06-1.202.161-1.92.556-6.197-1.35-11.316-5.345-15.903a3.077 3.077 0 01-.057-.988c-1.587-2.532-3.213-4.684-4.892-7.037a5.036 5.036 0 01-.118-.976c-3.15-5.487-6.749-10.093-13.222-11.81-.733-.376-1.184-.701-1.72-1.359-1.071-.739-2.058-1.145-3.265-1.568-.22-.017-.656-.091-.693-.379-.347-.759-.658-1.23-.97-1.702l-2.454-4.7c4.516.145 8.762-1.832 12.752 1.936 1.353 1.278 4.051 1.132 6.545 1.656.41.018.816.074 1.145.344.561.503.835.66 1.151.745.385.042.77.085 1.556.42.697.75.992 1.205 1.362 1.971.937.783 1.8 1.255 2.664 1.727.979.82 1.957 1.641 3.112 3.091 1.114 1.381 2.051 2.132 2.988 2.884.286.215.572.43 1.01 1.246 2.823 4.298 5.494 7.997 8.165 11.695.061.376.123.751.17 1.814 1.46 5.124 2.91 9.57 4.419 13.995 1.052 3.087 2.186 6.147 3.284 9.219.034.44.068.88-.147 1.952-.367 5.712-.61 10.793-.555 15.872.037 3.379.502 6.752.775 10.128 0 .444 0 .887-.276 1.705-.401 1.69-.526 3.006-.651 4.32-.023.44-.045.88-.448 1.767-1.406 4.409-2.433 8.37-3.46 12.33 0 0-.103-.022-.21.05.004.327.113.582.222.837 0 0 .08.477-.188.9-.498.982-.729 1.541-.96 2.1z"
        opacity="1"
    ></path>
    <path
        fill="#FEEA89"
        d="M531.958 253.64c-2.63-3.338-5.3-7.037-8.002-11.091 2.183 1.747 4.396 3.85 6.772 6.24.505 1.686.846 3.088 1.23 4.85z"
        opacity="1"
    ></path>
    <path
        fill="#FEEC95"
        d="M522.726 240.773c-.838-.466-1.775-1.217-2.74-2.31.862.446 1.751 1.235 2.74 2.31zM516.664 234.827c-.802-.215-1.666-.687-2.28-1.46.68-.281 1.11-.26 1.54-.24 0 0-.03.012-.043.028.232.483.477.95.783 1.672z"
        opacity="1"
    ></path>
    <path
        fill="#E6AD23"
        d="M515.903 232.796c-.41.31-.84.29-1.593.26-.619-.465-.914-.92-1.323-1.624.89.18 1.892.607 2.916 1.364z"
        opacity="1"
    ></path>
    <path
        fill="#FEEC95"
        d="M511.01 230.763c-.183.118-.457-.04-.83-.46.192-.142.47.008.83.46z"
        opacity="1"
    ></path>
    <path
        fill="#FEE574"
        d="M361.208 273.111c-1.622.66-3.195 1.566-4.881 1.899-1.308.258-2.756-.2-4.236-.676.405-.912.903-1.488 1.962-2.26 1.027-.81 1.493-1.423 1.96-2.037 12.108-9.293 24.216-18.585 36.672-27.913-.531 1.63-1.41 3.295-2.287 4.96l.66 1.168c3.815-1.692 7.631-3.383 11.676-4.774-2.125 2.259-4.48 4.217-7.199 6.26-5.74 3.15-11.114 6.216-16.793 9.329-.787.632-1.269 1.215-1.964 1.861-.213.064-.653.13-.995.155-1.168.949-1.995 1.872-3.02 3.063a141.073 141.073 0 01-8.05 5.919c-.78.672-1.252 1.289-1.886 2.128-.648.454-1.134.686-1.62.918zM403.662 236.069c-1.388.946-3.127 1.933-5.235 2.94 1.382-.954 3.133-1.927 5.235-2.94z"
        opacity="1"
    ></path>
    <path
        fill="#FEE36A"
        d="M355.707 270.092c-.16.559-.627 1.173-1.398 1.848.16-.557.626-1.175 1.398-1.848z"
        opacity="1"
    ></path>
    <path
        fill="#FEE574"
        d="M404.786 235.179c.063.172-.132.402-.57.708-.081-.178.104-.42.57-.708zM395.786 240.174c.063.172-.131.402-.568.711-.083-.18.101-.423.568-.71z"
        opacity="1"
    ></path>
    <path
        fill="#FEDA3D"
        d="M516.844 256.197s.042.409.095 1.003c1.739 5.66 3.424 10.723 5.11 15.787.016.438.032.876.02 2.043.311 2.471.65 4.213.99 5.955 0 .746 0 1.491-.026 3.056.013 3.211.053 5.604.092 7.997-.028 1.061-.057 2.123-.334 3.887-1.677 8.136-2.89 15.62-4.6 22.99-1.416 6.102-3.416 12.068-5.157 18.095-.053.395-.107.79-.451 1.604a56.568 56.568 0 00-1.394 2.43c-.103.683-.205 1.366-.635 2.534a458.257 458.257 0 00-4.403 8.445c-.711 1.7-1.423 3.4-2.498 5.542-1.431 1.444-2.5 2.445-3.824 3.191-1.54-5.763-6.13-10.552-3.688-17.113 3.658-3.277 7.14-6.275 11.593-10.11-2.422-1.083-4.042-1.808-5.744-2.869-5.723-5.842-11.365-11.349-17.005-17.247a129.956 129.956 0 00-2.33-7.238c-.86-2.447-1.833-4.856-2.63-7.323-1.007-3.117-1.745-6.326-2.854-9.403-1.555-4.314-3.52-8.483-4.997-12.82-3.2-9.402-6.314-18.837-9.248-28.324-2.158-6.98-3.975-14.064-5.944-21.1 4.037-.08 8.074-.16 12.864 0 6.235 1.357 11.716 2.476 17.197 3.595.693.096 1.386.192 2.56.615a47.565 47.565 0 003.408 1.556s.436.074.764.41c1.3.751 2.27 1.167 3.242 1.582.451.325.902.65 1.722 1.352 4.627 4.2 8.886 8.022 13.144 11.845 0 0 .055.413.145.966 1.665 2.724 3.24 4.896 4.816 7.067z"
        opacity="1"
    ></path>
    <path
        fill="#FDD337"
        d="M456.564 227.155c2.387 7.09 4.204 14.175 6.362 21.154 2.934 9.487 6.047 18.922 9.248 28.323 1.477 4.338 3.442 8.507 4.997 12.82 1.109 3.078 1.847 6.287 2.855 9.404.796 2.467 1.768 4.876 2.63 7.323.8 2.274 1.555 4.564 2.016 7.377-3.365 2.88-6.415 5.23-9.824 7.582-1.512 1.302-2.665 2.6-3.834 3.884-.015-.016.016.009-.35.007-2.778 2.357-5.19 4.716-7.784 7.302-.991.774-1.799 1.32-2.982 1.81-.877-.077-1.379-.1-1.885-.568.323-4.494.65-8.541 1.144-12.878 4.693-4.404 9.103-8.658 13.782-12.592 4.082-3.433 4.035-4.703-.945-7.378-.016-.245.035-.734.244-.952-.905-1.088-2.019-1.957-3.425-2.98-2.125-2.049-3.958-3.943-5.805-6.199-1.022-3.913-3.044-6.331-7.261-6.746-1.098-1.048-1.923-1.95-2.796-3.193-1.144-1.739-2.14-3.232-3.358-4.517-4.491-4.741-9.055-9.414-13.527-14.43.214-1.628.806-3.084.433-4.225-1.306-3.996-3.27-7.796-4.363-11.837-1.101-4.07-1.463-8.338-1.85-12.623.846-.696 1.391-1.289 1.937-1.882 3.751-.834 7.502-1.669 11.516-2.731 4.311-.588 8.359-.948 12.825-1.255z"
        opacity="1"
    ></path>
    <path
        fill="#FFE880"
        d="M486.932 230.475c-5.37-.79-10.85-1.909-16.621-3.286 5.725-1.353 11.334-.33 16.62 3.286zM492.974 232.687c-.939-.122-1.915-.532-3.022-1.25.354-.35.84-.39 1.689-.442.675.461.986.933 1.333 1.692z"
        opacity="1"
    ></path>
    <path
        fill="#FBCA31"
        d="M429.987 233.127c.686 4.181 1.048 8.45 2.149 12.519 1.094 4.042 3.057 7.84 4.363 11.837.373 1.141-.219 2.597-.722 4.053-4.161-2.82-7.969-5.783-12.095-8.662-1.13.754-1.942 1.423-3.042 2.25-2.397 2.071-4.506 3.984-6.956 5.938-1.449 1.35-2.556 2.658-3.874 4.16-.399.724-.587 1.253-1.08 1.926-2.75 2.098-5.195 4.053-7.68 5.587-1.742-7.975-3.446-15.528-5.15-23.081 2.354-1.959 4.709-3.917 7.207-6.176 1.225-.554 2.308-.807 3.924-1.321 1.004-.581 1.474-.902 1.944-1.222a29.47 29.47 0 002.15-.78c1.64-.882 2.76-1.514 3.88-2.146.806-.257 1.612-.515 3.014-.954 1.159-.749 1.723-1.315 2.286-1.882 2.656-.68 5.312-1.36 8.577-2.084.774-.017.94.01 1.105.038z"
        opacity="1"
    ></path>
    <path
        fill="#FEE574"
        d="M414.788 237.8c-.903.84-2.023 1.473-3.472 2.135a12.66 12.66 0 013.472-2.135zM430.286 233.023c-.465.076-.63.049-1.043-.018.585-.67 1.417-1.3 2.615-1.897-.18.626-.726 1.219-1.572 1.915zM419.968 235.17c-.226.57-.79 1.136-1.665 1.733.235-.559.782-1.147 1.665-1.732zM408.786 240.76c-.281.495-.751.816-1.516 1.155.246-.431.787-.88 1.516-1.155z"
        opacity="1"
    ></path>
    <path
        fill="#F5AA1C"
        d="M345.551 465.865c1.82-.339 4.087-.694 6.367-.86 5.748-.42 8.204-3.863 6.01-9.051-3.186-7.536-7.81-14.469-8.524-22.99a56.294 56.294 0 00-2.535-12.577c-1.612-4.963-4.03-9.66-5.915-14.542-1.207-3.128-2.079-6.385-2.534-9.71 6.345 5.478 12.205 11.001 17.87 16.716 3.448 3.477 6.598 7.25 9.883 11.248 3.5 5.488 7.288 10.448 10.406 15.798 2.55 4.378 4.511 9.14 6.347 13.883 1.755 4.535-2.813 5.748-4.921 8.228-2.1.604-4.2 1.208-6.772 1.728-.795-.208-1.046-.11-1.224.214-2.063.39-4.127.779-6.878 1.193-1.18.273-1.673.522-2.166.772-4.987.006-9.974.013-15.414-.05z"
        opacity="1"
    ></path>
    <path
        fill="#F6B423"
        d="M378.263 462.07c1.85-2.542 6.418-3.755 4.663-8.29-1.836-4.742-3.797-9.505-6.347-13.883-3.118-5.35-6.906-10.31-10.088-15.684 4.032 3.14 7.748 6.522 11.56 10.224 2.618 4.164 5.532 3.795 8.656 1.108 4.094-3.52 8.185-7.042 12.688-10.56 4.037-.167 5.512.751 5.396 5.152-.105 4-.34 8.991 4.597 11.688.761.416.516 3.4.1 5.035-.38 1.491-1.623 2.763-2.486 4.13-7.747 3.321-15.494 6.642-23.902 10.062-1.138.39-1.614.68-2.09.97-.445.03-.89.061-1.659.18-.493.034-.661-.019-1.088-.133z"
        opacity="1"
    ></path>
    <path
        fill="#FEDD55"
        d="M361.137 466.113c.321-.448.814-.697 1.592-.917-.284.391-.852.754-1.592.917z"
        opacity="1"
    ></path>
    <path
        fill="#F6B423"
        d="M370.252 463.952c-.065-.325.186-.424.614-.19.106.11-.372.192-.614.19z"
        opacity="1"
    ></path>
    <path
        fill="#F9BF2A"
        d="M407.359 450.945c.506-1.322 1.75-2.594 2.129-4.085.416-1.634.661-4.62-.1-5.035-4.937-2.697-4.702-7.689-4.597-11.688.116-4.4-1.359-5.319-5.338-5.493.608-1.608 1.78-2.765 2.483-4.158 1.21-2.402 2.128-4.951 3.161-7.68-.007-.24-.046-.722.29-.801 5.032-3.739 9.727-7.398 14.807-11.053 4.288-1.584 8.47-2.716 12.024-4.88 4.208-2.561 7.875-6.012 11.782-8.654a830.676 830.676 0 003.658 17.049c1.304 5.762 5.688 11.107 2.306 17.81-.05.748-.073 1.174-.096 1.601l-.077-.043c-.705.062-1.382.14-2.619.02-1.43.911-2.301 2.017-3.173 3.124-8.869 6.459-17.738 12.918-26.841 19.605a177.118 177.118 0 01-9.8 4.361z"
        opacity="1"
    ></path>
    <path
        fill="#FFE15E"
        d="M381.19 462.204c.296-.472.772-.762 1.538-1.047-.26.413-.809.821-1.538 1.047z"
        opacity="1"
    ></path>
    <path
        fill="#FBCA31"
        d="M444.277 426.852c.594-.98 1.465-2.086 2.553-2.964-.614 1.098-1.445 1.967-2.553 2.964zM449.99 421.957c3.356-6.383-1.028-11.728-2.332-17.49-1.252-5.534-2.437-11.083-3.491-17.34 3.706-3.846 7.164-7.084 10.822-10.079 3.743-3.065 3.666-3.884-1.132-6.39-.361-.724-.682-1.169-1.03-1.923-.642-.74-1.255-1.171-2.06-1.876-2.439-2.647-4.755-4.958-6.915-7.406-4.86-5.51-6.248-5.596-11.332-.405-.568.58-1.026 1.27-1.788 1.89-.42-.043-.586-.066-.766-.46-.152-1.014-.132-1.758-.459-2.287-2.344-3.796-3.383-7.405.204-11.218.797-.847.977-3.01.495-4.176-1.12-2.71-5.241-4-3.766-8-6.342-4.111-5.107-10.637-5.553-16.739-.137-1.867-1.607-3.636-2.458-5.453-1.292-2.757-3.028-5.434-3.562-8.332-.14-.759 3.46-2.206 5.66-3.273a192.247 192.247 0 019.621 8.314c2.435 2.409 4.713 4.522 7.125 6.932 2.03 2.102 3.926 3.905 5.96 6.021 1.347.804 2.558 1.295 3.775 2.153.701 3.983 2.417 4.224 5.065 2 2.244-1.885 4.608-3.63 6.918-5.435-.327 4.047-.655 8.094-1.033 12.933.325 2.215.7 3.638 1.276 5.187.457.33.651.578.789 1.224.706 1.064 1.411 1.777 2.11 2.527-.008.037.055-.004.046.354 1.958 1.82 3.924 3.28 6.139 4.884.74.712 1.232 1.283 1.719 2.203.65 1.139 1.305 1.929 2.02 3.091.464 4.53-.512 9.665 1.585 12.624 3.506 4.948 3.242 10.522 5.147 15.622 1.324 3.546 1.482 6.649-1.345 9.59-.394.409.256 1.82.423 2.769-.78.912-1.56 1.824-2.965 2.88-2.67.724-5.278.862-3.778 4.196-.895 1.467-1.791 2.934-2.862 4.671-4.006 3.876-7.837 7.48-12.288 11.272-2.407 1.773-4.195 3.359-5.983 4.945z"
        opacity="1"
    ></path>
    <path
        fill="#FDD337"
        d="M478.096 393.778c-.396-.733-1.046-2.145-.652-2.555 2.827-2.94 2.669-6.043 1.345-9.589-1.905-5.1-1.64-10.674-5.147-15.622-2.097-2.959-1.121-8.094-1.307-12.642.403-.41.588-.429 1.097-.425.756.078 1.187.133 1.63.553.86 4.38 3.104 4.131 5.737 2.134 5.088-3.86 10.114-7.802 15.166-11.71-2.265 6.282 2.324 11.071 3.815 17.124-.1 1.024-.408 1.505-1.037 2.018-.764 1.014-1.207 1.995-1.647 3.307.04.767.077 1.205.114 1.642 0 0-.119.485-.445.885-.81 1.301-1.293 2.201-1.777 3.101-.524.855-1.05 1.71-2.064 2.93-.97 1.266-1.452 2.168-1.933 3.07 0 0-.07.408-.37.717-.759.96-1.215 1.612-1.672 2.264-1.95 2.426-3.9 4.853-6.221 7.695a49.267 49.267 0 00-1.7 2.338l-2.932 2.765z"
        opacity="1"
    ></path>
    <path
        fill="#FFE880"
        d="M497.532 367.942c-.36-.366-.396-.804-.172-1.738.742-1.39 1.223-2.281 1.704-3.173.308-.48.616-.96.973-1.73 1.117-1.291 2.185-2.292 3.559-3.394a101.946 101.946 0 01-6.064 10.035zM506.458 352.017c1.052-2.648 2.41-5.301 4.077-8.095-.603 2.361-1.513 4.863-2.48 7.72-.468.361-.879.366-1.597.375z"
        opacity="1"
    ></path>
    <path
        fill="#FDD337"
        d="M471.43 400.99c-1.806-3.255.803-3.393 3.198-3.98-.728 1.295-1.81 2.597-3.197 3.98z"
        opacity="1"
    ></path>
    <path
        fill="#FFE880"
        d="M495.32 371.922c.152-.823.635-1.723 1.396-2.78-.17.797-.617 1.75-1.396 2.78zM491.322 377.922c.15-.825.631-1.727 1.395-2.777-.166.801-.615 1.75-1.395 2.777z"
        opacity="1"
    ></path>
    <path
        fill="#FEE574"
        d="M481.335 390.946c.135-.574.579-1.215 1.326-1.93-.137.57-.577 1.217-1.326 1.93z"
        opacity="1"
    ></path>
    <path
        fill="#FFE880"
        d="M489.273 380.92c.133-.592.59-1.243 1.345-1.997-.14.578-.581 1.258-1.345 1.997z"
        opacity="1"
    ></path>
    <path
        fill="#FEE574"
        d="M449.964 422.277a44.2 44.2 0 015.725-5.08c-1.48 2.22-3.293 4.441-5.464 6.672-.334-.418-.31-.844-.26-1.592z"
        opacity="1"
    ></path>
    <path
        fill="#FFE15E"
        d="M377.955 434.118c-3.716-3.383-7.432-6.766-11.466-10.263-3.601-3.754-6.75-7.527-10.198-11.004-5.666-5.715-11.526-11.238-17.605-16.929-.41-.494-.52-.9-.516-1.897 6.368-7.033 12.624-13.477 18.88-19.92 2.352-1.6 5.612-5.057 6.881-4.438 3.368 1.644 5.875 5.05 8.496 8.053-2.923.341-3.821 1.032-2.35 3.916 2.696 5.284 8.279 9.995 4.172 17.014-.179.304.239.931.321 1.418.819 4.82 1.914 9.613 2.363 14.467.58 6.259 5.143 11.251 11.09 11.853-3.408 2.8-6.738 5.265-10.068 7.73z"
        opacity="1"
    ></path>
    <path
        fill="#F5AA1C"
        d="M356.982 373.727c-6.188 6.821-12.444 13.265-18.885 19.99-4.069-1.94-4.267-5.784-4.665-9.96 2.73-3.3 5.501-6.338 8.485-9.151 3.918-3.695 8.002-7.212 12.015-10.805.994 3.182 1.988 6.365 3.05 9.926z"
        opacity="1"
    ></path>
    <path
        fill="#FEDA3D"
        d="M353.99 363.482c-4.07 3.912-8.155 7.43-12.073 11.124-2.984 2.813-5.755 5.851-8.785 9.085-4.054 3.797-5.86.57-8.02-2.366 2.979-2.509 6.434-4.411 9.222-7.026 5.73-5.375 11.101-11.13 16.706-17.082 2.572 1.045 4.348 2.773 2.95 6.265z"
        opacity="1"
    ></path>
    <path
        fill="#FEEA89"
        d="M540.211 306.662c-.538-3.058-1.003-6.431-1.04-9.81-.056-5.079.188-10.16.552-15.54.415 8.143.584 16.587.488 25.35zM539.919 278.6c-1.144-2.644-2.278-5.704-3.33-8.79a401.181 401.181 0 01-4.419-13.71c1.07.936 2.654 2.121 3.092 3.638 1.76 6.088 3.166 12.28 4.657 18.861zM524.431 358.073c1.455-4.147 3.23-8.436 5.316-12.892-1.458 4.14-3.227 8.445-5.316 12.892zM535.455 327c.683-3.859 1.71-7.82 3.074-11.9-.686 3.852-1.709 7.824-3.074 11.9zM533.843 331.305c.363-.875.594-1.434 1.078-2.174-.22 1.502-.693 3.186-1.462 5.015-.114-.745.068-1.635.384-2.841zM531.46 341.09c.072-1.19.461-2.542 1.206-3.99-.06 1.21-.474 2.52-1.207 3.99zM539.264 312.748c-.12-1.057.005-2.373.374-3.731.12 1.128-.005 2.3-.374 3.73zM535.129 327.76c-.115-.026-.224-.281-.175-.611.159-.075.18.382.175.61z"
        opacity="1"
    ></path>
    <path
        fill="#FFE880"
        d="M513.37 336.92c1.405-5.937 3.405-11.903 4.82-18.005 1.71-7.37 2.924-14.854 4.618-22.592.026 4.494-.103 9.301-.492 14.087-.238 2.926-.875 5.82-1.34 9.157a94.035 94.035 0 01-2.712 7.02c-1.489 3.428-3.036 6.83-4.894 10.333zM511.485 340.954c.071-.58.439-1.251 1.092-2.04-.075.57-.435 1.26-1.092 2.04z"
        opacity="1"
    ></path>
    <path
        fill="#F9BF2A"
        d="M420.209 300.935c-1.882 1.132-5.482 2.58-5.342 3.338.534 2.898 2.27 5.575 3.562 8.332.851 1.817 2.321 3.586 2.458 5.453.446 6.102-.789 12.628 5.553 16.738-1.475 4 2.647 5.29 3.766 8 .482 1.167.302 3.33-.495 4.177-3.587 3.813-2.548 7.422-.204 11.218.327.529.307 1.273.186 2.5-8.742 8.48-17.223 16.377-26.036 24.333-2.446 1.68-4.56 3.3-6.673 4.92 1.418-8.505-2.285-16.118-4.329-23.99-.662-2.552-2.398-4.826-3.342-7.46 2.458 1.848 4.38 4.3 6.863 5.858 1.383.868 4.425 1.084 5.48.167 8.02-6.97 15.735-14.294 23.795-21.573.067-.707-.116-1.348-.57-2.181-4.441-4.486-8.597-8.792-12.782-13.068-1.745-1.782-3.387-2.31-5.496-.181-7.83 7.907-15.797 15.678-23.712 23.5-.288-.82-1.045-1.885-.77-2.413.668-1.285 2.545-2.273 2.622-3.465.178-2.74-.427-5.531-.714-8.302-1.828.61-3.872.888-5.436 1.904-2.928 1.903-5.57 4.769-8.194-.352a714.097 714.097 0 0114.983-14.514c8.39-8.068 16.496-15.973 24.9-24.041 5.777-5.05 6.519-4.953 9.927 1.102zM395.535 249.739c2.069 7.468 3.773 15.021 5.437 23.319-2.687 3.806-5.335 6.867-8.28 10.077-5.094 5.058-9.89 9.966-14.973 15.016-1.418 1.384-2.551 2.627-3.695 3.863-.01-.007-.004.027-.264.128-.765.338-1.269.575-1.773.811-.014-2.053.593-4.37-.149-6.113-3.229-7.584-3.25-16.599-10.24-22.714-.312-.057-.4-.533-.395-.774.49-.473.976-.705 1.928-1.22.941-.896 1.415-1.51 1.89-2.124 2.515-1.864 5.03-3.729 8.073-5.889 1.363-1.218 2.197-2.14 3.031-3.061 0 0 .44-.066.957-.167 1-.691 1.482-1.282 1.964-1.872 5.375-3.065 10.75-6.13 16.49-9.28z"
        opacity="1"
    ></path>
    <path
        fill="#FEE574"
        d="M425.201 343.012c-7.81 7.213-15.524 14.536-23.545 21.507-1.055.917-4.097.701-5.48-.167-2.483-1.558-4.405-4.01-6.858-6.246-2.21-2.287-4.123-4.416-6.232-6.817 7.72-8.095 15.687-15.866 23.517-23.773 2.11-2.13 3.751-1.601 5.496.18 4.185 4.277 8.34 8.583 12.758 13.412.28.992.312 1.448.344 1.904z"
        opacity="1"
    ></path>
    <path
        fill="#FEE36A"
        d="M396.817 390.24c2.28-1.916 4.394-3.536 6.793-4.859a82.562 82.562 0 01-6.405 9.864c-1.793 2.37-4.181 4.362.706 6.126 1.232.444 2.793 3.018 2.487 4.149-1.2 4.435.287 6.367 4.653 6.564 0 0 .039.481-.266.859-5.764 4.621-11.224 8.866-16.684 13.11-6.025-.267-10.589-5.26-11.168-11.518-.45-4.854-1.544-9.648-2.363-14.467-.082-.487-.5-1.114-.321-1.418 4.107-7.019-1.476-11.73-4.172-17.014-1.471-2.884-.573-3.575 2.492-3.616 1.618 1.153 2.866 2.305 4.279 4.105 2.146 2.395 4.128 4.145 6.11 5.894.588.496 1.175.993 1.91 2.119 1.471 1.709 2.794 2.788 4.117 3.868 4.064 2.177 5.347-1.788 7.832-3.767zM371.825 303.249c.666-.532 1.17-.769 1.93-.68 2.026 7.48 3.797 14.634 5.58 21.843l5.763-.375c-4.816 4.646-9.632 9.292-14.789 14.037-5.54-5.245-10.739-10.589-16.31-16.316 5.92-6.104 11.792-12.159 17.826-18.509z"
        opacity="1"
    ></path>
    <path
        fill="#FFE15E"
        d="M382.819 387.723a54.247 54.247 0 01-5.824-5.315c1.884 1.431 3.784 3.225 5.824 5.315zM388.846 393.72a21.728 21.728 0 01-3.845-3.32c1.225.765 2.466 1.9 3.845 3.32z"
        opacity="1"
    ></path>
    <path
        fill="#FFE880"
        d="M511.874 247.803c-4.25-3.462-8.508-7.285-12.853-11.433 6.104 1.34 9.704 5.946 12.853 11.433zM522.286 272.706c-1.923-4.783-3.608-9.847-5.292-15.308 3.943 3.993 5.848 9.112 5.292 15.308zM516.884 255.816c-1.616-1.79-3.191-3.962-4.803-6.484 1.59 1.8 3.216 3.952 4.803 6.484zM523.469 291.903c-.383-2.258-.423-4.65-.412-7.49 3.205 1.89 2.363 4.589.412 7.49zM523.29 280.707c-.57-1.464-.91-3.206-1.193-5.35.513 1.423.97 3.247 1.194 5.35zM496.932 234.634c-.886-.082-1.858-.498-2.937-1.232.879.087 1.866.493 2.937 1.232z"
        opacity="1"
    ></path>
    <path
        fill="#FEE36A"
        d="M375.783 261.083c-.492.897-1.326 1.818-2.49 2.768.495-.896 1.322-1.82 2.49-2.768zM364.712 270.065c-.166.557-.64 1.17-1.418 1.845.167-.556.638-1.173 1.418-1.845zM378.742 259.067c-.178.542-.66 1.133-1.447 1.76.178-.545.66-1.128 1.447-1.76z"
        opacity="1"
    ></path>
    <path
        fill="#FEEC95"
        d="M475.05 353.134c-.431-.056-.862-.11-1.771-.458a69.599 69.599 0 01-3.238-2.728 45.263 45.263 0 01-1.791-2.19c-2.232-1.955-4.147-3.43-6.062-4.906 0 0-.063.041-.104-.3-.716-1.085-1.39-1.83-2.063-2.574-.136-.295-.33-.544-.77-1.231.217-1.84.62-3.195 1.022-4.55.808-.546 1.616-1.092 2.939-1.94 2.95-2.61 5.384-4.918 7.818-7.226 0 0-.031-.025.319-.06 1.52-1.302 2.689-2.57 3.858-3.836 3.05-2.35 6.1-4.698 9.463-7.187 5.955 5.367 11.597 10.874 17.047 16.914-9.017 7.78-17.842 15.026-26.667 22.272z"
        opacity="1"
    ></path>
    <path
        fill="#F5AA1C"
        d="M475.061 353.498c8.814-7.61 17.639-14.856 26.737-22.3 1.894.527 3.514 1.252 5.936 2.336-4.454 3.834-7.935 6.832-11.593 10.109a735.264 735.264 0 01-15.342 11.989c-2.633 1.997-4.877 2.246-5.738-2.134z"
        opacity="1"
    ></path>
    <path
        fill="#FEEC95"
        d="M443.095 321.955c-1.896-1.804-3.792-3.607-5.55-5.876 2.494-2.85 4.076-5.28 1.354-8.523-.49-.585-.124-1.852-.242-2.793-.871-6.896-.066-14.703-3.142-20.418-2.91-5.405-2.959-10.407-3.752-15.801-.489-3.322.836-3.697 3.628-3.442 2.055 1.872 3.779 3.627 5.605 5.269 3.973 3.572 7.998 7.087 12.002 10.625.826.902 1.651 1.804 2.89 3.151 2.654 2.566 4.894 4.687 7.134 6.809 1.833 1.894 3.666 3.788 5.902 6.125 1.303 1.265 2.204 2.088 3.105 2.91 0 0-.05.489-.212 1.021a595.343 595.343 0 01-24.066 21.5c-1.659-.353-3.157-.455-4.656-.557z"
        opacity="1"
    ></path>
    <path
        fill="#F5AA1C"
        d="M447.911 322.763c7.915-7.073 15.83-14.146 23.921-21.506 5.142 2.143 5.189 3.413 1.107 6.846-4.679 3.934-9.089 8.188-13.782 12.592-2.476 2.096-4.84 3.84-7.084 5.725-2.648 2.224-4.364 1.983-4.847-2.164.37-.85.527-1.172.685-1.493z"
        opacity="1"
    ></path>
    <path
        fill="#FED64E"
        d="M452.951 280.655c-3.957-3.197-7.982-6.712-11.955-10.284-1.826-1.642-3.55-3.397-5.777-5.555-3.98-3.613-7.504-6.771-11.073-10.277a56.758 56.758 0 01-.145-1.75c3.807 2.964 7.615 5.927 11.71 9.064 4.827 4.871 9.39 9.544 13.882 14.285 1.217 1.285 2.214 2.778 3.358 4.517zM470.664 325.028c-2.068 2.311-4.503 4.62-7.27 7.002a78.46 78.46 0 017.27-7.002zM463.008 290.594c-2.226-1.76-4.466-3.88-6.848-6.3 3.804-.031 5.826 2.387 6.848 6.3zM474.848 321.138c-.81 1.264-1.98 2.53-3.484 3.849.819-1.248 1.972-2.547 3.484-3.85zM459.898 334.141c-.027 1.41-.43 2.766-.85 4.48-.39-1.065-.765-2.488-1.086-4.256.557-.324 1.06-.301 1.936-.224zM472.238 299.773c-1.11-.604-2.01-1.427-3.022-2.538a11.556 11.556 0 013.022 2.538z"
        opacity="1"
    ></path>
    <path
        fill="#FEEA89"
        d="M424.192 254.886c3.523 3.159 7.046 6.317 10.741 9.763-2.334.198-3.659.573-3.17 3.895.793 5.394.843 10.396 3.752 15.8 3.076 5.716 2.271 13.523 3.142 20.42.118.94-.249 2.207.242 2.792 2.722 3.243 1.14 5.673-1.488 8.225-2.55-1.945-4.828-4.058-7.269-6.832-4.125-5.892-8.162-11.07-11.992-16.398-.846-1.176-1.108-2.853-1.382-4.347-1.065-5.795-1.753-11.678-3.203-17.37-.397-1.56-2.961-2.568-4.53-3.829.188-.53.376-1.06 1.11-1.835 1.657-1.547 2.769-2.848 3.88-4.149 2.11-1.913 4.218-3.826 7.022-5.886 1.513-.182 2.329-.215 3.145-.25z"
        opacity="1"
    ></path>
    <path
        fill="#FFE880"
        d="M408.73 267.148c1.874 1.118 4.438 2.126 4.835 3.685 1.45 5.693 2.138 11.576 3.203 17.371.274 1.494.536 3.17 1.382 4.347 3.83 5.328 7.867 10.506 11.836 16.103-3.043-2.286-6.092-4.938-9.459-7.654-3.726-6.12-4.468-6.217-10.624-1.154-2.658.924-4.653 1.643-6.62 2.433-1.687.678-3.343 1.437-5.012 2.16-.757-2.043-1.748-4.033-2.224-6.14-1.147-5.075-2.053-10.205-3.057-15.313 2.647-3.061 5.295-6.122 8.02-9.506 2.525-2.279 4.97-4.234 7.72-6.332z"
        opacity="1"
    ></path>
    <path
        fill="#FED64E"
        d="M413.684 261.062c-.77 1.26-1.882 2.561-3.329 3.914.773-1.256 1.88-2.564 3.33-3.914z"
        opacity="1"
    ></path>
    <path
        fill="#FFE880"
        d="M424.146 254.54c-.77.38-1.586.413-2.81.437.404-.68 1.216-1.35 2.346-2.103.352.383.385.851.464 1.665z"
        opacity="1"
    ></path>
    <path
        fill="#FBCA31"
        d="M388.023 426.388c5.538-4.579 10.998-8.824 16.77-13.204-.729 2.35-1.646 4.9-2.857 7.302-.702 1.393-1.875 2.55-2.894 4.154-4.15 3.863-8.241 7.385-12.335 10.905-3.124 2.687-6.038 3.056-8.657-1.108 3.235-2.784 6.565-5.25 9.973-8.049z"
        opacity="1"
    ></path>
    <path
        fill="#FEE574"
        d="M405.387 412.005c-4.702-.118-6.19-2.05-4.99-6.485.307-1.131-1.254-3.705-2.486-4.15-4.887-1.763-2.5-3.755-.706-6.125 2.346-3.101 4.471-6.37 6.738-9.924 8.527-8.253 17.008-16.15 25.762-24.26.44-.19.608-.166.981.224-.594 1.383-1.22 2.638-2.227 3.371-3.867 2.817-6.67 5.843-4.863 11.238.444 1.325-.453 3.218-1.02 4.743-2.654 7.147-1.908 9.31 4.356 12.827-2.49 2.686-4.806 5.085-7.123 7.484-4.695 3.66-9.39 7.318-14.422 11.057z"
        opacity="1"
    ></path>
    <path
        fill="#F2AF24"
        d="M420.194 400.952c1.932-2.403 4.248-4.802 7.064-7.584 9.212-7.732 17.926-15.08 26.64-22.429 4.757 2.225 4.834 3.044 1.09 6.11-3.657 2.994-7.115 6.232-10.827 9.654-4.068 3.357-7.735 6.808-11.943 9.37-3.554 2.163-7.736 3.295-12.024 4.88z"
        opacity="1"
    ></path>
    <path
        fill="#FFE880"
        d="M453.857 370.659c-8.673 7.628-17.387 14.977-26.427 22.421-6.762-3.133-7.508-5.296-4.854-12.443.567-1.525 1.464-3.418 1.02-4.743-1.807-5.395.996-8.421 4.863-11.238 1.007-.733 1.633-1.988 2.48-3.352.555-.986 1.013-1.675 1.581-2.256 5.084-5.19 6.472-5.104 11.332.405 2.16 2.448 4.476 4.76 6.989 7.688.85 1.005 1.432 1.454 2.014 1.903.32.445.64.89 1.002 1.615z"
        opacity="1"
    ></path>
    <path
        fill="#FED64E"
        d="M462.18 343.21c1.923 1.118 3.838 2.593 5.822 4.406-1.899-1.125-3.865-2.587-5.823-4.406z"
        opacity="1"
    ></path>
    <path
        fill="#FEEA89"
        d="M447.751 322.512c.002.572-.156.893-.532 1.378-1.428-.328-2.64-.819-3.987-1.623 1.362-.21 2.86-.108 4.52.245z"
        opacity="1"
    ></path>
    <path
        fill="#FED64E"
        d="M470.037 350.297c.924.463 1.843 1.275 2.916 2.356-.03.288-.215.307-.678.344-.933-.771-1.588-1.561-2.238-2.7zM460.023 340.329c.672.394 1.345 1.138 2.068 2.186-.657-.409-1.362-1.122-2.068-2.186z"
        opacity="1"
    ></path>
    <path
        fill="#FEE574"
        d="M452.826 368.735c-.553-.14-1.136-.59-1.792-1.32.538.149 1.15.58 1.792 1.32z"
        opacity="1"
    ></path>
    <path
        fill="#FEDA3D"
        d="M498.743 363.064c-.16.859-.64 1.75-1.386 2.81.179-.815.622-1.796 1.386-2.81z"
        opacity="1"
    ></path>
    <path
        fill="#FEE574"
        d="M392.692 283.135c1.302 4.96 2.208 10.09 3.355 15.165.476 2.106 1.467 4.096 2.224 6.139 1.67-.723 3.325-1.482 5.013-2.16 1.966-.79 3.96-1.509 6.321-2.271-7.727 7.893-15.833 15.798-24.223 23.866-2.079.28-3.874.396-6.047.538-1.783-7.21-3.554-14.364-5.32-21.945.005-.426 0-.46.377-.471 1.456-1.336 2.534-2.66 3.613-3.986 4.796-4.909 9.593-9.817 14.687-14.875z"
        opacity="1"
    ></path>
    <path
        fill="#FBCA31"
        d="M425.45 342.946c-.28-.39-.313-.846-.321-1.646.206.298.389.939.322 1.646z"
        opacity="1"
    ></path>
    <path
        fill="#FEE36A"
        d="M377.72 298.151a21.962 21.962 0 01-3.318 3.852c.766-1.225 1.899-2.468 3.317-3.852z"
        opacity="1"
    ></path>
</svg>