<svg version="1.1" id="Layer_1" xmlns="http://www.w3.org/2000/svg" xmlns:xlink="http://www.w3.org/1999/xlink" x="0px" y="0px"
	 width="100%" viewBox="0 0 256 256" enable-background="new 0 0 154 154" xml:space="preserve">
    <path
        fill="#00aced"
        d="M116 1c8.354 0 16.708 0 25.191.263.59.714.974 1.4 1.524 1.582 8.064 2.666 13.068 8.264 15.792 16.152 3.576 10.356 16.19 15.935 26.4 11.54 19.437-8.37 36.519 3.682 43.518 20.44 3.378 8.086.972 15.948-1.686 23.796-3.211 9.478 2.338 20.783 11.489 23.866 7.394 2.49 12.591 7.346 16.19 14.16.49.93 1.703 1.477 2.582 2.201 0 8.688 0 17.375-.245 26.192-.71.578-1.362.941-1.614 1.489-5.01 10.87-13.162 16.83-25.405 17.476-4.86.256-7.331 4.504-9.118 8.723-1.438 3.393-.524 6.287 1.769 9.07 13.957 16.947 8.171 36.046-9.168 47.238-9.963 6.431-20.765 4.57-31.15.7-9.142-3.406-20.09 3.463-22.752 10.727-3.065 8.367-8.236 14.339-16.02 18.343-.62.318-.873 1.345-1.297 2.042-8.354 0-16.708 0-25.191-.262-.918-.762-1.652-1.4-2.505-1.74-7.471-2.986-12.548-8.591-15.113-15.87-3.972-11.267-15.063-16.7-25.978-12.255-3.71 1.512-7.752 2.787-11.709 3.013-20.343 1.165-41.859-23.04-30.448-45.872 4.472-8.946-1.514-22.948-10.669-25.911-7.594-2.458-13.344-7.234-17.134-14.342-.41-.77-1.486-1.183-2.253-1.761 0-8.354 0-16.708.242-25.192 5.777-9.95 13.728-16.575 24.954-18.95.713-.151 1.306-.954 1.915-1.5 6.482-5.811 7.536-13.22 3.822-21.848-1.83-4.25-3.38-8.87-3.787-13.435-.961-10.79 5.08-18.366 12.528-25.375 10.646-10.022 27.396-10.38 38.76-.636 3.269 2.803 6.61 3.73 10.41 2.485 4.432-1.452 7.99-4.323 8.077-9.376.208-12.088 6.822-19.656 16.792-25.13.617-.34.867-1.347 1.287-2.043m59.138 86.223c-2.297 1.582-4.895 2.861-6.845 4.793-16.907 16.753-33.695 33.626-50.53 50.452-1.243 1.242-2.58 2.391-4.136 3.825-8.464-8.521-16.513-16.702-24.653-24.792-5.367-5.334-11.38-5.677-15.817-1.083-4.303 4.457-3.904 10.247 1.262 15.459a5378.268 5378.268 0 0030.713 30.722c5.295 5.256 11.952 5.444 17.23.2 20.546-20.41 40.985-40.929 61.46-61.412 3.454-3.456 5.148-7.46 3.017-12.203-2.08-4.63-5.865-6.597-11.7-5.96z"
        opacity="1"
    ></path>
    <path
        fill="#E6E6EA"
        d="M175.53 87.152c5.444-.565 9.23 1.403 11.31 6.032 2.13 4.744.436 8.747-3.018 12.203-20.475 20.483-40.914 41.002-61.46 61.412-5.278 5.244-11.935 5.056-17.23-.2a5378.268 5378.268 0 01-30.713-30.722c-5.166-5.212-5.565-11.002-1.262-15.459 4.437-4.594 10.45-4.251 15.817 1.083 8.14 8.09 16.189 16.27 24.653 24.792 1.556-1.434 2.893-2.583 4.136-3.825 16.835-16.826 33.623-33.699 50.53-50.452 1.95-1.932 4.548-3.21 7.236-4.864z"
        opacity="1"
    ></path>
</svg>