<svg version="1.1" id="Layer_1" xmlns="http://www.w3.org/2000/svg" xmlns:xlink="http://www.w3.org/1999/xlink" x="0px" y="0px"
	 width="100%" viewBox="0 0 256 256" enable-background="new 0 0 154 154" xml:space="preserve">
    <path
      fill="#e7281a"
      d="M232.008 180.935c-9.27 17.571-21.773 31.957-37.711 43.115-12.798 8.96-26.979 15.415-42.468 17.761-10.709 1.623-21.745 2.592-32.519 1.938-17.756-1.078-34.545-6.523-49.775-15.953-19.071-11.808-33.896-27.695-43.979-47.77-9.746-19.404-13.411-40.242-11.367-61.655 2.436-25.519 12.363-48.003 29.935-67.159 18.046-19.672 40.178-31.718 66.18-35.977 21.902-3.588 43.47-1.049 64.133 7.816 20.593 8.835 37.075 22.766 49.763 40.905 10.388 14.85 16.628 31.541 18.897 49.744 2.384 19.128.477 37.638-6.129 55.683-1.395 3.812-3.245 7.457-4.96 11.552m-55.67-137.868c-20.005-10.842-41.4-14.779-63.71-10.897-25.538 4.443-46.797 17.194-62.1 38.118-19.89 27.195-25.068 57.46-14.486 89.74C41.933 178 52.408 192.996 67.33 204.926c24.288 19.416 51.647 26.136 81.962 19.981 23.897-4.852 43.506-17.427 57.939-36.89 20.486-27.624 25.496-58.56 14.494-91.104-7.861-23.253-23.257-41.136-45.388-53.846z"
    />
    <path
      fill="#e7281a"
      d="M137 122c0 6.322.023 12.145-.007 17.967-.027 5.281-2.942 8.089-8.26 8.033-4.892-.052-7.72-2.96-7.725-8.068-.02-17.966-.021-35.932 0-53.898.006-5.282 2.94-8.09 8.258-8.034 4.893.052 7.716 2.958 7.727 8.067.023 11.81.007 23.622.007 35.933zM139.974 169.492c.427 5.166-.672 8.969-5.217 11.663-4.236 2.512-7.971 2.21-11.915-.19-3.988-2.428-5.92-7.255-4.766-12.012 1.289-5.316 4.668-7.567 10.232-8.045 6.44-.553 9.795 2.554 11.666 8.584z"
    />
</svg>