<svg version="1.1" id="Layer_1" xmlns="http://www.w3.org/2000/svg" xmlns:xlink="http://www.w3.org/1999/xlink" x="0px" y="0px"
	 width="100%" viewBox="0 0 256 256" enable-background="new 0 0 154 154" xml:space="preserve">
    <path
        fill="#FCD436"
        d="M121.353 14.029c22.41-.709 43.346 3.263 62.653 14.01 23.598 13.137 40.777 31.987 51.16 57.174 6.149 14.916 9.122 30.29 8.742 46.228-.605 25.438-8.683 48.418-24.411 68.55-17.267 22.098-39.954 35.9-67.138 41.665-22.346 4.739-44.485 2.665-65.9-5.808-17.553-6.946-32.628-17.531-44.761-31.82-13.546-15.952-22.726-34.261-25.652-55.253-.995-7.132-2.036-14.359-1.928-21.526.383-25.469 8.333-48.512 23.911-68.709 17.335-22.474 40.449-35.976 67.837-42.416 4.897-1.152 10.006-1.404 15.487-2.095m25.632 43.865c-1.8-1.934-3.473-4.008-5.424-5.776-5.687-5.151-12.422-6.59-19.39-3.629-6.668 2.833-12.01 7.674-13.033 15.303-.68 5.067-.427 10.318-.075 15.451 1.188 17.353 2.597 34.69 3.941 52.032.647 8.338 1.231 16.684 2.144 24.994.111 1.014 2.068 2.568 3.212 2.607 7.146.24 14.308.242 21.453-.009 1.091-.038 2.934-1.704 3.052-2.77.904-8.144 1.567-16.32 2.11-24.498.764-11.492 1.259-23.003 2.071-34.491.426-6.027 1.812-12.024 1.809-18.034-.004-6.804-1.079-13.609-1.87-21.18m-2.307 141.935c.102-3.477.795-7.062.18-10.407-1.198-6.51-10.87-13.294-16.804-12.384-9.43 1.444-16.843 9.736-16.05 17.952.737 7.642 7.71 14.831 15.512 15.995 5.978.891 13.603-3.968 17.162-11.156z"
        opacity="1"
    ></path>
</svg>