<svg version="1.1" id="Layer_1" xmlns="http://www.w3.org/2000/svg" xmlns:xlink="http://www.w3.org/1999/xlink" x="0px" y="0px"
	 width="1.25em" viewBox="0 0 512 512" enable-background="new 0 0 154 154" xml:space="preserve">
    <style>
        .icon-mid-white-color-change{
            fill: #767C85;
        }
        @media (prefers-color-scheme: dark) {
            .icon-mid-white-color-change{
                fill: #afafaf;
            }
        }
    </style>
    <path
      class="icon-mid-white-color-change"
      d="M381 1c5.688 0 11.376 0 17.26.29 14.502 9.034 9.817 23.734 10.945 36.72 7.403 0 14.233-.252 21.035.074 6.395.307 12.84.792 19.125 1.946C480.655 45.774 504 73.994 504 105.74c0 113.485.012 226.971-.047 340.457-.002 4.27-.12 8.679-1.143 12.785-6.533 26.233-22.34 43.973-48.475 52.053-.896.277-1.562 1.293-2.335 1.965-129.688 0-259.375 0-389.356-.37-1.122-.791-1.908-1.377-2.788-1.612-28.476-7.589-49.73-34.264-49.78-63.679-.189-112.145.007-224.29-.166-336.436-.026-16.674 3.606-31.858 13.78-45.267 10.15-13.374 23.3-22.586 39.78-25.378 11.653-1.975 23.707-1.597 35.583-2.233 1.904-.102 3.818-.014 5.947-.014 0-6.517-.025-12.175.007-17.834.038-6.83 2.28-12.516 8.329-16.346.822-.52 1.122-1.867 1.664-2.831 5.688 0 11.376 0 17.22.27 14.664 8.77 11.45 23.355 11.871 36.3h225.91c0-5.763-.119-11.09.032-16.411.162-5.758 1.758-10.973 6.264-15.009C378.02 4.607 379.44 2.727 381 1M255.5 201H49.37c-.193 1.273-.332 1.759-.332 2.245-.018 81.486-.136 162.972.131 244.456.027 8.209 4.298 15.274 11.185 20.438 6.778 5.083 14.5 6.832 22.694 6.835 113.314.038 226.627.04 339.94-.016 5.437-.003 10.892-.431 16.305-.985 14.346-1.47 25.683-14.051 25.69-28.271.036-79.653.017-159.306.017-238.958V201H255.5M209.5 77H144c0 6.613.043 12.43-.01 18.247-.109 11.806-10.209 20.563-20.548 19.954-9.567-.563-19.27-8.734-18.511-20.128.393-5.9.069-11.847.069-18.07-9.065 0-17.376-.066-25.685.046-2.099.029-4.19.626-6.285.966-12.525 2.037-23.927 14.644-24.001 26.846-.108 17.826-.034 35.652-.01 53.478.002 1.106.246 2.212.371 3.27H464.99c0-19.699.483-39.025-.238-58.307-.289-7.706-4.524-14.411-11.078-19.412-13.698-10.452-29.34-5.679-44.674-7.038 0 7.353.123 13.831-.036 20.302-.144 5.884-2.665 10.539-7.497 14.13-6.361 4.727-13.478 5.292-20.1 2.193-7.672-3.591-11.494-10.506-11.38-19.268.073-5.6.014-11.202.014-17.209H209.5z"
    />
</svg>