<svg version="1.1" id="Layer_1" xmlns="http://www.w3.org/2000/svg" xmlns:xlink="http://www.w3.org/1999/xlink" x="0px" y="0px"
	 width="100%" viewBox="0 0 256 256" enable-background="new 0 0 154 154" xml:space="preserve">
    <path
      fill="#FCD436"
      d="M209.03 104.094a12553.68 12553.68 0 0 1-26.081 74.917c-5.573 15.83-11.397 31.573-16.88 47.435-1.442 4.171-4.039 7.013-8.133 7.355-3.989.333-7.16-2.295-8.894-5.868-5.441-11.207-10.719-22.494-15.985-33.785-3.416-7.325-6.682-14.72-10.053-22.065-2.295-5.002-4.452-10.083-7.064-14.917-1.442-2.667-.618-4.087 1.256-5.935 10.912-10.766 21.733-21.625 32.55-32.487 4.038-4.055 4.455-7.863 1.37-11.119-3.715-3.918-7.419-3.784-11.823.599-10.75 10.694-21.53 21.36-32.11 32.22-2.369 2.432-4.11 2.63-7.168 1.183-22.376-10.588-44.786-21.115-67.362-31.267-7.288-3.277-9.994-8.808-7.544-12.62 1.464-2.278 3.745-4.704 6.19-5.578 26.75-9.562 53.62-18.79 80.43-28.19a40888.861 40888.861 0 0 0 102.353-36.039c4.606-1.628 8.792-4.966 14.152-2.883 4.034 1.568 6.337 6.298 4.83 10.594-7.964 22.695-15.997 45.366-24.035 68.45z"
    />
</svg>