<svg version="1.1" id="Layer_1" xmlns="http://www.w3.org/2000/svg" xmlns:xlink="http://www.w3.org/1999/xlink" x="0px" y="0px"
	 width="100%" viewBox="0 0 256 256" enable-background="new 0 0 154 154" xml:space="preserve">
    <path
      fill="#FCD436"
      d="M1 173.469c1.773-1.127 3.496-2.018 5.326-2.402 6.393-1.342 10.598 2.283 10.65 9.282.088 12.316.012 24.633.028 36.95.014 11.05 8.737 19.697 19.885 19.698 61.417.007 122.835-.103 184.251.104 10.7.036 19.726-10.147 19.831-19.955.122-11.317.029-22.636.029-33.954 0-12.061 4.957-15.1 15.73-9.834.27 17.996.27 36.35-.008 54.841-.543.339-.945.486-1.052.752-7.257 18.146-21.407 25.099-40.108 25.075-56.498-.071-112.996-.004-169.494-.068-4.253-.005-8.502-.678-12.76-.939-12.666-.774-21.594-7.24-27.848-17.977C4.208 232.892 2.5 231.007 1 229v-55.531z"
    />
    <path
      fill="#FCD436"
      d="M137 22.017v139.342l1.36 1.125c.875-1.32 1.558-2.831 2.652-3.933 13.86-13.946 27.777-27.837 41.686-41.735 4.394-4.39 9.337-5.094 12.88-1.485 4.206 4.285 2.583 10.209-.784 13.528-19.462 19.183-38.731 38.561-58.031 57.908-4.933 4.945-10.568 4.986-15.609-.077-18.926-19.013-37.932-37.948-56.861-56.959-6.469-6.496-5.852-12.728 1.293-15.916 4.06-1.812 6.847.116 9.484 2.751a19129.226 19129.226 0 0 1 41.688 41.734c1.14 1.146 1.987 2.585 2.97 3.889l1.271-.632v-5.226c0-47.658-.003-95.317.005-142.975 0-5.734 2.85-9.083 7.828-9.287 4.851-.2 8.149 3.613 8.167 9.451.008 2.667.002 5.334.002 8.497zM111 220c-17.495 0-34.49.005-51.485-.002-5.238-.003-8.445-2.746-8.515-7.246-.089-5.67 2.922-8.738 8.776-8.741 33.323-.023 66.646-.011 99.97-.011 12.83 0 25.66.087 38.487-.05 4.167-.045 7.143 1.628 8.422 5.379 1.257 3.685.558 7.349-3.115 9.506-1.425.837-3.362 1.115-5.066 1.119-28.992.065-57.983.046-87.474.046z"
    />
</svg>