<svg version="1.1" id="Layer_1" xmlns="http://www.w3.org/2000/svg" xmlns:xlink="http://www.w3.org/1999/xlink" x="0px" y="0px"
	 width="100%" viewBox="0 0 256 256" enable-background="new 0 0 154 154" xml:space="preserve">
    <path
        fill="#FCD436"
        d="M26.571 176.215c20.585.274 37.175-8.833 52.21-20.78 10.465-8.317 20.018-17.852 29.48-27.34 10.521-10.551 20.26-21.881 30.739-32.476 11.004-11.126 23.096-21.02 38.012-26.484 5.737-2.101 11.933-3.253 18.023-3.998 5.346-.655 10.837-.137 17.577-.137-6.057-6.013-11.282-11.046-16.298-16.28-1.413-1.473-2.922-3.452-3.14-5.343-.396-3.45-1.18-7.582 3.23-9.443 4.222-1.78 8.333-1.68 11.824 1.807 10.022 10.01 20.084 19.98 30.03 30.065 4.198 4.258 4.238 10.088.068 14.32-9.94 10.091-20.164 19.907-29.95 30.142-3.407 3.564-11.315 3.298-13.627.94-2.333-2.38-2.674-10.362 1.037-13.622 5.581-4.902 10.697-10.333 16.87-16.38-17.66-.699-32.458 3.043-45.686 13.195-15.018 11.526-27.294 25.723-40.33 39.247-15.011 15.572-29.601 31.74-48.188 43.388-15.964 10.004-32.951 16.62-52.2 15.998-6.795-.22-8.965-1.63-9.25-6.82-.379-6.88.954-8.368 8.313-9.336.296-.04.558-.335 1.256-.663z"
        opacity="1"
      ></path>
      <path
        fill="#FCD436"
        d="M177.049 170.009c10.834 6.213 22.427 6.708 35.608 7.146-5.97-5.965-11.16-10.932-16.06-16.17-1.588-1.7-3.09-4.006-3.433-6.22-.51-3.29-.92-7.178 3.324-8.872 4.064-1.623 8.119-1.72 11.438 1.559 10.304 10.176 20.57 20.392 30.705 30.734 3.76 3.836 3.777 9.761.027 13.59-10.132 10.347-20.397 20.565-30.704 30.738-3.301 3.258-10.387 3.488-13.17.723-2.783-2.764-2.572-9.86.685-13.166 5.343-5.424 10.88-10.655 17.469-17.071-4.768 0-8.008-.169-11.226.029-14.562.895-27.579-3.772-39.134-12.007-9.451-6.735-18.236-14.445-27.002-22.084-3.935-3.429-3.674-9.354-.272-12.728 3.48-3.45 7.78-2.927 12.094.6 9.628 7.87 19.504 15.435 29.65 23.199zM103.42 100.96c2.148 4.262 2.775 8.37-.756 11.625-3.9 3.597-7.23 3.066-12.268-.641-9.456-6.958-18.717-14.256-28.645-20.478-9.455-5.926-20.032-9.323-31.438-9.519-2.92-.05-5.925-.412-8.719-1.223-4.939-1.434-4.882-5.663-4.55-9.698.316-3.836 2.61-5.779 6.461-6.033 13.19-.872 25.787 1.693 37.85 6.829 15.876 6.758 29.472 16.908 42.064 29.138z"
        opacity="1"
      ></path>
</svg>