<svg version="1.1" id="Layer_1" xmlns="http://www.w3.org/2000/svg" xmlns:xlink="http://www.w3.org/1999/xlink" x="0px" y="0px"
	 width="100%" viewBox="0 0 256 256" enable-background="new 0 0 154 154" xml:space="preserve">
    <style>
        .icon-mid-white-color-change{
            fill: #767C85;
        }
        @media (prefers-color-scheme: dark) {
            .icon-mid-white-color-change{
                fill: #afafaf;
            }
        }
    </style>
    <path
        class="icon-mid-white-color-change"
        d="M257 80.533c-.606.57-1.434.454-1.787.81-38.221 38.488-76.387 77.033-114.616 115.514-6.108 6.147-17.129 6.072-23.292-.08A123545.378 123545.378 0 015.321 84.796c-1.38-1.381-2.554-2.968-4.072-4.128C1 75.978 1 70.956 1.252 65.797c3.762-4.552 7.21-8.836 13.728-8.831 75.971.054 151.942.043 227.912.015 4.7-.002 8.169 2.034 11.006 5.622.786.994 2.055 1.608 3.102 2.397v15.533z"
        opacity="1"
    ></path>
</svg>