<svg version="1.1" id="Layer_1" xmlns="http://www.w3.org/2000/svg" xmlns:xlink="http://www.w3.org/1999/xlink" x="0px" y="0px"
	 width="100%" viewBox="0 0 2000 2000" enable-background="new 0 0 154 154" xml:space="preserve">
    <path
        fill="#00D632"
        d="M1 1479c0-318.698 0-637.395.426-956.425.805-1.178 1.478-2.01 1.52-2.874 1.057-22.146 1.907-44.302 3.107-66.44.714-13.164 1.4-26.371 3.1-39.43a1092.233 1092.233 0 018.928-56.767c4.498-24.432 10.447-48.523 18.807-71.986 10.62-29.808 25.239-57.57 42.52-83.97 16.805-25.671 35.88-49.521 58.457-70.39 11.512-10.642 23.09-21.26 35.238-31.152 20.387-16.603 42.722-30.36 65.988-42.547 29.287-15.341 60.039-26.818 92.514-33.245 24.701-4.887 49.429-9.777 74.313-13.558 17.703-2.69 35.66-3.95 53.551-5.093 18.51-1.182 37.079-1.456 55.622-2.119 1.498-.053 3.033.133 4.48-.152.575-.113.958-1.205 1.429-1.852 319.698 0 639.395 0 959.425.426 1.512.808 2.679 1.474 3.874 1.53 15.873.73 31.766 1.13 47.623 2.107 16.771 1.033 33.561 2.144 50.25 4.042 18.88 2.148 37.72 4.824 56.461 7.965 26.776 4.489 53.154 10.794 78.765 19.942 28.368 10.132 54.978 23.884 80.237 40.192 27.445 17.72 52.802 38.048 75.095 62.039 7.886 8.486 16.445 16.477 23.381 25.685 12.006 15.94 23.524 32.308 34.274 49.118 17.99 28.133 31.718 58.279 40.965 90.495 10.416 36.288 17.03 73.278 21.557 110.672 1.82 15.028 3.099 30.143 3.993 45.256 1.056 17.853 1.436 35.746 2.091 53.622.073 1.998-.147 4.022.122 5.986.098.714 1.228 1.286 1.887 1.923 0 319.03 0 638.062-.426 957.425-.808 1.511-1.474 2.678-1.53 3.873-.73 15.87-1.136 31.758-2.105 47.612-1.045 17.1-2.201 34.211-4.036 51.239-1.808 16.772-4.402 33.464-6.876 50.158-3.768 25.435-9.96 50.347-17.718 74.81-8.1 25.535-19.789 49.516-33.197 72.719-18.368 31.785-40.57 60.58-66.246 86.736a282.786 282.786 0 01-16.668 15.648c-8.949 7.749-17.683 15.875-27.348 22.641-16.207 11.345-32.802 22.199-49.738 32.425-19.963 12.053-41.071 22.24-63.333 29.025-23.23 7.081-46.953 12.897-70.8 17.508-24.9 4.815-50.163 7.861-75.348 11.04-13.721 1.732-27.598 2.374-41.426 3.068-13.084.656-26.198.744-39.298 1.067-1.998.05-4.022-.15-5.985.119-.714.097-1.286 1.228-1.922 1.887-317.698 0-635.395 0-953.425-.426-2.01-.81-3.677-1.45-5.371-1.53-8.764-.422-17.542-.586-26.303-1.052-17.314-.923-34.63-1.861-51.928-3.036-11.492-.78-23.02-1.52-34.416-3.11-15.71-2.189-31.452-4.517-46.923-7.948-23.576-5.228-47.4-10.031-70.267-17.593-32.117-10.62-62.148-26.314-89.958-45.654-15.867-11.035-31.225-22.989-45.696-35.79-14.379-12.72-28.268-26.246-40.704-40.839-13.138-15.417-24.893-32.118-36.188-48.971-14.622-21.817-26.192-45.363-35.846-69.81-8.125-20.575-13.95-41.847-18.022-63.54-4.676-24.91-9.082-49.89-12.78-74.96-2.207-14.954-3.21-30.12-4.068-45.23-1.07-18.847-1.438-37.734-2.1-56.604-.053-1.498.132-3.032-.153-4.479-.113-.575-1.205-.958-1.852-1.428M941.67 462.099c-1.469.308-2.935.631-4.408.921-48.454 9.55-94.792 25.006-137.656 49.903-59.333 34.462-104.033 81.914-128.978 146.632-16.303 42.297-21.728 86.278-19.728 131.342 1.437 32.37 7.839 63.674 20.439 93.607 20.218 48.03 53.518 85.4 94.93 116.085 40.397 29.933 85.086 51.98 131.669 70.234 48.888 19.16 98.183 37.28 147.126 56.303 23.878 9.28 47.265 19.783 68.522 34.38 16.798 11.535 30.852 25.452 37.509 45.335 11.531 34.443 3.154 81.11-34.332 111.29-28.003 22.546-60.937 32.786-95.803 37.792-36.514 5.242-73.055 4.247-109.536-.756-53.041-7.273-102.851-23.979-149.044-51.164-27.25-16.038-52.128-35.174-74.525-57.526-18.844-18.807-43.144-18.789-61.889-.048-26.99 26.985-53.988 53.96-80.956 80.966-18.675 18.701-18.446 45.207.454 63.471 61.542 59.468 133.566 101.272 214.836 127.484 8.801 2.839 17.664 5.488 26.62 8.263-7.537 36.305-14.509 72.401-22.636 108.235-6.59 29.052 14.228 54.355 42.892 53.528 26.29-.76 52.63.223 78.947.464 22.32.204 44.641.522 66.963.646 22.48.124 38.46-12.747 43.025-34.602 7.007-33.539 13.956-67.09 20.816-100.658.552-2.701 1.402-3.852 4.372-4.175 20.18-2.192 40.439-3.965 60.474-7.13 52.915-8.36 103.645-23.852 151.073-49.126 50.854-27.1 93.847-63.25 124.973-112.21 42.385-66.67 56.023-139.787 46.23-217.554-6.052-48.053-25.932-90.126-57.77-126.568-26.153-29.935-57.602-53.273-91.739-73.182-48.032-28.012-99.495-48.287-151.506-67.449-41.929-15.447-83.677-31.426-125.133-48.095-19.939-8.017-38.121-19.483-54.6-33.628-43.406-37.26-41.344-105.874 7.565-139.727 22.67-15.691 48.14-23.856 74.96-28.359 37.481-6.292 74.964-5.154 112.377.785 61.359 9.74 118.057 31.614 169.536 66.397 14.307 9.667 27.737 20.724 40.994 31.83 17.202 14.41 40.508 14.513 55.533-.98 25.973-26.78 51.218-54.287 77.726-80.522 16.837-16.665 16.06-46.703-3.48-63.437-53.181-45.543-112.186-81.395-177.38-106.986-9.999-3.925-20.127-7.52-30.257-11.29.176-1.203.254-2.022.42-2.822 8.055-38.759 16.235-77.492 24.135-116.283 4.652-22.843-10.282-44.632-33.201-48.95-2.6-.49-5.285-.732-7.93-.734-49.666-.043-99.33-.074-148.995-.01-20.2.025-36.94 13.003-41.08 32.081-4.62 21.29-8.844 42.667-13.26 64.002-2.931 14.157-5.898 28.306-8.813 42.292-13.652 1.238-26.935 2.134-40.134 3.727-13.209 1.595-26.334 3.888-40.346 5.976z"
        opacity="1"
    ></path>
    <path
        fill="#FFF"
        d="M942.096 462.048c13.587-2.037 26.712-4.33 39.921-5.925 13.2-1.593 26.482-2.489 40.134-3.727 2.915-13.986 5.882-28.135 8.812-42.292 4.417-21.335 8.641-42.711 13.26-64.002 4.14-19.078 20.88-32.056 41.08-32.082 49.666-.063 99.33-.032 148.995.01 2.646.003 5.331.245 7.93.735 22.92 4.318 37.854 26.107 33.202 48.95-7.9 38.79-16.08 77.524-24.135 116.283-.166.8-.244 1.62-.42 2.823 10.13 3.77 20.258 7.364 30.257 11.289 65.194 25.591 124.199 61.443 177.38 106.986 19.54 16.734 20.317 46.772 3.48 63.437-26.508 26.235-51.753 53.742-77.726 80.522-15.025 15.493-38.331 15.39-55.533.98-13.257-11.106-26.687-22.163-40.994-31.83-51.48-34.783-108.177-56.658-169.536-66.397-37.413-5.939-74.896-7.077-112.377-.785-26.82 4.503-52.29 12.668-74.96 28.36-48.909 33.852-50.971 102.467-7.565 139.726 16.479 14.145 34.661 25.61 54.6 33.628 41.456 16.67 83.204 32.648 125.133 48.095 52.01 19.162 103.474 39.437 151.506 67.45 34.137 19.908 65.586 43.246 91.74 73.181 31.837 36.442 51.717 78.515 57.768 126.568 9.794 77.767-3.844 150.883-46.229 217.553-31.126 48.96-74.12 85.112-124.973 112.21-47.428 25.275-98.159 40.768-151.073 49.127-20.035 3.165-40.294 4.938-60.474 7.13-2.97.323-3.82 1.474-4.372 4.175-6.86 33.569-13.809 67.12-20.816 100.658-4.566 21.855-20.544 34.726-43.025 34.602-22.322-.124-44.642-.442-66.963-.646-26.318-.24-52.658-1.223-78.947-.464-28.664.827-49.481-24.476-42.892-53.528 8.127-35.834 15.099-71.93 22.636-108.235-8.956-2.775-17.819-5.424-26.62-8.263-81.27-26.212-153.294-68.016-214.836-127.484-18.9-18.264-19.13-44.77-.454-63.471 26.968-27.006 53.967-53.981 80.956-80.966 18.745-18.74 43.045-18.76 61.889.048 22.397 22.352 47.275 41.488 74.525 57.526 46.193 27.185 96.003 43.89 149.044 51.164 36.481 5.003 73.022 5.998 109.536.756 34.866-5.006 67.8-15.246 95.803-37.792 37.486-30.18 45.863-76.847 34.332-111.29-6.657-19.883-20.71-33.8-37.509-45.335-21.257-14.597-44.644-25.1-68.522-34.38-48.943-19.023-98.238-37.144-147.126-56.303-46.583-18.255-91.272-40.301-131.67-70.234-41.41-30.685-74.711-68.055-94.93-116.085-12.6-29.933-19.001-61.237-20.438-93.607-2-45.064 3.425-89.045 19.728-131.342 24.945-64.718 69.645-112.17 128.978-146.632 42.864-24.897 89.202-40.354 137.656-49.903 1.473-.29 2.94-.613 4.834-.972z"
        opacity="1"
    ></path>
</svg>