<svg version="1.1" id="Layer_1" xmlns="http://www.w3.org/2000/svg" xmlns:xlink="http://www.w3.org/1999/xlink" x="0px" y="0px"
	 width="100%" viewBox="0 0 512 512" enable-background="new 0 0 154 154" xml:space="preserve">
    <path
        fill="#A3B2FB"
        d="M356.845 196.087c4.74 10.763 9.957 21.345 14.103 32.332 5.952 15.77 8.438 32.214 9.254 49.143 1.125 23.31-2.527 45.63-10.16 67.498-6.255 17.923-15.61 34.126-27.493 48.821-20.739 25.646-46.42 44.37-77.77 55.257-12.621 4.384-25.34 8.027-38.687 8.799-11.4.66-22.92 1.763-34.236.831-18.908-1.556-37.274-5.964-54.843-13.666-21.671-9.5-40.794-22.546-56.974-39.683-19.581-20.74-33.333-44.82-41.239-72.43-5.495-19.192-7.798-38.634-6.634-58.337 1.488-25.181 8.14-49.143 20.18-71.493 6.445-11.962 14.258-22.854 23.048-33.246 14.94-17.663 33.185-30.938 53.563-41.198 16.052-8.082 33.08-14.053 51.182-15.63 12.968-1.13 26.069-2.519 39.004-1.823 18.491.996 36.438 5.42 53.694 12.617 14.925 6.225 28.522 14.536 41.8 24.48-.638 1.624-1.463 2.873-2.505 3.904-35.946 35.56-69.284 73.426-100.338 113.316-1.295 1.664-2.666 3.27-4.087 5.007-1.843-1.21-3.25-2.085-4.606-3.032a224404.68 224404.68 0 01-81.131-56.649c-10.77-7.523-10.806-7.575-19.955 1.62-7.006 7.041-13.887 14.207-20.89 21.387 43.753 60.7 87.837 121.054 127.255 185.137 1.394-2.351 2.5-4.202 3.591-6.061 43.045-73.33 89.52-144.394 140.384-212.558 1.229-1.647 2.981-2.904 4.49-4.343z"
        opacity="1"
    ></path>
    <path
        fill="#1537DD"
        d="M356.989 195.761c-1.653 1.765-3.405 3.022-4.634 4.669-50.863 68.164-97.34 139.229-140.384 212.558-1.091 1.86-2.197 3.71-3.59 6.06-39.42-64.082-83.503-124.435-127.257-185.136 7.004-7.18 13.885-14.346 20.891-21.387 9.149-9.195 9.185-9.143 19.955-1.62 27.039 18.89 54.083 37.772 81.13 56.65 1.357.946 2.764 1.82 4.607 3.031 1.421-1.737 2.792-3.343 4.087-5.007 31.054-39.89 64.392-77.757 100.338-113.316 1.042-1.03 1.867-2.28 2.828-3.763 5.982-5.837 11.795-11.492 17.903-16.808 16.622-14.463 33.057-29.168 50.164-43.038 13.718-11.123 28.296-21.187 42.545-31.65 1.267-.93 2.911-1.895 4.388-1.907 17.09-.132 34.18-.084 52.155-.084-6.546 6.308-12.423 11.989-18.32 17.651-7.412 7.12-15.01 14.057-22.207 21.39-5.53 5.635-10.664 11.674-15.8 17.683-13.13 15.362-26.294 30.698-39.187 46.259-9.2 11.102-17.985 22.546-26.938 33.852-.907 1.145-1.69 2.389-2.674 3.913z"
        opacity="1"
    ></path>
</svg>