<svg version="1.1" id="Layer_1" xmlns="http://www.w3.org/2000/svg" xmlns:xlink="http://www.w3.org/1999/xlink" x="0px" y="0px"
	 width="100%" viewBox="0 0 256 256" enable-background="new 0 0 154 154" xml:space="preserve">
    <path
        fill="#666467"
        d="M104.75 132.25c22.513 22.515 44.808 44.746 66.982 67.096 2.132 2.15 4.22 4.83 5.068 7.643 1.083 3.59.228 7.57-3.714 9.276-3.828 1.657-7.855 1.36-11.068-1.775-4.768-4.651-9.408-9.433-14.118-14.145-20.846-20.852-41.538-41.862-62.658-62.433-5.327-5.19-5.189-12.723-.086-17.733 25.555-25.09 50.731-50.564 76.056-75.888 4.373-4.373 9.805-4.655 13.61-1.004 3.183 3.056 2.913 6.564 1.236 9.96-1.067 2.16-2.885 4.025-4.621 5.767-21.99 22.064-44.029 44.08-66.048 66.115-1.158 1.159-2.253 2.38-3.585 3.793.996 1.138 1.846 2.108 2.947 3.328z"
        opacity="1"
    ></path>
</svg>