<svg version="1.1" id="Layer_1" xmlns="http://www.w3.org/2000/svg" xmlns:xlink="http://www.w3.org/1999/xlink" x="0px" y="0px"
	 width="100%" viewBox="0 0 1755 538" enable-background="new 0 0 154 154" xml:space="preserve">
    
    <path
        fill="#1EC677"
        d="M684.372 199.563c12.617 19.35 19.788 40.65 23.236 63.177 1.778 11.613 3.201 23.414 3.245 35.136.285 76.145.148 152.292.143 228.438 0 7.663-.019 7.68-7.656 7.682-25.826.008-51.653.011-77.48-.004-6.819-.004-6.852-.037-6.853-6.977-.009-73.98.03-147.96-.036-221.941-.015-16.695-5.224-31.827-16.116-44.443-8.69-10.066-20.483-14.981-33.617-16.624-25.502-3.19-48.799 5.108-71.968 13.934-5.268 2.007-10.275 4.712-15.568 6.638-4.723 1.718-5.833 4.735-5.805 9.52.195 33.99.103 67.982.103 101.973 0 50.153.002 100.307-.005 150.46 0 7.438-.023 7.46-7.373 7.463-25.326.01-50.653.01-75.98 0-7.62-.002-7.638-.019-7.638-7.698C385 369.505 385 212.714 385 55.922V1.47C415.02 1 445.042 1 475.531 1 476 62.681 476 124.363 476 186.937c7.997-3.442 14.911-6.5 21.888-9.407 23.392-9.751 47.674-16.378 72.823-19.317 22.26-2.601 44.385-1.826 65.836 5.79 15.294 5.43 28.527 14.017 40.215 26.154a411.72 411.72 0 014.188 4.931s.018-.056.143.242c1.272 1.52 2.42 2.742 3.567 3.965 0 0-.264.124-.288.268zM1590.469 539c-8.43-1.307-16.403-2.543-24.349-3.934-30.7-5.377-58.904-16.715-84.049-35.326-.39-.289-.88-.445-1.661-.743-.338-.078-.371-.036-.52-.326-1.716-1.455-3.283-2.621-4.85-3.788-5.56-5.673-11.205-11.265-16.664-17.034-17.35-18.338-28.82-40.086-36.161-64.028-5.072-16.54-7.443-33.532-8.42-50.888-2.2-39.08 5.014-76.071 23.708-110.394 6.288-11.545 14.39-22.36 23.039-32.315 30.17-34.723 69.248-53.107 114.126-60.402 37.57-6.106 74.237-2.767 109.471 11.52 26.574 10.775 48.338 27.738 61.14 54.33 5.441 11.303 8.583 23.316 10.454 36.034.267 8.648.267 17.002 0 26.11-7.374 41.642-31.702 68.045-69.56 83.013-23.046 9.112-47.334 11.6-71.744 11.944-15.872.224-31.79-1.538-47.661-2.748-19.908-1.52-39.393-5.406-58.462-11.352-1.166-.363-2.44-.378-4.225-.635.003 10.937 1.47 21.05 4.91 30.767 9.206 26.004 28.798 41.138 53.786 50.208 26.706 9.694 54.31 11.625 82.448 9.12 24.145-2.15 47.118-8.458 68.236-20.147 13.143-7.275 25.196-16.513 37.817-24.747 1.293-.843 3.135-.846 4.722-1.239 0 2.37 0 4.741-.269 7.878-.369 18.635-.477 36.504-.533 54.373-.002.582.523 1.166.802 1.749 0 7.354 0 14.708-.305 22.68-26.41 19.614-55.873 30.446-87.352 36.308-8.083 1.505-16.227 2.684-24.343 4.012h-53.531m36.023-233.97c5.918-1.57 12.104-2.498 17.706-4.83 18.979-7.897 25.298-24.85 18.465-43.36-4.168-11.29-13.39-17.954-24.5-21.884-17.71-6.263-35.88-6.373-54.048-2.85-35.573 6.9-59.068 27.705-70.413 62.222-1.122 3.412-.435 5.14 3.012 5.613 17.376 2.382 34.704 5.383 52.159 6.84 13.236 1.104 26.641.4 39.964.13 5.603-.113 11.188-1.178 17.655-1.88zM1 326.469c1.314-8.1 2.427-15.773 3.977-23.356 6.193-30.3 18.478-57.688 38.698-81.388 29.271-34.308 66.445-54.223 110.62-61.872 15.653-2.71 31.5-4.224 47.145-2.517 20.715 2.26 41.278 6.153 61.788 9.978 19.436 3.626 38.798 7.39 58.703 6.681.999-.035 2.006.018 2.996-.09 10.071-1.095 10.072-1.102 10.073 9.24 0 22.828.01 45.656-.01 68.484-.005 6.795-.484 6.633-6.92 7.465-29.034 3.752-56.3-4.274-83.582-12.141-19.115-5.512-38.446-9.631-58.42-7.836-21.106 1.898-40.328 8.9-56.71 22.946-20.601 17.662-31.143 40.345-34.448 66.869-3.541 28.422 1.57 55.17 17.328 79.083 16.549 25.115 40.564 39.753 70.116 44.958 36.625 6.452 70.853-1.938 103.802-17.56 15.51-7.353 30.186-16.07 43.734-26.65 1.144-.894 2.55-1.454 4.593-2.59.204 2.46.493 4.34.495 6.218.03 25.827-.049 51.655.092 77.481.021 3.908-1.273 6.204-4.516 8.522-28.362 20.27-59.895 32.646-94.126 38.46-4.243.72-8.547 1.083-13.125 1.879-16.657.267-33.011.267-50.137 0-9.421-1.724-18.145-2.839-26.708-4.693-41.912-9.074-77.215-29.284-104.626-62.646-18.943-23.055-30.8-49.437-36.852-78.516C3.404 385.304 2.314 377.628 1 370v-43.531z"
        opacity="1"
    ></path>
    <path
        fill="#1EC677"
        d="M1352.945 201.06c11.419 16.666 19.244 34.86 22.415 54.825 1.712 10.775 3.442 21.7 3.483 32.563.293 78.756.157 157.514.157 236.272 0 .999-.111 2.012.014 2.995.595 4.655-1.125 6.807-6.076 6.343-3.465-.325-6.987-.057-10.484-.058-24.809-.008-49.618-.016-74.918-.503-.506-73.997-.519-147.514-.543-221.032 0-2.826-.104-5.651-.13-8.804-.236-1.125-.502-1.923-.794-3.155-.096-2.462-.166-4.49-.206-6.845-.236-1.125-.502-1.923-.808-3.047-.1-.76-.161-1.193-.196-2.023-.6-3.103-1.12-5.84-1.87-8.513-2.328-8.279-5.55-16.097-12.123-22.475-18.504-19.887-44.42-17.579-62.515-1.518-2.416 2.145-2.689 3.89-.992 6.724 4.6 7.684 9.367 15.336 13.15 23.429 11.422 24.431 17.432 49.814 14.774 77.203-1.88 19.375-5.558 38.107-13.586 55.769-7.057 15.524-17.396 28.525-32.206 37.626-11.146 6.85-23.31 9.975-36.197 11.415-17.6 1.968-34.28-.6-50.482-7.752-10.67-4.709-18.484-12.808-26.854-20.83a91.365 91.365 0 00-3.676-3.97c-.045-.01.032.036-.024-.317-8.34-13.415-13.602-27.778-18.203-42.768-.1-.76-.161-1.193-.192-1.953-.236-1.125-.502-1.923-.808-3.047-.1-.76-.161-1.193-.192-1.953-.236-1.125-.502-1.923-.8-3.09-.098-1.107-.164-1.845-.2-2.91-.236-1.125-.502-1.923-.795-3.133a148.185 148.185 0 01-.205-4.867c-.236-1.125-.502-1.923-.794-3.18-.096-4.47-.166-8.482-.206-12.82-.236-1.125-.502-1.923-.794-3.15-.007-2.439.012-4.447.255-6.693.32-1.093.415-1.948.555-3.25.104-3.135.163-5.824.445-8.75.32-1.093.415-1.948.557-3.197.105-1.451.162-2.508.443-3.803.32-1.093.415-1.948.565-3.128.107-.761.159-1.198.455-1.92 5.013-21.338 13.637-40.752 25.357-58.808 2.09-3.221 3.043-5.66-1.656-7.031-.012.024.038-.002.038-.002-6.285-7.052-14.543-10.367-23.542-11.848-25.297-4.163-44.864 13.58-50.318 36.478-1.942 8.156-3.061 16.712-3.088 25.09-.234 73.492-.134 146.985-.138 220.477 0 7.856-.016 7.87-7.97 7.87-27.998.001-55.995-.01-84.452-.027-.5-33.175-.563-66.337-.569-99.5-.009-48.162.024-96.324.292-145.189.347-1.558.441-2.413.535-3.268.071-4.346.142-8.691.465-13.736a26.1 26.1 0 00.535-3.264c.07-1.377.14-2.755.464-4.783.348-1.507.442-2.362.536-3.217.07-1.056.138-2.111.462-3.8.35-1.49.444-2.345.538-3.2.062-.435.123-.87.47-1.916.799-2.703 1.267-4.806 1.828-6.883 7.896-29.206 22.597-53.65 48.973-69.913 17.582-10.841 36.885-16.642 57.301-18.114 26.084-1.88 51.43 1.883 74.86 14.083 9.956 5.184 19.146 11.836 28.684 17.82 0 0 .02-.056.166.238 2.045 1.792 3.945 3.29 5.844 4.789l15.124 14.381c27.21-29.251 59.924-48.684 100.626-51.304 40.304-2.594 76.372 7.666 105.053 38.964a410.328 410.328 0 014.189 4.932s.015-.046-.006-.029M1168 355.457c.781-26.914-9.087-49.97-25.055-71.219-1.148.872-1.785 1.174-2.167 1.673-17.564 22.916-26.133 48.672-23.604 77.604.91 10.403 3.332 20.554 9.72 29.376 7.38 10.191 22.572 10.597 30.391.595 8.542-10.927 10.283-23.795 10.715-38.029zM764.082 163.508c28.68-.477 57.33-.412 85.977-.583 4.533-.027 6.018 1.39 6.014 5.977-.1 119.758-.102 239.516.005 359.273.004 4.7-1.673 5.918-6.097 5.894-28.314-.15-56.63-.084-85.406-.1-.492-.678-.55-1.344-.55-2.01.006-122.662.016-245.324.057-368.451zM760.294 32.396c12.493-21 30.872-30.883 54.682-29.222 27.106 1.892 49.642 26.013 50.152 52.99.289 15.258-4.069 28.64-13.985 39.878-8.947 10.14-20.526 16.519-34.13 17.77-20.946 1.925-38.821-4.515-51.613-21.877-13.665-18.548-14.86-38.462-5.106-59.539z"
        opacity="1"
    ></path>
</svg>