<svg version="1.1" id="Layer_1" xmlns="http://www.w3.org/2000/svg" xmlns:xlink="http://www.w3.org/1999/xlink" x="0px" y="0px"
	 width="100%" viewBox="0 0 794 512" enable-background="new 0 0 154 154" xml:space="preserve">
    <path
        fill="#003B70"
        d="M1 330.469c1.95-10.184 3.444-20.019 5.932-29.594 10.46-40.258 33.838-70.957 69.622-92.052 21.348-12.585 44.57-19.577 69.238-21.93 23.905-2.28 47.48-1.44 70.278 7.021 24.727 9.178 45.218 24.282 62.007 44.554 1.604 1.937 1.532 3.176-.064 5.091-10.835 12.998-21.532 26.11-32.313 39.15-.824.997-1.958 1.735-2.974 2.616-6.364-5.377-12.344-10.87-18.772-15.778-17.517-13.371-37.297-21.486-59.421-21.363-28.3.157-53.073 9.958-72.38 31.282-13.763 15.202-21.513 33.35-24.172 53.653-2.751 21.006-.77 41.413 7.904 60.958 10.56 23.794 27.876 40.532 52.126 50.038 11.89 4.66 24.32 6.94 37.011 6.792 23.119-.272 43.388-8.754 61.408-22.896 4.825-3.787 9.44-7.856 13.982-11.984 2.134-1.94 3.495-1.757 5.273.416a5539.13 5539.13 0 0032.009 38.756c2.158 2.59 1.738 4.624-.36 6.982-24.37 27.378-53.65 45.863-91.03 50.565-13.658.254-27.012.254-41.147 0-10.378-2.106-20.156-3.313-29.54-5.93-30.107-8.4-56.163-23.496-76.872-47.409-16.58-19.144-27.365-41.098-33.198-65.56C3.597 385.668 2.492 377.288 1 369v-38.531z"
        opacity="1"
    ></path>
    <path
        fill="#D9261C"
        d="M795 139.667c-22.992.339-45.985.283-68.977.41-3.94.021-6.639-.795-9.7-3.945-13.22-13.606-27.997-25.431-43.853-35.91-28.97-19.143-60.564-31.82-94.667-37.981-10.508-1.899-21.282-2.625-31.97-3.126-11.032-.517-22.226-1.125-33.134.145-15.152 1.764-30.342 4.331-45.09 8.183-26.157 6.832-50.613 18.054-72.904 33.396-11.35 7.811-21.85 16.878-32.57 25.578-4.482 3.637-8.473 7.873-12.84 11.66-1.136.986-2.844 1.847-4.293 1.854-23.324.101-46.65.057-69.975.03-.477 0-.953-.186-2.383-.484 3.77-5.348 6.993-10.606 10.889-15.308 8.634-10.421 16.807-21.417 26.635-30.611 13.448-12.58 27.633-24.59 42.666-35.195 14.18-10.002 29.457-18.682 44.983-26.488 24.766-12.452 51.036-21.024 78.394-25.834 10.689-1.88 21.524-2.929 32.54-4.698C525.354 1 541.708 1 558.778 1.342c13.074 2.098 25.54 3.316 37.774 5.71 41.716 8.164 80.092 24.796 115.197 48.459 19.48 13.13 37.96 27.85 53.236 46.016C775.118 113.577 785.004 125.835 795 138v1.667z"
        opacity="1"
    ></path>
    <path
        fill="#003B70"
        d="M623 228c-.002 6-.221 11.51.06 16.994.232 4.535-1.416 6.13-6.01 6.08-17.663-.196-35.329-.087-52.993-.064-6.995.009-7.046.047-7.047 6.887-.012 54.493-.152 108.987.189 163.478.04 6.432 1.628 13.392 4.448 19.154 5.348 10.927 15.748 13.133 27.046 12.768 16.502-.533 30.919-7.04 44.854-15.1 1.354-.783 2.85-1.32 5.522-2.536-1.24 5.456-2.122 9.742-3.194 13.981-3.622 14.33-7.185 28.676-11.095 42.927-.677 2.466-2.423 5.438-4.538 6.586-23.26 12.623-48.11 16.659-73.783 10.304-27.275-6.75-43.102-25.833-50.235-52.247-2.18-8.068-3.051-16.713-3.089-25.1-.257-57.658-.132-115.318-.137-172.977 0-8.117-.017-8.125-8.316-8.131-13.665-.011-27.332-.14-40.994.063-4.394.065-5.8-1.521-5.753-5.828.18-16.163.18-32.33 0-48.492-.048-4.327 1.398-5.872 5.772-5.812 14.162.196 28.329.084 42.493.055 6.684-.014 6.778-.098 6.79-6.643.028-17.498.136-34.997-.074-52.492-.05-4.088 1.451-6.45 4.904-8.281 18.358-9.735 36.654-19.585 54.99-29.363.835-.446 1.838-.576 3.548-1.088.236 2.583.61 4.787.614 6.992.04 27.996.019 55.993.038 83.99.004 6.839.053 6.877 7.047 6.886 17.664.023 35.33.132 52.992-.064 4.597-.05 6.127 1.553 6.02 6.08-.241 10.159-.072 20.328-.069 30.993zM317.093 507.838c-.363-1.907-1.042-3.814-1.043-5.72-.052-101.441-.05-202.882-.039-304.322.001-6.678.098-6.773 6.645-6.782 17.656-.026 35.314.109 52.968-.087 4.606-.051 6.461 1.19 6.455 6.146-.113 101.607-.083 203.214-.103 304.821 0 1.485-.27 2.97-1.121 4.796-19.268.333-37.829.292-56.389.35-2.458.009-4.915.52-7.373.798zM689.128 507.822c-.375-1.904-1.076-3.808-1.077-5.712-.052-101.604-.021-203.209-.122-304.813-.005-4.695 1.357-6.44 6.226-6.38 17.986.227 35.979.217 53.965.007 4.691-.054 5.942 1.728 5.938 6.15-.086 101.604-.064 203.209-.084 304.813 0 1.485-.268 2.97-1.117 4.798-19.257.335-37.808.297-56.358.355-2.458.008-4.914.51-7.371.782z"
        opacity="1"
    ></path>
    <path
        fill="#003F7F"
        d="M317.553 507.882c1.998-.322 4.455-.833 6.913-.841 18.56-.059 37.12-.018 56.156-.002-1.116.322-2.707.907-4.3.91-19.436.042-38.872-.002-58.769-.067zM689.584 507.87c2-.32 4.457-.822 6.915-.83 18.55-.058 37.1-.02 56.127-.005-1.115.323-2.704.91-4.295.914-19.43.04-38.86-.007-58.747-.079z"
        opacity="1"
    ></path>
</svg>