<svg version="1.1" id="Layer_1" xmlns="http://www.w3.org/2000/svg" xmlns:xlink="http://www.w3.org/1999/xlink" x="0px" y="0px"
	 width="100%" viewBox="0 0 512 512" enable-background="new 0 0 154 154" xml:space="preserve">
    <path
        fill="#FFE77B"
        d="M265 513c-5.355 0-10.71 0-16.215-.264-.559-.786-.864-1.472-1.391-1.806-6.251-3.964-8.498-9.803-8.427-16.97.12-12.33.033-24.66.033-36.99v-20.564c-12.074 6.888-23.25 13.61-34.757 19.705-7.33 3.882-14.018 10.268-23.732 6.993-5.181-1.747-12.012-7.551-12.405-12.582-.551-7.055-.762-14.341 6.507-18.694 8.448-5.06 17-9.949 25.55-14.838 12.332-7.051 24.729-13.992 37.006-21.136.973-.566 1.741-2.346 1.753-3.57.125-12.985.077-25.973.077-38.703l-56.465-32.592c-8.623 4.867-16.732 9.528-24.923 14.041-7.164 3.947-15.068 7.345-10.625 18.072.06.143.012.33.012.497 0 20.327.618 40.68-.204 60.974-.597 14.727-12.905 19.286-24.797 15.314-7.817-2.61-10.936-9.156-10.973-17.11-.079-16.743-.024-33.486-.024-51.114-1.107 1.007-1.492 1.504-1.997 1.795-15.39 8.865-30.854 17.604-46.158 26.614-5.6 3.296-11.434 5.418-17.678 3.447-6.282-1.984-11.158-6.189-12.088-13.199-1.056-7.96.516-14.922 8.303-19.415 16.834-9.714 33.528-19.67 50.485-29.65-.795-.712-1.447-1.522-2.285-2.015a17202.23 17202.23 0 00-41.345-24.21c-6.974-4.073-8.831-10.322-8.327-18.007.412-6.28 3.568-10.517 8.784-13.105 7.281-3.612 14.062-2.477 21.152 1.916 18.255 11.31 36.879 22.03 55.502 32.728 1.655.95 4.757.76 6.546-.154 5.884-3.008 11.504-6.54 17.165-9.972 5.072-3.074 10.065-6.281 15.329-9.77.347-.82.556-1.3.556-1.782.03-19.537.054-39.073.017-58.61-.002-1.094-.528-2.187-.96-3.606-11.144-6.777-22.097-13.296-33.18-19.585-1.23-.698-3.565-.697-4.78.015-16.992 9.949-33.779 20.253-50.848 30.065-5.617 3.23-10.811 7.129-18.268 7.138-8.4.01-14.961-6.423-16.747-12.016-2.447-7.666.928-17.17 7.28-21.049 7.841-4.79 15.861-9.288 23.794-13.93 6.945-4.063 13.876-8.15 21.18-12.442-3.283-1.88-5.912-3.356-8.515-4.878-14.071-8.228-28.17-16.41-42.188-24.726-7.271-4.313-10.108-10.562-8.836-19.172 1.708-11.565 14.82-17.438 24.719-12.726 7.269 3.46 14.096 7.85 21.102 11.858 10.68 6.11 21.343 12.249 32.286 18.532 0-17.184-.14-33.845.114-50.5.053-3.432.885-7.227 2.548-10.185 3.99-7.098 13.222-10.062 21.336-7.575 7.503 2.3 11.997 8.805 12 17.405.006 19.326.019 38.651-.024 57.976a24.79 24.79 0 01-.622 5.346c-1.064 4.726-.439 8.284 4.505 10.866a445.806 445.806 0 0128.179 16.066c2.556 1.582 4.002 1.498 6.371.123 17.827-10.353 35.736-20.565 53.593-30.805 0-11.079-.609-21.95.214-32.713.547-7.158-2.583-10.335-8.214-13.396-18.29-9.943-36.391-20.236-54.48-30.543-9.275-5.285-11.432-15.846-7.004-24.732 4.112-8.253 15.14-11.71 23.588-7.378 8.612 4.416 16.896 9.47 25.334 14.227C225.116 69.7 231.81 73.436 239 77.468c0-20.126-.16-39.443.146-58.752.056-3.504 1.629-7.17 3.22-10.406C243.699 5.604 246.083 3.417 248 1c5.355 0 10.71 0 16.214.277 9.267 5.195 11.173 13.236 10.907 22.896-.444 16.147-.126 32.315-.113 48.474.001 1.402.117 2.805.209 4.857 14.316-8.212 28.04-16.006 41.686-23.936 10.837-6.298 20.95-3.899 26.918 5.19 4.68 7.128 3.067 19.424-5.99 24.844-4.568 2.734-9.232 5.306-13.867 7.927-15.602 8.824-31.227 17.606-46.775 26.523-1.021.586-2.082 2.16-2.095 3.287-.145 13.126-.093 26.254-.093 39.008 4.172 2.443 7.923 4.667 11.7 6.847 14.266 8.238 28.524 16.492 42.85 24.625 1.009.572 2.831.735 3.792.208 7.774-4.265 15.396-8.806 23.137-13.135 6.92-3.87 12.082-6.93 11.065-17.632-1.898-19.978-.52-40.264-.558-60.42-.014-7.299 2.782-13.54 9.344-16.372 6.338-2.733 13.305-2.93 19.522 1.807 5.057 3.852 7.127 8.922 7.137 15.032.028 16.722.01 33.444.01 51.014 1.144-1.027 1.54-1.53 2.056-1.826 15.382-8.851 30.84-17.572 46.134-26.574 5.605-3.299 11.4-5.368 17.678-3.412 6.362 1.982 11.084 6.288 12.049 13.233 1.108 7.975-.582 14.895-8.348 19.376-16.821 9.707-33.5 19.66-50.352 29.58.79.747 1.412 1.594 2.245 2.083 13.36 7.833 26.564 15.96 40.188 23.308 10.113 5.454 11.518 18.541 7.372 25.864-5.021 8.869-16.893 10.67-25.01 5.968-19.551-11.324-38.826-23.124-58.358-34.481-1.645-.957-4.757-.766-6.545.148-5.886 3.01-11.507 6.545-17.17 9.978-5.072 3.074-10.063 6.28-15.327 9.767-.347.821-.556 1.302-.556 1.783-.03 19.537-.054 39.073-.017 58.61.002 1.094.528 2.187.96 3.606 11.153 6.778 22.114 13.298 33.207 19.588 1.23.697 3.565.692 4.782-.021 16.995-9.957 33.785-20.267 50.857-30.087 5.618-3.231 10.81-7.133 18.284-7.12 8.26.014 14.953 6.436 16.705 12.075 2.309 7.435-1.277 17.416-7.373 21.05-10.12 6.034-20.388 11.82-30.557 17.772-4.716 2.76-9.347 5.666-14.178 8.604 7.516 4.36 14.505 8.403 21.482 12.466 9.905 5.769 19.8 11.554 29.7 17.33 12.938 7.548 10.022 26.826-1.683 31.538-8.078 3.253-14.582.781-21.205-3.05-15.595-9.02-31.15-18.11-46.847-27.244-.087.558-.133.716-.133.874-.016 16.498.088 32.999-.137 49.494-.046 3.305-.645 6.974-2.198 9.813-3.933 7.19-13.554 10.712-21.48 8.265-7.465-2.305-12.248-8.351-12.234-17.778.03-19.499-.02-38.998.05-58.497.008-2.08.674-4.151.885-6.242.356-3.516.286-6.499-3.71-8.605-9.276-4.889-18.519-9.944-27.244-15.732-4.77-3.163-8.1-1.599-12.035.711-16.56 9.72-33.159 19.374-49.937 29.165 0 12.669-.094 25.498.129 38.32.025 1.477 1.478 3.511 2.84 4.294 19.734 11.346 39.594 22.473 59.363 33.759 9.227 5.267 11.77 15.633 7.226 24.69-4.122 8.22-15.43 12.08-23.94 7.367a4947.076 4947.076 0 01-27.08-15.106c-5.993-3.368-11.946-6.808-18.538-10.57v5.711c0 17.666.047 35.332-.024 52.998-.027 6.945-2.45 12.644-9.082 15.93-.492.244-.605 1.253-.894 1.906m27.37-300.955c-7.687-4.411-15.624-8.446-22.993-13.337-7.726-5.128-14.995-8.556-22.955-.794-.556.543-1.367.824-2.06 1.225l-44.22 25.505v64.705c17.311 10.002 34.438 19.728 51.355 29.806 3.713 2.211 6.566 2.804 10.441.492 17.169-10.243 34.485-20.238 52.062-30.505 0-20.417.037-41.228-.093-62.037-.007-1.253-1.037-3-2.115-3.662-6.18-3.796-12.52-7.334-19.421-11.398z"
        opacity="1"
    ></path>
    <path
        fill="#FF5"
        d="M164.388 288.667c-.282-20.688-.328-41.715-.305-63.208.35.628.876 1.721.878 2.815.037 19.537.013 39.073-.017 58.61 0 .481-.209.962-.556 1.783zM349.612 225.333c.282 20.688.328 41.715.305 63.208-.35-.628-.876-1.72-.878-2.815-.037-19.537-.013-39.073.017-58.61 0-.481.209-.962.556-1.783z"
        opacity="1"
    ></path>
</svg>