<svg version="1.1" id="Layer_1" xmlns="http://www.w3.org/2000/svg" xmlns:xlink="http://www.w3.org/1999/xlink" x="0px" y="0px"
	 width="100%" viewBox="0 0 256 256" enable-background="new 0 0 154 154" xml:space="preserve">
    <style>
        .icon-mid-white-color-change{
            fill: #666467;
        }
        @media (prefers-color-scheme: dark) {
            .icon-mid-white-color-change{
                fill: #afafaf;
            }
        }
    </style>
    <path
        class="icon-mid-white-color-change"
        d="M144.91 139.022c3.249-1.982 6.133-3.859 9.507-6.054 10.322 6.23 19.883 13.8 23.883 25.981 4.535 13.814-5.727 27.033-20.257 27.047-18.475.018-36.952-.14-55.425.066-9.231.104-17.022-2.157-21.532-10.9-4.802-9.312-2.447-18.152 3.442-25.776 5.223-6.762 11.516-12.76 19.57-16.293 12.413 9.855 25.647 13.264 40.812 5.929z"
        opacity="1"
    ></path>
    <path
        class="icon-mid-white-color-change"
        d="M100.911 114.938c-3.62-16.063 1.499-30.08 17.903-36.23 12.398-4.647 28.939-.34 35.903 13.011 8.597 16.483 1.909 41.117-21.798 43.418-15.564 1.51-26.945-5.067-32.008-20.199zM225.18 122.652c4.252 4.575 8.597 8.615 12.192 13.238 7.28 9.364 5.427 28.013-13 29.82-12.498 1.227-25.213.235-37.837.235-1.386-16.177-11.246-26.386-23.132-35.643 1.025-1.087 2.101-2.282 3.234-3.422 6.518-6.556 6.523-6.551 13.966-1.772 11.852 7.61 27.515 6.519 38.31-2.29 1.277-1.041 3.979-.335 6.267-.166zM18.943 138.19c3.692-7.317 9.23-12.37 15.83-16.28.918-.543 3.014-.367 3.805.334 12.644 11.21 31.277 10.027 42.627.234.915-.79 3.447-.853 4.473-.15 3.065 2.094 5.754 4.739 9.001 7.52-3.375 2.99-6.36 5.31-8.961 8.002-6.817 7.048-13.007 14.47-13.936 24.91-.102 1.15-1.962 3.07-3.001 3.067-12.421-.041-24.88.139-37.25-.788-11.81-.885-18.367-13.201-12.588-26.85zM40.744 199.237c-3.302-4.95-6.232-9.729-9.446-14.309-2.002-2.852-2.064-5.51.811-7.277 2.83-1.739 4.988-.316 7.012 2.404 6.38 8.573 12.236 17.81 19.908 25.092 15.42 14.634 34.168 23.114 55.444 25.919 18.06 2.38 35.57.705 52.511-6.007 21.207-8.402 38.26-21.842 49.894-41.73.824-1.406 1.4-3.355 2.644-4.028 1.912-1.032 4.304-1.174 6.492-1.694.412 2.197 1.9 4.986 1.067 6.5-7.557 13.747-17.543 25.427-30.133 34.984-14.505 11.01-30.865 17.712-48.572 20.521-28.874 4.58-56.486-.155-81.082-16.242-9.786-6.4-17.591-15.829-26.55-24.133z"
        opacity="1"
    ></path>
    <path
        class="icon-mid-white-color-change"
        d="M204.126 122.419c-16.403 2.002-26.96-3.83-30.421-17.343-3.909-15.254 4.559-30.32 20.354-32.229 17.124-2.07 28.895 8.408 29.705 24.324.547 10.742-5.221 22.367-19.638 25.248zM51.833 73.613c17.21-5.266 29.662 6.123 32.587 17.202 4.556 17.253-8.715 32.521-23.737 32.379-16.638-.158-25.002-10.742-26.549-25.33-1.001-9.447 7.655-20.944 17.7-24.25zM182.972 29.97c11.397 7.064 22.605 13.906 30.174 24.924 1.268 1.846 1.767 6.252.629 7.29-2.293 2.092-5.57 1.066-7.747-1.63C190.79 41.682 170.38 31.26 147.109 27.38c-28.975-4.831-56.235.63-79.916 19.1-5.393 4.206-10.208 9.184-15.074 14.023-2.427 2.415-5.4 3.859-7.749 1.58-1.155-1.121-.781-5.553.522-7.21 15.456-19.642 36.336-30.72 60.337-35.644 26.86-5.51 52.853-2.094 77.743 10.742zM179.209 202.257c-18.366 12.192-38.488 16.778-59.737 14.544-23.65-2.486-43.964-12.346-58.667-31.748-1.31-1.727-1.737-6.251-.604-7.255 2.295-2.035 5.614-1.123 7.744 1.652 12.736 16.598 30.095 25.8 50.309 28.193 21.952 2.6 42.834-1.678 60.236-16.724 4.08-3.527 7.826-7.472 11.466-11.462 2.372-2.6 5.48-3.648 7.798-1.701 1.137.954.823 5.725-.537 7.197-5.555 6.017-11.767 11.427-18.008 17.304z"
        opacity="1"
    ></path>
    <path
        class="icon-mid-white-color-change"
        d="M175.962 53.998c1.585.93 2.878 1.678 4.038 2.595 2.523 1.998 4.372 4.424 2.152 7.603-2.254 3.226-4.811 1.4-7.391.077-6.85-3.515-13.517-7.62-20.728-10.148-24.906-8.732-48.29-4.448-70.212 9.6-.556.356-1.085 1.15-1.59 1.12-2.197-.131-4.38-.493-6.57-.77.464-2.204.18-5.512 1.522-6.42 5.816-3.938 11.859-7.74 18.275-10.55 13.604-5.963 28.17-7.255 42.755-5.946 13.35 1.197 26.1 5.06 37.749 12.84z"
        opacity="1"
    ></path>
</svg>