<svg version="1.1" id="Layer_1" xmlns="http://www.w3.org/2000/svg" xmlns:xlink="http://www.w3.org/1999/xlink" x="0px" y="0px"
	 width="100%" viewBox="0 0 256 256" enable-background="new 0 0 154 154" xml:space="preserve">
    <style>
        .icon-mid-white-color-change{
            fill: #666467;
        }
        @media (prefers-color-scheme: dark) {
            .icon-mid-white-color-change{
                fill: #afafaf;
            }
        }
    </style>
    <path
        fill="#FCD436"
        d="M84.283 204c-4.42-.84-8.48-1.348-12.304-2.582-12.975-4.187-17.228-14.83-17.803-26.87-.729-15.29-.955-30.693.023-45.956 1.196-18.67 9.396-28.523 29.864-29.455 15.294-.696 30.661-.561 45.967-.008 13.186.476 23.226 6.068 27.398 19.902.976 3.234 1.469 6.73 1.504 10.113.157 15.158.526 30.339-.166 45.466-.262 5.73-2.545 11.634-5.036 16.928-3.476 7.392-10.657 10.853-18.252 11.274-16.879.936-33.814.855-51.195 1.188z"
        opacity="1"
    ></path>
    <path
        fill="#888F9A"
        d="M99.507 89.536c-1.111-8.219.396-15.774 4.211-22.614 5.296-9.495 14.798-12.323 24.607-12.75 14.966-.653 30.01-.744 44.968-.009 14.61.718 24.614 5.444 29.045 20.68 1.035 3.561 1.54 7.39 1.59 11.104.183 13.659.297 27.326.02 40.982-.446 22.079-12.078 33.033-35.948 31.707 0-7.388.522-14.873-.143-22.251-.7-7.762-1.624-15.725-4.069-23.06-4.69-14.068-16.645-20.865-31.669-22.213-10.708-.96-21.51-.875-32.612-1.576z"
        opacity="1"
    ></path>
    <path
        class="icon-mid-white-color-change"
        d="M158.04 243.493c-5.367-1.985-6.608-6.798-3.988-12.265 2.899-6.048 6.485-11.794 10.088-17.47 3.195-5.034 9.123-6.697 13.026-4.1 3.936 2.618 4.54 7.76 1.563 13.176-.209.381-.317.818-.647 1.693 8.81-2.087 16.245-5.977 23.08-11.18 14.63-11.135 22.407-26.262 25.577-44.02.69-3.873.452-7.938 1.375-11.736.931-3.826 5.568-5.816 10.261-4.443 3.23.944 5.585 3.078 5.666 7.102.806 40.102-27.737 74.667-67.386 82.548-5.919 1.176-12.173.666-18.615.695zM29.762 47.81C42.829 30.793 59.387 19.798 80.14 15.579c5.137-1.045 10.472-1.392 15.729-1.504 7.973-.17 11.688 5.842 7.995 13.067-3.049 5.965-6.544 11.724-10.163 17.369-3.03 4.725-8.775 6.02-12.892 3.37-3.84-2.473-4.454-7.447-1.575-12.664.214-.388.35-.82.702-1.658-8.685 1.826-15.958 5.74-22.667 10.722-15.116 11.226-22.943 26.783-26.138 44.95-.595 3.384-.239 6.962-1.04 10.276-1.114 4.602-4.67 6.505-10.044 5.391-3.866-.801-6.046-3.311-6.102-7.707-.234-18.123 5.37-34.33 15.817-49.38z"
        opacity="1"
    ></path>
</svg>