<svg version="1.1" id="Layer_1" xmlns="http://www.w3.org/2000/svg" xmlns:xlink="http://www.w3.org/1999/xlink" x="0px" y="0px"
	 width="100%" viewBox="0 0 256 256" enable-background="new 0 0 154 154" xml:space="preserve">
    <path
        fill="#FCD436"
        d="M1 69.469c.665-.915 1.71-1.218 1.938-1.827 6.038-16.105 20.908-26.845 39.36-26.707 31.145.235 62.294.154 93.441.035 23.31-.088 41.373 17.964 41.3 41.436-.137 44.805-.066 89.61-.026 134.416.016 17.897-11.023 32.53-26.793 38.225-.704.254-1.26.917-1.553 1.671-39.688.282-79.709.282-119.87.004-.751-.767-1.287-1.443-1.983-1.717-11.725-4.609-19.947-12.6-24.088-24.634-.099-.288-1.13-.255-1.726-.371V69.469M111.5 237c7.332 0 14.668.168 21.994-.036 14.399-.401 22.69-9.648 22.61-22.697-.271-44.155-.098-88.312-.108-132.469-.002-11.125-8.687-19.791-19.83-19.795-31.492-.01-62.985-.012-94.477.023-1.608.002-3.285.164-4.813.631-10.7 3.27-15.812 10.424-15.84 22.904-.094 42.657-.19 85.315.083 127.97.06 9.489 2.928 18.268 13.443 21.52 3.668 1.135 7.623 1.834 11.454 1.865 21.493.174 42.989.084 65.484.084z"
        opacity="1"
    ></path>
    <path
        fill="#FCD436"
        d="M188.531 1c.915.664 1.22 1.716 1.827 1.936 15.97 5.796 26.81 21.408 26.724 39.358-.239 49.463-.131 98.927-.034 148.39.016 8.236-5.167 12.02-11.374 11.419-5.842-.567-9.49-3.813-9.647-10.053-.13-5.16-.026-10.325-.026-15.488 0-43.967-.268-87.938.154-131.901.136-14.105-8.544-23.642-23.721-23.653-34.641-.025-69.283-.044-103.924.032-4.913.011-9.907.32-12.385-4.976C53.499 10.453 55.4 5.622 59.33 1.26c42.69-.26 85.71-.26 129.2-.26z"
        opacity="1"
    ></path>
</svg>