<svg version="1.1" id="Layer_1" xmlns="http://www.w3.org/2000/svg" xmlns:xlink="http://www.w3.org/1999/xlink" x="0px" y="0px"
	 width="100%" viewBox="0 0 256 256" enable-background="new 0 0 154 154" xml:space="preserve">
    <style>
        .icon-mid-white-color-change{
            fill: #666467;
        }
        @media (prefers-color-scheme: dark) {
            .icon-mid-white-color-change{
                fill: #afafaf;
            }
        }
    </style>
    <path
        class="icon-mid-white-color-change"
        d="M257 62c0 44.354 0 88.708-.346 133.385-1.1 1.369-1.983 2.346-2.59 3.471-5.637 10.442-14.625 15.976-26.219 16.039-45.925.25-91.854.175-137.78.028-7.169-.023-13.951-2.109-19.148-7.523-14.429-15.031-28.85-30.072-43.173-45.205-7.96-8.41-15.696-17.031-23.608-25.487-.772-.825-2.078-1.15-3.136-1.708 0-3.693 0-7.386.325-11.366 5.517-5.64 10.752-10.952 15.89-16.357 11.759-12.374 23.48-24.785 35.198-37.199 4.9-5.19 10.047-10.185 14.552-15.701 6.054-7.414 13.884-11.23 23.085-11.274 45.992-.22 91.986-.208 137.978-.006 8.798.039 16.57 3.388 22.227 10.624 2.191 2.804 4.493 5.522 6.745 8.279M146.495 165.005l20.203-21.41c2.34 2.579 4.345 4.8 6.362 7.01 6.813 7.465 13.524 15.029 20.489 22.35 3.998 4.202 10.296 4.303 14.288.694 4.114-3.719 4.615-9.113.574-13.654-8.148-9.157-16.613-18.032-24.95-27.021-1.205-1.3-2.424-2.587-3.709-3.956 8.21-8.645 16.108-16.9 23.924-25.233 2.143-2.285 4.275-4.646 6.004-7.243 3.983-5.984-.387-14.012-7.6-14.592-7.716-.622-10.775 5.49-14.97 9.944-6.86 7.284-13.61 14.67-20.968 22.618-1.428-1.78-2.403-3.146-3.527-4.374-7.61-8.317-15.19-16.664-22.909-24.879-3.847-4.094-9.951-4.603-13.937-1.483-4.355 3.41-5.503 9.359-1.662 13.954 6.354 7.601 13.384 14.635 20.06 21.97 2.751 3.02 5.324 6.203 8.18 9.55-4.809 5.121-9.367 9.924-13.866 14.78-4.842 5.228-9.87 10.31-14.366 15.823a10.043 10.043 0 001.78 14.48c4.4 3.245 11.441 1.817 14.936-2.878 1.563-2.1 3.433-3.972 5.664-6.45z"
        opacity="1"
    ></path>
</svg>