<svg version="1.1" id="Layer_1" xmlns="http://www.w3.org/2000/svg" xmlns:xlink="http://www.w3.org/1999/xlink" x="0px" y="0px"
	 width="100%" viewBox="0 0 512 512" enable-background="new 0 0 154 154" xml:space="preserve">
    <path
      fill="#EB2928"
      d="M209.469 513c-1.485-.842-2.37-2.024-3.537-2.47-9.264-3.548-16.903-9.035-21.631-18.282 2.723-.422 5.14-.26 7.557-.26 82.022.014 164.045.011 246.067.014 2.73 0 5.458.03 8.187.045-4.303 9.074-11.98 14.225-20.868 17.989-1.593.674-3.122 1.502-4.462 2.612-70.136.352-140.49.352-211.313.352z"
    />
    <path
      fill="#FFEEF0"
      d="M513 21.54c-1.431 2.073-2.862 3.686-4.72 5.052-2.233-.696-4.037-1.528-5.843-1.534-26.392-.084-52.784-.003-79.175-.15-2.44-.014-4.872-1.315-7.308-2.02 8.714-4.29 17.14-9.378 26.222-12.649 9.313-3.354 19.27-4.918 28.93-7.322.569-.142 1.01-.795 1.202-1.564C482.688 1 493.375 1 504.239 1.29c2.529 3.06 4.857 5.853 7.268 8.572.242.273.983.103 1.493.138v11.54z"
    />
    <path
      fill="#FEA58E"
      d="M229.87 35.962c11.57-11.464 23.14-22.928 34.42-34.677C268.69 1 273.38 1 278.534 1c.78.656.914 1.621 1.433 1.923 9.078 5.276 8.888 18.916 2.238 24.464-3.426 2.857-6.375 6.287-10.138 9.286-2.389-.338-4.178-.64-5.968-.648-12.076-.056-24.153-.05-36.23-.063z"
    />
    <path
      fill="#F46559"
      d="M1 265.458c.884-1.188 1.869-1.827 2.633-2.666 2.279-2.5 4.47-5.079 7.274-7.465 4.003-.001 7.432-.367 10.85-.288 10.457.242 20.91.655 31.364 1-8.832 8.943-17.468 18.091-26.565 26.756-6.26 5.963-18.122 3.662-22.57-3.82-.729-1.226-1.594-2.372-2.691-3.265C1 272.639 1 269.277 1 265.458z"
    />
    <path d="M513 9.509c-.51.456-1.251.626-1.493.353-2.41-2.719-4.74-5.511-6.799-8.572C507.588 1 510.178 1 513 1v8.509z" />
    <path
      fill="#F77466"
      d="M479.832 200.998c-.62 7.378-1.24 14.757-2.387 22.568-108.778.432-217.028.431-325.277.43-.716-7.369-1.431-14.738-1.616-22.552 110.114-.445 219.697-.446 329.28-.446z"
    />
    <path
      fill="#F66E61"
      d="M152.094 224.428c108.323-.43 216.573-.43 325.28-.43-.16 5.717-.778 11.436-1.926 17.578-20.69.423-40.853.332-61.013.52-3.164.028-6.316 1.322-9.876 1.95-4.781-.048-9.16-.014-13.798-.27-2.672-.785-5.083-1.692-7.5-1.709-17.766-.122-35.534-.16-53.299.044-2.418.028-4.82 1.544-7.624 2.277-5.022-.186-9.65-.277-14.635-.523-2.59-.724-4.82-1.77-7.056-1.787-18.128-.134-36.26-.185-54.386.056-2.428.033-4.833 1.834-7.614 2.697-4.964-.594-9.564-1.068-14.611-1.625-3.719-.457-6.986-1.116-10.261-1.154-11.45-.133-22.903-.176-34.351-.01-8.422.121-16.839.623-25.257.955-.716-6.045-1.43-12.091-2.073-18.569z"
    />
    <path
      fill="#F87A6B"
      d="M479.903 200.56c-109.654.438-219.237.439-329.278.438-1.364-6.603-.354-12.515 6.056-16.043 1.903-1.047 4.23-1.876 6.363-1.878 101.237-.09 202.474-.082 303.711-.073 8.395 0 13.298 6.394 13.148 17.557z"
    />
    <path
      fill="#ED3634"
      d="M176.167 461.998c-1.048-8.717-2.095-17.433-2.66-26.588 5.079-.763 9.679-1.407 14.27-1.351 15.37.184 30.737.62 46.147 1.384.334 8.69 3.803 14.144 10.26 16.493 7.85 2.855 14.04.02 20.145-8.98 12.496.034 24.509.045 36.681.373.96 1.74 1.603 3.283 2.585 4.567 6.558 8.576 21.918 6.043 26.009-4.888 12.484-.026 24.515-.05 36.796.165 1.656 2.397 2.617 5.133 4.543 6.615 7.597 5.845 16.15 3.923 23.587-4.783 20.744-.004 41.024-.005 61.303-.007-.62 5.386-1.24 10.77-2.387 16.579-92.778.422-185.029.421-277.28.42z"
    />
    <path
      fill="#ED3230"
      d="M176.097 462.438c92.32-.44 184.57-.44 277.279-.44-.153 5.062-.764 10.124-1.916 15.593-91.459.408-182.376.407-273.293.407-.713-5.04-1.426-10.08-2.07-15.56z"
    />
    <path
      fill="#EC2E2D"
      d="M178.1 478.389c90.984-.39 181.901-.39 273.275-.39-1.238 4.58-2.934 9.162-4.946 13.896-3.046.136-5.775.107-8.504.107-82.022-.003-164.045 0-246.067-.013-2.417 0-4.834-.163-7.61-.094-2.311-4.269-4.264-8.692-6.148-13.506z"
    />
    <path
      fill="#FC9883"
      d="M229.562 36.085a2706.4 2706.4 0 0 1 36.537-.06c1.79.008 3.58.31 5.659.785-14.17 14.883-28.63 29.457-43.692 43.857-2.566-.338-4.53-.644-6.496-.646-40.23-.04-80.46-.047-120.69-.06 7.337-8.467 15.309-16.23 26.197-19.874 12.13-4.059 23.997-2.093 35.754 2.228 8.769 3.224 17.82 5.679 26.565 8.961 2.967 1.114 4.526.38 6.434-1.547a3995.157 3995.157 0 0 1 33.732-33.644z"
    />
    <path
      fill="#FC9480"
      d="M100.572 80.086c40.537-.112 80.768-.106 120.998-.065 1.965.002 3.93.308 6.187.78a295.638 295.638 0 0 1-19.814 20.101c-12.82.11-24.86.148-36.9.048-1.697-.014-3.388-.695-4.954-1.373 2.228-2.109 1.934-2.854-.81-3.667-6.486-1.923-12.73-4.844-19.313-6.186-3.633-.74-8.476-.237-11.49 1.701-5.33 3.428-9.68 8.38-14.727 12.384-1.907-.477-3.526-.778-5.147-.787-8.91-.047-17.821.002-26.732-.037-2.852-.013-5.885.065-5.914-4.1 6.103-6.224 12.207-12.449 18.616-18.799z"
    />
    <path
      fill="#FFD4D5"
      d="M310.961 126.118c-5.105-4.706-10.98-8.935-11.209-16.838a17.618 17.618 0 0 1 1.202-6.959c2.528.212 4.316.647 6.105.65 34.903.04 69.806.05 104.708-.016 2.446-.004 4.891-.648 7.336-.994 2.502 10.104 1.168 16.89-12.02 21.89-1.383-.352-2.008-.748-2.635-.75-29.929-.051-59.858-.106-89.786.041-1.239.006-2.468 1.94-3.7 2.976z"
    />
    <path
      fill="#FFD9DB"
      d="M419.052 101.602c-2.394.705-4.839 1.349-7.285 1.353-34.902.066-69.805.055-104.708.015-1.789-.002-3.577-.437-5.754-.841 2.716-6.737 5.822-13.304 9.675-19.958 2.694.218 4.64.785 6.586.79 25.21.06 50.421.092 75.63-.05 2.31-.013 4.611-1.274 6.916-1.955 6.297 6.762 12.593 13.525 18.94 20.646z"
    />
    <path
      fill="#EF403B"
      d="M233.881 435.017c-15.367-.339-30.734-.774-46.104-.958-4.591-.056-9.191.588-14.199.925-1.458-11.355-2.506-22.722-3.024-34.537 20.19-.452 39.853-.456 59.665-.086a317.97 317.97 0 0 1 1.793 13.08c.607 7.492 1.238 14.534 1.87 21.576z"
    />
    <path
      fill="#F04842"
      d="M230.069 399.988c-19.662.003-39.324.007-59.444.009-1.177-4.275-2.127-8.525-2.559-12.826-.572-5.695-.739-11.43-.813-17.907 2.056-.927 3.844-1.238 5.633-1.242 18.028-.035 36.057-.02 54.137.39.478 3.791.904 7.172 1.296 10.96.56 7.145 1.155 13.88 1.75 20.616z"
    />
    <path
      fill="#F87A6B"
      d="M70.886 194.957c2.053-2.049 2.376-4.062 1.269-7.018-2.714-7.249-4.824-14.724-6.75-22.515 10.762-.413 21.096-.42 31.564-.134 3.585 2.783 3.683-2.113 6.299-2.163 2.333.401 4.272.83 6.214.843 11.878.077 23.758.059 35.637.073-10.818 10.931-21.636 21.862-33.053 32.622-11.864-.335-23.13-.449-34.392-.707-2.27-.052-4.526-.653-6.788-1.001z"
    />
    <path
      fill="#F2564E"
      d="M468.834 312.997c-.954 9.715-1.909 19.43-3.39 29.573-17.989.429-35.453.39-52.916.475-2.446.012-4.89.636-7.382.564.215-3.15.477-5.888.788-9.054.81-7.464 1.574-14.5 2.788-21.541 20.339-.009 40.226-.013 60.112-.017z"
    />
    <path
      fill="#F45F55"
      d="M160.886 309.039c-.625-3.956-1.453-7.893-1.825-11.872-.535-5.722-.74-11.475-.662-17.68 20.152-.474 39.882-.481 59.69-.107.406 2.452.734 4.523 1.017 7.026.563 7.823 1.172 15.216 1.319 22.604-20.154.006-39.847.018-59.539.029z"
    />
    <path
      fill="#F14E47"
      d="M226.97 368.003c-18.027-.001-36.056-.016-54.084.02-1.789.003-3.577.314-5.657.792-.934-3.747-1.782-7.784-2.172-11.864-.541-5.651-.738-11.335-.708-17.52 2.659-.82 4.942-1.38 7.227-1.39 17.466-.072 34.931-.038 52.478.361.459 3.455.837 6.512 1.165 9.983.55 6.816 1.15 13.217 1.752 19.618zM405.193 344.02c2.445-.34 4.889-.963 7.335-.975 17.463-.085 34.927-.046 52.848-.048-.495 9.384-1.449 18.77-2.93 28.579-18.58.423-36.633.476-54.684.333-1.604-.013-3.198-1.309-4.82-2.456.736-8.775 1.493-17.104 2.251-25.432z"
    />
    <path
      fill="#F2564E"
      d="M223.973 338.004c-17.466-.001-34.931-.035-52.397.038-2.285.01-4.568.57-7.275.936-1.045-3.894-1.87-7.83-2.242-11.81-.534-5.725-.737-11.48-1.127-17.676 19.646-.464 39.339-.476 59.535-.069.913 2.795 1.323 5.173 1.68 7.998.574 7.16 1.2 13.871 1.826 20.583z"
    />
    <path
      fill="#FFCECF"
      d="M311.08 126.428c1.114-1.346 2.343-3.28 3.582-3.286 29.928-.147 59.857-.092 89.786-.04.627 0 1.252.397 2.269.778-18.257 9.583-36.735 19.36-55.645 28.211-6.45 3.02-13.342 1.328-18.749-4.228-6.944-7.136-14.074-14.092-21.243-21.435z"
    />
    <path
      fill="#F35D53"
      d="M468.903 312.57c-19.955.431-39.842.435-60.237.033-.22-3.803.068-7.201.397-11.01.702-5.136 1.362-9.86 2.486-14.586 20.404-.006 40.345-.008 60.285-.01.041.17.082.34-.123.904-.473.63-.614.911-.668 1.234-.69 7.67-1.38 15.338-2.14 23.435z"
    />
    <path
      fill="#FFDEE0"
      d="M399.984 80.643c-2.177.994-4.478 2.255-6.787 2.268-25.21.142-50.42.11-75.631.05-1.947-.005-3.892-.572-6.26-.94 2.697-6.632 5.814-13.202 9.652-19.751 1.672.252 2.623.684 3.576.686 16.204.043 32.408.105 48.61-.058 1.972-.02 3.932-1.306 5.898-2.005 2.139 1.69 4.43 3.222 6.387 5.102 4.89 4.694 9.627 9.546 14.555 14.648z"
    />
    <path
      fill="#F46559"
      d="M471.903 286.55c-20.01.449-39.95.451-60.388.02-.178-4.813.141-9.193.51-13.984.398-3.799.748-7.187 1.56-10.579 20.39-.005 40.319-.007 60.248-.01-.62 8.036-1.241 16.072-1.93 24.554z"
    />
    <path
      fill="#FFE9EB"
      d="M415.588 22.94c2.802.653 5.234 1.954 7.674 1.968 26.391.147 52.783.066 79.175.15 1.806.006 3.61.838 5.514 1.69-4.216 5.023-10.207 5.05-15.626 5.101-21.946.204-41.865 7.21-60.84 17.373-8.941 4.788-17.531 3.407-22.552-4.896-3.706-6.13-3.18-15.848 6.655-21.385z"
    />
    <path
      fill="#F98473"
      d="M145.423 163.911a2221.97 2221.97 0 0 1-35.941.059c-1.942-.013-3.88-.442-6.074-1.151 10.655-11.268 21.564-22.063 32.865-32.692 7.47.401 14.549.585 21.623.888 6.41.275 12.814.679 19.22 1.026-10.462 10.58-20.926 21.16-31.693 31.87z"
    />
    <path
      fill="#F77466"
      d="M70.58 195.085c2.568.22 4.825.82 7.094.873 11.262.258 22.528.372 34.083.844A715.457 715.457 0 0 1 80.94 227.9c-11.898.114-23.019.221-34.133.01-2.32-.045-4.616-1.27-6.922-1.951 10.13-10.249 20.26-20.497 30.695-30.873z"
    />
    <path
      fill="#F04842"
      d="M402.965 369.9c1.599.7 3.193 1.996 4.797 2.009 18.05.143 36.103.09 54.613.088-.163 7.045-.784 14.092-1.93 21.57-20.443.436-40.36.44-60.319.02.645-8.123 1.333-15.82 2.227-23.552.207-.032.612-.135.612-.135z"
    />
    <path
      fill="#FB8D7B"
      d="M177.422 131.911c-6.712-.217-13.116-.621-19.526-.896-7.074-.303-14.154-.487-21.485-1.197 9.68-10.294 19.614-20.115 29.55-29.935 1.694.372 3.385 1.053 5.083 1.067 12.038.1 24.078.062 36.594.081-9.654 10.259-19.783 20.505-30.216 30.88z"
    />
    <path
      fill="#F56B5E"
      d="M473.904 261.575c-20 .425-39.93.427-60.334.046 1.63-8.377-2.74-13.292-8.609-17.494 3.158-.71 6.31-2.003 9.474-2.032 20.16-.187 40.322-.096 60.941-.097-.161 6.384-.781 12.77-1.472 19.577z"
    />
    <path
      fill="#F46559"
      d="M218.011 278.999c-19.73.007-39.46.014-59.667.035-1.107-6.352-1.737-12.718-1.943-19.55 20.15-.471 39.875-.478 59.678-.078.696 6.801 1.314 13.197 1.932 19.593z"
    />
    <path
      fill="#F56B5E"
      d="M39.579 226.085c2.612.554 4.909 1.779 7.228 1.823 11.114.212 22.235.105 33.83.124-8.653 9.257-17.781 18.5-27.212 27.876-10.758-.214-21.21-.627-31.668-.87-3.418-.078-6.847.288-10.54.152 9.173-9.858 18.614-19.417 28.362-29.105z"
    />
    <path
      fill="#FFE9EB"
      d="M378.92 60.582c-1.844 1.01-3.804 2.296-5.776 2.316-16.202.163-32.406.101-48.61.058-.953-.002-1.904-.434-3.247-.833 3.642-8.192 7.281-16.448 11.831-24.167 3.758-6.375 17.125-7.764 24.464.1 6.985 7.487 14.137 14.817 21.338 22.526z"
    />
    <path
      fill="#EE3C38"
      d="M455.901 444.562c-20.347.438-40.627.44-61.258.073.574-6.122 1.5-11.876 2.889-17.631 17.962-.003 35.46-.042 52.957.04 2.454.012 4.905.618 7.358.949-.626 5.378-1.252 10.755-1.946 16.57z"
    />
    <path
      fill="#F56B5E"
      d="M216.001 259c-19.725.006-39.45.013-59.652.032-1.094-5.045-1.71-10.104-2.254-15.599 8.49-.768 16.907-1.27 25.329-1.392 11.448-.165 22.902-.122 34.35.01 3.276.039 6.543.698 10.085 1.446-3.807 4.681-7.932 8.964-7.858 15.503z"
    />
    <path
      fill="#EF403B"
      d="M457.909 427.543c-2.515.119-4.966-.487-7.42-.499-17.497-.082-34.995-.043-52.985-.484.121-5.829.734-11.216 1.825-16.59 20.153.017 39.829.022 59.504.027-.287 5.699-.575 11.397-.924 17.546z"
    />
    <path
      fill="#EF433E"
      d="M459.031 409.624c-19.873.368-39.549.363-59.668-.08-.44-2.145-.438-3.853-.391-5.974.428-3.461.812-6.51 1.197-9.558l60.207-.014c-.077 5.084-.612 10.169-1.345 15.626z"
    />
    <path
      fill="#FFCECF"
      d="M246.33 125.176c7.017-4.129 16.14-2.626 20.178 1.886 4.829 5.396 5.22 15.273.296 21.605-2.686 3.454-12.406 6.076-17.29 4.155-5.073-1.996-9.818-7.328-9.642-13.175.174-5.75.548-10.995 6.457-14.471zM458.354 152.115c-10.204-4.618-10.336-17.822-5.41-24.302 2.933-3.86 11.922-6.39 17.54-4.622 5.274 1.66 9.173 7.234 9.584 12.676.503 6.669-.762 12.88-7.245 15.423-4.175 1.638-9.35.724-14.469.825z"
    />
    <path
      fill="#F46559"
      d="M471.294 289.042c-.197-.23-.056-.51.365-.883.092.172-.012.481-.365.883z"
    />
    <path
      fill="#FB8D7B"
      d="M81.645 99.018c.34 4.032 3.373 3.954 6.225 3.967 8.91.04 17.822-.01 26.732.037 1.62.009 3.24.31 5.023 1.094-9.395 10.386-18.952 20.155-28.985 29.912-10.808-.02-21.14-.027-31.472-.034 1.999-15.044 11.782-25.135 22.477-34.976z"
    />
    <path
      fill="#F98473"
      d="M59.093 134.456c10.407-.455 20.74-.448 31.498-.01.603 4.837.207 9.361 1.095 13.618 1.2 5.752 3.386 11.298 5.15 16.933-10.335.007-20.67.014-31.48.033-4.891-9.551-7.355-19.493-6.263-30.574z"
    />
    <path
      fill="#F56B5E"
      d="M239.012 244.95c2.416-.982 4.82-2.783 7.25-2.816 18.126-.24 36.257-.19 54.385-.056 2.237.016 4.466 1.063 6.859 2.061-7.18 4.572-7.972 11.482-8.087 18.868-17.749-.003-35.04 0-52.386-.412-.74-7.067-1.66-13.614-8.021-17.645z"
    />
    <path
      fill="#FFABAC"
      d="M238.647 244.83c6.726 4.151 7.646 10.698 8.354 18.208.632 7.552 1.24 14.248 1.445 21.014-2.995.363-5.58.777-8.18.923-7.035.394-14.076.674-21.115 1-.328-2.072-.656-4.143-1.062-6.595-.696-6.777-1.314-13.173-2.01-19.974-.152-6.945 3.973-11.228 8.227-15.827 4.777.184 9.377.658 14.341 1.252z"
    />
    <path
      fill="#F56B5E"
      d="M322.733 244.483c2.409-.828 4.81-2.344 7.23-2.372 17.764-.204 35.532-.166 53.299-.044 2.416.017 4.827.924 7.344 2.002-4.836 4.505-6.715 9.959-8.037 15.928-17.795.006-35.116.01-52.482-.406.416-6.758-2.99-11.171-7.354-15.108z"
    />
    <path
      fill="#FFABAC"
      d="M322.338 244.388c4.759 4.032 8.165 8.445 7.705 15.668-.06 6.566-.117 12.246-.632 17.932-10.064.002-19.671-.002-29.317-.47-.099-5.144-.158-9.826-.218-14.508-.342-7.389.45-14.299 7.988-18.716 4.825-.183 9.452-.092 14.474.094zM383.042 259.995c.85-5.967 2.728-11.42 7.823-15.637 4.534-.326 8.913-.36 13.694-.313 6.271 4.284 10.642 9.2 8.55 17.58-.336 3.774-.686 7.162-1.551 10.963-10.14.405-19.765.4-29.416-.021.282-4.467.59-8.52.9-12.572z"
    />
    <path
      fill="#FF7D7D"
      d="M329.15 443.012c-3.637 10.927-18.997 13.46-25.555 4.884-.982-1.284-1.625-2.827-2.685-4.968-.519-8.449-.777-16.18-.99-24.378.091-5.502.138-10.538.643-15.564 10.084.003 19.708-.003 29.375.457.09 5.168.14 9.871.155 15.04-.338 8.488-.64 16.508-.943 24.53zM398.929 403.983a334.836 334.836 0 0 1-.044 5.549c-.647 5.812-1.26 11.2-1.845 17.03a737.99 737.99 0 0 1-2.861 18.075c-7.087 9.074-15.64 10.996-23.236 5.151-1.926-1.482-2.887-4.218-4.575-7.076.065-8.698.413-16.698 1.008-25.01.753-5.119 1.258-9.925 2.178-14.708 10.067.344 19.721.667 29.375.99zM233.924 435.443c-.674-7.468-1.305-14.51-1.501-21.94 2.207-.094 3.989.496 5.752.445 7.888-.227 15.77-.637 23.717-.58.383 2.146.705 3.894 1.027 6.098.31 8.127.618 15.797.927 23.468-5.621 9.023-11.812 11.857-19.661 9.002-6.458-2.349-9.927-7.804-10.26-16.493z"
    />
    <path
      fill="#EE3C38"
      d="M367.13 418.014c-.349 8-.697 16-1.013 24.46-11.998.485-24.029.508-36.513.534-.151-8.017.151-16.037.945-24.53 12.52-.47 24.55-.467 36.58-.464zM264.329 442.956c-.792-7.693-1.1-15.363-.933-23.493 12.477-.455 24.478-.45 36.478-.446.259 7.731.517 15.462.876 23.594-11.912.39-23.925.379-36.421.345z"
    />
    <path d="M96.969 165.29c-1.897-5.928-4.083-11.474-5.283-17.226-.888-4.257-.492-8.781-.62-13.605 9.607-10.188 19.164-19.957 28.846-30.033 4.885-4.621 9.234-9.573 14.564-13 3.014-1.94 7.857-2.443 11.49-1.702 6.582 1.342 12.827 4.263 19.313 6.186 2.744.813 3.038 1.558.81 3.667-10.064 10.126-19.999 19.947-30.071 30.076-11.046 11.103-21.955 21.898-33.003 33-2.363.524-2.461 5.42-6.046 2.637z" />
    <path
      fill="#FF8989"
      d="M261.83 412.967c-7.885.344-15.767.754-23.655.98-1.763.052-3.545-.538-5.729-.893-.966-4.148-1.521-8.234-2.227-12.693-.745-7.109-1.34-13.844-1.467-20.978 10.075-.395 19.683-.39 29.546-.083.7 3.44 1.145 6.577 1.593 10.173.648 8.138 1.293 15.816 1.939 23.494z"
    />
    <path
      fill="#FF9192"
      d="M258.043 378.996c-9.608-.004-19.216-.008-29.256-.022-.86-3.39-1.286-6.77-1.764-10.561-.653-6.81-1.254-13.212-1.362-20.02a378.47 378.47 0 0 1 29.486-.036c.645 3.13 1.128 5.9 1.634 9.135.435 7.478.849 14.49 1.262 21.504zM402.942 369.453c.023.447-.382.55-1.072.56-10.134-.004-19.578-.017-29.007-.495.357-5.813.7-11.16 1.095-16.93.754-6.484 1.453-12.544 2.56-18.536 2.334.362 4.259.886 6.19.909 7.725.091 15.452.028 23.178.022-.263 2.738-.525 5.476-.74 8.626-.71 8.74-1.468 17.069-2.204 25.844z"
    />
    <path
      fill="#FF9A9B"
      d="M405.934 334.555c-7.774.434-15.501.497-23.226.406-1.931-.023-3.856-.547-6.218-1.332-.086-5.2.262-9.909.86-14.934.973-6.12 1.695-11.922 2.86-17.714 9.9.348 19.356.685 28.812 1.023-.288 3.398-.576 6.796-.808 10.604-.706 7.447-1.47 14.483-2.28 21.947z"
    />
    <path
      fill="#FFA3A4"
      d="M219.106 286.406c7.084-.757 14.125-1.037 21.16-1.431 2.6-.146 5.185-.56 8.237-.513.817 2.74 1.174 5.141 1.512 7.986.63 8.477 1.28 16.51 1.464 24.545-10.07-.005-19.674-.013-29.28-.02-.41-2.377-.819-4.755-1.27-7.545-.651-7.806-1.26-15.199-1.823-23.022z"
    />
    <path
      fill="#FF9A9B"
      d="M222.148 317.421c9.657-.44 19.261-.433 29.42-.032.91 3.137 1.268 5.882 1.629 9.038.598 7.465 1.193 14.518 1.788 21.571-9.61-.004-19.22-.008-29.273-.02-.82-3.064-1.2-6.12-1.658-9.576-.707-7.11-1.333-13.821-1.906-20.981z"
    />
    <path
      fill="#FFA3A4"
      d="M409.063 301.592a320.763 320.763 0 0 1-28.82-1.068c-.115-4.81.181-9.155.558-13.94.509-4.829.938-9.216 1.367-13.603l29.342.017c.146 4.379-.173 8.76-.459 13.576-.626 5.16-1.286 9.883-1.988 15.018z"
    />
    <path
      fill="#FF8989"
      d="M372.848 369.983c9.444.013 18.888.026 28.816.062-.205 7.721-.893 15.42-1.538 23.542-.342 3.473-.726 6.522-1.154 9.983-9.697.09-19.35-.232-29.443-.999-.04-5.808.359-11.172.975-16.855.926-5.458 1.635-10.596 2.344-15.733z"
    />
    <path
      fill="#F46559"
      d="M250.033 292.004c-.356-2.4-.713-4.802-1.126-7.612a1619.911 1619.911 0 0 1-1.852-20.941c17.323-.445 34.615-.447 52.364-.444.517 4.685.576 9.367.625 14.976-.061 5.296-.11 9.663-.618 14.026-16.77-.005-33.081-.005-49.393-.005zM382.142 272.567c-.403 4.801-.832 9.188-1.782 14.01-17.09.435-33.66.437-50.274-.011-.103-3.161-.16-5.873-.219-8.584.059-5.68.117-11.36.22-17.506 17.366-.47 34.687-.473 52.482-.48.164 4.052-.145 8.104-.427 12.57z"
    />
    <path
      fill="#FFA3A4"
      d="M329.41 277.988c.515 2.705.573 5.417.633 9.043-.056 7.593-.114 14.272-.628 20.956-10.066.003-19.676-.002-29.324-.47-.094-5.478-.151-10.49-.208-15.503.05-4.368.1-8.735.2-13.568 9.657-.46 19.264-.456 29.328-.458z"
    />
    <path
      fill="#EF433E"
      d="M370.287 386.036c-.4 5.363-.798 10.727-1.172 16.513-.48 5.228-.986 10.034-1.739 15.152-12.276.31-24.306.307-36.792.31-.506-4.697-.555-9.4-.612-15.033.046-6.608.1-12.285.611-17.968 13.539.339 26.621.682 39.704 1.026zM261.892 413.367c-.708-8.078-1.353-15.756-1.521-23.898 13.489-.46 26.5-.458 39.549.008.086 4.808.135 9.154.184 13.5-.046 5.035-.093 10.07-.185 15.573-12.045.462-24.046.458-36.523.456-.799-1.744-1.12-3.492-1.504-5.639z"
    />
    <path
      fill="#FF8989"
      d="M300.563 402.986c-.508-4.355-.557-8.701-.597-13.977.058-6.295.107-11.66.612-17.02 10.072.002 19.686-.003 29.345.456.097 4.498.15 8.535.204 12.57-.054 5.678-.109 11.355-.197 17.497-9.659.47-19.283.477-29.367.474z"
    />
    <path
      fill="#F04B44"
      d="M300.121 371.982c-.048 5.366-.097 10.732-.192 16.565-13.058.464-26.07.461-39.56.463-.926-3.133-1.371-6.27-2.071-9.71-.668-7.317-1.082-14.33-1.024-21.816a648.15 648.15 0 0 1 42.65-.004c.092 5.143.144 9.823.197 14.502z"
    />
    <path
      fill="#F2544C"
      d="M299.885 357.017a82008.11 82008.11 0 0 0-42.633.002c-.977-2.762-1.46-5.532-2.105-8.662-.757-7.412-1.352-14.465-1.557-22.002 2.326-.775 4.26-1.307 6.198-1.317 13.367-.07 26.734-.029 40.14.44.092 5.143.145 9.823.15 14.97-.097 5.835-.145 11.202-.193 16.569zM377.1 319.011c-.348 4.71-.696 9.418-1.017 14.55-.672 6.483-1.371 12.543-2.53 18.961-2.395.065-4.331-.47-6.27-.482-12.385-.072-24.77-.028-37.203-.482a565.24 565.24 0 0 1-.17-12.043c.097-7.144.157-13.821.677-20.504 15.812-.003 31.163-.002 46.513 0z"
    />
    <path
      fill="#F04B44"
      d="M330.128 352.018c12.385-.006 24.77-.05 37.155.022 1.939.011 3.875.547 6.217.905.062 5.413-.28 10.76-.637 16.573-.724 5.602-1.433 10.74-2.359 16.198-13.3-.024-26.382-.367-39.92-.706-.51-4.03-.564-8.067-.62-13.03.052-7.273.108-13.617.164-19.962z"
    />
    <path
      fill="#F35D53"
      d="M377.35 318.695c-15.6.314-30.951.313-46.81-.142-.562-3.826-.615-7.2-.669-10.572.058-6.678.116-13.357.216-20.5 16.613-.467 33.182-.469 50.193-.463.144 4.351-.152 8.695-.48 13.496-.755 6.26-1.477 12.062-2.45 18.18zM299.89 325.014c-13.368-.005-26.735-.045-40.102.024-1.937.01-3.872.542-6.201.905-.751-2.672-1.109-5.417-1.554-8.556a1899.678 1899.678 0 0 1-2.018-24.94c16.33-.443 32.642-.443 49.41-.438.515 5.018.572 10.03.617 15.975-.059 6.298-.106 11.664-.152 17.03z"
    />
    <path
      fill="#FF9A9B"
      d="M299.928 325.478c.008-5.83.055-11.196.151-17.03 9.66-.463 19.27-.458 29.336-.46.51 3.366.563 6.739.664 10.57-.012 7.136-.072 13.813-.625 20.964-10.105.468-19.716.463-29.328.459-.053-4.68-.106-9.36-.198-14.503z"
    />
    <path
      fill="#FF9192"
      d="M300.078 340.448c9.66-.463 19.271-.458 29.34-.46.508 3.698.56 7.404.662 11.57a1493.02 1493.02 0 0 1-.16 19.959c-9.656.47-19.27.474-29.342.472-.51-4.686-.562-9.366-.654-14.509.01-5.83.057-11.197.154-17.032z"
    />
</svg>