<svg version="1.1" id="Layer_1" xmlns="http://www.w3.org/2000/svg" xmlns:xlink="http://www.w3.org/1999/xlink" x="0px" y="0px"
	 width="100%" viewBox="0 0 512 512" enable-background="new 0 0 154 154" xml:space="preserve">
    <style>
        .icon-mid-white-color-change{
            fill: #666467;
        }
        @media (prefers-color-scheme: dark) {
            .icon-mid-white-color-change{
                fill: #fafafa;
            }
        }
    </style>
    <path
        class="icon-mid-white-color-change"
        d="M225 1c21.02 0 42.042 0 63.472.416 1.084.792 1.721 1.388 2.44 1.512 8.254 1.42 16.612 2.366 24.767 4.211 30.175 6.829 58.17 19.088 83.834 36.178 19.866 13.23 37.404 29.33 52.936 47.57 17.003 19.969 30.93 41.83 40.948 66.063 8.762 21.193 15.33 43.032 17.707 65.976.077.75 1.24 1.385 1.896 2.074 0 21.02 0 42.042-.417 63.473-.792 1.086-1.36 1.72-1.515 2.442-3.01 13.938-5.28 28.078-9.092 41.791-7.068 25.436-19.03 48.662-33.98 70.403-14.831 21.571-32.83 40.213-53.244 56.379a238.46 238.46 0 01-55.02 32.66c-19.925 8.46-40.35 14.934-61.837 17.961-3.04.428-5.934 1.901-8.895 2.891-21.02 0-42.042 0-63.473-.417-3.852-1.131-7.272-1.992-10.742-2.537-23.388-3.68-45.735-10.77-67.119-20.814-20.816-9.777-39.917-22.214-57.366-37.29-18.016-15.565-34.288-32.806-47.03-52.794-9.328-14.635-17.008-30.458-24.115-46.337-8.693-19.421-13.859-40.014-16.243-61.239-.103-.917-1.25-1.717-1.912-2.572 0-21.02 0-42.042.416-63.472.83-2.582 1.28-4.75 1.65-6.93 3.254-19.154 8.07-37.885 15.139-56.006a250.768 250.768 0 0125.349-48.509C55.198 96.705 68.994 80.968 84.63 67.06c9.585-8.525 19.385-17.144 30.266-23.796 14.822-9.061 30.443-17.01 46.312-24.115 19.415-8.692 39.996-13.873 61.22-16.236C223.343 2.81 224.144 1.66 225 1M66.887 136.358c-6.68 13.034-14.258 25.696-19.838 39.185-9.5 22.967-14.725 47.107-14.974 72.082-.112 11.276-.033 22.623 1.1 33.822 1.087 10.74 3.077 21.474 5.688 31.957 4.672 18.754 11.868 36.562 21.462 53.44 9.246 16.264 20.146 31.255 32.934 44.84 14.462 15.364 30.946 28.213 49.019 39.173 18.791 11.397 38.938 19.474 60.057 24.933 20.81 5.38 42.163 7.877 63.647 6.052 15.703-1.335 31.601-2.828 46.847-6.558 28.369-6.94 54.302-19.56 77.88-37.155 19.539-14.582 36.314-31.626 50.41-51.425 11.441-16.072 20.564-33.373 27.447-51.852 7.224-19.396 11.875-39.479 13.198-60.057.882-13.702.184-27.594-.942-41.308-.897-10.93-2.788-21.905-5.52-32.531-4.85-18.865-12.014-36.887-21.689-53.932-13.784-24.285-31.173-45.55-52.608-63.321-18.873-15.646-39.689-28.328-62.735-36.981-23.42-8.793-47.525-14.573-72.692-14.66-11.02-.038-22.105-.019-33.044 1.111-10.741 1.11-21.472 3.101-31.961 5.7-18.754 4.648-36.531 11.891-53.412 21.452-16.331 9.25-31.286 20.267-44.978 33.028-13.502 12.585-24.909 26.941-35.296 43.005z"
        opacity="1"
    ></path>
    <path
        class="icon-mid-white-color-change"
        d="M347.675 429.699c-16.904 9.248-34.578 15.48-53.07 18.875-17.91 3.288-35.983 4.367-54.315 2.656-20.176-1.883-39.52-6.244-58.189-14.08-17.26-7.244-33.276-16.535-47.737-28.373-15.67-12.828-29.555-27.446-40.51-44.511-14.517-22.611-24.577-47.01-29.064-73.74-2.6-15.484-3.644-31.007-2.605-46.508 1.57-23.432 7.019-46.082 16.976-67.538 6.612-14.246 14.274-27.929 24.19-40.036 9.938-12.134 21.033-23.222 33.464-33.04 18.472-14.588 38.91-25.155 61.142-32.454 13.32-4.373 26.964-7.262 41.012-7.95 7.613-.373 15.235-1.048 22.842-.929 23.276.364 45.733 4.945 67.412 13.53 19.771 7.831 37.984 18.463 53.943 32.308 18.892 16.392 34.782 35.444 46.377 57.946 8.803 17.082 15.607 34.815 19.076 53.645 3.301 17.917 4.137 35.973 2.63 54.306-1.971 23.991-8.06 46.723-18.456 68.18-6.8 14.036-15.159 27.27-25.4 39.294-12.595 14.79-26.633 27.85-42.796 38.574-5.324 3.533-11.055 6.45-16.922 9.845m46.21-263.034c-9.418-14.16-20.868-26.484-33.992-37.24a155.905 155.905 0 00-41.48-24.444c-14.922-5.933-30.235-9.682-46.297-11.212-14.805-1.41-29.386-.877-43.904 1.731-18.571 3.336-36.046 9.757-52.511 19.115-19.106 10.86-35.438 25.005-48.453 42.47-7.886 10.581-14.119 22.513-20.178 34.309-8.845 17.22-12.736 36.008-13.916 55.16-1.111 18.027.793 35.83 5.644 53.446 6.738 24.463 18.194 46.255 34.954 65.07 16.424 18.436 35.793 33.157 58.79 42.784 17.586 7.362 35.843 12.04 54.846 13.039 17.873.94 35.5-.895 52.898-5.753 24.403-6.814 46.23-18.237 65.012-35.089 18.254-16.378 32.901-35.573 42.443-58.41 7.949-19.027 12.661-38.728 13.285-59.394.51-16.957-1.353-33.633-6.157-49.872-4.726-15.975-11.023-31.315-20.984-45.71z"
        opacity="1"
    ></path>
    <path
        class="icon-mid-white-color-change"
        d="M192.154 231.381c.193-8.583-.358-16.894.978-24.89 3.139-18.794 15.5-30.282 32.37-37.422 4.799-2.03 9.944-3.24 15.52-5.013v-31.722h30.784v31.249c17.912 3.156 34.183 9.332 49.515 20.022l-15.616 28.763c-3.913-2.283-7.411-4.299-10.885-6.354-13.707-8.11-28.46-12.25-44.41-10.937-9.888.814-20.235 4.875-21.821 17.513-.753 5.997 2.736 14.097 9.437 16.746 10.21 4.037 20.716 7.4 31.254 10.52 12.602 3.734 25.47 6.711 36.805 13.721 12.703 7.856 20.549 18.956 20.804 34.256.124 7.398.157 15.091-1.656 22.167-4.177 16.296-15.537 26.53-31.124 31.964-6.946 2.42-14.237 3.848-21.964 5.882v33.727h-30.926v-35.14c-21.037-3.293-39.978-10.284-57.313-22.252l15.692-31.27c13.817 9.934 28.299 17.339 44.491 20.511 12.181 2.387 24.582 3.683 36.4-2.241 10.829-5.428 12.1-20.894 1.475-26.949-8.326-4.745-17.639-7.882-26.728-11.136-13.138-4.703-26.822-8.04-39.615-13.502-11.98-5.113-19.916-14.875-23.467-28.213z"
        opacity="1"
    ></path>
</svg>