<svg version="1.1" id="Layer_1" xmlns="http://www.w3.org/2000/svg" xmlns:xlink="http://www.w3.org/1999/xlink" x="0px" y="0px"
	 width="100%" viewBox="0 0 512 512" enable-background="new 0 0 154 154" xml:space="preserve">
    <path
      fill="#666467"
      d="M216.008 133.537c-.672-11.498.648-21.878 7.205-31.454 9.17-13.391 29.056-20.222 44.96-15.547 15.758 4.632 25.851 14.857 29.16 30.635 4.828 23.016-8.14 45.131-32.28 49.9-21.917 4.33-43.758-8.721-49.045-33.534zM282.987 354.954c15.644 12.9 19.76 35.927 9.741 53.86-7.85 14.053-26.471 22.48-42.337 19.497-12.977-2.438-23.113-8.506-29.397-19.966-13.309-24.271-.883-56.307 28.322-61.463 12.486-2.204 23.346.606 33.67 8.072zM274.582 219.243c25.043 12.169 30.077 42.664 16.328 61.621-8.494 11.713-19.93 17.087-34.793 17.4-17.653.373-34.151-13.885-38.272-27.598-7.708-25.647 6.32-49.417 31.128-54.324 8.29-1.64 17.17-1.185 25.61 2.9z"
    />
</svg>