<svg version="1.1" id="Layer_1" xmlns="http://www.w3.org/2000/svg" xmlns:xlink="http://www.w3.org/1999/xlink" x="0px" y="0px"
	 width="100%" viewBox="0 0 512 512" enable-background="new 0 0 154 154" xml:space="preserve">
    <style>
        .icon-mid-white-color-change{
            fill: #666467;
        }
        @media (prefers-color-scheme: dark) {
            .icon-mid-white-color-change{
                fill: #afafaf;
            }
        }
    </style>
    <path
        class="icon-mid-white-color-change"
        d="M127.302 158.698c-5.974-6.27-11.976-12.052-17.356-18.366-7.556-8.87-6.773-21.002 1.361-29.138 8.047-8.05 20.406-8.99 29.095-1.101 12.424 11.28 24.3 23.177 36.208 35.013 25.411 25.258 50.7 50.64 76.008 76.001 1.29 1.292 2.29 2.873 3.788 4.783 2.09-1.958 3.532-3.235 4.892-4.594 35.593-35.58 71.173-71.173 106.77-106.75 4.248-4.244 8.906-7.389 15.08-8.857 10.195-2.424 21.053 5.512 23.943 13.108 4.098 10.772.28 19.316-7.175 26.79-35.537 35.635-71.142 71.202-106.76 106.755-1.4 1.398-3.18 2.417-4.558 3.445.73 1.487.849 2.004 1.164 2.33 11.422 11.826 22.695 23.803 34.338 35.407 18.385 18.324 37.037 36.378 55.54 54.583 7.007 6.896 14.054 13.762 20.825 20.886 6.129 6.45 9.957 13.725 7.575 23.203-3.824 15.221-22.217 21.66-34.485 11.834-2.582-2.068-5.111-4.233-7.45-6.568a89168.54 89168.54 0 01-104.281-104.29c-1.406-1.408-2.469-3.158-4.014-5.17-2.215 2.1-3.653 3.402-5.024 4.771-35.366 35.32-70.716 70.654-106.095 105.96-5.832 5.82-12.022 10.787-21.091 10.33-8.437-.423-14.555-4.387-18.298-11.613-4.05-7.82-3.31-15.718 1.795-22.927 2.093-2.957 4.651-5.622 7.221-8.197 34.85-34.91 69.733-69.785 104.641-104.637 1.4-1.397 3.122-2.471 5.282-4.154l-98.939-98.837z"
        opacity="1"
    ></path>
</svg>