<svg version="1.1" id="Layer_1" xmlns="http://www.w3.org/2000/svg" xmlns:xlink="http://www.w3.org/1999/xlink" x="0px" y="0px"
	 width="100%" viewBox="0 0 256 256" enable-background="new 0 0 154 154" xml:space="preserve">
    <style>
        .icon-mid-white-color-change{
            fill: #666467;
        }
        @media (prefers-color-scheme: dark) {
            .icon-mid-white-color-change{
                fill: #afafaf;
            }
        }
    </style>
    <path
        class="icon-mid-white-color-change"
        d="M257 86.531c-2.796 1.135-5.572 2.238-8.393 2.371-5.184.244-7.564-2.253-7.584-7.504-.058-15.318-.016-30.637-.032-45.956-.001-1.45-.13-2.898-.2-4.36l-84.926 84.948c-4.446-5.039-8.04-9.11-12.128-13.745L229.073 17h-49.22c-10.89-.002-13.964-5.512-8.688-15.633C199.594 1 228.187 1 257 1v85.531zM1 171.469c2.612-1.135 5.2-2.23 7.842-2.379 5.78-.326 8.128 2.108 8.143 7.96.04 14.985.014 29.972.015 44.958v4.89l84.796-84.814 12.309 13.537-85.062 85.03c2.47.154 4.035.334 5.6.336 14.486.022 28.973.012 43.46.013 10.907.002 14.015 5.487 8.768 15.623C58.406 257 29.813 257 1 257v-85.531z"
        opacity="1"
    ></path>
</svg>