<svg version="1.1" id="Layer_1" xmlns="http://www.w3.org/2000/svg" xmlns:xlink="http://www.w3.org/1999/xlink" x="0px" y="0px"
	 width="100%" viewBox="0 0 256 256" enable-background="new 0 0 154 154" xml:space="preserve">
    <style>
        .icon-mid-white-color-change{
            fill: #666467;
        }
        @media (prefers-color-scheme: dark) {
            .icon-mid-white-color-change{
                fill: #fafafa;
            }
        }
    </style>
    <path
        class="icon-mid-white-color-change"
        d="M1 244c0-76.354 0-152.708.343-229.38 3.16-3.614 5.929-6.954 8.82-10.184C11.301 3.165 12.713 2.138 14 1c76.354 0 152.708 0 229.379.342 4.202 4.315 8.072 8.305 12.001 12.236.34.34 1.07.29 1.62.422 0 76.354 0 152.708-.342 229.379-4.316 4.201-8.307 8.07-12.238 12-.34.34-.29 1.071-.42 1.621-76.354 0-152.708 0-229.379-.342-4.201-4.316-8.071-8.306-12-12.238-.34-.34-1.071-.29-1.621-.42m241-135.5V46h-6.368c-44.317 0-88.633-.028-132.95.057-3.296.006-5.525-.633-7.194-3.844-3.265-6.286-7.303-12.177-10.472-18.506-2.796-5.586-6.935-7.818-13.004-7.755-14.326.15-28.655.044-42.983.05-10.194.003-13.027 2.799-13.027 12.88-.003 66.641-.003 133.282 0 199.924 0 10.413 2.784 13.192 13.215 13.193 66.308.002 132.616-.052 198.924.058 9.962.017 13.88-1.9 13.87-14.102-.03-39.485-.011-78.97-.011-119.455m-1.04-77.723c2.918-9.187-2.083-14.9-10.183-14.864-42.295.188-84.59.086-126.887.098-1.273 0-2.547.15-4.463.27 2.345 4.15 4.673 7.73 6.429 11.57 1.164 2.548 2.676 3.205 5.315 3.2 42.961-.094 85.923-.092 129.79-.274z"
        opacity="1"
    ></path>
    <path
        class="icon-mid-white-color-change"
        d="M155.82 61.612c14.448-3.82 26.693-.575 37.021 9.732 8.674 8.655 13.807 25.13 6.456 40.763-1.337 2.843-1.214 4.612 1.07 6.902 3.707 3.717 3.554 8.733.18 11.902-2.928 2.75-8.405 2.785-11.539-.563-2.532-2.704-4.495-2.083-7.348-.739-21.54 10.15-47.995-3.528-51.473-26.995-2.851-19.236 7.451-35.022 25.632-41.002m12.231 55.363l5.401-1.613c-4.799-5.717-6.059-11.07-2.85-14.06 5.191-4.837 10.192-2.289 14.613 1.718 3.068-5.235 1.612-9.96-.232-14.624-3.178-8.037-12.605-13.501-21.178-12.361-7.668 1.02-16.65 9.456-17.762 16.683-1.967 12.788 7.94 24.144 22.008 24.257zM225.22 153.74c4.44 8.032 1.615 13.255-6.74 13.256-59.665.007-119.329.006-178.993 0-7.103 0-9.218-2.35-8.46-9.425.37-3.447 2.276-5.398 5.821-5.551 1.165-.05 2.333-.02 3.5-.02 59.164 0 118.328-.017 177.491.06 2.362.004 4.721.9 7.38 1.68zM85 212c44.981 0 89.463-.005 133.944.006 6.935.002 10.158 4.245 7.782 10.792-.617 1.7-2.825 2.98-4.553 4.049-.853.527-2.277.15-3.442.15-59.808.003-119.617.006-179.425-.001-6.792 0-8.441-1.636-8.304-8.102.104-4.874 2.04-6.862 7.018-6.876C53.513 211.973 69.007 212 85 212zM81.66 84.7c2.59-6.441 5.04-12.525 7.307-18.676 1.617-4.39 4.93-6.033 9.24-5.975 4.371.06 6.98 2.742 8.45 6.588a8509.427 8509.427 0 0115.213 40.132c1.853 4.921 3.694 9.852 5.36 14.838 1.725 5.163-.095 9.452-4.443 11.028-4.553 1.651-8.8-.72-10.765-6.008-2.834-7.627-2.834-7.627-11.103-7.628-2.666 0-5.38.321-7.99-.067-5.301-.79-8.03 1.326-9.712 6.378-2.302 6.917-6.234 9.125-11.13 7.233-5.002-1.932-6.304-6.945-3.738-13.5 4.429-11.313 8.734-22.674 13.31-34.343m11.182 17.138l10.539 1.587-5.962-14.578c-1.696 4.666-3.074 8.456-4.577 12.99zM178.906 182c1.984 0 3.484-.022 4.983.006 5.407.102 7.167 2.04 7.11 7.796-.054 5.268-1.888 7.181-7.214 7.184-48.48.022-96.959.021-145.439.001-5.576-.002-7.357-1.91-7.345-7.554.013-5.571 1.809-7.42 7.479-7.422 46.647-.018 93.294-.01 140.426-.011zM46.004 108.235c-.004 5.966-.135 11.461.033 16.946.149 4.83-2.776 7.006-6.783 7.686-3.98.676-7.088-1.094-8.203-5.28-.503-1.888-.993-3.854-1.002-5.786-.078-16.804-.071-33.61-.034-50.413.018-8.064 3.339-11.456 11.499-11.345 7.427.102 14.874.34 22.266 1.025 5.064.469 5.401 4.65 5.17 8.628-.225 3.851-2.41 6.138-6.306 6.25-5.291.15-10.59.037-16.261.037v12.02c3.854 0 7.767-.037 11.68.008 5.565.064 9.749 3.73 9.7 8.427-.052 4.792-3.548 7.535-9.654 7.56-2.828.013-5.666.153-8.483-.03-2.896-.188-3.945 1.065-3.622 4.267z"
        opacity="1"
    ></path>
</svg>