<svg version="1.1" id="Layer_1" xmlns="http://www.w3.org/2000/svg" xmlns:xlink="http://www.w3.org/1999/xlink" x="0px" y="0px"
	 width="100%" viewBox="0 0 256 256" enable-background="new 0 0 154 154" xml:space="preserve">
    <style>
        .icon-mid-white-color-change{
            fill: #666467;
        }
        @media (prefers-color-scheme: dark) {
            .icon-mid-white-color-change{
                fill: #afafaf;
            }
        }
    </style>
    <path
        class="icon-mid-white-color-change"
        d="M76.469 257C76 252.211 76 247.423 76 242.086h44.632v-17.643c-14.158-2.392-27.527-7.47-39.935-14.64C61.101 198.48 45.152 183.31 33.714 163.5c-7.07-12.246-12.006-25.143-14.994-38.946-3.695-17.076-3.658-34.136-.324-51.152 3.184-16.256 9.367-31.38 18.484-45.304 1.913-2.92 3.357-2.931 5.785-.963 3.05 2.474 6.265 4.744 9.676 7.303-15.51 22.125-22.172 46.525-20.115 72.795 1.952 24.943 11.79 46.953 28.37 65.905 31.04 35.479 93.14 54.048 147.898 17.253l9.053 12.862c-15.505 10.751-31.954 17.743-50.244 21.194v17.333h44.696v14.752c-45.02.467-90.04.467-135.53.467z"
        opacity="1"
    ></path>
    <path
        class="icon-mid-white-color-change"
        d="M163.531 1c2.566 1.007 4.57 2.504 6.778 2.915 4.34.809 6.336 2.8 5.752 7.376-.335 2.623-.06 5.323-.06 7.989-.001 9.556-2.147 11.46-12.05 11.784-6.239.204-12.374.941-17.816 4.81-5.745 4.083-8.89 9.788-8.905 16.316-.017 7.54-1.523 12.678-8.576 17.158-8.944 5.681-14.064 14.691-12.4 27.733-7.203-5.108-13.435-9.177-19.231-13.794-2.692-2.144-2.578-5.484-.928-8.646 6.466-12.397 1.062-24.466-8.001-29.66C82.688 41.883 76.059 40.92 69.979 39c-.747-.236-1.501-.446-4.044-1.197 6.469-6.09 11.767-11.822 17.813-16.61C95.23 12.097 108.204 5.83 122.664 2.876c.554-.113 1.007-.722 1.421-1.488C137.021 1 150.042 1 163.531 1z"
        opacity="1"
    ></path>
    <path
        class="icon-mid-white-color-change"
        d="M46.91 87.765c.478-12.727 4.803-23.873 10.186-34.657.528-1.057 2.768-2.113 3.925-1.86 5.916 1.3 11.781 2.882 17.578 4.648 5.663 1.727 8.075 6.894 5.347 12.031-6.14 11.563-1.654 22.36 8.225 29.154 9.108 6.264 18.474 12.156 27.54 18.48 2.282 1.593 4.158 4.018 5.665 6.41 2.015 3.199 3.46 6.753 5.2 10.128 3.706 7.191 2.157 12.04-3.068 17.845-2.554 2.837-5.413 5.4-8.784 8.728 11.733 9.573 22.205 19.832 18.142 37.918-6.544-1.23-13.546-2.024-20.24-3.91-17.03-4.795-31.839-13.82-43.875-26.632-14.504-15.44-23.874-33.72-25.69-55.172-.635-7.504-.166-15.102-.15-23.111zM187.76 33.493c1.188-6.987 2.196-13.626 3.295-20.865 10.81 5.905 20.87 13.224 28.883 24.066-10.234 12.18-20.558 24.485-30.903 36.774-8.25 9.799-10.786 29.973-.072 41.047 5.056 5.227 11.674 5.805 18.177 6.402 10.364.952 20.773 1.414 31.673 2.116-3.302 13.797-9.466 25.697-18.596 37.13-4.503-3.656-9.2-7.168-13.537-11.08-4.07-3.672-7.641-7.894-11.687-11.595-1.106-1.012-3.154-1.488-4.73-1.409-7.856.396-13.633-3.276-17.035-9.794-7.437-14.25-19.578-20.033-34.819-20.128-4.842-.03-6.71-1.872-7.898-6.078-2.616-9.254-.238-16.664 8.7-21.397 8.722-4.619 11.533-12.256 11.589-20.838.068-10.353 3.443-12.32 13.255-12.771 6.792-.313 13.099-1.757 18.526-5.915 1.906-1.46 3.347-3.528 5.18-5.665zM156.74 126.255c5.368 8.786 10.58 17.215 20.34 21.307 1.062.445 2.132 1.342 3.17 1.301 8.245-.325 12.463 5.962 17.715 10.56l11.807 10.336c-7.628 12.233-40.37 26.91-57.775 25.756-1.181-13.309-.058-27.75-13.686-37.027 10.467-11.787 10.932-23.962 2.273-36.696 6.82-2.284 11.351.985 16.156 4.463z"
        opacity="1"
    ></path>
    <path
        class="icon-mid-white-color-change"
        d="M196.004 97.622c-2.26-11.102 5.519-17.12 11.063-24.086 6.264-7.867 12.784-15.531 19.217-23.264.402-.484 1.01-.797 2.46-1.908 2.504 5.444 5.178 10.417 7.125 15.66 4.882 13.142 6.635 26.815 6.157 40.81-.086 2.525-.636 4.365-3.594 4.135-11.672-.912-23.332-1.985-35.012-2.767-5.322-.357-6.972-3.577-7.416-8.58z"
        opacity="1"
    ></path>
</svg>