<svg version="1.1" id="Layer_1" xmlns="http://www.w3.org/2000/svg" xmlns:xlink="http://www.w3.org/1999/xlink" x="0px" y="0px"
	 width="100%" viewBox="0 0 256 256" enable-background="new 0 0 154 154" xml:space="preserve">
    <style>
        .icon-mid-white-color-change{
            fill: #666467;
        }
        @media (prefers-color-scheme: dark) {
            .icon-mid-white-color-change{
                fill: #afafaf;
            }
        }
    </style>
    <path
        class="icon-mid-white-color-change"
        d="M257 106c0 15.02 0 30.042-.398 45.476-.769.915-1.38 1.376-1.476 1.926-3.822 21.92-13.2 41.396-27.464 58.198-19.278 22.708-43.672 37.42-73.063 43.46-.959.196-1.737 1.273-2.599 1.94H1c0-50.02 0-100.042.398-150.45.733-.727 1.296-1.025 1.37-1.415C6.45 85.804 13.882 68.162 25.818 52.4c19.785-26.128 45.518-42.764 77.65-49.467.937-.195 1.692-1.27 2.532-1.934 15.02 0 30.042 0 45.45.398.888.768 1.347 1.376 1.897 1.473 21.863 3.878 41.407 13.03 58.168 27.369 22.669 19.392 37.748 43.624 43.55 73.23.183.934 1.27 1.69 1.935 2.53m-24.996-7.433c-6.066-21.396-18.148-39.102-35.178-52.896C175.784 28.625 151.4 20.6 123.964 21.88c-18.957.885-36.4 6.115-52.193 16.29-21.677 13.967-36.75 33.16-45.012 57.888-4.166 12.467-5.346 25.234-5.57 37.992-.568 32.487-.192 64.99-.177 97.485 0 1.623.163 3.245.265 5.143 1.576.121 2.864.305 4.152.306 33.496.016 66.995.272 100.485-.152 9.465-.12 19.079-1.48 28.323-3.592 24.932-5.694 45.23-19.234 60.456-39.615 21.205-28.385 26.417-60.097 17.311-95.059z"
        opacity="1"
    ></path>
    <path
        class="icon-mid-white-color-change"
        d="M164.996 101.774c-1.54 12.307-8.217 20.95-17.178 28.276-6.907 5.646-12.921 11.591-12.003 21.947.602 6.792-2.905 9.038-11.16 9.002-6.729-.03-9.098-2.527-9.7-9.111-1.461-16.02 6.133-27.198 18.763-35.668 4.572-3.066 7.358-7.322 8.139-12.44 1.155-7.57-8.742-14.342-17.412-12.527-5.936 1.243-10.496 4.046-13.819 9.304-2.366 3.743-5.764 5.376-10.668 3.652-4.784-1.682-6.826-4.361-7.038-9.39-.432-10.217 7.246-18.199 18.085-21.524 15.555-4.773 31.222-4.255 44.7 6.167 6.742 5.213 9.66 13.1 9.29 22.312zM114.708 176.794c6.855-6.211 14.303-6.302 20.073-.507 5.426 5.45 5.72 13.123.72 18.713-5.124 5.726-12.864 6.653-18.704 2.24-6.291-4.752-7.254-12.989-2.089-20.446z"
        opacity="1"
    ></path>
</svg>