<svg version="1.1" id="Layer_1" xmlns="http://www.w3.org/2000/svg" xmlns:xlink="http://www.w3.org/1999/xlink" x="0px" y="0px"
	 width="100%" viewBox="0 0 256 256" enable-background="new 0 0 154 154" xml:space="preserve">
    <style>
        .icon-mid-white-color-change{
            fill: #666467;
        }
        @media (prefers-color-scheme: dark) {
            .icon-mid-white-color-change{
                fill: #afafaf;
            }
        }
    </style>
    <path
      class="icon-mid-white-color-change"
      d="M114.469 257c-1.734-.987-2.854-2.338-4.285-2.905-17.705-7.018-22.92-23.494-20.588-39.752 3.265-22.752 11.721-44.063 16.791-66.278 1.674-7.333 3.027-14.841 3.463-22.332.555-9.526-4.473-14.758-13.984-14.563-6.157.127-12.287 1.804-18.415 2.868-1.688.293-3.325.882-5.369 1.44 1.062-5 1.944-9.462 3.013-13.88.18-.747 1.043-1.604 1.792-1.9 16.052-6.366 32.07-13.236 49.797-12.59 11.163.406 21.773 2.805 29.851 11.815 7.572 8.445 9.225 18.195 8.083 28.983-2.633 24.87-12.584 47.887-17.984 72.042-1.534 6.863-2.23 13.996-2.5 21.036-.258 6.686 3.72 10.9 10.146 11.92 6.881 1.091 13.68.769 20.304-1.68 2.28-.843 4.643-1.467 7.99-2.51-1.14 5.187-2.005 9.734-3.228 14.182-.262.953-1.707 1.836-2.799 2.266-8.391 3.306-16.833 6.48-25.246 9.73-.867.336-1.646.9-2.383 1.732-11.272.376-22.626.376-34.45.376zM165.531 1c1.497 1.009 2.357 2.335 3.577 2.978 18.092 9.533 23.08 31.68 9.353 46.747-12.249 13.445-33.15 14.042-46.993 2.276-17.593-14.953-11.798-41.893 9.8-50.214.405-.156.66-.703.858-1.427C149.688 1 157.376 1 165.53 1z"
      opacity="1"
    ></path>
</svg>