<svg version="1.1" id="Layer_1" xmlns="http://www.w3.org/2000/svg" xmlns:xlink="http://www.w3.org/1999/xlink" x="0px" y="0px"
	 width="100%" viewBox="0 0 512 512" enable-background="new 0 0 154 154" xml:space="preserve">
    <path
      fill="#666467"
      d="M137 353c94.99 0 189.48.044 283.971-.051 12.989-.013 24.167 4.884 34.373 12.07 14.513 10.217 23.03 24.784 25.37 42.092 3.722 27.534-7.835 53.073-33.04 66.63-9.691 5.213-19.88 7.354-30.89 7.34-107.49-.134-214.978.016-322.467-.16-22.805-.036-40.294-10.86-52.147-29.917-12.646-20.332-12.965-42.224-2.804-63.361 8.516-17.714 23.493-28.91 42.887-33.521 3.003-.714 6.162-1.051 9.252-1.073C106.503 352.94 121.502 353 137 353m-62.507 85.993c7.715 7.983 17.723 9.932 28.11 9.944 94.779.107 189.557.096 284.335.02 11.106-.01 22.25-.153 33.31-1.055 21.07-1.719 33.77-23.138 25.462-43.375-6.037-14.701-18.745-19.409-33.246-19.433-103.606-.175-207.213-.141-310.82.038-5.623.01-11.583 1.054-16.804 3.102-20.572 8.07-24.975 34.618-10.347 50.759zM397.08 212.15c-5.184 21.964-15.51 40.784-29.493 57.857-16.01 19.548-36.193 33.26-59.459 42.246-9.841 3.802-20.49 5.939-30.968 7.537-8.951 1.365-18.186 1.176-27.294 1.147-18.042-.059-35.153-4.514-51.561-11.853-18.032-8.065-34.07-19.06-47.318-33.71-18.71-20.692-31.94-44.434-35.809-72.354-1.832-13.225-2.722-26.823-1.899-40.12 1.394-22.521 9.229-43.316 21.038-62.57 10.518-17.15 24.202-31.533 40.73-42.662 17.024-11.464 35.729-19.582 56.37-22.786 27.678-4.296 54.712-2.483 80.65 8.334 13.683 5.706 27.004 12.603 37.684 23.199 9.462 9.388 19.405 18.655 26.995 29.477 10.696 15.249 18.31 32.388 21.663 50.979 3.91 21.674 4.33 43.345-1.33 65.28M146 182.43c.36 4.767.213 9.637 1.164 14.281 5.975 29.155 20.496 53.045 44.737 70.617 25.478 18.468 54.167 24.687 84.812 19.374 26.476-4.59 48.579-17.778 65.89-38.715 22.9-27.696 30.3-59.456 23.183-94.124-7.234-35.243-28.102-60.762-60.21-76.973-16.467-8.314-33.925-11.583-52.415-11.054-14.972.429-29.044 3.716-42.498 9.922-20.784 9.587-37.09 24.238-49.021 43.822-11.6 19.04-16.738 39.65-15.642 62.85z"
    />
    <path
      fill="#666467"
      d="M134 401c20.303 0 40.106-.01 59.909.005 9.499.007 15.1 6.052 15.09 16.224-.007 9.748-5.724 15.762-15.064 15.765-32.617.014-65.233.014-97.85 0-9.499-.003-15.09-6.05-15.085-16.237.004-9.682 5.779-15.741 15.057-15.753C108.538 400.988 121.02 401 134 401zM272.52 99.072c.321 20.978.755 41.62.268 62.241-.15 6.355 2.843 9.473 7.1 12.796 9.576 7.475 19.083 15.046 28.447 22.785 8.692 7.185 6.292 17.606 1.311 23.861-4.88 6.13-15.832 6.891-22.888 1.402-13.127-10.21-26.126-20.587-39.087-31.007-4.599-3.697-6.87-8.345-6.79-14.642.298-23.633.119-47.272.12-70.909 0-8.62 4.424-15.132 11.227-16.534 9.238-1.904 16.014 1.362 20.291 10.007z"
    />
</svg>