<svg version="1.1" id="Layer_1" xmlns="http://www.w3.org/2000/svg" xmlns:xlink="http://www.w3.org/1999/xlink" x="0px" y="0px"
	 width="100%" viewBox="0 0 256 256" enable-background="new 0 0 154 154" xml:space="preserve">
    <path
        fill="#850202"
        d="M135.54 1c1.947 1.002 3.302 2.397 4.94 2.948 26.044 8.763 52.124 17.42 78.197 26.097 6.79 2.259 8.317 4.343 8.315 11.572-.005 22.156-.027 44.31-.497 67.024-3.09.825-5.725 1.308-8.364 1.324-17.487.11-34.974.118-52.723-.04-5.089-4.545-8.085-4.453-13.58.17-10.425-.05-20.362-.079-30.35-.367-.132-.418-.213-.575-.178-1.188.035-7.151-.046-13.846-.01-20.998.036-9.153-.045-17.849-.008-26.991-.036-10.171-.19-19.896-.343-29.622.025-6.234-.3-12.498.208-18.692.292-3.554 1.938-6.997 2.914-10.863C127.693 1 131.386 1 135.539 1z"
        opacity="1"
    ></path>
    <path
        fill="#A10909"
        d="M197.12 235.06c-15.741 5.35-31.498 10.657-47.214 16.08-4.433 1.529-8.747 3.399-13.011 5.486-3.92.374-7.944.374-12.432.374-5.074-6.87-3.134-14.613-2.892-22.528 22.92-.468 45.329-.505 67.736-.426 2.606.01 5.21.66 7.813 1.014z"
        opacity="1"
    ></path>
    <path
        fill="#9A0505"
        d="M197.506 235.036c-2.99-.33-5.593-.98-8.199-.99-22.407-.079-44.816-.042-67.681-.038-.522-2.019-.587-4.04-.482-6.855.133-4.62.095-8.444.156-12.693.246-2.767.395-5.108 1.025-7.453 35.158.003 69.835.007 104.511.012.056 3.652-.143 7.33.226 10.95.541 5.304-2.505 8.198-6.704 9.752-7.378 2.73-14.966 4.892-22.852 7.315z"
        opacity="1"
    ></path>
    <path
        fill="#DA9A9F"
        d="M120.476 30.962c.617 9.693.77 19.418.326 29.59-25.277.448-49.956.45-74.636.451-.054-7.477-.154-14.954-.147-22.431.004-4.603 3.005-7.551 7.66-7.557 22.111-.027 44.222-.017 66.797-.053z"
        opacity="1"
    ></path>
    <path
        fill="#E09C9F"
        d="M46.095 61.467c24.75-.465 49.43-.467 74.59-.47.56 8.696.64 17.392.124 26.546-25.28.457-49.962.458-74.644.46-.047-8.691-.094-17.382-.07-26.536z"
        opacity="1"
    ></path>
    <path
        fill="#E59C9E"
        d="M46.093 88.466c24.754-.465 49.436-.466 74.599-.467.562 6.695.643 13.39.127 20.542-8.177.458-15.76.322-23.332.56-1.865.058-3.692 1.337-5.854 1.895-6.047-5.665-12.812-5.814-14.722.034-.942 2.887.796 6.649 1.297 9.867H45.945c.025-10.656.05-21.312.148-32.431z"
        opacity="1"
    ></path>
    <path
        fill="#8B0404"
        d="M45.499 120.934c11.617-.037 22.789-.037 32.71-.037-.502-3.218-2.24-6.98-1.298-9.867 1.91-5.848 8.675-5.699 14.862.264 3.994 3.957 7.566 7.424 11.06 10.966 4.044 4.1 4.35 7.137 1.126 12.56-3.744 3.708-7.22 7.258-10.967 10.978-7.33 7.514-12.053 7.645-15.756 1.745.307-3.753.7-7.156 1.078-10.44H45.953c-2.493-.044-4.994.025-7.477-.155-4.452-.325-7.358-3.422-7.453-7.745-.1-4.548 2.875-7.827 7.547-8.154 2.152-.15 4.321-.06 6.929-.115z"
        opacity="1"
    ></path>
    <path
        fill="#D58282"
        d="M46.172 181.99c-.051-4.36-.103-8.718.335-13.55 5.114-.795 9.736-1.361 14.363-1.394 16.115-.114 32.233.093 48.347-.09 12.088-.136 12.194 2.891 11.557-12.505.001-2.796-.038-5.156-.032-7.968.015-3.824-.013-7.196-.001-10.983.205-1.229.369-2.044.669-2.45.117 16.581.1 32.753-.356 48.925-25.252.006-50.067.01-74.882.014z"
        opacity="1"
    ></path>
    <path
        fill="#C46B6C"
        d="M121.844 207.01c-.149 2.342-.298 4.683-.951 7.48-25.247.47-49.989.485-74.731.5-.047-4.028-.094-8.054.39-12.538a2139.71 2139.71 0 0174.97-.054c.13 1.817.226 3.214.322 4.612z"
        opacity="1"
    ></path>
    <path
        fill="#DB8989"
        d="M120.734 154.887c.677 14.96.57 11.933-11.517 12.07-16.114.182-32.232-.025-48.347.09-4.627.032-9.25.598-14.289.933-.467-4.015-.518-8.042-.036-12.526 25.085-.493 49.637-.53 74.19-.567z"
        opacity="1"
    ></path>
    <path
        fill="#BC5F60"
        d="M46.09 215.42c24.814-.445 49.556-.46 74.705-.505.444 3.794.482 7.618.326 11.805-21.461.335-42.735.002-63.994.432-8.456.17-12.291-3.268-11.038-11.732z"
        opacity="1"
    ></path>
    <path
        fill="#C97373"
        d="M121.487 201.98l-74.863.014c-.507-3.366-.555-6.73-.073-10.547a2058.15 2058.15 0 0174.963-.01c.009 3.82-.01 7.18-.027 10.542z"
        opacity="1"
    ></path>
    <path
        fill="#CF7A7A"
        d="M121.488 190.978c-24.802.006-49.604.012-74.864.016-.506-2.706-.553-5.41-.527-8.56 24.89-.449 49.705-.453 74.977-.008.442 3.15.428 5.852.414 8.552z"
        opacity="1"
    ></path>
    <path
        fill="#E09090"
        d="M120.774 154.45c-24.592.474-49.144.511-74.154.546-.506-2.047-.554-4.091-.07-6.567 10.613-.466 20.692-.5 30.772-.535 3.617 5.55 8.34 5.418 16.104-1.903l27.272.944c.038 2.36.077 4.72.076 7.516z"
        opacity="1"
    ></path>
    <path
        fill="#E49595"
        d="M77.236 147.543c-9.994.385-20.073.42-30.611.453-.518-3.332-.578-6.664-.655-10.445 11.065-.448 22.147-.448 32.344-.448-.378 3.284-.77 6.687-1.078 10.44z"
        opacity="1"
    ></path>
    <path
        fill="#8C0303"
        d="M121.514 191.437c-.012-3.16.002-5.86-.004-9.012 0-16.622.017-32.794-.025-49.812-.025-8.106.01-15.366.044-22.625 9.937.028 19.874.056 30.194.56.281 10.458.18 20.439-.058 30.742-.018 6.956 2.683 10.345 7.68 10.126 4.987-.218 7.477-4.012 6.944-10.825-.117-3.065.929-4.392 3.813-4.098 1.466.149 2.988.035 4.456-.168 4.395-.61 7.064-3.585 6.778-7.68-.299-4.265-2.76-6.607-6.977-7.002-2.418-.226-4.856-.244-7.325-.357l-1.364-11.16c17.487-.043 34.974-.052 52.461-.16 2.639-.017 5.274-.5 8.307-.858.437 32.265.48 64.621.46 97.444-34.738.462-69.415.458-104.573.455-.577-1.395-.673-2.792-.804-4.609-.016-3.78.002-7.141-.007-10.961z"
        opacity="1"
    ></path>
    <path
        fill="#E99D9D"
        d="M165.408 109.925c.699 3.776 1.136 7.352 1.626 11.36 2.469.114 4.907.132 7.325.358 4.217.395 6.678 2.737 6.977 7.002.286 4.095-2.383 7.07-6.778 7.68-1.468.203-2.99.317-4.456.168-2.884-.294-3.93 1.033-4.292 4.112-5.049.382-9.53.373-14.01.363.102-9.981.204-19.962.411-30.397 5.112-5.099 8.108-5.19 13.197-.646zM121.479 109.728c.016 7.52-.02 14.779-.13 22.476-.24 1.252-.403 2.067-1.047 3.32-5.679.005-10.877-.428-16.075-.86 2.957-5.267 2.65-8.304-1.394-12.404-3.494-3.542-7.066-7.009-10.743-10.806 1.705-1.016 3.532-2.295 5.397-2.354 7.572-.237 15.155-.1 23.215-.103.563.156.644.313.777.73z"
        opacity="1"
    ></path>
    <path
        fill="#E49595"
        d="M103.96 134.82c5.465.276 10.663.709 16.3 1.118.469 3.349.497 6.721.482 10.545-8.9.145-17.755-.162-27.045-.662 3.042-3.743 6.518-7.293 10.262-11z"
        opacity="1"
    ></path>
    <path
        fill="#DB8989"
        d="M151.665 141.29c4.616-.312 9.096-.303 14.056-.308 1.1 6.422-1.39 10.216-6.376 10.434-4.997.219-7.698-3.17-7.68-10.126z"
        opacity="1"
    ></path>
</svg>