<svg version="1.1" id="Layer_1" xmlns="http://www.w3.org/2000/svg" xmlns:xlink="http://www.w3.org/1999/xlink" x="0px" y="0px"
	 width="100%" viewBox="0 0 512 512" enable-background="new 0 0 154 154" xml:space="preserve">
    <path
      fill="#FCD436"
      d="M144 273c-32.319 0-64.137.003-95.956-.001-9.548-.002-15.048-6.052-15.044-16.525.003-9.516 5.815-15.473 15.116-15.473 79.13-.002 158.26-.001 237.39-.001h4.532v32H144zM451 353c5.664 0 10.828-.027 15.992.006 7.59.048 13.67 6.46 14.085 14.054.417 7.635-1.733 13.596-9.028 16.886a11.758 11.758 0 0 1-4.688 1.012c-75.298.047-150.595.04-225.893.034-.648 0-1.297-.085-1.95-.13V353H451zM287.69 182.807c-11.328 9.396-24.391 11.549-38.044 10.069-13.27-1.439-23.704-8.414-31.664-19.056-11.066-14.792-11.918-31.262-5.747-47.73 5.747-15.335 22.28-28.778 41.028-29.195 11.945-.266 23.036 1.476 32.645 9.092 11.381 9.02 18.303 20.261 19.2 35.21 1.005 16.763-4.6 30.41-17.418 41.61zM417 263.68c-2.777 20.453-17.758 37.52-38.737 40.953-26.422 4.324-49.608-8.907-55.924-35.184-5.713-23.766 1.573-42.158 23.433-55.176 15.586-9.282 41.121-7.453 55.97 6.764 12.276 11.753 16.599 25.796 15.258 42.643zM152.48 416.98c-11.401-2.488-20.807-7.606-28.19-16.188-6.879-7.998-10.832-17.081-11.37-27.792-.61-12.152 1.425-23.496 9.158-33.132 9.049-11.275 20.378-18.265 35.433-18.993 16.165-.783 29.566 4.225 40.227 16.384 6.958 7.936 10.902 17.067 11.318 27.776.45 11.556-1.175 22.347-8.414 31.91-9.523 12.58-21.506 20.201-37.714 20.06-3.332-.03-6.663-.007-10.449-.025zM33 147.66c-.742-8.21 1.513-14.417 9.167-17.682 1.303-.556 2.798-.937 4.204-.939 43.314-.048 86.627-.04 129.941-.028.804 0 1.608.136 2.169.187V161h-4.362c-42.148 0-84.295.003-126.443-.003-7.764 0-13.369-4.942-14.676-13.336zM336 147.946V129h129.734c9.886.001 15.274 5.936 15.266 16.799-.007 9.368-5.9 15.2-15.37 15.2-41.638.002-83.276.001-124.914.001h-5.419c.25-4.471.476-8.518.703-13.054zM36.705 380.212c-6.996-8.054-4.349-23.158 5.6-26.307 1.064-.337 2.148-.86 3.225-.865 12.31-.062 24.62-.04 36.95-.04v31.995c-12.32 0-24.955.257-37.564-.205-2.694-.1-5.291-2.809-8.21-4.578zM448 261.893V241.02c6.663 0 14.268-.447 21.792.144 5.866.46 10.872 7.613 11.274 13.681.517 7.806-1.647 13.936-9.26 17.174-1.443.614-3.119.914-4.694.938-6.618.102-13.24.043-19.978.043.314-3.851.59-7.237.866-11.107z"
    />
</svg>