<svg version="1.1" id="Layer_1" xmlns="http://www.w3.org/2000/svg" xmlns:xlink="http://www.w3.org/1999/xlink" x="0px" y="0px"
	 width="100%" viewBox="0 0 1516 1516" enable-background="new 0 0 154 154" xml:space="preserve">
    <path
        fill="#CD1F24"
        d="M747 1c8.688 0 17.375 0 26.45.43 1.403.797 2.407 1.452 3.433 1.487 11.758.403 23.52.713 35.281 1.046 3.509.1 7.044-.046 10.52.347 6.303.714 12.56 1.815 18.853 2.635 15.744 2.053 31.617 3.377 47.214 6.221 19.36 3.531 38.688 7.583 57.677 12.716 22.751 6.15 45.422 12.864 67.589 20.833 22.846 8.212 45.044 18.227 67.695 27.708 3.233 1.347 6.297 2.439 9.328 3.545-.033.015-.03-.057-.095.354.667.486 1.399.561 2.097.649-.034.012-.035-.06-.09.344.673.486 1.4.567 2.091.658-.035.01-.04-.063-.079.336.68.485 1.397.571 2.08.666-.036.008-.043-.065-.073.329.683.484 1.396.575 2.073.674-.037.007-.046-.068-.064.32.689.484 1.395.58 2.063.684-.04.007-.05-.071-.049.307.697.483 1.393.587 2.048.698-.042.007-.054-.076-.032.305.705.48 1.388.578 2.033.685-.036.008-.046-.067-.058.334.69.483 1.39.565 2.057.66-.034.011-.037-.06-.08.36.673.485 1.39.552 2.075.64-.033.022.003-.049-.19.256.215.52.621.736 1.26 1.215 9.77 5.402 19.309 10.543 28.997 15.987.76.384 1.368.463 1.937.55-.039.01-.054-.069-.032.332.702.48 1.383.561 2.031.66-.033.017-.01-.054-.175.305.964.807 2.092 1.256 3.178 1.711-.042.007-.054-.077-.04.33.699.483 1.383.557 2.035.653-.033.02-.006-.052-.186.305.958.805 2.095 1.254 3.192 1.71-.042.007-.054-.076-.04.344.697.484 1.379.548 2.03.64-.032.026.008-.046-.22.3.937.799 2.103 1.25 3.23 1.71-.038.007-.048-.07-.056.36.687.487 1.38.543 2.042.627-.031.028.012-.044-.197.275.212.568.633.817 1.305 1.294 10.68 7.01 21.11 13.79 31.734 20.938.86.398 1.526.431 2.16.49-.032.027.001-.047-.199.324.286.482.771.592 1.216.703-.04.002-.04-.08-.131.302.992.81 2.076 1.238 3.126 1.68-.034.012-.025-.06-.161.334.97.807 2.075 1.22 3.149 1.658-.032.026.001-.048-.201.326.285.482.772.59 1.219.699-.04.001-.04-.079-.135.316.986.808 2.068 1.222 3.118 1.66-.032.024-.002-.05-.195.316.288.481.77.597 1.21.714-.044.001-.046-.086-.107.303 1.003.809 2.067 1.23 3.098 1.67-.033.019-.012-.053-.185.335.954.804 2.082 1.22 3.177 1.661-.03.026.003-.048-.201.33.284.481.772.586 1.22.693-.038.002-.037-.076-.146.32.98.809 2.07 1.22 3.127 1.657-.031.026.003-.048-.206.338.282.484.773.58 1.228.682-.036.005-.017-.065-.221.254.215.568.635.816 1.304 1.287 4.734 3.681 9.22 7.14 13.878 10.953.799.389 1.423.424 2.017.485-.031.027.002-.048-.21.35.28.486.773.574 1.23.667-.035.006-.022-.066-.209.306.292.483.77.593 1.207.705-.042.002-.042-.082-.127.32.99.809 2.065 1.217 3.108 1.652-.031.027.003-.048-.21.356.28.488.773.57 1.23.66-.035.007-.019-.064-.219.315.287.483.773.587 1.222.692-.037.001-.03-.072-.186.294 1.293 1.129 2.744 1.893 4.163 2.683-.03.027.003-.048-.21.358.279.488.772.569 1.23.657-.035.008-.019-.063-.22.323.285.484.772.582 1.222.682-.036.002-.028-.07-.187.298.303.483.764.597 1.183.712-.044.002-.045-.084-.112.319.997.81 2.06 1.216 3.093 1.65-.03.028.004-.047-.21.364.28.488.773.565 1.23.651-.035.009-.017-.062-.228.335.281.486.774.574 1.23.668-.035.006-.023-.066-.207.311.292.483.77.59 1.209.696-.038 0-.032-.074-.178.296 1.298 1.13 2.742 1.89 4.154 2.68-.031.028.005-.048-.21.363.28.488.773.565 1.23.65-.035.01-.016-.061-.23.346.28.488.773.568 1.231.656-.035.008-.02-.063-.22.332.284.486.771.576 1.222.67-.036.006-.024-.066-.206.313.294.483.769.588 1.206.693-.039.001-.035-.075-.163.289.315.483.759.601 1.16.72-.04 0-.037-.083-.129.294 1.317 1.133 2.727 1.888 4.107 2.674-.029.031.01-.045-.203.364.277.484.767.56 1.223.649-.035.012-.01-.058-.223.344.278.484.769.566 1.224.657-.035.01-.014-.06-.209.333.286.482.766.572 1.21.67-.035.006-.02-.064-.191.324.295.482.761.577 1.192.676-.036.006-.024-.065-.18.316.301.481.759.582 1.18.686-.036.004-.028-.068-.163.304.31.48.755.59 1.165.7-.036.003-.023-.068-.185.265 2.622 2.448 5.405 4.564 8.16 6.712-.029.032.012-.044-.202.364.276.484.767.56 1.222.649-.035.012-.01-.058-.223.35.277.486.767.562 1.223.65-.035.012-.01-.058-.223.35.278.485.768.561 1.223.65-.035.012-.01-.058-.223.347.278.484.768.564 1.224.654-.035.01-.014-.06-.213.345.283.484.765.564 1.213.655-.035.01-.014-.06-.214.34.284.484.767.568 1.214.66-.035.01-.016-.06-.204.34.288.483.764.567 1.204.66-.035.01-.015-.06-.205.33.287.482.765.574 1.207.673-.036.006-.023-.065-.184.324.3.483.76.577 1.184.676-.036.006-.024-.065-.18.322.3.483.758.578 1.18.678-.036.006-.024-.065-.179.312.302.481.76.585 1.18.692-.037.002-.032-.071-.154.304.315.481.753.588 1.154.696-.037.002-.033-.071-.152.298.317.481.753.592 1.151.705-.038.001-.035-.075-.137.288.324.48.75.597 1.136.715-.04.001-.038-.079-.125.284.33.48.747.597 1.125.716-.04 0-.038-.079-.125.287.33.48.747.595 1.126.71-.039.002-.037-.075-.134.296.325.48.748.59 1.135.702-.037.001-.034-.073-.146.3.32.48.751.59 1.146.7-.038.001-.035-.073-.146.305.32.482.75.586 1.145.693-.036.003-.03-.07-.156.308.313.482.753.585 1.157.692-.037.003-.031-.07-.158.31.313.482.753.584 1.157.69-.036.003-.03-.07-.16.318.31.482.753.578 1.16.68-.036.005-.025-.067-.176.322.304.483.758.577 1.176.677-.036.006-.024-.066-.179.323.302.483.758.577 1.179.677-.036.006-.024-.066-.18.329.302.483.758.573 1.18.67-.036.007-.022-.064-.19.331.296.484.76.572 1.19.669-.036.007-.021-.064-.192.331.295.484.76.572 1.191.669-.035.007-.021-.064-.19.343.294.485.759.564 1.188.654-.035.012-.013-.059-.215.348.282.485.766.563 1.215.652-.035.012-.012-.058-.219.35.28.485.767.56 1.216.656-.038.02.024-.039-.312.205 1.228 1.764 2.792 3.286 4.312 4.809-.044.001-.045-.087-.096.271.347.48.745.603 1.1.726-.042.001-.04-.083-.125.289.333.482.75.593 1.127.705-.039.001-.037-.077-.15.31.321.485.754.583 1.151.684-.036.004-.031-.07-.175.33.307.487.759.574 1.174.668-.035.006-.024-.066-.198.338.295.487.765.57 1.198.66-.035.008-.021-.063-.212.347.288.488.767.566 1.211.653-.035.009-.017-.062-.226.349.28.487.771.564 1.224.658-.038.018.018-.044-.319.203 1.229 1.764 2.794 3.28 4.32 4.797-.038.003-.037-.074-.138.312.325.485.751.584 1.141.685-.036.004-.031-.07-.175.33.307.487.759.574 1.174.667-.035.007-.025-.065-.196.344.296.488.763.567 1.195.655-.035.009-.018-.062-.223.349.283.487.77.564 1.223.65-.035.01-.016-.06-.23.35.28.487.773.563 1.227.658-.038.018.02-.043-.325.205.893 1.43 2.13 2.613 3.328 3.797-.04.002-.038-.076-.142.322.324.487.751.575 1.143.67-.036.006-.026-.065-.193.343.298.488.763.568 1.192.656-.035.009-.018-.062-.22.349.284.487.77.564 1.218.658-.039.019.02-.042-.316.19.493 1.192 1.323 2.15 2.36 3.347 1.776 1.919 3.346 3.6 4.859 5.648.342.521.742.674 1.098.827-.043 0-.04-.086-.127.307.33.485.747.578 1.129.676-.036.005-.027-.067-.185.344.302.488.76.565 1.181.66-.037.018.017-.044-.32.214.564 1.106 1.464 1.953 2.321 2.8-.043 0-.04-.087-.124.307.331.485.747.577 1.127.674-.036.006-.027-.065-.185.345.3.488.76.566 1.181.66-.037.018.017-.045-.318.215.564 1.106 1.463 1.953 2.32 2.8-.044-.001-.041-.088-.124.306.332.486.747.577 1.126.674-.036.007-.027-.065-.187.345.3.488.76.566 1.183.66-.037.018.016-.045-.32.218.564 1.106 1.464 1.949 2.323 2.791-.041 0-.038-.082-.14.322.325.487.75.57 1.138.67-.037.016.013-.048-.313.217.568 1.109 1.463 1.953 2.313 2.797-.044-.001-.04-.088-.122.311.332.487.746.573 1.124.668-.035.008-.022-.063-.2.348.293.487.764.564 1.197.658-.038.018.018-.044-.335.225.556 1.102 1.465 1.934 2.339 2.772-.036.005-.028-.068-.183.343.302.488.76.565 1.18.66-.038.018.016-.045-.327.223.561 1.104 1.465 1.94 2.331 2.778-.037.001-.033-.073-.168.336.31.488.756.566 1.163.663-.037.018.017-.045-.334.232.556 1.102 1.464 1.928 2.335 2.767-.036.014.008-.05-.297.235.578 1.115 1.459 1.946 2.298 2.776-.041 0-.038-.083-.136.32.326.488.749.57 1.135.67-.038.017.014-.046-.322.224.564 1.106 1.464 1.942 2.326 2.779-.038.001-.034-.075-.163.333.313.488.754.567 1.158.664-.037.018.017-.045-.335.233.556 1.103 1.464 1.927 2.335 2.765-.037.015.01-.049-.302.243.573 1.113 1.458 1.934 2.308 2.76-.036.006-.012-.062-.246.264.605 1.131 1.444 1.935 2.243 2.74-.04.002-.036-.078-.147.328.32.487.751.568 1.144.667-.037.018.016-.045-.327.227.229.782.8 1.293 1.326 1.798-.046-.005-.039-.098-.122.303.332.486.746.571 1.124.672-.037.016.012-.048-.323.24.563 1.107 1.46 1.925 2.322 2.758-.036.014.008-.05-.297.25.575 1.114 1.456 1.929 2.3 2.752-.035.008-.006-.06-.262.274.594 1.126 1.444 1.917 2.259 2.723-.036.013.004-.053-.286.269.581 1.118 1.45 1.916 2.284 2.73-.037.017.01-.049-.3.263.57 1.114 1.452 1.915 2.298 2.736-.036.02.015-.044-.314.254.564 1.109 1.458 1.918 2.314 2.748-.036.02.018-.044-.315.23.233.785.799 1.295 1.32 1.799-.045-.007-.03-.096-.162.267.647 1.144 1.425 1.924 2.166 2.708-.036.003-.02-.067-.22.292.616 1.135 1.433 1.91 2.213 2.704-.037.017.012-.047-.3.24.24.79.794 1.292 1.303 1.788-.045-.006-.03-.095-.163.268.646 1.144 1.424 1.924 2.167 2.708-.035.004-.019-.067-.222.291.615 1.135 1.433 1.911 2.215 2.705-.037.017.011-.048-.299.243.242.79.795 1.29 1.304 1.783-.044-.007-.03-.093-.177.284.637 1.14 1.421 1.905 2.17 2.688-.037.02.014-.045-.304.247.24.79.797 1.286 1.313 1.777-.041-.006-.026-.088-.196.286.628 1.139 1.425 1.904 2.186 2.69-.036.02.017-.044-.313.246.235.787.8 1.284 1.327 1.775-.038-.006-.02-.08-.23.257.945 1.797 2.102 3.256 3.223 4.725-.036.01-.005-.057-.257.265.265.802.783 1.283 1.26 1.757-.042-.006-.027-.088-.192.27.963 1.8 2.09 3.243 3.182 4.704-.036.02.012-.047-.293.26.245.792.795 1.279 1.308 1.76-.036-.005-.018-.076-.244.254.275.807.777 1.283 1.237 1.754-.043-.006-.03-.091-.177.27.97 1.804 2.088 3.245 3.17 4.702-.035.017.008-.049-.283.267.25.796.792 1.276 1.297 1.752-.036-.004-.017-.075-.252.261.273.806.78 1.276 1.25 1.742-.04-.005-.024-.082-.211.26.291.813.77 1.283 1.206 1.747-.043-.006-.03-.092-.176.255.309.816.763 1.286 1.172 1.75-.045-.007-.034-.098-.148.273.984 1.806 2.082 3.24 3.144 4.693-.036.019.011-.047-.294.265.245.794.795 1.274 1.31 1.753-.037-.002-.012-.07-.277.259.26.8.786 1.273 1.276 1.741-.037-.004-.018-.075-.25.271.274.807.78 1.269 1.25 1.728-.037-.003-.016-.073-.258.27.27.805.782 1.269 1.258 1.73-.037-.002-.015-.072-.262.269.268.805.783 1.269 1.262 1.73-.037-.001-.013-.07-.272.268.263.803.785 1.268 1.272 1.733-.036-.002-.011-.07-.28.265.26.801.788 1.268 1.28 1.734-.037 0-.01-.068-.287.263.256.8.79 1.269 1.287 1.737-.037 0-.008-.066-.294.262.252.798.791 1.268 1.293 1.738-.036 0-.004-.065-.3.242 1.582 3.792 3.459 7.277 5.297 10.76-.038-.003-.027-.08-.202.28.298.814.77 1.269 1.205 1.72-.037-.004-.021-.076-.237.278.281.81.777 1.265 1.237 1.72-.036 0-.007-.067-.285.245.922 2.464 2.121 4.616 3.28 6.764-.041-.005-.03-.087-.187.275.304.816.766 1.269 1.193 1.72-.036-.003-.01-.07-.271.22.25 1.45.76 2.608 1.297 4.074.353.441.68.574.966.706-.04-.002-.034-.082-.158.28.318.817.76 1.272 1.162 1.722-.038-.005-.023-.081-.211.274.957 2.479 2.103 4.603 3.213 6.723-.037-.004-.02-.076-.23.268.615 1.81 1.441 3.276 2.228 4.737-.038-.006-.022-.082-.217.266.622 1.813 1.439 3.278 2.215 4.737-.04-.007-.024-.086-.204.266.628 1.816 1.436 3.28 2.203 4.736-.042-.007-.026-.09-.196.287 1.632 4.486 3.435 8.597 5.2 12.703-.038-.004-.024-.078-.222.29 1.621 4.821 3.44 9.273 5.218 13.718-.04-.006-.026-.087-.202.29 1.963 6.162 4.102 11.946 6.199 17.72-.043-.01-.025-.095-.191.262.3 1.154.767 1.95 1.19 2.738-.043-.01-.023-.097-.2.291a287.237 287.237 0 006.33 20.518c1.144 3.427 1.955 6.63 2.635 10.261 2.68 11.921 5.491 23.414 8.291 35.314 7.354 33.861 12.351 67.666 15.067 101.815.155 1.95 1.028 3.843 1.697 6.272.153 3.662.035 6.826.284 9.961.071.895 1.205 1.705 1.851 2.554 0 11.688 0 23.375-.393 35.723a282.655 282.655 0 00-.572 20.81c.02 2.158.627 4.311.965 6.467 0 7.354 0 14.708-.429 22.441-.787 1.562-1.363 2.727-1.467 3.932-.421 4.932-.523 9.895-1.06 14.811-1.928 17.632-3.423 35.336-6.14 52.849-3.157 20.342-6.436 40.762-11.463 60.694-6.566 26.036-13.799 52.016-22.774 77.3-9.254 26.07-20.597 51.427-31.72 76.792-5.305 12.097-11.918 23.66-18.476 35.158-9.048 15.862-18.23 31.673-28.054 47.06-9.021 14.131-18.484 28.04-28.633 41.377-11.702 15.376-24.34 30.041-36.639 44.96-3.665 4.447-7.555 8.708-11.592 13.074-.695.225-1.142.43-1.588.584 0-.052.101-.065-.013.176-.398.445-.682.65-.969.817-.002-.037.07-.05 0 .216a2.81 2.81 0 01-.986.782c-.008-.022.039-.025.054.298-.363.782-.742 1.243-1.075 1.661.046-.041.142.037-.271.09-.487.696-.561 1.34-.67 1.955-.035-.027.042.016-.363-.197-.48.274-.555.76-.647 1.213-.017-.035.052-.001-.351-.212-.48.275-.557.76-.65 1.212-.015-.034.054-.002-.345-.208-.48.277-.56.76-.655 1.21-.014-.035.055-.006-.34-.2-.479.282-.564.758-.66 1.2-.013-.034.055-.009-.332-.19-.478.287-.57.757-.67 1.192-.01-.035.06-.015-.328-.175-.479.296-.57.753-.672 1.175-.01-.035.06-.015-.323-.174-.479.297-.574.753-.678 1.175-.008-.035.061-.019-.322-.165-.478.303-.574.75-.678 1.164-.008-.034.061-.018-.318-.164-.478.303-.577.751-.683 1.165-.007-.035.063-.021-.315-.156-.478.308-.578.75-.685 1.156-.007-.035.063-.021-.31-.155-.478.308-.583.75-.692 1.156-.005-.036.066-.025-.302-.145-.477.314-.587.747-.7 1.145-.003-.036.069-.029-.293-.134-.477.32-.592.746-.71 1.134 0-.037.072-.032-.283-.122-.479.322-.602.735-.727 1.106-.003-.042.08-.05-.221-.002-.805.387-1.308.724-1.81 1.003 0-.059.117-.07-.058.158-.377.756-.578 1.283-.868 2.113-.734.807-1.38 1.312-2.316 1.893-.745.68-1.2 1.285-1.676 2.101-.143.516-.368.66-1.094.563-.583.354-.768.79-.952 1.187 0-.038.077-.032-.283-.12-.475.328-.591.742-.71 1.12-.003-.037.07-.032-.293-.12-.475.326-.589.74-.706 1.12-.004-.037.068-.03-.298-.126-.477.322-.586.741-.7 1.125-.005-.035.066-.026-.308-.134-.477.317-.58.743-.69 1.134-.007-.035.063-.022-.312-.148-.477.31-.58.746-.688 1.148-.007-.035.063-.022-.315-.148-.478.31-.577.746-.685 1.147-.008-.035.062-.019-.32-.154-.477.305-.573.747-.679 1.154-.009-.035.06-.016-.322-.162-.477.3-.573.749-.678 1.162-.009-.035.06-.017-.326-.162-.479.3-.57.748-.672 1.16-.011-.034.058-.013-.34-.17-.48.296-.562.75-.659 1.169-.014-.035.054-.006-.346-.189-.48.286-.558.754-.653 1.188-.017-.035.052-.002-.35-.2-.478.279-.556.756-.65 1.2-.017-.035.052-.001-.353-.204-.479.277-.554.757-.65 1.199-.022-.038.031.032-.219-.288-.731.228-1.212.776-1.821 1.635-6.385 5.91-12.572 11.588-18.916 17.083-9.055 7.845-17.982 15.868-27.413 23.24-10.659 8.333-21.807 16.04-32.758 23.998-26.473 19.237-54.42 36.114-83.308 51.413-11.467 6.072-23.35 11.364-35.091 16.91-10.621 5.015-21.032 10.644-32.023 14.676-24.597 9.023-49.408 17.493-74.313 25.633-11.89 3.886-24.108 6.898-36.333 9.601-17.524 3.876-35.13 7.457-52.816 10.5-13.879 2.388-27.914 3.918-41.912 5.543-8.503.987-17.072 1.396-25.6 2.192-.551.051-1.002 1.192-1.499 1.826-5.022 0-10.044 0-15.753-.373-1.33-.498-1.973-.732-2.616-.732-23.684-.008-47.369-.009-71.053.064-1.194.004-2.385.679-3.578 1.041H1c0-245.02 0-490.042.326-735.8.435-19.342.552-37.945.612-56.549.002-.55-.612-1.1-.938-1.651 0-5.688 0-11.376.428-17.441.785-1.06 1.394-1.718 1.462-2.428 1.061-11.137 1.854-22.302 3.113-33.415 1.457-12.859 2.721-25.784 5.127-38.48 3.729-19.683 7.926-39.302 12.695-58.759 7.513-30.653 17.067-60.696 29.134-89.894 4.318-10.449 8.825-20.82 13.542-30.976-.516 2.923-1.221 5.635-2.155 8.266-18.796 52.959-30.98 107.368-35.098 163.443-2.666 36.303-1.75 72.578 2.597 108.761 4.769 39.706 14.213 78.151 30.085 114.936 19.931 46.19 48.675 85.981 87.328 118.219 61.1 50.96 132.957 76.289 210.783 86.676 34.98 4.669 70.066 4.312 105.224 1.337 39.256-3.323 77.856-10.165 115.924-20.063 54.56-14.186 107.033-34.1 157.67-58.798 81.556-39.778 156.216-89.982 224.716-149.426 7.748-6.724 15.617-13.305 23.427-19.956-.003-.004-.013-.016.158.391-4.796 28.253-9.861 56.082-14.703 83.95-5.07 29.177-10.488 58.311-14.716 87.614-4.264 29.548 14.723 57.21 43.432 63.303 10.261 2.178 21.182 1.779 31.792 1.656 16.685-.193 31.102-6.797 43.278-17.968 16.48-15.12 24.856-34.237 28.536-56.207 7.255-43.317 15.445-86.477 23.239-129.704 9.86-54.69 19.75-109.374 29.55-164.075 4.048-22.6 8.607-45.141 11.618-67.884 2.726-20.594-3.75-38.61-20.322-52.003-12.092-9.773-26.468-12.649-41.666-12.645-117.166.024-234.331-.075-351.497.17-10.058.021-20.36 1.248-30.12 3.656-24.105 5.947-42.912 19.477-51.68 43.384-4.063 11.081-5.746 23.215-7.194 35.032-2.065 16.86 2.778 32.025 14.765 44.402 12.74 13.156 28.838 17.797 46.691 17.788 59.333-.031 118.666-.012 177.999-.011h5.163l.434 1.254c-9.316 8.508-18.492 17.175-27.971 25.497-58.604 51.45-123.344 93.27-195.149 123.943-60.938 26.03-124.03 43.196-190.587 45.747-51.248 1.964-100.394-6.932-146.868-29.175-32.709-15.654-61.459-36.56-85.1-64.199-38.654-45.188-56.631-98.358-59.975-157.002-2.67-46.84 1.605-93.22 11.238-139.043 23.47-111.654 76.275-207.997 153.745-291.113 59.575-63.917 128.774-115.028 207.734-152.548 51.096-24.28 104.238-42.009 161.55-46.389C742.865 2.28 744.932 1.64 747 1z"
        opacity="1"
    ></path>
    <path
        fill="#FFF"
        d="M987.005 805.005c-7.813 6.648-15.682 13.23-23.43 19.953-68.5 59.444-143.16 109.648-224.717 149.426-50.636 24.698-103.11 44.612-157.669 58.798-38.068 9.898-76.668 16.74-115.924 20.063-35.158 2.975-70.244 3.332-105.224-1.337-77.826-10.387-149.684-35.717-210.783-86.676-38.653-32.238-67.397-72.03-87.328-118.22-15.872-36.784-25.316-75.23-30.085-114.935-4.347-36.183-5.263-72.458-2.597-108.76 4.118-56.076 16.302-110.485 35.098-163.444.934-2.63 1.64-5.343 2.118-8.595 1.51-4.883 3.12-9.307 5.242-13.469 8.108-15.897 15.94-31.96 24.711-47.488 9.722-17.212 19.54-34.477 30.798-50.69a1101.085 1101.085 0 0148.102-64.137c13.727-16.981 28.437-33.277 43.808-48.79 15.879-16.027 32.835-31.021 49.786-45.936 12.098-10.644 24.651-20.836 37.583-30.448 13.055-9.704 26.518-18.946 40.362-27.484 19.55-12.058 39.36-23.754 59.542-34.714 15.513-8.424 31.517-16.073 47.764-22.982 20.764-8.831 41.664-17.587 63.106-24.515 24.715-7.984 50-14.277 75.205-20.637 13.439-3.39 27.205-5.527 40.875-7.938 9.269-1.635 18.615-2.855 27.949-4.095 10.651-1.415 21.305-2.89 32-3.875 8.047-.74 16.163-.691 24.238-1.165.856-.05 1.645-1.249 2.465-1.915 6.354 0 12.709 0 19.236.207.353.645.533 1.083.714 1.52-56.886 4.476-110.028 22.205-161.124 46.485-78.96 37.52-148.159 88.631-207.734 152.548-77.47 83.116-130.274 179.46-153.745 291.113-9.633 45.824-13.908 92.203-11.238 139.043 3.344 58.644 21.32 111.814 59.974 157.002 23.642 27.638 52.392 48.545 85.1 64.2 46.475 22.242 95.621 31.138 146.87 29.174 66.556-2.55 129.648-19.717 190.586-45.747 71.805-30.673 136.545-72.494 195.149-123.943 9.48-8.322 18.655-16.99 27.971-25.497l-.434-1.254h-5.163c-59.333 0-118.666-.02-177.999.01-17.853.01-33.95-4.63-46.691-17.787-11.987-12.377-16.83-27.542-14.765-44.402 1.448-11.817 3.13-23.951 7.194-35.032 8.768-23.907 27.575-37.437 51.68-43.384 9.76-2.408 20.062-3.635 30.12-3.656 117.166-.245 234.331-.146 351.497-.17 15.198-.004 29.574 2.872 41.666 12.645 16.572 13.394 23.048 31.409 20.322 52.003-3.011 22.743-7.57 45.285-11.618 67.884-9.8 54.701-19.69 109.385-29.55 164.075-7.794 43.227-15.984 86.387-23.239 129.704-3.68 21.97-12.057 41.087-28.536 56.207-12.176 11.171-26.593 17.775-43.278 17.968-10.61.123-21.531.522-31.792-1.656-28.709-6.093-47.696-33.755-43.432-63.303 4.228-29.303 9.646-58.437 14.716-87.615 4.842-27.867 9.907-55.696 14.935-83.864.062-.61.062-.897.062-1.184l-.45.711z"
        opacity="1"
    ></path>
    <path
        fill="#E85F63"
        d="M720.469 1517c.724-.362 1.915-1.037 3.11-1.04 23.683-.074 47.368-.073 71.052-.065.643 0 1.286.234 2.149.732-25.134.373-50.488.373-76.311.373z"
        opacity="1"
    ></path>
    <path
        fill="#E54C50"
        d="M1 723.469c.326.081.94.633.938 1.182-.06 18.604-.177 37.207-.612 56.08C1 761.979 1 742.958 1 723.469z"
        opacity="1"
    ></path>
    <path
        fill="#EF8D90"
        d="M1517 779.531c-.338-1.687-.946-3.84-.965-5.999-.06-6.715.103-13.432.572-20.34.393 8.496.393 17.183.393 26.34z"
        opacity="1"
    ></path>
    <path
        d="M740.375 2.823c-.606-.533-.786-.97-.67-1.616C742.041 1 744.082 1 746.561 1c-1.629.64-3.695 1.279-6.187 1.823z"
        opacity="1"
    ></path>
    <path
        fill="#F9D5D7"
        d="M1498.853 596.002c2.065 9.832 4.281 19.637 6.153 29.506a742.408 742.408 0 014.96 29.39c.951 6.41 1.444 12.89 2.066 19.346.933 9.688 1.798 19.384 2.698 29.404-.534-1.592-1.407-3.485-1.562-5.435-2.716-34.15-7.713-67.954-14.882-101.811.197-.402.567-.4.567-.4z"
        opacity="1"
    ></path>
    <path
        fill="#FBE1E2"
        d="M1498.94 595.59c-.087.412-.457.41-.642.406a1055.9 1055.9 0 01-8.488-34.912c2.497 7.962 4.914 16.337 7.2 24.748.834 3.07 1.353 6.227 1.93 9.757z"
        opacity="1"
    ></path>
    <path
        fill="#FBE2E3"
        d="M1480.845 530.305c2.133 6.248 4.089 12.884 6.02 19.907-2.081-6.25-4.139-12.884-6.02-19.907zM1473.847 509.294c2.169 5.384 4.16 11.144 6.197 17.318-2.095-5.372-4.234-11.156-6.197-17.318zM1468.831 495.287c1.86 4.06 3.521 8.489 5.221 13.32-1.781-4.048-3.6-8.5-5.22-13.32zM1463.853 482.293c1.837 3.72 3.504 7.815 5.204 12.31-1.77-3.713-3.572-7.824-5.204-12.31z"
        opacity="1"
    ></path>
    <path
        fill="#FBE1E2"
        d="M1271.867 202.251c2.776 1.79 5.39 3.912 8.096 6.357-2.691-1.793-5.474-3.909-8.096-6.357z"
        opacity="1"
    ></path>
    <path
        fill="#FCE7E8"
        d="M1440.756 429.235c1.953 3.125 3.61 6.556 5.301 10.375-1.843-3.098-3.72-6.583-5.301-10.375z"
        opacity="1"
    ></path>
    <path
        fill="#FADDDE"
        d="M1081.712 74.423a67.245 67.245 0 019.24 3.184c-2.943-.745-6.007-1.837-9.24-3.184z"
        opacity="1"
    ></path>
    <path
        fill="#FCE7E8"
        d="M1447.77 444.238c1.268 1.794 2.26 3.9 3.286 6.387-1.165-1.77-2.364-3.923-3.286-6.387z"
        opacity="1"
    ></path>
    <path
        fill="#FBE1E2"
        d="M1309.732 239.187c1.66 1.208 2.984 2.66 4.332 4.46-1.54-1.174-3.104-2.696-4.332-4.46z"
        opacity="1"
    ></path>
    <path
        fill="#FCE9E9"
        d="M1320.728 251.187c1.66 1.203 2.981 2.653 4.331 4.449-1.537-1.17-3.102-2.685-4.33-4.449z"
        opacity="1"
    ></path>
    <path
        fill="#FBE2E3"
        d="M1454.84 460.273c1.187 1.751 2.186 3.857 3.217 6.345a35.738 35.738 0 01-3.216-6.345z"
        opacity="1"
    ></path>
    <path
        fill="#FCE7E8"
        d="M1412.824 377.256c1.21 1.11 2.21 2.557 3.234 4.36a17.51 17.51 0 01-3.234-4.36zM1428.897 406.284c1.121 1.074 2.129 2.519 3.158 4.319-1.076-1.08-2.174-2.513-3.158-4.319zM1421.872 393.276c1.152 1.083 2.156 2.529 3.183 4.33-1.095-1.086-2.213-2.527-3.183-4.33zM1416.86 384.273c1.167 1.086 2.17 2.531 3.195 4.33-1.105-1.087-2.233-2.53-3.196-4.33z"
        opacity="1"
    ></path>
    <path
        fill="#FCE9E9"
        d="M1329.721 261.189c1.334.872 2.323 1.992 3.34 3.454-1.21-.841-2.447-2.024-3.34-3.454z"
        opacity="1"
    ></path>
    <path
        fill="#FCEAEB"
        d="M1252.875 185.283c1.426.423 2.707 1.216 4.086 2.33a11.924 11.924 0 01-4.086-2.33z"
        opacity="1"
    ></path>
    <path
        fill="#FBE1E2"
        d="M1261.92 193.29c1.378.413 2.663 1.204 4.042 2.318-1.315-.431-2.725-1.186-4.042-2.319z"
        opacity="1"
    ></path>
    <path
        fill="#FCEAEB"
        d="M1239.867 174.28c1.436.427 2.716 1.22 4.095 2.335a11.939 11.939 0 01-4.095-2.335z"
        opacity="1"
    ></path>
    <path
        fill="#FBE2E3"
        d="M1461.846 477.27c.843 1.097 1.506 2.545 2.206 4.369-.77-1.09-1.578-2.553-2.206-4.369zM1459.835 472.267c.858 1.1 1.521 2.548 2.22 4.37-.781-1.092-1.598-2.557-2.22-4.37zM1457.823 467.264c.874 1.103 1.537 2.549 2.234 4.37a16.588 16.588 0 01-2.234-4.37z"
        opacity="1"
    ></path>
    <path
        fill="#FCE7E8"
        d="M1451.785 453.218c.918.835 1.574 1.96 1.949 3.432-.281.345-.678.333-.678.333-.51-1.158-1.022-2.316-1.271-3.765zM1366.712 307.215c1.008.51 1.665 1.298 2.347 2.42-.883-.492-1.79-1.318-2.347-2.42zM1363.72 303.206c1 .523 1.657 1.314 2.341 2.441a6.014 6.014 0 01-2.341-2.44zM1368.75 310.217c.964.51 1.624 1.307 2.312 2.44a6.091 6.091 0 01-2.312-2.44z"
        opacity="1"
    ></path>
    <path
        fill="#FBE1E2"
        d="M1142.865 106.276c1.122.111 2.08.581 3.129 1.378-1.037-.122-2.165-.57-3.13-1.378z"
        opacity="1"
    ></path>
    <path
        fill="#FCE7E8"
        d="M1371.725 314.207c.994.522 1.651 1.314 2.337 2.442a6.041 6.041 0 01-2.337-2.442zM1374.711 318.216c1.009.509 1.666 1.296 2.347 2.417-.883-.49-1.79-1.314-2.347-2.417zM1376.744 321.224c.97.5 1.63 1.292 2.317 2.42a5.955 5.955 0 01-2.317-2.42zM1378.806 324.248c.899.47 1.564 1.268 2.256 2.402-.812-.467-1.65-1.27-2.256-2.402zM1383.724 331.223c.993.5 1.651 1.288 2.334 2.41a5.826 5.826 0 01-2.334-2.41zM1385.749 334.23c.965.492 1.625 1.283 2.31 2.41a5.894 5.894 0 01-2.31-2.41zM1387.787 337.257c.92.457 1.583 1.248 2.27 2.374-.826-.457-1.676-1.248-2.27-2.374zM1389.76 340.248c.95.468 1.612 1.257 2.297 2.38a5.736 5.736 0 01-2.297-2.38zM1391.743 343.242c.97.475 1.63 1.262 2.313 2.383a5.705 5.705 0 01-2.313-2.383zM1393.728 346.232c.988.488 1.647 1.274 2.328 2.394a5.736 5.736 0 01-2.328-2.394zM1396.885 351.276c.804.434 1.476 1.23 2.176 2.366-.751-.442-1.53-1.222-2.176-2.366zM1398.831 354.276c.868.433 1.535 1.224 2.226 2.351-.793-.44-1.61-1.216-2.226-2.351zM1401.884 359.276c.805.434 1.477 1.23 2.177 2.366-.753-.442-1.531-1.222-2.177-2.366zM1409.855 372.288c.84.417 1.509 1.207 2.2 2.333-.775-.43-1.572-1.194-2.2-2.333zM1403.83 362.275c.87.434 1.536 1.225 2.227 2.352-.795-.44-1.613-1.217-2.228-2.352zM1406.872 367.29c.819.414 1.49 1.205 2.183 2.333-.762-.428-1.546-1.192-2.183-2.333zM1345.727 280.197c.993.537 1.65 1.332 2.335 2.464a6.176 6.176 0 01-2.335-2.464z"
        opacity="1"
    ></path>
    <path
        fill="#FCE9E9"
        d="M1204.941 147.298c1.02.077 1.977.543 3.033 1.33-.966-.1-2.03-.521-3.033-1.33zM1207.854 149.303c1.12.074 2.07.536 3.113 1.316a5.707 5.707 0 01-3.113-1.316zM1211.904 152.308c1.061.065 2.014.528 3.062 1.31-.992-.091-2.081-.502-3.062-1.31zM1196.883 141.306c1.087.069 2.038.531 3.084 1.314-1.01-.094-2.115-.507-3.084-1.314zM1193.918 139.292c1.049.086 2.006.554 3.062 1.345-.986-.107-2.07-.535-3.062-1.345z"
        opacity="1"
    ></path>
    <path
        fill="#FCEAEB"
        d="M1234.922 170.31c1.038.062 1.992.525 3.042 1.307-.977-.09-2.052-.497-3.042-1.307z"
        opacity="1"
    ></path>
    <path
        fill="#FCE9E9"
        d="M1200.915 144.305c1.05.069 2.003.533 3.053 1.316-.985-.094-2.067-.508-3.053-1.316zM1335.73 268.175c.984.64 1.631 1.513 2.216 2.747-.892-.597-1.722-1.556-2.215-2.747z"
        opacity="1"
    ></path>
    <path
        fill="#FCE7E8"
        d="M1349.728 285.198c.992.536 1.65 1.331 2.334 2.463a6.172 6.172 0 01-2.334-2.463z"
        opacity="1"
    ></path>
    <path
        fill="#FCEAEB"
        d="M1246.936 180.312c1.021.06 1.975.522 3.027 1.303-.967-.087-2.03-.494-3.027-1.303z"
        opacity="1"
    ></path>
    <path
        fill="#FCE7E8"
        d="M1353.726 290.201c.994.531 1.651 1.325 2.336 2.455a6.119 6.119 0 01-2.336-2.455z"
        opacity="1"
    ></path>
    <path
        fill="#FBE1E2"
        d="M1152.813 112.27c1.18.12 2.133.586 3.177 1.376a6.086 6.086 0 01-3.177-1.376z"
        opacity="1"
    ></path>
    <path
        fill="#FCE7E8"
        d="M1356.734 294.201c.984.532 1.642 1.328 2.328 2.46a6.18 6.18 0 01-2.328-2.46z"
        opacity="1"
    ></path>
    <path
        fill="#FBE1E2"
        d="M1147.852 109.275c1.137.113 2.093.582 3.14 1.377a6.052 6.052 0 01-3.14-1.377z"
        opacity="1"
    ></path>
    <path
        fill="#FCE7E8"
        d="M1360.71 299.208c1.01.52 1.667 1.31 2.35 2.433-.884-.499-1.793-1.331-2.35-2.433z"
        opacity="1"
    ></path>
    <path
        fill="#FBE2E3"
        d="M1479.855 527.276c.493.434.819 1.226 1.19 2.382-.423-.431-.89-1.228-1.19-2.382z"
        opacity="1"
    ></path>
    <path
        fill="#F9D2D4"
        d="M1293.73 1296.198c-.209.47-.708 1.014-1.431 1.724.23-.439.686-1.044 1.431-1.724zM1276.803 1312.75c-.188.637-.627.954-1.38 1.297.168-.521.649-1.069 1.38-1.297z"
        opacity="1"
    ></path>
    <path
        fill="#FADDDE"
        d="M1096.97 81.304c.664-.253 1.297-.113 2.02.347-.623.228-1.336.137-2.02-.347z"
        opacity="1"
    ></path>
    <path
        fill="#FCE7E8"
        d="M1381.719 328.21c.666.201.989.675 1.342 1.476-.541-.183-1.113-.694-1.342-1.476zM1395.727 349.21c.655.2.977.676 1.332 1.478-.533-.183-1.099-.693-1.332-1.477zM1400.744 357.22c.635.188.958.664 1.315 1.467-.52-.175-1.074-.678-1.315-1.467zM1431.747 411.242c.633.16.96.63 1.316 1.429-.52-.155-1.071-.635-1.316-1.429z"
        opacity="1"
    ></path>
    <path
        fill="#FBE2E3"
        d="M1453.89 458.277c.461.113.798.587 1.168 1.394-.408-.122-.85-.577-1.168-1.394z"
        opacity="1"
    ></path>
    <path
        fill="#FADDDE"
        d="M1092.953 79.315c.684-.265 1.314-.126 2.034.33-.635.237-1.362.156-2.034-.33z"
        opacity="1"
    ></path>
    <path
        fill="#FCE7E8"
        d="M1450.863 451.277c.493.112.828.586 1.196 1.391-.43-.122-.892-.575-1.196-1.39z"
        opacity="1"
    ></path>
    <path
        fill="#FADDDE"
        d="M1090.945 78.322c.693-.273 1.32-.135 2.04.32-.641.241-1.373.166-2.04-.32z"
        opacity="1"
    ></path>
    <path
        fill="#FCE7E8"
        d="M1446.818 442.273c.549.118.882.59 1.245 1.392-.468-.127-.964-.582-1.245-1.392zM1445.85 440.274c.51.116.844.59 1.21 1.395-.44-.125-.912-.58-1.21-1.395zM1439.762 427.255c.615.143.944.614 1.301 1.411-.51-.143-1.049-.613-1.301-1.411zM1438.77 425.256c.606.14.935.612 1.293 1.41-.504-.141-1.038-.61-1.294-1.41zM1437.777 423.259c.597.137.927.609 1.286 1.408-.499-.14-1.027-.607-1.286-1.408zM1436.784 421.26c.59.136.92.608 1.279 1.407-.494-.138-1.016-.603-1.28-1.406zM1435.794 419.263c.578.132.908.604 1.268 1.405-.485-.136-1-.6-1.268-1.405zM1434.798 417.263c.573.131.904.604 1.264 1.405-.482-.135-.994-.599-1.264-1.405zM1433.806 415.266c.564.127.896.6 1.257 1.402-.477-.133-.983-.595-1.257-1.402zM1432.78 413.254c.595.143.925.616 1.283 1.417-.497-.144-1.023-.616-1.283-1.417zM1405.745 365.223c.634.184.958.659 1.314 1.461-.52-.171-1.072-.67-1.314-1.46z"
        opacity="1"
    ></path>
    <path
        fill="#F9D5D7"
        d="M1318.553 1270.448c-.214.33-.678.68-1.365.833.223-.403.67-.608 1.365-.833z"
        opacity="1"
    ></path>
    <path
        fill="#FCE7E8"
        d="M1427.873 404.26c.476.134.806.614 1.177 1.425-.414-.138-.868-.608-1.177-1.424zM1426.843 402.26c.516.135.845.613 1.211 1.422-.441-.14-.92-.61-1.211-1.423z"
        opacity="1"
    ></path>
    <path
        fill="#F9D5D7"
        d="M1315.051 1273.32c-.22.224-.425.769-.875 1.51.133-.266.512-.727.875-1.51z"
        opacity="1"
    ></path>
    <path
        fill="#FCE7E8"
        d="M1425.804 400.257c.566.14.897.614 1.258 1.418-.478-.142-.985-.612-1.258-1.418zM1424.759 398.244c.619.157.947.63 1.304 1.43-.512-.154-1.054-.634-1.304-1.43z"
        opacity="1"
    ></path>
    <path
        fill="#F9D5D7"
        d="M1313.705 1275.072c.273.57.133 1.192-.321 1.898-.24-.559-.166-1.202.32-1.898z"
        opacity="1"
    ></path>
    <path
        fill="#FCE7E8"
        d="M1420.812 391.251c.554.147.883.624 1.245 1.43-.468-.147-.97-.623-1.245-1.43zM1419.748 389.236c.632.167.959.64 1.315 1.44-.52-.16-1.07-.647-1.315-1.44z"
        opacity="1"
    ></path>
    <path
        fill="#F9D2D4"
        d="M1298.782 1291.031c-.203.466-.708.981-1.511 1.28.203-.556.706-.893 1.51-1.28z"
        opacity="1"
    ></path>
    <path
        fill="#FCE7E8"
        d="M1415.791 382.246c.58.154.908.63 1.268 1.434-.485-.151-1.003-.632-1.268-1.434z"
        opacity="1"
    ></path>
    <path
        fill="#F9D2D4"
        d="M1296.914 1292.192c.036.318-.104.863-.511 1.61-.067-.327.134-.854.51-1.61z"
        opacity="1"
    ></path>
    <path
        fill="#FCE7E8"
        d="M1411.728 375.224c.655.182.981.655 1.336 1.453-.536-.17-1.1-.666-1.336-1.453zM1408.738 370.225c.643.181.969.655 1.324 1.456-.527-.17-1.085-.667-1.324-1.456z"
        opacity="1"
    ></path>
    <path
        fill="#FADDDE"
        d="M1094.964 80.309c.67-.26 1.302-.12 2.025.339-.628.232-1.346.146-2.025-.34z"
        opacity="1"
    ></path>
    <path
        fill="#FCEAEB"
        d="M1231.014 167.478c.493-.3 1.16-.245 1.937.134-.514.29-1.139.255-1.937-.134z"
        opacity="1"
    ></path>
    <path
        fill="#FCE9E9"
        d="M1190.872 137.473c.516-.315 1.227-.264 2.065.125-.54.306-1.204.273-2.065-.125z"
        opacity="1"
    ></path>
    <path
        fill="#FBE1E2"
        d="M1155.988 114.34c.635-.297 1.262-.163 1.982.285-.602.257-1.295.201-1.982-.286zM1151.005 111.329c.615-.286 1.244-.151 1.966.298-.588.25-1.27.186-1.966-.298zM1146.003 108.317c.617-.272 1.249-.136 1.974.316-.59.241-1.275.167-1.974-.316zM1141.009 105.31c.61-.264 1.243-.127 1.97.326-.587.236-1.268.156-1.97-.325zM1139.104 104.43c.495-.238 1.14-.17 1.88.219-.512.243-1.12.164-1.88-.22z"
        opacity="1"
    ></path>
    <path
        fill="#FADDDE"
        d="M1106.961 86.33c.672-.284 1.3-.148 2.018.303-.626.25-1.344.183-2.018-.303zM1104.985 85.31c.643-.262 1.274-.124 1.998.331-.608.235-1.308.153-1.998-.33zM1103.01 84.292c.614-.242 1.25-.103 1.979.357-.591.221-1.274.122-1.979-.357zM1100.994 83.29c.635-.238 1.272-.096 1.999.368-.606.218-1.302.114-1.999-.369zM1098.98 82.298c.652-.247 1.287-.105 2.011.356-.616.224-1.322.128-2.011-.356z"
        opacity="1"
    ></path>
    <path
        fill="#FCEAEB"
        d="M1233.842 169.286c.5-.196.814-.02 1.188.43-.418.163-.896.053-1.188-.43z"
        opacity="1"
    ></path>
    <path
        fill="#F9D2D4"
        d="M1279.678 1309.855c.237.497.074.812-.363 1.174-.195-.42-.117-.888.363-1.174zM1278.676 1310.843c.238.511.075.825-.36 1.186-.197-.43-.12-.907.36-1.186zM1277.672 1311.84c.242.514.08.827-.355 1.188-.199-.432-.124-.912.355-1.189z"
        opacity="1"
    ></path>
    <path
        fill="#FBE1E2"
        d="M1157.833 115.241c.52-.072.831.175 1.098.744-.465.073-.886-.176-1.098-.744z"
        opacity="1"
    ></path>
    <path
        fill="#FCE9E9"
        d="M1192.833 138.287c.513-.196.825-.021 1.198.428-.427.164-.912.054-1.198-.428zM1199.83 143.29c.516-.2.828-.025 1.2.423-.427.167-.914.06-1.2-.423zM1203.838 146.281c.507-.19.82-.014 1.193.437-.423.16-.905.044-1.193-.437zM1210.83 151.293c.516-.203.828-.029 1.2.419-.428.168-.916.063-1.2-.419zM1214.825 154.302c.52-.213.832-.04 1.204.406-.431.175-.922.078-1.204-.406zM1215.832 155.238c.515-.072.825.175 1.096.743-.46.073-.88-.175-1.096-.743z"
        opacity="1"
    ></path>
    <path
        fill="#FCEAEB"
        d="M1260.89 192.275c.444-.187.761-.01 1.14.443-.382.158-.826.04-1.14-.443zM1232.82 168.313c.524-.225.834-.053 1.206.39-.432.184-.925.096-1.206-.39z"
        opacity="1"
    ></path>
    <path
        fill="#F9D2D4"
        d="M1280.683 1308.875c.234.474.07.79-.369 1.154-.193-.404-.11-.858.37-1.154z"
        opacity="1"
    ></path>
    <path
        fill="#FCEAEB"
        d="M1237.82 172.32c.524-.233.834-.061 1.205.381-.432.188-.926.106-1.206-.382z"
        opacity="1"
    ></path>
    <path
        fill="#FBE2E3"
        d="M1453.083 457.29c-.027-.307.37-.295.568-.293.244.167.29.332.386.75-.275.118-.602-.015-.954-.456z"
        opacity="1"
    ></path>
    <path
        fill="#FCEAEB"
        d="M1238.831 173.294c.513-.204.825-.03 1.198.418-.425.17-.911.065-1.198-.418zM1243.82 177.321c.523-.234.834-.062 1.205.38-.433.189-.926.108-1.206-.38zM1244.83 178.301c.513-.212.825-.039 1.198.407-.426.175-.913.077-1.199-.407zM1245.865 179.281c.474-.192.789-.016 1.165.435-.4.162-.862.048-1.165-.435zM1249.82 182.326c.523-.24.833-.068 1.204.373-.432.192-.925.115-1.205-.373zM1250.821 183.312c.522-.224.833-.052 1.205.392-.431.182-.924.094-1.205-.392zM1251.844 184.291c.498-.202.811-.027 1.185.422-.416.167-.893.061-1.185-.422zM1256.82 188.326c.523-.24.833-.068 1.204.372-.432.193-.925.116-1.204-.372zM1257.82 189.322c.523-.235.833-.064 1.205.378-.433.19-.926.11-1.206-.378zM1258.83 190.31c.512-.223.824-.05 1.196.394-.425.182-.912.092-1.197-.394zM1259.846 191.293c.495-.204.808-.03 1.183.419-.414.169-.89.064-1.183-.42z"
        opacity="1"
    ></path>
    <path
        fill="#F9D5D7"
        d="M1305.7 1283.883c.216.463.05.78-.394 1.148-.181-.397-.085-.845.394-1.148z"
        opacity="1"
    ></path>
    <path
        fill="#F9D2D4"
        d="M1287.718 1301.923c.199.418.032.74-.416 1.11-.17-.369-.06-.788.416-1.11zM1288.722 1300.93c.195.41.027.732-.421 1.104-.168-.364-.054-.779.421-1.105zM1289.725 1299.93c.192.41.023.732-.426 1.105-.165-.364-.05-.778.426-1.105zM1290.96 1298.862c.153.419-.093.756-.645 1.16-.123-.37.062-.806.645-1.16zM1285.708 1303.9c.208.445.042.765-.403 1.133-.176-.387-.074-.823.403-1.133zM1284.705 1304.9c.212.445.046.764-.398 1.132-.18-.386-.08-.822.398-1.132zM1283.7 1305.893c.217.453.051.771-.392 1.139-.181-.392-.085-.834.392-1.14z"
        opacity="1"
    ></path>
    <path
        fill="#F9D5D7"
        d="M1299.73 1289.927c.184.412.013.735-.44 1.103-.162-.368-.039-.78.44-1.103zM1300.723 1288.915c.193.426.023.747-.427 1.12-.165-.374-.05-.8.427-1.12zM1301.716 1287.904c.2.44.03.76-.417 1.13-.17-.383-.06-.816.417-1.13zM1302.71 1286.893c.205.452.037.77-.408 1.14-.175-.39-.07-.832.407-1.14zM1303.705 1285.892c.21.453.044.771-.401 1.14-.177-.39-.077-.832.401-1.14zM1304.703 1284.883c.212.464.045.781-.4 1.15-.177-.399-.078-.847.4-1.15z"
        opacity="1"
    ></path>
    <path
        fill="#F9D2D4"
        d="M1286.71 1302.914c.207.428.041.748-.404 1.118-.176-.375-.073-.8.404-1.118z"
        opacity="1"
    ></path>
    <path
        fill="#F9D5D7"
        d="M1306.699 1282.873c.216.475.049.792-.394 1.159-.18-.406-.085-.862.394-1.159zM1307.694 1281.872c.221.476.055.792-.387 1.159-.184-.406-.092-.863.387-1.16zM1308.692 1280.854c.222.497.056.812-.385 1.177-.184-.42-.093-.889.385-1.177zM1309.685 1279.844c.229.509.064.822-.375 1.186-.19-.427-.105-.903.375-1.186zM1310.679 1278.835c.234.519.07.832-.368 1.194-.192-.434-.112-.917.368-1.194zM1311.674 1277.83c.24.524.076.837-.36 1.198-.197-.436-.12-.922.36-1.197zM1312.672 1276.83c.242.525.078.837-.358 1.198-.197-.437-.122-.924.358-1.198z"
        opacity="1"
    ></path>
    <path
        fill="#F9D2D4"
        d="M1282.7 1306.885c.216.463.05.78-.392 1.147-.182-.398-.086-.846.391-1.147z"
        opacity="1"
    ></path>
    <path
        fill="#FADDDE"
        d="M1108.848 87.227c.508-.088.824.13 1.083.65-.463.086-.87-.13-1.083-.65z"
        opacity="1"
    ></path>
    <path
        fill="#F9D5D7"
        d="M1315.983 1272.241c-.053.109-.176.483-.638.83-.037-.205.265-.385.638-.83zM1316.952 1271.208c-.005.157-.125.556-.606.904-.076-.255.208-.459.606-.904z"
        opacity="1"
    ></path>
    <path
        fill="#F9D2D4"
        d="M1281.695 1307.885c.222.463.057.78-.385 1.146-.185-.398-.094-.845.385-1.146z"
        opacity="1"
    ></path>
    <path
        fill="#FCE9E9"
        d="M1313.948 244.267c.373-.183.695-.008 1.08.446-.335.157-.733.034-1.08-.446zM1317.852 248.317c.487-.232.8-.061 1.173.382-.408.188-.878.105-1.173-.382z"
        opacity="1"
    ></path>
    <path
        fill="#FCE7E8"
        d="M1358.925 297.31c.4-.23.717-.06 1.097.385-.351.187-.765.1-1.097-.386zM1359.849 298.325c.49-.241.802-.071 1.174.37-.41.194-.881.117-1.174-.37z"
        opacity="1"
    ></path>
    <path
        fill="#FCE9E9"
        d="M1316.876 247.311c.458-.228.773-.056 1.149.388-.39.186-.842.1-1.149-.388z"
        opacity="1"
    ></path>
    <path
        fill="#FCE7E8"
        d="M1362.867 302.323c.469-.24.782-.07 1.156.371-.397.194-.854.117-1.156-.371z"
        opacity="1"
    ></path>
    <path
        fill="#FCE9E9"
        d="M1315.9 246.297c.43-.214.747-.041 1.126.406-.372.177-.805.079-1.125-.406z"
        opacity="1"
    ></path>
    <path
        fill="#FCE7E8"
        d="M1365.883 306.32c.45-.239.764-.069 1.14.373-.384.193-.83.115-1.14-.373z"
        opacity="1"
    ></path>
    <path
        fill="#FCE9E9"
        d="M1314.923 245.282c.403-.198.723-.024 1.104.427-.354.166-.771.055-1.104-.427z"
        opacity="1"
    ></path>
    <path
        fill="#FCE7E8"
        d="M1355.91 293.314c.418-.234.734-.064 1.112.38-.363.19-.788.107-1.112-.38zM1370.912 313.314c.415-.234.732-.064 1.11.38-.361.19-.784.107-1.11-.38z"
        opacity="1"
    ></path>
    <path
        fill="#FBE1E2"
        d="M1308.828 238.326c.519-.24.83-.073 1.198.366-.431.195-.918.119-1.198-.366z"
        opacity="1"
    ></path>
    <path
        fill="#FCE7E8"
        d="M1373.888 317.32c.444-.239.759-.069 1.135.373-.38.193-.822.114-1.135-.374z"
        opacity="1"
    ></path>
    <path
        fill="#FBE1E2"
        d="M1307.832 237.324c.514-.239.826-.07 1.194.37-.428.193-.912.115-1.194-.37zM1306.858 236.322c.484-.239.797-.07 1.168.37-.408.194-.873.115-1.168-.37zM1305.858 235.31c.485-.225.8-.056 1.17.388-.41.184-.875.096-1.17-.388z"
        opacity="1"
    ></path>
    <path
        fill="#FCE7E8"
        d="M1380.902 327.316c.427-.236.743-.066 1.12.377-.369.191-.8.11-1.12-.377zM1344.865 279.323c.471-.24.785-.07 1.158.372-.398.193-.856.116-1.158-.372z"
        opacity="1"
    ></path>
    <path
        fill="#FCE9E9"
        d="M1328.82 260.326c.523-.24.833-.07 1.204.37-.432.193-.925.117-1.204-.37zM1326.854 258.322c.484-.238.796-.067 1.17.375-.407.192-.874.113-1.17-.375zM1332.907 265.308c.42-.227.738-.056 1.116.39-.365.185-.792.097-1.116-.39zM1333.857 266.321c.48-.237.793-.066 1.167.376-.404.192-.87.112-1.167-.376zM1334.829 267.326c.513-.24.823-.07 1.195.37-.425.194-.911.117-1.195-.37zM1325.876 257.311c.458-.228.773-.056 1.149.389-.39.185-.842.098-1.15-.389z"
        opacity="1"
    ></path>
    <path
        fill="#FCE7E8"
        d="M1342.95 277.169c.376-.16.695.049 1.077.543-.335.131-.735-.022-1.077-.543zM1343.92 278.303c.406-.222.724-.051 1.104.395-.356.183-.773.09-1.103-.395z"
        opacity="1"
    ></path>
    <path
        fill="#FBE1E2"
        d="M1304.86 234.31c.482-.225.797-.056 1.168.387-.408.185-.872.097-1.168-.387z"
        opacity="1"
    ></path>
    <path
        fill="#FCE9E9"
        d="M1324.91 256.296c.418-.214.736-.04 1.115.407-.364.177-.79.078-1.115-.407z"
        opacity="1"
    ></path>
    <path
        fill="#FCE7E8"
        d="M1347.923 283.304c.402-.223.72-.052 1.1.393-.353.184-.769.092-1.1-.393zM1348.865 284.323c.471-.24.785-.07 1.158.372-.398.194-.858.116-1.158-.372z"
        opacity="1"
    ></path>
    <path
        fill="#FCE9E9"
        d="M1319.823 250.326c.52-.24.83-.07 1.201.37-.43.194-.92.117-1.201-.37z"
        opacity="1"
    ></path>
    <path
        fill="#FCE7E8"
        d="M1351.924 288.304c.401-.224.72-.053 1.1.392-.353.185-.768.094-1.1-.392zM1352.863 289.323c.474-.24.787-.07 1.16.372-.4.194-.86.116-1.16-.372z"
        opacity="1"
    ></path>
    <path
        fill="#FCE9E9"
        d="M1318.838 249.324c.502-.24.814-.068 1.186.373-.419.193-.898.115-1.186-.373z"
        opacity="1"
    ></path>
    <path
        fill="#FBE1E2"
        d="M1280.824 210.327c.524-.24.835-.073 1.202.366-.435.195-.925.119-1.202-.366zM1288.87 218.302c.471-.217.787-.047 1.159.398-.4.18-.858.085-1.16-.398zM1287.866 217.304c.476-.219.79-.049 1.163.396-.404.18-.864.087-1.163-.396zM1286.843 216.306c.503-.219.817-.049 1.186.394-.421.181-.899.089-1.186-.394zM1285.844 215.316c.501-.23.814-.062 1.183.38-.42.188-.895.104-1.183-.38zM1284.834 214.318c.513-.232.825-.063 1.193.378-.426.189-.91.105-1.193-.378zM1283.835 213.322c.511-.236.823-.068 1.192.372-.427.192-.909.112-1.192-.372zM1282.824 212.323c.524-.237.836-.068 1.203.372-.435.192-.925.112-1.203-.372zM1281.824 211.327c.524-.241.835-.073 1.202.366-.434.194-.924.118-1.202-.366zM1289.871 219.292c.471-.206.787-.034 1.16.413-.4.172-.858.068-1.16-.413zM1279.825 209.327c.524-.24.835-.073 1.201.365-.434.195-.925.119-1.201-.365zM1270.887 201.286c.453-.2.77-.028 1.144.421-.389.169-.834.06-1.144-.421zM1269.87 200.296c.472-.21.788-.039 1.16.408-.401.174-.859.073-1.16-.408zM1268.858 199.304c.486-.218.8-.048 1.171.396-.41.18-.876.086-1.171-.396zM1267.84 198.31c.507-.223.82-.054 1.189.39-.424.182-.904.092-1.19-.39zM1266.824 197.32c.524-.233.836-.065 1.203.376-.434.19-.925.108-1.203-.376zM1265.824 196.327c.525-.24.835-.073 1.202.366-.435.195-.925.118-1.202-.366z"
        opacity="1"
    ></path>
    <path
        fill="#FCE9E9"
        d="M1327.826 259.326c.516-.24.827-.07 1.198.37-.427.194-.915.117-1.198-.37z"
        opacity="1"
    ></path>
    <path
        fill="#FBE1E2"
        d="M1290.897 220.288c.44-.203.758-.032 1.133.417-.38.17-.818.064-1.133-.417zM1291.9 221.282c.437-.197.756-.024 1.131.426-.379.166-.815.055-1.132-.426zM1292.913 222.275c.422-.19.742-.017 1.118.435-.368.162-.794.046-1.118-.435zM1293.924 223.274c.408-.19.729-.017 1.107.435-.36.162-.777.044-1.107-.435zM1294.924 224.277c.408-.193.728-.021 1.107.43-.36.165-.777.05-1.107-.43zM1295.916 225.283c.417-.2.737-.028 1.114.422-.366.168-.789.059-1.114-.422zM1296.905 226.284c.43-.2.75-.028 1.125.422-.374.168-.805.06-1.125-.422zM1297.905 227.29c.43-.207.748-.035 1.124.413-.373.173-.805.069-1.124-.413zM1298.894 228.291c.443-.207.76-.035 1.136.413-.383.172-.823.069-1.136-.413zM1299.893 229.293c.444-.209.762-.038 1.136.41-.383.174-.823.072-1.136-.41zM1300.89 230.3c.447-.217.764-.046 1.138.4-.385.179-.828.083-1.139-.4zM1301.874 231.303c.466-.219.782-.048 1.155.397-.397.18-.851.086-1.155-.397zM1302.871 232.303c.47-.218.785-.048 1.158.397-.4.18-.856.086-1.158-.397zM1303.87 233.309c.47-.225.786-.055 1.158.388-.4.185-.856.095-1.157-.388z"
        opacity="1"
    ></path>
    <path
        fill="#FCE7E8"
        d="M1382.923 330.311c.401-.231.72-.062 1.099.382-.353.19-.767.104-1.099-.382z"
        opacity="1"
    ></path>
    <path
        fill="#CD1F24"
        d="M987.002 805.002c.153-.234.302-.471.452-.708 0 .287 0 .575-.233.777-.232-.085-.222-.073-.22-.07z"
        opacity="1"
    ></path>
</svg>