<svg version="1.1" id="Layer_1" xmlns="http://www.w3.org/2000/svg" xmlns:xlink="http://www.w3.org/1999/xlink" x="0px" y="0px"
	 width="100%" viewBox="0 0 1000 1179" enable-background="new 0 0 154 154" xml:space="preserve">
    <path
        fill="#003086"
        d="M193 1c146.357 0 292.715 0 439.544.42.99.768 1.478 1.368 2.028 1.43 12.563 1.415 25.166 2.532 37.692 4.218 9.227 1.242 18.395 3.024 27.518 4.91 10.098 2.088 20.17 4.357 30.152 6.942 9.526 2.466 19.162 4.814 28.31 8.351 11.387 4.403 22.457 9.703 33.41 15.13 7.894 3.91 15.755 8.113 22.946 13.16 10.927 7.668 21.923 15.353 30.552 25.864 6.37 7.76 13.657 14.798 19.71 22.783 5.595 7.38 10.422 15.405 14.983 23.486 5.04 8.929 10.44 17.879 13.79 27.48 4.675 13.396 8.042 27.307 11.087 41.19 1.687 7.69 2.147 15.773 2.162 23.68.033 17.783-.203 35.583-1.05 53.342-.395 8.266-2.468 16.45-3.788 24.965-.292.769-.578 1.246-1.17 1.543-12.1-5.47-23.509-12.027-35.777-15.755-18.867-5.733-38.272-9.754-57.542-14.085-27.904-6.273-56.479-7.475-84.804-7.71-97.784-.813-195.578-.397-293.367-.177-7.184.016-14.705 1.219-21.475 3.575-15.514 5.398-24.753 17.021-27.81 33.026-3.12 16.336-5.54 32.807-8.17 49.234-4.363 27.26-8.693 54.524-12.956 81.8-4.75 30.396-9.346 60.816-14.128 91.208-4.807 30.547-9.781 61.068-14.645 91.607-3.558 22.335-7.078 44.676-10.505 67.031-.157 1.027.768 2.22 1.196 3.71-1.271 4.668-3.028 8.881-3.749 13.264-4.374 26.602-8.503 53.244-12.732 79.87-5.093 32.057-10.242 64.104-15.295 96.167-4.69 29.756-9.27 59.528-13.926 89.289-3.447 22.036-6.865 44.077-10.454 66.09-.982 6.023-2.533 11.954-4.28 17.837-1.121-.121-1.787-.18-2.453-.18-71.825-.008-143.65-.16-215.474.127-12.522.05-23.225-2.521-31.123-12.809-5.199-6.77-7.25-14.689-7.109-22.964.082-4.793 1.955-9.528 2.674-14.341 1.198-8.015 1.84-16.119 3.217-24.098 2.028-11.742 4.689-23.374 6.727-35.114 2.218-12.782 4.026-25.634 6.026-38.453 2.003-12.836 4.01-25.671 6.037-38.503 1.973-12.486 4.008-24.962 5.949-37.453 1.743-11.215 3.37-22.447 5.094-33.665 2.172-14.14 4.4-28.27 6.582-42.409 1.826-11.838 3.696-23.67 5.404-35.525 1.487-10.32 2.512-20.713 4.22-30.994 1.98-11.921 4.74-23.714 6.696-35.639 2.771-16.899 5.086-33.872 7.654-50.805 1.425-9.39 2.922-18.769 4.47-28.139 1.898-11.487 3.938-22.952 5.817-34.442 1.774-10.842 3.436-21.702 5.119-32.559 2.213-14.28 4.38-28.569 6.605-42.848 1.769-11.348 3.622-22.683 5.388-34.03 2.248-14.441 4.44-28.89 6.67-43.334 1.448-9.384 2.935-18.761 4.378-28.146.929-6.035 1.745-12.088 2.729-18.113 1.345-8.23 2.893-16.427 4.19-24.663 2.325-14.76 4.49-29.544 6.797-44.305 1.339-8.567 2.889-17.1 4.232-25.666 2.236-14.268 4.362-28.553 6.575-42.825 1.455-9.38 3.01-18.743 4.464-28.123.935-6.036 1.733-12.094 2.652-18.132 1.426-9.37 2.971-18.722 4.337-28.1 1.167-8.015 1.9-16.1 3.28-24.074 2.023-11.696 4.61-23.293 6.661-34.984 1.806-10.293 1.933-20.693 6.663-30.635 4.876-10.25 12.465-17.013 21.497-22.855C186.352 4.974 189.698 3.02 193 1z"
        opacity="1"
    ></path>
    <path
        fill="#09D"
        d="M1001 498.531c-.666 1.588-1.823 2.666-1.92 3.832-.802 9.72-.948 19.515-2.192 29.17-1.514 11.747-3.696 23.422-5.986 35.05-1.56 7.912-3.584 15.752-5.787 23.515-3.347 11.787-6.702 23.59-10.666 35.178-3.704 10.83-7.614 21.669-12.5 31.999-6.77 14.309-13.986 28.471-22.054 42.078-6.164 10.394-13.722 20-21.08 29.635-5.864 7.68-11.993 15.233-18.686 22.185-6.486 6.737-13.654 12.863-20.867 18.841-8.2 6.795-16.53 13.492-25.275 19.55-7.788 5.397-16.015 10.256-24.419 14.644-10.405 5.433-21.066 10.43-31.857 15.052-7.687 3.292-15.668 6.01-23.7 8.353-13.636 3.978-27.28 8.125-41.172 10.967-14.787 3.024-29.847 4.77-44.826 6.784-11.638 1.565-23.317 2.891-35.014 3.919-5.784.508-11.648.11-17.476.111-12.998.004-26.006.328-38.99-.089-12.837-.412-23.944 3.543-33.229 12.102-8.176 7.536-13.137 16.887-14.398 28.239-.914 8.22-2.79 16.333-4.224 24.496-.569 3.24-1.165 6.476-1.642 9.73-2.036 13.873-3.983 27.76-6.057 41.627-1.931 12.91-3.988 25.8-5.98 38.7-2.016 13.047-3.973 26.102-6.045 39.139-1.581 9.95-3.365 19.866-4.944 29.816-2.071 13.043-3.94 26.118-6.066 39.151-1.518 9.3-2.574 18.773-5.216 27.763-2.355 8.016-6.13 15.49-12.562 21.713-11.292 10.923-24.76 14.037-39.73 14.015-60.49-.087-120.982-.058-181.472-.016-11.434.008-25.227-7.806-28.316-19.978-1.628-6.413-1.649-11.82.075-18.141 2.054-7.535 2.176-15.585 3.291-23.389.958-6.699 2.206-13.356 3.2-20.05 1.323-8.922 2.402-17.882 3.817-26.789 1.097-6.908 2.546-13.761 3.86-21.053 1.309-6.388 2.86-12.319 3.842-18.342 3.588-22.013 7.007-44.054 10.454-66.09 4.655-29.76 9.237-59.533 13.926-89.289 5.053-32.063 10.202-64.11 15.295-96.167 4.23-26.626 8.358-53.268 12.732-79.87.72-4.383 2.478-8.596 3.93-13.56 11.728-21.61 29.66-30.55 53.325-30.25 34.819.443 69.647.232 104.47.088 57.934-.24 114.971-6.58 170.351-24.725 34.892-11.433 67.614-27.157 97.58-48.333 24.438-17.269 45.985-37.714 64.845-61.027 23.641-29.224 42.412-61.335 55.975-96.267 8.293-21.36 15.462-43.251 21.563-65.339 5.171-18.72 8.086-38.066 12-57.135.285-.477.57-.954 1.188-1.565 1.742.76 3.174 1.622 4.563 2.55 9.651 6.45 19.438 12.714 28.876 19.466a67.628 67.628 0 0111.907 10.907c6.167 7.2 12.066 14.67 17.552 22.4 5.145 7.248 10.376 14.614 14.182 22.59 4.65 9.744 8.213 20.06 11.565 30.352a162.971 162.971 0 015.834 23.982c1.303 7.933 1.415 16.058 2.229 24.08.112 1.108 1.255 2.112 1.921 3.164v40.531z"
        opacity="1"
    ></path>
    <path
        fill="#0D216A"
        d="M900.876 299.894c-3.607 19.25-6.522 38.594-11.693 57.315-6.101 22.088-13.27 43.98-21.563 65.34-13.563 34.931-32.334 67.042-55.975 96.266-18.86 23.313-40.407 43.758-64.844 61.027-29.967 21.176-62.689 36.9-97.58 48.333-55.38 18.145-112.418 24.486-170.352 24.725-34.823.144-69.651.355-104.47-.087-23.666-.3-41.597 8.64-53.333 29.873-.601-.818-1.526-2.011-1.369-3.038 3.427-22.355 6.947-44.696 10.505-67.031 4.864-30.539 9.838-61.06 14.645-91.607 4.782-30.392 9.377-60.812 14.128-91.209 4.263-27.275 8.593-54.54 12.956-81.799 2.63-16.427 5.05-32.898 8.17-49.234 3.057-16.005 12.296-27.628 27.81-33.026 6.77-2.356 14.29-3.559 21.475-3.575 97.79-.22 195.583-.636 293.367.176 28.325.236 56.9 1.438 84.804 7.71 19.27 4.332 38.675 8.353 57.542 14.086 12.268 3.728 23.677 10.286 35.777 15.755z"
        opacity="1"
    ></path>
</svg>