<svg version="1.1" id="Layer_1" xmlns="http://www.w3.org/2000/svg" xmlns:xlink="http://www.w3.org/1999/xlink" x="0px" y="0px"
	 width="100%" viewBox="0 0 512 512" style="padding-bottom: 0" enable-background="new 0 0 154 154" xml:space="preserve">
    <path
      fill="#FF5849"
      d="M37.438 513c-13.377-4.953-21.176-13.473-19.002-31.587 3.81-5.664 7.517-10.65 10.552-16.018 5.457-9.653 13.07-18.329 14.219-30.055.05-.5 1.17-.896 1.792-.874.015 7.82-.642 15.269 3.013 22.446.7-.58 1.298-.895 1.644-1.387 15.142-21.52 30.329-43.009 45.279-64.662 1.448-2.098 1.414-5.22 2.353-7.733 1.427 1.047 2.57 1.961 3.856 3.174 4.736 4.808 9.328 9.317 13.879 14.181a2927.146 2927.146 0 0 1-16.824 34.135c-1.868 3.73-2.864 7.382-.217 11.43-7.792 11.266-15.486 22.168-23.058 33.154-3.898 5.655-3.8 5.722 1.79 9.092-5.537.763-10.8 1.127-16.03 1.767-1.68.205-4.065.66-4.771 1.823C51.72 498.79 47.927 505.936 44 513h-6.563z"
    />
    <path
      fill="#FF3E5A"
      d="M272.146 435.035c-.057.744-.115 1.488-.581 2.643-1.62 1.7-3.114 2.82-3.998 4.304-10.768 18.067-21.529 36.14-32.1 54.323-3.13 5.386-5.661 11.12-8.467 16.695-12.688 0-25.375 0-38.53-.389 1.245-4.022 2.996-7.64 4.663-11.294 2-4.384 3.928-8.8 6.353-13.232 9.092-.037 17.717-.034 26.343-.054 11.508-.026 18.133-6.643 18.178-18.187.044-11.28.045-22.56.403-33.878.914-.35 1.64-.53 2.04-.993 5.923-6.877 11.93-13.69 17.569-20.794.944-1.19.68-3.788.234-5.548-1.401-5.535 1.161-11.533 6.66-14.156.065 11.925.03 23.385.148 34.843.02 1.91.707 3.812 1.085 5.717z"
    />
    <path
      fill="#FF3A5D"
      d="M227.469 513c2.337-5.575 4.867-11.31 7.998-16.695 10.571-18.183 21.332-36.256 32.1-54.323.884-1.484 2.378-2.604 3.928-3.936.394 15.553.746 31.157.401 46.745-.229 10.361-3.582 19.597-13.34 25.085-1.932 1.086-4.164 1.636-6.407 2.779-8.17.345-16.19.345-24.68.345z"
    />
    <path
      fill="#FF4C52"
      d="M142 513c-16.02 0-32.042 0-48.526-.377.531-2.623 1.306-5.002 2.563-7.09a278.405 278.405 0 0 1 11.436-17.515c4.482-.007 8.502-.01 12.992-.011 11.496.02 22.523.039 33.546.446-1.018 2.956-1.83 5.628-3.087 8.07-2.859 5.553-5.936 10.992-8.924 16.477z"
    />
    <path
      fill="#FF524D"
      d="M107.011 488.023c-3.672 5.828-7.422 11.609-10.974 17.51-1.257 2.088-2.032 4.467-3.032 7.09C76.98 513 60.958 513 44.47 513c3.458-7.064 7.252-14.21 11.444-21.114.706-1.164 3.09-1.618 4.77-1.823 5.23-.64 10.494-1.004 16.5-1.768 10.446-.286 20.137-.28 29.828-.272z"
    />
    <path
      fill="#FF4656"
      d="M142.469 513c2.52-5.485 5.596-10.924 8.455-16.476 1.257-2.443 2.069-5.115 3.554-8.088 10.487-.412 20.504-.42 30.985-.423l13.557.102c-1.96 4.402-3.887 8.818-5.887 13.202-1.667 3.655-3.418 7.272-5.132 11.294-15.022.389-30.043.389-45.532.389z"
    />
    <path
      fill="#383955"
      d="M117.531 1c5.552 1.668 10.635 3.336 16.094 5.544.376 5.657.51 10.78.335 15.892-.156 4.566-.654 9.12-1.324 13.54-10.84-8.336-22.721-10.512-35.633-8.6L97 1h20.531z"
    />
    <path
      fill="#3E3D57"
      d="M96.625 1c.375 8.64.376 17.278-.008 26.457-6.872 3.886-13.607 6.842-19.752 10.73-3.445 2.18-5.914 5.901-8.988 8.536-.403-2.173-.833-3.953-.845-5.735-.066-9.607-.03-19.214-.028-28.822 8.168-5.337 16.947-9.109 26.841-10.795C94.75 1 95.5 1 96.625 1z"
    />
    <path
      fill="#FFCF4C"
      d="M278.006 104.164c11.497 5.219 23.173 10.087 34.415 15.808 5.333 2.715 10.285 6.59 14.632 10.752 11.79 11.29 23.165 23.013 34.833 35.31.378 3.039.343 5.406.92 7.614 5.95 22.764 12.076 45.482 18.004 68.252 12.48 47.941 24.843 95.914 37.363 143.845.842 3.224 2.6 6.208 3.932 9.304-24.22 24.667-48.427 49.348-72.688 73.975-2.19 2.223-4.482 4.555-7.172 6.02-3.235 1.762-6.946 2.649-10.849 3.43-1.73-18.295-3.243-36.092-4.3-53.917-.374-6.325.885-12.748.49-19.07-.897-14.343-2.362-28.65-3.586-42.973-.718-8.402-1.417-16.806-2.126-25.209-1.29-15.315-2.537-30.634-3.89-45.943-.83-9.376-2.105-18.721-2.66-28.11-.506-8.544-.496-17.13-.378-25.693.14-10.076.162-19.913-8.244-27.487-2.921-2.632-5.155-6.026-7.314-9.083.955-1.357 2.265-2.892 1.978-4.022-5.492-21.644-11.24-43.223-16.78-64.854-2.374-9.27-4.397-18.63-6.58-27.949z"
    />
    <path
      fill="#FFCD46"
      d="M422.401 394.903c-1.628-2.95-3.386-5.934-4.228-9.158-12.52-47.931-24.882-95.904-37.363-143.845-5.928-22.77-12.054-45.488-18.004-68.252-.577-2.208-.542-4.575-.779-7.315 20.919 20.353 41.825 41.154 62.86 62.684 2.092 8.921 3.938 17.143 6.038 25.3 8.998 34.943 18.07 69.866 27.115 104.796-11.78 11.882-23.562 23.763-35.639 35.79z"
    />
    <path
      fill="#FFD151"
      d="M277.644 104.083c2.545 9.4 4.568 18.76 6.942 28.03 5.54 21.631 11.288 43.21 16.78 64.854.287 1.13-1.023 2.665-2.269 3.884-2.152-1.37-3.624-2.61-5.24-4.152-4.716-4.766-9.286-9.234-14.004-14.005-5.05-5.101-9.951-9.898-14.998-14.995-5.382-5.43-10.62-10.563-16.002-15.994-7.716-7.765-15.288-15.23-23.005-22.994a3388.814 3388.814 0 0 0-29.485-29.771c-.881-.879-2.174-1.344-3.558-2.154-1.386-1.385-2.492-2.62-3.668-4.15-.47-1.012-.868-1.726-1.266-2.44 7.841 3.132 13.975 1.112 19.793-5.078 5.664-6.026 12.715-6.236 20.397-2.706 16.277 7.48 32.8 14.426 49.583 21.671z"
    />
    <path
      fill="#FBC94A"
      d="M294.001 196.999c1.472 1.241 2.944 2.483 4.707 3.863 2.839 3.184 5.073 6.578 7.994 9.21 8.406 7.574 8.384 17.411 8.244 27.487-.118 8.562-.128 17.15.377 25.692.556 9.39 1.831 18.735 2.66 28.111 1.354 15.31 2.6 30.628 3.891 45.943.709 8.403 1.408 16.807 2.126 25.21 1.224 14.322 2.69 28.63 3.586 42.972.395 6.322-.864 12.745-.49 19.07 1.057 17.825 2.57 35.622 3.902 53.852-6.812 1.693-12.946-.095-18.69-4.403.219-2.478.695-4.274.653-6.058-.257-10.951-.564-21.903-1-32.849-.171-4.293-.702-8.573-1.098-12.856-1.28-13.82-2.674-27.633-3.824-41.465-.638-7.678-.907-15.388-1.287-23.086-.592-11.992-1.27-23.982-1.658-35.98-.285-8.81.245-17.657-.316-26.441-.958-15.008-2.578-29.972-3.729-44.969-.4-5.225.244-10.556-.422-15.732-1.615-12.557-3.719-25.051-5.626-37.571z"
    />
    <path
      fill="#F8C147"
      d="M265 167.998c4.902 4.798 9.803 9.595 14.854 15.121 2.146 19.767 4.544 38.774 6.004 57.853 1.036 13.544.627 27.192 1.204 40.78.4 9.407 1.285 18.798 2.123 28.181 1.19 13.315 2.613 26.61 3.79 39.925.857 9.715 1.368 19.46 2.23 29.175 1.166 13.15 2.534 26.283 3.79 39.425.927 9.693 2.257 19.377 2.51 29.089.108 4.18 1.377 9.463-3.601 12.503-4.57-4.466-9.14-8.933-13.505-13.892.65-3.498 1.66-6.549 1.427-9.501-.672-8.54-2.198-17.018-2.74-25.562-.95-14.946-1.239-29.933-2.14-44.883-.754-12.521-2.05-25.009-2.995-37.52-1.369-18.11-2.644-36.23-3.948-54.346-.367-5.109-.63-10.227-1.112-15.324-.067-.708-1.132-1.32-1.788-2.421-.769-5.823-1.485-11.203-1.887-16.86.42-4.73.874-9.206.558-13.626-.726-10.182-1.9-20.331-2.752-30.505-.77-9.196-1.355-18.407-2.022-27.612z"
    />
    <path
      fill="#FFCB3F"
      d="M458.34 358.962c-9.345-34.779-18.417-69.702-27.415-104.645-2.1-8.157-3.946-16.379-5.897-25.002 21.856 21.292 43.713 43.001 65.507 64.773 1.122 1.12 1.686 2.79 2.55 4.178 5.68 9.119 3.072 23.39-4.7 30.926-10.043 9.74-19.84 19.733-30.044 29.77z"
    />
    <path
      fill="#FBC648"
      d="M298.05 460.352c4.832-3.342 3.563-8.625 3.455-12.805-.253-9.712-1.583-19.396-2.51-29.089-1.256-13.142-2.624-26.275-3.79-39.425-.862-9.715-1.373-19.46-2.23-29.175-1.177-13.316-2.6-26.61-3.79-39.925-.838-9.383-1.724-18.774-2.123-28.182-.577-13.587-.168-27.235-1.204-40.779-1.46-19.079-3.858-38.086-5.856-57.55 4.57 4.043 9.14 8.51 13.854 13.277 2.052 12.82 4.156 25.314 5.771 37.871.666 5.176.021 10.507.422 15.732 1.15 14.997 2.77 29.961 3.73 44.969.56 8.784.03 17.632.315 26.44.388 11.999 1.066 23.989 1.658 35.98.38 7.699.65 15.409 1.287 23.087 1.15 13.832 2.544 27.644 3.824 41.465.396 4.283.927 8.563 1.098 12.856.436 10.946.743 21.898 1 32.85.042 1.783-.434 3.579-.841 5.76-4.755-4.093-9.339-8.574-14.07-13.357z"
    />
    <path
      fill="#313552"
      d="M132.96 36.116c.346-4.56.844-9.114 1-13.68.175-5.112.041-10.235.043-15.811 19.305 7.773 32.285 22.046 39.577 41.523 3.75 10.018 3.761 20.578 2.97 31.537-8.815-2.656-17.192-5.733-25.56-9.228-1.274-14.242-6.79-25.813-18.03-34.341z"
    />
    <path
      fill="#F6BD47"
      d="M271.156 257.045c.603.656 1.668 1.27 1.735 1.977.483 5.097.745 10.215 1.112 15.324 1.304 18.116 2.58 36.235 3.948 54.347.946 12.51 2.24 24.998 2.995 37.519.901 14.95 1.19 29.937 2.14 44.883.542 8.544 2.068 17.022 2.74 25.562.233 2.952-.778 6.003-1.574 9.199-4.072-3.395-7.79-6.981-11.807-10.694-.677-2.032-1.364-3.934-1.384-5.844-.118-11.458-.083-22.918-.093-35.31-.03-10.286-.065-19.64-.047-29.46.013-36.177-.028-71.886.006-107.568.075.027.23.065.23.065z"
    />
    <path
      fill="#FD653E"
      d="M150.98 70.875c8.378 3.077 16.755 6.154 25.487 9.286 3.849 3.255 7.342 6.456 11.12 9.846.682.903 1.08 1.617 1.18 2.623-2.789-1.015-5.278-2.322-8.017-3.63-.417 0-.584 0-.792-.32-.68-.774-1.319-1.226-2.287-1.822-2.209-1.117-4.083-2.1-5.969-3.06-10.866-5.539-22.435-6.817-34.202-4.53-4.373.85-8.345 3.76-12.875 5.735-2.216.716-4.425.997-5.837 2.207-9.263 7.939-17.97 16.354-21.23 28.941-3.214-1.007-6.032-2.027-8.725-3.44 4.63-18.34 16.143-30.32 32.66-37.61 9.313-4.11 19.264-5.571 29.487-4.226z"
    />
    <path
      fill="#FF693D"
      d="M18.166 290.998c-.054-14.479-.823-29.005.142-43.416.474-7.073 3.837-14.056 6.455-20.864 9.284-24.15 18.941-48.156 28.164-72.328 2.676-7.013 8.939-11.944 15.855-11.625 3.944.183 7.997-2.002 12.543-3.453 1.233-.245 1.923-.158 2.674.254 1.41 1.714 2.805 3.06 4.095 4.502 2.028 2.268 3.985 4.599 5.682 7.149-.235 1.843-.725 3.752-.024 4.98 2.183 3.82.917 7.017-1.023 10.294-11.835 19.992-23.67 39.984-35.467 59.999-1.222 2.074-2.184 4.303-3.556 6.615-1.775 1.4-3.26 2.646-5.118 3.898-2.111 2.135-4.495 4.014-5.44 6.45-1.583 4.088-1.456 8.95-3.457 12.743-5.334 10.106-11.367 19.847-17.247 29.657-1.133 1.89-2.837 3.439-4.278 5.145z"
    />
    <path
      fill="#424059"
      d="M66.665 12.182c.338 9.592.3 19.2.367 28.806.012 1.782.442 3.562.82 6.102-8.333 15.934-9.173 31.267-.978 47.184-.4 2.345-.81 4.294-.845 6.25-.174 9.79-.25 19.584-.36 29.376-11.517-6.827-19.029-17.126-24.584-28.95-5.105-10.865-6.851-22.475-6.042-34.4 1.055-15.55 6.62-29.398 17.052-41.008 4.33-4.82 9.463-8.918 14.57-13.36z"
    />
    <path
      fill="#FF653F"
      d="M18.098 291.462c1.509-2.17 3.213-3.718 4.346-5.609 5.88-9.81 11.913-19.551 17.247-29.657 2.001-3.793 1.874-8.655 3.458-12.742.944-2.437 3.328-4.316 5.291-6.133-.997 3.997-3.172 7.656-3.276 11.372-.403 14.423-.147 28.864-.149 43.737-.024 2.48-.035 4.522-.44 6.66-.788 3.1-1.669 6.135-1.478 9.102.46 7.167-1.93 13.403-5.427 19.356-4.958 8.439-9.947 16.86-15.107 25.175-1.046 1.686-2.91 2.864-4.397 4.276-.046-21.691-.091-43.382-.068-65.537z"
    />
    <path
      fill="#FF6142"
      d="M18.097 357.463c1.556-1.876 3.42-3.054 4.466-4.74 5.16-8.315 10.15-16.736 15.107-25.175 3.498-5.953 5.887-12.189 5.427-19.356-.19-2.967.69-6.003 1.49-8.633.413 12.727.42 25.081.422 37.904-.01 11.824-.015 23.18-.386 34.607-2.027 4.83-3.111 9.895-5.463 14.28-5.41 10.09-11.38 19.883-17.28 29.702-.761 1.268-2.452 1.978-3.713 2.946-.046-20.357-.092-40.714-.07-61.535z"
    />
    <path
      fill="#FF5D45"
      d="M18.098 419.463c1.33-1.433 3.02-2.143 3.783-3.41 5.9-9.82 11.87-19.613 17.28-29.702 2.35-4.386 3.435-9.452 5.466-13.812.374 7.417.376 14.437.376 21.926C45 407.955 45 420.977 44.998 434c-.621.445-1.742.84-1.791 1.341-1.149 11.726-8.762 20.402-14.22 30.055-3.034 5.367-6.74 10.354-10.482 15.559-.384-20.312-.43-40.67-.407-61.491z"
    />
    <path
      fill="#3E3D57"
      d="M65.83 130.172c-.051-10.064.025-19.857.2-29.649.034-1.955.443-3.904 1.162-6.09 5.24 8.576 12.511 14.588 21.516 18.671 2.818 1.02 5.636 2.04 8.913 3.237.459.178.593.556.183.635-1.208 1.685-2.621 3.263-2.695 4.9-.293 6.473-.165 12.965-.606 19.432-3.796-.701-7.18-1.384-10.564-2.067-.69-.087-1.381-.174-2.422-.252a320.507 320.507 0 0 1-15.687-8.817z"
    />
    <path
      fill="#FEFAF5"
      d="M98.13 445.721c-2.795-3.719-1.799-7.372.069-11.1 5.63-11.243 11.193-22.519 17.093-34.358a24989.443 24989.443 0 0 0 24.72-50.25c-.018-.006.007.023.185-.087.417-.305.515-.554.672-1.162 4.504-9.126 8.807-17.948 13.357-27.023 7.44-14.68 14.633-29.107 21.826-43.533 4.593-9.21 10.262-9.947 17.085-1.944.254.486.506.694.727.84-.031-.063-.144.02-.208.402-.76 3.066-1.048 5.947-2.224 8.403-5.949 12.425-12.129 24.74-18.438 37.382-6.503 13.038-12.796 25.789-19.36 38.76-9.323 18.465-18.373 36.708-27.633 55.24a3159.066 3159.066 0 0 0-11.857 23.347c-3.834 7.622-4.693 8.108-13.28 6.984-1.018-.807-1.876-1.354-2.733-1.9z"
    />
    <path
      fill="#FF524D"
      d="M45 434.466c0-13.489 0-26.51.35-40.034 1.86-1.75 3.732-2.744 4.828-4.288 7.466-10.52 14.77-21.155 22.396-31.546 1.991 1.592 3.712 2.976 5.562 4.597.456.35.784.463 1.153.498.042-.079.212-.128.17.213 1.111 1.72 2.19 3.171 3.428 4.469 4.677 4.9 9.406 9.751 14.116 14.62-.654 2.648-.62 5.77-2.068 7.868-14.95 21.653-30.137 43.142-45.279 64.662-.346.492-.944.807-1.644 1.387-3.655-7.177-2.998-14.626-3.013-22.446z"
    />
    <path
      fill="#FF5D45"
      d="M97.982 446.05c1.006.218 1.864.765 3.005 1.887 5.192 5.406 10.1 10.236 15.154 15.366 3.382 3.1 6.619 5.901 9.856 9.12-.998 3.47-1.883 6.568-3.035 9.564-.799 2.08-1.965 4.018-2.967 6.02-4.02.002-8.04.004-12.522.011-10.153-.002-19.844-.01-30.004-.016-6.345-3.076-6.443-3.143-2.545-8.798 7.572-10.986 15.266-21.888 23.058-33.154z"
    />
    <path
      fill="#EE603B"
      d="M97.288 383.13a911.64 911.64 0 0 1-14.401-14.755c-1.238-1.298-2.317-2.748-3.06-4.382 7.788.478 15.235 2.208 22.532 1.716 12.394-.837 20.17-8.171 22.36-19.268.545-2.756.619-5.605 1.228-8.431 1.05-.348 1.95-.502 2.484-1.028 5.73-5.638 11.458-11.28 17.033-17.07.9-.935 1.045-2.597 1.836-3.779 2.424 2.05 4.552 3.955 6.68 5.86-4.304 8.823-8.607 17.645-13.27 26.894-.544.633-.655.874-.691 1.15 0 0-.025-.03-.374-.026-2.9 1.95-5.672 3.67-7.963 5.884-10.302 9.96-20.468 20.06-30.682 30.11a106.752 106.752 0 0 0-3.712-2.875z"
    />
    <path
      fill="#F7603F"
      d="M101.144 386.304a1409.378 1409.378 0 0 1 30.538-30.409c2.291-2.215 5.063-3.933 7.98-5.878-7.775 16.558-15.918 33.114-24.33 49.892-4.86-4.288-9.452-8.797-14.188-13.605z"
    />
    <path
      fill="#FF6B3B"
      d="M199.486 488.085c-4.83-.003-9.194-.035-14.017-.447 1.399-3.789 2.785-7.591 5.219-10.525 4.477-5.397 7.812-10.81 5.63-17.956 3.1 2.97 5.793 4.154 9.261.834 11.026-10.555 22.172-20.985 33.378-31.349 1.343-1.242 3.34-1.78 5.043-2.189.03 3.487.05 6.52.071 9.552-.02 11.28-.02 22.56-.064 33.84-.045 11.543-6.67 18.16-18.178 18.186-8.626.02-17.251.017-26.343.054z"
    />
    <path
      fill="#FF4257"
      d="M244.41 435.966c-.36-2.993-.38-6.026-.4-9.885.015-1.571.03-2.316.383-3.103 4.887-4.353 9.544-8.556 13.937-13.019 2.2-2.235 1.852-4.512-.598-6.829-4.082-3.86-7.837-8.067-11.427-12.277 3.967-4.38 7.489-8.748 11.336-12.808 4.253-4.49 8.804-8.699 13.226-13.03.036 9.354.071 18.707.052 28.528-5.505 3.555-8.067 9.553-6.666 15.088.445 1.76.71 4.359-.234 5.548-5.64 7.104-11.646 13.917-17.57 20.794-.398.462-1.125.642-2.039.993z"
    />
    <path
      fill="#FF663E"
      d="M196 459c2.5 7.302-.835 12.716-5.312 18.113-2.434 2.934-3.82 6.736-5.684 10.521-10.022.383-20.039.39-30.522.414-11.494-.002-22.521-.022-34.017-.041.532-2.002 1.698-3.94 2.497-6.02 1.152-2.996 2.037-6.093 3.489-9.567 4.485-.086 8.516.246 13.014.58 9.406-.03 18.519.731 26.182-5.373 5.432-4.326 10.713-8.854 16.315-12.946 1.955-1.427 4.668-1.817 7.34-2.533 2.435 2.383 4.567 4.617 6.699 6.852z"
    />
    <path
      fill="#FF5D45"
      d="M181 89.002c2.489 1.306 4.978 2.613 7.838 3.926 1.475 1.239 2.58 2.473 3.967 4.223 5.41 9.122 9.297 18.218 9.125 28.4-.12 7.088 2.218 12.529 7.828 16.544-2.184 1.961-4.546 3.482-5.832 5.643-11.888 19.974-23.404 40.171-35.437 60.056-4.934 8.154-8.002 17.917-17.402 22.723-.088.045-.061.314-.557.48-10.156-.004-19.845-.01-29.45-.392 1.238-.786 2.477-1.047 3.536-1.634 3.029-1.68 7.097-2.774 8.775-5.376 7.174-11.127 13.63-22.717 20.356-34.133 1.673-2.838.993-4.172-2.393-4.539-1.832-.198-3.572-1.254-4.924-1.923 17.445-1.09 31.729-7.304 42.382-21.239 14.988-19.603 13.256-50.035-4.141-67.654-1.455-1.473-2.458-3.393-3.671-5.105z"
    />
    <path
      fill="#F6BD47"
      d="M264.855 167.7c.812 9.503 1.397 18.714 2.167 27.91.852 10.174 2.026 20.323 2.752 30.505.316 4.42-.138 8.896-.809 13.376-6.07-14.14-11.574-28.31-17.088-42.833-.625-2.122-1.242-3.891-1.472-5.747.754-2.233 1.57-4.414 1.413-6.523-.802-10.805-1.855-21.59-2.82-32.384 5.238 5.132 10.475 10.264 15.857 15.695z"
    />
    <path
      fill="#EEAE43"
      d="M210.079 141.952c-5.931-3.872-8.269-9.313-8.149-16.4.172-10.183-3.714-19.279-8.844-28.25 1.103.294 2.396.76 3.277 1.638 9.816 9.787 19.57 19.638 29.487 30.227.153 5.414.158 10.074-.256 14.745-5.451-.645-10.483-1.303-15.515-1.96z"
    />
    <path
      fill="#F4B844"
      d="m226.013 143.9-.017-14.435c7.57 7.01 15.14 14.475 22.857 22.24 1.11 11.092 2.163 21.878 2.965 32.683.156 2.109-.66 4.29-1.68 6.288-3.295-6.92-5.837-13.732-8.603-20.452-2.684-6.522-5.599-12.95-8.476-19.747-2.391-2.41-4.718-4.493-7.046-6.577z"
    />
    <path
      fill="#FF504F"
      d="M251.887 197.011c5.504 14.17 11.008 28.34 16.763 42.759.968 5.628 1.684 11.008 2.453 16.83.053.445-.101.407-.533.403-1.746 1.08-3.45 1.921-4.307 3.292-4.016 6.428-7.684 13.073-11.694 19.504-4.957 7.95-8.92 16.153-8.676 25.851.02.77-1.221 1.57-1.882 1.887-.008-19.92.19-39.374-.191-58.816-.071-3.599-2.485-7.15-3.852-11.071-3.04-3.72-6.046-7.095-8.966-10.373 5.394-9.153 10.396-17.915 15.735-26.468 1.05-1.682 3.4-2.553 5.15-3.798z"
    />
    <path
      fill="#FE4952"
      d="M244.016 308.007c.656-.786 1.897-1.587 1.877-2.357-.245-9.698 3.719-17.9 8.676-25.851 4.01-6.431 7.678-13.076 11.694-19.504.856-1.37 2.56-2.212 4.232-3.32.398 35.687.439 71.396.426 107.572-4.476 4.8-9.027 9.007-13.28 13.498-3.847 4.06-7.369 8.428-11.65 12.806-1.036.143-1.455.139-1.909-.236a63.74 63.74 0 0 1-.102-3.075c.024-5.488.036-10.508.393-15.57 6.675-7.177 13.093-14.238 19.217-21.546.718-.856.435-3.662-.428-4.555-6.224-6.44-12.717-12.618-19.137-19.207a60.809 60.809 0 0 1-.037-2.108c.016-5.828.022-11.188.028-16.547z"
    />
    <path
      fill="#FD5A43"
      d="M180.75 89c1.463 1.714 2.466 3.634 3.92 5.107 17.398 17.619 19.13 48.05 4.142 67.654-10.653 13.935-24.937 20.148-42.81 21.24-5.523.173-10.052.117-10.665-6.143 1.78-.385 3.223-.621 5.047-.691 21.605 4.26 41.162-8.307 49.484-26.378 5.524-11.993 5.335-24.385 1.094-37.15-6.981-16.994-19.048-27.646-36.881-31.018-9.924-1.876-19.766-1.007-29.081 3.377 4.155-1.97 8.127-4.88 12.5-5.73 11.767-2.287 23.336-1.009 34.202 4.53 1.886.96 3.76 1.943 6.01 3.38A21.07 21.07 0 0 0 180 89h.75z"
    />
    <path
      fill="#F7563F"
      d="M124.625 85.003c9.69-4.389 19.532-5.258 29.456-3.382 17.833 3.372 29.9 14.024 36.54 30.969-4.67-4.755-8.513-10.416-13.494-14.777-16.698-14.618-38.867-15.646-56.486-2.442-7.114 5.332-13.682 11.732-15.076 21.628-2.74.004-5.045-.05-7.35-.102 0 0-.135-.378-.198-.568 2.801-12.765 11.508-21.18 20.771-29.119 1.412-1.21 3.621-1.49 5.837-2.207z"
    />
    <path
      fill="#FF5D45"
      d="M179.958 88.68c-.597-.132-1.236-.585-1.917-1.358.598.132 1.237.584 1.917 1.357z"
    />
    <path
      fill="#FF653F"
      d="M53.995 232.95c1.083-2.157 2.045-4.386 3.267-6.46 11.796-20.015 23.632-40.007 35.467-59.999 1.94-3.277 3.206-6.474 1.023-10.294-.701-1.228-.211-3.137.356-4.94 2.378 1.448 4.135 3.1 5.893 5.14 3.19 11.251 11.693 17.114 20.774 22.414 3.335 1.946 6.725 3.798 10.09 5.692l-.614 1.331-6.953-2.618c-.815.988-1.677 1.79-2.25 2.762a8801.761 8801.761 0 0 0-20.859 35.627c-1.794 3.08-3.468 6.232-5.634 9.361-2.478.023-4.518.037-7.028.043-5.952-.01-11.451-.27-16.916.053-5.556.33-11.078 1.235-16.616 1.888z"
    />
    <path
      fill="#FF3E5A"
      d="M53.706 233.105c5.827-.808 11.349-1.713 16.905-2.043 5.465-.324 10.964-.063 16.913.314.326 1.015.366 1.784.019 2.281-11.114 15.9-22.197 31.822-33.459 47.617-2.706 3.795-6.022 7.157-9.057 10.718-.01-14.435-.266-28.876.137-43.299.104-3.716 2.279-7.375 3.65-11.378 1.632-1.564 3.117-2.81 4.892-4.21z"
    />
    <path
      fill="#D65C39"
      d="M100 156.009c-1.757-1.652-3.514-3.304-5.603-4.997-2.318-2.345-4.275-4.676-6.303-6.944-1.29-1.441-2.686-2.788-4.095-4.502 3.324.358 6.708 1.04 10.86 1.949 8.56.357 16.354.49 24.15.97 2.012 3.038 4.022 5.728 5.763 8.725-2.225.445-4.324 1.115-6.11.63-6.74-1.828-12.131 1.365-17.925 4.176l-.737-.007z"
    />
    <path
      fill="#FF4656"
      d="M45.015 292.43c3.047-4 6.363-7.36 9.07-11.156 11.26-15.795 22.344-31.717 33.458-47.617.347-.497.307-1.266.45-2.275 2.044-.38 4.084-.393 7.032-.401 8.928.013 16.95.021 24.936.386-.72 1.865-1.19 3.523-2.123 4.858-7.483 10.718-15.155 21.305-22.54 32.09-2.446 3.573-4.22 7.607-6.696 11.538-15.125 3.108-21.013 9.686-22.303 24.67-.214 2.484-.244 4.984-.702 7.517-4.998 6.169-9.576 12.357-14.343 18.397-1.86 2.358-4.146 4.381-6.238 6.557-.008-12.354-.016-24.708-.036-37.53 0-2.512.011-4.554.035-7.034z"
    />
    <path
      fill="#FF4C52"
      d="M45.009 337.463c2.099-2.645 4.384-4.668 6.245-7.026 4.767-6.04 9.345-12.228 14.426-17.935.44 8.75.311 17.079.509 25.4.173 7.338.847 14.626 6.115 20.489-7.356 10.598-14.66 21.233-22.126 31.753-1.096 1.544-2.968 2.538-4.826 3.82-.349-6.988-.351-14.008-.358-21.498 0-11.823.004-23.179.015-35.003z"
    />
    <path
      fill="#383955"
      d="M119.006 142.137c-7.793-.132-15.586-.265-23.735-.604-.327-6.692-.455-13.184-.162-19.657.074-1.637 1.487-3.215 2.695-4.9 2.716-.026 5.021.027 8.132.09 1.556-.053 2.305-.118 3.467-.126 3.834-.935 7.256-1.926 11.048-2.934 2.417-.719 4.464-1.42 6.675-1.728.414 9.207.664 18.021.735 27.17-3.07 1.12-5.963 1.905-8.855 2.69z"
    />
    <path
      fill="#FF574A"
      d="M251.877 196.658c-1.74 1.598-4.09 2.469-5.14 4.151-5.339 8.553-10.341 17.315-15.735 26.468 2.92 3.278 5.925 6.652 8.6 10.37-3.417-.88-5.532.18-7.376 2.858-10.02 14.542-20.144 29.013-30.528 43.36-2.858-2.346-5.418-4.543-7.978-6.74 0 0 .113-.084.101-.265-.148-.498-.373-.73-.687-.873-6.82-7.726-12.49-6.99-17.082 2.22-7.193 14.427-14.386 28.855-21.826 43.534-2.374-1.653-4.502-3.558-7.07-5.9-2.013-2.235-3.588-4.032-5.015-6.133 1.895-2.502 3.754-4.623 5.375-6.911 12.042-16.995 24.067-34.002 36.03-51.053 4.029-5.741 7.864-11.619 11.787-17.434l-.5-1.873c-5.945-.48-11.89-.96-17.768-1.804 1.98-1.12 3.95-1.758 5.788-2.664 1.796-.884 4.165-1.62 5.072-3.142 10.769-18.074 21.188-36.356 31.976-54.418 4.035-6.757 8.793-13.082 13.222-19.604 2.813 6.469 5.728 12.897 8.412 19.42 2.766 6.719 5.308 13.53 8.216 20.537.884 2.005 1.5 3.774 2.126 5.896z"
    />
    <path
      fill="#E06137"
      d="M126.21 417.002c9.051-18.243 18.101-36.486 27.604-54.683 1.304-.188 2.406-.157 2.97-.692 8.805-8.359 17.682-16.65 26.256-25.242 10.105-10.126 19.965-20.498 29.853-30.838 1.581-1.654 2.754-3.698 4.414-5.415 3.768 3.718 7.238 7.29 10.435 11.05-1.09 1.226-1.824 2.342-2.737 3.287-10.704 11.077-21.484 22.083-32.11 33.234-1.64 1.722-2.612 4.082-4.295 6.234-16.58 2.346-23.112 8.768-25.12 24.465-.351 2.064-.48 3.836-.944 5.646-1.734 1.173-3.24 2.2-4.512 3.463-8.844 8.777-17.589 17.654-26.5 26.362-1.427 1.395-3.525 2.103-5.313 3.129z"
    />
    <path
      fill="#ED6435"
      d="M126 417.29c1.999-1.314 4.097-2.022 5.525-3.417 8.91-8.708 17.655-17.585 26.499-26.362a13.578 13.578 0 0 1 4.556-3.002c.518 5.025.656 9.625.915 14.695.185 6.91.248 13.35-.047 19.798-2.594 2.045-4.913 4.001-7.057 6.134-11.408 11.35-22.723 22.797-34.208 34.07-1.683 1.652-4.106 2.55-6.187 3.798-4.909-4.83-9.817-9.66-14.849-14.807 8.304.55 9.163.063 12.997-7.56a3158.187 3158.187 0 0 1 11.857-23.346z"
    />
    <path
      fill="#D65C39"
      d="M217.008 299.985c-1.361 1.864-2.534 3.908-4.115 5.562-9.888 10.34-19.748 20.712-29.853 30.838-8.574 8.592-17.45 16.883-26.256 25.242-.564.535-1.666.504-2.698.47 6.112-13.017 12.405-25.768 19.26-38.813 2.042-1.242 3.744-1.966 4.971-3.173 8.387-8.25 16.71-16.566 24.959-24.955 1.475-1.5 2.502-3.442 4.035-5.032 3.43 3.386 6.564 6.624 9.697 9.861z"
    />
    <path
      fill="#CC5740"
      d="M207.013 289.976c-1.235 1.738-2.262 3.68-3.737 5.18a2114.313 2114.313 0 0 1-24.959 24.955c-1.227 1.207-2.929 1.931-4.762 2.885 5.748-12.347 11.928-24.662 17.877-37.087 1.176-2.456 1.463-5.337 2.224-8.403 2.624 1.816 5.184 4.013 8.183 6.653 2.016 2.233 3.595 4.025 5.174 5.817z"
    />
    <path
      fill="#F7603F"
      d="M140.197 349.926c-.142-.165-.031-.406.312-.737.203.183.105.432-.312.737z"
    />
    <path
      fill="#CC5740"
      d="M193.137 276.264c.311-.133.536.098.715.66-.209.034-.46-.174-.715-.66z"
    />
    <path
      fill="#FEFAF5"
      d="M72.574 358.598c-5.538-6.07-6.212-13.358-6.385-20.695-.198-8.322-.07-16.652-.166-25.44.032-2.956.062-5.456.276-7.94 1.29-14.984 7.178-21.562 22.712-24.616 11.333-1.138 21.266.165 29.897 7.492 1.085 1.397 2.036 2.505 3.024 3.912a9.527 9.527 0 0 0 1.062 1.704c.008-.014-.022-.002.026.386.75 4.061 1.769 7.708 2.08 11.414.45 5.37.389 10.784.403 16.625-.053 5.828.036 11.209.124 16.59-.29 2.806-.363 5.655-.907 8.411-2.192 11.097-9.967 18.431-22.361 19.268-7.297.492-14.744-1.238-22.491-2.057-.367-.087-.537-.038-.668-.223-.485-.28-.839-.376-1.192-.47a2268.156 2268.156 0 0 0-5.434-4.36m30.034-63.238c-1.795-.336-3.586-.936-5.386-.964-10.632-.161-14.723 3.064-15.204 12.626-.134 2.651.073 5.32-.018 8.891.05 3.695.1 7.39.005 12.002.08 4.026.161 8.051.184 12.822.659 4.21 1.748 8.12 7.167 9.917 1.134.173 2.267.36 3.404.517 11.715 1.609 16.974-2.925 17.094-14.779.018-1.803-.144-3.608-.057-6.324-.063-4.363-.126-8.725-.012-13.978-.275-4.03-.55-8.062-.74-12.835-1.957-2.448-3.914-4.896-6.437-7.895z"
    />
    <path
      fill="#EE603B"
      d="M78.136 363.195c.225-.142.58-.047 1.023.312-.239.151-.567.038-1.023-.312z"
    />
    <path
      fill="#F76939"
      d="M116.141 463.303c1.936-1.547 4.359-2.445 6.042-4.097 11.485-11.273 22.8-22.72 34.208-34.07 2.144-2.133 4.463-4.09 7.147-5.75 1.653 8.88 5.713 15.405 13.617 19.615.32.872.582 1.438.461 2.003-2.208.913-4.279 1.531-5.816 2.797-5.076 4.176-10.004 8.535-14.904 12.919-6.01 5.376-11.935 10.848-17.897 16.279-4.032-.333-8.063-.665-12.549-.996-3.69-2.799-6.927-5.6-10.309-8.7z"
    />
    <path
      fill="#E56340"
      d="M125.947 338.01c-.408-5.361-.497-10.742-.126-16.583 4.702-4.783 8.944-9.106 13.462-13.304 1.087.713 1.9 1.3 2.711 1.889 1.574 1.797 3.149 3.594 4.866 5.684-.35 1.619-.496 3.281-1.396 4.217-5.575 5.79-11.303 11.431-17.033 17.07-.534.525-1.434.68-2.484 1.027z"
    />
    <path
      fill="#F76D35"
      d="M177.998 441.005c-.26-.566-.522-1.132-.45-1.922.805-.073 1.278.08 1.751.23 22.91 7.26 38.987-1.326 43.996-23.343 5.343-4.72 10.262-9.496 15.383-14.044 1.476-1.31 3.535-1.965 5.33-2.452.018 8.161.032 15.854.047 23.547-.015.744-.03 1.489-.055 2.606-1.704 1.236-3.7 1.773-5.043 3.015-11.206 10.364-22.352 20.794-33.378 31.349-3.468 3.32-6.161 2.136-9.262-.834-2.448-2.392-4.58-4.626-7.16-7.309a8866.764 8866.764 0 0 0-11.159-10.843z"
    />
    <path
      fill="#FF504F"
      d="M244.393 422.978c-.353-7.65-.367-15.343-.38-23.949.036-3.29.07-5.666.104-8.043l1.571.014c4.207 4.063 7.962 8.27 12.044 12.13 2.45 2.317 2.799 4.594.598 6.83-4.393 4.462-9.05 8.665-13.937 13.018z"
    />
    <path
      fill="#FF693D"
      d="M177.616 441.004c3.953 3.466 7.523 6.932 11.238 10.696-2.224 1.164-4.937 1.554-6.892 2.981-5.602 4.092-10.883 8.62-16.315 12.946-7.663 6.104-16.776 5.343-26.182 5.372 5.496-5.43 11.421-10.903 17.431-16.28 4.9-4.383 9.828-8.742 14.904-12.918 1.537-1.266 3.608-1.884 5.816-2.797z"
    />
    <path
      fill="#FF5B47"
      d="M233.06 150.477c-4.366 6.85-9.124 13.175-13.16 19.932-10.787 18.062-21.206 36.344-31.975 54.418-.907 1.523-3.276 2.258-5.072 3.142-1.839.906-3.809 1.544-6.256 2.665-6.556.367-12.578.369-19.037.37l-6.561-.009c.027-.164 0-.433.088-.478 9.4-4.806 12.468-14.569 17.402-22.723 12.033-19.885 23.549-40.082 35.437-60.056 1.286-2.161 3.648-3.682 5.832-5.643 5.353.514 10.385 1.172 15.836 1.817 2.747 2.072 5.074 4.155 7.465 6.565z"
    />
    <path
      fill="#FF4C52"
      d="M150.53 230.997c2.51 0 4.551.003 6.995.362-.282 1.67-.835 3.077-1.673 4.286-9.81 14.154-19.614 28.314-29.546 42.383-2.261 3.204-5.01 6.064-7.533 9.083-8.496-7.039-18.43-8.342-29.369-7.312 1.673-3.877 3.448-7.91 5.894-11.484 7.385-10.785 15.057-21.372 22.54-32.09.932-1.335 1.403-2.993 2.373-4.866.453-.368.62-.373.786-.377 9.688.005 19.377.011 29.533.015z"
    />
    <path
      fill="#FF6142"
      d="M121.08 230.605c-.25.381-.416.386-.833.398-8.272-.001-16.294-.01-24.785-.032 1.26-3.134 2.933-6.285 4.727-9.366a8801.761 8801.761 0 0 1 20.86-35.627c.572-.972 1.434-1.774 2.249-2.762l6.953 2.618.614-1.33c-3.365-1.895-6.755-3.747-10.09-5.693-9.081-5.3-17.584-11.163-20.774-22.414 0-.388.49-.384.883-.085 2.962 2.768 5.531 5.235 8.249 8 2.585 2.792 5.39 5.027 7.382 7.838 3.883 5.479 8.619 6.46 14.832 3.854 1.45.337 2.551.67 3.651 1.003.952 6.11 5.48 6.167 10.574 5.993 2.21.67 3.95 1.725 5.782 1.923 3.386.367 4.066 1.7 2.393 4.54-6.727 11.415-13.182 23.005-20.356 34.132-1.678 2.602-5.746 3.697-8.775 5.376-1.059.587-2.298.848-3.537 1.634z"
    />
    <path
      fill="#FF5D45"
      d="M207.31 290.124a94.512 94.512 0 0 1-5.174-5.817c9.946-14.79 20.07-29.26 30.09-43.802 1.844-2.678 3.96-3.738 7.411-2.511 1.698 3.576 4.112 7.128 4.183 10.727.382 19.442.183 38.897.19 58.816 0 5.83-.006 11.189-.345 16.981-1.439-.22-2.546-.874-3.8-1.825-4.05-4.098-7.95-7.9-11.85-11.7-3.47-3.572-6.94-7.143-10.708-10.861-3.432-3.384-6.565-6.622-9.996-10.008z"
    />
    <path
      fill="#F26833"
      d="M240.012 322.991c1.107.653 2.214 1.307 3.644 1.996.334.473.345.91.358 2.144-.006 8.487-.013 16.177-.384 23.872-1.863.912-3.608 1.572-4.817 2.772-5.026 4.986-9.89 10.135-15.129 15.09-1.192-.306-2.068-.475-2.921-.69.023-.044.093.027.052-.23a3.512 3.512 0 0 0-.81-.944c-.016-.004 0-.035-.023-.331-.353-.753-.684-1.209-1.282-1.861-3.841-3.01-7.415-5.823-10.667-8.792 10.874-11.112 21.427-22.07 31.98-33.026z"
    />
    <path
      fill="#F65042"
      d="M243.995 350.998c.006-7.69.013-15.38.031-23.539 6.42 5.792 12.912 11.97 19.136 18.41.863.893 1.146 3.699.428 4.555-6.124 7.308-12.542 14.37-19.228 21.076-.36-7.12-.363-13.81-.367-20.502z"
    />
    <path
      fill="#F76939"
      d="M243.63 351.003c.369 6.686.373 13.378.387 20.54-.001 5.49-.013 10.51-.376 15.96-2.778-1.549-5.205-3.528-7.78-5.806-4.053-4.43-7.957-8.564-11.861-12.697 4.923-5.09 9.787-10.239 14.813-15.225 1.209-1.2 2.954-1.86 4.817-2.772z"
    />
    <path
      fill="#F26833"
      d="M236.008 381.995c2.428 1.98 4.855 3.96 7.622 5.975.365.782.391 1.528.452 2.645 0 2.748-.033 5.124-.073 7.946-1.796 1.4-3.855 2.054-5.331 3.365-5.121 4.548-10.04 9.324-15.439 13.578-.331-6.79-.259-13.145.155-19.537 2.427-1.843 4.757-3.44 6.54-5.51 2.257-2.62 4.07-5.624 6.074-8.462z"
    />
    <path
      fill="#F65042"
      d="M108.991 116.884c-.75.064-1.5.129-2.62.126.588-9.907 7.156-16.307 14.27-21.639 17.62-13.204 39.788-12.176 56.486 2.442 4.981 4.361 8.825 10.022 13.53 15.137 4.546 12.454 4.735 24.846-.789 36.839-8.322 18.07-27.88 30.637-49.45 26.034.961-2.613 2.272-4.716 4.019-6.82 2.89-.327 5.337-.752 7.801-.961 17.838-1.514 30.931-17.508 32.6-33.332 3.224-30.542-26.363-52.417-54.124-41.389-10.772 4.28-18.735 11.79-21.723 23.563z"
    />
    <path
      fill="#F7563F"
      d="M144 169.005c-1.31 2.102-2.62 4.205-3.965 6.651-1.475.58-2.918.817-4.698 1.202-1.439-.184-2.54-.517-4.028-1.21-2.029-3.786-3.67-7.213-4.907-10.641 4.132-.997 7.862-1.993 11.737-2.694 2.05 2.427 3.956 4.56 5.86 6.692z"
    />
    <path
      fill="#E55934"
      d="M124.772 151.21c4.81 1.807 9.35 3.92 14.068 6.712-.164 1.818-.506 2.958-.847 4.097-3.73.995-7.46 1.99-12.021 2.985-2.272-.19-3.708-.477-5.153-.548-3.943-.196-7.89-.3-11.835-.441-2.569-2.468-5.138-4.935-7.855-7.7 5.402-3.11 10.792-6.303 17.533-4.475 1.786.485 3.885-.185 6.11-.63z"
    />
    <path
      fill="#EA4A42"
      d="M138.14 162.313c.194-1.433.536-2.573.891-4.074 17.253 1.111 31.364-8.505 34.47-25.242 1.598-8.613-1.124-16.09-6.889-23.298-5.859-8.64-17.578-12.666-26.974-9.658-1.636.273-2.922.493-4.127.934-6.724 2.466-12.442 6.151-15.43 13.048-3.422.991-6.844 1.982-10.678 2.917 2.576-11.829 10.539-19.34 21.311-23.619 27.76-11.028 57.348 10.847 54.125 41.39-1.67 15.823-14.763 31.817-32.6 33.33-2.465.21-4.911.635-7.802.962-2.342-2.13-4.247-4.263-6.298-6.69z"
    />
    <path
      fill="#313552"
      d="M140.025 100.09c9.009-3.057 20.728.969 26.348 9.378-9.195 14.307-21.177 24.755-37.944 29.591-.64-8.76-.889-17.574-1.165-27.099 4.236-4.43 8.499-8.15 12.761-11.87z"
    />
    <path
      fill="#FF514D"
      d="M118.908 287.399c2.389-3.307 5.137-6.167 7.398-9.37 9.932-14.07 19.735-28.23 29.546-42.384.838-1.209 1.391-2.616 2.11-4.286 6.057-.356 12.079-.358 18.569-.36 6.412.479 12.357.959 18.301 1.438l.501 1.873c-3.923 5.815-7.758 11.693-11.787 17.434-11.963 17.05-23.988 34.058-36.03 51.053-1.621 2.288-3.48 4.41-5.375 6.911-.959-.284-1.77-.872-3.007-1.883a6344.445 6344.445 0 0 0-16.162-14.812s.03-.012.009-.31c-.377-.76-.732-1.225-1.087-1.69-.95-1.109-1.9-2.217-2.986-3.614z"
    />
    <path
      fill="#FEFAF5"
      d="M223.053 396.003c-.073 6.356-.145 12.711-.162 19.533-4.605 22.45-20.682 31.038-43.592 23.778-.473-.15-.946-.304-1.811-.537-8.237-3.986-12.297-10.512-13.593-19.398-.152-6.825-.215-13.265-.262-20.6.034-7.486.052-14.078.07-20.67 1.785-15.404 8.317-21.826 25.355-24.11 6.79.707 12.722 1.44 18.654 2.173 3.573 2.814 7.147 5.627 11.01 8.928.62.946.951 1.406 1.283 1.866 0 0-.016.031.025.306.302.494.564.712.826.93 0 0-.07-.07-.05.373.763 9.438 1.505 18.433 2.247 27.428m-27.932-27.026c-8.845-.33-13.772 1.892-14.943 7.271-.687 3.154-.527 6.492-.942 10.636.064 3.04.127 6.079-.004 10.024.064 4.033.127 8.066.002 12.897.873 4.088 1.746 8.177 2.936 12.905 5.663 5.255 12.288 4.59 18.657 2.275 5.843-2.125 6.137-7.737 6.193-13.015.046-4.323-.093-8.647-.006-13.89-.048-4.36-.096-8.72-.001-13.935-.981-3.772-1.962-7.543-3.22-11.94-2.6-1.01-5.2-2.02-8.672-3.228z"
    />
    <path
      fill="#E96533"
      d="M208.033 356.017c-6.253-.578-12.184-1.311-18.574-2.106.824-2.126 1.795-4.486 3.436-6.208 10.626-11.151 21.406-22.157 32.11-33.234.913-.945 1.648-2.06 2.737-3.287 4.173 3.612 8.074 7.413 12.122 11.511-10.404 11.255-20.957 22.212-31.83 33.324z"
    />
    <path
      fill="#F76939"
      d="M163.48 378.402c.205 6.3.187 12.89.031 19.908-.275-4.176-.413-8.776-.595-13.838.085-2.234.213-4.006.564-6.07z"
    />
    <path
      fill="#C34F44"
      d="M82.247 339.993c-.081-4.026-.162-8.051.164-12.576 6.935-6.773 13.387-13.13 20.041-19.266 1.862-1.717 4.322-2.786 6.507-4.153.276 4.031.551 8.062.399 12.55-1.897 1.447-3.554 2.243-4.802 3.46-5.83 5.683-11.482 11.552-17.357 17.19-1.325 1.27-3.285 1.88-4.952 2.795z"
    />
    <path
      fill="#CC5740"
      d="M82.218 340.365c1.696-1.286 3.656-1.896 4.98-3.168 5.876-5.637 11.528-11.506 17.358-17.19 1.248-1.216 2.905-2.012 4.713-3.014.402 4.351.465 8.713.12 13.589-2.25 1.832-4.299 2.94-5.894 4.51-4.995 4.917-9.818 10.007-14.708 15.03-4.85-1.265-5.94-5.173-6.57-9.757z"
    />
    <path
      fill="#B5494B"
      d="M109.003 303.627c-2.229 1.738-4.689 2.807-6.55 4.524-6.655 6.137-13.107 12.493-19.97 18.807-.383-3.654-.433-7.349-.056-11.505 1.559-1.044 2.927-1.39 3.785-2.246 5.715-5.704 11.32-11.518 16.961-17.295 1.958 2.448 3.915 4.896 5.83 7.715z"
    />
    <path
      fill="#AA4554"
      d="M102.89 295.636c-5.358 6.053-10.963 11.867-16.678 17.57-.858.857-2.226 1.203-3.714 1.791-.407-2.654-.614-5.323-.48-7.974.481-9.562 4.572-12.787 15.204-12.626 1.8.028 3.591.628 5.669 1.24z"
    />
    <path
      fill="#D65C39"
      d="M123.02 293.401c5.198 4.408 10.444 9.205 15.84 14.3-4.095 4.62-8.337 8.943-12.897 13.28-.474-5.382-.413-10.795-.864-16.166-.31-3.706-1.328-7.353-2.079-11.414z"
    />
    <path
      fill="#E56340"
      d="M89.071 350.388c4.606-5.289 9.43-10.38 14.424-15.295 1.595-1.57 3.645-2.679 5.811-4.055.404 1.747.566 3.552.548 5.355-.12 11.854-5.38 16.388-17.094 14.779-1.137-.156-2.27-.344-3.689-.784z"
    />
    <path
      fill="#D65C39"
      d="M121.932 291.311c.317.167.672.631 1.04 1.407-.325-.162-.663-.636-1.04-1.407z"
    />
    <path
      fill="#ED6435"
      d="M109.133 164.312c3.797-.157 7.743-.052 11.686.144 1.445.071 2.88.359 4.75.55 2.07 3.43 3.711 6.856 5.39 10.639-5.825 2.966-10.56 1.984-14.444-3.495-1.992-2.811-4.797-5.046-7.382-7.838z"
    />
    <path
      fill="#E26830"
      d="M223.394 395.967c-1.083-8.959-1.825-17.954-2.61-27.348.832-.23 1.708-.06 2.9.245a447.203 447.203 0 0 1 12.176 12.833c-1.856 3.136-3.669 6.14-5.927 8.76-1.782 2.07-4.112 3.667-6.54 5.51zM219.982 366.67c-.309-.164-.64-.624-.993-1.374.31.165.64.621.993 1.374zM220.815 367.945c-.22.039-.483-.18-.769-.669.227-.043.477.184.769.67z"
    />
    <path
      fill="#D76334"
      d="M181.853 422.07c-.873-4.088-1.746-8.177-2.188-12.675 1.897-1.403 3.551-2.205 4.799-3.423 6.065-5.924 11.985-11.997 18.049-17.923 1.25-1.223 2.895-2.043 4.357-3.05.048 4.36.096 8.72-.264 13.58-1.91 1.745-3.5 2.9-4.904 4.249-6.644 6.385-13.237 12.823-19.849 19.242z"
    />
    <path
      fill="#E26830"
      d="M182.012 422.39c6.453-6.739 13.046-13.177 19.69-19.562 1.403-1.349 2.993-2.504 4.833-3.789.392 4.284.53 8.608.485 12.931-.056 5.278-.35 10.89-6.193 13.015-6.37 2.316-12.994 2.98-18.815-2.595z"
    />
    <path
      fill="#CC5D39"
      d="M206.942 384.572c-1.534 1.434-3.178 2.254-4.43 3.477-6.063 5.926-11.983 12-18.048 17.923-1.248 1.218-2.902 2.02-4.705 3.024a68.027 68.027 0 0 1-.094-12.552c1.054-.652 1.867-.65 2.267-1.055 7.409-7.49 14.768-15.03 22.138-22.558.98 3.771 1.962 7.542 2.872 11.741z"
    />
    <path
      fill="#C34F44"
      d="M203.93 372.518c-7.23 7.842-14.59 15.38-21.998 22.871-.4.405-1.213.403-2.17.602-.399-3.028-.462-6.068-.109-9.61 6.913-4.938 13.005-9.757 16.34-17.205 2.6 1.01 5.2 2.02 7.938 3.342z"
    />
    <path
      fill="#B5494B"
      d="M195.557 369.076c-2.899 7.548-8.991 12.367-15.807 16.86-.099-3.196-.259-6.534.428-9.688 1.17-5.38 6.098-7.6 15.38-7.172z"
    />
</svg>