<svg version="1.1" id="Layer_1" xmlns="http://www.w3.org/2000/svg" xmlns:xlink="http://www.w3.org/1999/xlink" x="0px" y="0px"
	 width="100%" viewBox="0 0 256 256" enable-background="new 0 0 154 154" xml:space="preserve">
    <style>
        .icon-mid-white-color-change{
            fill: #666467;
        }
        @media (prefers-color-scheme: dark) {
            .icon-mid-white-color-change{
                fill: #afafaf;
            }
        }
    </style>
    <path
        fill="#ECE2C5"
        d="M1 182.469c.65-.763 1.772-.938 1.882-1.37 4.284-16.9 14.478-29.596 29.497-37.585 10.823-5.756 22.64-8.47 35.619-6.857 13.742 1.707 25.395 7.154 34.996 16.207 9.891 9.326 16.1 21.128 18.15 35.09 1.949 13.26-.918 25.377-6.488 37.751-5.426 6.15-10.513 11.823-15.768 17.156-.75-2.056-1.274-3.795-1.923-5.484-5.555-14.45-15.682-23.327-30.96-25.796.763-.366 1.254-.468 1.726-.626 10.781-3.6 17.706-14.2 16.094-24.628-1.67-10.809-10.504-19.058-20.88-19.5-11.51-.488-21.259 6.68-23.675 17.407-2.436 10.814 3.1 21.161 13.83 25.93 1.027.455 1.952 1.137 2.545 1.804-17.908 3.78-27.854 14.957-32.167 31.855-10.632-7.845-16.858-18.278-20.527-30.45C2.678 212.47 1.668 211.787 1 211v-28.531zM159.02 108.198c-11.453-7.79-17.277-19.299-20.997-32.109-4.383-15.095-1.124-29.386 5.292-43.769 1.04-1.12 1.898-1.69 2.408-2.485 9.23-14.399 22.13-23.533 38.834-27.306C185.758 2.258 186.855 1.521 188 1c7.354 0 14.708 0 22.21.317.485.685.76 1.277 1.167 1.387 22.813 6.173 37.556 20.438 43.74 43.387.12.44 1.233.612 1.883.909v28.531c-.597.611-1.665.649-1.724.911-2.876 12.856-10.234 22.878-20.323 31.433-2.355-4.533-3.757-9.18-6.043-13.34-5.709-10.39-15.226-15.678-26.055-18.737 1.959-.987 3.687-1.613 5.25-2.524 10.138-5.907 14.075-18.386 9.192-28.944-4.96-10.725-16.717-15.716-27.882-11.835-11.015 3.83-17.288 15.317-14.429 26.688 2.294 9.118 8.67 14.189 16.976 17.113-7.72 1.388-14.311 4.263-19.969 9.263-6.896 6.094-10.294 14.15-12.974 22.639z"
        opacity="1"
    ></path>
    <path
        class="icon-mid-white-color-change"
        d="M187.531 1c-.676.52-1.773 1.258-2.974 1.53-16.704 3.772-29.605 12.906-38.834 27.305-.51.794-1.368 1.365-2.403 2.1-8.83.062-17.338-.27-25.81.133-18.11.86-34.239 7.002-48.545 18.346C56.257 60.49 47.704 73.527 40.09 87.82l12.604 7.692L7.18 117.74c-.79-5.323-1.463-10.013-2.184-14.695-1.035-6.723-2.105-13.44-3.578-20.103C1 77.645 1 72.29 1.33 66.586c3.88 1.588 7.428 3.527 11.34 5.664 1.298-2.486 2.21-4.796 3.592-6.781 6.541-9.404 12.326-19.532 20.016-27.899C53.056 19.317 73.998 7.73 98.49 2.872 99.093 2.752 99.501 1.646 100 1h87.531zM99.056 243.2c5.087-5.672 10.174-11.345 15.588-17.112 8.483-.092 16.648.152 24.793-.136 18.626-.66 35.156-6.894 49.808-18.58 12.55-10.007 20.983-22.981 28.741-37.094l-12.713-7.836 46.393-22.14c1.183 10.755 2.233 20.536 3.369 30.307.14 1.202.737 2.351 1.544 3.458.421 5.621.421 11.31.09 17.347-3.888-1.582-7.443-3.515-11.234-5.575-2.51 4.387-4.866 8.5-7.215 12.615-7.671 13.443-17.541 25.079-29.837 34.41-14.556 11.046-30.733 18.859-48.858 22.264-.605.114-1.021 1.226-1.525 1.872-29.354 0-58.708 0-88.332-.336 10.803-2.03 20.903-5.921 29.388-13.463z"
        opacity="1"
    ></path>
    <path
        fill="#FCD435"
        d="M98.888 242.86c-8.317 7.883-18.417 11.774-29.69 13.804-7.219.336-14.24.336-21.41.02-.955-.771-1.708-1.411-2.571-1.649-7.936-2.179-15.365-5.308-21.439-11.078 4.013-17.032 13.96-28.208 32.314-31.947 3.762-.095 6.698-.143 9.633-.192 15.558 2.232 25.685 11.11 31.24 25.559.65 1.69 1.173 3.428 1.923 5.484z"
        opacity="1"
    ></path>
    <path
        fill="#FCD435"
        d="M159.148 108.506c2.551-8.796 5.949-16.853 12.845-22.947 5.658-5 12.25-7.875 20.394-9.274 3.882-.242 7.022-.25 10.16-.257 11.137 2.83 20.654 8.118 26.363 18.507 2.286 4.16 3.688 8.807 5.74 13.52-7.268 6.313-15.731 10.103-25.18 12.203-18.64 4.142-35.158-.2-50.322-11.752z"
        opacity="1"
    ></path>
    <path
        fill="#676568"
        d="M66.006 211.58c-3.216.287-6.152.335-9.535.341-1.419-.62-2.344-1.302-3.37-1.757-10.732-4.769-16.267-15.116-13.831-25.93 2.416-10.727 12.166-17.895 23.676-17.406 10.375.44 19.21 8.69 20.88 19.5 1.61 10.427-5.314 21.027-16.095 24.627-.472.158-.963.26-1.725.626zM202.855 75.798c-3.446.237-6.586.245-10.149.264-9.05-2.69-15.426-7.76-17.72-16.88-2.86-11.37 3.414-22.858 14.43-26.687 11.164-3.88 22.92 1.11 27.88 11.835 4.884 10.558.947 23.037-9.192 28.944-1.562.91-3.29 1.537-5.249 2.524z"
        opacity="1"
    ></path>
</svg>