<svg version="1.1" id="Layer_1" xmlns="http://www.w3.org/2000/svg" xmlns:xlink="http://www.w3.org/1999/xlink" x="0px" y="0px"
	 width="100%" viewBox="0 0 512 512" enable-background="new 0 0 154 154" xml:space="preserve">
    <style>
        .icon-mid-white-color-change{
            fill: #666467;
        }
        @media (prefers-color-scheme: dark) {
            .icon-mid-white-color-change{
                fill: #fafafa;
            }
        }
    </style>
    <path
        class="icon-mid-white-color-change"
        d="M513 265.532c-1.977 2.61-3.89 4.817-5.942 6.885-12.672 12.762-25.295 25.574-38.085 38.216-21.766 21.514-43.897 42.666-65.328 64.507-6.91 7.042-21.391 7.398-27.68 2.348-8.203-6.59-10.47-17.727-5.004-27.143.897-1.546 2.155-2.928 3.429-4.204 21.417-21.462 42.865-42.893 64.298-64.34 1.243-1.243 2.413-2.56 4.517-4.801h-7.457c-136.442 0-272.884-.098-409.325.19-10.647.023-19.12-1.993-25.084-11.346C1 260.312 1 254.624 1 248.468c.889-1.177 2.02-1.722 2.627-2.621 4.227-6.266 9.925-8.934 17.592-8.928 138.097.112 276.195.081 414.292.081h7.72c-2.004-2.129-3.154-3.416-4.372-4.634-21.786-21.797-43.626-43.54-65.353-65.396-10.382-10.443-5.688-29.385 8.418-33.278 7.832-2.161 15.333-1.03 21.516 5.204 17.128 17.267 34.308 34.483 51.59 51.596 16.608 16.448 33.405 32.704 50.026 49.139 2.672 2.642 4.857 5.776 7.606 8.526.338 5.531.338 11.22.338 17.375z"
        opacity="1"
      ></path>
</svg>