<svg version="1.1" id="Layer_1" xmlns="http://www.w3.org/2000/svg" xmlns:xlink="http://www.w3.org/1999/xlink" x="0px" y="0px"
	 width="100%" viewBox="0 0 512 512" enable-background="new 0 0 154 154" xml:space="preserve">
    <path
      fill="#DE1616"
      d="M298.754 324.754c-9.557 9.556-18.905 18.82-28.16 28.18-10.098 10.212-18.127 8.969-27.137-.027-45.272-45.2-90.41-90.537-135.808-135.61-7.53-7.477-7.679-19.515.117-24.725 5.347-3.575 13.586-3.485 18.534 1.277 4.68 4.504 9.212 9.164 13.806 13.758 37.58 37.579 75.158 75.16 112.742 112.734 1.272 1.273 2.602 2.489 4.126 3.941 1.49-1.401 2.829-2.594 4.095-3.86 41.708-41.697 83.407-83.403 125.113-125.101 7.76-7.759 17.76-7.077 24.216 1.623 3.196 4.308 1.971 13.388-2.555 18.69-.755.885-1.632 1.665-2.456 2.49l-106.633 106.63z"
    />
    <path
      fill="#DE1616"
      d="M279.712 216.712c7.081-7.077 13.851-13.967 20.76-20.714 7.878-7.694 17.56-8.072 23.937-1.094 4.868 5.328 4.968 14.121-.153 19.28a11377.82 11377.82 0 0 1-56.876 56.872c-5.786 5.745-15.087 5.657-20.912-.138a15165.063 15165.063 0 0 1-56.517-56.525c-4.865-4.89-5.296-13.17-1.249-18.556 4.34-5.774 12.214-7.626 18.527-4.077 2.683 1.509 5.31 3.327 7.493 5.48 12.927 12.741 25.714 25.625 38.556 38.454 1.152 1.151 2.36 2.248 3.849 3.663l22.585-22.645z"
    />
</svg>