<svg version="1.1" id="Layer_1" xmlns="http://www.w3.org/2000/svg" xmlns:xlink="http://www.w3.org/1999/xlink" x="0px" y="0px"
	 width="100%" viewBox="0 0 256 256" enable-background="new 0 0 154 154" xml:space="preserve">
    <path
        fill="#666768"
        d="M221.145 111.766c12.04 10.37 8.573 31.396-5.187 37.532-35.691 15.916-70.82 33.095-106.178 49.759-17 8.011-34.12 15.775-50.957 24.115-5.911 2.928-17.81 2.332-23.214-2.97-6.962-6.831-9.281-15.566-5.598-24.147 7.724-17.992 15.585-35.925 23.288-53.926 1.233-2.88 3.323-3.17 5.992-3.16 18.327.06 36.655-.021 54.982.063 4.865.023 8.098-2.429 9.37-6.66 1.289-4.285.724-8.82-3.52-11.527-1.815-1.157-4.298-1.75-6.483-1.767-17.827-.137-35.656-.174-53.482.002-3.592.036-5.535-.742-7.008-4.386-6.95-17.202-14.36-34.218-21.445-51.367-3.924-9.5-2.3-18.587 3.99-24.515 6.397-6.026 16.841-7.62 25.41-3.757 5.851 2.639 11.656 5.383 17.441 8.164 26.153 12.574 52.28 25.2 78.437 37.763 21.275 10.218 42.582 20.372 64.162 30.784z"
        opacity="1"
    ></path>
</svg>