<svg version="1.1" id="Layer_1" xmlns="http://www.w3.org/2000/svg" xmlns:xlink="http://www.w3.org/1999/xlink" x="0px" y="0px"
	 width="100%" viewBox="0 0 512 512" enable-background="new 0 0 512 512" xml:space="preserve">
<path fill="transparent" opacity="1.000000" stroke="none" 
	d="
M247.000000,513.000000 
	C164.686630,513.000000 82.873260,513.000000 1.029946,513.000000 
	C1.029946,342.394928 1.029946,171.789871 1.029946,1.092401 
	C171.563385,1.092401 342.126862,1.092401 512.845154,1.092401 
	C512.845154,171.666565 512.845154,342.333252 512.845154,513.000000 
	C424.456512,513.000000 335.978241,513.000000 247.000000,513.000000 
M182.499817,340.999817 
	C240.974548,282.525269 299.449280,224.050735 357.435028,166.065201 
	C346.959045,155.598846 336.852295,145.501358 326.481873,135.140457 
	C260.973938,200.649323 195.181931,266.442291 128.997070,332.628082 
	C105.530693,309.099304 82.417656,285.924835 59.058029,262.503082 
	C49.756142,271.789551 40.804996,280.695801 31.892405,289.640442 
	C28.888824,292.654816 29.446028,295.101929 32.499767,298.130066 
	C59.352371,324.757568 86.296524,351.302185 112.636055,378.432007 
	C120.754189,386.793701 137.463287,387.040741 145.391144,378.385956 
	C157.082794,365.622284 169.748825,353.751129 182.499817,340.999817 
M249.483643,324.988312 
	C247.346771,323.182465 244.934052,321.612335 243.140533,319.513153 
	C240.716766,316.676270 238.635193,316.868958 236.221436,319.266174 
	C227.148499,328.276764 218.063507,337.275208 208.793777,346.465881 
	C219.756653,357.372009 230.772842,367.588013 240.884369,378.632294 
	C248.577576,387.035187 265.126617,386.702179 273.259094,378.514465 
	C342.645386,308.656677 412.367889,239.132843 482.006805,169.526108 
	C483.299835,168.233673 484.802307,167.150772 485.605865,166.475357 
	C474.981506,155.868118 464.766296,145.669327 454.086853,135.007080 
	C388.644196,200.450333 322.849792,266.245331 256.270081,332.825653 
	C254.079514,330.265808 252.034454,327.876068 249.483643,324.988312 
z"/>
<path fill="#808080" opacity="1.000000" stroke="none" 
	d="
M182.249847,341.249817 
	C169.748825,353.751129 157.082794,365.622284 145.391144,378.385956 
	C137.463287,387.040741 120.754189,386.793701 112.636055,378.432007 
	C86.296524,351.302185 59.352371,324.757568 32.499767,298.130066 
	C29.446028,295.101929 28.888824,292.654816 31.892405,289.640442 
	C40.804996,280.695801 49.756142,271.789551 59.058029,262.503082 
	C82.417656,285.924835 105.530693,309.099304 128.997070,332.628082 
	C195.181931,266.442291 260.973938,200.649323 326.481873,135.140457 
	C336.852295,145.501358 346.959045,155.598846 357.435028,166.065201 
	C299.449280,224.050735 240.974548,282.525269 182.249847,341.249817 
z"/>
<path fill="#808080" opacity="1.000000" stroke="none" 
	d="
M249.736511,325.237305 
	C252.034454,327.876068 254.079514,330.265808 256.270081,332.825653 
	C322.849792,266.245331 388.644196,200.450333 454.086853,135.007080 
	C464.766296,145.669327 474.981506,155.868118 485.605865,166.475357 
	C484.802307,167.150772 483.299835,168.233673 482.006805,169.526108 
	C412.367889,239.132843 342.645386,308.656677 273.259094,378.514465 
	C265.126617,386.702179 248.577576,387.035187 240.884369,378.632294 
	C230.772842,367.588013 219.756653,357.372009 208.793777,346.465881 
	C218.063507,337.275208 227.148499,328.276764 236.221436,319.266174 
	C238.635193,316.868958 240.716766,316.676270 243.140533,319.513153 
	C244.934052,321.612335 247.346771,323.182465 249.736511,325.237305 
z"/>
</svg>