<svg version="1.1" id="Layer_1" xmlns="http://www.w3.org/2000/svg" xmlns:xlink="http://www.w3.org/1999/xlink" x="0px" y="0px"
	 width="100%" viewBox="0 0 256 256" enable-background="new 0 0 154 154" xml:space="preserve">
   <style>
    .icon-mid-white-color-change{
        fill: #666467;
    }
   </style>
    <path
      class="icon-mid-white-color-change"
      d="M198.247 227.746a67392.701 67392.701 0 0 1-15.613-15.874l-32.595 13.502v27.167h-41.9v-27.09l-32.704-13.53-18.307 18.772-28.957-29.098 18.357-18.052-13.966-33.554H5.36v-41.723h27.127l13.832-33.347-18.97-18.352 29.03-28.95c6.01 6.199 12.47 12.86 18.274 18.844l33.354-13.892V5.43H149.8v27.104L182.83 46.21l18.379-18.967 29.207 29.236-18.885 18.074 13.932 33.537h27.226v41.723h-27.214l-13.568 32.78 18.89 18.003-29.803 29.692c-.17-.155-1.334-1.223-2.746-2.54m-97.156-162.3C89.111 70.693 79.635 79.118 72.1 89.55c-10.975 15.192-14.19 32.437-11.408 50.77 2.549 16.795 10.795 30.468 23.634 41.549 15.917 13.738 34.658 18.557 54.907 15.718 21.802-3.058 38.275-15.18 49.7-34.022 8.686-14.324 10.703-29.835 8.269-46.185-2.504-16.818-11.066-30.145-23.548-41.189-11.091-9.813-24.161-15.136-38.905-16.16-11.339-.787-22.424.466-33.657 5.416z"
    />
    <path
      class="icon-mid-white-color-change"
      d="M140.638 68.074c13.725 3.247 25.357 9.247 34.622 19.614 7.915 8.857 12.48 19.207 14.712 30.703 3.08 15.86-.504 30.582-8.831 44.012-9.61 15.497-24.004 24.308-41.874 27.604-12.901 2.379-25.105.329-38.082-5.732 3.67-3.285 6.6-6.278 9.939-8.708 1.29-.939 3.657-1.175 5.285-.758 19.05 4.871 35.365-.29 48.412-14.374 11.338-12.24 14.699-27.138 10.719-44.58-7.08 7.116-13.597 13.687-20.137 20.237-9.71 9.725-9.73 9.775-23.02 6.55-4.81-1.167-11.088-1.285-13.874-4.402-2.928-3.277-2.5-9.569-3.49-14.552-.448-2.26-.328-4.753-1.262-6.772-1.767-3.82-.157-6.146 2.435-8.675 8.456-8.25 16.769-16.649 25.856-25.707-10.875-2.62-20.798-2.429-30.345 1.647-18.778 8.017-28.343 23.012-30.486 42.797-.512 4.727 1.527 9.689 1.95 14.58.172 1.977-.323 4.416-1.428 6.012-2.158 3.117-4.96 5.788-7.976 9.187-8.384-17.3-8.988-33.855-2.357-50.31C80.22 84.57 96.5 71.338 120.072 68.11c6.592-.903 13.418-.1 20.566-.037z"
    />
</svg>