<svg version="1.1" id="Layer_1" xmlns="http://www.w3.org/2000/svg" xmlns:xlink="http://www.w3.org/1999/xlink" x="0px" y="0px"
	 width="100%" viewBox="0 0 256 256" enable-background="new 0 0 154 154" xml:space="preserve">
    <style>
        .icon-mid-white-color-change{
            fill: #666467;
        }
        @media (prefers-color-scheme: dark) {
            .icon-mid-white-color-change{
                fill: #fafafa;
            }
        }
    </style>
    <path
        class="icon-mid-white-color-change"
        d="M257 177c0 10.354 0 20.708-.38 31.43-.803 1.195-1.206 2.033-1.65 2.848-4.446 8.18-8.021 17.017-13.566 24.369-7.516 9.966-18.504 15.653-30.394 19.406-.795.25-1.346 1.28-2.01 1.947-10.354 0-20.708 0-31.433-.383-5.86-2.82-11.619-4.796-16.795-7.78-19.536-11.261-30.204-28.353-31.69-50.848-.64-9.682-.513-19.439 4.066-28.527-12.565-7.767-24.756-15.155-36.765-22.826-3.11-1.987-5.003-.21-6.793 1.393-10.343 9.262-22.309 12.948-36.217 13.173-21.3.344-43.524-15.158-49.565-35.424C3.387 124.365 1.96 123.252 1 122c0-9.354 0-18.708.37-28.416.896-1.32 1.549-2.24 1.93-3.262 3.9-10.42 9.56-19.586 18.915-25.983 17.064-11.669 35.342-14.448 54.179-5.314 7.875 3.819 14.656 9.892 22.702 15.472 15.035-6.886 31.345-14.25 47.509-21.923 1.592-.756 2.94-3.3 3.25-5.203.584-3.573-.194-7.386.506-10.92 3.182-16.061 12.423-27.266 27.686-33.437.793-.32 1.308-1.327 1.953-2.014 8.354 0 16.708 0 25.408.362.995.795 1.592 1.373 2.305 1.638 9.282 3.453 17.223 9.065 22.014 17.6 8.173 14.561 9.274 29.775.523 44.714-8.16 13.928-20.652 21.123-36.622 21.575-11.834.334-22.113-4.084-30.768-12.358-1.36-1.3-4.407-2.457-5.837-1.815-15.962 7.16-31.782 14.643-47.557 22.212-1.135.544-2.503 2.643-2.268 3.681 1.883 8.312.99 16.447-1.43 24.398-.837 2.746.283 3.37 2.145 4.494 8.01 4.838 15.904 9.866 23.89 14.744 4.265 2.605 8.63 5.044 12.74 7.437 3.806-3.362 6.91-6.676 10.55-9.226 21.669-15.191 51.491-15.8 73.622-1.312 13.445 8.8 21.786 21.17 26.403 36.337.194.638 1.235 1.018 1.882 1.519m-98.507-7.944c-6.732 10.271-9.48 21.402-6.402 33.45 4.14 16.201 14.417 26.825 30.571 31.166 15.11 4.06 28.634-.037 39.653-10.657 20.729-19.981 15.43-54.015-10.098-67.357-19.871-10.385-42.603-2.603-53.724 13.398M23.329 101.272c-.11 2.486-.41 4.98-.298 7.456.73 16.006 11.948 27.773 26.995 30.11 21.468 3.335 39.04-16.991 35.147-36.718-2.803-14.207-15.448-25.548-30.021-26.027-13.002-.427-28.166 8.922-31.823 25.18m174.509-37.35c11.67-3.344 19.525-16.94 14.506-27.39-3.535-7.36-8.445-12.238-16.265-13.382-8.29-1.213-15.294 1.726-20.105 8.947-4.697 7.05-5.502 14.443-.94 21.725 5.01 8.001 12.436 11.502 22.804 10.1z"
        opacity="1"
    ></path>
</svg>