<svg version="1.1" id="Layer_1" xmlns="http://www.w3.org/2000/svg" xmlns:xlink="http://www.w3.org/1999/xlink" x="0px" y="0px"
	 width="100%" viewBox="0 0 512 512" enable-background="new 0 0 154 154" xml:space="preserve">
    <style>
      .icon-mid-white-color-change{
          fill: #666467;
      }
      @media (prefers-color-scheme: dark) {
        .icon-mid-white-color-change{
          fill: #afafaf;
        }
      }
    </style>
    <path
        class="icon-mid-white-color-change"
        d="M307 513c-4.357 0-8.714 0-13.44-.387-8.63-4.552-17.386-7.968-25.046-13.04-15.604-10.33-30.651-21.506-45.864-32.421-17.76-12.742-35.439-25.595-53.175-38.368-18.005-12.967-36.115-25.79-54.015-38.9-6.15-4.503-12.179-7.457-20.326-7.097-16.294.719-32.657-.216-48.965.327-18.346.61-37.768-15.216-42.36-30.334-.43-1.414-1.85-2.527-2.809-3.78 0-61.354 0-122.708.363-184.431.869-.99 1.596-1.531 1.847-2.241 2.982-8.416 7.993-15.326 14.901-20.985 7.494-6.14 15.92-10.13 25.626-10.265 19.145-.264 38.297-.031 57.446-.142 2.223-.012 4.875-.271 6.593-1.47 14.267-9.954 28.371-20.142 42.505-30.288 23.736-17.04 47.473-34.078 71.18-51.159 14.518-10.46 28.863-21.167 43.515-31.435 8.154-5.714 16.101-12.057 26.439-13.712.612-.098 1.06-1.224 1.585-1.872 4.357 0 8.714 0 13.45.394 2.171 1.002 3.95 1.66 5.761 2.211 21.634 6.589 35.786 25.753 35.788 48.501.003 40.322.001 80.644.001 120.966v6.322c49.998 1.414 75.883 42.212 76.892 74.72.581 18.718-4.672 36.14-16.58 50.69-15.343 18.749-35.196 29.48-60.312 29.44v6.49c0 39.323.03 78.645-.044 117.967a85.73 85.73 0 01-1.004 12.818c-3.013 19.595-18.364 35.46-37.943 39.57-.77.161-1.344 1.253-2.009 1.911m-97.046-411.514c-1.449 1.087-2.874 2.207-4.35 3.255-23.736 16.853-47.522 33.636-71.131 50.666-1.796 1.295-3.322 4.32-3.329 6.546-.177 63.32-.176 126.64-.004 189.959.006 2.243 1.495 5.147 3.244 6.593 4.668 3.857 9.884 7.047 14.833 10.572 21.313 15.177 42.659 30.308 63.897 45.59 26.721 19.228 53.321 38.624 80.035 57.861 7.047 5.075 14.665 2.567 17.356-5.702.951-2.921 1.433-6.129 1.434-9.205.07-134.138.085-268.276-.068-402.413-.005-3.774-1.385-7.796-3.047-11.259-2.413-5.028-8.588-6.516-13.188-3.744-2.386 1.437-4.684 3.032-6.949 4.657a32926.65 32926.65 0 00-78.733 56.624M37.005 336c1.163 6.999 5.55 10.972 12.293 10.99 12.658.036 25.316.012 37.974.012h6.43V166.999h-5.63c-12.49 0-24.982-.006-37.474.002-9.022.006-13.595 4.612-13.596 13.699-.003 51.464 0 102.929.003 155.299m334.946-46.444c2.993-3.112 6.558-5.848 8.885-9.396 16.035-24.45 4.498-54.13-23.39-62.84-2.839-.886-5.95-.905-9.173-1.36v81.88c8.857.107 16.062-3.654 23.678-8.284z"
        opacity="1"
      ></path>
      <path
        class="icon-mid-white-color-change"
        d="M513 282.531c-.977 2.926-2.353 5.303-2.87 7.854-5.053 24.914-15.341 47.42-30.667 67.667-17.205 22.73-39.132 39.471-65.02 51.118-5.07 2.28-10.467 3.824-15.656 5.852-9.32 3.642-19.956-3.545-22.366-11.332-3.17-10.246 1.045-19.894 11.45-23.492 21.359-7.387 39.909-18.99 55.063-35.718 15.79-17.429 26.738-37.588 30.928-60.837 1.95-10.814 3.28-21.984 2.896-32.923-.745-21.192-6.455-41.383-18.105-59.269-6.44-9.887-13.802-19.37-21.917-27.925-13.251-13.971-29.987-22.873-47.962-29.501-9.293-3.426-13.987-13.706-10.684-23.055 3.275-9.268 12.9-14.042 22.38-11.168 20.358 6.173 38.064 16.972 54.37 30.456 20.161 16.672 35.047 37.322 45.04 61.205 5.023 12.006 7.509 25.072 11.178 37.647.21.722.746 1.349 1.536 1.955.406 16.956.406 33.977.406 51.466z"
        opacity="1"
      ></path>
</svg>