<svg version="1.1" id="Layer_1" xmlns="http://www.w3.org/2000/svg" xmlns:xlink="http://www.w3.org/1999/xlink" x="0px" y="0px"
	 width="100%" viewBox="0 0 256 256" enable-background="new 0 0 154 154" xml:space="preserve">
    <path
        fill="#FAFAFA"
        d="M257 214.531c-10.234 10.155-22.768 5.248-34.713 6.572v-80.734l7.952-.735c-.423-7.548-.352-15.137-1.37-22.577-2.148-15.698-5.851-30.925-13.417-45.161-14.255-26.823-35.303-45.297-65.156-51.67-33.954-7.248-64.038.992-89.044 25.965-16.712 16.69-26.176 36.962-30.167 59.882-1.908 10.96-2.66 22.12-3.973 33.505l8.549.713v80.398l-10.078.588c-1.423 8.799 4.226 15.69 12.707 15.708 17.492.039 34.985.09 52.475-.101 2.023-.022 4.699-.995 5.923-2.477 3.98-4.821 9.158-5.117 14.39-4.136 4.71.883 8.001 4.327 8.755 9.108.872 5.533.374 10.953-5.108 14.449-1.086.693-2.005 1.648-2.863 2.827-2.893.345-5.923.345-9.266 0-2.22-2.048-4.458-3.504-5.947-5.516-1.75-2.363-3.572-3.245-6.557-3.214-16.162.17-32.327.179-48.49.038-8.205-.071-16.211-1.892-20.963-9.114-3.29-5.002-4.926-11.092-7.522-17.217L1 216c0-23.354 0-46.708.325-70.33 2.662-1.74 4.849-3.606 7.379-4.576 2.654-1.019 3.234-2.494 3.376-5.142.503-9.377.728-18.833 2.19-28.08 2.685-16.976 8.03-33.152 16.43-48.29C38.924 44.76 50.08 32.618 63.67 22.71 78.545 11.865 95.152 5.14 113.498 2.852c.569-.07 1.004-1.21 1.502-1.852 9.02 0 18.042 0 27.438.405 3.319 1.137 6.239 1.981 9.208 2.583 19.32 3.915 36.39 12.427 51.17 25.387 13.498 11.837 24.264 25.977 30.495 42.77 4.65 12.528 7.798 25.713 10.493 38.836 1.913 9.313 1.955 19.009 2.814 28.333L257 145v69.531z"
    />
    <path
        fill="#FAFAFA"
        d="M90.263 169.762c-15.865-14.263-21.217-32.466-17.915-52.212 4.008-23.967 20.544-41.647 45.237-46.516 19.246-3.795 36.621.965 50.836 14.157 10.473 9.72 16.708 22.203 17.654 37.004.844 13.193-1.808 25.186-8.632 36.678-1.886 3.176-.482 8.54.01 12.833.609 5.3 1.841 10.528 2.96 16.646-8.06-2.798-14.966-5.428-22.031-7.52-2.425-.719-5.3-.428-7.878-.016-7.766 1.24-15.513 4.053-23.22 3.9-13.792-.273-26.432-5.004-37.02-14.954M143.467 129c2.492-.001 5.006.196 7.467-.081 1.362-.154 2.636-1.1 3.95-1.688-1.326-.743-2.645-2.117-3.98-2.132-14.616-.154-29.235-.142-43.852-.02-1.317.012-2.625 1.104-3.938 1.694 1.327.741 2.646 2.107 3.983 2.126 11.792.17 23.587.1 36.37.101m-2.977 12c-11.46.005-22.922-.033-34.382.087-1.004.011-1.996 1.065-2.994 1.634.812.75 1.619 2.147 2.437 2.154 15.612.13 31.226.131 46.838.005.837-.007 1.663-1.37 2.495-2.1-.813-.584-1.6-1.626-2.441-1.67-3.644-.196-7.304-.1-11.953-.11m8.778-28c1.891-.22 3.783-.441 5.674-.663l-.155-1.635h-51.76c.277.905.406 1.73.548 1.732 14.914.229 29.83.396 45.693.567zM39 179v-38.978c3.98 0 7.455-.28 10.865.074 3.82.397 6.222 2.253 6.194 6.771-.135 22.492-.066 44.985-.06 67.477.002 4.441-2.02 6.78-6.626 6.669-3.155-.077-6.313-.015-10.373-.015V179zM219 173v47.978c-3.967 0-7.439.277-10.846-.074-3.814-.393-6.24-2.224-6.213-6.75.134-22.484.074-44.97.052-67.454-.005-4.498 2.114-6.743 6.642-6.702 3.155.03 6.31.006 10.365.006V173z"
    />
</svg>