<svg version="1.1" id="Layer_1" xmlns="http://www.w3.org/2000/svg" xmlns:xlink="http://www.w3.org/1999/xlink" x="0px" y="0px"
	 width="100%" viewBox="0 0 256 256" enable-background="new 0 0 154 154" xml:space="preserve">
    <path
        fill="#666467"
        d="M151.75 120.75c22.17-22.169 44.13-44.047 65.969-66.047 3.746-3.774 7.72-4.417 12.637-3.032 4.816 1.357 6.442 4.836 7.004 9.169.628 4.854-2.01 8.323-5.216 11.527-29.708 29.687-59.4 59.39-89.097 89.087-13.552 13.553-27.095 27.115-40.664 40.65-6.682 6.667-13.096 6.66-19.794-.029a50031.782 50031.782 0 01-57.982-57.979c-5.318-5.328-6.03-11.783-1.92-16.283 4.847-5.31 11.996-5.588 17.112-.493 16.178 16.11 32.309 32.27 48.43 48.44 1.29 1.294 2.363 2.804 3.892 4.64l59.63-59.65z"
        opacity="1"
      ></path>
</svg>