<svg version="1.1" id="Layer_1" xmlns="http://www.w3.org/2000/svg" xmlns:xlink="http://www.w3.org/1999/xlink" x="0px" y="0px"
	 width="100%" viewBox="0 0 256 256" enable-background="new 0 0 154 154" xml:space="preserve">
    <path
        fill="#FAFAFA"
        d="M17 168c0-39.825-.003-79.15.003-118.476.001-7.129 5.14-10.737 11.81-8.217 3.646 1.378 4.237 4.395 4.228 7.944-.073 28.994-.041 57.988-.041 86.982 0 18.662-.306 37.333.182 55.983.151 5.798 1.887 11.746 3.891 17.264 4.082 11.237 13.36 15.426 24.508 15.454 56.82.143 113.643.065 170.464.067 7.262 0 9.193 1.933 8.955 8.931-.167 4.923-2.254 7.049-7.32 7.051-60.821.026-121.644.255-182.46-.206-10.749-.082-18.73-7.473-25.199-15.778-6.858-8.806-9.534-18.87-9.092-30.008.35-8.817.071-17.66.071-26.991z"
        opacity="1"
    ></path>
    <path
        fill="#FCD436"
        d="M94.253 82.245c-7.63 10.935-14.965 21.634-22.4 32.261-2.02 2.886-8.506 4.191-11.472 2.166-3.501-2.39-5.38-6.122-3.268-9.978 3.636-6.639 7.817-13.008 12.134-19.238 7.77-11.212 15.786-22.252 23.744-33.333 4.793-6.673 17.58-10.206 25.23-7.474 12.004 4.286 24.156 8.159 36.176 12.401 4.27 1.507 6.784-1.461 9.295-3.477 8.795-7.06 17.264-14.527 26.718-22.573-5.172 0-9.526.044-13.88-.011-5.542-.07-7.514-2.18-7.53-7.912-.016-5.791 1.94-8.027 7.372-8.058 11.16-.063 22.322-.07 33.483.004 4.967.033 7.097 2.229 7.126 7.287.062 11.16.07 22.322-.004 33.483-.035 5.305-2.379 7.257-8.227 7.207-5.442-.047-7.626-2.04-7.736-7.204-.073-3.42-.014-6.842-.014-10.587-10.418 8.458-20.29 16.706-30.421 24.622-7.407 5.788-15.704 5.959-24.343 2.86-10.777-3.867-21.618-7.555-32.426-11.338-3.92-1.372-6.782.245-8.942 3.326-3.536 5.042-6.913 10.195-10.615 15.566z"
        opacity="1"
    ></path>
    <path
        fill="#FAFAFA"
        d="M201 202.517c0-37.892-.002-75.328.002-112.764 0-6.815 1.83-8.777 8.11-8.753 6.003.023 7.884 2.025 7.885 8.48.006 37.103-.024 74.206.04 111.31.008 4.233-1.031 7.454-5.7 8.185-5.964.935-8.656-.686-10.336-6.458zM169 144c0 18.995.002 37.49-.001 55.985-.001 6.999-1.743 8.988-7.87 9.015-6.297.027-8.126-1.933-8.127-8.758-.004-28.826-.004-57.651 0-86.477 0-6.83 1.827-8.791 8.12-8.765 6.134.025 7.875 2.011 7.877 9.008.004 9.83.001 19.661.001 29.992zM121 176c0 8.664.02 16.828-.007 24.992-.02 5.998-2 7.983-7.87 8.008-5.98.025-8.105-1.95-8.112-7.763-.027-21.493-.027-42.986 0-64.478.007-5.81 2.135-7.785 8.116-7.759 5.869.025 7.855 2.01 7.866 8.013.023 12.829.007 25.658.007 38.987zM58.038 204.532c-.523-1.728-1-3.127-1.005-4.527-.052-15.973-.042-31.946-.028-47.918.005-5.274 2.876-8.107 8.113-8.087 5.116.019 7.876 2.916 7.879 8.322.009 15.474-.2 30.952.136 46.418.092 4.257-1.332 7.564-4.686 8.888-3.43 1.354-7.575 1.112-10.409-3.096z"
        opacity="1"
    ></path>
</svg>