<svg version="1.1" id="Layer_1" xmlns="http://www.w3.org/2000/svg" xmlns:xlink="http://www.w3.org/1999/xlink" x="0px" y="0px"
	 width="100%" viewBox="0 0 256 256" enable-background="new 0 0 154 154" xml:space="preserve">
    <style>
        .icon-mid-white-color-change{
            fill: #666467;
        }
        @media (prefers-color-scheme: dark) {
            .icon-mid-white-color-change{
                fill: #afafaf;
            }
        }
    </style>
    <path
        class="icon-mid-white-color-change"
        d="M97.71 118.047c9.757-.032 19.08.09 28.397-.112 3.38-.073 5.56 1.304 6.512 4.224 3.045 9.342 5.862 18.758 8.883 28.523H84.15c1.964-6.003 3.878-11.804 5.756-17.617 1.112-3.44 1.907-7.014 3.353-10.304.792-1.802 2.641-3.14 4.451-4.714zM43.99 203c19.423.003 15.37-1.333 20.969 14.468 2.111 5.96 4.022 11.99 6.14 18.337H13.494c1.238-4.05 2.353-7.87 3.577-11.653 1.615-4.997 3.634-9.887 4.886-14.969 1.183-4.8 4.204-6.207 8.577-6.184 4.32.022 8.64.002 13.456.001zM89.065 221.108c1.382-4.29 2.942-8.126 3.948-12.1 1.065-4.208 3.66-5.973 7.733-5.988 8.494-.032 16.997-.207 25.478.143 1.874.078 4.71 1.692 5.329 3.286 3.67 9.469 6.818 19.14 10.316 29.244H84.414c1.574-4.872 3.08-9.531 4.651-14.585zM203.87 236h-48.762c3.49-10.163 6.652-19.947 10.339-29.528.617-1.604 3.48-3.23 5.368-3.308 8.48-.354 16.986-.214 25.48-.126 3.735.039 6.377 1.464 7.58 5.528 2.66 8.971 5.72 17.824 8.848 27.434h-8.852zM155 193h-35.205c3.5-10.265 6.405-20.152 10.446-29.55.88-2.046 5.812-3.214 8.908-3.273 8.251-.158 16.526.396 24.772.957 1.357.092 3.376 1.382 3.795 2.574 3.307 9.41 6.301 18.932 9.676 29.292H155zM51.533 192.976c-.987-1.029-2.202-2.252-1.963-3.027 2.468-8.012 5.109-15.974 7.838-23.902 1.233-3.584 3.43-5.392 7.763-5.175 8.637.433 17.313.219 25.97.08 2.86-.045 4.681.71 5.61 3.611 2.954 9.223 6.051 18.4 9.368 28.426-18.385 0-36.262 0-54.586-.013zM163.712 120.262c3.579 10.228 6.915 20.131 10.478 30.712-6.995 0-13.426.146-19.837-.137-1.132-.05-2.748-1.693-3.184-2.936-3.408-9.71-6.581-19.504-10.013-29.83 6.644 0 13.062-.078 19.474.083.96.024 1.893 1.162 3.082 2.108zM234.25 205.604c3.764 10.036 7.329 19.729 11.236 30.35-7.428 0-13.982.05-20.533-.07-.745-.014-1.9-.846-2.144-1.548-3.491-10.052-6.858-20.146-10.73-31.637 8.128 1.567 15.34-2.295 22.171 2.905zM182.314 177.64c-1.826-5.508-3.468-10.66-5.193-16.072 6.705-2.693 13.344-1.8 19.947-.353.975.213 2.196 1.267 2.517 2.202 3.294 9.588 6.425 19.23 9.83 29.551-7.234 0-13.687.088-20.132-.105-.853-.025-2.053-1.326-2.424-2.292-1.59-4.14-2.93-8.375-4.545-12.932zM219 106.122c.059-2.117-.545-4.484.313-5.285 1.824-1.703 4.475-3.626 6.66-3.485 1.764.114 4.3 2.887 4.787 4.895.801 3.297.32 6.934.196 10.42-.13 3.64-2.155 6.1-5.759 6.186-3.88.094-5.95-2.427-6.164-6.288-.11-1.989-.028-3.989-.033-6.443zM35.23 134.333c-5.649.652-7.966-1.1-8.188-6.015-.157-3.492-.498-7.093.178-10.457.363-1.802 2.587-4.352 4.177-4.511 2.182-.218 6.448 1.357 6.536 2.433.461 5.613-.07 11.314-.423 16.974-.03.491-1.272.907-2.28 1.576zM34.634 81.072c1.725 2.09 3.681 3.991 4.2 6.226.661 2.844.199 5.959.146 8.956-.067 3.865-1.998 6.53-5.883 6.594-3.89.065-5.92-2.537-6.066-6.401-.1-2.661-.043-5.329-.027-7.993.035-5.903 1.29-7.184 7.63-7.382zM221.842 65.66c7.362-1.143 9.122.328 9.153 7.162.013 2.83.602 5.865-.233 8.429-.705 2.163-2.78 4.477-4.84 5.386-1.311.58-4.215-.795-5.502-2.15-2.808-2.955-1.789-15.408 1.422-18.828zM131.276 53.995c-.735-2.919-1.912-5.926-1.133-8.287.47-1.422 3.92-2.276 6.146-2.599 2.933-.426 5.996-.287 8.968-.012 3.371.31 6 2.54 5.45 5.77-.377 2.214-2.896 5.47-4.808 5.736-4.638.643-9.481-.188-14.623-.608zM103.413 54.996c-4.882-.076-6.694-2.534-6.375-6.728.322-4.23 3.035-5.444 6.866-5.29 2.99.12 5.997-.115 8.978.082 3.614.239 5.996 2.325 5.981 5.963-.014 3.636-2.404 5.702-6.025 5.921-2.983.181-5.985.048-9.425.052zM27.342 104.819c1.093 7.036.186 8.15-6.183 8.178-3.318.016-6.686.344-9.932-.138-1.794-.266-4.549-1.693-4.797-2.992-.397-2.084.277-5.069 1.665-6.644 2.383-2.702 16.003-1.413 19.247 1.596zM47.144 102c2.784.005 5.105-.063 7.42.032 3.886.16 5.504 2.406 5.425 6.134-.075 3.557-1.972 4.958-5.406 4.854-3.474-.106-6.959-.134-10.43.01-3.702.153-6.184-.876-6.147-5.126.035-4.126 2.18-5.971 6.188-5.902.828.014 1.656-.001 2.95-.003zM251.736 89.552c.233 6.752-.372 7.413-6.42 7.444-3.483.019-7.022.363-10.426-.157-1.72-.262-4.466-2.075-4.508-3.266-.08-2.243 1.263-6.392 2.363-6.51 5.6-.604 11.315-.241 16.98-.005.649.027 1.242 1.371 2.01 2.494zM219.986 91.994c-.17 3.69-1.929 5.094-5.162 5.021a233.98 233.98 0 00-11.446.004c-3.457.092-5.304-1.357-5.371-4.91-.066-3.48 1.38-5.84 5.009-6.035 3.97-.214 7.966-.189 11.939-.008 3.334.152 4.96 2.209 5.031 5.928zM122.372 75.927c-1.732-2.065-3.779-3.951-4.197-6.147-.641-3.366-.261-6.95-.13-10.433.148-3.93 2.537-5.451 6.243-5.332 3.625.116 4.843 2.18 4.734 5.558-.113 3.485-.158 6.983.01 10.464.217 4.522-1.76 6.483-6.66 5.89zM128.784 41.256c-2.015 3.428-5.135 3.59-7.494 2.137-1.675-1.032-2.786-3.786-3.153-5.941-.523-3.065-.127-6.286-.132-9.44-.006-4.084 2.034-6.054 6.109-6.002 3.953.05 5.033 2.35 4.912 5.88-.147 4.312-.089 8.63-.242 13.366zM106.086 161.915c2.117-.902 4.21-1.795 6.291-1.765 2.412.034 4.813.878 7.821 1.495l-6.588 20.029-1.044.249c-2.17-6.53-4.34-13.06-6.48-20.008zM72.936 212.117c-.963-3.002-1.862-5.612-2.933-8.72h14.98l-7.43 22.325c-1.807-5.243-3.18-9.228-4.617-13.605zM147.148 222.33c-2.053-6.415-4.006-12.48-6.091-18.956h14.927l-7.16 21.48c-.801-1.107-1.188-1.641-1.676-2.525z"
        opacity="1"
    ></path>
</svg>