<svg version="1.1" id="Layer_1" xmlns="http://www.w3.org/2000/svg" xmlns:xlink="http://www.w3.org/1999/xlink" x="0px" y="0px"
	 width="100%" viewBox="0 0 256 256" enable-background="new 0 0 154 154" xml:space="preserve">
    <style>
        .icon-mid-white-color-change{
          fill: #666467;
        }
        @media (prefers-color-scheme: dark) {
            .icon-mid-white-color-change{
              fill: #afafaf;
            }
        }
    </style>
    <path
      class="icon-mid-white-color-change"
      d="M257 46.532c-6.814-.528-13.628-1.523-20.641-2.548-.423-6.757-2.147-12.432-6.926-17.222-8.866-8.887-27.289-5.758-31.247 9.104-1.402 5.264-3.566 7.193-8.879 7.308-4.189.09-8.347 1.581-14.106 2.78l4.39-23.74c-1.174-.055-2.894-.203-4.615-.204-30.494-.014-60.993.287-91.48-.202-8.51-.136-19.476 8.162-19.482 19.054-.028 43.825-.01 87.65.003 131.476 0 .973.155 1.947.28 3.404h93.294v20.678c-2.82 1.065-5.955 2.333-9.147 3.44-8.078 2.799-14.348 14.76-9.239 25.235 4.893 10.031 15.304 13.962 25.533 9.295 6.542-2.985 11.247-8.639 11.256-16.707.02-16.664.133-33.329-.077-49.99-.056-4.423 1-6.7 5.632-8.225 5.181-1.708 9.811-5.088 15.45-8.16v5.88c0 19.663-.218 39.329.066 58.988.257 17.862-10.682 32.622-26.35 38.82-.71.282-1.309.847-1.837 1.642-46.232.362-92.586.362-139.285 0-.534-.63-.668-1.052-.92-1.142C16.575 251.2 7.686 243.533 3.014 231.33c-.234-.61-1.323-.894-2.014-1.33 0-8.354 0-16.708.357-25.398 1.088-1.394 2.02-2.367 2.52-3.526 6.306-14.61 17.382-22.66 33.197-24.034 4.043-.352 6.045-1.49 6.027-6.194-.171-43.784-.11-87.568-.073-131.352.002-1.946.26-3.924.653-5.835 3.1-15.095 11.982-25.276 26.297-30.85.5-.195.688-1.19 1.022-1.811 52.354 0 104.708 0 157.41.362.994.795 1.594 1.344 2.3 1.642 11.452 4.846 19.854 12.652 24.156 24.554.343.947 1.406 1.634 2.134 2.442v16.532m-140.01 164L120.545 197h-6.033c-22.807 0-45.615-.038-68.422.045-3.102.012-6.26.363-9.292 1.02-9.232 2.002-16.34 11.173-15.439 19.613 1.16 10.873 9.082 18.309 19.6 18.317 24.804.019 49.61.01 74.415-.005 1.571 0 3.143-.153 5.071-.254-.808-2.315-1.823-4.119-2.025-6.01-.651-6.09-1.002-12.214-1.432-19.193z"
    />
    <path
      class="icon-mid-white-color-change"
      d="M257 68.625c-2.03 1.224-4.203 1.838-6.068 2.962-10.744 6.48-22.112 12.205-30.184 22.238-6.084 7.56-11.36 15.809-17.794 23.04-6.98 7.847-14.079 16.013-22.57 21.986-12.906 9.077-27.42 7.94-41.635 2.051-1.34-.555-2.641-1.21-4.385-2.014l-2.658 17.734h-20.909c.863-6.94 1.183-13.684 2.608-20.185 4.34-19.806 13.617-37.027 28.587-50.874 14.18-13.117 31.05-20.786 50.126-23.544 18.07-2.613 35.925-.77 53.696 2.802 3.38.68 6.874.8 10.75 1.178.436.751.436 1.501.436 2.626m-72.33 16.397c-18.123 5.8-32.313 16.481-41.617 33.262 6.678 6.61 18.863 7.945 26.4 2.683 9.908-6.918 16.716-16.716 23.679-26.336 2.9-4.009 5.873-7.966 8.813-11.947l-.717-1.19c-5.246 1.157-10.491 2.315-16.558 3.528z"
    />
</svg>