<svg version="1.1" id="Layer_1" xmlns="http://www.w3.org/2000/svg" xmlns:xlink="http://www.w3.org/1999/xlink" x="0px" y="0px"
	 width="100%" viewBox="0 0 256 256" enable-background="new 0 0 154 154" xml:space="preserve">
    <path
      fill="#FCD436"
      d="M152 257c-15.02 0-30.042 0-45.187-.312-.777-.76-1.38-1.493-2.087-1.615-22.612-3.9-42.54-13.763-59.64-28.69C22.84 206.968 8.29 182.726 2.904 153.364c-.101-.552-1.247-.913-1.905-1.364 0-15.02 0-30.042.314-45.19.747-.617 1.484-1.057 1.568-1.599 2.134-13.743 7.307-26.33 13.774-38.577 8.534-16.16 20.559-29.341 34.822-40.237C67.17 14.407 84.922 6.242 104.636 2.903c.546-.092.913-1.245 1.364-1.903 15.02 0 30.042 0 45.19.314 2.695 1.105 5.23 2.024 7.832 2.666 29.753 7.344 54.125 23.29 72.563 47.503 11.926 15.662 20.327 33.381 23.513 53.171.087.537 1.244.901 1.902 1.346 0 15.02 0 30.042-.312 45.187-.76.777-1.493 1.38-1.615 2.088-3.892 22.615-13.728 42.548-28.686 59.645-19.443 22.223-43.635 36.852-73.036 42.176-.547.099-.905 1.246-1.351 1.904M125 78.5c-3.572-3.476-7.002-7.116-10.757-10.382-3.42-2.973-7.533-3.08-11.42-1.016-4.356 2.313-5.798 6.51-4.65 10.961.679 2.635 2.698 5.166 4.684 7.183 13.442 13.646 27.04 27.138 40.574 40.695.999 1.001 1.883 2.118 2.92 3.294-14.587 14.559-28.852 28.792-43.109 43.032-1.054 1.053-2.16 2.08-3.055 3.262-2.825 3.735-3.266 7.865-.968 11.896 2.304 4.04 6.333 5.536 10.62 4.415 2.645-.692 5.249-2.563 7.247-4.537 16.473-16.27 32.806-32.68 49.166-49.063 6.427-6.437 6.381-12.085-.124-18.599-13.536-13.553-27.085-27.094-41.128-41.14z"
    />
</svg>