<svg version="1.1" id="Layer_1" xmlns="http://www.w3.org/2000/svg" xmlns:xlink="http://www.w3.org/1999/xlink" x="0px" y="0px"
	 width="100%" viewBox="0 0 256 256" enable-background="new 0 0 154 154" xml:space="preserve">
    <path
        fill="#790303"
        d="M116 1c8.688 0 17.375 0 26.502.354 1.62 1.201 2.762 2.112 3.99 2.885 5.796 3.648 10.037 8.45 12.215 15.103 3.198 9.769 16.194 15.335 25.83 11.51 3.338-1.324 6.938-2.599 10.463-2.735 17.068-.656 29.973 9.604 34.331 26.358 1.846 7.098-.582 13.387-2.53 19.853-3.071 10.193 2.162 21.152 11.877 24.466 6.801 2.32 11.473 7.004 15.24 12.877.804 1.253 2.043 2.227 3.082 3.329 0 8.688 0 17.375-.355 26.503-.633.613-1.037.718-1.171.968-5.61 10.456-13.455 17.111-26.082 17.82-7.555.424-11.883 11.808-7.226 17.324 14.55 17.233 8.157 37.88-10.627 48.436-9.35 5.254-19.213 3.357-28.916.025-9.055-3.11-20.243 2.013-23.427 10.825-2.73 7.557-7.568 13.082-14.324 17.187-1.13.686-1.923 1.927-2.872 2.912-8.354 0-16.708 0-25.513-.36-1.398-.944-2.305-1.611-3.3-2.097-6.75-3.298-11.592-8.506-13.962-15.519-3.772-11.162-15.044-16.514-25.962-12.216-3.948 1.555-8.244 2.899-12.43 3.062-19.83.776-41.088-23.626-29.833-45.058 4.633-8.823-.603-23.235-10.428-26.564-7.442-2.521-13.438-7.047-17.148-14.249-.44-.855-1.598-1.342-2.424-1.999 0-8.354 0-16.708.354-25.502 5.778-10.007 13.983-15.852 24.531-18.635.89-.235 1.672-1.033 2.402-1.685 6.202-5.534 7.27-12.942 3.763-21.303-1.822-4.345-3.483-9.008-3.893-13.644-.925-10.463 4.638-18.066 11.958-24.986C51.059 25.9 68.133 25.012 79.394 34.983c3.368 2.983 6.794 3.793 10.943 2.29 4.685-1.697 7.455-4.884 7.628-9.936.375-10.89 6.34-18.06 15.196-23.446 1.119-.68 1.9-1.914 2.839-2.891m42.855 100.354l-45.21 45.09c-8.513-8.612-16.744-17.052-25.108-25.359-5.054-5.019-11.11-5.168-15.436-.65-4.176 4.363-3.904 10.153.972 15.084 10.417 10.535 20.904 21 31.425 31.431 4.838 4.797 11.63 5.029 16.476.219a10801.32 10801.32 0 0062.491-62.515c4.547-4.586 4.39-10.568.22-14.716-4.12-4.098-10.053-4.036-14.711.349-3.635 3.421-7.086 7.037-11.12 11.067z"
        opacity="1"
    ></path>
    <path
        fill="#E7E3E8"
        d="M159.105 101.104c3.783-3.78 7.234-7.396 10.869-10.817 4.658-4.385 10.59-4.447 14.711-.349 4.17 4.148 4.327 10.13-.22 14.716a10801.32 10801.32 0 01-62.49 62.515c-4.848 4.81-11.64 4.578-16.477-.219a4488.895 4488.895 0 01-31.425-31.431c-4.876-4.931-5.148-10.72-.972-15.083 4.326-4.519 10.382-4.37 15.436.65 8.364 8.306 16.595 16.746 25.109 25.359l45.459-45.341z"
        opacity="1"
    ></path>
</svg>