<svg version="1.1" id="Layer_1" xmlns="http://www.w3.org/2000/svg" xmlns:xlink="http://www.w3.org/1999/xlink" x="0px" y="0px"
	 width="100%" viewBox="0 0 512 512" enable-background="new 0 0 154 154" xml:space="preserve">
    <path
      fill="#EAECEF"
      d="M225 1c21.02 0 42.042 0 63.218.36.996.786 1.794 1.413 2.685 1.606 13.85 2.992 27.854 5.391 41.536 9.012 17.924 4.743 34.687 12.475 50.843 21.636 15.828 8.975 30.916 19.088 44.042 31.553a374.988 374.988 0 0 1 34.093 37.048c16.099 20.053 28.047 42.638 36.632 66.947 6.247 17.685 11.456 35.601 13.048 54.404.045.528 1.243.958 1.903 1.434 0 21.02 0 42.042-.355 63.216-.784 1.154-1.44 2.119-1.607 3.162-1.128 7.036-1.63 14.215-3.304 21.113-5.959 24.54-14.346 48.169-26.946 70.22-13.62 23.835-30.353 45.103-50.818 62.996-1.087-11.197-1.248-22.107-3.33-32.637-9.353-47.326-34.272-84.708-74.254-111.586-10.808-7.266-23.083-12.35-34.473-18.72 34.435-26.271 50.025-60.733 43.666-103.23-8.89-59.407-65.57-98.33-123.608-87.748C158.93 106.2 123.888 201.72 175.7 263.227c6.27 7.444 14.167 13.518 20.898 20.374-28.963 11.098-53.122 28.223-72.575 51.832-21.13 25.645-34.012 54.93-38.042 87.974-.923 7.566-1.345 15.193-2.304 22.64-10.61-11.463-21.575-22.249-31.066-34.205-15.998-20.154-28.135-42.63-36.667-66.994-6.198-17.702-11.467-35.603-13.04-54.412-.045-.528-1.243-.96-1.903-1.436 0-21.354 0-42.708.359-64.223.784-1 1.41-1.795 1.607-2.686 2.993-13.517 5.446-27.176 9-40.542 4.72-17.758 12.346-34.39 21.369-50.415 8.923-15.849 19.188-30.81 31.442-44.14C74.584 76.328 85.48 66.573 96.52 57.147 113.519 42.63 132.6 31.31 153.12 22.37c22.421-9.769 45.56-16.786 69.944-19.448.707-.077 1.293-1.257 1.935-1.922z"
    />
    <path
      fill="#929AA5"
      d="M83.983 446.199c.652-7.6 1.074-15.226 1.997-22.792 4.03-33.044 16.912-62.33 38.042-87.974 19.453-23.61 43.612-40.734 72.85-51.717 1.846.62 3.02 1.243 4.158 1.927 23.095 13.872 47.807 19.116 74.561 14.531 15.355-2.63 29.112-8.865 42.11-17.124 11.602 6.085 23.877 11.168 34.685 18.434 39.982 26.878 64.901 64.26 74.255 111.586 2.081 10.53 2.242 21.44 3.231 32.956-4.998 5.066-9.68 9.706-14.932 13.57-17.212 12.666-35.166 24.08-54.929 32.543-22.099 9.462-44.892 16.135-68.792 18.96-.804.095-1.482 1.244-2.219 1.901-21.02 0-42.042 0-63.322-.395-.935-.789-1.57-1.417-2.293-1.541-8.67-1.498-17.48-2.398-26.01-4.458-28.733-6.937-55.929-17.79-80.34-34.637-11.479-7.922-22.063-17.14-33.052-25.77z"
    />
    <path
      fill="#FCD436"
      d="M317.913 282.764c-13.21 8.545-26.967 14.78-42.322 17.41-26.754 4.585-51.466-.659-74.561-14.531-1.138-.684-2.312-1.308-3.745-2.074-7.42-6.824-15.316-12.898-21.586-20.342-51.81-61.508-16.77-157.028 62.272-171.44 58.037-10.583 114.719 28.34 123.608 87.748 6.36 42.496-9.23 76.958-43.666 103.23z"
    />
</svg>