<svg version="1.1" id="Layer_1" xmlns="http://www.w3.org/2000/svg" xmlns:xlink="http://www.w3.org/1999/xlink" x="0px" y="0px"
	 width="100%" viewBox="0 0 512 512" enable-background="new 0 0 154 154" xml:space="preserve">
    <style>
        .icon-mid-white-color-change{
            fill: #666467;
        }
        @media (prefers-color-scheme: dark) {
            .icon-mid-white-color-change{
                fill: #fafafa;
            }
        }
    </style>
    <path
        class="icon-mid-white-color-change"
        d="M256.987 18c14.153 2.583 28.045 4.398 41.493 7.912 25.274 6.605 48.37 18.075 69.215 33.943 12.533 9.539 23.681 20.416 33.634 32.67 17.602 21.673 30.47 45.86 37.997 72.602 4.03 14.32 6.717 29.158 8.427 43.946 1.539 13.305 1.674 26.896 1.05 40.296-.747 16.064-3.524 31.955-7.891 46.38l-39.974-7.333c2.294-12.367 5.633-24.826 6.66-37.472 1.029-12.672.08-25.549-.609-38.303-.75-13.873-4.394-27.16-8.818-40.347-6.416-19.126-15.898-36.447-28.508-52.063-14.973-18.542-33.177-33.218-54.622-43.64-17.386-8.45-35.648-14.523-54.937-16.485-13.152-1.338-26.5-2.588-39.632-1.776-12.83.794-25.661 3.586-38.195 6.699-19.778 4.911-37.992 13.64-54.533 25.63-12.5 9.06-23.33 19.76-33.044 31.866-17.105 21.317-27.468 45.636-33.258 71.947-4.288 19.486-4.517 39.336-2.534 59.24 2.18 21.883 8.19 42.616 18.115 62.15 11.135 21.913 26.324 40.441 45.859 55.68 22.887 17.854 48.787 28.025 76.94 33.54 15.242 2.985 30.668 3.985 45.976 2.649 13.353-1.166 26.544-4.418 39.728-7.132 3.285-.676 4.513.053 4.437 3.079-.32 12.698 2.398 24.821 7.262 37.321-10.36 2.046-20.237 4.582-30.275 5.82-10.973 1.353-22.086 1.82-33.153 2.119-27.668.748-54.506-4.07-80.505-13.346-24.097-8.596-45.884-21.138-65.346-37.972-22.277-19.269-38.825-42.595-51.029-69.113-9.188-19.964-15.947-40.831-17.796-62.816-1.443-17.159-2.73-34.506-1.808-51.647 1.35-25.088 7.817-49.265 17.75-72.478 7.837-18.312 18.023-35.22 30.56-50.547 15.845-19.368 35.117-34.826 57.065-46.97 18.103-10.017 37.328-17.06 57.42-21.554 10.078-2.254 20.443-3.535 30.75-4.37 11.233-.91 22.547-.908 33.829-1.064 3.941-.054 7.893.605 12.3.94z"
        opacity="1"
    ></path>
    <path
        class="icon-mid-white-color-change"
        d="M339.426 477.648c-18.005-14.934-29.125-33.869-33.032-56.299-3.247-18.643-2.396-37.37 4.144-55.68 8.24-23.063 23.02-40.236 44.673-51.15 12.568-6.336 26.21-9.224 40.483-9.648 17.8-.528 35.06 1.552 51.012 9.572 25.981 13.062 42.017 34.541 48.007 62.667 6.707 31.497 1.858 61.353-18.694 87.055-14.61 18.272-34.175 28.784-57.494 31.82-20.637 2.688-40.952 1.63-60.16-7.164-6.52-2.985-12.44-7.282-18.939-11.173m43.042-46.653c-2.968-2.31-5.957-4.593-8.899-6.936-5.27-4.197-10.422-8.547-15.796-12.605-3.376-2.55-8.4-1.99-10.315.745-2.4 3.426-2.016 8.34 1.017 10.737 12.47 9.86 24.944 19.716 37.5 29.466 7.407 5.752 10.966 4.924 15.408-3.216 15.251-27.955 30.51-55.907 45.758-83.864 1.854-3.4.866-8.438-1.963-10.247-3.479-2.225-7.835-1.34-10.223 2.386a216.852 216.852 0 00-7.795 13.15c-9.08 16.649-18.043 33.361-27.103 50.02-3.03 5.571-6.219 11.055-9.54 16.94-2.963-2.392-5.245-4.234-8.05-6.576zM189.715 241.239c13.671 9.698 28.613 13.179 44.895 12.916 17.3-.28 32.795-5.14 46.143-16.109 4.303-3.536 8.152-7.763 11.591-12.157 2.006-2.563 3.38-3.165 6.514-2.09 23.397 8.026 36.288 25.153 42.054 48.344 2.614 10.512 3.118 21.254 1.005 31.962-.3 1.515-1.42 3.13-2.622 4.162-6.002 5.165-12.275 10.02-18.208 15.26-2.694 2.38-5.258 5.139-7.096 8.197-2.138 3.56-5.148 4.763-8.864 5.394-13.27 2.253-26.454 5.266-39.809 6.714-13.806 1.497-27.836 2.64-41.657 1.885-17.877-.977-35.685-3.7-53.439-6.253-7.927-1.14-15.704-3.505-23.453-5.66-14.076-3.913-20.422-14.693-22.522-27.934-2.926-18.458-1.38-36.649 8.009-53.303 8.11-14.388 20.29-23.997 36.192-28.892 2.702-.832 3.417.174 5.093 1.993 4.98 5.406 10.54 10.278 16.174 15.571z"
        opacity="1"
    ></path>
    <path
        class="icon-mid-white-color-change"
        d="M189.747 224.252c-8.587-9.922-14.68-20.753-16.355-33.557-3.899-29.803 8.151-59.592 39.052-68.68 19.906-5.854 39.466-4.63 57.148 7.854 12.286 8.676 19.542 20.756 22.275 35.272 2.732 14.512 2.124 29.059-4.337 42.66-7.988 16.812-21.33 27.503-39.629 30.956-15.896 3-31.67 1.976-46.253-5.973-4.151-2.263-7.774-5.495-11.9-8.532z"
        opacity="1"
    ></path>
</svg>