<svg version="1.1" id="Layer_1" xmlns="http://www.w3.org/2000/svg" xmlns:xlink="http://www.w3.org/1999/xlink" x="0px" y="0px"
	 width="100%" viewBox="0 0 512 512" enable-background="new 0 0 154 154" xml:space="preserve">
    <path
      fill="#fafafa"
      d="M1 245.469c.872-1.2 1.934-1.792 2.586-2.684 4.168-5.703 7.837-11.828 12.451-17.135 6.857-7.887 14.416-15.159 21.579-22.784 23.591-25.114 50.018-46.881 78.8-65.7 28.69-18.76 59.362-33.357 93.043-40.833 19.117-4.243 38.54-6.498 58.098-5.212 35.816 2.354 69.503 12.437 101.248 29.213 22.157 11.71 42.747 25.662 62.392 41.21 21.531 17.039 40.807 36.434 59.724 56.166 8.006 8.351 14.307 18.337 21.731 27.435.348 7.543.348 15.23.348 23.386-.696.917-1.597 1.215-2.055 1.838-4.584 6.23-8.661 12.89-13.72 18.699-9.031 10.366-17.998 20.938-28.156 30.139-16.852 15.264-33.977 30.384-52.209 43.92-15.652 11.621-32.498 21.916-49.742 31.048-24.221 12.825-49.9 22.302-77.35 25.79-11.113 1.413-22.322 2.86-33.49 2.877-28.805.044-56.412-6.362-83.239-16.764-30.044-11.65-57.144-28.39-82.66-47.684-13.273-10.036-25.504-21.479-37.945-32.578-6.27-5.593-11.966-11.83-17.906-17.791-12.102-12.147-24.134-24.356-33.183-39.182C1 261.313 1 253.625 1 245.469m123.052-73.962c-34.159 24.442-64.588 52.84-91.454 85.538 7.133 8.183 13.425 16.547 20.875 23.707 15.623 15.014 31.56 29.733 47.909 43.953 23.917 20.804 50.885 36.861 79.977 49.42 19.614 8.467 40.078 14.119 61.279 15.562 13.605.926 27.458-.452 41.103-1.79 19.147-1.877 37.19-8.302 54.608-16.124 33.031-14.832 62.607-35.173 89.42-59.313 14.917-13.43 28.63-28.206 42.715-42.545 3.88-3.95 7.14-8.507 10.957-13.113-6.781-7.76-12.905-15.617-19.906-22.592-12.087-12.043-24.351-23.962-37.23-35.14-11.8-10.24-24.138-19.954-36.896-28.97-24.886-17.588-51.77-31.26-81.273-39.613-24.144-6.835-48.638-8.682-73.356-5.32-23.486 3.196-45.897 10.631-66.88 21.593-14.129 7.382-27.517 16.181-41.848 24.747z"
    />
    <path
      fill="#fafafa"
      d="M197.378 163.3c12.827-7.764 26.194-12.896 40.664-15.507 13.881-2.505 27.646-2.334 41.328.495 24.92 5.151 45.777 17.582 62.223 36.934 13.04 15.344 21.073 33.087 24.566 53.105 4.343 24.89.657 48.462-11.235 70.382-17.124 31.567-43.48 51.023-79.221 57.376-23.92 4.252-46.71.9-68.206-10.006-30.536-15.49-50.25-40.122-58.315-73.383-8.038-33.15-1.14-63.897 18.376-91.494 7.81-11.042 17.953-20.3 29.82-27.902m43.716 170.164c8.57.48 17.33 2.33 25.672 1.171 20.73-2.877 38.102-12.412 51.366-29.17 15.49-19.57 20.151-41.612 15.16-65.588-3.934-18.905-14.288-34.191-29.778-45.812-16.963-12.727-36.403-17.513-57.043-14.765-21.808 2.905-39.7 13.825-52.852 31.705-12.101 16.45-16.6 35.237-14.405 55.28 1.637 14.95 7.61 28.33 17.464 40.114 11.65 13.932 25.791 23.2 44.416 27.065z"
    />
</svg>