<svg version="1.1" id="Layer_1" xmlns="http://www.w3.org/2000/svg" xmlns:xlink="http://www.w3.org/1999/xlink" x="0px" y="0px"
	 width="100%" viewBox="0 0 512 512" enable-background="new 0 0 154 154" xml:space="preserve">
    <path
        fill="#D71E28"
        d="M50.878 60.965c10.598-10.593 22.949-17.819 38.284-17.834 111.472-.116 222.944-.119 334.416.017 11.637.014 22.496 3.22 31.452 11.324 2.397 2.17 5.15 3.948 7.864 6.57 4.55 8.632 7.305 17.114 7.904 26.36-.063.123-.176.377-.357.762-.278 2.543-.461 4.7-.462 6.857-.014 104.464-.012 208.927-.012 313.39 0 7.646-.002 7.649-7.465 7.649H51.646c-7.61 0-7.613-.002-7.613-7.5 0-104.63.004-209.26-.027-313.89-.001-2.297-.41-4.594-.684-7.018-.057-.127-.184-.374 0-.706.257-2.985-.282-5.843.525-8.25 2.018-6.02 4.647-11.834 7.03-17.73M159.935 176.98s.072-.002-.568-.532c-.643-.141-1.285-.404-1.927-.405-18.585-.03-37.17-.052-55.754.009-1.222.004-2.442.678-3.693 1.965v16.978H113.6l33.259 115.674c.767.165 1.091.294 1.416.296 4.997.017 9.994.02 14.991.022 10.35.002 10.376.008 13.154-9.578 5.828-20.113 11.635-40.23 17.432-60.352 2.221-7.712 4.39-15.44 6.583-23.16l1.276-.286c1.138 2.884 2.53 5.696 3.374 8.664 7.687 27.014 15.242 54.066 22.996 81.061.41 1.43 2.223 3.44 3.45 3.49 7.97.315 15.958.161 24.063.161 2.338-8.102 4.638-15.994 6.893-23.9 5.515-19.34 10.957-38.7 16.532-58.021 3.184-11.035 6.57-22.01 10.653-33.339 8.12-.189 16.24-.377 24.351.351-.003 30.437-.082 60.874.076 91.31.022 4.305-1.115 6.186-5.605 5.688-2.628-.292-5.324-.145-7.97.057-.51.04-.929 1.25-1.329 2.846.016 4.127-.076 8.26.126 12.38.046.956 1.09 1.864 1.97 3.515 1.706.374 3.41 1.063 5.116 1.074 14.152.087 28.305.05 42.457.05 4.33-.001 8.661.083 12.986-.05 1.69-.053 4.362.418 2.725-3.83.09-4.371.181-8.743.722-13.474-1.158-.877-2.249-2.374-3.488-2.51-3.271-.357-6.628-.36-9.911-.067-4.422.395-6.22-.984-6.006-5.751.369-8.258-.064-16.55.194-24.816.088-2.827 1.24-5.62 2.844-8.476 9.635-.008 19.27.039 28.904-.076 1.714-.02 3.419-.716 5.29-1.842 2.882-6.008 2.426-11.988-.733-18.551-1.779-.185-3.556-.512-5.336-.531-10.368-.113-20.738-.153-31.097-1.131-.003-12.233-.006-24.466.93-36.828 7.451-.022 14.903.044 22.35-.103 3.912-.077 7.815-.53 12.462-.906 7.077 1.435 11.02 6.239 13.268 12.657 1.713 4.888 3.12 9.883 4.822 15.338 4.617-.72 8.933-1.393 13.774-2.706.136-13.017.286-26.033.37-39.05.005-.754-.528-1.51-1.03-2.793-.312-.209-.623-.417-1.596-1.113-.98-.128-1.96-.369-2.94-.37-51.022-.018-102.042-.023-153.063.02-1.426.001-2.85.547-4.804 1.058-.208.31-.416.621-1.11 1.59.166 4.76.332 9.522.719 15.12 1.28.352 2.553.973 3.841 1.007 4.623.124 9.252.049 14.515.049-6.532 23.964-12.876 47.362-19.346 70.724-.475 1.715-1.856 3.18-3.347 5.635-3.56-12.733-6.67-24.038-9.883-35.314-5.603-19.663-11.268-39.308-17.55-59.48-8.776.179-17.551.357-26.833 1.084-8.027 29.177-16.035 58.36-24.141 87.515-.38 1.367-1.628 2.493-2.472 3.73-.948-1.229-2.387-2.322-2.772-3.707-6.445-23.184-12.758-46.403-19.16-69.833 5.777-.447 11.315-.875 17.632-1.475.304-5.226.636-10.45.841-15.68.013-.316-.981-.672-1.501-1.082z"
        opacity="1"
    ></path>
    <path
        fill="#010101"
        d="M470.862 87.279c-.663-9.123-3.419-17.605-7.792-25.944 1.384.978 3.038 2.13 3.995 3.704 7.94 13.058 6.974 27.602 6.967 42.034-.052 106.659-.045 213.317-.016 319.976.007 23.135-16.23 44.799-40.186 47.972-3.43.454-6.892.94-10.34.942-111.491.05-222.983.032-334.474.048-23.608.004-44.732-16.033-48.049-40.386-.444-3.264-.93-6.56-.93-9.84-.049-111.325.016-222.65-.135-333.975-.014-10.457 3.914-19.608 7.427-28.99.31-.826 1.85-1.19 3.183-1.812-2.018 5.854-4.647 11.669-6.665 17.688-.807 2.407-.268 5.265-.907 8.406-.689 1.804-.917 3.12-.918 4.435-.016 109.925-.02 219.85.029 329.775 0 1.52.657 3.038 1.153 4.951.342 1.202.723 2.013.71 2.817-.183 10.61 4.627 19.086 11.386 26.715 9.691 10.939 22.244 14.834 36.43 14.812 27.824-.043 55.647-.012 83.47-.012 82.303 0 164.607-.118 246.91.074 23.734.055 39.167-12.605 45.446-29.136 1.875-4.938 2.297-10.427 3.742-15.884.47-1.538.68-2.856.68-4.175.016-109.92.02-219.84-.032-329.761 0-1.478-.707-2.956-1.084-4.434z"
        opacity="1"
    ></path>
    <path
        fill="#FFFDFD"
        d="M249.877 178.029c.208-.31.416-.621 1.352-.988 54.066-.092 107.404-.128 160.742-.164.31.208.621.416.988 1.353.064 14.404.072 28.08.08 41.755l-13.249 2.066c-1.701-5.455-3.11-10.45-4.822-15.338-2.248-6.418-6.19-11.222-14.1-12.676-12.5 0-24.17.019-36.24.203-.446 12.693-.505 25.22-.496 37.747 0 .619.597 1.237 1.377 1.926 12.794.128 25.127.186 37.46.243 2.581 5.962 3.037 11.942-.388 18.39-12.868.5-25.195.561-37.935.749-.413 13.676-.413 27.225-.413 41.194 5.525 0 10.646-.12 15.757.07 1.634.06 3.239.94 4.857 1.444-.09 4.372-.182 8.744-.452 13.906-1.994.883-3.808 1.052-5.623 1.06-19.258.076-38.516.127-57.775.184-.585-.93-1.63-1.838-1.676-2.795-.202-4.118-.11-8.252.278-13.01 5.642-.63 10.881-.63 16.31-.63 0-33.696.004-66.445-.038-99.193-.001-.482-.585-.963-1.356-1.536-7.717-.096-14.977-.195-22.23-.009-1.15.03-2.268 1.35-3.4 2.073-3.296 11.002-6.682 21.978-9.866 33.013-5.575 19.322-11.017 38.682-16.532 58.02-2.255 7.907-4.555 15.8-6.893 23.901-8.105 0-16.093.154-24.063-.162-1.227-.048-3.04-2.06-3.45-3.489-7.754-26.995-15.31-54.047-22.996-81.061-.844-2.968-2.236-5.78-3.374-8.664l-1.276.286c-2.193 7.72-4.362 15.448-6.583 23.16a40163.542 40163.542 0 01-17.432 60.352c-2.778 9.586-2.803 9.58-13.154 9.578-4.997-.001-9.994-.005-14.991-.022-.325-.002-.65-.131-1.416-.296L113.6 194.995H97.992c0-5.808 0-11.393.48-17.483 20.832-.515 41.183-.524 61.534-.534 0 0-.072.002.062.484.006 5.806-.123 11.129-.252 16.452l-16.853 1.303c6.401 23.43 12.714 46.65 19.159 69.833.385 1.385 1.824 2.478 2.772 3.707.844-1.237 2.092-2.363 2.472-3.73 8.106-29.155 16.114-58.338 24.862-87.774 9.399-.274 18.077-.29 26.755-.305 5.64 19.652 11.304 39.297 16.907 58.96 3.213 11.276 6.324 22.581 9.883 35.314 1.49-2.455 2.872-3.92 3.347-5.635 6.47-23.362 12.814-46.76 19.346-70.724-5.263 0-9.892.075-14.515-.049-1.288-.034-2.561-.655-3.903-1.887-.098-5.553-.135-10.226-.17-14.898z"
        opacity="1"
    ></path>
    <path
        fill="#A60C1D"
        d="M43.378 87.78c.218 2.296.627 4.593.628 6.89.031 104.63.027 209.26.027 313.89 0 7.498.003 7.5 7.613 7.5h410.856c7.463 0 7.465-.003 7.465-7.649 0-104.463-.002-208.926.012-313.39 0-2.157.184-4.314.566-6.374.319 1.262.385 2.427.385 3.592.004 106.63.006 213.258-.012 319.887 0 1.652-.247 3.303-.533 4.969-.155.015-.447.126-.904.034-141.114-.105-281.77-.12-422.426-.124-.993 0-1.987.139-3.13.158-.148-.056-.464-.083-.599-.538-.176-1.454-.254-2.452-.254-3.45-.006-106.974-.007-213.948.007-320.922 0-1.491.195-2.983.3-4.474z"
        opacity="1"
    ></path>
    <path
        fill="#4A714B"
        d="M470.54 417.08c.13-1.651.378-3.302.378-4.954.018-106.629.016-213.258.012-319.887 0-1.165-.066-2.33-.205-3.978-.103-.482.01-.736.073-.86.441 1.356 1.147 2.834 1.148 4.312.051 109.92.048 219.84.033 329.761 0 1.319-.211 2.637-.815 3.756-.535-2.85-.58-5.5-.625-8.15zM43.322 87.652c-.048 1.618-.243 3.11-.243 4.6-.014 106.975-.013 213.949-.007 320.923 0 .998.078 1.996.206 3.891-.014 3.532-.117 6.167-.22 8.803-.35-1.52-1.007-3.038-1.007-4.557-.048-109.925-.045-219.85-.029-329.775 0-1.315.23-2.631.734-4.103.382-.156.51.091.566.218z"
        opacity="1"
    ></path>
    <path
        fill="#D7262F"
        d="M314.974 194.08c.312.482.896.963.897 1.445.042 32.748.038 65.497.038 99.193-5.429 0-10.668 0-16.34.168.026-.502.446-1.714.955-1.753 2.646-.202 5.342-.35 7.97-.057 4.49.498 5.627-1.383 5.605-5.689-.158-30.435-.08-60.872.122-91.915.441-.827.626-1.089.753-1.392z"
        opacity="1"
    ></path>
    <path
        fill="#CB0000"
        d="M411.64 176.633c-53.007.28-106.345.316-160.147.298.961-.345 2.386-.891 3.812-.892 51.02-.043 102.041-.038 153.062-.02.98.001 1.96.242 3.272.614z"
        opacity="1"
    ></path>
    <path
        fill="#D7222B"
        d="M301.145 311.514c19.11-.418 38.369-.47 57.627-.546 1.815-.007 3.63-.176 5.78-.62 1.66 3.018-1.013 2.547-2.702 2.6-4.325.133-8.657.049-12.986.05-14.152 0-28.305.037-42.457-.05-1.707-.01-3.41-.7-5.262-1.434zM365.072 295.824c-1.843-.325-3.448-1.205-5.082-1.265-5.11-.19-10.232-.07-15.757-.07 0-13.969 0-27.518.641-40.975 1.467.247 2.293.402 3.118.556-.666 2.81-1.818 5.603-1.906 8.43-.258 8.266.175 16.558-.194 24.816-.213 4.767 1.584 6.146 6.006 5.75 3.283-.293 6.64-.289 9.911.069 1.24.135 2.33 1.632 3.263 2.689z"
        opacity="1"
    ></path>
    <path
        fill="#D92A33"
        d="M345.048 233.843c-.319-.619-.915-1.237-.916-1.856-.009-12.527.05-25.054.608-37.529.695.33.928.558 1.208.736.004 12.233.007 24.466-.181 37.296-.429.807-.604 1.059-.72 1.353z"
        opacity="1"
    ></path>
    <path
        fill="#CB0000"
        d="M159.686 176.713c-20.031.275-40.382.284-61.198.336.755-.319 1.975-.993 3.197-.997 18.584-.061 37.169-.038 55.754-.01.642.002 1.284.265 2.247.671zM413.302 219.665c-.27-13.356-.279-27.031-.233-41.171.337.29.87 1.047.865 1.8-.084 13.018-.234 26.034-.632 39.37z"
        opacity="1"
    ></path>
    <path
        fill="#CC0101"
        d="M345.509 233.913c-.346-.364-.17-.616.253-.966 10.555-.076 20.925-.036 31.293.077 1.78.02 3.557.346 5.624.831-12.043.244-24.376.186-37.17.058z"
        opacity="1"
    ></path>
    <path
        fill="#CB0001"
        d="M348.461 254.047c-1.294-.131-2.12-.286-3.173-.66 12.098-.28 24.425-.34 37.212-.47-1.247.315-2.952 1.01-4.666 1.03-9.633.116-19.269.069-29.373.1z"
        opacity="1"
    ></path>
    <path
        fill="#CE0000"
        d="M346.419 195.13c-.751-.114-.984-.342-1.278-.837 11.557-.237 23.226-.256 35.357-.21-3.445.35-7.348.802-11.26.879-7.447.147-14.899.08-22.82.167z"
        opacity="1"
    ></path>
    <path
        fill="#DB353E"
        d="M160.205 193.828c-.26-5.237-.131-10.56-.14-16.33.389-.108 1.383.248 1.37.564-.205 5.23-.537 10.454-1.23 15.766z"
        opacity="1"
    ></path>
    <path
        fill="#CE0001"
        d="M314.515 193.99c.332.393.147.655-.29 1.024-8.314.336-16.433.524-24.947.876.74-.56 1.857-1.88 3.007-1.91 7.253-.186 14.513-.087 22.23.01z"
        opacity="1"
    ></path>
    <path
        fill="#CB0001"
        d="M218.662 176.688c-8.357.276-17.035.291-26.181.29 8.308-.193 17.083-.371 26.18-.29z"
        opacity="1"
    ></path>
    <path
        fill="#CB0000"
        d="M249.634 178.357c.28 4.344.316 9.017.304 14.151-.215-4.299-.381-9.06-.304-14.15z"
        opacity="1"
    ></path>
    <path
        fill="#FBCC41"
        d="M43.204 426.263c-.043-3.03.06-5.665.21-8.741.047-.442.363-.415.855-.141 1.977.39 3.463.606 4.948.606 138.463.016 276.927.018 415.39-.018 1.777 0 3.554-.488 5.331-.748 0 0 .292-.111.447-.126.199 2.635.244 5.285.422 8.355-.954 5.656-1.376 11.145-3.251 16.083-6.279 16.531-21.712 29.19-45.447 29.136-82.302-.192-164.606-.074-246.909-.074-27.823 0-55.646-.03-83.47.012-14.186.022-26.739-3.873-36.43-14.812-6.759-7.63-11.57-16.105-11.387-26.715.014-.804-.367-1.615-.71-2.817z"
        opacity="1"
    ></path>
    <path
        fill="#FFFF48"
        d="M469.48 417.13c-1.319.351-3.096.839-4.873.84-138.463.035-276.927.033-415.39.017-1.485 0-2.971-.217-4.8-.55.65-.293 1.645-.432 2.638-.432 140.656.004 281.312.019 422.426.124z"
        opacity="1"
    ></path>
</svg>