<svg version="1.1" id="Layer_1" xmlns="http://www.w3.org/2000/svg" xmlns:xlink="http://www.w3.org/1999/xlink" x="0px" y="0px"
	 width="100%" viewBox="0 0 2000 2000" enable-background="new 0 0 154 154" xml:space="preserve">
    <path
        fill="#6C1CD3"
        d="M1 1622c0-413.7 0-827.399.415-1241.39.796-.972 1.435-1.623 1.516-2.337 1.065-9.462 1.375-19.066 3.198-28.375 3.851-19.666 7.662-39.404 12.98-58.703 8.857-32.153 22.838-62.25 39.847-90.917 12.987-21.889 27.893-42.441 44.851-61.38 9.705-10.838 19.976-21.299 30.927-30.857a649.453 649.453 0 0143.777-35.025c19.989-14.609 41.465-27.001 64.434-36.274 19.778-7.984 39.89-15.337 60.288-21.537C325.628 8.397 348.737 4.48 372.172 2.9 372.82 2.858 373.392 1.66 374 1c418.033 0 836.065 0 1254.385.411.8.781 1.28 1.413 1.83 1.481 8.625 1.075 17.37 1.518 25.867 3.213 17.889 3.566 35.877 6.969 53.412 11.903 33.008 9.287 64.072 23.288 93.54 40.927 26.887 16.095 51.398 35.232 74.015 56.788 8.724 8.315 16.792 17.38 24.6 26.577 8.796 10.363 17.4 20.946 25.312 31.99 18.355 25.623 33.258 53.2 44.996 82.474 9.798 24.436 17.511 49.49 22 75.452 2.007 11.601 3.366 23.314 5.135 34.959.105.689 1.248 1.22 1.908 1.825 0 420.7 0 841.399-.411 1262.385-1.465 6.663-2.757 13.01-3.53 19.42-2.584 21.456-7.588 42.36-13.98 62.96-8.937 28.81-21.085 56.173-36.012 82.42-17.567 30.888-39.401 58.438-63.878 83.979-6.956 7.258-14.595 13.917-22.334 20.354-10.574 8.796-21.282 17.475-32.394 25.57-26.307 19.164-54.97 34.099-85.142 46.21-21.383 8.584-43.282 15.539-65.955 19.635-15.92 2.876-32.023 4.728-48.028 7.145-.856.13-1.56 1.258-2.336 1.922-416.7 0-833.399 0-1250.388-.414-1.136-.8-1.952-1.428-2.833-1.538-8.46-1.057-16.933-2.023-25.4-3.024-20.827-2.463-41.008-7.748-60.996-13.897-29.966-9.218-58.228-22.173-85.26-38.032-28.473-16.706-54.526-36.616-77.934-59.736-13.46-13.296-25.712-27.901-37.697-42.58-14.4-17.636-26.412-36.988-37.124-57.072-13.882-26.028-25.101-53.208-32.74-81.713-3.879-14.474-6.895-29.22-9.502-43.983-2.022-11.448-2.767-23.118-4.209-34.674-.105-.846-1.253-1.561-1.917-2.337m661.12-376.379c-24.71 31.64-49.467 63.242-74.031 94.995-1.754 2.267-2.952 5.625-2.962 8.48-.174 52.498-.127 104.995-.127 157.492v5.745h317.48v192.398h190.75v-192.563h6.836c103.66 0 207.321-.026 310.982.095 4.143.005 5.904-1.01 6.44-5.268 2.039-16.196-3.267-29.952-13.91-41.713-26.074-28.813-48.344-60.275-65.887-94.93-8.478-16.75-15.852-34.06-23.566-51.189-1.628-3.612-3.697-5.257-7.886-5.263-15.32-.024-30.638-.584-45.959-.708-49.145-.398-98.29-.718-147.436-1.017-43.32-.263-86.642-.456-129.963-.682-31.32-.163-62.64-.31-93.959-.529-2.497-.017-4.991-.54-7.94-.88 1.808-2.273 3.153-3.933 4.465-5.619 67.107-86.244 134.215-172.487 201.314-258.737 101.77-130.819 203.547-261.633 305.2-392.544 1.846-2.378 3.062-5.932 3.074-8.943.188-48.83.133-97.66.133-146.491v-6.177h-302.084V297.308h-190.73v195.59l-297.12-3.355v198.442h492.324c-1.457 1.999-2.361 3.318-3.344 4.576-31.159 39.918-62.316 79.837-93.493 119.742A3114780.637 3114780.637 0 01662.12 1245.62z"
        opacity="1"
    ></path>
    <path
        fill="#FFF"
        d="M662.35 1245.349a5321648.018 5321648.018 0 00338.371-433.046c31.177-39.905 62.334-79.824 93.493-119.742.983-1.258 1.887-2.577 3.344-4.576H605.234V489.543l297.12 3.355v-195.59h190.73v194.265h302.084v6.177c0 48.83.055 97.661-.133 146.491-.012 3.01-1.228 6.565-3.074 8.943-101.653 130.91-203.43 261.725-305.2 392.544-67.099 86.25-134.207 172.493-201.314 258.737-1.312 1.686-2.657 3.346-4.465 5.62 2.949.34 5.443.862 7.94.88 31.32.218 62.64.365 93.959.528 43.321.226 86.642.42 129.963.682 49.146.299 98.291.619 147.436 1.017 15.32.124 30.639.684 45.959.708 4.189.006 6.258 1.65 7.886 5.263 7.714 17.129 15.088 34.44 23.566 51.189 17.543 34.655 39.813 66.117 65.887 94.93 10.643 11.761 15.949 25.517 13.91 41.713-.536 4.259-2.297 5.273-6.44 5.268-103.66-.121-207.322-.095-310.982-.095h-6.837v192.563H902.48v-192.398H585v-5.745c0-52.497-.047-104.994.127-157.491.01-2.856 1.208-6.214 2.962-8.481 24.564-31.753 49.32-63.356 74.26-95.267z"
        opacity="1"
    ></path>
</svg>