<svg version="1.1" id="Layer_1" xmlns="http://www.w3.org/2000/svg" xmlns:xlink="http://www.w3.org/1999/xlink" x="0px" y="0px"
	 width="100%" viewBox="0 0 2000 2000" enable-background="new 0 0 2000 2000" xml:space="preserve">
<path fill="#F7931A" opacity="1.000000" stroke="none" 
	d="
M1064.000000,2001.000000 
	C1022.312439,2001.000000 980.624878,2001.000000 938.710327,2000.607178 
	C932.702759,1999.476562 926.937561,1998.571777 921.138184,1998.036133 
	C909.029114,1996.917969 896.853455,1996.386597 884.794495,1994.893066 
	C869.258423,1992.968872 853.754272,1990.653442 838.337341,1987.933838 
	C817.043213,1984.177368 795.575928,1980.931396 774.665833,1975.579590 
	C743.442993,1967.588135 712.493530,1958.428589 681.698547,1948.891968 
	C645.558350,1937.699951 610.514282,1923.438477 576.510986,1906.913574 
	C549.137512,1893.610474 522.022522,1879.643799 495.597229,1864.562012 
	C473.479248,1851.938843 452.306854,1837.602051 431.129639,1823.406616 
	C416.013489,1813.273926 401.263489,1802.526489 386.934937,1791.306396 
	C372.099976,1779.689575 357.751099,1767.421509 343.591614,1754.980713 
	C328.002716,1741.283691 312.766388,1727.178223 297.596039,1713.015503 
	C292.053070,1707.840820 287.086548,1702.040405 281.950653,1696.439575 
	C267.795166,1681.002563 253.492065,1665.694458 239.629211,1649.998047 
	C229.556824,1638.593384 219.489914,1627.094604 210.488815,1614.852295 
	C194.106018,1592.570190 177.714828,1570.218140 162.811615,1546.944702 
	C146.344772,1521.229370 130.925156,1494.786987 116.224792,1468.015747 
	C105.434982,1448.366089 96.233910,1427.816162 86.896942,1407.405518 
	C79.479378,1391.190552 72.256691,1374.824097 66.154282,1358.084839 
	C57.515854,1334.389526 49.382687,1310.469971 42.161003,1286.309448 
	C35.350628,1263.524780 29.807423,1240.351562 24.088629,1217.254761 
	C21.281332,1205.916748 19.079737,1194.409912 17.073221,1182.897705 
	C14.749846,1169.567383 12.831657,1156.162720 10.940422,1142.761719 
	C8.841181,1127.886719 6.708279,1113.007812 5.090639,1098.076416 
	C3.957767,1087.619629 3.709054,1077.068604 2.917284,1066.570679 
	C2.849406,1065.670776 1.665480,1064.854858 1.000001,1064.000000 
	C1.000000,1021.979126 1.000000,979.958191 1.412299,937.644653 
	C2.216443,935.670105 2.847657,934.003906 2.957993,932.303772 
	C3.395788,925.558105 3.388430,918.773132 4.070671,912.056030 
	C5.160360,901.327515 6.676439,890.642517 7.996904,879.937134 
	C9.357048,868.910095 10.305573,857.814819 12.142868,846.868286 
	C14.750432,831.332703 18.054482,815.915100 20.975254,800.430847 
	C26.988981,768.549622 35.138908,737.201050 45.002785,706.320618 
	C51.253677,686.751221 57.627243,667.173889 65.115875,648.058472 
	C75.162819,622.412720 85.473381,596.798645 97.270889,571.930054 
	C109.597717,545.945740 122.896317,520.316772 137.476517,495.536469 
	C152.207947,470.499115 168.752350,446.503906 185.044876,422.418976 
	C194.601395,408.291748 204.893631,394.626495 215.447128,381.219574 
	C225.672958,368.228882 236.443039,355.646912 247.363129,343.227509 
	C260.315857,328.496399 273.546844,314.002411 286.937134,299.667114 
	C292.679779,293.519165 299.063324,287.959900 305.268677,282.256134 
	C320.807800,267.973022 336.235107,253.560654 352.048462,239.586197 
	C363.451965,229.508774 374.934814,219.408966 387.210205,210.454041 
	C411.599182,192.662216 436.095764,174.937622 461.421783,158.534576 
	C484.016693,143.900421 507.345306,130.241699 531.164062,117.697990 
	C556.031921,104.601761 581.492798,92.451721 607.389832,81.538147 
	C635.431824,69.720657 664.030396,59.085747 692.838989,49.263092 
	C723.661682,38.753723 755.247437,30.791815 787.096802,23.744295 
	C819.430176,16.589697 852.040649,11.375636 884.818848,7.150264 
	C901.428650,5.009136 918.230286,4.367727 934.934509,2.924150 
	C936.003784,2.831745 936.980347,1.666287 938.000000,1.000004 
	C979.687561,1.000000 1021.375183,1.000000 1063.254761,1.381264 
	C1064.465820,2.173652 1065.460083,2.860654 1066.507446,2.954491 
	C1082.049927,4.346887 1097.630249,5.379543 1113.138428,7.074137 
	C1127.906616,8.687861 1142.671143,10.563458 1157.311768,13.060308 
	C1178.620361,16.694328 1199.967773,20.331043 1221.020874,25.173601 
	C1245.313110,30.761208 1269.483887,37.055485 1293.369873,44.175365 
	C1313.821411,50.271477 1334.019043,57.390972 1353.924805,65.101418 
	C1378.186035,74.498962 1402.467041,84.060097 1425.930054,95.247932 
	C1453.090942,108.199081 1479.911011,122.073616 1505.881958,137.252975 
	C1531.640381,152.308014 1556.418091,169.102539 1581.125977,185.870834 
	C1596.485718,196.294815 1611.179688,207.758331 1625.691162,219.357147 
	C1640.925903,231.533905 1656.028442,243.947906 1670.382324,257.135895 
	C1687.178589,272.567963 1703.428833,288.632935 1719.312622,305.008514 
	C1734.239990,320.397949 1748.587158,336.367615 1762.798462,352.428009 
	C1772.779053,363.707336 1782.735962,375.106781 1791.587524,387.265045 
	C1809.176758,411.425140 1826.659912,435.714417 1842.934204,460.764130 
	C1857.329956,482.922577 1870.828125,505.758179 1883.250122,529.079163 
	C1896.082520,553.170593 1907.994629,577.841431 1918.739014,602.931213 
	C1930.139771,629.553467 1940.226685,656.777405 1949.916626,684.083008 
	C1961.136108,715.699158 1969.671387,748.145874 1976.971680,780.893799 
	C1979.795898,793.563110 1982.622925,806.244629 1984.913452,819.016541 
	C1987.302368,832.337341 1989.151978,845.758972 1991.043823,859.163818 
	C1993.142944,874.037109 1995.287354,888.912720 1996.908569,903.841919 
	C1998.044067,914.297791 1998.289062,924.848816 1999.081665,935.346008 
	C1999.151855,936.273682 2000.334229,937.117310 2001.000000,938.000000 
	C2001.000000,979.687561 2001.000000,1021.375183 2000.612427,1063.273682 
	C1999.484985,1069.099365 1998.617920,1074.700684 1998.030762,1080.331421 
	C1996.620117,1093.857788 1995.570557,1107.425659 1993.945068,1120.924927 
	C1992.230591,1135.164185 1990.392212,1149.408569 1987.933350,1163.533447 
	C1984.224976,1184.835938 1980.691162,1206.216309 1975.713989,1227.239502 
	C1967.550415,1261.722290 1957.888306,1295.805176 1946.132324,1329.300537 
	C1934.643311,1362.035522 1921.872681,1394.228760 1906.957397,1425.518188 
	C1896.878540,1446.661499 1886.030151,1467.460449 1874.895386,1488.072632 
	C1860.158081,1515.353638 1843.960327,1541.790283 1825.939697,1567.045410 
	C1813.743774,1584.137451 1801.666016,1601.363037 1788.538208,1617.728882 
	C1770.986694,1639.609863 1752.866089,1661.068848 1734.221924,1682.026001 
	C1722.483643,1695.220581 1709.588745,1707.427002 1696.762207,1719.602295 
	C1681.672485,1733.926270 1666.268921,1747.933350 1650.672974,1761.705811 
	C1639.006226,1772.008301 1627.303345,1782.383789 1614.760376,1791.556030 
	C1590.486938,1809.306152 1566.051392,1826.909790 1540.849854,1843.292480 
	C1518.841431,1857.599243 1496.148804,1871.020508 1472.918457,1883.235840 
	C1447.328735,1896.691772 1421.064819,1908.975586 1394.564331,1920.556641 
	C1371.606323,1930.589966 1348.035400,1939.277954 1324.487183,1947.881714 
	C1310.220459,1953.094482 1295.602783,1957.465332 1280.927490,1961.414551 
	C1257.778564,1967.644165 1234.631592,1974.115112 1211.150024,1978.817261 
	C1180.031494,1985.048340 1148.662476,1990.154541 1117.260498,1994.793457 
	C1100.709717,1997.238525 1083.857788,1997.630981 1067.152466,1999.075439 
	C1066.054321,1999.170288 1065.048584,2000.333496 1064.000000,2001.000000 
M1047.592407,393.928680 
	C1023.763977,387.972656 999.935608,382.016632 975.767212,375.975647 
	C960.963379,435.299805 946.279358,494.143555 931.367432,553.901001 
	C858.521484,535.667603 786.204895,517.566711 713.632507,499.401825 
	C703.922852,538.378601 694.450012,576.404785 684.920044,614.660400 
	C705.096069,619.513489 724.829224,624.167847 744.512329,629.025024 
	C759.043762,632.610962 773.814575,635.809631 786.781189,643.685608 
	C811.896545,658.940552 817.124695,680.356628 812.035461,702.175598 
	C796.397339,769.220886 779.126282,835.885437 762.475891,902.694458 
	C741.995544,984.870728 721.502747,1067.043823 701.011108,1149.217285 
	C698.756775,1158.257446 696.342468,1167.259888 694.229736,1176.332764 
	C687.791382,1203.981567 666.935364,1216.067017 638.414490,1208.722168 
	C615.074219,1202.711182 591.756165,1196.611206 568.477112,1190.368530 
	C565.070190,1189.454834 563.869080,1190.564209 562.604980,1193.513550 
	C552.576477,1216.910645 542.372009,1240.232300 532.242249,1263.586060 
	C525.172546,1279.885132 518.135315,1296.198364 510.914459,1312.896240 
	C583.578491,1331.202881 655.897156,1349.422485 728.438049,1367.698120 
	C713.380432,1428.214478 698.577026,1487.709106 683.706116,1547.475098 
	C719.976562,1556.502075 755.592163,1565.365967 791.618347,1574.332153 
	C806.446960,1514.902588 821.159912,1455.936890 835.879089,1396.945923 
	C865.059631,1404.520264 893.463074,1411.892944 921.965515,1419.291382 
	C907.194824,1478.476196 892.585815,1537.012939 877.887756,1595.906738 
	C914.080688,1604.910156 949.805847,1613.797241 985.871399,1622.769043 
	C1000.850830,1562.761841 1015.663513,1503.422363 1030.389282,1444.431396 
	C1052.532837,1447.697876 1074.082764,1451.160522 1095.717285,1453.974854 
	C1111.909302,1456.081421 1128.180542,1458.211548 1144.470093,1458.772095 
	C1163.551514,1459.428711 1182.753784,1459.245605 1201.786743,1457.841797 
	C1218.751465,1456.590576 1235.807251,1454.280273 1252.385864,1450.514160 
	C1303.011230,1439.013306 1344.783203,1413.132690 1374.845215,1370.276855 
	C1405.401978,1326.715332 1422.385254,1277.937988 1428.008911,1225.120483 
	C1430.145874,1205.049805 1429.707031,1185.061523 1425.512451,1165.283569 
	C1419.459961,1136.744995 1405.998901,1112.000854 1386.431519,1090.493896 
	C1365.647705,1067.649536 1340.481567,1050.702637 1312.787476,1036.091797 
	C1314.303711,1035.594604 1315.313477,1035.192993 1316.358154,1034.930786 
	C1364.165894,1022.932434 1402.017578,997.486206 1426.073853,953.519409 
	C1441.984619,924.439819 1449.228149,892.893555 1452.112671,860.173462 
	C1454.267700,835.729797 1451.412720,811.790527 1443.451782,788.622131 
	C1430.595947,751.208923 1405.734741,722.786011 1374.863647,699.142212 
	C1341.383057,673.499817 1303.763184,655.489014 1264.725952,640.193542 
	C1254.545532,636.204651 1244.247925,632.514648 1233.807495,628.614014 
	C1248.561890,569.406189 1263.231079,510.540680 1277.998779,451.279419 
	C1241.848389,442.292511 1206.104492,433.406647 1170.011108,424.433929 
	C1155.533081,482.417023 1141.240112,539.659485 1126.911621,597.043762 
	C1097.829346,590.213196 1069.252686,583.501343 1040.368286,576.717224 
	C1054.875122,518.582825 1069.240234,461.016388 1083.729004,402.954132 
	C1071.560547,399.893890 1059.983765,396.982422 1047.592407,393.928680 
z"/>
<path fill="#FFFFFF" opacity="1.000000" stroke="none" 
	d="
M1047.999634,393.999817 
	C1059.983765,396.982422 1071.560547,399.893890 1083.729004,402.954132 
	C1069.240234,461.016388 1054.875122,518.582825 1040.368286,576.717224 
	C1069.252686,583.501343 1097.829346,590.213196 1126.911621,597.043762 
	C1141.240112,539.659485 1155.533081,482.417023 1170.011108,424.433929 
	C1206.104492,433.406647 1241.848389,442.292511 1277.998779,451.279419 
	C1263.231079,510.540680 1248.561890,569.406189 1233.807495,628.614014 
	C1244.247925,632.514648 1254.545532,636.204651 1264.725952,640.193542 
	C1303.763184,655.489014 1341.383057,673.499817 1374.863647,699.142212 
	C1405.734741,722.786011 1430.595947,751.208923 1443.451782,788.622131 
	C1451.412720,811.790527 1454.267700,835.729797 1452.112671,860.173462 
	C1449.228149,892.893555 1441.984619,924.439819 1426.073853,953.519409 
	C1402.017578,997.486206 1364.165894,1022.932434 1316.358154,1034.930786 
	C1315.313477,1035.192993 1314.303711,1035.594604 1312.787476,1036.091797 
	C1340.481567,1050.702637 1365.647705,1067.649536 1386.431519,1090.493896 
	C1405.998901,1112.000854 1419.459961,1136.744995 1425.512451,1165.283569 
	C1429.707031,1185.061523 1430.145874,1205.049805 1428.008911,1225.120483 
	C1422.385254,1277.937988 1405.401978,1326.715332 1374.845215,1370.276855 
	C1344.783203,1413.132690 1303.011230,1439.013306 1252.385864,1450.514160 
	C1235.807251,1454.280273 1218.751465,1456.590576 1201.786743,1457.841797 
	C1182.753784,1459.245605 1163.551514,1459.428711 1144.470093,1458.772095 
	C1128.180542,1458.211548 1111.909302,1456.081421 1095.717285,1453.974854 
	C1074.082764,1451.160522 1052.532837,1447.697876 1030.389282,1444.431396 
	C1015.663513,1503.422363 1000.850830,1562.761841 985.871399,1622.769043 
	C949.805847,1613.797241 914.080688,1604.910156 877.887756,1595.906738 
	C892.585815,1537.012939 907.194824,1478.476196 921.965515,1419.291382 
	C893.463074,1411.892944 865.059631,1404.520264 835.879089,1396.945923 
	C821.159912,1455.936890 806.446960,1514.902588 791.618347,1574.332153 
	C755.592163,1565.365967 719.976562,1556.502075 683.706116,1547.475098 
	C698.577026,1487.709106 713.380432,1428.214478 728.438049,1367.698120 
	C655.897156,1349.422485 583.578491,1331.202881 510.914459,1312.896240 
	C518.135315,1296.198364 525.172546,1279.885132 532.242249,1263.586060 
	C542.372009,1240.232300 552.576477,1216.910645 562.604980,1193.513550 
	C563.869080,1190.564209 565.070190,1189.454834 568.477112,1190.368530 
	C591.756165,1196.611206 615.074219,1202.711182 638.414490,1208.722168 
	C666.935364,1216.067017 687.791382,1203.981567 694.229736,1176.332764 
	C696.342468,1167.259888 698.756775,1158.257446 701.011108,1149.217285 
	C721.502747,1067.043823 741.995544,984.870728 762.475891,902.694458 
	C779.126282,835.885437 796.397339,769.220886 812.035461,702.175598 
	C817.124695,680.356628 811.896545,658.940552 786.781189,643.685608 
	C773.814575,635.809631 759.043762,632.610962 744.512329,629.025024 
	C724.829224,624.167847 705.096069,619.513489 684.920044,614.660400 
	C694.450012,576.404785 703.922852,538.378601 713.632507,499.401825 
	C786.204895,517.566711 858.521484,535.667603 931.367432,553.901001 
	C946.279358,494.143555 960.963379,435.299805 975.767212,375.975647 
	C999.935608,382.016632 1023.763977,387.972656 1047.999634,393.999817 
M1206.038208,1183.685059 
	C1204.086426,1167.238647 1197.645264,1152.601440 1187.881592,1139.386963 
	C1172.284302,1118.277100 1151.451538,1103.499878 1128.690063,1091.196167 
	C1092.721802,1071.753662 1054.124268,1059.298828 1014.760925,1049.038208 
	C1000.334839,1045.277710 985.687439,1042.373657 971.177917,1038.923462 
	C957.685181,1035.715088 944.241577,1032.299927 930.348389,1028.870239 
	C910.507507,1108.333008 890.776428,1187.356079 870.985901,1266.617188 
	C872.864563,1267.163452 874.424744,1267.682129 876.016785,1268.070557 
	C908.224609,1275.929199 940.387390,1283.981445 972.670593,1291.517944 
	C985.779907,1294.578491 999.070496,1297.208252 1012.426208,1298.779785 
	C1029.193237,1300.752808 1046.093506,1301.934814 1062.969604,1302.558350 
	C1086.221436,1303.417236 1109.301880,1301.681030 1131.801636,1295.042114 
	C1165.767090,1285.019775 1190.453491,1265.013672 1201.416626,1230.318726 
	C1206.122437,1215.425781 1208.313599,1200.221069 1206.038208,1183.685059 
M965.761719,887.212524 
	C963.042297,898.096680 960.322815,908.980835 957.663452,919.624634 
	C958.692871,920.218201 958.961060,920.458984 959.270813,920.539185 
	C993.903564,929.503906 1028.283813,939.621216 1063.807251,944.648865 
	C1079.221924,946.830505 1094.707031,948.858215 1110.230713,949.830261 
	C1126.819824,950.868958 1143.363525,948.857483 1159.654541,945.580322 
	C1180.454346,941.396240 1199.462280,933.332703 1214.344482,917.623352 
	C1227.787354,903.433228 1234.767822,886.310974 1238.296753,867.065430 
	C1242.903442,841.942078 1238.734375,819.146729 1224.323486,798.226074 
	C1211.643188,779.817627 1194.152100,766.912842 1174.925415,756.179504 
	C1144.463257,739.174072 1111.536133,728.668274 1077.946167,720.057678 
	C1063.010254,716.228882 1047.944824,712.902649 1032.922119,709.416809 
	C1025.871216,707.780762 1018.782898,706.306580 1011.204102,704.648010 
	C996.060974,765.449219 980.998230,825.927612 965.761719,887.212524 
z"/>
<path fill="#F7931A" opacity="1.000000" stroke="none" 
	d="
M1206.037842,1184.139648 
	C1208.313599,1200.221069 1206.122437,1215.425781 1201.416626,1230.318726 
	C1190.453491,1265.013672 1165.767090,1285.019775 1131.801636,1295.042114 
	C1109.301880,1301.681030 1086.221436,1303.417236 1062.969604,1302.558350 
	C1046.093506,1301.934814 1029.193237,1300.752808 1012.426208,1298.779785 
	C999.070496,1297.208252 985.779907,1294.578491 972.670593,1291.517944 
	C940.387390,1283.981445 908.224609,1275.929199 876.016785,1268.070557 
	C874.424744,1267.682129 872.864563,1267.163452 870.985901,1266.617188 
	C890.776428,1187.356079 910.507507,1108.333008 930.348389,1028.870239 
	C944.241577,1032.299927 957.685181,1035.715088 971.177917,1038.923462 
	C985.687439,1042.373657 1000.334839,1045.277710 1014.760925,1049.038208 
	C1054.124268,1059.298828 1092.721802,1071.753662 1128.690063,1091.196167 
	C1151.451538,1103.499878 1172.284302,1118.277100 1187.881592,1139.386963 
	C1197.645264,1152.601440 1204.086426,1167.238647 1206.037842,1184.139648 
z"/>
<path fill="#F7931A" opacity="1.000000" stroke="none" 
	d="
M965.848572,886.809265 
	C980.998230,825.927612 996.060974,765.449219 1011.204102,704.648010 
	C1018.782898,706.306580 1025.871216,707.780762 1032.922119,709.416809 
	C1047.944824,712.902649 1063.010254,716.228882 1077.946167,720.057678 
	C1111.536133,728.668274 1144.463257,739.174072 1174.925415,756.179504 
	C1194.152100,766.912842 1211.643188,779.817627 1224.323486,798.226074 
	C1238.734375,819.146729 1242.903442,841.942078 1238.296753,867.065430 
	C1234.767822,886.310974 1227.787354,903.433228 1214.344482,917.623352 
	C1199.462280,933.332703 1180.454346,941.396240 1159.654541,945.580322 
	C1143.363525,948.857483 1126.819824,950.868958 1110.230713,949.830261 
	C1094.707031,948.858215 1079.221924,946.830505 1063.807251,944.648865 
	C1028.283813,939.621216 993.903564,929.503906 959.270813,920.539185 
	C958.961060,920.458984 958.692871,920.218201 957.663452,919.624634 
	C960.322815,908.980835 963.042297,898.096680 965.848572,886.809265 
z"/>
</svg>