<svg version="1.1" id="Layer_1" xmlns="http://www.w3.org/2000/svg" xmlns:xlink="http://www.w3.org/1999/xlink" x="0px" y="0px"
	 width="100%" viewBox="0 0 3258 3258" enable-background="new 0 0 3258 3258" xml:space="preserve">
<path fill="#8C8C8C" opacity="1.000000" stroke="none" 
	d="
M1633.333374,1.999999 
	C1634.178467,4.254088 1634.356934,6.508179 1634.045166,9.968931 
	C1633.062378,17.799677 1632.139404,24.423687 1632.138306,31.047857 
	C1632.069458,418.657318 1632.077759,806.266785 1632.067383,1193.876221 
	C1632.067261,1198.540283 1631.924438,1203.204346 1631.898926,1207.863281 
	C1631.949463,1207.858032 1631.830444,1207.818604 1631.110107,1207.914795 
	C1585.521240,1228.349243 1540.644653,1248.669678 1495.786865,1269.031372 
	C1465.171509,1282.928101 1434.589478,1296.898193 1403.979980,1310.807861 
	C1353.976685,1333.530640 1303.957886,1356.219727 1253.955566,1378.945068 
	C1223.043457,1392.994263 1192.161255,1407.109253 1161.245117,1421.149780 
	C1112.750488,1443.173340 1064.228271,1465.136597 1015.737488,1487.169067 
	C983.609070,1501.767090 951.530823,1516.475586 919.402466,1531.073853 
	C870.910217,1553.107544 822.396912,1575.094604 773.886475,1597.088257 
	C740.232849,1612.346069 706.533752,1627.504150 672.927002,1642.864258 
	C659.313904,1649.086182 645.892334,1655.727051 632.383606,1662.177246 
	C632.246765,1661.209839 632.109924,1660.242432 632.575562,1658.373291 
	C633.301392,1656.848511 633.424683,1656.225342 633.547974,1655.602295 
	C648.745972,1631.239990 664.178467,1607.020020 679.092468,1582.485107 
	C708.806030,1533.603882 738.240234,1484.552856 767.778992,1435.565430 
	C783.062927,1410.218384 798.340210,1384.867065 813.591492,1359.500366 
	C845.900024,1305.763184 878.140991,1251.985352 910.501953,1198.279785 
	C937.968201,1152.697266 965.623657,1107.228760 993.086792,1061.644531 
	C1026.303101,1006.510681 1059.356934,951.278870 1092.571533,896.143982 
	C1120.548462,849.703308 1148.702759,803.369446 1176.691406,756.935791 
	C1209.232544,702.949890 1241.643311,648.885437 1274.177002,594.895203 
	C1302.331055,548.173218 1330.620361,501.532776 1358.772827,454.809937 
	C1391.296997,400.831848 1423.699341,346.780396 1456.224854,292.803131 
	C1484.378906,246.080719 1512.636841,199.421021 1540.838135,152.727142 
	C1568.957520,106.169144 1597.071289,59.607822 1625.158447,13.030389 
	C1627.044434,9.903022 1628.685669,6.627976 1630.220459,2.710804 
	C1630.888916,2.000000 1631.777832,2.000000 1633.333374,1.999999 
z"/>
<path fill="#8C8C8C" opacity="1.000000" stroke="none" 
	d="
M1633.252197,3254.653076 
	C1632.899658,3255.981689 1632.547119,3257.310059 1632.097290,3259.319336 
	C1632.000000,3260.000000 1631.000000,3260.000000 1630.500000,3260.000000 
	C1628.884888,3257.694336 1628.092041,3255.152832 1626.603149,3253.120850 
	C1615.442139,3237.891113 1603.882080,3222.947510 1592.960938,3207.549805 
	C1581.649170,3191.601074 1571.067383,3175.136475 1559.891357,3159.088867 
	C1544.585938,3137.111328 1529.050781,3115.293213 1513.558594,3093.446045 
	C1499.216797,3073.221680 1484.776367,3053.067139 1470.426514,3032.848389 
	C1455.307861,3011.545898 1440.268799,2990.187256 1425.151123,2968.884277 
	C1410.995483,2948.937012 1396.790039,2929.024902 1382.592163,2909.107666 
	C1366.468872,2886.489502 1350.281372,2863.917236 1334.210083,2841.262207 
	C1315.067993,2814.278320 1296.091064,2787.177002 1276.915161,2760.217041 
	C1244.927246,2715.244385 1212.759766,2670.398926 1180.815552,2625.395264 
	C1154.062134,2587.704102 1127.537720,2549.850342 1100.877563,2512.093018 
	C1080.364258,2483.041748 1059.817993,2454.013916 1039.247925,2425.002930 
	C1024.910522,2404.782471 1010.486572,2384.623291 996.140564,2364.409180 
	C981.216797,2343.380859 966.363708,2322.302734 951.437073,2301.276611 
	C937.087219,2281.063232 922.656799,2260.907227 908.309204,2240.692383 
	C893.190063,2219.390137 878.150818,2198.031250 863.032349,2176.728516 
	C849.068909,2157.053223 835.018677,2137.439209 821.058655,2117.761719 
	C805.754028,2096.188721 790.546814,2074.546387 775.229431,2052.982422 
	C739.702576,2002.967896 704.102600,1953.005249 668.603455,1902.970947 
	C657.647034,1887.528442 646.920105,1871.923096 636.070557,1855.632202 
	C636.053040,1854.872070 636.068787,1855.047363 636.375732,1854.386719 
	C640.260254,1855.442383 643.985840,1856.907715 647.391846,1858.915161 
	C672.610718,1873.778442 697.742798,1888.788696 722.945496,1903.679321 
	C793.067993,1945.110107 863.189941,1986.541870 933.353699,2027.902588 
	C989.184570,2060.814697 1045.122192,2093.545654 1100.926636,2126.502197 
	C1142.438721,2151.017822 1183.766968,2175.844971 1225.259888,2200.393311 
	C1310.292969,2250.701416 1395.375854,2300.925049 1480.449463,2351.164307 
	C1530.837280,2380.919678 1581.246582,2410.638916 1631.763184,2441.278564 
	C1631.946411,2446.511963 1632.070679,2450.841309 1632.070801,2455.170410 
	C1632.079956,2717.063721 1632.073242,2978.956787 1632.128052,3240.850098 
	C1632.129028,3245.451172 1632.861084,3250.052002 1633.252197,3254.653076 
z"/>
<path fill="#141414" opacity="1.000000" stroke="none" 
	d="
M2630.182129,1657.922852 
	C2630.182129,1657.922852 2631.022705,1657.958130 2631.443115,1657.971680 
	C2631.991211,1658.894287 2632.118896,1659.803589 2631.429688,1661.673096 
	C2599.849854,1680.768921 2569.019287,1698.790283 2538.348633,1717.079956 
	C2517.887207,1729.281738 2497.775879,1742.071899 2477.286865,1754.226074 
	C2452.792725,1768.756104 2428.008301,1782.796021 2403.449707,1797.218872 
	C2377.976074,1812.179321 2352.663330,1827.414429 2327.202881,1842.397217 
	C2306.316406,1854.688354 2285.236084,1866.651489 2264.387451,1879.005981 
	C2241.832764,1892.371338 2219.525146,1906.153809 2196.964844,1919.510132 
	C2175.374756,1932.291870 2153.502441,1944.598022 2131.932373,1957.412964 
	C2111.449951,1969.581543 2091.311523,1982.328979 2070.816162,1994.475464 
	C2046.602417,2008.825562 2022.125122,2022.730957 1997.845825,2036.971802 
	C1984.103027,2045.032715 1970.580444,2053.468018 1956.866333,2061.578613 
	C1934.582886,2074.757080 1912.191284,2087.753174 1889.905762,2100.928467 
	C1868.475464,2113.598145 1847.176147,2126.489502 1825.719604,2139.114258 
	C1803.764038,2152.032471 1781.626831,2164.641846 1759.682373,2177.578857 
	C1740.871582,2188.668701 1722.262939,2200.100830 1703.482910,2211.243408 
	C1692.949707,2217.493164 1682.260864,2223.481201 1671.623047,2229.553711 
	C1658.453735,2237.071533 1645.264771,2244.554932 1632.082397,2251.110840 
	C1632.075806,1907.379639 1632.072021,1564.590698 1632.056519,1221.801880 
	C1632.056274,1217.140747 1631.909058,1212.479736 1631.830444,1207.818604 
	C1631.830444,1207.818604 1631.949463,1207.858032 1632.646729,1207.986694 
	C1653.398438,1216.989624 1673.498779,1225.762085 1693.493408,1234.768677 
	C1711.078491,1242.689819 1728.514404,1250.941528 1746.071411,1258.925537 
	C1781.175049,1274.888306 1816.325439,1290.747925 1851.438232,1306.690308 
	C1867.787598,1314.113403 1884.073853,1321.675659 1900.424927,1329.094849 
	C1927.669312,1341.456421 1954.957153,1353.722534 1982.198975,1366.090088 
	C1998.851685,1373.650024 2015.430420,1381.372925 2032.081787,1388.936035 
	C2067.192627,1404.883423 2102.337891,1420.754272 2137.450684,1436.696655 
	C2153.800293,1444.119751 2170.087158,1451.680420 2186.437988,1459.100342 
	C2213.378174,1471.326050 2240.361084,1483.457397 2267.299072,1495.688110 
	C2284.255127,1503.386597 2301.139648,1511.241699 2318.094482,1518.942627 
	C2353.205322,1534.889404 2388.350830,1550.760742 2423.463623,1566.703003 
	C2439.812988,1574.126343 2456.099121,1581.688721 2472.450928,1589.107056 
	C2506.659424,1604.625977 2540.903076,1620.068115 2575.110596,1635.589233 
	C2591.765137,1643.145874 2608.346680,1650.864868 2625.046143,1658.320557 
	C2626.424072,1658.935791 2628.454834,1658.089844 2630.182129,1657.922852 
z"/>
<path fill="#393939" opacity="1.000000" stroke="none" 
	d="
M1632.082520,2251.110840 
	C1625.030762,2248.455322 1617.756592,2245.229736 1610.958984,2241.200439 
	C1563.501221,2213.070557 1516.219849,2184.643066 1468.727661,2156.571777 
	C1428.383179,2132.725098 1387.750122,2109.366699 1347.395142,2085.537842 
	C1306.473022,2061.374023 1265.772095,2036.836304 1224.907837,2012.573975 
	C1170.891724,1980.502808 1116.825562,1948.516235 1062.753540,1916.539307 
	C1025.276489,1894.376221 987.745056,1872.304932 950.252930,1850.167236 
	C906.472656,1824.316528 862.697571,1798.457153 818.940674,1772.567017 
	C764.875732,1740.578003 710.854797,1708.514648 656.752136,1676.589600 
	C649.342957,1672.217651 641.572205,1668.458374 633.300171,1664.291992 
	C632.489380,1663.849243 632.347290,1663.529907 632.294434,1662.693848 
	C645.892334,1655.727051 659.313904,1649.086182 672.927002,1642.864258 
	C706.533752,1627.504150 740.232849,1612.346069 773.886475,1597.088257 
	C822.396912,1575.094604 870.910217,1553.107544 919.402466,1531.073853 
	C951.530823,1516.475586 983.609070,1501.767090 1015.737488,1487.169067 
	C1064.228271,1465.136597 1112.750488,1443.173340 1161.245117,1421.149780 
	C1192.161255,1407.109253 1223.043457,1392.994263 1253.955566,1378.945068 
	C1303.957886,1356.219727 1353.976685,1333.530640 1403.979980,1310.807861 
	C1434.589478,1296.898193 1465.171509,1282.928101 1495.786865,1269.031372 
	C1540.644653,1248.669678 1585.521240,1228.349243 1631.110107,1207.914795 
	C1631.909058,1212.479736 1632.056274,1217.140747 1632.056519,1221.801880 
	C1632.072021,1564.590698 1632.075806,1907.379639 1632.082520,2251.110840 
z"/>
<path fill="#404040" opacity="1.000000" stroke="none" 
	d="
M633.278931,1655.544922 
	C633.424683,1656.225342 633.301392,1656.848511 632.708130,1657.650391 
	C632.200867,1657.480347 632.163635,1657.131470 632.354370,1656.308228 
	C632.582336,1655.833862 633.009949,1655.487671 633.278931,1655.544922 
z"/>
<path fill="#8C8C8C" opacity="1.000000" stroke="none" 
	d="
M633.683899,1853.848145 
	C634.122681,1853.927612 634.617676,1853.950317 634.417480,1853.815796 
	C633.722290,1853.658691 633.740051,1853.791138 633.683899,1853.848145 
z"/>
<path fill="#343434" opacity="1.000000" stroke="none" 
	d="
M2629.849121,1657.312256 
	C2628.454834,1658.089844 2626.424072,1658.935791 2625.046143,1658.320557 
	C2608.346680,1650.864868 2591.765137,1643.145874 2575.110596,1635.589233 
	C2540.903076,1620.068115 2506.659424,1604.625977 2472.450928,1589.107056 
	C2456.099121,1581.688721 2439.812988,1574.126343 2423.463623,1566.703003 
	C2388.350830,1550.760742 2353.205322,1534.889404 2318.094482,1518.942627 
	C2301.139648,1511.241699 2284.255127,1503.386597 2267.299072,1495.688110 
	C2240.361084,1483.457397 2213.378174,1471.326050 2186.437988,1459.100342 
	C2170.087158,1451.680420 2153.800293,1444.119751 2137.450684,1436.696655 
	C2102.337891,1420.754272 2067.192627,1404.883423 2032.081787,1388.936035 
	C2015.430420,1381.372925 1998.851685,1373.650024 1982.198975,1366.090088 
	C1954.957153,1353.722534 1927.669312,1341.456421 1900.424927,1329.094849 
	C1884.073853,1321.675659 1867.787598,1314.113403 1851.438232,1306.690308 
	C1816.325439,1290.747925 1781.175049,1274.888306 1746.071411,1258.925537 
	C1728.514404,1250.941528 1711.078491,1242.689819 1693.493408,1234.768677 
	C1673.498779,1225.762085 1653.398438,1216.989624 1632.596191,1207.991943 
	C1631.924438,1203.204346 1632.067261,1198.540283 1632.067383,1193.876221 
	C1632.077759,806.266785 1632.069458,418.657318 1632.138306,31.047857 
	C1632.139404,24.423687 1633.062378,17.799677 1634.046143,10.661758 
	C1636.320190,11.383995 1638.760254,12.221021 1639.789062,13.915142 
	C1659.634521,46.592815 1679.276123,79.394135 1699.038696,112.122314 
	C1723.611938,152.817886 1748.327515,193.427689 1772.850220,234.153748 
	C1795.659058,272.033539 1818.229736,310.056763 1841.026611,347.943817 
	C1863.480103,385.260132 1886.114258,422.467804 1908.617432,459.754272 
	C1930.604614,496.185944 1952.502686,532.671326 1974.483276,569.106995 
	C1999.211914,610.097778 2024.035156,651.031372 2048.729004,692.043030 
	C2067.593262,723.372864 2086.257568,754.823059 2105.123291,786.151733 
	C2129.647461,826.876465 2154.305908,867.520386 2178.865234,908.223877 
	C2202.737549,947.788757 2226.528076,987.403076 2250.410156,1026.962280 
	C2273.261963,1064.814819 2296.242432,1102.589844 2319.059326,1140.463379 
	C2337.587891,1171.219116 2355.919922,1202.093628 2374.408447,1232.873657 
	C2396.834473,1270.208374 2419.337158,1307.496948 2441.798828,1344.810181 
	C2458.773682,1373.008179 2475.713623,1401.227051 2492.708740,1429.412598 
	C2513.136475,1463.290039 2533.649170,1497.116577 2554.047119,1531.011963 
	C2579.245117,1572.883301 2604.363281,1614.802856 2629.849121,1657.312256 
z"/>
<path fill="#3C3C3B" opacity="1.000000" stroke="none" 
	d="
M1631.763184,2441.278564 
	C1644.642822,2433.028076 1657.739990,2425.853516 1670.616333,2418.302490 
	C1706.742798,2397.117188 1742.801270,2375.815918 1778.843140,2354.487061 
	C1816.599976,2332.143066 1854.272217,2309.656250 1892.045532,2287.340332 
	C1924.097412,2268.404297 1956.264038,2249.662598 1988.336426,2230.761230 
	C2025.562622,2208.822510 2062.734375,2186.791260 2099.942627,2164.822754 
	C2132.856445,2145.389648 2165.802734,2126.011475 2198.707520,2106.563232 
	C2221.597412,2093.034424 2244.414307,2079.382812 2267.312012,2065.867432 
	C2299.657227,2046.775513 2332.071289,2027.800537 2364.410156,2008.697754 
	C2390.737061,1993.146362 2416.963867,1977.425415 2443.294678,1961.880249 
	C2472.203125,1944.813354 2501.206055,1927.906006 2530.119385,1910.846802 
	C2556.454346,1895.309204 2582.675781,1879.578613 2609.057129,1864.120361 
	C2615.581055,1860.297729 2622.531250,1857.202759 2630.122803,1853.863525 
	C2599.079346,1898.993042 2567.208984,1944.039795 2535.314209,1989.069336 
	C2498.037842,2041.696655 2460.774902,2094.333496 2423.441406,2146.920410 
	C2384.184326,2202.216797 2344.840576,2257.452148 2305.552734,2312.727051 
	C2269.538574,2363.396484 2233.521484,2414.063477 2197.556152,2464.767334 
	C2163.513916,2512.760010 2129.575439,2560.826172 2095.521973,2608.810791 
	C2056.080811,2664.387207 2016.540527,2719.893799 1977.085815,2775.460938 
	C1936.477661,2832.652832 1895.933350,2889.889893 1855.337280,2947.090576 
	C1822.820679,2992.906982 1790.293945,3038.715820 1757.725830,3084.495361 
	C1718.606201,3139.483887 1679.452881,3194.448730 1640.231934,3249.364990 
	C1638.776978,3251.402100 1636.455566,3252.820312 1633.895020,3254.589844 
	C1632.861084,3250.052002 1632.129028,3245.451172 1632.128052,3240.850098 
	C1632.073242,2978.956787 1632.079956,2717.063721 1632.070801,2455.170410 
	C1632.070679,2450.841309 1631.946411,2446.511963 1631.763184,2441.278564 
z"/>
</svg>