<svg version="1.1" id="Layer_1" xmlns="http://www.w3.org/2000/svg" xmlns:xlink="http://www.w3.org/1999/xlink" x="0px" y="0px"
	 width="100%" viewBox="0 0 2000 2000" enable-background="new 0 0 2000 2000" xml:space="preserve">
<path fill="#345D9D" opacity="1.000000" stroke="none" 
	d="
M1064.000000,2001.000000 
	C1022.312439,2001.000000 980.624878,2001.000000 938.538818,2000.572388 
	C932.351379,1999.431396 926.575745,1998.574219 920.770569,1998.034912 
	C908.785645,1996.921265 896.738892,1996.349487 884.802185,1994.871460 
	C869.159668,1992.934326 853.527222,1990.733521 838.020325,1987.928101 
	C816.401978,1984.016968 794.828186,1979.786255 773.370789,1975.075073 
	C734.202271,1966.475098 695.763733,1955.162109 658.336670,1940.812988 
	C629.981628,1929.941772 601.813416,1918.433594 574.216187,1905.782104 
	C551.170349,1895.216919 528.607300,1883.384277 506.678528,1870.652344 
	C481.506927,1856.037598 457.060944,1840.133179 432.679565,1824.207397 
	C402.617340,1804.571167 374.611023,1782.138550 347.421753,1758.747314 
	C331.256531,1744.839966 315.508942,1730.402954 300.201813,1715.556396 
	C287.837341,1703.563843 276.125000,1690.859375 264.642639,1678.006714 
	C249.807220,1661.401001 234.848862,1644.835938 221.108765,1627.338257 
	C203.751541,1605.234131 186.544708,1582.880005 171.141220,1559.407715 
	C152.376984,1530.814087 134.437103,1501.548340 118.217644,1471.453979 
	C102.855026,1442.949585 88.985153,1413.488770 76.652489,1383.545166 
	C64.116753,1353.108521 53.458168,1321.823120 43.484909,1290.430542 
	C35.506794,1265.318115 28.635349,1239.723022 23.365374,1213.914917 
	C17.066668,1183.068726 12.593288,1151.825317 8.116858,1120.640991 
	C5.592078,1103.052490 4.684253,1085.233154 2.926177,1067.530029 
	C2.804194,1066.301636 1.665766,1065.174316 1.000009,1064.000000 
	C1.000000,1021.979126 1.000000,979.958191 1.427923,937.528564 
	C2.235091,936.108459 2.860678,935.119934 2.956531,934.082397 
	C4.336308,919.147827 5.277061,904.162537 7.062494,889.278137 
	C9.350785,870.201599 11.718054,851.099304 15.117260,832.199890 
	C19.614574,807.194885 24.088408,782.099731 30.503389,757.547791 
	C38.128399,728.364929 46.920280,699.410156 56.842136,670.926208 
	C66.442741,643.364502 77.213043,616.119690 89.145210,589.486450 
	C100.719704,563.651611 113.492805,538.243347 127.445549,513.614258 
	C142.586716,486.887360 159.383469,461.074066 176.029633,435.230377 
	C195.745285,404.621155 218.582703,376.289886 242.123062,348.593689 
	C256.476593,331.706177 271.705353,315.524292 287.140564,299.606934 
	C299.019562,287.356903 311.568115,275.716583 324.297668,264.340851 
	C340.779144,249.612228 357.286591,234.847855 374.604584,221.136765 
	C395.589081,204.522812 416.842255,188.113113 439.058533,173.225739 
	C464.450256,156.210449 490.535278,140.079895 517.236206,125.212097 
	C541.968628,111.440422 567.650452,99.275528 593.386597,87.429489 
	C626.074341,72.383728 659.555542,59.153191 694.119995,48.981586 
	C721.322693,40.976395 748.534363,32.867577 776.076782,26.184155 
	C810.702087,17.782001 845.793640,11.499370 881.308350,7.981948 
	C899.022156,6.227548 916.757019,4.685665 934.470276,2.925882 
	C935.698486,2.803864 936.825806,1.665653 938.000000,1.000000 
	C980.687561,1.000000 1023.375183,1.000000 1066.461304,1.427584 
	C1067.706177,2.231187 1068.528931,2.865596 1069.402222,2.944815 
	C1084.677612,4.330546 1099.992188,5.352232 1115.230835,7.057504 
	C1133.364502,9.086769 1151.536743,11.095740 1169.505005,14.197500 
	C1191.306152,17.960901 1213.060303,22.237494 1234.569946,27.396114 
	C1275.134033,37.124493 1315.017334,49.205627 1354.109375,63.881126 
	C1385.882080,75.808838 1416.934082,89.370941 1447.366821,104.326447 
	C1462.734619,111.878654 1477.867798,119.966530 1492.738647,128.457443 
	C1510.556274,138.630890 1528.307617,148.989349 1545.507080,160.161621 
	C1581.145996,183.311554 1615.629517,208.092896 1647.645752,236.141418 
	C1662.187134,248.880875 1677.078491,261.270599 1690.980835,274.679749 
	C1721.171997,303.799561 1750.415771,333.855682 1776.398315,366.899689 
	C1787.592407,381.136017 1799.333862,394.985840 1809.801514,409.738647 
	C1824.049561,429.819153 1837.729126,450.335236 1850.877930,471.153717 
	C1862.104004,488.927673 1872.671753,507.155304 1882.725220,525.620850 
	C1891.863037,542.404541 1900.106689,559.687378 1908.382202,576.924133 
	C1914.213257,589.069397 1919.833252,601.346863 1924.857544,613.842651 
	C1938.458008,647.669250 1951.359497,681.775818 1961.002563,716.979004 
	C1967.670898,741.322388 1974.708496,765.640869 1979.681030,790.352844 
	C1985.538574,819.462891 1989.746460,848.929138 1993.888550,878.350952 
	C1996.366455,895.950806 1997.315796,913.764526 1999.074097,931.470032 
	C1999.196045,932.698303 2000.334351,933.825684 2001.000000,935.000000 
	C2001.000000,977.687561 2001.000000,1020.375183 2000.572754,1063.453369 
	C1999.769409,1064.690308 1999.131226,1065.514282 1999.057617,1066.385864 
	C1998.322510,1075.102783 1997.788574,1083.837524 1996.986816,1092.547729 
	C1995.734131,1106.156250 1994.866943,1119.832031 1992.844360,1133.330688 
	C1989.686035,1154.408691 1985.853760,1175.390747 1982.027832,1196.362549 
	C1974.596802,1237.097778 1963.753174,1276.996338 1950.643066,1316.210083 
	C1942.538574,1340.451782 1932.827881,1364.168945 1923.455811,1387.970947 
	C1911.318359,1418.796509 1896.426758,1448.347656 1880.777222,1477.506714 
	C1864.212646,1508.370850 1846.203003,1538.375977 1825.973755,1566.999268 
	C1814.601196,1583.090942 1803.680420,1599.570557 1791.329468,1614.886108 
	C1772.794922,1637.869385 1753.544800,1660.306519 1733.891235,1682.344971 
	C1722.220947,1695.431396 1709.444092,1707.571655 1696.710083,1719.658447 
	C1681.697632,1733.908203 1666.371948,1747.842529 1650.844727,1761.530762 
	C1639.096802,1771.887451 1627.295288,1782.293823 1614.676025,1791.527832 
	C1590.424316,1809.274048 1566.040161,1826.920654 1540.836548,1843.260254 
	C1518.403931,1857.803711 1495.138428,1871.171021 1471.594849,1883.859497 
	C1450.150391,1895.416870 1428.042969,1905.815308 1405.845459,1915.881714 
	C1387.466919,1924.216309 1368.766357,1931.976562 1349.781738,1938.804688 
	C1326.175903,1947.295166 1302.289917,1955.103760 1278.228394,1962.201660 
	C1256.863037,1968.504150 1235.293091,1974.459961 1213.452759,1978.721313 
	C1182.704712,1984.720459 1151.682129,1989.419922 1120.662476,1993.879028 
	C1103.069336,1996.408203 1085.244507,1997.314697 1067.536255,1999.074097 
	C1066.305786,1999.196167 1065.176392,2000.334473 1064.000000,2001.000000 
M1074.084717,853.611511 
	C1085.540039,814.677063 1096.998291,775.743469 1108.450317,736.807983 
	C1146.323242,608.043274 1184.298828,479.308258 1221.788940,350.432129 
	C1223.903320,343.163269 1223.506348,334.360931 1221.654541,326.925659 
	C1218.728394,315.176331 1207.563232,308.579010 1194.338867,308.574158 
	C1122.506714,308.547729 1050.674683,308.536072 978.842529,308.578735 
	C961.175476,308.589233 947.994934,318.412262 942.900330,335.340485 
	C937.468079,353.390564 932.219116,371.495850 926.894775,389.578369 
	C897.433350,489.636200 867.965637,589.692200 838.515137,689.753296 
	C814.293213,772.050049 790.094910,854.353760 765.880554,936.652771 
	C758.447083,961.917480 750.883850,987.145142 743.661682,1012.470032 
	C742.458008,1016.690857 740.394592,1018.612793 736.278381,1019.846008 
	C686.433960,1034.780518 636.654663,1049.932495 586.820435,1064.901245 
	C583.468201,1065.908081 581.686584,1067.392700 580.569458,1070.875488 
	C569.813538,1104.409668 558.825867,1137.869385 547.914673,1171.353760 
	C547.327576,1173.155396 546.831604,1174.986572 546.029785,1177.693115 
	C599.449341,1161.517090 652.001038,1145.603882 705.573669,1129.381470 
	C657.804993,1292.105225 610.351807,1453.753906 562.787292,1615.782104 
	C564.681702,1615.868286 566.129578,1615.991943 567.577515,1615.991943 
	C850.406067,1616.000366 1133.234619,1616.005981 1416.063232,1615.984985 
	C1432.500000,1615.983765 1445.999146,1606.029785 1451.007446,1590.393188 
	C1452.466919,1585.836792 1453.709106,1581.210571 1455.043945,1576.614258 
	C1466.955200,1535.598633 1479.070923,1494.640625 1490.658936,1453.533813 
	C1494.495728,1439.923340 1500.930786,1426.663452 1498.913086,1411.912109 
	C1498.321899,1407.589600 1497.505737,1402.915771 1495.339844,1399.265015 
	C1489.677979,1389.721436 1480.663818,1385.953003 1469.634888,1385.956665 
	C1286.637939,1386.017212 1103.641113,1385.999756 920.644165,1385.999756 
	C918.533447,1385.999756 916.422729,1385.999756 913.813477,1385.999756 
	C915.334167,1380.867432 916.686829,1376.299683 918.040833,1371.732300 
	C935.075806,1314.268555 952.099670,1256.801392 969.149475,1199.342163 
	C984.979553,1145.993652 1000.873047,1092.664062 1016.597534,1039.284546 
	C1017.576355,1035.961914 1019.130066,1034.527222 1022.425720,1033.599243 
	C1073.494995,1019.220886 1124.506470,1004.637451 1175.584473,990.290527 
	C1179.164429,989.284973 1180.666138,987.584717 1181.647461,984.184143 
	C1191.930420,948.548279 1202.371582,912.958008 1212.746460,877.348633 
	C1213.131592,876.026794 1213.288208,874.638550 1213.633057,872.859924 
	C1160.526489,888.927246 1107.986450,904.823120 1054.267578,921.075684 
	C1061.143677,897.751770 1067.533447,876.077820 1074.084717,853.611511 
z"/>
<path fill="#FFFFFF" opacity="1.000000" stroke="none" 
	d="
M1074.003906,854.007690 
	C1067.533447,876.077820 1061.143677,897.751770 1054.267578,921.075684 
	C1107.986450,904.823120 1160.526489,888.927246 1213.633057,872.859924 
	C1213.288208,874.638550 1213.131592,876.026794 1212.746460,877.348633 
	C1202.371582,912.958008 1191.930420,948.548279 1181.647461,984.184143 
	C1180.666138,987.584717 1179.164429,989.284973 1175.584473,990.290527 
	C1124.506470,1004.637451 1073.494995,1019.220886 1022.425720,1033.599243 
	C1019.130066,1034.527222 1017.576355,1035.961914 1016.597534,1039.284546 
	C1000.873047,1092.664062 984.979553,1145.993652 969.149475,1199.342163 
	C952.099670,1256.801392 935.075806,1314.268555 918.040833,1371.732300 
	C916.686829,1376.299683 915.334167,1380.867432 913.813477,1385.999756 
	C916.422729,1385.999756 918.533447,1385.999756 920.644165,1385.999756 
	C1103.641113,1385.999756 1286.637939,1386.017212 1469.634888,1385.956665 
	C1480.663818,1385.953003 1489.677979,1389.721436 1495.339844,1399.265015 
	C1497.505737,1402.915771 1498.321899,1407.589600 1498.913086,1411.912109 
	C1500.930786,1426.663452 1494.495728,1439.923340 1490.658936,1453.533813 
	C1479.070923,1494.640625 1466.955200,1535.598633 1455.043945,1576.614258 
	C1453.709106,1581.210571 1452.466919,1585.836792 1451.007446,1590.393188 
	C1445.999146,1606.029785 1432.500000,1615.983765 1416.063232,1615.984985 
	C1133.234619,1616.005981 850.406067,1616.000366 567.577515,1615.991943 
	C566.129578,1615.991943 564.681702,1615.868286 562.787292,1615.782104 
	C610.351807,1453.753906 657.804993,1292.105225 705.573669,1129.381470 
	C652.001038,1145.603882 599.449341,1161.517090 546.029785,1177.693115 
	C546.831604,1174.986572 547.327576,1173.155396 547.914673,1171.353760 
	C558.825867,1137.869385 569.813538,1104.409668 580.569458,1070.875488 
	C581.686584,1067.392700 583.468201,1065.908081 586.820435,1064.901245 
	C636.654663,1049.932495 686.433960,1034.780518 736.278381,1019.846008 
	C740.394592,1018.612793 742.458008,1016.690857 743.661682,1012.470032 
	C750.883850,987.145142 758.447083,961.917480 765.880554,936.652771 
	C790.094910,854.353760 814.293213,772.050049 838.515137,689.753296 
	C867.965637,589.692200 897.433350,489.636200 926.894775,389.578369 
	C932.219116,371.495850 937.468079,353.390564 942.900330,335.340485 
	C947.994934,318.412262 961.175476,308.589233 978.842529,308.578735 
	C1050.674683,308.536072 1122.506714,308.547729 1194.338867,308.574158 
	C1207.563232,308.579010 1218.728394,315.176331 1221.654541,326.925659 
	C1223.506348,334.360931 1223.903320,343.163269 1221.788940,350.432129 
	C1184.298828,479.308258 1146.323242,608.043274 1108.450317,736.807983 
	C1096.998291,775.743469 1085.540039,814.677063 1074.003906,854.007690 
z"/>
</svg>