<svg version="1.1" id="Layer_1" xmlns="http://www.w3.org/2000/svg" xmlns:xlink="http://www.w3.org/1999/xlink" x="0px" y="0px"
	 width="100%" viewBox="0 0 2400 2400" enable-background="new 0 0 2400 2400" xml:space="preserve">
<path fill="#C2A633" opacity="1.000000" stroke="none" 
	d="
M1118.000000,2.000000 
	C1174.041748,2.000000 1230.083618,2.000000 1286.457642,2.708033 
	C1288.916016,4.160284 1290.993530,5.338304 1293.175659,5.583430 
	C1324.160400,9.063973 1355.272583,11.615349 1386.130737,15.972534 
	C1447.451904,24.631130 1507.539185,39.045856 1566.562256,57.748829 
	C1637.132446,80.110817 1705.027100,108.843575 1770.283447,143.852371 
	C1811.406250,165.913956 1851.081543,190.308472 1889.366211,216.943314 
	C1935.837891,249.274002 1979.844482,284.660065 2021.116943,323.480682 
	C2054.127197,354.530060 2085.855713,386.802734 2115.348145,421.179016 
	C2150.914551,462.634491 2183.415771,506.439392 2213.065430,552.342407 
	C2246.715088,604.437866 2276.238281,658.808044 2301.361328,715.464966 
	C2326.732666,772.682068 2347.652100,831.560669 2363.594238,892.143127 
	C2378.751953,949.744263 2390.106201,1008.059509 2396.316650,1067.332520 
	C2397.077393,1074.595215 2397.644287,1081.879028 2398.482422,1089.132080 
	C2398.684326,1090.879272 2398.409912,1094.043457 2402.000000,1092.000000 
	C2402.000000,1151.375122 2402.000000,1210.750244 2401.625488,1271.328125 
	C2401.118652,1272.808228 2400.901367,1273.078735 2400.877930,1273.364990 
	C2400.854248,1273.650391 2400.943359,1274.101440 2401.133301,1274.204834 
	C2401.327148,1274.310547 2401.703613,1274.082153 2402.000000,1274.000000 
	C2402.000000,1286.042358 2402.000000,1298.084595 2401.305908,1310.454590 
	C2399.868652,1312.568848 2398.695068,1314.297485 2398.445801,1316.150513 
	C2394.159180,1348.045288 2390.702148,1380.069824 2385.626465,1411.836304 
	C2377.329834,1463.761353 2364.321777,1514.644897 2348.504150,1564.766479 
	C2324.706299,1640.174927 2293.574219,1712.478882 2255.398438,1781.739746 
	C2206.318848,1870.782715 2146.862305,1952.323853 2077.036865,2026.154297 
	C2048.916992,2055.886963 2019.546509,2084.441406 1988.425171,2111.149658 
	C1944.413086,2148.921143 1898.193604,2183.729980 1849.347900,2214.937012 
	C1803.044434,2244.520020 1754.919067,2270.923340 1704.909058,2293.766357 
	C1654.345581,2316.861816 1602.527832,2336.649414 1549.211426,2352.502197 
	C1476.719849,2374.056885 1402.985229,2389.224609 1327.652466,2396.372314 
	C1320.054321,2397.093506 1312.440430,2397.658936 1304.853882,2398.481445 
	C1303.117188,2398.669922 1299.930664,2398.406006 1302.000000,2402.000000 
	C1237.291504,2402.000000 1172.583130,2402.000000 1107.544800,2401.299316 
	C1105.426270,2399.858398 1103.688965,2398.667236 1101.839844,2398.456055 
	C1094.260498,2397.590332 1086.602783,2397.341553 1079.053711,2396.291260 
	C1044.546631,2391.489502 1009.824951,2387.774658 975.622009,2381.326660 
	C875.486511,2362.450684 779.409485,2330.702881 687.390747,2286.878906 
	C615.070129,2252.436279 546.800781,2211.156250 482.804016,2163.030029 
	C425.264923,2119.760010 372.106995,2071.534180 323.113708,2018.703491 
	C292.104218,1985.265137 263.099487,1950.229492 236.023575,1913.555298 
	C199.787506,1864.473755 167.512161,1812.900513 139.265854,1758.854004 
	C100.014748,1683.751099 68.821884,1605.407837 46.360413,1523.658081 
	C26.779879,1452.393799 13.387930,1380.012085 7.633878,1306.273926 
	C7.066518,1299.003296 6.332712,1291.737305 5.365502,1284.510864 
	C5.059954,1282.228149 3.648226,1280.726196 2.000000,1284.000000 
	C2.000000,1234.624878 2.000000,1185.249756 2.724814,1135.303955 
	C3.949771,1134.525635 4.449913,1134.317993 5.215894,1133.732666 
	C5.781016,1132.780273 5.856014,1132.177612 5.690248,1130.643799 
	C6.988480,1112.533691 7.671276,1095.249634 9.754839,1078.136108 
	C13.605484,1046.508179 17.101650,1014.764648 22.842836,983.453857 
	C36.182697,910.702026 56.162773,839.717224 82.870560,770.666931 
	C101.862236,721.565796 123.826218,673.829224 149.078445,627.671326 
	C179.637390,571.813477 214.299820,518.562439 253.394775,468.261597 
	C280.151245,433.835876 308.199524,400.491882 339.036102,369.629364 
	C359.266632,349.381836 379.780701,329.391174 400.762756,309.926849 
	C435.419525,277.776917 472.546875,248.610504 511.186005,221.409531 
	C566.281616,182.623611 624.099915,148.426743 684.910828,119.339012 
	C720.042664,102.534393 755.844360,87.287178 792.457458,74.051003 
	C844.108704,55.378357 896.750854,40.040268 950.516968,28.671223 
	C994.746826,19.318659 1039.313721,12.132069 1084.335571,7.905985 
	C1094.252075,6.975145 1104.201904,6.400720 1114.133911,5.630284 
	C1117.032104,5.405475 1117.028198,5.354954 1118.000000,2.000000 
M1861.550415,1191.442749 
	C1861.365112,1190.836182 1861.033203,1190.324951 1860.381226,1188.052979 
	C1859.041870,1163.176880 1858.130615,1138.268677 1856.269775,1113.431641 
	C1852.886108,1068.269775 1844.811035,1023.864685 1833.188477,980.104980 
	C1817.633057,921.536865 1794.881958,866.041870 1762.466431,814.673706 
	C1719.420776,746.460205 1663.205811,691.712952 1594.294189,649.890015 
	C1552.542969,624.550903 1508.161255,605.083435 1461.667603,590.357605 
	C1389.570923,567.522461 1315.436157,556.936829 1240.063477,554.448608 
	C1216.451050,553.669067 1192.791138,554.324951 1169.152954,554.324890 
	C1055.827393,554.324646 942.501953,554.324707 829.176453,554.324768 
	C825.266296,554.324768 821.356140,554.324829 816.236328,554.324829 
	C816.236328,747.237427 816.236328,938.986023 816.236328,1131.802002 
	C764.851379,1131.802002 714.710571,1131.802002 664.216492,1131.802002 
	C664.216492,1179.018555 664.216492,1225.160400 664.216492,1272.362671 
	C714.898865,1272.362671 765.045715,1272.362671 816.337952,1272.362671 
	C816.337952,1369.309082 816.337952,1465.198486 816.337952,1561.087769 
	C816.337952,1657.277588 816.337952,1753.467285 816.337952,1850.338501 
	C822.105347,1850.338501 826.409363,1850.338501 830.713379,1850.338501 
	C975.370056,1850.337280 1120.026733,1850.342407 1264.683472,1850.326172 
	C1280.329224,1850.324463 1296.003296,1850.778687 1311.614990,1850.014282 
	C1346.486694,1848.306396 1380.979004,1843.539307 1415.189331,1836.399780 
	C1493.281860,1820.102295 1566.032715,1791.330078 1631.493652,1745.156494 
	C1673.152222,1715.772339 1709.297729,1680.721924 1740.063232,1640.080811 
	C1771.225708,1598.915405 1795.145630,1553.816284 1813.433350,1505.632446 
	C1832.277832,1455.982056 1844.833008,1404.696899 1851.706543,1352.130981 
	C1855.533936,1322.861938 1858.016235,1293.372192 1859.870361,1263.904297 
	C1861.330444,1240.698608 1860.902100,1217.374023 1861.658691,1193.265015 
	C1861.658691,1193.265015 1861.669678,1192.359009 1861.550415,1191.442749 
z"/>
<path fill="#413711" opacity="1.000000" stroke="none" 
	d="
M2.000000,1132.500000 
	C2.373398,1132.040771 2.746795,1132.081543 3.831511,1132.657837 
	C4.678570,1133.499023 4.814312,1133.804688 4.950054,1134.110474 
	C4.449913,1134.317993 3.949771,1134.525635 2.724814,1134.366699 
	C2.000000,1134.000000 2.000000,1133.000000 2.000000,1132.500000 
z"/>
<path fill="#413711" opacity="1.000000" stroke="none" 
	d="
M2402.000000,1273.500000 
	C2401.703613,1274.082153 2401.327148,1274.310547 2401.133301,1274.204834 
	C2400.943359,1274.101440 2400.854248,1273.650391 2400.877930,1273.364990 
	C2400.901367,1273.078735 2401.118652,1272.808228 2401.625488,1272.265381 
	C2402.000000,1272.000000 2402.000000,1273.000000 2402.000000,1273.500000 
z"/>
<path fill="#917C26" opacity="1.000000" stroke="none" 
	d="
M5.215894,1133.732666 
	C4.814312,1133.804688 4.678570,1133.499023 4.392044,1132.714844 
	C4.241259,1132.236328 4.942131,1131.823853 5.324429,1131.685303 
	C5.856014,1132.177612 5.781016,1132.780273 5.215894,1133.732666 
z"/>
<path fill="#917C26" opacity="1.000000" stroke="none" 
	d="
M1860.119751,1191.840820 
	C1860.131592,1191.505249 1860.143555,1191.169556 1860.354980,1190.371460 
	C1861.033203,1190.324951 1861.365112,1190.836182 1861.219482,1191.781006 
	C1860.888428,1192.119385 1860.119751,1191.840820 1860.119751,1191.840820 
z"/>
<path fill="#312A0D" opacity="1.000000" stroke="none" 
	d="
M1860.164429,1192.287964 
	C1860.119751,1191.840820 1860.888428,1192.119385 1861.279053,1192.239258 
	C1861.669678,1192.359009 1861.658691,1193.265015 1861.485596,1193.683594 
	C1860.750610,1193.803101 1860.382812,1193.347412 1860.164429,1192.287964 
z"/>
<path fill="#C2A633" opacity="1.000000" stroke="none" 
	d="
M1060.328857,1318.000000 
	C1060.328857,1302.690063 1060.328857,1288.380127 1060.328857,1273.022583 
	C1071.966309,1271.628662 1083.196411,1272.535889 1094.359741,1272.369751 
	C1105.356812,1272.206177 1116.358398,1272.333984 1127.357910,1272.333984 
	C1138.690796,1272.333984 1150.023682,1272.333984 1161.356567,1272.333984 
	C1172.689453,1272.333984 1184.022339,1272.333984 1195.355225,1272.333984 
	C1206.354736,1272.333984 1217.354370,1272.333984 1228.353882,1272.333984 
	C1239.686768,1272.333984 1251.019653,1272.333984 1262.352539,1272.333984 
	C1273.352173,1272.333984 1284.351685,1272.333984 1295.351318,1272.333984 
	C1306.609985,1272.333984 1317.868652,1272.333984 1329.718750,1272.333984 
	C1329.718750,1225.283203 1329.718750,1179.140015 1329.718750,1132.020264 
	C1240.371582,1132.020264 1151.205200,1132.020264 1062.342773,1132.020264 
	C1059.946777,1124.227783 1059.158569,808.606384 1061.296387,793.103760 
	C1063.672485,792.859558 1066.217529,792.371826 1068.762817,792.369751 
	C1123.760620,792.325745 1178.780518,791.353394 1233.750610,792.587646 
	C1300.433105,794.084778 1364.235840,809.160950 1423.610107,840.172729 
	C1485.707031,872.606689 1534.101440,919.341614 1567.494385,981.283630 
	C1590.307983,1023.601685 1604.259521,1068.778442 1612.102417,1116.033691 
	C1617.610352,1149.220215 1620.263794,1182.675659 1620.176514,1216.247070 
	C1620.024414,1274.678101 1613.872559,1332.304199 1594.484131,1387.945923 
	C1578.369019,1434.193726 1554.369873,1475.632202 1519.855347,1510.545776 
	C1484.093994,1546.720581 1441.272095,1571.684082 1393.309570,1588.045410 
	C1353.406738,1601.657471 1312.380127,1609.683838 1270.197876,1610.222534 
	C1202.586914,1611.085938 1134.966553,1611.223389 1067.350098,1611.636841 
	C1065.423584,1611.648682 1063.494873,1611.311890 1060.328857,1611.025879 
	C1060.328857,1513.419556 1060.328857,1416.209839 1060.328857,1318.000000 
z"/>
</svg>