<svg version="1.1" id="Layer_1" xmlns="http://www.w3.org/2000/svg" xmlns:xlink="http://www.w3.org/1999/xlink" x="0px" y="0px"
	 width="100%" viewBox="0 0 554 554" enable-background="new 0 0 554 554" xml:space="preserve">
<path fill="#EC0829" opacity="1.000000" stroke="none" 
	d="
M309.000000,1.000000 
	C310.066681,1.000000 311.133331,1.000000 312.407623,1.395846 
	C313.457397,2.192137 314.265656,2.827211 315.147278,2.954584 
	C320.484375,3.725676 325.971619,3.853880 331.162842,5.168004 
	C351.185760,10.236655 371.140533,15.595790 390.213776,24.432205 
	C397.933838,28.458258 405.493591,32.193737 413.377808,36.068008 
	C439.324463,49.960201 461.359253,68.298546 481.385925,89.477638 
	C481.944183,90.176666 482.520844,90.577843 483.060150,90.978958 
	C483.022797,90.978905 483.024597,90.904236 483.027527,91.233032 
	C483.428467,92.015999 483.826447,92.470161 484.169220,92.921127 
	C484.113983,92.917931 484.127838,92.808128 484.157410,93.101654 
	C484.518707,93.555351 484.850494,93.715523 485.143188,93.884308 
	C485.104095,93.892929 485.126129,93.816002 485.148132,94.110222 
	C485.505615,94.552139 485.841095,94.699829 486.134766,94.850807 
	C486.092987,94.854095 486.134216,94.781120 486.138184,95.137283 
	C486.782684,95.653572 487.423218,95.813698 488.034729,95.984421 
	C488.005676,95.995003 488.030731,95.938515 487.928467,96.296043 
	C488.635345,97.733170 489.444519,98.812759 490.189697,99.926788 
	C490.125732,99.961227 490.060394,99.831436 490.171997,100.081383 
	C490.576569,100.536530 490.869537,100.741737 491.111328,100.935959 
	C491.060181,100.924980 491.086853,100.823807 491.129883,101.115486 
	C491.509552,101.549057 491.846161,101.690948 492.112366,101.827103 
	C492.041931,101.821358 492.181030,101.795631 492.133057,102.102554 
	C493.014465,103.480171 493.943817,104.550850 495.171936,105.825439 
	C497.880890,109.129341 500.529785,112.074783 502.655609,115.358833 
	C508.591888,124.529327 514.311523,133.840073 520.157959,143.444031 
	C522.865417,149.268555 525.454224,154.784271 528.241089,160.198090 
	C529.174927,162.012238 530.613586,163.566498 531.898682,165.592148 
	C535.980347,176.914886 540.502625,187.730118 543.843628,198.898727 
	C547.178955,210.048203 549.265015,221.567825 552.049072,232.888229 
	C552.732239,235.666031 554.000671,238.299927 555.000000,241.000000 
	C555.000000,265.354218 555.000000,289.708466 554.607178,314.340393 
	C553.829224,315.122803 553.205811,315.580109 553.094604,316.139282 
	C551.379395,324.764709 549.883484,333.436127 548.038452,342.032867 
	C542.308655,368.729370 531.521484,393.430756 517.762085,417.095398 
	C517.012329,418.138641 516.618408,419.165375 516.187927,420.178375 
	C516.151428,420.164642 516.210327,420.113434 515.875854,420.218811 
	C514.776611,421.947052 514.011841,423.569916 513.241089,425.143158 
	C513.235107,425.093536 513.211060,425.190247 512.861755,425.179016 
	C512.050110,426.170685 511.587708,427.173584 511.104034,428.128876 
	C511.082733,428.081299 511.180054,428.044037 510.822388,428.177094 
	C509.940033,429.696869 509.415344,431.083618 508.932251,432.494141 
	C508.973877,432.517944 508.879395,432.501282 508.504700,432.603638 
	C507.759094,433.492462 507.388214,434.278931 507.012054,435.033325 
	C507.006805,435.001282 507.071625,435.005554 506.715240,434.962280 
	C505.950500,435.672760 505.542145,436.426483 505.120117,437.143738 
	C505.106476,437.107239 505.181763,437.087280 504.837646,437.139862 
	C503.727966,438.535492 502.962433,439.878540 502.173767,441.182251 
	C502.150665,441.142883 502.233948,441.105560 501.903687,441.211853 
	C501.136658,442.276703 500.699921,443.235291 500.136505,444.100891 
	C500.009827,444.007874 500.260681,444.191986 499.897705,444.169556 
	C499.363586,444.788147 499.192505,445.429108 499.013184,446.039734 
	C499.004944,446.009369 499.062347,446.035156 498.843323,445.908722 
	C498.358582,446.453430 498.092834,447.124603 497.540253,447.975769 
	C481.769104,467.906647 464.092926,485.417145 443.598938,500.372253 
	C442.871185,500.950012 442.444214,501.510498 442.011658,502.039948 
	C442.006104,502.008881 442.067413,502.023926 441.714417,501.930115 
	C439.936981,502.952026 438.512512,504.067749 437.091248,505.144287 
	C437.094391,505.105103 437.161224,505.146606 436.824463,505.055359 
	C435.707794,505.714874 434.927856,506.465668 434.149292,507.167603 
	C434.150726,507.118744 434.214081,507.193207 433.862488,507.139862 
	C433.171600,507.683899 432.832275,508.281281 432.507568,508.929138 
	C432.522186,508.979584 432.472626,508.887970 432.087830,508.788208 
	C430.457733,509.735931 429.212463,510.783417 427.612549,511.902527 
	C405.878204,525.364868 383.448242,536.555298 359.055603,543.290466 
	C346.842590,546.662598 334.369904,549.086853 322.053345,552.098022 
	C319.611664,552.694946 317.346558,554.013977 315.000000,555.000000 
	C290.645782,555.000000 266.291534,555.000000 241.627991,554.600098 
	C240.653717,553.797302 240.033936,553.169067 239.317078,553.025452 
	C228.182663,550.794800 216.801376,549.425903 205.950333,546.244080 
	C192.116470,542.187622 178.708923,536.677246 164.981964,531.480469 
	C157.502243,527.509644 150.158173,523.851929 142.831787,520.149292 
	C142.849442,520.104431 142.877579,520.196655 142.803680,519.876404 
	C140.550385,518.671814 138.370987,517.787537 135.995667,516.611206 
	C132.019989,513.934753 128.115112,511.725067 124.487267,509.128326 
	C117.585922,504.188477 110.691818,499.215912 104.073608,493.909088 
	C96.327759,487.698120 88.183601,481.763336 81.466400,474.542084 
	C71.552826,463.884644 62.261555,452.554810 53.621357,440.835907 
	C46.650364,431.381012 41.034241,420.927155 34.800888,410.566406 
	C31.254040,403.424835 27.723358,396.633270 24.040020,389.549622 
	C23.770876,389.071198 23.654390,388.884857 23.578911,388.424011 
	C23.142796,387.528320 22.665670,386.907166 22.071533,385.911499 
	C18.616497,375.917847 14.697771,366.453491 12.082295,356.641785 
	C8.532323,343.324371 6.006080,329.735107 2.938442,316.285767 
	C2.741303,315.421448 1.666519,314.757263 1.000002,314.000000 
	C1.000000,312.933319 1.000000,311.866669 1.267168,310.718445 
	C1.791834,310.085815 2.049331,309.534760 2.306826,308.983704 
	C1.871215,308.989136 1.435608,308.994568 1.000000,309.000000 
	C1.000000,288.979095 1.000000,268.958221 1.263917,248.796570 
	C1.792743,248.102768 2.057651,247.549683 2.322559,246.996613 
	C1.881706,246.997742 1.440853,246.998871 1.000000,247.000000 
	C1.000000,245.285645 1.000000,243.571289 1.388731,241.607651 
	C2.187230,240.519302 2.800122,239.720383 2.975041,238.834915 
	C4.554593,230.839005 5.430484,222.643875 7.715796,214.860397 
	C12.206676,199.565002 17.468660,184.496002 22.621578,169.252975 
	C23.298351,168.112839 23.765158,167.053085 24.463455,165.526382 
	C24.888342,164.770798 25.081736,164.482147 25.523340,164.087036 
	C29.120918,157.004608 32.470284,150.028641 35.919605,142.694687 
	C38.735401,137.886383 41.451244,133.436050 44.455627,128.807983 
	C45.488182,127.065231 46.232201,125.500206 46.984863,123.966812 
	C46.993511,123.998428 46.928104,124.002892 47.288609,123.948112 
	C48.089012,122.906540 48.528908,121.919739 48.978416,120.963531 
	C48.988029,120.994125 48.924026,120.990044 49.278381,120.987900 
	C50.012085,120.253845 50.391430,119.521935 50.833031,118.784019 
	C50.895279,118.778015 50.780556,118.827560 51.129395,118.817047 
	C52.260754,117.468391 53.043282,116.130257 53.836578,114.831192 
	C53.847351,114.870255 53.767063,114.881378 54.074768,114.837357 
	C55.124237,113.640266 55.866001,112.487183 56.787563,111.005478 
	C62.956387,103.299828 68.285309,95.236824 75.080605,88.697632 
	C86.912025,77.312111 99.647858,66.866425 112.238708,56.053741 
	C113.278183,55.319229 114.083527,54.557724 114.884293,53.836662 
	C114.879723,53.877106 114.800362,53.858997 115.146317,53.903023 
	C116.605438,52.891907 117.718605,51.836761 118.811943,50.844429 
	C118.792114,50.907238 118.789970,50.775501 119.126373,50.888474 
	C119.972305,50.308918 120.481850,49.616383 120.992844,48.956039 
	C120.994286,48.988235 120.932472,48.970005 121.282448,49.092045 
	C122.421783,48.451263 123.211151,47.688438 123.999504,46.958260 
	C123.998489,46.990906 123.935287,46.974426 124.276627,47.099640 
	C125.737732,46.214771 126.857498,45.204689 128.333801,44.118748 
	C133.446823,41.323685 138.203323,38.604481 143.325348,35.900604 
	C149.153152,33.204842 154.650818,30.561646 160.057816,27.744440 
	C161.858200,26.806383 163.426208,25.422325 165.465210,24.161926 
	C170.160721,22.293140 174.417786,20.293293 178.835129,18.753111 
	C196.655655,12.539692 214.452423,6.239843 233.344742,3.871061 
	C235.975143,3.541254 238.452042,1.987280 241.000000,0.999999 
	C243.370560,1.000000 245.741104,1.000000 248.236923,1.299114 
	C249.116119,1.958121 249.870041,2.318014 250.623978,2.677907 
	C250.749313,2.118604 250.874664,1.559302 251.000000,1.000000 
	C268.687561,1.000000 286.375122,1.000000 304.322205,1.366123 
	C306.374084,3.416626 308.033386,4.298149 309.000000,1.000000 
M294.493774,448.475250 
	C294.493774,448.475250 294.504120,448.408417 294.976440,448.095032 
	C295.390778,447.477081 295.805115,446.859100 295.996765,446.019745 
	C295.996765,446.019745 296.224274,446.234039 296.796417,445.896088 
	C298.961945,443.144958 301.127472,440.393860 303.810364,437.131958 
	C306.779510,433.582336 309.774811,430.054199 312.713470,426.479492 
	C328.426788,407.365448 344.160980,388.268463 359.818237,369.108582 
	C371.260468,355.106659 382.594971,341.016724 394.488159,326.753723 
	C394.774994,326.292938 395.061829,325.832184 395.189331,325.213654 
	C395.189331,325.213654 395.378052,325.334717 395.932007,324.986084 
	C400.243744,319.645508 404.555481,314.304932 409.168518,308.788361 
	C409.168518,308.788361 409.241577,308.446899 409.837341,308.144104 
	C411.445221,306.075134 413.053101,304.006165 415.187012,301.491394 
	C432.906769,279.939789 450.626526,258.388184 468.464020,236.693375 
	C443.730316,213.180435 419.371826,190.007233 394.962952,166.887192 
	C394.064087,166.035797 392.728485,165.404617 391.502136,165.175537 
	C369.767853,161.115479 348.018585,157.135468 326.273163,153.134964 
	C261.649353,141.246185 197.026505,129.351944 132.401184,117.471252 
	C123.780220,115.886383 115.147125,114.367432 105.762817,112.682030 
	C156.407089,240.130859 206.726074,366.761078 257.341522,494.137390 
	C269.594147,478.979919 281.298798,464.500336 293.509766,449.822571 
	C293.816925,449.382080 294.124084,448.941589 294.493774,448.475250 
z"/>
<path fill="#FBFAFA" opacity="1.000000" stroke="none" 
	d="
M393.977478,326.966003 
	C382.594971,341.016724 371.260468,355.106659 359.818237,369.108582 
	C344.160980,388.268463 328.426788,407.365448 312.713470,426.479492 
	C309.774811,430.054199 306.779510,433.582336 303.400208,437.085815 
	C301.742279,436.889374 299.779572,436.167572 299.366455,436.684418 
	C297.188812,439.408752 294.287872,442.096405 296.224274,446.234039 
	C296.224274,446.234039 295.996765,446.019745 295.834900,445.967804 
	C295.117889,445.606171 294.562744,445.296478 293.894531,444.861664 
	C293.558319,444.730957 293.335205,444.725372 293.112061,444.719788 
	C293.402374,444.818512 293.692657,444.917236 294.007507,445.445862 
	C294.189392,446.720001 294.346771,447.564209 294.504120,448.408417 
	C294.504120,448.408417 294.493774,448.475250 294.218506,448.412689 
	C293.629944,448.906982 293.316681,449.463867 293.003418,450.020752 
	C281.298798,464.500336 269.594147,478.979919 257.341522,494.137390 
	C206.726074,366.761078 156.407089,240.130859 105.762817,112.682030 
	C115.147125,114.367432 123.780220,115.886383 132.401184,117.471252 
	C197.026505,129.351944 261.649353,141.246185 326.273163,153.134964 
	C348.018585,157.135468 369.767853,161.115479 391.502136,165.175537 
	C392.728485,165.404617 394.064087,166.035797 394.962952,166.887192 
	C419.371826,190.007233 443.730316,213.180435 468.464020,236.693375 
	C450.626526,258.388184 432.906769,279.939789 414.715759,301.538696 
	C413.578186,300.977539 412.911926,300.369110 412.682190,300.159363 
	C410.996185,302.624786 409.499237,304.813721 407.670837,307.110199 
	C404.570984,310.287231 401.461456,313.122864 399.144714,316.502014 
	C397.370117,319.090393 396.596741,322.365204 395.378052,325.334717 
	C395.378052,325.334717 395.189331,325.213654 395.025818,325.242371 
	C394.567352,325.836090 394.272430,326.401031 393.977478,326.966003 
M402.386597,285.666992 
	C402.557312,285.365845 402.728027,285.064667 403.006866,284.300934 
	C403.006866,284.300934 403.385498,284.014099 404.001587,284.171906 
	C405.067352,284.076019 406.798767,284.349182 407.089935,283.823914 
	C408.871613,280.610107 410.326813,277.215302 411.992401,273.978607 
	C411.992401,273.978607 411.875488,273.900055 412.467560,273.924377 
	C416.134033,270.888641 421.702759,269.308807 421.142059,262.239746 
	C423.612488,259.141418 426.082886,256.043060 429.242004,252.080994 
	C384.275024,260.235718 340.621368,268.152283 296.707977,276.115936 
	C290.239838,329.536652 283.801300,382.712921 277.239899,436.903778 
	C278.551300,435.774506 279.084442,435.434937 279.465210,434.970459 
	C300.356598,409.487366 321.203735,383.967926 342.124664,358.509094 
	C360.086243,336.651581 378.130615,314.862091 396.657990,293.266876 
	C397.257111,293.211395 397.856262,293.155884 398.455383,293.100372 
	C398.276154,292.384125 398.096924,291.667877 398.033875,290.474792 
	C398.175568,290.143555 398.424286,289.949615 399.344452,290.082794 
	C400.215485,288.710632 401.086517,287.338470 402.000000,285.998779 
	C402.000000,285.998779 401.957092,285.970123 402.386597,285.666992 
M276.980621,264.228577 
	C276.980621,262.746674 276.980621,261.264801 276.980621,258.796814 
	C273.682648,258.540527 270.311188,258.278503 266.301361,257.810608 
	C262.709076,254.852158 259.099701,251.914200 255.527390,248.931839 
	C236.007767,232.635834 216.497253,216.328903 197.128342,199.478790 
	C197.623734,198.842102 198.119125,198.205429 198.605057,197.580902 
	C195.904266,193.648087 189.932266,193.601395 188.020706,188.023010 
	C187.440399,186.329529 183.460464,181.105606 178.184616,184.885376 
	C168.076630,176.453369 157.968658,168.021362 147.860672,159.589355 
	C147.469025,159.903625 147.077362,160.217896 146.685699,160.532166 
	C182.948639,251.783218 219.211594,343.034241 255.474533,434.285278 
	C255.901550,434.257385 256.328552,434.229462 256.755585,434.201569 
	C257.096893,432.526428 257.557495,430.865662 257.761871,429.173981 
	C261.534180,397.948395 265.240814,366.714844 269.038971,335.492401 
	C270.926636,319.974762 272.970398,304.476044 275.354706,288.579041 
	C275.293091,287.719238 275.231445,286.859406 275.095856,285.203705 
	C275.263367,284.430206 275.430878,283.656708 275.857513,282.431091 
	C275.889465,281.915192 275.921448,281.399323 275.878723,280.043060 
	C276.071655,278.371857 276.264587,276.700653 277.048981,275.022736 
	C277.818604,273.811005 278.588257,272.599274 279.357880,271.387543 
	C278.613373,271.255280 277.868896,271.123016 277.017944,270.213562 
	C276.966675,268.913818 276.915436,267.614075 276.934418,265.650940 
	C276.946899,265.428925 276.959351,265.206879 276.980621,264.228577 
M354.916809,215.844879 
	C341.545593,227.853546 328.174377,239.862213 314.446960,252.190750 
	C353.805878,245.066467 392.781799,238.011490 432.675446,230.790405 
	C417.638306,216.513000 403.350555,202.947159 389.096802,189.413574 
	C385.082916,192.528961 381.551819,195.269623 377.382996,197.727844 
	C376.433685,197.659760 374.954956,197.167038 374.616516,197.588959 
	C371.030609,202.059158 362.978271,201.232941 361.714539,208.447968 
	C361.655548,208.784592 360.672211,209.130432 360.095367,209.177490 
	C356.345062,209.483459 355.040070,211.764359 354.916809,215.844879 
M346.757690,177.701706 
	C345.949585,177.504089 345.149109,177.264832 344.332245,177.114761 
	C291.654327,167.437363 238.975754,157.763565 186.295242,148.100220 
	C178.230682,146.620895 170.156693,145.193024 162.087067,143.741348 
	C161.973907,144.041290 161.860748,144.341217 161.747604,144.641159 
	C203.308258,179.115448 244.868912,213.589752 286.486633,248.111389 
	C313.206970,225.828140 339.606567,203.812363 366.618469,181.285950 
	C359.637878,180.017365 353.624878,178.924622 346.757690,177.701706 
M402.741791,309.013306 
	C402.365234,309.620911 401.988708,310.228516 401.612152,310.836121 
	C401.879761,310.939178 402.147369,311.042236 402.414948,311.145294 
	C402.665161,310.412781 402.915375,309.680237 402.741791,309.013306 
M300.923035,433.608521 
	C300.923035,433.608521 301.143158,433.457306 301.143158,433.457306 
	C301.143158,433.457306 300.859070,433.474243 300.923035,433.608521 
M405.154846,305.518372 
	C405.154846,305.518372 404.878418,305.429016 404.878418,305.429016 
	C404.878418,305.429016 405.053192,305.630859 405.154846,305.518372 
M179.530655,182.502441 
	C179.530655,182.502441 179.488358,182.518417 179.530655,182.502441 
M277.526337,282.501129 
	C277.526337,282.501129 277.488403,282.514709 277.526337,282.501129 
z"/>
<path fill="#F1EEEC" opacity="1.000000" stroke="none" 
	d="
M395.655029,325.160400 
	C396.596741,322.365204 397.370117,319.090393 399.144714,316.502014 
	C401.461456,313.122864 404.570984,310.287231 407.669678,307.108887 
	C408.000000,307.000000 407.997650,306.995941 408.036011,307.269531 
	C408.338623,308.016846 408.602936,308.490631 408.867188,308.964386 
	C404.555481,314.304932 400.243744,319.645508 395.655029,325.160400 
z"/>
<path fill="#EA6F7A" opacity="1.000000" stroke="none" 
	d="
M390.213776,24.432201 
	C392.871552,25.143759 395.825592,25.875008 398.478302,27.206575 
	C403.413147,29.683708 408.172424,32.510635 413.029053,35.560577 
	C405.493591,32.193737 397.933838,28.458258 390.213776,24.432201 
z"/>
<path fill="#E7717E" opacity="1.000000" stroke="none" 
	d="
M143.325348,35.900604 
	C143.462051,35.223907 143.822250,34.283676 144.488510,33.944336 
	C151.083847,30.585197 157.729858,27.325571 164.730988,24.139969 
	C163.426208,25.422325 161.858200,26.806383 160.057816,27.744440 
	C154.650818,30.561646 149.153152,33.204842 143.325348,35.900604 
z"/>
<path fill="#E66C7A" opacity="1.000000" stroke="none" 
	d="
M25.523338,164.087036 
	C25.633047,162.541519 25.667919,160.726089 26.406418,159.266693 
	C29.179848,153.785919 32.182850,148.421310 35.459743,143.032928 
	C32.470284,150.028641 29.120918,157.004608 25.523338,164.087036 
z"/>
<path fill="#E16E7A" opacity="1.000000" stroke="none" 
	d="
M520.157959,143.444031 
	C520.751038,143.407089 521.717834,143.552399 521.969604,144.055481 
	C525.357666,150.826843 528.646240,157.648026 531.890503,164.848206 
	C530.613586,163.566498 529.174927,162.012238 528.241089,160.198090 
	C525.454224,154.784271 522.865417,149.268555 520.157959,143.444031 
z"/>
<path fill="#E3747F" opacity="1.000000" stroke="none" 
	d="
M164.981964,531.480469 
	C157.613693,528.169006 150.109802,524.544373 142.710022,520.556946 
	C150.158173,523.851929 157.502243,527.509644 164.981964,531.480469 
z"/>
<path fill="#F4EFEE" opacity="1.000000" stroke="none" 
	d="
M296.510345,446.065063 
	C294.287872,442.096405 297.188812,439.408752 299.366455,436.684418 
	C299.779572,436.167572 301.742279,436.889374 303.141541,437.341217 
	C301.127472,440.393860 298.961945,443.144958 296.510345,446.065063 
z"/>
<path fill="#E56974" opacity="1.000000" stroke="none" 
	d="
M34.800892,410.566406 
	C34.334438,410.859070 33.527855,410.955963 33.416328,410.721802 
	C30.236052,404.044128 27.125647,397.333160 24.098276,390.234680 
	C27.723358,396.633270 31.254040,403.424835 34.800892,410.566406 
z"/>
<path fill="#F1EEEC" opacity="1.000000" stroke="none" 
	d="
M408.001160,307.001343 
	C409.499237,304.813721 410.996185,302.624786 412.682190,300.159363 
	C412.911926,300.369110 413.578186,300.977539 414.452759,301.761597 
	C413.053101,304.006165 411.445221,306.075134 409.360657,308.029663 
	C408.588531,307.608765 408.293091,307.302368 407.997650,306.995941 
	C407.997650,306.995941 408.000000,307.000000 408.001160,307.001343 
z"/>
<path fill="#E3747F" opacity="1.000000" stroke="none" 
	d="
M142.803680,519.876404 
	C140.651031,519.342407 138.424484,518.488220 136.194763,517.268555 
	C138.370987,517.787537 140.550385,518.671814 142.803680,519.876404 
z"/>
<path fill="#EC7688" opacity="1.000000" stroke="none" 
	d="
M441.714417,501.930115 
	C440.630371,503.194641 439.193298,504.365356 437.422150,505.359802 
	C438.512512,504.067749 439.936981,502.952026 441.714417,501.930115 
z"/>
<path fill="#EB7F8D" opacity="1.000000" stroke="none" 
	d="
M515.875854,420.218811 
	C515.466187,421.864105 514.721985,423.614777 513.612488,425.279114 
	C514.011841,423.569916 514.776611,421.947052 515.875854,420.218811 
z"/>
<path fill="#EC7688" opacity="1.000000" stroke="none" 
	d="
M44.455624,128.807983 
	C44.891006,127.390549 45.614933,125.795372 46.657539,124.067688 
	C46.232201,125.500206 45.488182,127.065231 44.455624,128.807983 
z"/>
<path fill="#EC7688" opacity="1.000000" stroke="none" 
	d="
M432.087830,508.788208 
	C431.204926,509.918121 429.937225,510.948212 428.318359,511.904602 
	C429.212463,510.783417 430.457733,509.735931 432.087830,508.788208 
z"/>
<path fill="#EB7F8D" opacity="1.000000" stroke="none" 
	d="
M504.837646,437.139862 
	C504.433258,438.513245 503.684723,439.939209 502.566528,441.293365 
	C502.962433,439.878540 503.727966,438.535492 504.837646,437.139862 
z"/>
<path fill="#EC7688" opacity="1.000000" stroke="none" 
	d="
M51.129395,118.817047 
	C51.554989,117.413849 52.329414,116.000137 53.464828,114.689270 
	C53.043282,116.130257 52.260754,117.468391 51.129395,118.817047 
z"/>
<path fill="#EF768A" opacity="1.000000" stroke="none" 
	d="
M115.146317,53.903023 
	C115.902100,52.755436 117.003838,51.651875 118.468674,50.664970 
	C117.718605,51.836761 116.605438,52.891907 115.146317,53.903023 
z"/>
<path fill="#EF768A" opacity="1.000000" stroke="none" 
	d="
M124.276627,47.099640 
	C125.064697,46.062286 126.194115,45.150146 127.650391,44.216309 
	C126.857498,45.204689 125.737732,46.214771 124.276627,47.099640 
z"/>
<path fill="#E66471" opacity="1.000000" stroke="none" 
	d="
M492.133057,102.102562 
	C493.088013,102.853012 493.994995,103.910393 494.887573,105.294655 
	C493.943817,104.550850 493.014465,103.480171 492.133057,102.102562 
z"/>
<path fill="#E66C7A" opacity="1.000000" stroke="none" 
	d="
M22.621582,169.252975 
	C22.992302,168.317581 23.572985,167.301819 24.192816,166.139679 
	C23.765158,167.053085 23.298351,168.112839 22.621582,169.252975 
z"/>
<path fill="#EC7688" opacity="1.000000" stroke="none" 
	d="
M54.074764,114.837357 
	C54.550854,113.837326 55.334648,112.793274 56.363106,111.541664 
	C55.866001,112.487183 55.124237,113.640266 54.074764,114.837357 
z"/>
<path fill="#E66471" opacity="1.000000" stroke="none" 
	d="
M487.928467,96.296051 
	C488.816650,97.014641 489.602570,98.090759 490.321075,99.529617 
	C489.444519,98.812759 488.635345,97.733170 487.928467,96.296051 
z"/>
<path fill="#EF768A" opacity="1.000000" stroke="none" 
	d="
M112.238701,56.053741 
	C112.721741,55.207195 113.438927,54.387646 114.522491,53.682156 
	C114.083527,54.557724 113.278183,55.319229 112.238701,56.053741 
z"/>
<path fill="#EB7F8D" opacity="1.000000" stroke="none" 
	d="
M510.822388,428.177094 
	C510.617615,429.350769 510.055115,430.657471 509.191650,432.217285 
	C509.415344,431.083618 509.940033,429.696869 510.822388,428.177094 
z"/>
<path fill="#EB7F8D" opacity="1.000000" stroke="none" 
	d="
M517.762085,417.095398 
	C517.727905,418.175751 517.337891,419.272583 516.586121,420.280762 
	C516.618408,419.165375 517.012329,418.138641 517.762085,417.095398 
z"/>
<path fill="#EF768A" opacity="1.000000" stroke="none" 
	d="
M121.282448,49.092045 
	C121.736427,48.325584 122.540375,47.681164 123.672424,46.981178 
	C123.211151,47.688438 122.421783,48.451263 121.282448,49.092045 
z"/>
<path fill="#EC7688" opacity="1.000000" stroke="none" 
	d="
M47.288605,123.948112 
	C47.403084,123.062325 47.878071,122.121758 48.660931,121.057068 
	C48.528908,121.919739 48.089012,122.906540 47.288605,123.948112 
z"/>
<path fill="#EC7688" opacity="1.000000" stroke="none" 
	d="
M436.824463,505.055328 
	C436.403137,505.906677 435.645081,506.666779 434.517456,507.321655 
	C434.927856,506.465668 435.707794,505.714874 436.824463,505.055328 
z"/>
<path fill="#EB7F8D" opacity="1.000000" stroke="none" 
	d="
M512.861755,425.179016 
	C512.757935,426.254608 512.304871,427.318970 511.488525,428.279907 
	C511.587708,427.173584 512.050110,426.170685 512.861755,425.179016 
z"/>
<path fill="#F4EFEE" opacity="1.000000" stroke="none" 
	d="
M294.740295,448.251709 
	C294.346771,447.564209 294.189392,446.720001 294.014893,445.438965 
	C293.997742,445.002167 294.007599,444.986786 294.007599,444.986786 
	C294.562744,445.296478 295.117889,445.606171 295.946228,446.078491 
	C295.805115,446.859100 295.390778,447.477081 294.740295,448.251709 
z"/>
<path fill="#EB7F8D" opacity="1.000000" stroke="none" 
	d="
M501.903687,441.211853 
	C501.823059,442.184448 501.412140,443.263306 500.632202,444.268036 
	C500.699921,443.235291 501.136658,442.276703 501.903687,441.211853 
z"/>
<path fill="#EB7F8D" opacity="1.000000" stroke="none" 
	d="
M506.715210,434.962280 
	C506.652466,435.824493 506.233307,436.643433 505.473938,437.321289 
	C505.542145,436.426483 505.950500,435.672760 506.715210,434.962280 
z"/>
<path fill="#EC7688" opacity="1.000000" stroke="none" 
	d="
M443.598938,500.372253 
	C443.487091,500.899933 443.074463,501.444885 442.339539,502.030426 
	C442.444214,501.510498 442.871185,500.950012 443.598938,500.372253 
z"/>
<path fill="#E56974" opacity="1.000000" stroke="none" 
	d="
M23.578911,388.424011 
	C23.135521,388.051300 22.733141,387.404053 22.259653,386.521423 
	C22.665670,386.907166 23.142796,387.528320 23.578911,388.424011 
z"/>
<path fill="#EC7688" opacity="1.000000" stroke="none" 
	d="
M49.278381,120.987900 
	C49.310867,120.183838 49.697712,119.377640 50.427666,118.680733 
	C50.391430,119.521935 50.012085,120.253845 49.278381,120.987900 
z"/>
<path fill="#EF768A" opacity="1.000000" stroke="none" 
	d="
M119.126366,50.888474 
	C119.286301,50.188030 119.782639,49.600567 120.635185,48.968475 
	C120.481850,49.616383 119.972305,50.308918 119.126366,50.888474 
z"/>
<path fill="#F1EEEC" opacity="1.000000" stroke="none" 
	d="
M394.232819,326.859863 
	C394.272430,326.401031 394.567352,325.836090 395.105469,325.321259 
	C395.061829,325.832184 394.774994,326.292938 394.232819,326.859863 
z"/>
<path fill="#F4EFEE" opacity="1.000000" stroke="none" 
	d="
M293.256592,449.921661 
	C293.316681,449.463867 293.629944,448.906982 294.187256,448.425629 
	C294.124084,448.941589 293.816925,449.382080 293.256592,449.921661 
z"/>
<path fill="#EB7F8D" opacity="1.000000" stroke="none" 
	d="
M498.843323,445.908722 
	C498.875549,446.660583 498.688782,447.286041 498.164551,447.853638 
	C498.092834,447.124603 498.358582,446.453430 498.843323,445.908722 
z"/>
<path fill="#E66471" opacity="1.000000" stroke="none" 
	d="
M481.385925,89.477646 
	C481.906891,89.617561 482.409454,90.055321 483.004761,90.736053 
	C482.520844,90.577843 481.944183,90.176666 481.385925,89.477646 
z"/>
<path fill="#EB7F8D" opacity="1.000000" stroke="none" 
	d="
M508.504700,432.603638 
	C508.471466,433.274261 508.063507,434.047211 507.336426,434.942780 
	C507.388214,434.278931 507.759094,433.492462 508.504700,432.603638 
z"/>
<path fill="#EB7F8D" opacity="1.000000" stroke="none" 
	d="
M499.897675,444.169556 
	C500.056427,444.728027 499.852173,445.264099 499.334686,445.935120 
	C499.192505,445.429108 499.363586,444.788147 499.897675,444.169556 
z"/>
<path fill="#E66471" opacity="1.000000" stroke="none" 
	d="
M483.027527,91.233040 
	C483.555145,91.374565 484.085693,91.844879 484.420349,92.619759 
	C483.826447,92.470161 483.428467,92.015999 483.027527,91.233040 
z"/>
<path fill="#FBFAFA" opacity="1.000000" stroke="none" 
	d="
M408.036011,307.269531 
	C408.293091,307.302368 408.588531,307.608765 409.062775,308.181030 
	C409.241577,308.446899 409.168518,308.788361 409.017883,308.876373 
	C408.602936,308.490631 408.338623,308.016846 408.036011,307.269531 
z"/>
<path fill="#EC7688" opacity="1.000000" stroke="none" 
	d="
M433.862488,507.139893 
	C433.899689,507.765656 433.585297,508.338074 432.881927,508.894592 
	C432.832275,508.281281 433.171600,507.683899 433.862488,507.139893 
z"/>
<path fill="#E66471" opacity="1.000000" stroke="none" 
	d="
M486.138184,95.137283 
	C486.690582,94.960457 487.246979,95.139786 487.933533,95.646469 
	C487.423218,95.813698 486.782684,95.653572 486.138184,95.137283 
z"/>
<path fill="#E66471" opacity="1.000000" stroke="none" 
	d="
M490.171997,100.081375 
	C490.503418,99.956261 490.946442,100.081100 491.275970,100.576439 
	C490.869537,100.741737 490.576569,100.536530 490.171997,100.081375 
z"/>
<path fill="#E66471" opacity="1.000000" stroke="none" 
	d="
M491.129883,101.115486 
	C491.507233,100.916328 491.927582,101.008850 492.265381,101.467110 
	C491.846161,101.690948 491.509552,101.549057 491.129883,101.115486 
z"/>
<path fill="#E66471" opacity="1.000000" stroke="none" 
	d="
M485.148132,94.110222 
	C485.545563,93.918480 485.965027,94.020950 486.280518,94.485474 
	C485.841095,94.699829 485.505615,94.552139 485.148132,94.110222 
z"/>
<path fill="#E66471" opacity="1.000000" stroke="none" 
	d="
M484.157410,93.101646 
	C484.549652,92.922226 484.971436,93.036331 485.287750,93.513062 
	C484.850494,93.715523 484.518707,93.555351 484.157410,93.101646 
z"/>
<path fill="#EB0A2A" opacity="1.000000" stroke="none" 
	d="
M276.457520,275.029449 
	C276.264587,276.700653 276.071655,278.371857 275.741760,280.673737 
	C275.602661,281.830688 275.600555,282.356934 275.598419,282.883209 
	C275.430878,283.656708 275.263367,284.430206 275.015625,285.960754 
	C274.938141,287.468140 274.940857,288.218445 274.943573,288.968781 
	C272.970398,304.476044 270.926636,319.974762 269.038971,335.492401 
	C265.240814,366.714844 261.534180,397.948395 257.761871,429.173981 
	C257.557495,430.865662 257.096893,432.526428 256.755585,434.201569 
	C256.328552,434.229462 255.901550,434.257385 255.474533,434.285278 
	C219.211594,343.034241 182.948639,251.783218 146.685699,160.532166 
	C147.077362,160.217896 147.469025,159.903625 147.860672,159.589355 
	C157.968658,168.021362 168.076630,176.453369 178.685287,185.268555 
	C185.118500,190.443069 191.051041,195.234406 196.983597,200.025726 
	C216.497253,216.328903 236.007767,232.635834 255.527390,248.931839 
	C259.099701,251.914200 262.709076,254.852158 266.769043,258.212769 
	C269.495117,260.395203 271.753510,262.175476 274.169464,264.229584 
	C275.172729,265.107025 276.018433,265.710693 276.864197,266.314331 
	C276.915436,267.614075 276.966675,268.913818 276.946167,270.924622 
	C276.735443,272.766968 276.596466,273.898193 276.457520,275.029449 
z"/>
<path fill="#EB0A2A" opacity="1.000000" stroke="none" 
	d="
M396.138367,293.042480 
	C378.130615,314.862091 360.086243,336.651581 342.124664,358.509094 
	C321.203735,383.967926 300.356598,409.487366 279.465210,434.970459 
	C279.084442,435.434937 278.551300,435.774506 277.239899,436.903778 
	C283.801300,382.712921 290.239838,329.536652 296.707977,276.115936 
	C340.621368,268.152283 384.275024,260.235718 429.242004,252.080994 
	C426.082886,256.043060 423.612488,259.141418 420.734192,262.708435 
	C417.509369,266.751434 414.692444,270.325745 411.875488,273.900055 
	C411.875488,273.900055 411.992401,273.978607 411.645142,274.082947 
	C408.660400,277.462891 406.022949,280.738495 403.385498,284.014099 
	C403.385498,284.014099 403.006866,284.300934 402.713928,284.660980 
	C402.266357,285.337402 402.111725,285.653778 401.957092,285.970123 
	C401.957092,285.970123 402.000000,285.998779 401.686584,286.117065 
	C400.508820,287.454590 399.644470,288.673767 398.780090,289.892944 
	C398.424286,289.949615 398.175568,290.143555 397.708374,290.821655 
	C396.968018,291.793152 396.553192,292.417816 396.138367,293.042480 
z"/>
<path fill="#EB0A2A" opacity="1.000000" stroke="none" 
	d="
M347.184814,177.766785 
	C353.624878,178.924622 359.637878,180.017365 366.618469,181.285950 
	C339.606567,203.812363 313.206970,225.828140 286.486633,248.111389 
	C244.868912,213.589752 203.308258,179.115448 161.747604,144.641159 
	C161.860748,144.341217 161.973907,144.041290 162.087067,143.741348 
	C170.156693,145.193024 178.230682,146.620895 186.295242,148.100220 
	C238.975754,157.763565 291.654327,167.437363 344.332245,177.114761 
	C345.149109,177.264832 345.949585,177.504089 347.184814,177.766785 
z"/>
<path fill="#EB0C2A" opacity="1.000000" stroke="none" 
	d="
M378.020721,198.010300 
	C381.551819,195.269623 385.082916,192.528961 389.096802,189.413574 
	C403.350555,202.947159 417.638306,216.513000 432.675446,230.790405 
	C392.781799,238.011490 353.805878,245.066467 314.446960,252.190750 
	C328.174377,239.862213 341.545593,227.853546 355.214661,215.327850 
	C357.308899,214.117859 359.424347,213.817795 360.845856,212.663284 
	C366.685669,207.920395 372.314362,202.917526 378.020721,198.010300 
z"/>
<path fill="#F2EFEE" opacity="1.000000" stroke="none" 
	d="
M377.701843,197.869080 
	C372.314362,202.917526 366.685669,207.920395 360.845856,212.663284 
	C359.424347,213.817795 357.308899,214.117859 355.293762,215.002411 
	C355.040070,211.764359 356.345062,209.483459 360.095367,209.177490 
	C360.672211,209.130432 361.655548,208.784592 361.714539,208.447968 
	C362.978271,201.232941 371.030609,202.059158 374.616516,197.588959 
	C374.954956,197.167038 376.433685,197.659760 377.701843,197.869080 
z"/>
<path fill="#F2EFEE" opacity="1.000000" stroke="none" 
	d="
M197.055969,199.752258 
	C191.051041,195.234406 185.118500,190.443069 179.006134,185.365143 
	C183.460464,181.105606 187.440399,186.329529 188.020706,188.023010 
	C189.932266,193.601395 195.904266,193.648087 198.605057,197.580902 
	C198.119125,198.205429 197.623734,198.842102 197.055969,199.752258 
z"/>
<path fill="#F1EFF0" opacity="1.000000" stroke="none" 
	d="
M274.011932,263.955780 
	C271.753510,262.175476 269.495117,260.395203 267.088226,258.315704 
	C270.311188,258.278503 273.682648,258.540527 276.980621,258.796814 
	C276.980621,261.264801 276.980621,262.746674 276.770874,264.434387 
	C275.711426,264.412079 274.861664,264.183929 274.011932,263.955780 
z"/>
<path fill="#F0E9E8" opacity="1.000000" stroke="none" 
	d="
M403.693542,284.093018 
	C406.022949,280.738495 408.660400,277.462891 411.594299,274.034058 
	C410.326813,277.215302 408.871613,280.610107 407.089935,283.823914 
	C406.798767,284.349182 405.067352,284.076019 403.693542,284.093018 
z"/>
<path fill="#F0E9E8" opacity="1.000000" stroke="none" 
	d="
M412.171539,273.912231 
	C414.692444,270.325745 417.509369,266.751434 420.626404,263.024841 
	C421.702759,269.308807 416.134033,270.888641 412.171539,273.912231 
z"/>
<path fill="#F5EEED" opacity="1.000000" stroke="none" 
	d="
M276.753235,275.026093 
	C276.596466,273.898193 276.735443,272.766968 276.999390,271.313232 
	C277.868896,271.123016 278.613373,271.255280 279.357880,271.387543 
	C278.588257,272.599274 277.818604,273.811005 276.753235,275.026093 
z"/>
<path fill="#F1EEEC" opacity="1.000000" stroke="none" 
	d="
M399.062256,289.987854 
	C399.644470,288.673767 400.508820,287.454590 401.665344,286.100830 
	C401.086517,287.338470 400.215485,288.710632 399.062256,289.987854 
z"/>
<path fill="#F1EEEC" opacity="1.000000" stroke="none" 
	d="
M396.398193,293.154663 
	C396.553192,292.417816 396.968018,291.793152 397.650269,291.060059 
	C398.096924,291.667877 398.276154,292.384125 398.455383,293.100372 
	C397.856262,293.155884 397.257111,293.211395 396.398193,293.154663 
z"/>
<path fill="#F5EEED" opacity="1.000000" stroke="none" 
	d="
M274.169464,264.229584 
	C274.861664,264.183929 275.711426,264.412079 276.766479,264.812561 
	C276.959351,265.206879 276.946899,265.428925 276.899292,265.982635 
	C276.018433,265.710693 275.172729,265.107025 274.169464,264.229584 
z"/>
<path fill="#F1EEEC" opacity="1.000000" stroke="none" 
	d="
M402.953674,308.980530 
	C402.915375,309.680237 402.665161,310.412781 402.414948,311.145294 
	C402.147369,311.042236 401.879761,310.939178 401.612152,310.836121 
	C401.988708,310.228516 402.365234,309.620911 402.953674,308.980530 
z"/>
<path fill="#F5EEED" opacity="1.000000" stroke="none" 
	d="
M275.149139,288.773926 
	C274.940857,288.218445 274.938141,287.468140 275.052612,286.358704 
	C275.231445,286.859406 275.293091,287.719238 275.149139,288.773926 
z"/>
<path fill="#F5EEED" opacity="1.000000" stroke="none" 
	d="
M275.727966,282.657166 
	C275.600555,282.356934 275.602661,281.830688 275.779114,281.093933 
	C275.921448,281.399323 275.889465,281.915192 275.727966,282.657166 
z"/>
<path fill="#F4EFEE" opacity="1.000000" stroke="none" 
	d="
M300.891052,433.541382 
	C300.859070,433.474243 301.143158,433.457306 301.143158,433.457306 
	C301.143158,433.457306 300.923035,433.608521 300.891052,433.541382 
z"/>
<path fill="#F1EEEC" opacity="1.000000" stroke="none" 
	d="
M405.104004,305.574615 
	C405.053192,305.630859 404.878418,305.429016 404.878418,305.429016 
	C404.878418,305.429016 405.154846,305.518372 405.104004,305.574615 
z"/>
<path fill="#F4EFEE" opacity="1.000000" stroke="none" 
	d="
M293.990356,445.009064 
	C293.692657,444.917236 293.402374,444.818512 293.112061,444.719788 
	C293.335205,444.725372 293.558319,444.730957 293.894531,444.861664 
	C294.007599,444.986786 293.997742,445.002167 293.990356,445.009064 
z"/>
<path fill="#F2EFEE" opacity="1.000000" stroke="none" 
	d="
M179.509506,182.510437 
	C179.488358,182.518417 179.530655,182.502441 179.509506,182.510437 
z"/>
<path fill="#F5EEED" opacity="1.000000" stroke="none" 
	d="
M277.507385,282.507935 
	C277.488403,282.514709 277.526337,282.501129 277.507385,282.507935 
z"/>
<path fill="#F1EEEC" opacity="1.000000" stroke="none" 
	d="
M402.171844,285.818542 
	C402.111725,285.653778 402.266357,285.337402 402.659851,284.892273 
	C402.728027,285.064667 402.557312,285.365845 402.171844,285.818542 
z"/>
</svg>