<svg version="1.1" id="Layer_1" xmlns="http://www.w3.org/2000/svg" xmlns:xlink="http://www.w3.org/1999/xlink" x="0px" y="0px"
	 width="100%" viewBox="0 0 455 447" enable-background="new 0 0 455 447" xml:space="preserve">
<path fill="#53AE94" opacity="1.000000" stroke="none" 
	d="
M202.000000,1.000002 
	C220.020889,1.000000 238.041794,1.000000 256.321228,1.387231 
	C257.254639,2.172866 257.897888,2.847753 258.608978,2.928958 
	C273.614471,4.642533 288.164185,8.307558 302.419617,13.182570 
	C318.086029,18.540104 332.865570,25.758036 346.970123,34.436729 
	C367.385468,46.998550 385.459900,62.370277 400.282013,81.111572 
	C409.986908,93.382576 419.102844,106.348473 426.716675,119.988823 
	C437.319122,138.983383 445.063690,159.307144 448.094452,181.125763 
	C449.625610,192.148712 452.587891,203.136368 452.675385,214.157669 
	C452.803497,230.295502 452.092224,246.629471 449.620819,262.551117 
	C446.445709,283.006073 439.887390,302.730988 430.785828,321.448364 
	C424.110229,335.176697 415.929321,347.916382 406.645660,360.111206 
	C393.215668,377.752594 377.492676,392.819458 359.655945,405.803223 
	C329.158020,428.003357 295.228210,441.545197 257.734131,446.092834 
	C257.088470,446.171112 256.575104,447.339996 256.000000,448.000000 
	C237.979111,448.000000 219.958206,448.000000 201.692307,447.622925 
	C201.095474,446.906250 200.780502,446.321655 200.386551,446.262421 
	C184.878342,443.930664 169.412323,441.312775 154.926697,435.005188 
	C141.180145,429.019440 127.104225,423.526184 114.081337,416.201599 
	C92.226181,403.909454 73.313972,387.591858 57.736736,367.933105 
	C48.330482,356.062225 39.611473,343.470642 32.045593,330.359314 
	C20.969603,311.165100 13.357837,290.405029 9.823569,268.415131 
	C7.794956,255.793259 5.846194,243.072876 5.255859,230.332230 
	C4.769724,219.840408 5.789326,209.182922 7.137410,198.727264 
	C8.681270,186.753159 10.378308,174.650070 13.687449,163.083282 
	C20.557831,139.068497 31.279499,116.813568 45.801903,96.253624 
	C60.247681,75.802155 77.357307,58.030014 97.472214,43.490532 
	C117.784027,28.808722 139.827866,16.906967 164.471481,10.843027 
	C176.333755,7.924133 188.343582,5.606910 200.263000,2.912826 
	C200.950974,2.757325 201.425919,1.659357 202.000000,1.000002 
M200.991302,255.273392 
	C200.977158,255.550873 201.043472,255.811188 201.418701,256.961243 
	C201.450485,289.499725 201.473236,322.038239 201.534637,354.576660 
	C201.538681,356.713135 201.838440,358.848999 202.246368,361.018036 
	C202.487274,361.066254 202.731705,361.084930 203.905624,360.899994 
	C219.837006,360.874725 235.768509,360.874237 251.699570,360.789093 
	C253.453735,360.779724 255.205292,360.285095 257.336700,359.278717 
	C257.558044,356.981262 257.959869,354.684845 257.973511,352.386169 
	C258.162964,320.475494 258.305939,288.564514 258.392059,256.653412 
	C258.393524,256.111298 257.549286,255.566910 257.595703,254.351395 
	C266.701019,253.571304 275.813171,252.862732 284.910309,251.996643 
	C305.460175,250.040237 325.882599,247.209366 345.324158,239.928864 
	C350.978729,237.811325 356.459839,234.656265 361.256531,230.980026 
	C366.285339,227.125931 366.103241,221.979507 361.299866,217.777267 
	C358.225098,215.087265 354.593445,212.823761 350.866547,211.126144 
	C336.050629,204.377457 320.169037,201.388214 304.201050,199.236374 
	C288.910553,197.175812 273.497742,196.023026 258.019348,193.736359 
	C257.675812,192.823700 257.332275,191.911057 256.810425,190.340515 
	C256.869873,189.894012 256.929352,189.447525 257.023865,188.749603 
	C257.058289,188.499390 257.046600,188.249191 256.810455,187.340942 
	C256.869904,186.894302 256.929352,186.447662 257.023865,185.749619 
	C257.058289,185.499390 257.046600,185.249207 256.810486,184.340790 
	C256.870178,183.894089 256.929871,183.447403 257.023132,182.748978 
	C257.056152,182.498444 257.043762,182.248108 256.806274,181.340698 
	C256.866150,180.894501 256.926025,180.448288 257.020477,179.750153 
	C257.054474,179.499390 257.042938,179.248672 256.806244,178.340714 
	C256.866119,177.894501 256.925995,177.448303 257.020477,176.750153 
	C257.054443,176.499420 257.042908,176.248703 256.806152,175.340836 
	C256.865967,174.894638 256.925751,174.448425 257.020050,173.750183 
	C257.053955,173.499344 257.042358,173.248550 256.805115,172.340759 
	C256.864960,171.894638 256.924805,171.448517 257.019287,170.750305 
	C257.053314,170.499374 257.041748,170.248474 256.804596,169.340622 
	C256.864594,168.894562 256.924561,168.448517 257.019257,167.750336 
	C257.053284,167.499405 257.041748,167.248520 256.804901,166.340591 
	C256.865021,165.894531 256.925140,165.448471 257.643738,164.606827 
	C260.194641,164.073502 262.742645,163.094193 265.296906,163.077637 
	C285.096436,162.949326 304.897430,163.055603 324.697174,162.947556 
	C327.279114,162.933472 329.856659,162.113022 332.434784,161.212967 
	C332.631134,160.805527 332.827484,160.398087 333.048279,159.742477 
	C333.075531,159.496292 333.062225,159.250397 332.820770,158.083145 
	C332.883240,142.720490 332.945709,127.357826 332.990814,111.753922 
	C332.973450,111.514595 332.933777,111.277931 332.086151,110.867424 
	C331.424988,110.806816 330.763794,110.693230 330.102631,110.693115 
	C263.227753,110.681870 196.352875,110.670502 129.478073,110.731728 
	C127.977272,110.733101 126.477242,111.565262 124.947205,112.258156 
	C124.917915,112.505203 124.934242,112.751320 125.177925,113.737648 
	C125.117157,114.492943 125.056381,115.248238 124.663094,116.584160 
	C124.773476,118.054764 124.883858,119.525375 125.166794,121.657959 
	C125.109276,122.106651 125.051758,122.555336 124.668495,123.588295 
	C124.777527,125.057755 124.886559,126.527214 125.177078,128.737747 
	C125.116577,129.492950 125.056084,130.248169 124.663078,131.584061 
	C124.773468,133.054779 124.883858,134.525482 125.166801,136.658035 
	C125.109276,137.106644 125.051758,137.555252 124.668533,138.588181 
	C124.777550,140.057693 124.886566,141.527206 125.177078,143.737793 
	C125.116577,144.492981 125.056084,145.248184 124.663078,146.584061 
	C124.773468,148.054779 124.883858,149.525482 125.166801,151.658035 
	C125.109283,152.106644 125.051758,152.555252 124.668625,153.587555 
	C124.777184,155.057098 124.885742,156.526642 125.166870,158.657944 
	C125.109428,159.106506 125.051987,159.555069 125.002922,160.248459 
	C125.015228,160.491852 125.056702,160.731567 125.515739,161.103363 
	C125.794167,161.205994 125.977936,161.398834 126.756523,162.139893 
	C129.026047,162.428894 131.294769,162.961639 133.565216,162.969177 
	C156.112747,163.043945 178.660568,163.031906 201.426086,163.954681 
	C201.339859,173.628479 201.253616,183.302277 200.768372,193.018158 
	C200.473373,193.197128 200.178360,193.376083 199.883347,193.555038 
	C200.255234,193.700302 200.627121,193.845581 200.429169,194.611725 
	C177.699600,197.430435 154.895447,199.767136 132.271408,203.267868 
	C120.674538,205.062317 109.233810,208.532593 99.364273,215.522491 
	C91.139305,221.347656 91.135689,227.298019 99.288857,233.350296 
	C100.617279,234.336411 101.980927,235.430359 103.506714,235.969894 
	C112.725418,239.229767 121.784744,243.449387 131.295044,245.265305 
	C148.872742,248.621613 166.720535,250.571701 184.465195,253.040253 
	C189.973083,253.806488 195.511292,254.354965 200.991302,255.273392 
z"/>
<path fill="#FDFEFE" opacity="1.000000" stroke="none" 
	d="
M256.984558,168.002457 
	C256.924561,168.448517 256.864594,168.894562 256.839600,169.920319 
	C256.911285,170.667450 256.947968,170.834915 256.984650,171.002396 
	C256.924805,171.448517 256.864960,171.894638 256.840271,172.920395 
	C256.912170,173.667435 256.948853,173.834824 256.985535,174.002228 
	C256.925751,174.448425 256.865967,174.894638 256.841064,175.920441 
	C256.912598,176.667374 256.949219,176.834732 256.985870,177.002090 
	C256.925995,177.448303 256.866119,177.894501 256.841125,178.920349 
	C256.912628,179.667374 256.949249,179.834732 256.985870,180.002090 
	C256.926025,180.448288 256.866150,180.894501 256.841553,181.920197 
	C256.914398,182.666702 256.951965,182.833694 256.989563,183.000702 
	C256.929871,183.447403 256.870178,183.894089 256.843567,184.920410 
	C256.914062,185.667038 256.951416,185.834030 256.988800,186.001022 
	C256.929352,186.447662 256.869904,186.894302 256.843567,187.920471 
	C256.914062,188.666992 256.951416,188.834000 256.988800,189.001022 
	C256.929352,189.447525 256.869873,189.894012 256.830078,191.079285 
	C257.279388,192.702469 257.709045,193.586868 258.138672,194.471268 
	C273.497742,196.023026 288.910553,197.175812 304.201050,199.236374 
	C320.169037,201.388214 336.050629,204.377457 350.866547,211.126144 
	C354.593445,212.823761 358.225098,215.087265 361.299866,217.777267 
	C366.103241,221.979507 366.285339,227.125931 361.256531,230.980026 
	C356.459839,234.656265 350.978729,237.811325 345.324158,239.928864 
	C325.882599,247.209366 305.460175,250.040237 284.910309,251.996643 
	C275.813171,252.862732 266.701019,253.571304 257.228882,255.141068 
	C256.894073,290.625671 256.926056,325.320587 256.958069,360.015503 
	C255.205292,360.285095 253.453735,360.779724 251.699570,360.789093 
	C235.768509,360.874237 219.837006,360.874725 203.200516,360.935791 
	C202.495407,360.971588 202.000641,360.985168 202.000641,360.985168 
	C201.838440,358.848999 201.538681,356.713135 201.534637,354.576660 
	C201.473236,322.038239 201.450485,289.499725 201.348526,256.232788 
	C201.197433,255.337280 201.116531,255.170197 201.035614,255.003113 
	C195.511292,254.354965 189.973083,253.806488 184.465195,253.040253 
	C166.720535,250.571701 148.872742,248.621613 131.295044,245.265305 
	C121.784744,243.449387 112.725418,239.229767 103.506714,235.969894 
	C101.980927,235.430359 100.617279,234.336411 99.288857,233.350296 
	C91.135689,227.298019 91.139305,221.347656 99.364273,215.522491 
	C109.233810,208.532593 120.674538,205.062317 132.271408,203.267868 
	C154.895447,199.767136 177.699600,197.430435 200.839935,194.061554 
	C201.222946,193.332962 201.195175,193.154526 201.167389,192.976074 
	C201.253616,183.302277 201.339859,173.628479 201.174713,163.052551 
	C200.133881,161.948639 199.344284,161.570267 198.554932,161.570724 
	C174.392288,161.584915 150.229675,161.636276 126.067055,161.681885 
	C125.977936,161.398834 125.794167,161.205994 125.317368,160.790512 
	C125.118996,160.477661 124.994553,160.003632 124.994553,160.003632 
	C125.051987,159.555069 125.109428,159.106506 125.142181,157.914032 
	C125.076416,155.781357 125.035324,154.392609 124.994232,153.003860 
	C125.051758,152.555252 125.109283,152.106644 125.142059,150.913956 
	C125.076744,148.781036 125.036163,147.392212 124.995583,146.003372 
	C125.056084,145.248184 125.116577,144.492981 125.151390,142.954620 
	C125.081886,140.782242 125.038063,139.393051 124.994240,138.003860 
	C125.051758,137.555252 125.109276,137.106644 125.142059,135.913956 
	C125.076744,133.781036 125.036163,132.392212 124.995583,131.003372 
	C125.056084,130.248169 125.116577,129.492950 125.151390,127.954590 
	C125.081879,125.782295 125.038063,124.393158 124.994240,123.004028 
	C125.051758,122.555336 125.109276,122.106651 125.142059,120.913834 
	C125.076759,118.780983 125.036194,117.392258 124.995621,116.003532 
	C125.056381,115.248238 125.117157,114.492943 125.133881,113.119431 
	C125.052170,112.337440 125.014511,112.173668 124.976852,112.009903 
	C126.477242,111.565262 127.977272,110.733101 129.478073,110.731728 
	C196.352875,110.670502 263.227753,110.681870 330.102631,110.693115 
	C330.763794,110.693230 331.424988,110.806816 332.484924,111.197395 
	C332.883667,111.527367 333.008148,111.995171 333.008179,111.995171 
	C332.945709,127.357826 332.883240,142.720490 332.867950,158.791199 
	C332.951324,159.663055 332.987549,159.826843 333.023804,159.990662 
	C332.827484,160.398087 332.631134,160.805527 331.919434,161.388123 
	C321.099274,161.550537 310.794525,161.531372 300.489746,161.526672 
	C287.359314,161.520691 274.228851,161.529724 261.098419,161.524002 
	C258.729523,161.522980 256.097748,161.170883 256.985229,165.002411 
	C256.925140,165.448471 256.865021,165.894531 256.839752,166.920319 
	C256.911285,167.667511 256.947937,167.834991 256.984558,168.002457 
M256.230560,235.447266 
	C238.232315,235.447266 220.234055,235.447266 201.534729,235.447266 
	C201.534729,232.951645 201.569138,230.682068 201.528748,228.413803 
	C201.355209,218.665146 201.159668,208.916870 200.531006,198.845398 
	C200.350891,198.873367 200.170792,198.901352 199.068466,198.783066 
	C192.193741,199.522186 185.316727,200.900055 178.444763,200.875259 
	C160.984985,200.812210 144.077545,204.168991 127.349113,208.484634 
	C121.492531,209.995529 115.769119,212.677322 110.529625,215.752533 
	C104.563530,219.254211 104.617668,223.792206 110.224968,227.892776 
	C112.865219,229.823578 115.948784,231.345032 119.050964,232.416473 
	C146.245224,241.808975 174.562149,243.847122 203.743164,245.153076 
	C204.496841,245.106766 205.250504,245.060471 206.742828,245.168015 
	C207.492630,245.122620 208.242432,245.077225 209.816406,245.193115 
	C222.219986,245.149597 234.623566,245.106079 247.679703,245.184372 
	C248.116287,245.136398 248.552856,245.088425 249.859283,245.170105 
	C251.905151,245.110641 253.951035,245.051163 256.921204,245.086838 
	C282.043182,243.832596 307.080292,241.803085 331.407715,234.923035 
	C336.939148,233.358673 342.455933,231.085190 347.355194,228.110092 
	C353.414124,224.430801 353.223145,219.480942 347.425537,215.602463 
	C344.687439,213.770752 341.691803,212.125290 338.582977,211.077744 
	C312.457336,202.274429 285.337921,199.895645 257.194214,199.274826 
	C257.103821,211.178192 257.013458,223.081558 256.230560,235.447266 
z"/>
<path fill="#39A587" opacity="1.000000" stroke="none" 
	d="
M257.147400,359.647095 
	C256.926056,325.320587 256.894073,290.625671 256.980896,255.477158 
	C257.549286,255.566910 258.393524,256.111298 258.392059,256.653412 
	C258.305939,288.564514 258.162964,320.475494 257.973511,352.386169 
	C257.959869,354.684845 257.558044,356.981262 257.147400,359.647095 
z"/>
<path fill="#3BA688" opacity="1.000000" stroke="none" 
	d="
M257.314484,164.804626 
	C256.097748,161.170883 258.729523,161.522980 261.098419,161.524002 
	C274.228851,161.529724 287.359314,161.520691 300.489746,161.526672 
	C310.794525,161.531372 321.099274,161.550537 331.920135,161.614670 
	C329.856659,162.113022 327.279114,162.933472 324.697174,162.947556 
	C304.897430,163.055603 285.096436,162.949326 265.296906,163.077637 
	C262.742645,163.094193 260.194641,164.073502 257.314484,164.804626 
z"/>
<path fill="#3BA688" opacity="1.000000" stroke="none" 
	d="
M126.411789,161.910889 
	C150.229675,161.636276 174.392288,161.584915 198.554932,161.570724 
	C199.344284,161.570267 200.133881,161.948639 201.065826,162.597412 
	C178.660568,163.031906 156.112747,163.043945 133.565216,162.969177 
	C131.294769,162.961639 129.026047,162.428894 126.411789,161.910889 
z"/>
<path fill="#3AA688" opacity="1.000000" stroke="none" 
	d="
M124.831429,153.295715 
	C125.035324,154.392609 125.076416,155.781357 125.055893,157.583145 
	C124.885742,156.526642 124.777184,155.057098 124.831429,153.295715 
z"/>
<path fill="#3AA688" opacity="1.000000" stroke="none" 
	d="
M124.829330,146.293716 
	C125.036163,147.392212 125.076744,148.781036 125.055786,150.583038 
	C124.883858,149.525482 124.773468,148.054779 124.829330,146.293716 
z"/>
<path fill="#3AA688" opacity="1.000000" stroke="none" 
	d="
M124.831390,138.296021 
	C125.038063,139.393051 125.081886,140.782242 125.060638,142.584076 
	C124.886566,141.527206 124.777550,140.057693 124.831390,138.296021 
z"/>
<path fill="#3AA688" opacity="1.000000" stroke="none" 
	d="
M124.829330,131.293716 
	C125.036163,132.392212 125.076744,133.781036 125.055786,135.583038 
	C124.883858,134.525482 124.773468,133.054779 124.829330,131.293716 
z"/>
<path fill="#3AA688" opacity="1.000000" stroke="none" 
	d="
M124.831367,123.296158 
	C125.038063,124.393158 125.081879,125.782295 125.060646,127.584045 
	C124.886559,126.527214 124.777527,125.057755 124.831367,123.296158 
z"/>
<path fill="#3AA688" opacity="1.000000" stroke="none" 
	d="
M124.829361,116.293846 
	C125.036194,117.392258 125.076759,118.780983 125.055786,120.582840 
	C124.883858,119.525375 124.773476,118.054764 124.829361,116.293846 
z"/>
<path fill="#3BA688" opacity="1.000000" stroke="none" 
	d="
M200.967880,192.997116 
	C201.195175,193.154526 201.222946,193.332962 201.124863,193.751129 
	C200.627121,193.845581 200.255234,193.700302 199.883347,193.555038 
	C200.178360,193.376083 200.473373,193.197128 200.967880,192.997116 
z"/>
<path fill="#3BA688" opacity="1.000000" stroke="none" 
	d="
M258.079010,194.103821 
	C257.709045,193.586868 257.279388,192.702469 256.919250,191.408234 
	C257.332275,191.911057 257.675812,192.823700 258.079010,194.103821 
z"/>
<path fill="#44A98C" opacity="1.000000" stroke="none" 
	d="
M201.013458,255.138245 
	C201.116531,255.170197 201.197433,255.337280 201.234283,255.779358 
	C201.043472,255.811188 200.977158,255.550873 201.013458,255.138245 
z"/>
<path fill="#38A586" opacity="1.000000" stroke="none" 
	d="
M202.123505,361.001587 
	C202.000641,360.985168 202.495407,360.971588 202.737518,361.022827 
	C202.731705,361.084930 202.487274,361.066254 202.123505,361.001587 
z"/>
<path fill="#3BA688" opacity="1.000000" stroke="none" 
	d="
M257.006348,188.875305 
	C256.951416,188.834000 256.914062,188.666992 256.932739,188.249512 
	C257.046600,188.249191 257.058289,188.499390 257.006348,188.875305 
z"/>
<path fill="#3BA688" opacity="1.000000" stroke="none" 
	d="
M257.006348,185.875320 
	C256.951416,185.834030 256.914062,185.667038 256.932739,185.249542 
	C257.046600,185.249207 257.058289,185.499390 257.006348,185.875320 
z"/>
<path fill="#3BA688" opacity="1.000000" stroke="none" 
	d="
M257.006348,182.874847 
	C256.951965,182.833694 256.914398,182.666702 256.931396,182.248825 
	C257.043762,182.248108 257.056152,182.498444 257.006348,182.874847 
z"/>
<path fill="#3BA688" opacity="1.000000" stroke="none" 
	d="
M257.003174,179.876129 
	C256.949249,179.834732 256.912628,179.667374 256.930939,179.248993 
	C257.042938,179.248672 257.054474,179.499390 257.003174,179.876129 
z"/>
<path fill="#3BA688" opacity="1.000000" stroke="none" 
	d="
M257.003174,176.876129 
	C256.949219,176.834732 256.912598,176.667374 256.930908,176.249023 
	C257.042908,176.248703 257.054443,176.499420 257.003174,176.876129 
z"/>
<path fill="#3BA688" opacity="1.000000" stroke="none" 
	d="
M257.002808,173.876205 
	C256.948853,173.834824 256.912170,173.667435 256.930328,173.248917 
	C257.042358,173.248550 257.053955,173.499344 257.002808,173.876205 
z"/>
<path fill="#3BA688" opacity="1.000000" stroke="none" 
	d="
M257.001953,170.876343 
	C256.947968,170.834915 256.911285,170.667450 256.929565,170.248810 
	C257.041748,170.248474 257.053314,170.499374 257.001953,170.876343 
z"/>
<path fill="#3BA688" opacity="1.000000" stroke="none" 
	d="
M257.001892,167.876404 
	C256.947937,167.834991 256.911285,167.667511 256.929626,167.248856 
	C257.041748,167.248520 257.053284,167.499405 257.001892,167.876404 
z"/>
<path fill="#3AA688" opacity="1.000000" stroke="none" 
	d="
M124.998734,160.126038 
	C124.994553,160.003632 125.118996,160.477661 125.123169,160.722641 
	C125.056702,160.731567 125.015228,160.491852 124.998734,160.126038 
z"/>
<path fill="#39A587" opacity="1.000000" stroke="none" 
	d="
M333.036041,159.866562 
	C332.987549,159.826843 332.951324,159.663055 332.961792,159.252014 
	C333.062225,159.250397 333.075531,159.496292 333.036041,159.866562 
z"/>
<path fill="#3AA688" opacity="1.000000" stroke="none" 
	d="
M124.962029,112.134033 
	C125.014511,112.173668 125.052170,112.337440 125.043015,112.748856 
	C124.934242,112.751320 124.917915,112.505203 124.962029,112.134033 
z"/>
<path fill="#39A587" opacity="1.000000" stroke="none" 
	d="
M332.999481,111.874542 
	C333.008148,111.995171 332.883667,111.527367 332.877747,111.285645 
	C332.933777,111.277931 332.973450,111.514595 332.999481,111.874542 
z"/>
<path fill="#54AF95" opacity="1.000000" stroke="none" 
	d="
M203.006622,244.972046 
	C174.562149,243.847122 146.245224,241.808975 119.050964,232.416473 
	C115.948784,231.345032 112.865219,229.823578 110.224968,227.892776 
	C104.617668,223.792206 104.563530,219.254211 110.529625,215.752533 
	C115.769119,212.677322 121.492531,209.995529 127.349113,208.484634 
	C144.077545,204.168991 160.984985,200.812210 178.444763,200.875259 
	C185.316727,200.900055 192.193741,199.522186 199.571869,198.997772 
	C200.374237,199.197784 200.673187,199.183121 200.972153,199.168457 
	C201.159668,208.916870 201.355209,218.665146 201.528748,228.413803 
	C201.569138,230.682068 201.534729,232.951645 201.534729,235.447266 
	C220.234055,235.447266 238.232315,235.447266 256.771851,234.852539 
	C257.542908,232.460892 257.958954,230.665283 257.971466,228.866867 
	C258.040741,218.885132 258.011993,208.902725 258.016785,198.920547 
	C285.337921,199.895645 312.457336,202.274429 338.582977,211.077744 
	C341.691803,212.125290 344.687439,213.770752 347.425537,215.602463 
	C353.223145,219.480942 353.414124,224.430801 347.355194,228.110092 
	C342.455933,231.085190 336.939148,233.358673 331.407715,234.923035 
	C307.080292,241.803085 282.043182,243.832596 256.135254,244.863129 
	C253.229370,244.773102 251.109406,244.906784 248.989441,245.040466 
	C248.552856,245.088425 248.116287,245.136398 246.985840,244.930267 
	C236.270111,244.447617 226.248978,244.143265 216.225845,244.045593 
	C213.818085,244.022125 211.403610,244.684769 208.992233,245.031860 
	C208.242432,245.077225 207.492630,245.122620 206.141846,244.946289 
	C204.696106,244.807053 203.851364,244.889557 203.006622,244.972046 
z"/>
<path fill="#4BAC90" opacity="1.000000" stroke="none" 
	d="
M209.404327,245.112488 
	C211.403610,244.684769 213.818085,244.022125 216.225845,244.045593 
	C226.248978,244.143265 236.270111,244.447617 246.659561,244.869354 
	C234.623566,245.106079 222.219986,245.149597 209.404327,245.112488 
z"/>
<path fill="#39A587" opacity="1.000000" stroke="none" 
	d="
M257.605499,199.097687 
	C258.011993,208.902725 258.040741,218.885132 257.971466,228.866867 
	C257.958954,230.665283 257.542908,232.460892 257.118103,234.621368 
	C257.013458,223.081558 257.103821,211.178192 257.605499,199.097687 
z"/>
<path fill="#4BAC90" opacity="1.000000" stroke="none" 
	d="
M249.424362,245.105286 
	C251.109406,244.906784 253.229370,244.773102 255.673126,244.815552 
	C253.951035,245.051163 251.905151,245.110641 249.424362,245.105286 
z"/>
<path fill="#4BAC90" opacity="1.000000" stroke="none" 
	d="
M203.374893,245.062561 
	C203.851364,244.889557 204.696106,244.807053 205.772522,244.869354 
	C205.250504,245.060471 204.496841,245.106766 203.374893,245.062561 
z"/>
<path fill="#43A98C" opacity="1.000000" stroke="none" 
	d="
M200.751587,199.006927 
	C200.673187,199.183121 200.374237,199.197784 200.032990,199.070892 
	C200.170792,198.901352 200.350891,198.873367 200.751587,199.006927 
z"/>
</svg>