<svg version="1.1" id="Layer_1" xmlns="http://www.w3.org/2000/svg" xmlns:xlink="http://www.w3.org/1999/xlink" x="0px" y="0px"
	 width="100%" viewBox="0 0 2000 2000" enable-background="new 0 0 2000 2000" xml:space="preserve">
<path fill="#2775CA" opacity="1.000000" stroke="none" 
	d="
M1065.000000,2001.000000 
	C1022.645752,2001.000000 980.291565,2001.000000 937.606445,2000.579224 
	C935.596375,1999.772339 933.932373,1999.151733 932.235229,1999.041138 
	C925.473206,1998.600830 918.668701,1998.623779 911.938904,1997.915527 
	C898.231628,1996.472900 884.552917,1994.741699 870.880249,1992.990234 
	C858.204712,1991.366699 845.482361,1989.958618 832.907227,1987.738159 
	C816.683167,1984.873535 800.457886,1981.816162 784.461121,1977.908447 
	C756.935059,1971.184082 729.423584,1964.295776 702.216675,1956.405151 
	C683.120117,1950.866699 664.302307,1944.153320 645.786438,1936.879150 
	C620.787048,1927.057861 595.863525,1916.909912 571.529907,1905.566895 
	C549.439453,1895.269653 527.699280,1884.008301 506.680206,1871.679565 
	C480.496613,1856.321655 455.024139,1839.719360 429.588409,1823.127441 
	C402.339752,1805.352661 376.835602,1785.208862 352.337036,1763.815186 
	C337.531403,1750.885986 322.387451,1738.283325 308.322388,1724.582520 
	C291.204681,1707.907959 274.770599,1690.500610 258.591400,1672.903931 
	C246.320511,1659.558228 234.451813,1645.782593 223.229599,1631.547485 
	C207.614914,1611.740967 191.922791,1591.900024 177.813889,1571.026123 
	C160.368729,1545.216309 143.534454,1518.883545 128.248505,1491.755615 
	C113.395889,1465.396729 99.914566,1438.159302 87.530907,1410.545288 
	C75.527885,1383.779907 65.129440,1356.248169 55.084499,1328.667480 
	C47.847698,1308.797119 41.453430,1288.519653 36.281082,1268.020752 
	C28.460770,1237.027832 21.533398,1205.784302 15.209355,1174.448853 
	C11.750671,1157.311279 10.010615,1139.800171 8.045601,1122.395264 
	C6.016023,1104.418579 4.684393,1086.363647 2.926771,1068.354614 
	C2.812605,1067.184937 1.666211,1066.115845 0.999990,1065.000000 
	C1.000000,1022.645752 1.000000,980.291565 1.418966,937.619385 
	C2.558434,930.859558 3.377844,924.426758 3.977929,917.973572 
	C5.074841,906.177551 5.682710,894.324585 7.151933,882.577576 
	C9.100594,866.997131 11.369199,851.441345 14.065404,835.973511 
	C17.540562,816.036987 20.963127,796.057007 25.500427,776.347168 
	C34.027306,739.306946 43.853024,702.566284 57.188942,666.932068 
	C67.241776,640.070435 77.669334,613.303955 89.215096,587.060364 
	C98.644592,565.627197 109.446869,544.744263 120.607697,524.141357 
	C132.046692,503.024811 144.106064,482.196075 156.887192,461.865814 
	C177.532074,429.027100 200.241638,397.572937 225.004028,367.712585 
	C241.438461,347.894714 258.529541,328.585419 276.028290,309.698486 
	C287.988373,296.789673 300.833588,284.644836 313.863708,272.796997 
	C332.533325,255.821442 351.337189,238.947235 370.823975,222.930420 
	C388.150177,208.689514 406.230255,195.322754 424.428345,182.195007 
	C458.164581,157.858292 493.576050,136.092316 530.519287,117.021179 
	C555.637878,104.054291 581.239807,91.917908 607.164856,80.650948 
	C630.011841,70.721741 653.428894,62.010288 676.927734,53.704964 
	C695.510193,47.137272 714.424377,41.326916 733.505127,36.394455 
	C759.548340,29.662174 785.754822,23.395779 812.144470,18.220400 
	C834.445190,13.846916 857.057739,10.926323 879.623169,8.083491 
	C897.562134,5.823504 915.641418,4.683937 933.646606,2.926533 
	C934.815979,2.812399 935.884521,1.666147 937.000000,1.000002 
	C979.354248,1.000000 1021.708496,1.000000 1064.387207,1.419656 
	C1065.392090,2.216405 1066.050415,2.872731 1066.755981,2.928379 
	C1076.122559,3.667089 1085.513428,4.138129 1094.863403,5.037919 
	C1110.733032,6.565130 1126.652466,7.841581 1142.413940,10.157041 
	C1161.163452,12.911468 1179.778320,16.594522 1198.433228,19.976376 
	C1230.910278,25.863991 1262.861206,33.973347 1294.329102,43.839863 
	C1315.172974,50.375359 1335.954712,57.260620 1356.314819,65.149208 
	C1380.833374,74.648972 1405.161499,84.758072 1429.036865,95.764229 
	C1449.421387,105.161186 1469.260742,115.814865 1488.948608,126.627426 
	C1506.381836,136.201752 1523.609131,146.240097 1540.332153,156.998810 
	C1570.306885,176.283051 1599.741943,196.411789 1626.969604,219.513489 
	C1649.054565,238.251709 1671.212158,256.932434 1692.642212,276.403961 
	C1705.646240,288.219574 1717.685059,301.166046 1729.518799,314.184967 
	C1746.375732,332.730377 1763.123779,351.416565 1779.025391,370.776001 
	C1793.353516,388.219910 1806.851440,406.383301 1820.055786,424.704742 
	C1843.998413,457.925507 1865.107422,492.965393 1884.462280,529.022156 
	C1893.206299,545.311768 1900.932617,562.153503 1908.942261,578.830444 
	C1924.022705,610.229431 1936.652100,642.641724 1947.928223,675.563232 
	C1959.237549,708.582153 1968.950684,742.080872 1976.126953,776.273193 
	C1979.744263,793.508728 1983.838623,810.661316 1986.849121,828.002197 
	C1989.817505,845.101440 1991.992554,862.356445 1993.959473,879.606506 
	C1995.989014,897.405396 1997.312866,915.284058 1999.070435,933.115540 
	C1999.203125,934.460693 2000.333496,935.707458 2001.000000,937.000000 
	C2001.000000,979.354248 2001.000000,1021.708496 2000.578613,1064.394165 
	C1999.781128,1065.405762 1999.129517,1066.062866 1999.069946,1066.769653 
	C1998.005005,1079.402222 1997.143799,1092.053223 1995.965942,1104.674683 
	C1994.790405,1117.270142 1993.822266,1129.917969 1991.852051,1142.398804 
	C1988.645630,1162.710571 1984.800659,1182.924316 1981.040039,1203.144897 
	C1974.142578,1240.231812 1964.179810,1276.553833 1952.620728,1312.411011 
	C1939.924805,1351.794800 1925.221313,1390.493042 1906.871338,1427.587769 
	C1891.627930,1458.402466 1875.473999,1488.824951 1858.346069,1518.629639 
	C1846.141235,1539.867065 1832.402588,1560.338135 1817.985107,1580.159668 
	C1800.814209,1603.766357 1782.625366,1626.675659 1764.045044,1649.200439 
	C1749.978882,1666.252563 1735.055542,1682.661133 1719.687622,1698.557495 
	C1704.950562,1713.801025 1689.304565,1728.182617 1673.764038,1742.626831 
	C1662.645508,1752.961060 1651.465942,1763.311035 1639.562134,1772.701294 
	C1617.588013,1790.035156 1595.507202,1807.299072 1572.659424,1823.443726 
	C1540.579102,1846.112183 1507.047729,1866.621826 1472.170288,1884.721436 
	C1449.639160,1896.413818 1426.602295,1907.171753 1403.514282,1917.741699 
	C1368.424561,1933.806152 1332.221069,1947.097900 1295.191528,1957.867065 
	C1268.292358,1965.689941 1241.043213,1972.375244 1213.784912,1978.874878 
	C1196.842529,1982.914673 1179.650024,1986.011230 1162.460449,1988.875732 
	C1149.040527,1991.111938 1135.474609,1992.552002 1121.933594,1993.962402 
	C1103.935425,1995.837646 1085.895752,1997.312256 1067.885254,1999.075806 
	C1066.870361,1999.175171 1065.959351,2000.334229 1065.000000,2001.000000 
M1176.904053,983.640564 
	C1165.074951,978.763916 1153.432251,973.358704 1141.381226,969.112000 
	C1108.181519,957.412720 1073.686523,951.195862 1038.986084,946.031189 
	C1020.424072,943.268494 1001.771179,941.051819 983.284302,937.863708 
	C958.977844,933.671997 935.053955,927.884399 912.630676,917.138000 
	C889.253174,905.934326 872.144592,889.367432 866.247864,863.125793 
	C862.355591,845.804260 861.806152,828.539429 865.924500,811.126282 
	C870.591797,791.392029 880.542847,775.191284 896.812073,763.000671 
	C915.780396,748.787415 937.752258,742.709717 960.819641,740.100464 
	C984.606506,737.409851 1008.402527,737.834717 1032.015503,742.056213 
	C1060.084839,747.074402 1084.621826,758.604919 1102.829224,781.436279 
	C1113.454712,794.760315 1120.418945,809.968079 1126.036011,825.926819 
	C1130.385254,838.283630 1141.522583,846.639648 1154.414551,846.784485 
	C1177.242554,847.040955 1200.093018,847.403198 1222.901123,846.680603 
	C1243.378296,846.031921 1253.732788,829.618652 1250.513428,811.817444 
	C1234.258545,721.939697 1159.621460,652.957520 1068.755615,643.294434 
	C1064.292847,642.819824 1063.398315,641.361877 1063.419312,637.254578 
	C1063.575439,606.758423 1063.536743,576.260986 1063.489380,545.764099 
	C1063.457764,525.346558 1048.122437,509.571747 1027.671997,509.307312 
	C1007.843994,509.050964 988.009766,509.208618 968.178650,509.279205 
	C959.842468,509.308868 952.393555,511.953552 946.546936,518.046204 
	C938.756409,526.164490 934.339050,535.906006 934.286865,547.227905 
	C934.153992,576.057739 934.181335,604.888977 934.317627,633.718750 
	C934.335083,637.417053 933.435303,638.877625 929.501892,639.331604 
	C922.410339,640.150085 915.359253,641.539551 908.382812,643.099670 
	C862.296997,653.405945 820.869629,672.774109 786.908020,706.337280 
	C751.984497,740.851196 733.652283,783.102844 730.167175,831.721375 
	C728.641907,852.998840 730.894958,874.250732 735.051941,895.223572 
	C743.370239,937.191772 763.942139,971.421448 798.980713,996.550049 
	C822.523315,1013.434204 848.747986,1024.622314 876.269836,1033.029663 
	C910.686584,1043.543213 945.991943,1049.569946 981.598633,1054.381958 
	C998.715332,1056.695068 1015.698730,1060.335205 1032.545044,1064.228638 
	C1056.734497,1069.818970 1080.565063,1076.697510 1102.157959,1089.537720 
	C1121.176636,1100.847168 1134.890991,1116.532227 1139.334961,1138.577026 
	C1141.442993,1149.034912 1141.531128,1159.957153 1141.927002,1170.691284 
	C1142.733643,1192.555298 1135.543701,1212.083496 1122.448486,1229.212402 
	C1096.095459,1263.682373 1058.903809,1276.624878 1017.486938,1279.789551 
	C1004.308044,1280.796509 990.862732,1280.145874 977.683533,1278.820068 
	C963.760925,1277.419434 949.762756,1275.260742 936.236206,1271.745605 
	C907.995667,1264.406860 884.181519,1249.886841 867.594360,1225.094482 
	C856.965210,1209.207642 851.028137,1191.475708 847.014221,1172.952759 
	C843.609558,1157.241699 832.575806,1147.097900 818.330933,1146.976440 
	C794.002319,1146.768799 769.668152,1146.732422 745.340881,1147.013550 
	C730.190735,1147.188599 718.146606,1158.864746 718.041504,1173.934570 
	C717.986450,1181.817383 719.403809,1189.835693 721.103333,1197.584961 
	C731.409485,1244.575684 752.843140,1285.364258 789.376526,1317.397583 
	C822.064697,1346.059448 860.718872,1362.824341 902.513672,1372.994263 
	C914.267334,1375.854248 926.193848,1378.004517 938.495544,1380.575317 
	C938.495544,1382.587402 938.495483,1384.554565 938.495544,1386.521851 
	C938.496887,1416.685547 938.464722,1446.849243 938.511169,1477.012939 
	C938.542664,1497.452271 953.740234,1513.163086 974.289978,1513.489868 
	C993.949585,1513.802490 1013.618164,1513.562256 1033.282837,1513.534546 
	C1041.225708,1513.523438 1048.495239,1511.391235 1054.341309,1505.825073 
	C1062.796021,1497.775391 1067.575684,1487.769165 1067.673340,1476.119751 
	C1067.924683,1446.124756 1067.757568,1416.126465 1067.757568,1386.129395 
	C1067.757568,1384.176270 1067.757568,1382.223267 1067.757568,1380.302612 
	C1073.560181,1379.120850 1078.788818,1378.149414 1083.974365,1376.985596 
	C1134.801880,1365.578003 1180.147827,1343.750488 1216.783813,1305.958984 
	C1251.694824,1269.946899 1271.608643,1226.816772 1274.959961,1176.688843 
	C1276.028931,1160.700806 1274.749878,1144.514648 1273.931519,1128.450562 
	C1272.449463,1099.363647 1264.377075,1072.124390 1249.364746,1047.101685 
	C1232.174072,1018.447937 1207.057983,998.701477 1176.904053,983.640564 
M1678.930054,1341.382568 
	C1706.423462,1284.120361 1726.248535,1224.304321 1738.778564,1162.043457 
	C1747.628296,1118.069824 1751.857422,1073.595459 1752.867065,1028.818970 
	C1753.491333,1001.131958 1752.333374,973.478027 1749.043579,945.937500 
	C1747.436279,932.481689 1746.642822,918.916443 1744.683838,905.517273 
	C1739.428833,869.572083 1731.698975,834.128662 1720.932617,799.422974 
	C1659.791016,602.330261 1539.028809,453.431061 1359.062256,352.574646 
	C1316.687012,328.826782 1271.843994,310.641846 1225.896118,295.120117 
	C1216.977539,292.107330 1208.071289,292.855011 1201.133057,299.651398 
	C1194.032593,306.606842 1188.962280,315.304840 1188.731689,325.455994 
	C1188.255005,346.443695 1188.765625,367.452087 1188.461060,388.446014 
	C1188.224243,404.768311 1204.616211,427.299194 1220.476318,433.064026 
	C1292.804810,459.353882 1357.670654,498.484802 1415.020508,549.768494 
	C1498.818848,624.703125 1558.062256,715.842896 1593.080811,822.639587 
	C1605.957642,861.910095 1615.341553,902.000000 1619.016479,943.283813 
	C1620.350098,958.264465 1622.558960,973.224304 1622.872559,988.224854 
	C1623.313354,1009.315857 1622.792114,1030.454956 1621.861938,1051.537354 
	C1621.154785,1067.563965 1619.790771,1083.618652 1617.634521,1099.513672 
	C1611.640625,1143.698120 1600.215698,1186.535522 1585.020386,1228.458862 
	C1541.954712,1347.276245 1469.589966,1444.090820 1367.685913,1518.787109 
	C1321.080933,1552.949219 1270.431763,1579.625854 1216.381470,1600.002075 
	C1199.577148,1606.337036 1189.755005,1618.679321 1188.936035,1636.910645 
	C1188.285889,1651.382080 1188.531128,1665.897217 1188.523438,1680.392944 
	C1188.518677,1689.220093 1188.299561,1698.088623 1189.038452,1706.865967 
	C1190.461060,1723.764038 1204.734375,1735.996094 1220.547607,1733.816528 
	C1225.330444,1733.157471 1229.784790,1730.351807 1234.485352,1728.824341 
	C1281.141235,1713.662476 1326.116211,1694.567139 1368.898438,1670.548096 
	C1506.369629,1593.367554 1609.346191,1483.584717 1678.930054,1341.382568 
M619.516479,1657.984619 
	C669.153503,1687.330933 721.861511,1709.797119 776.523499,1727.825806 
	C786.298218,1731.049561 795.830444,1729.575928 802.569885,1721.476685 
	C808.690796,1714.120483 813.494019,1705.697632 813.459656,1695.442749 
	C813.394897,1676.112183 813.521118,1656.781006 813.490234,1637.450195 
	C813.463501,1620.761597 799.229797,1600.761230 783.477234,1594.939941 
	C705.803711,1566.235596 636.398254,1523.935059 576.047485,1467.242554 
	C488.279480,1384.794434 429.338715,1285.002563 398.368073,1168.666138 
	C388.212158,1130.517090 381.515533,1091.662476 379.372101,1052.340698 
	C377.819305,1023.854187 378.879700,995.142456 380.287140,966.605774 
	C381.246796,947.147583 384.161041,927.709839 387.344421,908.451965 
	C395.965149,856.301208 411.950043,806.261841 433.193573,757.969299 
	C481.985657,647.051208 557.441833,558.512024 658.351318,491.577301 
	C698.187561,465.153351 740.712036,444.029633 785.386963,427.095306 
	C802.387268,420.651245 812.122864,408.265076 813.112366,389.833160 
	C813.612000,380.525024 813.506409,371.178192 813.478577,361.849457 
	C813.437317,348.022614 813.820435,334.157623 812.929321,320.379578 
	C811.816345,303.171936 797.176819,290.851837 781.202454,293.192993 
	C776.581238,293.870239 772.298279,296.621674 767.755066,298.098724 
	C664.453125,331.683563 572.281799,384.507385 492.114838,457.924957 
	C407.946899,535.006653 344.931305,626.795044 302.409149,732.641968 
	C279.995239,788.435181 264.502167,846.167419 256.415955,905.739441 
	C253.017639,930.775208 250.115646,956.015381 249.348236,981.234497 
	C248.496292,1009.231445 250.128235,1037.317749 251.105164,1065.350342 
	C251.524979,1077.396484 252.483093,1089.480469 254.153107,1101.413330 
	C256.583496,1118.779175 259.624908,1136.071411 262.852509,1153.311401 
	C272.315857,1203.859619 287.033142,1252.877197 307.135803,1300.199707 
	C372.146027,1453.236328 475.908112,1572.549072 619.516479,1657.984619 
z"/>
<path fill="#FFFFFF" opacity="1.000000" stroke="none" 
	d="
M1177.241455,983.803711 
	C1207.057983,998.701477 1232.174072,1018.447937 1249.364746,1047.101685 
	C1264.377075,1072.124390 1272.449463,1099.363647 1273.931519,1128.450562 
	C1274.749878,1144.514648 1276.028931,1160.700806 1274.959961,1176.688843 
	C1271.608643,1226.816772 1251.694824,1269.946899 1216.783813,1305.958984 
	C1180.147827,1343.750488 1134.801880,1365.578003 1083.974365,1376.985596 
	C1078.788818,1378.149414 1073.560181,1379.120850 1067.757568,1380.302612 
	C1067.757568,1382.223267 1067.757568,1384.176270 1067.757568,1386.129395 
	C1067.757568,1416.126465 1067.924683,1446.124756 1067.673340,1476.119751 
	C1067.575684,1487.769165 1062.796021,1497.775391 1054.341309,1505.825073 
	C1048.495239,1511.391235 1041.225708,1513.523438 1033.282837,1513.534546 
	C1013.618164,1513.562256 993.949585,1513.802490 974.289978,1513.489868 
	C953.740234,1513.163086 938.542664,1497.452271 938.511169,1477.012939 
	C938.464722,1446.849243 938.496887,1416.685547 938.495544,1386.521851 
	C938.495483,1384.554565 938.495544,1382.587402 938.495544,1380.575317 
	C926.193848,1378.004517 914.267334,1375.854248 902.513672,1372.994263 
	C860.718872,1362.824341 822.064697,1346.059448 789.376526,1317.397583 
	C752.843140,1285.364258 731.409485,1244.575684 721.103333,1197.584961 
	C719.403809,1189.835693 717.986450,1181.817383 718.041504,1173.934570 
	C718.146606,1158.864746 730.190735,1147.188599 745.340881,1147.013550 
	C769.668152,1146.732422 794.002319,1146.768799 818.330933,1146.976440 
	C832.575806,1147.097900 843.609558,1157.241699 847.014221,1172.952759 
	C851.028137,1191.475708 856.965210,1209.207642 867.594360,1225.094482 
	C884.181519,1249.886841 907.995667,1264.406860 936.236206,1271.745605 
	C949.762756,1275.260742 963.760925,1277.419434 977.683533,1278.820068 
	C990.862732,1280.145874 1004.308044,1280.796509 1017.486938,1279.789551 
	C1058.903809,1276.624878 1096.095459,1263.682373 1122.448486,1229.212402 
	C1135.543701,1212.083496 1142.733643,1192.555298 1141.927002,1170.691284 
	C1141.531128,1159.957153 1141.442993,1149.034912 1139.334961,1138.577026 
	C1134.890991,1116.532227 1121.176636,1100.847168 1102.157959,1089.537720 
	C1080.565063,1076.697510 1056.734497,1069.818970 1032.545044,1064.228638 
	C1015.698730,1060.335205 998.715332,1056.695068 981.598633,1054.381958 
	C945.991943,1049.569946 910.686584,1043.543213 876.269836,1033.029663 
	C848.747986,1024.622314 822.523315,1013.434204 798.980713,996.550049 
	C763.942139,971.421448 743.370239,937.191772 735.051941,895.223572 
	C730.894958,874.250732 728.641907,852.998840 730.167175,831.721375 
	C733.652283,783.102844 751.984497,740.851196 786.908020,706.337280 
	C820.869629,672.774109 862.296997,653.405945 908.382812,643.099670 
	C915.359253,641.539551 922.410339,640.150085 929.501892,639.331604 
	C933.435303,638.877625 934.335083,637.417053 934.317627,633.718750 
	C934.181335,604.888977 934.153992,576.057739 934.286865,547.227905 
	C934.339050,535.906006 938.756409,526.164490 946.546936,518.046204 
	C952.393555,511.953552 959.842468,509.308868 968.178650,509.279205 
	C988.009766,509.208618 1007.843994,509.050964 1027.671997,509.307312 
	C1048.122437,509.571747 1063.457764,525.346558 1063.489380,545.764099 
	C1063.536743,576.260986 1063.575439,606.758423 1063.419312,637.254578 
	C1063.398315,641.361877 1064.292847,642.819824 1068.755615,643.294434 
	C1159.621460,652.957520 1234.258545,721.939697 1250.513428,811.817444 
	C1253.732788,829.618652 1243.378296,846.031921 1222.901123,846.680603 
	C1200.093018,847.403198 1177.242554,847.040955 1154.414551,846.784485 
	C1141.522583,846.639648 1130.385254,838.283630 1126.036011,825.926819 
	C1120.418945,809.968079 1113.454712,794.760315 1102.829224,781.436279 
	C1084.621826,758.604919 1060.084839,747.074402 1032.015503,742.056213 
	C1008.402527,737.834717 984.606506,737.409851 960.819641,740.100464 
	C937.752258,742.709717 915.780396,748.787415 896.812073,763.000671 
	C880.542847,775.191284 870.591797,791.392029 865.924500,811.126282 
	C861.806152,828.539429 862.355591,845.804260 866.247864,863.125793 
	C872.144592,889.367432 889.253174,905.934326 912.630676,917.138000 
	C935.053955,927.884399 958.977844,933.671997 983.284302,937.863708 
	C1001.771179,941.051819 1020.424072,943.268494 1038.986084,946.031189 
	C1073.686523,951.195862 1108.181519,957.412720 1141.381226,969.112000 
	C1153.432251,973.358704 1165.074951,978.763916 1177.241455,983.803711 
z"/>
<path fill="#FFFFFF" opacity="1.000000" stroke="none" 
	d="
M1678.773560,1341.721924 
	C1609.346191,1483.584717 1506.369629,1593.367554 1368.898438,1670.548096 
	C1326.116211,1694.567139 1281.141235,1713.662476 1234.485352,1728.824341 
	C1229.784790,1730.351807 1225.330444,1733.157471 1220.547607,1733.816528 
	C1204.734375,1735.996094 1190.461060,1723.764038 1189.038452,1706.865967 
	C1188.299561,1698.088623 1188.518677,1689.220093 1188.523438,1680.392944 
	C1188.531128,1665.897217 1188.285889,1651.382080 1188.936035,1636.910645 
	C1189.755005,1618.679321 1199.577148,1606.337036 1216.381470,1600.002075 
	C1270.431763,1579.625854 1321.080933,1552.949219 1367.685913,1518.787109 
	C1469.589966,1444.090820 1541.954712,1347.276245 1585.020386,1228.458862 
	C1600.215698,1186.535522 1611.640625,1143.698120 1617.634521,1099.513672 
	C1619.790771,1083.618652 1621.154785,1067.563965 1621.861938,1051.537354 
	C1622.792114,1030.454956 1623.313354,1009.315857 1622.872559,988.224854 
	C1622.558960,973.224304 1620.350098,958.264465 1619.016479,943.283813 
	C1615.341553,902.000000 1605.957642,861.910095 1593.080811,822.639587 
	C1558.062256,715.842896 1498.818848,624.703125 1415.020508,549.768494 
	C1357.670654,498.484802 1292.804810,459.353882 1220.476318,433.064026 
	C1204.616211,427.299194 1188.224243,404.768311 1188.461060,388.446014 
	C1188.765625,367.452087 1188.255005,346.443695 1188.731689,325.455994 
	C1188.962280,315.304840 1194.032593,306.606842 1201.133057,299.651398 
	C1208.071289,292.855011 1216.977539,292.107330 1225.896118,295.120117 
	C1271.843994,310.641846 1316.687012,328.826782 1359.062256,352.574646 
	C1539.028809,453.431061 1659.791016,602.330261 1720.932617,799.422974 
	C1731.698975,834.128662 1739.428833,869.572083 1744.683838,905.517273 
	C1746.642822,918.916443 1747.436279,932.481689 1749.043579,945.937500 
	C1752.333374,973.478027 1753.491333,1001.131958 1752.867065,1028.818970 
	C1751.857422,1073.595459 1747.628296,1118.069824 1738.778564,1162.043457 
	C1726.248535,1224.304321 1706.423462,1284.120361 1678.773560,1341.721924 
z"/>
<path fill="#FFFFFF" opacity="1.000000" stroke="none" 
	d="
M619.199707,1657.803345 
	C475.908112,1572.549072 372.146027,1453.236328 307.135803,1300.199707 
	C287.033142,1252.877197 272.315857,1203.859619 262.852509,1153.311401 
	C259.624908,1136.071411 256.583496,1118.779175 254.153107,1101.413330 
	C252.483093,1089.480469 251.524979,1077.396484 251.105164,1065.350342 
	C250.128235,1037.317749 248.496292,1009.231445 249.348236,981.234497 
	C250.115646,956.015381 253.017639,930.775208 256.415955,905.739441 
	C264.502167,846.167419 279.995239,788.435181 302.409149,732.641968 
	C344.931305,626.795044 407.946899,535.006653 492.114838,457.924957 
	C572.281799,384.507385 664.453125,331.683563 767.755066,298.098724 
	C772.298279,296.621674 776.581238,293.870239 781.202454,293.192993 
	C797.176819,290.851837 811.816345,303.171936 812.929321,320.379578 
	C813.820435,334.157623 813.437317,348.022614 813.478577,361.849457 
	C813.506409,371.178192 813.612000,380.525024 813.112366,389.833160 
	C812.122864,408.265076 802.387268,420.651245 785.386963,427.095306 
	C740.712036,444.029633 698.187561,465.153351 658.351318,491.577301 
	C557.441833,558.512024 481.985657,647.051208 433.193573,757.969299 
	C411.950043,806.261841 395.965149,856.301208 387.344421,908.451965 
	C384.161041,927.709839 381.246796,947.147583 380.287140,966.605774 
	C378.879700,995.142456 377.819305,1023.854187 379.372101,1052.340698 
	C381.515533,1091.662476 388.212158,1130.517090 398.368073,1168.666138 
	C429.338715,1285.002563 488.279480,1384.794434 576.047485,1467.242554 
	C636.398254,1523.935059 705.803711,1566.235596 783.477234,1594.939941 
	C799.229797,1600.761230 813.463501,1620.761597 813.490234,1637.450195 
	C813.521118,1656.781006 813.394897,1676.112183 813.459656,1695.442749 
	C813.494019,1705.697632 808.690796,1714.120483 802.569885,1721.476685 
	C795.830444,1729.575928 786.298218,1731.049561 776.523499,1727.825806 
	C721.861511,1709.797119 669.153503,1687.330933 619.199707,1657.803345 
z"/>
</svg>