<svg version="1.1" id="Layer_1" xmlns="http://www.w3.org/2000/svg" xmlns:xlink="http://www.w3.org/1999/xlink" x="0px" y="0px"
	 width="100%" viewBox="0 0 2000 2000" enable-background="new 0 0 2000 2000" xml:space="preserve">
<path fill="#F0B90B" opacity="1.000000" stroke="none" 
	d="
M1064.000000,2001.000000 
	C1021.979126,2001.000000 979.958191,2001.000000 937.675537,2000.595825 
	C935.729614,1999.794434 934.061707,1999.157471 932.358459,1999.042358 
	C925.770142,1998.596558 919.144348,1998.577759 912.580994,1997.917969 
	C901.518005,1996.805908 890.492249,1995.323608 879.450134,1994.002808 
	C868.248047,1992.662720 856.975281,1991.748291 845.859436,1989.892456 
	C830.334595,1987.300781 814.812927,1984.494385 799.493469,1980.909912 
	C771.445740,1974.347656 743.348816,1967.847534 715.648560,1959.994751 
	C693.402649,1953.688232 671.408386,1946.203613 649.852234,1937.826904 
	C622.264160,1927.106323 595.101929,1915.251343 568.009338,1903.310913 
	C555.373108,1897.741943 543.223389,1891.024048 531.049255,1884.462891 
	C516.620483,1876.686523 502.102875,1869.004272 488.165680,1860.403076 
	C468.056854,1847.993042 448.224731,1835.103271 428.676819,1821.826050 
	C414.305664,1812.065063 400.313629,1801.693848 386.635559,1790.978394 
	C371.067749,1778.782715 355.733612,1766.247925 340.858337,1753.220825 
	C326.093140,1740.290039 311.828064,1726.767212 297.716248,1713.118896 
	C287.468964,1703.208252 277.801025,1692.696533 267.931793,1682.398315 
	C264.172119,1678.475098 260.434357,1674.515625 256.923950,1670.371582 
	C244.659821,1655.894165 232.285324,1641.502075 220.363205,1626.745972 
	C209.618805,1613.447388 198.993454,1600.012817 189.078033,1586.094971 
	C177.216721,1569.445801 165.542267,1552.599121 154.913376,1535.151855 
	C140.063385,1510.775635 125.982208,1485.916504 112.119804,1460.959717 
	C105.419487,1448.896973 99.800819,1436.218140 93.995026,1423.677979 
	C87.180649,1408.959717 79.848763,1394.401367 74.245033,1379.218750 
	C62.934513,1348.574097 51.852432,1317.798828 42.174976,1286.612305 
	C34.320034,1261.299194 28.412470,1235.365601 22.124907,1209.589233 
	C19.164850,1197.454346 17.118889,1185.079224 15.065522,1172.745117 
	C13.082525,1160.833740 11.569152,1148.842529 9.947673,1136.873169 
	C8.238048,1124.252808 6.378589,1111.644165 5.083009,1098.979370 
	C4.010706,1088.497192 3.706075,1077.937744 2.916220,1067.423462 
	C2.852301,1066.572510 1.665189,1065.805786 1.000003,1065.000000 
	C1.000000,1022.645752 1.000000,980.291565 1.359091,937.799805 
	C2.142290,936.810364 2.866486,935.985352 2.945907,935.102356 
	C4.343269,919.566772 5.327995,903.986145 7.087352,888.493103 
	C9.019112,871.481934 11.289416,854.490906 14.067626,837.598938 
	C17.362179,817.567627 20.371920,797.405823 25.277048,777.742615 
	C32.674313,748.089294 41.325420,718.735474 50.013855,689.423401 
	C53.951679,676.138367 58.815269,663.078979 64.035980,650.233032 
	C75.189590,622.788513 86.367058,595.333557 98.481995,568.307495 
	C105.845802,551.880310 114.625229,536.049011 123.408951,520.307312 
	C133.220367,502.723938 143.239838,485.213501 154.106369,468.272736 
	C168.043030,446.545746 182.398758,425.044312 197.550003,404.153595 
	C209.214584,388.070312 222.216248,372.938660 234.939590,357.646973 
	C245.539398,344.907501 256.244904,332.219879 267.551910,320.114868 
	C279.391663,307.439545 291.879181,295.357452 304.319061,283.258209 
	C314.387207,273.465729 324.632080,263.838776 335.114288,254.492508 
	C346.360291,244.465240 357.659088,234.449387 369.498993,225.146561 
	C390.214386,208.870056 410.845612,192.402557 432.445068,177.354187 
	C466.801453,153.418045 502.652252,131.760956 539.960510,112.687378 
	C558.770081,103.071106 578.010620,94.281776 597.192139,85.412399 
	C628.800293,70.797043 661.344543,58.443016 694.618591,48.332108 
	C724.206421,39.341339 754.048767,30.838583 784.253784,24.322674 
	C817.139160,17.228548 850.501465,12.202331 883.795837,7.208015 
	C900.334900,4.727071 917.190186,4.368112 933.891602,2.924565 
	C934.975098,2.830912 935.966003,1.666378 937.000000,0.999995 
	C979.354248,1.000000 1021.708496,1.000000 1064.270630,1.387399 
	C1065.165283,2.173403 1065.825928,2.863860 1066.542480,2.927710 
	C1082.242920,4.326684 1097.968262,5.472324 1113.649658,7.053344 
	C1127.792358,8.479224 1141.966187,9.890539 1155.985474,12.173087 
	C1173.135254,14.965325 1190.281006,18.061062 1207.173706,22.093147 
	C1237.418213,29.312120 1267.637451,36.746265 1297.547241,45.219685 
	C1317.241699,50.799107 1336.653564,57.655243 1355.693115,65.199074 
	C1381.682861,75.496780 1407.411255,86.525497 1432.840820,98.140167 
	C1449.668091,105.825729 1465.987671,114.707870 1482.149170,123.743629 
	C1501.705078,134.677261 1521.326416,145.616852 1540.056885,157.872101 
	C1562.221802,172.374359 1583.828247,187.802078 1605.003418,203.724045 
	C1624.449219,218.345779 1643.399048,233.695221 1661.826782,249.583038 
	C1678.080078,263.596405 1693.426392,278.675415 1708.940674,293.526825 
	C1715.865845,300.155975 1722.248535,307.354736 1728.822144,314.346893 
	C1731.631958,317.335480 1734.341309,320.421356 1737.026855,323.523224 
	C1751.957275,340.767120 1767.154053,357.791626 1781.688477,375.363586 
	C1792.587158,388.539734 1803.024658,402.143402 1812.941528,416.073517 
	C1824.701294,432.592468 1836.303345,449.287231 1846.851685,466.589813 
	C1861.778809,491.074982 1876.568115,515.724915 1889.767578,541.160095 
	C1902.842407,566.354736 1914.528687,592.332886 1925.593872,618.487854 
	C1934.773193,640.185486 1942.323975,662.582153 1950.308350,684.772705 
	C1961.338989,715.429626 1969.479614,746.939148 1976.767700,778.645142 
	C1980.768066,796.048584 1983.800537,813.683105 1986.947754,831.270996 
	C1988.957397,842.501587 1990.470459,853.824646 1992.039917,865.129333 
	C1993.791382,877.744934 1995.620850,890.359436 1996.917114,903.025513 
	C1997.989746,913.506165 1998.294067,924.064392 1999.083862,934.577332 
	C1999.147705,935.428101 2000.334839,936.194397 2001.000000,937.000000 
	C2001.000000,979.354248 2001.000000,1021.708496 2000.640869,1064.200195 
	C1999.854492,1066.023682 1999.163086,1067.691528 1999.046631,1069.398560 
	C1998.586304,1076.148682 1998.568726,1082.937012 1997.899780,1089.662842 
	C1996.799194,1100.727295 1995.330566,1111.755371 1993.997925,1122.796509 
	C1992.646973,1133.989746 1991.625732,1145.237549 1989.819458,1156.357300 
	C1987.555908,1170.291870 1984.934082,1184.184326 1981.938110,1197.980103 
	C1977.091553,1220.298218 1972.840454,1242.821655 1966.466309,1264.713501 
	C1957.929077,1294.034668 1948.484375,1323.163818 1937.802002,1351.767456 
	C1927.388550,1379.650757 1915.676147,1407.117310 1903.129028,1434.114014 
	C1892.807861,1456.321411 1881.216431,1478.037720 1868.757080,1499.126221 
	C1854.029053,1524.054688 1837.988525,1548.222168 1822.106689,1572.450562 
	C1803.129028,1601.402344 1781.349976,1628.272583 1758.815063,1654.474976 
	C1744.073242,1671.615723 1728.495850,1688.056274 1712.902588,1704.439209 
	C1703.538330,1714.277832 1693.451172,1723.430786 1683.635376,1732.836304 
	C1679.352417,1736.940063 1675.073853,1741.067139 1670.553223,1744.900635 
	C1656.178833,1757.090576 1641.854736,1769.349121 1627.200195,1781.196655 
	C1613.756470,1792.065063 1600.226318,1802.879028 1586.157959,1812.908691 
	C1569.651489,1824.676392 1552.890015,1836.175293 1535.575684,1846.699341 
	C1510.946411,1861.669067 1485.941284,1876.062256 1460.653931,1889.891968 
	C1444.846802,1898.536743 1428.346680,1905.958740 1411.934326,1913.439453 
	C1396.175293,1920.622437 1380.396973,1927.910522 1364.146484,1933.833496 
	C1338.492554,1943.183838 1312.650879,1952.150635 1286.489746,1959.939697 
	C1261.097046,1967.500000 1235.275757,1973.681885 1209.495972,1979.855713 
	C1196.555298,1982.954834 1183.306763,1984.801758 1170.162842,1987.008179 
	C1159.244995,1988.840820 1148.290405,1990.471191 1137.326660,1992.008789 
	C1124.720337,1993.776733 1112.114990,1995.631348 1099.454834,1996.910522 
	C1088.644775,1998.002563 1077.754028,1998.285645 1066.910278,1999.079956 
	C1065.898804,1999.154053 1064.968140,2000.333618 1064.000000,2001.000000 
M645.120422,1057.966553 
	C645.109924,1107.442139 645.128540,1156.917969 645.018188,1206.393311 
	C645.011414,1209.435425 645.864746,1211.211182 648.546143,1212.701294 
	C654.333923,1215.917603 659.890259,1219.546875 665.605469,1222.897705 
	C698.409790,1242.131348 731.225159,1261.346069 764.060120,1280.527222 
	C767.814331,1282.720215 771.714111,1284.664185 776.000488,1286.967529 
	C776.000488,1284.336304 776.000488,1282.508789 776.000488,1280.681152 
	C776.000488,1235.036865 775.748535,1189.389893 776.236206,1143.750854 
	C776.322510,1135.675293 773.847595,1131.544922 766.969177,1127.631226 
	C741.011169,1112.861206 715.472595,1097.355103 689.747681,1082.174194 
	C675.316406,1073.657837 660.827698,1065.239014 646.062073,1056.385498 
	C645.792725,1056.604736 645.523376,1056.824097 645.120422,1057.966553 
M1355.037109,1056.974976 
	C1348.316772,1060.927246 1341.588257,1064.865601 1334.877441,1068.833984 
	C1299.897827,1089.519043 1264.947510,1110.254028 1229.901733,1130.826538 
	C1226.913818,1132.580444 1225.917480,1134.470947 1225.925171,1137.866211 
	C1226.034668,1185.999146 1225.999756,1234.132324 1225.999756,1282.265503 
	C1225.999756,1283.671997 1225.999634,1285.078491 1225.999634,1287.412354 
	C1238.333496,1280.038086 1249.760864,1273.081055 1261.306885,1266.326904 
	C1291.687866,1248.554565 1322.084839,1230.808594 1352.583130,1213.238892 
	C1355.940796,1211.304688 1357.033203,1209.231323 1357.004639,1205.430786 
	C1356.821777,1181.115845 1356.933716,1156.798706 1356.905273,1132.482300 
	C1356.875732,1107.336792 1356.796997,1082.191162 1356.787354,1056.571655 
	C1356.427612,1056.654907 1356.067871,1056.738281 1355.037109,1056.974976 
M1058.948608,1386.425781 
	C1081.641846,1373.135498 1104.278076,1359.746338 1127.084229,1346.652588 
	C1130.881226,1344.472412 1132.289307,1342.205811 1132.281128,1337.746948 
	C1132.126221,1253.096558 1132.199585,1168.445801 1132.066528,1083.795166 
	C1132.060181,1079.734497 1133.418457,1077.659912 1136.824341,1075.667603 
	C1208.951050,1033.476807 1280.994385,991.143127 1353.114990,948.941895 
	C1356.377197,947.033142 1357.694702,945.023254 1357.665405,941.119995 
	C1357.301514,892.797424 1357.084595,844.473511 1357.028076,796.149658 
	C1357.023438,792.277832 1355.804688,790.264282 1352.529907,788.349304 
	C1311.722290,764.485596 1270.983154,740.504150 1230.301025,716.426819 
	C1227.239502,714.614868 1225.073242,714.373047 1221.839233,716.286926 
	C1149.927124,758.845703 1077.917603,801.239868 1005.989929,843.772278 
	C1002.272705,845.970337 999.435791,846.256653 995.540527,843.936523 
	C923.890320,801.260803 852.139343,758.754272 780.471191,716.108765 
	C777.648499,714.429260 775.672485,714.458496 772.890320,716.105774 
	C731.781738,740.446167 690.622986,764.702148 649.404663,788.856262 
	C646.340759,790.651611 645.039490,792.496338 645.050842,796.214844 
	C645.197449,844.538635 645.188538,892.863098 645.066101,941.187012 
	C645.056946,944.797058 646.123474,946.804993 649.282227,948.652527 
	C721.412720,990.839600 793.455261,1033.177246 865.605347,1075.330688 
	C869.467041,1077.586792 870.680176,1080.039307 870.673767,1084.394531 
	C870.549316,1169.045166 870.617310,1253.695801 870.504639,1338.346436 
	C870.499512,1342.193237 871.695801,1344.227051 875.008301,1346.155518 
	C915.862732,1369.940430 956.634460,1393.867310 997.371216,1417.853394 
	C1000.236450,1419.540527 1002.366516,1419.777344 1005.394531,1417.962891 
	C1022.955383,1407.440063 1040.672241,1397.177490 1058.948608,1386.425781 
M743.278076,1533.209717 
	C753.979431,1539.485962 764.680786,1545.762207 776.000305,1552.401123 
	C776.000305,1549.851685 776.000305,1548.216431 776.000305,1546.581177 
	C776.000305,1498.750488 775.937622,1450.919678 776.107788,1403.089600 
	C776.122986,1398.821533 774.669250,1396.716675 771.083984,1394.614136 
	C699.426208,1352.589722 627.877563,1310.379150 556.207397,1268.375732 
	C552.351013,1266.115723 551.119629,1263.738281 551.117371,1259.382080 
	C551.072815,1174.886963 550.836060,1090.391846 550.762573,1005.896729 
	C550.759460,1002.268433 549.625244,1000.295349 546.491882,998.457153 
	C513.751953,979.250671 481.113647,959.871033 448.440948,940.549866 
	C439.182251,935.074768 429.903015,929.634399 419.898468,923.745728 
	C419.898468,926.220093 419.898499,927.825195 419.898499,929.430298 
	C419.898468,1065.755981 419.915192,1202.081787 419.811432,1338.407349 
	C419.808533,1342.201904 420.882812,1344.244263 424.230713,1346.203857 
	C530.408752,1408.350586 636.513000,1470.623413 743.278076,1533.209717 
M1293.409546,1512.901611 
	C1388.036499,1457.400146 1482.649414,1401.874878 1577.343140,1346.487549 
	C1580.982056,1344.359253 1582.272339,1342.160400 1582.268433,1337.940430 
	C1582.145630,1201.956787 1582.167358,1065.973022 1582.167358,929.989258 
	C1582.167358,928.205078 1582.167236,926.420959 1582.167236,924.021545 
	C1580.283569,924.974915 1578.958496,925.553589 1577.723267,926.284180 
	C1537.602783,950.012939 1497.547241,973.852539 1457.302002,997.367676 
	C1452.601929,1000.113892 1451.178955,1003.031677 1451.179077,1008.316345 
	C1451.182007,1092.139526 1450.922119,1175.962646 1450.870483,1259.785767 
	C1450.867920,1263.986206 1449.561279,1266.210571 1445.899048,1268.356689 
	C1374.086182,1310.437988 1302.384521,1352.709106 1230.587158,1394.816772 
	C1227.137207,1396.840088 1225.938965,1399.025024 1225.950928,1403.000610 
	C1226.094727,1450.827881 1226.041504,1498.655640 1226.053711,1546.483276 
	C1226.054077,1548.205444 1226.197998,1549.927612 1226.302490,1552.263428 
	C1248.887573,1539.004150 1270.825562,1526.124756 1293.409546,1512.901611 
M792.948730,594.426941 
	C860.439636,554.540222 927.954163,514.693298 995.361267,474.665558 
	C999.315552,472.317444 1002.057251,472.257751 1006.013672,474.599640 
	C1077.487915,516.906372 1149.082886,559.009460 1220.542236,601.341614 
	C1224.732666,603.824036 1227.546875,603.714417 1231.661865,601.245361 
	C1262.632202,582.662598 1293.781006,564.377258 1324.869141,545.990845 
	C1335.267212,539.841064 1345.651611,533.667847 1356.579590,527.186707 
	C1354.778198,525.971497 1353.618652,525.095703 1352.374634,524.363464 
	C1236.470093,456.153870 1120.550537,387.970032 1004.696533,319.674866 
	C1001.630676,317.867615 999.543274,318.033997 996.613464,319.763550 
	C881.086060,387.962067 765.510193,456.078369 649.948120,524.218140 
	C648.581177,525.024170 647.312866,525.997253 645.633728,527.140747 
	C647.633911,528.386047 649.138733,529.364502 650.682129,530.277771 
	C686.923584,551.723022 723.163940,573.170105 759.419800,594.591003 
	C764.853943,597.801636 770.345154,603.299744 775.844849,603.343323 
	C781.319153,603.386719 786.837280,597.893616 792.948730,594.426941 
M1582.101807,706.500000 
	C1582.101685,692.001526 1582.024902,677.502380 1582.166504,663.005249 
	C1582.194458,660.143250 1581.308716,658.483948 1578.805420,657.079468 
	C1571.258057,652.845459 1563.848999,648.364868 1556.389648,643.974182 
	C1522.388916,623.961060 1488.406494,603.916443 1454.336914,584.021423 
	C1452.703125,583.067383 1449.749512,582.484802 1448.338745,583.312012 
	C1407.841919,607.057129 1367.463135,631.003723 1327.068604,654.923340 
	C1324.866577,656.227234 1322.692749,657.578979 1320.050171,659.185425 
	C1322.820190,660.865662 1324.796997,662.090454 1326.797974,663.274597 
	C1366.625366,686.844421 1406.431152,710.451172 1446.330566,733.898682 
	C1449.613892,735.828186 1450.872803,737.842529 1450.860718,741.717957 
	C1450.713013,789.212158 1450.764648,836.707031 1450.764648,884.201721 
	C1450.764648,886.065308 1450.764648,887.928894 1450.764648,890.414673 
	C1452.478516,889.533569 1453.218140,889.198608 1453.913818,888.789001 
	C1495.515137,864.296448 1537.094360,839.766052 1578.753174,815.371704 
	C1581.504639,813.760498 1582.164917,811.929382 1582.157349,808.988525 
	C1582.070312,775.159180 1582.101807,741.329529 1582.101807,706.500000 
M676.582581,655.913330 
	C635.707581,631.851501 594.818787,607.813110 553.991699,583.670288 
	C551.512512,582.204224 549.780029,582.214233 547.293091,583.691589 
	C506.085419,608.171082 464.828339,632.567627 423.512451,656.863892 
	C420.681915,658.528564 419.752411,660.351624 419.759460,663.580933 
	C419.865234,712.061646 419.870880,760.542786 419.748535,809.023438 
	C419.740173,812.347168 420.900085,814.005859 423.652863,815.626648 
	C464.527527,839.690552 505.332703,863.872437 546.163452,888.010925 
	C547.368896,888.723511 548.674316,889.266907 550.654236,890.245667 
	C550.654236,887.671265 550.654114,885.875916 550.654236,884.080566 
	C550.657776,836.765808 550.723328,789.450867 550.558960,742.136719 
	C550.544189,737.892578 551.908875,735.692078 555.522034,733.581238 
	C596.044006,709.907349 636.457092,686.046936 676.892029,662.224060 
	C678.360107,661.359009 679.751465,660.363831 681.624451,659.137329 
	C679.678162,657.856201 678.451233,657.048584 676.582581,655.913330 
M921.655701,1637.835449 
	C946.739258,1652.657104 971.850891,1667.431641 996.866882,1682.366455 
	C999.663025,1684.035645 1001.653748,1684.124390 1004.513611,1682.431519 
	C1045.631836,1658.093628 1086.816895,1633.868042 1128.040283,1609.708374 
	C1130.911743,1608.025757 1132.205078,1606.258545 1132.194824,1602.714355 
	C1132.056274,1554.715332 1132.104614,1506.715698 1132.089478,1458.716309 
	C1132.088989,1457.168701 1131.904297,1455.621094 1131.769165,1453.501709 
	C1129.424072,1454.817017 1127.693726,1455.746338 1126.002441,1456.741943 
	C1085.829590,1480.391846 1045.644165,1504.020020 1005.523376,1527.757935 
	C1002.212524,1529.716675 999.751892,1530.078125 996.131287,1527.914917 
	C955.970764,1503.919922 915.670166,1480.159424 875.399658,1456.348755 
	C873.804932,1455.405884 872.132874,1454.593628 870.224121,1453.574951 
	C870.045288,1454.930298 869.923401,1455.423096 869.923279,1455.916016 
	C869.909119,1505.248657 869.868896,1554.581543 870.043579,1603.913574 
	C870.049805,1605.678955 871.776794,1608.112061 873.393921,1609.093262 
	C889.192993,1618.679321 905.139526,1628.022461 921.655701,1637.835449 
M975.084900,721.384277 
	C982.368042,725.704956 989.729675,729.900940 996.894653,734.409363 
	C999.661133,736.150269 1001.694397,736.115295 1004.547302,734.418762 
	C1031.863403,718.174377 1059.285278,702.108154 1086.673584,685.984985 
	C1101.558350,677.222534 1116.436523,668.448669 1131.866943,659.356384 
	C1130.192749,658.207275 1129.052246,657.319458 1127.817261,656.592041 
	C1086.670654,632.356140 1045.491577,608.174500 1004.409363,583.829834 
	C1001.487122,582.098145 999.532410,582.387146 996.820374,583.999512 
	C959.267639,606.325012 921.651001,628.542969 884.051758,650.790283 
	C879.541443,653.459045 875.041687,656.145935 869.896545,659.205200 
	C905.278259,680.127991 939.860718,700.578247 975.084900,721.384277 
z"/>
<path fill="#FFFFFF" opacity="1.000000" stroke="none" 
	d="
M1058.642456,1386.626343 
	C1040.672241,1397.177490 1022.955383,1407.440063 1005.394531,1417.962891 
	C1002.366516,1419.777344 1000.236450,1419.540527 997.371216,1417.853394 
	C956.634460,1393.867310 915.862732,1369.940430 875.008301,1346.155518 
	C871.695801,1344.227051 870.499512,1342.193237 870.504639,1338.346436 
	C870.617310,1253.695801 870.549316,1169.045166 870.673767,1084.394531 
	C870.680176,1080.039307 869.467041,1077.586792 865.605347,1075.330688 
	C793.455261,1033.177246 721.412720,990.839600 649.282227,948.652527 
	C646.123474,946.804993 645.056946,944.797058 645.066101,941.187012 
	C645.188538,892.863098 645.197449,844.538635 645.050842,796.214844 
	C645.039490,792.496338 646.340759,790.651611 649.404663,788.856262 
	C690.622986,764.702148 731.781738,740.446167 772.890320,716.105774 
	C775.672485,714.458496 777.648499,714.429260 780.471191,716.108765 
	C852.139343,758.754272 923.890320,801.260803 995.540527,843.936523 
	C999.435791,846.256653 1002.272705,845.970337 1005.989929,843.772278 
	C1077.917603,801.239868 1149.927124,758.845703 1221.839233,716.286926 
	C1225.073242,714.373047 1227.239502,714.614868 1230.301025,716.426819 
	C1270.983154,740.504150 1311.722290,764.485596 1352.529907,788.349304 
	C1355.804688,790.264282 1357.023438,792.277832 1357.028076,796.149658 
	C1357.084595,844.473511 1357.301514,892.797424 1357.665405,941.119995 
	C1357.694702,945.023254 1356.377197,947.033142 1353.114990,948.941895 
	C1280.994385,991.143127 1208.951050,1033.476807 1136.824341,1075.667603 
	C1133.418457,1077.659912 1132.060181,1079.734497 1132.066528,1083.795166 
	C1132.199585,1168.445801 1132.126221,1253.096558 1132.281128,1337.746948 
	C1132.289307,1342.205811 1130.881226,1344.472412 1127.084229,1346.652588 
	C1104.278076,1359.746338 1081.641846,1373.135498 1058.642456,1386.626343 
z"/>
<path fill="#FFFFFF" opacity="1.000000" stroke="none" 
	d="
M742.953247,1533.043457 
	C636.513000,1470.623413 530.408752,1408.350586 424.230713,1346.203857 
	C420.882812,1344.244263 419.808533,1342.201904 419.811432,1338.407349 
	C419.915192,1202.081787 419.898468,1065.755981 419.898499,929.430298 
	C419.898499,927.825195 419.898468,926.220093 419.898468,923.745728 
	C429.903015,929.634399 439.182251,935.074768 448.440948,940.549866 
	C481.113647,959.871033 513.751953,979.250671 546.491882,998.457153 
	C549.625244,1000.295349 550.759460,1002.268433 550.762573,1005.896729 
	C550.836060,1090.391846 551.072815,1174.886963 551.117371,1259.382080 
	C551.119629,1263.738281 552.351013,1266.115723 556.207397,1268.375732 
	C627.877563,1310.379150 699.426208,1352.589722 771.083984,1394.614136 
	C774.669250,1396.716675 776.122986,1398.821533 776.107788,1403.089600 
	C775.937622,1450.919678 776.000305,1498.750488 776.000305,1546.581177 
	C776.000305,1548.216431 776.000305,1549.851685 776.000305,1552.401123 
	C764.680786,1545.762207 753.979431,1539.485962 742.953247,1533.043457 
z"/>
<path fill="#FFFFFF" opacity="1.000000" stroke="none" 
	d="
M1293.086670,1513.073486 
	C1270.825562,1526.124756 1248.887573,1539.004150 1226.302490,1552.263428 
	C1226.197998,1549.927612 1226.054077,1548.205444 1226.053711,1546.483276 
	C1226.041504,1498.655640 1226.094727,1450.827881 1225.950928,1403.000610 
	C1225.938965,1399.025024 1227.137207,1396.840088 1230.587158,1394.816772 
	C1302.384521,1352.709106 1374.086182,1310.437988 1445.899048,1268.356689 
	C1449.561279,1266.210571 1450.867920,1263.986206 1450.870483,1259.785767 
	C1450.922119,1175.962646 1451.182007,1092.139526 1451.179077,1008.316345 
	C1451.178955,1003.031677 1452.601929,1000.113892 1457.302002,997.367676 
	C1497.547241,973.852539 1537.602783,950.012939 1577.723267,926.284180 
	C1578.958496,925.553589 1580.283569,924.974915 1582.167236,924.021545 
	C1582.167236,926.420959 1582.167358,928.205078 1582.167358,929.989258 
	C1582.167358,1065.973022 1582.145630,1201.956787 1582.268433,1337.940430 
	C1582.272339,1342.160400 1580.982056,1344.359253 1577.343140,1346.487549 
	C1482.649414,1401.874878 1388.036499,1457.400146 1293.086670,1513.073486 
z"/>
<path fill="#FFFFFE" opacity="1.000000" stroke="none" 
	d="
M792.642456,594.627563 
	C786.837280,597.893616 781.319153,603.386719 775.844849,603.343323 
	C770.345154,603.299744 764.853943,597.801636 759.419800,594.591003 
	C723.163940,573.170105 686.923584,551.723022 650.682129,530.277771 
	C649.138733,529.364502 647.633911,528.386047 645.633728,527.140747 
	C647.312866,525.997253 648.581177,525.024170 649.948120,524.218140 
	C765.510193,456.078369 881.086060,387.962067 996.613464,319.763550 
	C999.543274,318.033997 1001.630676,317.867615 1004.696533,319.674866 
	C1120.550537,387.970032 1236.470093,456.153870 1352.374634,524.363464 
	C1353.618652,525.095703 1354.778198,525.971497 1356.579590,527.186707 
	C1345.651611,533.667847 1335.267212,539.841064 1324.869141,545.990845 
	C1293.781006,564.377258 1262.632202,582.662598 1231.661865,601.245361 
	C1227.546875,603.714417 1224.732666,603.824036 1220.542236,601.341614 
	C1149.082886,559.009460 1077.487915,516.906372 1006.013672,474.599640 
	C1002.057251,472.257751 999.315552,472.317444 995.361267,474.665558 
	C927.954163,514.693298 860.439636,554.540222 792.642456,594.627563 
z"/>
<path fill="#FFFFFF" opacity="1.000000" stroke="none" 
	d="
M1582.101807,707.000000 
	C1582.101807,741.329529 1582.070312,775.159180 1582.157349,808.988525 
	C1582.164917,811.929382 1581.504639,813.760498 1578.753174,815.371704 
	C1537.094360,839.766052 1495.515137,864.296448 1453.913818,888.789001 
	C1453.218140,889.198608 1452.478516,889.533569 1450.764648,890.414673 
	C1450.764648,887.928894 1450.764648,886.065308 1450.764648,884.201721 
	C1450.764648,836.707031 1450.713013,789.212158 1450.860718,741.717957 
	C1450.872803,737.842529 1449.613892,735.828186 1446.330566,733.898682 
	C1406.431152,710.451172 1366.625366,686.844421 1326.797974,663.274597 
	C1324.796997,662.090454 1322.820190,660.865662 1320.050171,659.185425 
	C1322.692749,657.578979 1324.866577,656.227234 1327.068604,654.923340 
	C1367.463135,631.003723 1407.841919,607.057129 1448.338745,583.312012 
	C1449.749512,582.484802 1452.703125,583.067383 1454.336914,584.021423 
	C1488.406494,603.916443 1522.388916,623.961060 1556.389648,643.974182 
	C1563.848999,648.364868 1571.258057,652.845459 1578.805420,657.079468 
	C1581.308716,658.483948 1582.194458,660.143250 1582.166504,663.005249 
	C1582.024902,677.502380 1582.101685,692.001526 1582.101807,707.000000 
z"/>
<path fill="#FFFFFF" opacity="1.000000" stroke="none" 
	d="
M676.903442,656.077148 
	C678.451233,657.048584 679.678162,657.856201 681.624451,659.137329 
	C679.751465,660.363831 678.360107,661.359009 676.892029,662.224060 
	C636.457092,686.046936 596.044006,709.907349 555.522034,733.581238 
	C551.908875,735.692078 550.544189,737.892578 550.558960,742.136719 
	C550.723328,789.450867 550.657776,836.765808 550.654236,884.080566 
	C550.654114,885.875916 550.654236,887.671265 550.654236,890.245667 
	C548.674316,889.266907 547.368896,888.723511 546.163452,888.010925 
	C505.332703,863.872437 464.527527,839.690552 423.652863,815.626648 
	C420.900085,814.005859 419.740173,812.347168 419.748535,809.023438 
	C419.870880,760.542786 419.865234,712.061646 419.759460,663.580933 
	C419.752411,660.351624 420.681915,658.528564 423.512451,656.863892 
	C464.828339,632.567627 506.085419,608.171082 547.293091,583.691589 
	C549.780029,582.214233 551.512512,582.204224 553.991699,583.670288 
	C594.818787,607.813110 635.707581,631.851501 676.903442,656.077148 
z"/>
<path fill="#FFFFFF" opacity="1.000000" stroke="none" 
	d="
M921.349854,1637.635010 
	C905.139526,1628.022461 889.192993,1618.679321 873.393921,1609.093262 
	C871.776794,1608.112061 870.049805,1605.678955 870.043579,1603.913574 
	C869.868896,1554.581543 869.909119,1505.248657 869.923279,1455.916016 
	C869.923401,1455.423096 870.045288,1454.930298 870.224121,1453.574951 
	C872.132874,1454.593628 873.804932,1455.405884 875.399658,1456.348755 
	C915.670166,1480.159424 955.970764,1503.919922 996.131287,1527.914917 
	C999.751892,1530.078125 1002.212524,1529.716675 1005.523376,1527.757935 
	C1045.644165,1504.020020 1085.829590,1480.391846 1126.002441,1456.741943 
	C1127.693726,1455.746338 1129.424072,1454.817017 1131.769165,1453.501709 
	C1131.904297,1455.621094 1132.088989,1457.168701 1132.089478,1458.716309 
	C1132.104614,1506.715698 1132.056274,1554.715332 1132.194824,1602.714355 
	C1132.205078,1606.258545 1130.911743,1608.025757 1128.040283,1609.708374 
	C1086.816895,1633.868042 1045.631836,1658.093628 1004.513611,1682.431519 
	C1001.653748,1684.124390 999.663025,1684.035645 996.866882,1682.366455 
	C971.850891,1667.431641 946.739258,1652.657104 921.349854,1637.635010 
z"/>
<path fill="#FFFFFE" opacity="1.000000" stroke="none" 
	d="
M974.764038,721.206360 
	C939.860718,700.578247 905.278259,680.127991 869.896545,659.205200 
	C875.041687,656.145935 879.541443,653.459045 884.051758,650.790283 
	C921.651001,628.542969 959.267639,606.325012 996.820374,583.999512 
	C999.532410,582.387146 1001.487122,582.098145 1004.409363,583.829834 
	C1045.491577,608.174500 1086.670654,632.356140 1127.817261,656.592041 
	C1129.052246,657.319458 1130.192749,658.207275 1131.866943,659.356384 
	C1116.436523,668.448669 1101.558350,677.222534 1086.673584,685.984985 
	C1059.285278,702.108154 1031.863403,718.174377 1004.547302,734.418762 
	C1001.694397,736.115295 999.661133,736.150269 996.894653,734.409363 
	C989.729675,729.900940 982.368042,725.704956 974.764038,721.206360 
z"/>
<path fill="#FFFFFF" opacity="1.000000" stroke="none" 
	d="
M1356.739746,1057.045654 
	C1356.796997,1082.191162 1356.875732,1107.336792 1356.905273,1132.482300 
	C1356.933716,1156.798706 1356.821777,1181.115845 1357.004639,1205.430786 
	C1357.033203,1209.231323 1355.940796,1211.304688 1352.583130,1213.238892 
	C1322.084839,1230.808594 1291.687866,1248.554565 1261.306885,1266.326904 
	C1249.760864,1273.081055 1238.333496,1280.038086 1225.999634,1287.412354 
	C1225.999634,1285.078491 1225.999756,1283.671997 1225.999756,1282.265503 
	C1225.999756,1234.132324 1226.034668,1185.999146 1225.925171,1137.866211 
	C1225.917480,1134.470947 1226.913818,1132.580444 1229.901733,1130.826538 
	C1264.947510,1110.254028 1299.897827,1089.519043 1334.877441,1068.833984 
	C1341.588257,1064.865601 1348.316772,1060.927246 1355.625488,1056.978516 
	C1356.389160,1057.003296 1356.564453,1057.024536 1356.739746,1057.045654 
z"/>
<path fill="#FFFFFF" opacity="1.000000" stroke="none" 
	d="
M646.364929,1056.776245 
	C660.827698,1065.239014 675.316406,1073.657837 689.747681,1082.174194 
	C715.472595,1097.355103 741.011169,1112.861206 766.969177,1127.631226 
	C773.847595,1131.544922 776.322510,1135.675293 776.236206,1143.750854 
	C775.748535,1189.389893 776.000488,1235.036865 776.000488,1280.681152 
	C776.000488,1282.508789 776.000488,1284.336304 776.000488,1286.967529 
	C771.714111,1284.664185 767.814331,1282.720215 764.060120,1280.527222 
	C731.225159,1261.346069 698.409790,1242.131348 665.605469,1222.897705 
	C659.890259,1219.546875 654.333923,1215.917603 648.546143,1212.701294 
	C645.864746,1211.211182 645.011414,1209.435425 645.018188,1206.393311 
	C645.128540,1156.917969 645.109924,1107.442139 645.470703,1057.462036 
	C646.002319,1056.896973 646.183655,1056.836548 646.364929,1056.776245 
z"/>
<path fill="#FDF4D9" opacity="1.000000" stroke="none" 
	d="
M646.213501,1056.580811 
	C646.183655,1056.836548 646.002319,1056.896973 645.537476,1057.000488 
	C645.523376,1056.824097 645.792725,1056.604736 646.213501,1056.580811 
z"/>
<path fill="#FDF4DA" opacity="1.000000" stroke="none" 
	d="
M1356.763550,1056.808594 
	C1356.564453,1057.024536 1356.389160,1057.003296 1355.960938,1056.901855 
	C1356.067871,1056.738281 1356.427612,1056.654907 1356.763550,1056.808594 
z"/>
</svg>