<svg version="1.1" id="Layer_1" xmlns="http://www.w3.org/2000/svg" xmlns:xlink="http://www.w3.org/1999/xlink" x="0px" y="0px"
	 width="100%" viewBox="0 0 1440 1440" enable-background="new 0 0 1440 1440" xml:space="preserve">
<path fill="#F0B90B" opacity="1.000000" stroke="none" 
	d="
M980.031250,1341.995117 
	C968.179871,1346.522949 956.873047,1351.479858 945.186218,1355.262207 
	C924.300964,1362.021729 903.385986,1368.871582 882.109558,1374.187134 
	C862.261841,1379.145508 842.021301,1382.771851 821.780823,1385.847778 
	C803.087830,1388.688599 784.204041,1390.594360 765.333740,1391.860596 
	C745.158447,1393.214355 724.888123,1394.106812 704.682495,1393.776978 
	C685.390137,1393.461792 666.063049,1391.911987 646.866577,1389.837402 
	C615.361206,1386.432983 584.167603,1380.854126 553.481995,1372.888550 
	C522.017273,1364.720703 491.122742,1354.704468 461.305054,1341.647705 
	C446.270203,1335.064209 431.187653,1328.511719 416.561157,1321.089233 
	C380.607239,1302.843994 346.204803,1281.971680 314.564606,1256.902954 
	C297.000488,1242.986816 279.997620,1228.332520 263.185791,1213.507324 
	C252.351532,1203.953491 241.844345,1193.929565 232.030090,1183.338379 
	C209.628052,1159.163086 188.708801,1133.774536 169.752060,1106.718872 
	C153.112259,1082.970093 138.009460,1058.324585 124.542053,1032.730225 
	C109.250023,1003.668030 96.433167,973.484802 85.573814,942.423828 
	C74.888008,911.859314 66.475899,880.722961 60.254623,849.018677 
	C57.033073,832.601318 54.855919,815.932983 53.117863,799.282959 
	C51.199287,780.903687 50.139561,762.426270 49.060680,743.970825 
	C48.373390,732.214050 47.674641,720.393066 48.149994,708.648071 
	C48.910831,689.849426 49.976830,671.013184 52.133598,652.333679 
	C54.768620,629.512207 57.719566,606.644714 62.281555,584.151550 
	C66.736252,562.187439 72.421722,540.354919 79.337799,519.039185 
	C87.223854,494.733795 96.191292,470.686829 106.283928,447.213409 
	C118.817535,418.062897 133.696396,389.967133 151.198288,363.429810 
	C163.487885,344.795654 176.175262,326.391907 189.446381,308.448395 
	C198.057129,296.806030 207.743362,285.910065 217.480484,275.162292 
	C229.623306,261.759125 241.733368,248.232117 254.916824,235.890030 
	C271.042755,220.793198 288.082672,206.648544 305.058929,192.489700 
	C330.753174,171.059753 358.592590,152.545792 387.772400,136.388626 
	C411.444183,123.281326 436.172211,111.997787 460.838440,100.801239 
	C476.046051,93.898178 491.875214,88.268097 507.675964,82.789429 
	C535.587402,73.111572 564.168579,65.696388 593.180969,60.217392 
	C609.625793,57.111782 626.272339,54.855602 642.921692,53.110550 
	C661.134888,51.201591 679.445068,50.136299 697.734131,49.062950 
	C709.490662,48.372971 721.311951,47.674431 733.056885,48.149666 
	C752.021912,48.917049 770.959839,50.499390 789.887878,52.005650 
	C823.034241,54.643387 855.596802,60.839481 887.767029,69.042091 
	C919.432434,77.115967 950.475525,87.182930 980.476135,100.217453 
	C995.854858,106.899132 1011.318970,113.498940 1026.199219,121.190620 
	C1061.877563,139.632996 1096.198242,160.359711 1127.777222,185.320007 
	C1141.081421,195.835739 1154.376343,206.417206 1167.010132,217.712997 
	C1181.606689,230.763702 1196.044800,244.088409 1209.522339,258.272369 
	C1232.235840,282.176666 1253.071899,307.707550 1271.974609,334.787415 
	C1288.460815,358.405640 1303.413818,382.924744 1316.825195,408.417908 
	C1332.295288,437.824646 1345.320923,468.237274 1356.388428,499.572937 
	C1367.171021,530.101624 1375.441528,561.283875 1381.736938,592.967224 
	C1384.997070,609.374817 1387.143188,626.051025 1388.881470,642.700989 
	C1390.800293,661.080200 1391.870605,679.557068 1392.936401,698.013000 
	C1393.634644,710.102661 1394.328003,722.257019 1393.846680,734.335510 
	C1393.110718,752.801453 1392.011475,771.302979 1389.872803,789.650269 
	C1387.212646,812.469604 1384.312988,835.346863 1379.711670,857.829773 
	C1375.153076,880.104126 1368.737061,902.030640 1362.437012,923.908508 
	C1353.879639,953.624390 1342.354736,982.324036 1328.687622,1009.988037 
	C1317.214722,1033.210938 1304.591064,1055.955933 1291.056030,1078.041748 
	C1279.322632,1097.187622 1265.985718,1115.400635 1252.609131,1133.472046 
	C1243.993530,1145.111694 1234.323120,1156.019775 1224.588135,1166.769043 
	C1212.447754,1180.174194 1200.334961,1193.698853 1187.151733,1206.041260 
	C1171.026245,1221.138428 1153.982056,1235.277588 1137.012207,1249.444214 
	C1112.853394,1269.612183 1086.570435,1286.815796 1059.465820,1302.675049 
	C1034.042358,1317.550903 1007.673706,1330.666870 980.031250,1341.995117 
M770.328674,785.828979 
	C789.095520,767.062073 807.862366,748.295166 826.629211,729.528259 
	C885.318359,670.838684 943.975464,612.117004 1002.773987,553.537292 
	C1006.418030,549.906799 1006.237366,547.908264 1002.695740,544.390808 
	C967.219727,509.157593 931.913269,473.753693 896.552551,438.404266 
	C895.392029,437.244141 894.162659,436.152740 893.343140,435.383789 
	C740.698975,588.028076 588.244568,740.482544 435.590576,893.136658 
	C472.959717,930.500122 510.872162,968.406799 549.314575,1006.843323 
	C622.597839,933.559937 696.213257,859.944458 770.328674,785.828979 
M724.380798,945.872437 
	C684.968140,985.289368 645.555481,1024.706299 606.102234,1064.163818 
	C644.106689,1102.170654 682.118713,1140.185059 720.550110,1178.618896 
	C873.339050,1025.803101 1025.766968,873.348450 1178.273438,720.815247 
	C1177.400635,719.813965 1176.897095,719.162231 1176.319702,718.584534 
	C1139.919800,682.171143 1103.475708,645.801636 1067.176025,609.288879 
	C1064.043457,606.138000 1062.444458,607.328125 1059.973022,609.798706 
	C980.325134,689.419312 900.585388,768.948059 820.956177,848.587280 
	C788.814575,880.732849 756.898254,913.103699 724.380798,945.872437 
M768.124146,445.624329 
	C790.574097,423.174164 813.024048,400.723999 834.857361,378.890472 
	C796.404968,340.437927 758.524292,302.557159 720.975647,265.008301 
	C626.049255,359.934418 530.688049,455.295349 435.039032,550.944092 
	C472.837891,588.739197 510.750244,626.647827 548.927795,664.821533 
	C621.747559,592.001465 694.685791,519.062866 768.124146,445.624329 
M279.892914,737.607056 
	C312.511749,770.223572 345.130615,802.840149 377.229065,834.936279 
	C415.132446,797.038879 453.265961,758.911377 490.755066,721.428162 
	C453.208588,683.801880 415.285461,645.798096 377.545105,607.977478 
	C339.982086,645.533813 302.079041,683.430176 263.803589,721.698792 
	C269.003693,726.838501 274.198303,731.972778 279.892914,737.607056 
z"/>
<path fill="#FFFFFE" opacity="1.000000" stroke="none" 
	d="
M770.078674,786.078979 
	C696.213257,859.944458 622.597839,933.559937 549.314575,1006.843323 
	C510.872162,968.406799 472.959717,930.500122 435.590576,893.136658 
	C588.244568,740.482544 740.698975,588.028076 893.343140,435.383789 
	C894.162659,436.152740 895.392029,437.244141 896.552551,438.404266 
	C931.913269,473.753693 967.219727,509.157593 1002.695740,544.390808 
	C1006.237366,547.908264 1006.418030,549.906799 1002.773987,553.537292 
	C943.975464,612.117004 885.318359,670.838684 826.629211,729.528259 
	C807.862366,748.295166 789.095520,767.062073 770.078674,786.078979 
z"/>
<path fill="#FFFFFF" opacity="1.000000" stroke="none" 
	d="
M724.630127,945.622192 
	C756.898254,913.103699 788.814575,880.732849 820.956177,848.587280 
	C900.585388,768.948059 980.325134,689.419312 1059.973022,609.798706 
	C1062.444458,607.328125 1064.043457,606.138000 1067.176025,609.288879 
	C1103.475708,645.801636 1139.919800,682.171143 1176.319702,718.584534 
	C1176.897095,719.162231 1177.400635,719.813965 1178.273438,720.815247 
	C1025.766968,873.348450 873.339050,1025.803101 720.550110,1178.618896 
	C682.118713,1140.185059 644.106689,1102.170654 606.102234,1064.163818 
	C645.555481,1024.706299 684.968140,985.289368 724.630127,945.622192 
z"/>
<path fill="#FFFFFF" opacity="1.000000" stroke="none" 
	d="
M767.874146,445.874329 
	C694.685791,519.062866 621.747559,592.001465 548.927795,664.821533 
	C510.750244,626.647827 472.837891,588.739197 435.039032,550.944092 
	C530.688049,455.295349 626.049255,359.934418 720.975647,265.008301 
	C758.524292,302.557159 796.404968,340.437927 834.857361,378.890472 
	C813.024048,400.723999 790.574097,423.174164 767.874146,445.874329 
z"/>
<path fill="#FFFFFE" opacity="1.000000" stroke="none" 
	d="
M279.642914,737.357056 
	C274.198303,731.972778 269.003693,726.838501 263.803589,721.698792 
	C302.079041,683.430176 339.982086,645.533813 377.545105,607.977478 
	C415.285461,645.798096 453.208588,683.801880 490.755066,721.428162 
	C453.265961,758.911377 415.132446,797.038879 377.229065,834.936279 
	C345.130615,802.840149 312.511749,770.223572 279.642914,737.357056 
z"/>
</svg>